<svg width="68" height="72" viewBox="0 0 68 72" fill="none" stroke="black" xmlns="http://www.w3.org/2000/svg">
<path d="M7.89567 35.5788C3.36616 42.7706 -1.30426 59.5916 16.2502 69.3405C20.2905 62.6796 24.276 46.602 7.89567 35.5788Z"/>
<path d="M14.9435 1.43786C19.6874 8.46319 24.8625 25.1073 7.61145 35.4812C3.37252 28.969 -1.09556 13.0432 14.9435 1.43786Z"/>
<path d="M45.0311 36.4658C51.338 36.4541 56.4372 31.4704 56.4488 25.3623C56.4605 19.2542 51.3802 14.2893 45.0734 14.301C38.7665 14.3127 33.6673 19.2965 33.6557 25.4046C33.644 31.5127 38.7243 36.4775 45.0311 36.4658Z"/>
<path d="M55.6991 60.9086C62.006 60.8969 67.1052 55.9131 67.1168 49.805C67.1285 43.6969 62.0482 38.7321 55.7413 38.7438C49.4345 38.7555 44.3353 43.7392 44.3236 49.8473C44.312 55.9554 49.3922 60.9203 55.6991 60.9086Z"/>
<path d="M44.5326 49.2654C33.9788 52.4285 21.9445 41.4206 8.43998 35.553C18.5092 32.9487 28.9129 24.7789 33.5022 26.7265"/>
</svg>
