<svg width="512" height="512" fill="none" xmlns="http://www.w3.org/2000/svg"><g clip-path="url(#a)"><path fill="#fff" d="M0 0h512v512H0z"/><path d="M239.3 205.8c6.8-21.2 15.5-102.6 14.6-152.8h4.2c-.9 50.2 7.8 131.6 14.6 152.8 9 27.7 29.4 38 65.5 43.6 19.8 3 65 3.6 120.8 3.6v6c-55.8 0-101 .6-120.8 3.6-36.1 5.6-56.5 16-65.5 43.6-6.8 21.2-15.5 102.6-14.6 152.8h-4.2c.9-50.2-7.8-131.6-14.6-152.8-9-27.7-29.4-38-65.5-43.6-19.8-3-65-3.6-120.8-3.6v-6c55.8 0 101-.6 120.8-3.6 36.1-5.6 56.5-16 65.5-43.6Z" fill="#000" stroke="#000"/></g><defs><clipPath id="a"><path fill="#fff" d="M0 0h512v512H0z"/></clipPath></defs></svg>