<svg width="512" height="512" fill="none" xmlns="http://www.w3.org/2000/svg"><path d="M256 88.8c46.4-29.1 154.7-59.2 217.4 53.8-42.8 26-146.4 51.7-217.3-53.8ZM36.3 134.2c45.2 30.5 152.3 63.9 219.1-47.2C213.5 59.7 111 31 36.3 134.2Z" fill="#008445" stroke="#000" stroke-width="8"/><path d="M261 328a72 72 0 0 1-70.7 72.7 71.3 71.3 0 0 1-70.4-72.5 72 72 0 0 1 70.7-72.7 71.3 71.3 0 0 1 70.4 72.4ZM418.4 396.6a72 72 0 0 1-70.7 72.7 71.3 71.3 0 0 1-70.5-72.4A72 72 0 0 1 348 324a71.3 71.3 0 0 1 70.5 72.5Z" fill="#D30000" stroke="#000" stroke-width="8"/><path d="M344.2 324.7c20.4-68-50.5-145.4-88.3-232.4-16.8 64.9-69.4 131.8-56.8 161.4" stroke="#000" stroke-width="8"/></svg>