<svg width="512" height="495" viewBox="0 0 512 495" fill="none" xmlns="http://www.w3.org/2000/svg">
<path d="M258.92 251.96C258.979 252.195 259.008 252.488 259.008 252.84C259.008 253.177 258.979 253.471 258.92 253.72C258.979 253.955 259.008 254.248 259.008 254.6C259.008 254.937 258.979 255.231 258.92 255.48C258.979 255.715 259.008 256.008 259.008 256.36C259.008 256.697 258.979 256.991 258.92 257.24H258.04C258.099 257.475 258.128 257.768 258.128 258.12C258.128 258.457 258.099 258.751 258.04 259H253.64C253.581 258.751 253.552 258.457 253.552 258.12C253.552 257.768 253.581 257.475 253.64 257.24H252.76C252.701 256.991 252.672 256.697 252.672 256.36C252.672 256.008 252.701 255.715 252.76 255.48H251.88C251.821 255.231 251.792 254.937 251.792 254.6C251.792 254.248 251.821 253.955 251.88 253.72C251.821 253.471 251.792 253.177 251.792 252.84C251.792 252.488 251.821 252.195 251.88 251.96C251.821 251.711 251.792 251.417 251.792 251.08C251.792 250.728 251.821 250.435 251.88 250.2H252.76C252.701 249.951 252.672 249.657 252.672 249.32C252.672 248.968 252.701 248.675 252.76 248.44H253.64C253.581 248.191 253.552 247.897 253.552 247.56C253.552 247.208 253.581 246.915 253.64 246.68H258.04C258.099 246.915 258.128 247.208 258.128 247.56C258.128 247.897 258.099 248.191 258.04 248.44H258.92C258.979 248.675 259.008 248.968 259.008 249.32C259.008 249.657 258.979 249.951 258.92 250.2H257.16C257.101 249.951 257.072 249.657 257.072 249.32C257.072 248.968 257.101 248.675 257.16 248.44H254.52C254.579 248.675 254.608 248.968 254.608 249.32C254.608 249.657 254.579 249.951 254.52 250.2H253.64C253.699 250.435 253.728 250.728 253.728 251.08C253.728 251.417 253.699 251.711 253.64 251.96C253.699 252.195 253.728 252.488 253.728 252.84C253.728 253.177 253.699 253.471 253.64 253.72C253.699 253.955 253.728 254.248 253.728 254.6C253.728 254.937 253.699 255.231 253.64 255.48H254.52C254.579 255.715 254.608 256.008 254.608 256.36C254.608 256.697 254.579 256.991 254.52 257.24H257.16C257.101 256.991 257.072 256.697 257.072 256.36C257.072 256.008 257.101 255.715 257.16 255.48C257.101 255.231 257.072 254.937 257.072 254.6C257.072 254.248 257.101 253.955 257.16 253.72H255.84C255.781 253.471 255.752 253.177 255.752 252.84C255.752 252.488 255.781 252.195 255.84 251.96H258.92ZM267.917 254.6C267.917 254.937 267.887 255.231 267.829 255.48H267.169C267.227 255.715 267.257 256.008 267.257 256.36C267.257 256.697 267.227 256.991 267.169 257.24H266.069C266.127 257.475 266.157 257.768 266.157 258.12C266.157 258.457 266.127 258.751 266.069 259H262.549C262.49 258.751 262.461 258.457 262.461 258.12C262.461 257.768 262.49 257.475 262.549 257.24H261.449C261.39 256.991 261.361 256.697 261.361 256.36C261.361 256.008 261.39 255.715 261.449 255.48H260.789C260.73 255.231 260.701 254.937 260.701 254.6C260.701 254.248 260.73 253.955 260.789 253.72H261.449C261.39 253.471 261.361 253.177 261.361 252.84C261.361 252.488 261.39 252.195 261.449 251.96H262.549C262.49 251.711 262.461 251.417 262.461 251.08C262.461 250.728 262.49 250.435 262.549 250.2H266.069C266.127 250.435 266.157 250.728 266.157 251.08C266.157 251.417 266.127 251.711 266.069 251.96H267.169C267.227 252.195 267.257 252.488 267.257 252.84C267.257 253.177 267.227 253.471 267.169 253.72H267.829C267.887 253.955 267.917 254.248 267.917 254.6ZM266.069 255.48C266.01 255.231 265.981 254.937 265.981 254.6C265.981 254.248 266.01 253.955 266.069 253.72H265.409C265.35 253.471 265.321 253.177 265.321 252.84C265.321 252.488 265.35 252.195 265.409 251.96H263.209C263.267 252.195 263.297 252.488 263.297 252.84C263.297 253.177 263.267 253.471 263.209 253.72H262.549C262.607 253.955 262.637 254.248 262.637 254.6C262.637 254.937 262.607 255.231 262.549 255.48H263.209C263.267 255.715 263.297 256.008 263.297 256.36C263.297 256.697 263.267 256.991 263.209 257.24H265.409C265.35 256.991 265.321 256.697 265.321 256.36C265.321 256.008 265.35 255.715 265.409 255.48H266.069ZM276.825 254.6C276.825 254.937 276.796 255.231 276.737 255.48H276.077C276.136 255.715 276.165 256.008 276.165 256.36C276.165 256.697 276.136 256.991 276.077 257.24H274.977C275.036 257.475 275.065 257.768 275.065 258.12C275.065 258.457 275.036 258.751 274.977 259H271.457C271.399 258.751 271.369 258.457 271.369 258.12C271.369 257.768 271.399 257.475 271.457 257.24H270.357C270.299 256.991 270.269 256.697 270.269 256.36C270.269 256.008 270.299 255.715 270.357 255.48H269.697C269.639 255.231 269.609 254.937 269.609 254.6C269.609 254.248 269.639 253.955 269.697 253.72H270.357C270.299 253.471 270.269 253.177 270.269 252.84C270.269 252.488 270.299 252.195 270.357 251.96H271.457C271.399 251.711 271.369 251.417 271.369 251.08C271.369 250.728 271.399 250.435 271.457 250.2H274.977C275.036 250.435 275.065 250.728 275.065 251.08C275.065 251.417 275.036 251.711 274.977 251.96H276.077C276.136 252.195 276.165 252.488 276.165 252.84C276.165 253.177 276.136 253.471 276.077 253.72H276.737C276.796 253.955 276.825 254.248 276.825 254.6ZM274.977 255.48C274.919 255.231 274.889 254.937 274.889 254.6C274.889 254.248 274.919 253.955 274.977 253.72H274.317C274.259 253.471 274.229 253.177 274.229 252.84C274.229 252.488 274.259 252.195 274.317 251.96H272.117C272.176 252.195 272.205 252.488 272.205 252.84C272.205 253.177 272.176 253.471 272.117 253.72H271.457C271.516 253.955 271.545 254.248 271.545 254.6C271.545 254.937 271.516 255.231 271.457 255.48H272.117C272.176 255.715 272.205 256.008 272.205 256.36C272.205 256.697 272.176 256.991 272.117 257.24H274.317C274.259 256.991 274.229 256.697 274.229 256.36C274.229 256.008 274.259 255.715 274.317 255.48H274.977ZM285.646 251.96C285.704 252.195 285.734 252.488 285.734 252.84C285.734 253.177 285.704 253.471 285.646 253.72C285.704 253.955 285.734 254.248 285.734 254.6C285.734 254.937 285.704 255.231 285.646 255.48C285.704 255.715 285.734 256.008 285.734 256.36C285.734 256.697 285.704 256.991 285.646 257.24C285.704 257.475 285.734 257.768 285.734 258.12C285.734 258.457 285.704 258.751 285.646 259H284.766C284.824 259.235 284.854 259.528 284.854 259.88C284.854 260.217 284.824 260.511 284.766 260.76H283.886C283.944 260.995 283.974 261.288 283.974 261.64C283.974 261.977 283.944 262.271 283.886 262.52H280.366C280.307 262.271 280.278 261.977 280.278 261.64C280.278 261.288 280.307 260.995 280.366 260.76H283.006C282.947 260.511 282.918 260.217 282.918 259.88C282.918 259.528 282.947 259.235 283.006 259H283.886C283.827 258.751 283.798 258.457 283.798 258.12C283.798 257.768 283.827 257.475 283.886 257.24H283.006C282.947 256.991 282.918 256.697 282.918 256.36C282.918 256.008 282.947 255.715 283.006 255.48H283.886C283.827 255.231 283.798 254.937 283.798 254.6C283.798 254.248 283.827 253.955 283.886 253.72C283.827 253.471 283.798 253.177 283.798 252.84C283.798 252.488 283.827 252.195 283.886 251.96H281.026C281.084 252.195 281.114 252.488 281.114 252.84C281.114 253.177 281.084 253.471 281.026 253.72H280.366C280.424 253.955 280.454 254.248 280.454 254.6C280.454 254.937 280.424 255.231 280.366 255.48H281.026C281.084 255.715 281.114 256.008 281.114 256.36C281.114 256.697 281.084 256.991 281.026 257.24H283.006C283.064 257.475 283.094 257.768 283.094 258.12C283.094 258.457 283.064 258.751 283.006 259H280.366C280.307 258.751 280.278 258.457 280.278 258.12C280.278 257.768 280.307 257.475 280.366 257.24H279.266C279.207 256.991 279.178 256.697 279.178 256.36C279.178 256.008 279.207 255.715 279.266 255.48H278.606C278.547 255.231 278.518 254.937 278.518 254.6C278.518 254.248 278.547 253.955 278.606 253.72H279.266C279.207 253.471 279.178 253.177 279.178 252.84C279.178 252.488 279.207 252.195 279.266 251.96H280.366C280.307 251.711 280.278 251.417 280.278 251.08C280.278 250.728 280.307 250.435 280.366 250.2H285.646C285.704 250.435 285.734 250.728 285.734 251.08C285.734 251.417 285.704 251.711 285.646 251.96ZM293.674 257.24C293.733 257.475 293.762 257.768 293.762 258.12C293.762 258.457 293.733 258.751 293.674 259H288.394C288.336 258.751 288.306 258.457 288.306 258.12C288.306 257.768 288.336 257.475 288.394 257.24H290.154C290.096 256.991 290.066 256.697 290.066 256.36C290.066 256.008 290.096 255.715 290.154 255.48C290.096 255.231 290.066 254.937 290.066 254.6C290.066 254.248 290.096 253.955 290.154 253.72C290.096 253.471 290.066 253.177 290.066 252.84C290.066 252.488 290.096 252.195 290.154 251.96C290.096 251.711 290.066 251.417 290.066 251.08C290.066 250.728 290.096 250.435 290.154 250.2C290.096 249.951 290.066 249.657 290.066 249.32C290.066 248.968 290.096 248.675 290.154 248.44H288.834C288.776 248.191 288.746 247.897 288.746 247.56C288.746 247.208 288.776 246.915 288.834 246.68H291.914C291.973 246.915 292.002 247.208 292.002 247.56C292.002 247.897 291.973 248.191 291.914 248.44C291.973 248.675 292.002 248.968 292.002 249.32C292.002 249.657 291.973 249.951 291.914 250.2C291.973 250.435 292.002 250.728 292.002 251.08C292.002 251.417 291.973 251.711 291.914 251.96C291.973 252.195 292.002 252.488 292.002 252.84C292.002 253.177 291.973 253.471 291.914 253.72C291.973 253.955 292.002 254.248 292.002 254.6C292.002 254.937 291.973 255.231 291.914 255.48C291.973 255.715 292.002 256.008 292.002 256.36C292.002 256.697 291.973 256.991 291.914 257.24H293.674ZM303.551 252.84C303.551 253.177 303.522 253.471 303.463 253.72C303.522 253.955 303.551 254.248 303.551 254.6C303.551 254.937 303.522 255.231 303.463 255.48H298.843C298.902 255.715 298.931 256.008 298.931 256.36C298.931 256.697 298.902 256.991 298.843 257.24H302.583C302.642 257.475 302.671 257.768 302.671 258.12C302.671 258.457 302.642 258.751 302.583 259H298.183C298.124 258.751 298.095 258.457 298.095 258.12C298.095 257.768 298.124 257.475 298.183 257.24H297.083C297.024 256.991 296.995 256.697 296.995 256.36C296.995 256.008 297.024 255.715 297.083 255.48H296.423C296.364 255.231 296.335 254.937 296.335 254.6C296.335 254.248 296.364 253.955 296.423 253.72H297.083C297.024 253.471 296.995 253.177 296.995 252.84C296.995 252.488 297.024 252.195 297.083 251.96H298.183C298.124 251.711 298.095 251.417 298.095 251.08C298.095 250.728 298.124 250.435 298.183 250.2H302.583C302.642 250.435 302.671 250.728 302.671 251.08C302.671 251.417 302.642 251.711 302.583 251.96H303.463C303.522 252.195 303.551 252.488 303.551 252.84ZM301.703 253.72C301.644 253.471 301.615 253.177 301.615 252.84C301.615 252.488 301.644 252.195 301.703 251.96H298.843C298.902 252.195 298.931 252.488 298.931 252.84C298.931 253.177 298.902 253.471 298.843 253.72H301.703Z" fill="black"/>
<path d="M256.4 279.56C256.448 279.752 256.472 279.992 256.472 280.28C256.472 280.556 256.448 280.796 256.4 281H252.8C252.752 280.796 252.728 280.556 252.728 280.28C252.728 279.992 252.752 279.752 252.8 279.56H253.88C253.832 279.356 253.808 279.116 253.808 278.84C253.808 278.552 253.832 278.312 253.88 278.12C253.832 277.916 253.808 277.676 253.808 277.4C253.808 277.112 253.832 276.872 253.88 276.68C253.832 276.476 253.808 276.236 253.808 275.96C253.808 275.672 253.832 275.432 253.88 275.24C253.832 275.036 253.808 274.796 253.808 274.52C253.808 274.232 253.832 273.992 253.88 273.8C253.832 273.596 253.808 273.356 253.808 273.08C253.808 272.792 253.832 272.552 253.88 272.36H252.8C252.752 272.156 252.728 271.916 252.728 271.64C252.728 271.352 252.752 271.112 252.8 270.92H256.4C256.448 271.112 256.472 271.352 256.472 271.64C256.472 271.916 256.448 272.156 256.4 272.36H255.32C255.368 272.552 255.392 272.792 255.392 273.08C255.392 273.356 255.368 273.596 255.32 273.8C255.368 273.992 255.392 274.232 255.392 274.52C255.392 274.796 255.368 275.036 255.32 275.24C255.368 275.432 255.392 275.672 255.392 275.96C255.392 276.236 255.368 276.476 255.32 276.68C255.368 276.872 255.392 277.112 255.392 277.4C255.392 277.676 255.368 277.916 255.32 278.12C255.368 278.312 255.392 278.552 255.392 278.84C255.392 279.116 255.368 279.356 255.32 279.56H256.4ZM260.359 274.52C260.359 274.796 260.335 275.036 260.287 275.24H261.007C261.055 275.432 261.079 275.672 261.079 275.96C261.079 276.236 261.055 276.476 261.007 276.68H260.467C260.515 276.872 260.539 277.112 260.539 277.4C260.539 277.676 260.515 277.916 260.467 278.12C260.515 278.312 260.539 278.552 260.539 278.84C260.539 279.116 260.515 279.356 260.467 279.56C260.515 279.752 260.539 279.992 260.539 280.28C260.539 280.556 260.515 280.796 260.467 281H259.027C258.979 280.796 258.955 280.556 258.955 280.28C258.955 279.992 258.979 279.752 259.027 279.56C258.979 279.356 258.955 279.116 258.955 278.84C258.955 278.552 258.979 278.312 259.027 278.12C258.979 277.916 258.955 277.676 258.955 277.4C258.955 277.112 258.979 276.872 259.027 276.68C258.979 276.476 258.955 276.236 258.955 275.96C258.955 275.672 258.979 275.432 259.027 275.24C258.979 275.036 258.955 274.796 258.955 274.52C258.955 274.232 258.979 273.992 259.027 273.8H260.287C260.335 273.992 260.359 274.232 260.359 274.52ZM264.787 276.68C264.835 276.872 264.859 277.112 264.859 277.4C264.859 277.676 264.835 277.916 264.787 278.12C264.835 278.312 264.859 278.552 264.859 278.84C264.859 279.116 264.835 279.356 264.787 279.56C264.835 279.752 264.859 279.992 264.859 280.28C264.859 280.556 264.835 280.796 264.787 281H263.347C263.299 280.796 263.275 280.556 263.275 280.28C263.275 279.992 263.299 279.752 263.347 279.56C263.299 279.356 263.275 279.116 263.275 278.84C263.275 278.552 263.299 278.312 263.347 278.12C263.299 277.916 263.275 277.676 263.275 277.4C263.275 277.112 263.299 276.872 263.347 276.68C263.299 276.476 263.275 276.236 263.275 275.96C263.275 275.672 263.299 275.432 263.347 275.24H261.007C260.959 275.036 260.935 274.796 260.935 274.52C260.935 274.232 260.959 273.992 261.007 273.8H263.887C263.935 273.992 263.959 274.232 263.959 274.52C263.959 274.796 263.935 275.036 263.887 275.24H264.787C264.835 275.432 264.859 275.672 264.859 275.96C264.859 276.236 264.835 276.476 264.787 276.68ZM271.374 279.56C271.422 279.752 271.446 279.992 271.446 280.28C271.446 280.556 271.422 280.796 271.374 281H268.494C268.446 280.796 268.422 280.556 268.422 280.28C268.422 279.992 268.446 279.752 268.494 279.56H267.774C267.726 279.356 267.702 279.116 267.702 278.84C267.702 278.552 267.726 278.312 267.774 278.12C267.726 277.916 267.702 277.676 267.702 277.4C267.702 277.112 267.726 276.872 267.774 276.68C267.726 276.476 267.702 276.236 267.702 275.96C267.702 275.672 267.726 275.432 267.774 275.24H266.334C266.286 275.036 266.262 274.796 266.262 274.52C266.262 274.232 266.286 273.992 266.334 273.8H267.774C267.726 273.596 267.702 273.356 267.702 273.08C267.702 272.792 267.726 272.552 267.774 272.36C267.726 272.156 267.702 271.916 267.702 271.64C267.702 271.352 267.726 271.112 267.774 270.92H269.214C269.262 271.112 269.286 271.352 269.286 271.64C269.286 271.916 269.262 272.156 269.214 272.36C269.262 272.552 269.286 272.792 269.286 273.08C269.286 273.356 269.262 273.596 269.214 273.8H271.374C271.422 273.992 271.446 274.232 271.446 274.52C271.446 274.796 271.422 275.036 271.374 275.24H269.214C269.262 275.432 269.286 275.672 269.286 275.96C269.286 276.236 269.262 276.476 269.214 276.68C269.262 276.872 269.286 277.112 269.286 277.4C269.286 277.676 269.262 277.916 269.214 278.12C269.262 278.312 269.286 278.552 269.286 278.84C269.286 279.116 269.262 279.356 269.214 279.56H271.374ZM279.473 275.96C279.473 276.236 279.449 276.476 279.401 276.68C279.449 276.872 279.473 277.112 279.473 277.4C279.473 277.676 279.449 277.916 279.401 278.12H275.621C275.669 278.312 275.693 278.552 275.693 278.84C275.693 279.116 275.669 279.356 275.621 279.56H278.681C278.729 279.752 278.753 279.992 278.753 280.28C278.753 280.556 278.729 280.796 278.681 281H275.081C275.033 280.796 275.009 280.556 275.009 280.28C275.009 279.992 275.033 279.752 275.081 279.56H274.181C274.133 279.356 274.109 279.116 274.109 278.84C274.109 278.552 274.133 278.312 274.181 278.12H273.641C273.593 277.916 273.569 277.676 273.569 277.4C273.569 277.112 273.593 276.872 273.641 276.68H274.181C274.133 276.476 274.109 276.236 274.109 275.96C274.109 275.672 274.133 275.432 274.181 275.24H275.081C275.033 275.036 275.009 274.796 275.009 274.52C275.009 274.232 275.033 273.992 275.081 273.8H278.681C278.729 273.992 278.753 274.232 278.753 274.52C278.753 274.796 278.729 275.036 278.681 275.24H279.401C279.449 275.432 279.473 275.672 279.473 275.96ZM277.961 276.68C277.913 276.476 277.889 276.236 277.889 275.96C277.889 275.672 277.913 275.432 277.961 275.24H275.621C275.669 275.432 275.693 275.672 275.693 275.96C275.693 276.236 275.669 276.476 275.621 276.68H277.961ZM286.708 275.24C286.756 275.432 286.78 275.672 286.78 275.96C286.78 276.236 286.756 276.476 286.708 276.68H285.268C285.22 276.476 285.196 276.236 285.196 275.96C285.196 275.672 285.22 275.432 285.268 275.24H284.008C284.056 275.432 284.08 275.672 284.08 275.96C284.08 276.236 284.056 276.476 284.008 276.68H283.468C283.516 276.872 283.54 277.112 283.54 277.4C283.54 277.676 283.516 277.916 283.468 278.12C283.516 278.312 283.54 278.552 283.54 278.84C283.54 279.116 283.516 279.356 283.468 279.56H284.548C284.596 279.752 284.62 279.992 284.62 280.28C284.62 280.556 284.596 280.796 284.548 281H280.948C280.9 280.796 280.876 280.556 280.876 280.28C280.876 279.992 280.9 279.752 280.948 279.56H282.028C281.98 279.356 281.956 279.116 281.956 278.84C281.956 278.552 281.98 278.312 282.028 278.12C281.98 277.916 281.956 277.676 281.956 277.4C281.956 277.112 281.98 276.872 282.028 276.68C281.98 276.476 281.956 276.236 281.956 275.96C281.956 275.672 281.98 275.432 282.028 275.24H280.948C280.9 275.036 280.876 274.796 280.876 274.52C280.876 274.232 280.9 273.992 280.948 273.8H282.748C282.796 273.992 282.82 274.232 282.82 274.52C282.82 274.796 282.796 275.036 282.748 275.24H283.468C283.42 275.036 283.396 274.796 283.396 274.52C283.396 274.232 283.42 273.992 283.468 273.8H286.168C286.216 273.992 286.24 274.232 286.24 274.52C286.24 274.796 286.216 275.036 286.168 275.24H286.708ZM289.587 274.52C289.587 274.796 289.563 275.036 289.515 275.24H290.235C290.283 275.432 290.307 275.672 290.307 275.96C290.307 276.236 290.283 276.476 290.235 276.68H289.695C289.743 276.872 289.767 277.112 289.767 277.4C289.767 277.676 289.743 277.916 289.695 278.12C289.743 278.312 289.767 278.552 289.767 278.84C289.767 279.116 289.743 279.356 289.695 279.56C289.743 279.752 289.767 279.992 289.767 280.28C289.767 280.556 289.743 280.796 289.695 281H288.255C288.207 280.796 288.183 280.556 288.183 280.28C288.183 279.992 288.207 279.752 288.255 279.56C288.207 279.356 288.183 279.116 288.183 278.84C288.183 278.552 288.207 278.312 288.255 278.12C288.207 277.916 288.183 277.676 288.183 277.4C288.183 277.112 288.207 276.872 288.255 276.68C288.207 276.476 288.183 276.236 288.183 275.96C288.183 275.672 288.207 275.432 288.255 275.24C288.207 275.036 288.183 274.796 288.183 274.52C288.183 274.232 288.207 273.992 288.255 273.8H289.515C289.563 273.992 289.587 274.232 289.587 274.52ZM294.015 276.68C294.063 276.872 294.087 277.112 294.087 277.4C294.087 277.676 294.063 277.916 294.015 278.12C294.063 278.312 294.087 278.552 294.087 278.84C294.087 279.116 294.063 279.356 294.015 279.56C294.063 279.752 294.087 279.992 294.087 280.28C294.087 280.556 294.063 280.796 294.015 281H292.575C292.527 280.796 292.503 280.556 292.503 280.28C292.503 279.992 292.527 279.752 292.575 279.56C292.527 279.356 292.503 279.116 292.503 278.84C292.503 278.552 292.527 278.312 292.575 278.12C292.527 277.916 292.503 277.676 292.503 277.4C292.503 277.112 292.527 276.872 292.575 276.68C292.527 276.476 292.503 276.236 292.503 275.96C292.503 275.672 292.527 275.432 292.575 275.24H290.235C290.187 275.036 290.163 274.796 290.163 274.52C290.163 274.232 290.187 273.992 290.235 273.8H293.115C293.163 273.992 293.187 274.232 293.187 274.52C293.187 274.796 293.163 275.036 293.115 275.24H294.015C294.063 275.432 294.087 275.672 294.087 275.96C294.087 276.236 294.063 276.476 294.015 276.68ZM301.322 279.56C301.37 279.752 301.394 279.992 301.394 280.28C301.394 280.556 301.37 280.796 301.322 281H299.882C299.834 280.796 299.81 280.556 299.81 280.28C299.81 279.992 299.834 279.752 299.882 279.56H299.162C299.114 279.356 299.09 279.116 299.09 278.84C299.09 278.552 299.114 278.312 299.162 278.12H297.002C297.05 278.312 297.074 278.552 297.074 278.84C297.074 279.116 297.05 279.356 297.002 279.56H299.162C299.21 279.752 299.234 279.992 299.234 280.28C299.234 280.556 299.21 280.796 299.162 281H296.282C296.234 280.796 296.21 280.556 296.21 280.28C296.21 279.992 296.234 279.752 296.282 279.56H295.562C295.514 279.356 295.49 279.116 295.49 278.84C295.49 278.552 295.514 278.312 295.562 278.12H296.282C296.234 277.916 296.21 277.676 296.21 277.4C296.21 277.112 296.234 276.872 296.282 276.68H299.162C299.114 276.476 299.09 276.236 299.09 275.96C299.09 275.672 299.114 275.432 299.162 275.24H296.642C296.594 275.036 296.57 274.796 296.57 274.52C296.57 274.232 296.594 273.992 296.642 273.8H299.882C299.93 273.992 299.954 274.232 299.954 274.52C299.954 274.796 299.93 275.036 299.882 275.24H300.602C300.65 275.432 300.674 275.672 300.674 275.96C300.674 276.236 300.65 276.476 300.602 276.68C300.65 276.872 300.674 277.112 300.674 277.4C300.674 277.676 300.65 277.916 300.602 278.12C300.65 278.312 300.674 278.552 300.674 278.84C300.674 279.116 300.65 279.356 300.602 279.56H301.322ZM307.909 279.56C307.957 279.752 307.981 279.992 307.981 280.28C307.981 280.556 307.957 280.796 307.909 281H303.589C303.541 280.796 303.517 280.556 303.517 280.28C303.517 279.992 303.541 279.752 303.589 279.56H305.029C304.981 279.356 304.957 279.116 304.957 278.84C304.957 278.552 304.981 278.312 305.029 278.12C304.981 277.916 304.957 277.676 304.957 277.4C304.957 277.112 304.981 276.872 305.029 276.68C304.981 276.476 304.957 276.236 304.957 275.96C304.957 275.672 304.981 275.432 305.029 275.24C304.981 275.036 304.957 274.796 304.957 274.52C304.957 274.232 304.981 273.992 305.029 273.8C304.981 273.596 304.957 273.356 304.957 273.08C304.957 272.792 304.981 272.552 305.029 272.36H303.949C303.901 272.156 303.877 271.916 303.877 271.64C303.877 271.352 303.901 271.112 303.949 270.92H306.469C306.517 271.112 306.541 271.352 306.541 271.64C306.541 271.916 306.517 272.156 306.469 272.36C306.517 272.552 306.541 272.792 306.541 273.08C306.541 273.356 306.517 273.596 306.469 273.8C306.517 273.992 306.541 274.232 306.541 274.52C306.541 274.796 306.517 275.036 306.469 275.24C306.517 275.432 306.541 275.672 306.541 275.96C306.541 276.236 306.517 276.476 306.469 276.68C306.517 276.872 306.541 277.112 306.541 277.4C306.541 277.676 306.517 277.916 306.469 278.12C306.517 278.312 306.541 278.552 306.541 278.84C306.541 279.116 306.517 279.356 306.469 279.56H307.909ZM323.315 271.64C323.315 271.916 323.291 272.156 323.243 272.36H321.083C321.131 272.552 321.155 272.792 321.155 273.08C321.155 273.356 321.131 273.596 321.083 273.8C321.131 273.992 321.155 274.232 321.155 274.52C321.155 274.796 321.131 275.036 321.083 275.24C321.131 275.432 321.155 275.672 321.155 275.96C321.155 276.236 321.131 276.476 321.083 276.68C321.131 276.872 321.155 277.112 321.155 277.4C321.155 277.676 321.131 277.916 321.083 278.12C321.131 278.312 321.155 278.552 321.155 278.84C321.155 279.116 321.131 279.356 321.083 279.56C321.131 279.752 321.155 279.992 321.155 280.28C321.155 280.556 321.131 280.796 321.083 281H319.643C319.595 280.796 319.571 280.556 319.571 280.28C319.571 279.992 319.595 279.752 319.643 279.56C319.595 279.356 319.571 279.116 319.571 278.84C319.571 278.552 319.595 278.312 319.643 278.12C319.595 277.916 319.571 277.676 319.571 277.4C319.571 277.112 319.595 276.872 319.643 276.68C319.595 276.476 319.571 276.236 319.571 275.96C319.571 275.672 319.595 275.432 319.643 275.24C319.595 275.036 319.571 274.796 319.571 274.52C319.571 274.232 319.595 273.992 319.643 273.8C319.595 273.596 319.571 273.356 319.571 273.08C319.571 272.792 319.595 272.552 319.643 272.36H317.483C317.435 272.156 317.411 271.916 317.411 271.64C317.411 271.352 317.435 271.112 317.483 270.92H323.243C323.291 271.112 323.315 271.352 323.315 271.64ZM330.622 277.4C330.622 277.676 330.598 277.916 330.55 278.12H330.01C330.058 278.312 330.082 278.552 330.082 278.84C330.082 279.116 330.058 279.356 330.01 279.56H329.11C329.158 279.752 329.182 279.992 329.182 280.28C329.182 280.556 329.158 280.796 329.11 281H326.23C326.182 280.796 326.158 280.556 326.158 280.28C326.158 279.992 326.182 279.752 326.23 279.56H325.33C325.282 279.356 325.258 279.116 325.258 278.84C325.258 278.552 325.282 278.312 325.33 278.12H324.79C324.742 277.916 324.718 277.676 324.718 277.4C324.718 277.112 324.742 276.872 324.79 276.68H325.33C325.282 276.476 325.258 276.236 325.258 275.96C325.258 275.672 325.282 275.432 325.33 275.24H326.23C326.182 275.036 326.158 274.796 326.158 274.52C326.158 274.232 326.182 273.992 326.23 273.8H329.11C329.158 273.992 329.182 274.232 329.182 274.52C329.182 274.796 329.158 275.036 329.11 275.24H330.01C330.058 275.432 330.082 275.672 330.082 275.96C330.082 276.236 330.058 276.476 330.01 276.68H330.55C330.598 276.872 330.622 277.112 330.622 277.4ZM329.11 278.12C329.062 277.916 329.038 277.676 329.038 277.4C329.038 277.112 329.062 276.872 329.11 276.68H328.57C328.522 276.476 328.498 276.236 328.498 275.96C328.498 275.672 328.522 275.432 328.57 275.24H326.77C326.818 275.432 326.842 275.672 326.842 275.96C326.842 276.236 326.818 276.476 326.77 276.68H326.23C326.278 276.872 326.302 277.112 326.302 277.4C326.302 277.676 326.278 277.916 326.23 278.12H326.77C326.818 278.312 326.842 278.552 326.842 278.84C326.842 279.116 326.818 279.356 326.77 279.56H328.57C328.522 279.356 328.498 279.116 328.498 278.84C328.498 278.552 328.522 278.312 328.57 278.12H329.11ZM337.929 277.4C337.929 277.676 337.905 277.916 337.857 278.12H337.317C337.365 278.312 337.389 278.552 337.389 278.84C337.389 279.116 337.365 279.356 337.317 279.56H336.417C336.465 279.752 336.489 279.992 336.489 280.28C336.489 280.556 336.465 280.796 336.417 281H333.537C333.489 280.796 333.465 280.556 333.465 280.28C333.465 279.992 333.489 279.752 333.537 279.56H332.637C332.589 279.356 332.565 279.116 332.565 278.84C332.565 278.552 332.589 278.312 332.637 278.12H332.097C332.049 277.916 332.025 277.676 332.025 277.4C332.025 277.112 332.049 276.872 332.097 276.68H332.637C332.589 276.476 332.565 276.236 332.565 275.96C332.565 275.672 332.589 275.432 332.637 275.24H333.537C333.489 275.036 333.465 274.796 333.465 274.52C333.465 274.232 333.489 273.992 333.537 273.8H336.417C336.465 273.992 336.489 274.232 336.489 274.52C336.489 274.796 336.465 275.036 336.417 275.24H337.317C337.365 275.432 337.389 275.672 337.389 275.96C337.389 276.236 337.365 276.476 337.317 276.68H337.857C337.905 276.872 337.929 277.112 337.929 277.4ZM336.417 278.12C336.369 277.916 336.345 277.676 336.345 277.4C336.345 277.112 336.369 276.872 336.417 276.68H335.877C335.829 276.476 335.805 276.236 335.805 275.96C335.805 275.672 335.829 275.432 335.877 275.24H334.077C334.125 275.432 334.149 275.672 334.149 275.96C334.149 276.236 334.125 276.476 334.077 276.68H333.537C333.585 276.872 333.609 277.112 333.609 277.4C333.609 277.676 333.585 277.916 333.537 278.12H334.077C334.125 278.312 334.149 278.552 334.149 278.84C334.149 279.116 334.125 279.356 334.077 279.56H335.877C335.829 279.356 335.805 279.116 335.805 278.84C335.805 278.552 335.829 278.312 335.877 278.12H336.417ZM344.444 279.56C344.492 279.752 344.516 279.992 344.516 280.28C344.516 280.556 344.492 280.796 344.444 281H340.124C340.076 280.796 340.052 280.556 340.052 280.28C340.052 279.992 340.076 279.752 340.124 279.56H341.564C341.516 279.356 341.492 279.116 341.492 278.84C341.492 278.552 341.516 278.312 341.564 278.12C341.516 277.916 341.492 277.676 341.492 277.4C341.492 277.112 341.516 276.872 341.564 276.68C341.516 276.476 341.492 276.236 341.492 275.96C341.492 275.672 341.516 275.432 341.564 275.24C341.516 275.036 341.492 274.796 341.492 274.52C341.492 274.232 341.516 273.992 341.564 273.8C341.516 273.596 341.492 273.356 341.492 273.08C341.492 272.792 341.516 272.552 341.564 272.36H340.484C340.436 272.156 340.412 271.916 340.412 271.64C340.412 271.352 340.436 271.112 340.484 270.92H343.004C343.052 271.112 343.076 271.352 343.076 271.64C343.076 271.916 343.052 272.156 343.004 272.36C343.052 272.552 343.076 272.792 343.076 273.08C343.076 273.356 343.052 273.596 343.004 273.8C343.052 273.992 343.076 274.232 343.076 274.52C343.076 274.796 343.052 275.036 343.004 275.24C343.052 275.432 343.076 275.672 343.076 275.96C343.076 276.236 343.052 276.476 343.004 276.68C343.052 276.872 343.076 277.112 343.076 277.4C343.076 277.676 343.052 277.916 343.004 278.12C343.052 278.312 343.076 278.552 343.076 278.84C343.076 279.116 343.052 279.356 343.004 279.56H344.444Z" fill="black"/>
<path d="M257.48 294.36C257.528 294.552 257.552 294.792 257.552 295.08C257.552 295.356 257.528 295.596 257.48 295.8C257.528 295.992 257.552 296.232 257.552 296.52C257.552 296.796 257.528 297.036 257.48 297.24C257.528 297.432 257.552 297.672 257.552 297.96C257.552 298.236 257.528 298.476 257.48 298.68C257.528 298.872 257.552 299.112 257.552 299.4C257.552 299.676 257.528 299.916 257.48 300.12C257.528 300.312 257.552 300.552 257.552 300.84C257.552 301.116 257.528 301.356 257.48 301.56H256.76C256.808 301.752 256.832 301.992 256.832 302.28C256.832 302.556 256.808 302.796 256.76 303H252.44C252.392 302.796 252.368 302.556 252.368 302.28C252.368 301.992 252.392 301.752 252.44 301.56H251.72C251.672 301.356 251.648 301.116 251.648 300.84C251.648 300.552 251.672 300.312 251.72 300.12C251.672 299.916 251.648 299.676 251.648 299.4C251.648 299.112 251.672 298.872 251.72 298.68C251.672 298.476 251.648 298.236 251.648 297.96C251.648 297.672 251.672 297.432 251.72 297.24C251.672 297.036 251.648 296.796 251.648 296.52C251.648 296.232 251.672 295.992 251.72 295.8C251.672 295.596 251.648 295.356 251.648 295.08C251.648 294.792 251.672 294.552 251.72 294.36C251.672 294.156 251.648 293.916 251.648 293.64C251.648 293.352 251.672 293.112 251.72 292.92H253.16C253.208 293.112 253.232 293.352 253.232 293.64C253.232 293.916 253.208 294.156 253.16 294.36C253.208 294.552 253.232 294.792 253.232 295.08C253.232 295.356 253.208 295.596 253.16 295.8C253.208 295.992 253.232 296.232 253.232 296.52C253.232 296.796 253.208 297.036 253.16 297.24C253.208 297.432 253.232 297.672 253.232 297.96C253.232 298.236 253.208 298.476 253.16 298.68C253.208 298.872 253.232 299.112 253.232 299.4C253.232 299.676 253.208 299.916 253.16 300.12C253.208 300.312 253.232 300.552 253.232 300.84C253.232 301.116 253.208 301.356 253.16 301.56H256.04C255.992 301.356 255.968 301.116 255.968 300.84C255.968 300.552 255.992 300.312 256.04 300.12C255.992 299.916 255.968 299.676 255.968 299.4C255.968 299.112 255.992 298.872 256.04 298.68C255.992 298.476 255.968 298.236 255.968 297.96C255.968 297.672 255.992 297.432 256.04 297.24C255.992 297.036 255.968 296.796 255.968 296.52C255.968 296.232 255.992 295.992 256.04 295.8C255.992 295.596 255.968 295.356 255.968 295.08C255.968 294.792 255.992 294.552 256.04 294.36C255.992 294.156 255.968 293.916 255.968 293.64C255.968 293.352 255.992 293.112 256.04 292.92H257.48C257.528 293.112 257.552 293.352 257.552 293.64C257.552 293.916 257.528 294.156 257.48 294.36ZM264.787 301.56C264.835 301.752 264.859 301.992 264.859 302.28C264.859 302.556 264.835 302.796 264.787 303H263.347C263.299 302.796 263.275 302.556 263.275 302.28C263.275 301.992 263.299 301.752 263.347 301.56H262.807C262.759 301.356 262.735 301.116 262.735 300.84C262.735 300.552 262.759 300.312 262.807 300.12H262.447C262.399 299.916 262.375 299.676 262.375 299.4C262.375 299.112 262.399 298.872 262.447 298.68H261.367C261.415 298.872 261.439 299.112 261.439 299.4C261.439 299.676 261.415 299.916 261.367 300.12H261.007C261.055 300.312 261.079 300.552 261.079 300.84C261.079 301.116 261.055 301.356 261.007 301.56H260.467C260.515 301.752 260.539 301.992 260.539 302.28C260.539 302.556 260.515 302.796 260.467 303H259.027C258.979 302.796 258.955 302.556 258.955 302.28C258.955 301.992 258.979 301.752 259.027 301.56H259.567C259.519 301.356 259.495 301.116 259.495 300.84C259.495 300.552 259.519 300.312 259.567 300.12H260.287C260.239 299.916 260.215 299.676 260.215 299.4C260.215 299.112 260.239 298.872 260.287 298.68H260.827C260.779 298.476 260.755 298.236 260.755 297.96C260.755 297.672 260.779 297.432 260.827 297.24H260.287C260.239 297.036 260.215 296.796 260.215 296.52C260.215 296.232 260.239 295.992 260.287 295.8H259.567C259.519 295.596 259.495 295.356 259.495 295.08C259.495 294.792 259.519 294.552 259.567 294.36H259.027C258.979 294.156 258.955 293.916 258.955 293.64C258.955 293.352 258.979 293.112 259.027 292.92H260.467C260.515 293.112 260.539 293.352 260.539 293.64C260.539 293.916 260.515 294.156 260.467 294.36H261.007C261.055 294.552 261.079 294.792 261.079 295.08C261.079 295.356 261.055 295.596 261.007 295.8H261.367C261.415 295.992 261.439 296.232 261.439 296.52C261.439 296.796 261.415 297.036 261.367 297.24H262.447C262.399 297.036 262.375 296.796 262.375 296.52C262.375 296.232 262.399 295.992 262.447 295.8H262.807C262.759 295.596 262.735 295.356 262.735 295.08C262.735 294.792 262.759 294.552 262.807 294.36H263.347C263.299 294.156 263.275 293.916 263.275 293.64C263.275 293.352 263.299 293.112 263.347 292.92H264.787C264.835 293.112 264.859 293.352 264.859 293.64C264.859 293.916 264.835 294.156 264.787 294.36H264.247C264.295 294.552 264.319 294.792 264.319 295.08C264.319 295.356 264.295 295.596 264.247 295.8H263.527C263.575 295.992 263.599 296.232 263.599 296.52C263.599 296.796 263.575 297.036 263.527 297.24H262.987C263.035 297.432 263.059 297.672 263.059 297.96C263.059 298.236 263.035 298.476 262.987 298.68H263.527C263.575 298.872 263.599 299.112 263.599 299.4C263.599 299.676 263.575 299.916 263.527 300.12H264.247C264.295 300.312 264.319 300.552 264.319 300.84C264.319 301.116 264.295 301.356 264.247 301.56H264.787ZM279.401 297.24C279.449 297.432 279.473 297.672 279.473 297.96C279.473 298.236 279.449 298.476 279.401 298.68C279.449 298.872 279.473 299.112 279.473 299.4C279.473 299.676 279.449 299.916 279.401 300.12H278.681C278.729 300.312 278.753 300.552 278.753 300.84C278.753 301.116 278.729 301.356 278.681 301.56H277.961C278.009 301.752 278.033 301.992 278.033 302.28C278.033 302.556 278.009 302.796 277.961 303H273.641C273.593 302.796 273.569 302.556 273.569 302.28C273.569 301.992 273.593 301.752 273.641 301.56C273.593 301.356 273.569 301.116 273.569 300.84C273.569 300.552 273.593 300.312 273.641 300.12C273.593 299.916 273.569 299.676 273.569 299.4C273.569 299.112 273.593 298.872 273.641 298.68C273.593 298.476 273.569 298.236 273.569 297.96C273.569 297.672 273.593 297.432 273.641 297.24C273.593 297.036 273.569 296.796 273.569 296.52C273.569 296.232 273.593 295.992 273.641 295.8C273.593 295.596 273.569 295.356 273.569 295.08C273.569 294.792 273.593 294.552 273.641 294.36C273.593 294.156 273.569 293.916 273.569 293.64C273.569 293.352 273.593 293.112 273.641 292.92H277.961C278.009 293.112 278.033 293.352 278.033 293.64C278.033 293.916 278.009 294.156 277.961 294.36H278.681C278.729 294.552 278.753 294.792 278.753 295.08C278.753 295.356 278.729 295.596 278.681 295.8H279.401C279.449 295.992 279.473 296.232 279.473 296.52C279.473 296.796 279.449 297.036 279.401 297.24ZM277.961 300.12C277.913 299.916 277.889 299.676 277.889 299.4C277.889 299.112 277.913 298.872 277.961 298.68C277.913 298.476 277.889 298.236 277.889 297.96C277.889 297.672 277.913 297.432 277.961 297.24C277.913 297.036 277.889 296.796 277.889 296.52C277.889 296.232 277.913 295.992 277.961 295.8H277.241C277.193 295.596 277.169 295.356 277.169 295.08C277.169 294.792 277.193 294.552 277.241 294.36H275.081C275.129 294.552 275.153 294.792 275.153 295.08C275.153 295.356 275.129 295.596 275.081 295.8C275.129 295.992 275.153 296.232 275.153 296.52C275.153 296.796 275.129 297.036 275.081 297.24C275.129 297.432 275.153 297.672 275.153 297.96C275.153 298.236 275.129 298.476 275.081 298.68C275.129 298.872 275.153 299.112 275.153 299.4C275.153 299.676 275.129 299.916 275.081 300.12C275.129 300.312 275.153 300.552 275.153 300.84C275.153 301.116 275.129 301.356 275.081 301.56H277.241C277.193 301.356 277.169 301.116 277.169 300.84C277.169 300.552 277.193 300.312 277.241 300.12H277.961ZM286.78 297.96C286.78 298.236 286.756 298.476 286.708 298.68C286.756 298.872 286.78 299.112 286.78 299.4C286.78 299.676 286.756 299.916 286.708 300.12H282.928C282.976 300.312 283 300.552 283 300.84C283 301.116 282.976 301.356 282.928 301.56H285.988C286.036 301.752 286.06 301.992 286.06 302.28C286.06 302.556 286.036 302.796 285.988 303H282.388C282.34 302.796 282.316 302.556 282.316 302.28C282.316 301.992 282.34 301.752 282.388 301.56H281.488C281.44 301.356 281.416 301.116 281.416 300.84C281.416 300.552 281.44 300.312 281.488 300.12H280.948C280.9 299.916 280.876 299.676 280.876 299.4C280.876 299.112 280.9 298.872 280.948 298.68H281.488C281.44 298.476 281.416 298.236 281.416 297.96C281.416 297.672 281.44 297.432 281.488 297.24H282.388C282.34 297.036 282.316 296.796 282.316 296.52C282.316 296.232 282.34 295.992 282.388 295.8H285.988C286.036 295.992 286.06 296.232 286.06 296.52C286.06 296.796 286.036 297.036 285.988 297.24H286.708C286.756 297.432 286.78 297.672 286.78 297.96ZM285.268 298.68C285.22 298.476 285.196 298.236 285.196 297.96C285.196 297.672 285.22 297.432 285.268 297.24H282.928C282.976 297.432 283 297.672 283 297.96C283 298.236 282.976 298.476 282.928 298.68H285.268ZM293.727 300.84C293.727 301.116 293.703 301.356 293.655 301.56H292.935C292.983 301.752 293.007 301.992 293.007 302.28C293.007 302.556 292.983 302.796 292.935 303H288.975C288.927 302.796 288.903 302.556 288.903 302.28C288.903 301.992 288.927 301.752 288.975 301.56H292.215C292.167 301.356 292.143 301.116 292.143 300.84C292.143 300.552 292.167 300.312 292.215 300.12H289.335C289.287 299.916 289.263 299.676 289.263 299.4C289.263 299.112 289.287 298.872 289.335 298.68H288.615C288.567 298.476 288.543 298.236 288.543 297.96C288.543 297.672 288.567 297.432 288.615 297.24H289.335C289.287 297.036 289.263 296.796 289.263 296.52C289.263 296.232 289.287 295.992 289.335 295.8H293.295C293.343 295.992 293.367 296.232 293.367 296.52C293.367 296.796 293.343 297.036 293.295 297.24H290.055C290.103 297.432 290.127 297.672 290.127 297.96C290.127 298.236 290.103 298.476 290.055 298.68H292.935C292.983 298.872 293.007 299.112 293.007 299.4C293.007 299.676 292.983 299.916 292.935 300.12H293.655C293.703 300.312 293.727 300.552 293.727 300.84ZM297.722 294.36C297.674 294.156 297.65 293.916 297.65 293.64C297.65 293.352 297.674 293.112 297.722 292.92H299.162C299.21 293.112 299.234 293.352 299.234 293.64C299.234 293.916 299.21 294.156 299.162 294.36H297.722ZM300.602 301.56C300.65 301.752 300.674 301.992 300.674 302.28C300.674 302.556 300.65 302.796 300.602 303H296.282C296.234 302.796 296.21 302.556 296.21 302.28C296.21 301.992 296.234 301.752 296.282 301.56H297.722C297.674 301.356 297.65 301.116 297.65 300.84C297.65 300.552 297.674 300.312 297.722 300.12C297.674 299.916 297.65 299.676 297.65 299.4C297.65 299.112 297.674 298.872 297.722 298.68C297.674 298.476 297.65 298.236 297.65 297.96C297.65 297.672 297.674 297.432 297.722 297.24H296.642C296.594 297.036 296.57 296.796 296.57 296.52C296.57 296.232 296.594 295.992 296.642 295.8H299.162C299.21 295.992 299.234 296.232 299.234 296.52C299.234 296.796 299.21 297.036 299.162 297.24C299.21 297.432 299.234 297.672 299.234 297.96C299.234 298.236 299.21 298.476 299.162 298.68C299.21 298.872 299.234 299.112 299.234 299.4C299.234 299.676 299.21 299.916 299.162 300.12C299.21 300.312 299.234 300.552 299.234 300.84C299.234 301.116 299.21 301.356 299.162 301.56H300.602ZM308.629 297.24C308.677 297.432 308.701 297.672 308.701 297.96C308.701 298.236 308.677 298.476 308.629 298.68C308.677 298.872 308.701 299.112 308.701 299.4C308.701 299.676 308.677 299.916 308.629 300.12C308.677 300.312 308.701 300.552 308.701 300.84C308.701 301.116 308.677 301.356 308.629 301.56C308.677 301.752 308.701 301.992 308.701 302.28C308.701 302.556 308.677 302.796 308.629 303H307.909C307.957 303.192 307.981 303.432 307.981 303.72C307.981 303.996 307.957 304.236 307.909 304.44H307.189C307.237 304.632 307.261 304.872 307.261 305.16C307.261 305.436 307.237 305.676 307.189 305.88H304.309C304.261 305.676 304.237 305.436 304.237 305.16C304.237 304.872 304.261 304.632 304.309 304.44H306.469C306.421 304.236 306.397 303.996 306.397 303.72C306.397 303.432 306.421 303.192 306.469 303H307.189C307.141 302.796 307.117 302.556 307.117 302.28C307.117 301.992 307.141 301.752 307.189 301.56H306.469C306.421 301.356 306.397 301.116 306.397 300.84C306.397 300.552 306.421 300.312 306.469 300.12H307.189C307.141 299.916 307.117 299.676 307.117 299.4C307.117 299.112 307.141 298.872 307.189 298.68C307.141 298.476 307.117 298.236 307.117 297.96C307.117 297.672 307.141 297.432 307.189 297.24H304.849C304.897 297.432 304.921 297.672 304.921 297.96C304.921 298.236 304.897 298.476 304.849 298.68H304.309C304.357 298.872 304.381 299.112 304.381 299.4C304.381 299.676 304.357 299.916 304.309 300.12H304.849C304.897 300.312 304.921 300.552 304.921 300.84C304.921 301.116 304.897 301.356 304.849 301.56H306.469C306.517 301.752 306.541 301.992 306.541 302.28C306.541 302.556 306.517 302.796 306.469 303H304.309C304.261 302.796 304.237 302.556 304.237 302.28C304.237 301.992 304.261 301.752 304.309 301.56H303.409C303.361 301.356 303.337 301.116 303.337 300.84C303.337 300.552 303.361 300.312 303.409 300.12H302.869C302.821 299.916 302.797 299.676 302.797 299.4C302.797 299.112 302.821 298.872 302.869 298.68H303.409C303.361 298.476 303.337 298.236 303.337 297.96C303.337 297.672 303.361 297.432 303.409 297.24H304.309C304.261 297.036 304.237 296.796 304.237 296.52C304.237 296.232 304.261 295.992 304.309 295.8H308.629C308.677 295.992 308.701 296.232 308.701 296.52C308.701 296.796 308.677 297.036 308.629 297.24ZM311.508 296.52C311.508 296.796 311.484 297.036 311.436 297.24H312.156C312.204 297.432 312.228 297.672 312.228 297.96C312.228 298.236 312.204 298.476 312.156 298.68H311.616C311.664 298.872 311.688 299.112 311.688 299.4C311.688 299.676 311.664 299.916 311.616 300.12C311.664 300.312 311.688 300.552 311.688 300.84C311.688 301.116 311.664 301.356 311.616 301.56C311.664 301.752 311.688 301.992 311.688 302.28C311.688 302.556 311.664 302.796 311.616 303H310.176C310.128 302.796 310.104 302.556 310.104 302.28C310.104 301.992 310.128 301.752 310.176 301.56C310.128 301.356 310.104 301.116 310.104 300.84C310.104 300.552 310.128 300.312 310.176 300.12C310.128 299.916 310.104 299.676 310.104 299.4C310.104 299.112 310.128 298.872 310.176 298.68C310.128 298.476 310.104 298.236 310.104 297.96C310.104 297.672 310.128 297.432 310.176 297.24C310.128 297.036 310.104 296.796 310.104 296.52C310.104 296.232 310.128 295.992 310.176 295.8H311.436C311.484 295.992 311.508 296.232 311.508 296.52ZM315.936 298.68C315.984 298.872 316.008 299.112 316.008 299.4C316.008 299.676 315.984 299.916 315.936 300.12C315.984 300.312 316.008 300.552 316.008 300.84C316.008 301.116 315.984 301.356 315.936 301.56C315.984 301.752 316.008 301.992 316.008 302.28C316.008 302.556 315.984 302.796 315.936 303H314.496C314.448 302.796 314.424 302.556 314.424 302.28C314.424 301.992 314.448 301.752 314.496 301.56C314.448 301.356 314.424 301.116 314.424 300.84C314.424 300.552 314.448 300.312 314.496 300.12C314.448 299.916 314.424 299.676 314.424 299.4C314.424 299.112 314.448 298.872 314.496 298.68C314.448 298.476 314.424 298.236 314.424 297.96C314.424 297.672 314.448 297.432 314.496 297.24H312.156C312.108 297.036 312.084 296.796 312.084 296.52C312.084 296.232 312.108 295.992 312.156 295.8H315.036C315.084 295.992 315.108 296.232 315.108 296.52C315.108 296.796 315.084 297.036 315.036 297.24H315.936C315.984 297.432 316.008 297.672 316.008 297.96C316.008 298.236 315.984 298.476 315.936 298.68Z" fill="black"/>
<path d="M257.192 318.52C257.192 318.796 257.168 319.036 257.12 319.24H256.22C256.268 319.432 256.292 319.672 256.292 319.96C256.292 320.236 256.268 320.476 256.22 320.68H255.32C255.368 320.872 255.392 321.112 255.392 321.4C255.392 321.676 255.368 321.916 255.32 322.12H254.42C254.468 322.312 254.492 322.552 254.492 322.84C254.492 323.116 254.468 323.356 254.42 323.56H257.12C257.168 323.752 257.192 323.992 257.192 324.28C257.192 324.556 257.168 324.796 257.12 325H252.08C252.032 324.796 252.008 324.556 252.008 324.28C252.008 323.992 252.032 323.752 252.08 323.56H252.98C252.932 323.356 252.908 323.116 252.908 322.84C252.908 322.552 252.932 322.312 252.98 322.12H253.88C253.832 321.916 253.808 321.676 253.808 321.4C253.808 321.112 253.832 320.872 253.88 320.68H254.78C254.732 320.476 254.708 320.236 254.708 319.96C254.708 319.672 254.732 319.432 254.78 319.24H255.68C255.632 319.036 255.608 318.796 255.608 318.52C255.608 318.232 255.632 317.992 255.68 317.8C255.632 317.596 255.608 317.356 255.608 317.08C255.608 316.792 255.632 316.552 255.68 316.36H253.16C253.208 316.552 253.232 316.792 253.232 317.08C253.232 317.356 253.208 317.596 253.16 317.8H252.08C252.032 317.596 252.008 317.356 252.008 317.08C252.008 316.792 252.032 316.552 252.08 316.36H252.8C252.752 316.156 252.728 315.916 252.728 315.64C252.728 315.352 252.752 315.112 252.8 314.92H256.4C256.448 315.112 256.472 315.352 256.472 315.64C256.472 315.916 256.448 316.156 256.4 316.36H257.12C257.168 316.552 257.192 316.792 257.192 317.08C257.192 317.356 257.168 317.596 257.12 317.8C257.168 317.992 257.192 318.232 257.192 318.52ZM262.879 315.64C262.879 315.916 262.855 316.156 262.807 316.36H261.007C260.959 316.156 260.935 315.916 260.935 315.64C260.935 315.352 260.959 315.112 261.007 314.92H262.807C262.855 315.112 262.879 315.352 262.879 315.64ZM261.007 322.12C261.055 322.312 261.079 322.552 261.079 322.84C261.079 323.116 261.055 323.356 261.007 323.56H260.107C260.059 323.356 260.035 323.116 260.035 322.84C260.035 322.552 260.059 322.312 260.107 322.12H259.567C259.519 321.916 259.495 321.676 259.495 321.4C259.495 321.112 259.519 320.872 259.567 320.68C259.519 320.476 259.495 320.236 259.495 319.96C259.495 319.672 259.519 319.432 259.567 319.24C259.519 319.036 259.495 318.796 259.495 318.52C259.495 318.232 259.519 317.992 259.567 317.8H260.107C260.059 317.596 260.035 317.356 260.035 317.08C260.035 316.792 260.059 316.552 260.107 316.36H261.007C261.055 316.552 261.079 316.792 261.079 317.08C261.079 317.356 261.055 317.596 261.007 317.8C261.055 317.992 261.079 318.232 261.079 318.52C261.079 318.796 261.055 319.036 261.007 319.24C261.055 319.432 261.079 319.672 261.079 319.96C261.079 320.236 261.055 320.476 261.007 320.68C261.055 320.872 261.079 321.112 261.079 321.4C261.079 321.676 261.055 321.916 261.007 322.12ZM264.247 319.24C264.295 319.432 264.319 319.672 264.319 319.96C264.319 320.236 264.295 320.476 264.247 320.68C264.295 320.872 264.319 321.112 264.319 321.4C264.319 321.676 264.295 321.916 264.247 322.12H263.707C263.755 322.312 263.779 322.552 263.779 322.84C263.779 323.116 263.755 323.356 263.707 323.56H262.807C262.759 323.356 262.735 323.116 262.735 322.84C262.735 322.552 262.759 322.312 262.807 322.12C262.759 321.916 262.735 321.676 262.735 321.4C262.735 321.112 262.759 320.872 262.807 320.68C262.759 320.476 262.735 320.236 262.735 319.96C262.735 319.672 262.759 319.432 262.807 319.24C262.759 319.036 262.735 318.796 262.735 318.52C262.735 318.232 262.759 317.992 262.807 317.8C262.759 317.596 262.735 317.356 262.735 317.08C262.735 316.792 262.759 316.552 262.807 316.36H263.707C263.755 316.552 263.779 316.792 263.779 317.08C263.779 317.356 263.755 317.596 263.707 317.8H264.247C264.295 317.992 264.319 318.232 264.319 318.52C264.319 318.796 264.295 319.036 264.247 319.24ZM260.935 324.28C260.935 323.992 260.959 323.752 261.007 323.56H262.807C262.855 323.752 262.879 323.992 262.879 324.28C262.879 324.556 262.855 324.796 262.807 325H261.007C260.959 324.796 260.935 324.556 260.935 324.28ZM271.806 318.52C271.806 318.796 271.782 319.036 271.734 319.24H270.834C270.882 319.432 270.906 319.672 270.906 319.96C270.906 320.236 270.882 320.476 270.834 320.68H269.934C269.982 320.872 270.006 321.112 270.006 321.4C270.006 321.676 269.982 321.916 269.934 322.12H269.034C269.082 322.312 269.106 322.552 269.106 322.84C269.106 323.116 269.082 323.356 269.034 323.56H271.734C271.782 323.752 271.806 323.992 271.806 324.28C271.806 324.556 271.782 324.796 271.734 325H266.694C266.646 324.796 266.622 324.556 266.622 324.28C266.622 323.992 266.646 323.752 266.694 323.56H267.594C267.546 323.356 267.522 323.116 267.522 322.84C267.522 322.552 267.546 322.312 267.594 322.12H268.494C268.446 321.916 268.422 321.676 268.422 321.4C268.422 321.112 268.446 320.872 268.494 320.68H269.394C269.346 320.476 269.322 320.236 269.322 319.96C269.322 319.672 269.346 319.432 269.394 319.24H270.294C270.246 319.036 270.222 318.796 270.222 318.52C270.222 318.232 270.246 317.992 270.294 317.8C270.246 317.596 270.222 317.356 270.222 317.08C270.222 316.792 270.246 316.552 270.294 316.36H267.774C267.822 316.552 267.846 316.792 267.846 317.08C267.846 317.356 267.822 317.596 267.774 317.8H266.694C266.646 317.596 266.622 317.356 266.622 317.08C266.622 316.792 266.646 316.552 266.694 316.36H267.414C267.366 316.156 267.342 315.916 267.342 315.64C267.342 315.352 267.366 315.112 267.414 314.92H271.014C271.062 315.112 271.086 315.352 271.086 315.64C271.086 315.916 271.062 316.156 271.014 316.36H271.734C271.782 316.552 271.806 316.792 271.806 317.08C271.806 317.356 271.782 317.596 271.734 317.8C271.782 317.992 271.806 318.232 271.806 318.52ZM278.681 323.56C278.729 323.752 278.753 323.992 278.753 324.28C278.753 324.556 278.729 324.796 278.681 325H274.361C274.313 324.796 274.289 324.556 274.289 324.28C274.289 323.992 274.313 323.752 274.361 323.56H275.801C275.753 323.356 275.729 323.116 275.729 322.84C275.729 322.552 275.753 322.312 275.801 322.12C275.753 321.916 275.729 321.676 275.729 321.4C275.729 321.112 275.753 320.872 275.801 320.68C275.753 320.476 275.729 320.236 275.729 319.96C275.729 319.672 275.753 319.432 275.801 319.24C275.753 319.036 275.729 318.796 275.729 318.52C275.729 318.232 275.753 317.992 275.801 317.8H274.721C274.673 317.596 274.649 317.356 274.649 317.08C274.649 316.792 274.673 316.552 274.721 316.36H275.801C275.753 316.156 275.729 315.916 275.729 315.64C275.729 315.352 275.753 315.112 275.801 314.92H277.241C277.289 315.112 277.313 315.352 277.313 315.64C277.313 315.916 277.289 316.156 277.241 316.36C277.289 316.552 277.313 316.792 277.313 317.08C277.313 317.356 277.289 317.596 277.241 317.8C277.289 317.992 277.313 318.232 277.313 318.52C277.313 318.796 277.289 319.036 277.241 319.24C277.289 319.432 277.313 319.672 277.313 319.96C277.313 320.236 277.289 320.476 277.241 320.68C277.289 320.872 277.313 321.112 277.313 321.4C277.313 321.676 277.289 321.916 277.241 322.12C277.289 322.312 277.313 322.552 277.313 322.84C277.313 323.116 277.289 323.356 277.241 323.56H278.681Z" fill="black"/>
<path d="M184.5 151.5C191.227 130.695 199.78 50.4958 198.947 1H203.053C202.22 50.4958 210.773 130.695 217.5 151.5C226.327 178.798 246.419 189.025 282 194.5C301.5 197.5 346 198.05 401 198.05V203.95C346 203.95 301.5 204.5 282 207.501C246.419 212.976 226.327 223.203 217.5 250.501C210.773 271.305 202.22 351.505 203.053 401H198.947C199.78 351.505 191.227 271.305 184.5 250.501C175.673 223.203 155.581 212.976 120 207.501C100.5 204.5 56 203.95 1 203.95V198.05C56 198.05 100.5 197.5 120 194.5C155.581 189.025 175.673 178.798 184.5 151.5Z" stroke="black"/>
<path d="M40.664 304.986C39.4186 305.666 38.1378 305.989 36.8216 305.957C35.5155 305.89 34.2943 305.503 33.158 304.796C32.0318 304.054 31.1169 303.038 30.4132 301.748L29.5761 300.213C29.5276 300.125 29.5478 300.056 29.6368 300.007L33.4063 297.951C33.4953 297.902 33.5701 297.934 33.6307 298.045L34.4497 299.546C34.8986 300.369 35.496 300.909 36.2421 301.165C36.9882 301.422 37.7282 301.35 38.4621 300.95C39.1292 300.586 39.5558 299.993 39.7418 299.17C39.9277 298.347 39.8205 297.568 39.4202 296.834L30.3756 280.255C30.3271 280.166 30.3473 280.097 30.4363 280.049L34.1725 278.011C34.2614 277.962 34.3362 277.993 34.3969 278.105L43.4566 294.632C44.1239 295.856 44.4424 297.154 44.4121 298.526C44.392 299.865 44.0625 301.112 43.4237 302.269C42.7848 303.425 41.865 304.331 40.664 304.986ZM69.2558 289.389C68.0548 290.044 66.7902 290.344 65.4619 290.29C64.1436 290.201 62.9113 289.82 61.7649 289.147C60.6064 288.451 59.6935 287.492 59.0262 286.269L53.2907 275.676C52.6234 274.453 52.3059 273.183 52.3382 271.867C52.3927 270.538 52.7566 269.301 53.4298 268.155C54.103 267.008 55.0289 266.113 56.2076 265.47C57.4085 264.815 58.662 264.521 59.9681 264.588C61.2742 264.654 62.4894 265.03 63.6136 265.716C64.76 266.389 65.6668 267.337 66.3341 268.56L72.1363 279.117C72.8036 280.34 73.116 281.627 73.0736 282.977C73.0413 284.294 72.6947 285.536 72.0336 286.705C71.3826 287.839 70.4567 288.734 69.2558 289.389ZM67.0538 285.352C67.721 284.988 68.1536 284.406 68.3517 283.605C68.5599 282.77 68.4759 282.008 68.0998 281.319L62.2976 270.762C61.8973 270.028 61.3241 269.533 60.578 269.276C59.8319 269.019 59.1031 269.085 58.3914 269.473C57.702 269.85 57.2522 270.427 57.0419 271.205C56.8196 271.961 56.9146 272.718 57.3271 273.474L63.096 284.048C63.4964 284.782 64.0868 285.283 64.8672 285.55C65.6355 285.794 66.3644 285.728 67.0538 285.352ZM98.7099 273.321C97.5312 273.964 96.2777 274.258 94.9493 274.203C93.6089 274.127 92.3594 273.741 91.2008 273.045C90.0645 272.338 89.1627 271.372 88.4955 270.149L79.463 253.433C79.4145 253.344 79.4347 253.275 79.5237 253.227L83.2599 251.189C83.3489 251.14 83.4176 251.16 83.4661 251.249L92.5653 267.929C92.9778 268.685 93.5631 269.203 94.3213 269.482C95.0896 269.726 95.8185 269.66 96.5079 269.284C97.2195 268.896 97.6694 268.319 97.8574 267.553C98.0554 266.752 97.9482 265.974 97.5358 265.217L88.4366 248.538C88.3881 248.449 88.4083 248.38 88.4973 248.332L92.2335 246.293C92.3224 246.245 92.3912 246.265 92.4397 246.354L101.606 262.997C102.285 264.243 102.603 265.541 102.561 266.891C102.541 268.23 102.194 269.472 101.521 270.618C100.87 271.753 99.933 272.653 98.7099 273.321ZM121.913 260.23C121.824 260.278 121.749 260.247 121.689 260.136L109.253 237.182C109.205 237.093 109.225 237.024 109.314 236.976L116.052 233.3C117.253 232.644 118.518 232.344 119.846 232.399C121.185 232.419 122.427 232.766 123.573 233.439C124.708 234.09 125.615 235.038 126.294 236.283C126.743 237.106 127.027 237.918 127.146 238.718C127.253 239.497 127.268 240.211 127.189 240.86C127.098 241.486 126.98 241.984 126.834 242.352C128.763 243.031 130.219 244.271 131.201 246.073L134.965 252.893C135.026 253.004 135.001 253.09 134.89 253.151L131.12 255.207C131.031 255.256 130.968 255.247 130.932 255.18L127.165 248.275C126.728 247.474 126.063 246.942 125.169 246.68C124.286 246.382 123.433 246.458 122.61 246.907L120.408 248.108L125.725 257.934C125.786 258.045 125.772 258.125 125.683 258.174L121.913 260.23ZM118.224 244.105L121.093 242.54C121.783 242.164 122.255 241.575 122.509 240.772C122.764 239.969 122.691 239.201 122.291 238.467C121.903 237.755 121.302 237.289 120.489 237.069C119.699 236.837 118.948 236.914 118.236 237.303L115.367 238.868L118.224 244.105ZM152.219 243.697C152.041 243.794 151.909 243.765 151.825 243.609L139.398 220.91C139.301 220.732 139.342 220.595 139.519 220.498L142.522 218.86L155.33 228.928L148.138 216.142C148.041 215.964 148.093 215.821 148.293 215.711L151.595 213.91C151.729 213.837 151.844 213.89 151.941 214.068L164.386 236.8C164.459 236.934 164.439 237.031 164.328 237.091L161.393 238.693L148.924 229.565L155.709 241.447C155.806 241.625 155.755 241.768 155.555 241.877L152.219 243.697ZM181.572 227.684C181.483 227.733 181.408 227.701 181.348 227.59L168.879 204.654C168.83 204.565 168.85 204.497 168.939 204.448L179.648 198.607C179.737 198.558 179.811 198.589 179.872 198.701L181.91 202.437C181.959 202.526 181.939 202.594 181.85 202.643L175.011 206.374L177.85 211.578L184.689 207.847C184.778 207.798 184.846 207.819 184.895 207.908L186.985 211.659C187.033 211.748 187.013 211.817 186.924 211.865L180.052 215.614L183.237 221.452L190.109 217.703C190.198 217.655 190.272 217.686 190.333 217.797L192.408 221.6C192.456 221.689 192.436 221.758 192.347 221.806L181.572 227.684ZM212.432 210.849C212.365 210.886 212.308 210.859 212.259 210.77L207.124 201.278L195.302 190.24C195.231 190.163 195.241 190.1 195.329 190.052L199.032 188.032C199.144 187.971 199.234 187.979 199.305 188.056L206.669 195.683L204.276 185.344C204.249 185.243 204.281 185.169 204.37 185.12L208.106 183.082C208.195 183.033 208.253 183.06 208.279 183.161L211.055 198.961L216.329 208.55C216.378 208.639 216.357 208.708 216.268 208.756L212.432 210.849ZM236.932 197.484C236.821 197.545 236.735 197.519 236.674 197.408L224.238 174.454C224.19 174.365 224.21 174.297 224.299 174.248L234.974 168.425C235.085 168.364 235.165 168.378 235.214 168.467L237.27 172.237C237.318 172.325 237.298 172.394 237.209 172.443L230.371 176.173L233.191 181.344L240.03 177.613C240.119 177.565 240.194 177.596 240.254 177.707L242.344 181.459C242.393 181.548 242.361 181.623 242.25 181.683L235.412 185.414L240.744 195.188C240.804 195.299 240.779 195.385 240.668 195.446L236.932 197.484ZM265.344 181.984C265.233 182.045 265.147 182.02 265.086 181.908L252.617 158.973C252.569 158.884 252.589 158.815 252.678 158.766L256.414 156.728C256.503 156.68 256.572 156.7 256.621 156.789L269.156 179.688C269.217 179.799 269.203 179.879 269.114 179.928L265.344 181.984ZM286.528 170.428C286.35 170.525 286.218 170.496 286.133 170.34L273.707 147.641C273.61 147.463 273.65 147.326 273.828 147.228L276.831 145.591L289.638 155.659L282.447 142.873C282.35 142.695 282.401 142.552 282.602 142.442L285.904 140.641C286.038 140.568 286.153 140.62 286.25 140.798L298.694 163.531C298.767 163.664 298.748 163.762 298.637 163.822L295.701 165.424L283.233 156.296L290.018 168.178C290.115 168.356 290.064 168.499 289.863 168.608L286.528 170.428ZM315.914 154.397C315.803 154.458 315.717 154.432 315.656 154.321L303.221 131.367C303.172 131.278 303.193 131.209 303.282 131.161L309.501 127.724C310.712 127.035 311.982 126.717 313.311 126.772C314.661 126.814 315.916 127.183 317.074 127.879C318.221 128.552 319.127 129.5 319.795 130.723L325.018 140.297C325.721 141.587 326.053 142.936 326.013 144.343C325.96 145.728 325.581 147.017 324.876 148.21C324.17 149.403 323.167 150.368 321.867 151.106L315.914 154.397ZM317.579 148.165L319.647 147.036C320.47 146.587 321.002 145.922 321.242 145.041C321.505 144.147 321.418 143.3 320.981 142.499L315.74 132.892C315.352 132.18 314.751 131.714 313.939 131.494C313.136 131.239 312.385 131.317 311.685 131.728L309.368 133.035L317.579 148.165ZM345.661 138.169C345.573 138.217 345.498 138.186 345.437 138.075L332.968 115.139C332.92 115.05 332.94 114.981 333.029 114.933L343.737 109.091C343.826 109.043 343.901 109.074 343.961 109.185L346 112.921C346.048 113.01 346.028 113.079 345.939 113.128L339.1 116.858L341.939 122.062L348.778 118.332C348.867 118.283 348.936 118.303 348.984 118.392L351.074 122.144C351.123 122.233 351.102 122.301 351.013 122.35L344.141 126.099L347.326 131.937L354.198 128.188C354.287 128.139 354.362 128.171 354.422 128.282L356.497 132.085C356.546 132.174 356.525 132.242 356.436 132.291L345.661 138.169ZM373.716 122.865C373.627 122.913 373.552 122.882 373.491 122.771L361.056 99.8166C361.007 99.7277 361.027 99.6589 361.116 99.6104L367.855 95.9344C369.056 95.2792 370.32 94.9789 371.649 95.0334C372.987 95.0536 374.23 95.4002 375.376 96.0734C376.51 96.7244 377.417 97.6726 378.096 98.918C378.545 99.7408 378.829 100.553 378.949 101.353C379.056 102.132 379.07 102.845 378.991 103.494C378.9 104.121 378.782 104.618 378.637 104.986C380.566 105.666 382.021 106.906 383.004 108.707L386.768 115.528C386.829 115.639 386.803 115.725 386.692 115.786L382.923 117.842C382.834 117.89 382.771 117.881 382.735 117.815L378.968 110.909C378.531 110.109 377.866 109.577 376.972 109.314C376.088 109.017 375.235 109.093 374.412 109.542L372.211 110.743L377.528 120.569C377.588 120.68 377.574 120.76 377.485 120.808L373.716 122.865ZM370.027 106.74L372.896 105.175C373.585 104.799 374.057 104.209 374.312 103.407C374.567 102.604 374.494 101.836 374.093 101.102C373.705 100.39 373.105 99.9241 372.292 99.7038C371.501 99.4713 370.75 99.5492 370.039 99.9374L367.17 101.502L370.027 106.74Z" fill="black"/>
</svg>
