<svg width="365" height="428" viewBox="0 0 365 428" fill="none" xmlns="http://www.w3.org/2000/svg">
<path d="M40.4601 397.84L181.125 68.1924L321.789 397.84L40.4601 397.84Z" stroke="black"/>
<path d="M283.463 385.04C283.108 385.376 282.754 385.698 282.399 386.006C281.484 386.79 280.901 387.495 280.649 388.12H284.975V388.918H279.725V388.232C279.893 387.756 280.15 387.299 280.495 386.86C280.85 386.422 281.209 386.044 281.573 385.726L282.637 384.774C283.421 384.046 283.813 383.286 283.813 382.492C283.813 381.942 283.65 381.498 283.323 381.162C282.996 380.817 282.586 380.644 282.091 380.644C281.606 380.644 280.91 380.957 280.005 381.582L279.613 380.994C280.593 380.276 281.438 379.916 282.147 379.916C282.866 379.916 283.458 380.145 283.925 380.602C284.401 381.05 284.639 381.713 284.639 382.59C284.639 383.458 284.247 384.275 283.463 385.04ZM286.615 384.466C286.615 382.824 286.825 381.652 287.245 380.952C287.665 380.252 288.346 379.902 289.289 379.902C290.241 379.902 290.927 380.252 291.347 380.952C291.767 381.652 291.977 382.824 291.977 384.466C291.977 386.1 291.767 387.271 291.347 387.98C290.927 388.69 290.241 389.044 289.289 389.044C288.346 389.044 287.665 388.69 287.245 387.98C286.825 387.271 286.615 386.1 286.615 384.466ZM287.889 387.42C288.15 388.018 288.617 388.316 289.289 388.316C289.961 388.316 290.428 388.018 290.689 387.42C290.95 386.823 291.081 385.834 291.081 384.452C291.081 383.062 290.955 382.077 290.703 381.498C290.451 380.92 289.984 380.63 289.303 380.63C288.622 380.63 288.15 380.924 287.889 381.512C287.637 382.091 287.511 383.071 287.511 384.452C287.511 385.834 287.637 386.823 287.889 387.42ZM299.259 388.918H294.009V388.204H296.403V380.924L294.093 381.988L293.771 381.246L296.487 380.028H297.229V388.204H299.259V388.918ZM300.787 381.512L301.053 380.042H306.023V380.826C305.967 381.386 305.44 382.558 304.441 384.34C304.077 384.994 303.741 385.75 303.433 386.608C303.134 387.458 302.985 388.228 302.985 388.918H302.159C302.159 388.2 302.308 387.397 302.607 386.51C302.906 385.633 303.242 384.858 303.615 384.186L304.679 382.198C305.015 381.545 305.197 381.069 305.225 380.77H301.669L301.473 381.568L300.787 381.512Z" fill="black"/>
<path d="M65.0491 374.918C64.2091 374.918 63.5651 374.629 63.1171 374.05C62.6691 373.472 62.4451 372.655 62.4451 371.6C62.4451 370.536 62.6925 369.701 63.1871 369.094C63.6911 368.488 64.3911 368.184 65.2871 368.184C65.7818 368.184 66.3371 368.348 66.9531 368.674L66.9811 368.268H67.6951V373.308C67.8351 374.419 67.9051 375.063 67.9051 375.24C67.9051 376.062 67.6298 376.678 67.0791 377.088C66.5285 377.508 65.8798 377.718 65.1331 377.718C64.3958 377.718 63.5558 377.532 62.6131 377.158L62.8651 376.458C63.7891 376.813 64.5265 376.99 65.0771 376.99C65.6371 376.99 66.1225 376.846 66.5331 376.556C66.9531 376.267 67.1631 375.833 67.1631 375.254L67.0371 374.148C66.2998 374.662 65.6371 374.918 65.0491 374.918ZM65.3151 368.884C64.6525 368.884 64.1345 369.132 63.7611 369.626C63.3878 370.112 63.2011 370.765 63.2011 371.586C63.2011 372.398 63.3645 373.042 63.6911 373.518C64.0178 373.985 64.4751 374.218 65.0631 374.218C65.6511 374.218 66.2811 373.938 66.9531 373.378V369.458C66.3465 369.076 65.8005 368.884 65.3151 368.884ZM69.8371 374.918V374.218H71.4331V368.968H69.8371V368.268H72.1751L72.2031 369.08C72.5018 368.894 72.9218 368.707 73.4631 368.52C74.0045 368.334 74.4805 368.222 74.8911 368.184H75.0451V369.01H74.8911C74.5085 369.038 74.0325 369.132 73.4631 369.29C72.9031 369.449 72.4831 369.612 72.2031 369.78V374.218H74.4431V374.918H69.8371ZM78.7551 374.316C79.1005 374.316 79.4738 374.209 79.8751 373.994C80.2858 373.77 80.5845 373.565 80.7711 373.378V371.712C80.1551 371.666 79.5671 371.642 79.0071 371.642C78.4471 371.642 78.0271 371.764 77.7471 372.006C77.4671 372.24 77.3271 372.557 77.3271 372.958C77.3271 373.864 77.8031 374.316 78.7551 374.316ZM78.7411 375.044C78.0598 375.044 77.5231 374.872 77.1311 374.526C76.7391 374.172 76.5431 373.672 76.5431 373.028C76.5431 372.384 76.7578 371.885 77.1871 371.53C77.6165 371.166 78.1858 370.984 78.8951 370.984C79.6045 370.984 80.2298 371.012 80.7711 371.068C80.7711 370.238 80.6685 369.673 80.4631 369.374C80.2578 369.066 79.8425 368.912 79.2171 368.912C78.5918 368.912 77.8545 369.062 77.0051 369.36L76.7951 368.66C77.6631 368.343 78.4471 368.184 79.1471 368.184C80.0711 368.184 80.6965 368.39 81.0231 368.8C81.3498 369.211 81.5131 369.93 81.5131 370.956V373.896L81.6251 374.96L80.9111 375.03L80.7711 374.19C80.5565 374.377 80.2531 374.568 79.8611 374.764C79.4691 374.951 79.0958 375.044 78.7411 375.044ZM88.6951 365.622V373.756L88.8351 374.974L88.1211 375.058L87.9811 374.316C87.2811 374.802 86.6371 375.044 86.0491 375.044C85.2185 375.044 84.5698 374.736 84.1031 374.12C83.6458 373.504 83.4171 372.669 83.4171 371.614C83.4171 370.55 83.6738 369.715 84.1871 369.108C84.7005 368.492 85.4005 368.184 86.2871 368.184C86.8098 368.184 87.3651 368.31 87.9531 368.562V365.622H88.6951ZM84.2151 371.586C84.2151 372.408 84.3738 373.07 84.6911 373.574C85.0178 374.069 85.4845 374.316 86.0911 374.316C86.6978 374.316 87.3185 374.05 87.9531 373.518V369.318C87.7571 369.225 87.4865 369.136 87.1411 369.052C86.8051 368.959 86.5298 368.912 86.3151 368.912C85.6525 368.912 85.1345 369.155 84.7611 369.64C84.3971 370.116 84.2151 370.765 84.2151 371.586ZM97.7951 374.596L97.9771 373.868C98.9011 374.176 99.6151 374.33 100.119 374.33C100.623 374.33 101.01 374.223 101.281 374.008C101.561 373.784 101.701 373.49 101.701 373.126C101.701 372.762 101.589 372.496 101.365 372.328C101.15 372.151 100.698 371.983 100.007 371.824C99.3165 371.666 98.7985 371.437 98.4531 371.138C98.1078 370.858 97.9351 370.438 97.9351 369.878C97.9351 369.318 98.1451 368.894 98.5651 368.604C98.9945 368.306 99.5451 368.156 100.217 368.156C100.889 368.156 101.617 368.306 102.401 368.604L102.205 369.262C101.412 369.001 100.772 368.87 100.287 368.87C99.8018 368.87 99.4191 368.954 99.1391 369.122C98.8591 369.309 98.7191 369.561 98.7191 369.878C98.7191 370.196 98.8405 370.443 99.0831 370.62C99.3351 370.798 99.8158 370.975 100.525 371.152C101.234 371.33 101.738 371.558 102.037 371.838C102.336 372.109 102.485 372.538 102.485 373.126C102.485 373.714 102.284 374.181 101.883 374.526C101.491 374.872 100.931 375.044 100.203 375.044C99.4751 375.044 98.6725 374.895 97.7951 374.596ZM109.415 368.492L109.247 369.22C108.668 369.015 108.132 368.912 107.637 368.912C106.965 368.912 106.461 369.15 106.125 369.626C105.798 370.093 105.635 370.746 105.635 371.586C105.635 372.426 105.803 373.094 106.139 373.588C106.475 374.074 106.974 374.316 107.637 374.316C108.085 374.316 108.645 374.195 109.317 373.952L109.541 374.652C108.86 374.914 108.23 375.044 107.651 375.044C106.736 375.044 106.036 374.741 105.551 374.134C105.066 373.518 104.823 372.664 104.823 371.572C104.823 370.48 105.061 369.645 105.537 369.066C106.013 368.478 106.713 368.184 107.637 368.184C108.225 368.184 108.818 368.287 109.415 368.492ZM112.537 369.486V374.918H111.795V365.622H112.537V368.772C113.414 368.38 114.138 368.184 114.707 368.184C116.042 368.184 116.709 368.95 116.709 370.48V374.918H115.967V370.48C115.967 370.004 115.864 369.626 115.659 369.346C115.454 369.057 115.099 368.912 114.595 368.912C114.091 368.912 113.405 369.104 112.537 369.486ZM118.529 371.614C118.529 369.328 119.42 368.184 121.203 368.184C122.986 368.184 123.877 369.328 123.877 371.614C123.877 373.901 122.986 375.044 121.203 375.044C119.42 375.044 118.529 373.901 118.529 371.614ZM121.203 368.912C119.952 368.912 119.327 369.813 119.327 371.614C119.327 373.416 119.952 374.316 121.203 374.316C122.454 374.316 123.079 373.416 123.079 371.614C123.079 369.813 122.454 368.912 121.203 368.912ZM125.529 371.614C125.529 369.328 126.42 368.184 128.203 368.184C129.986 368.184 130.877 369.328 130.877 371.614C130.877 373.901 129.986 375.044 128.203 375.044C126.42 375.044 125.529 373.901 125.529 371.614ZM128.203 368.912C126.952 368.912 126.327 369.813 126.327 371.614C126.327 373.416 126.952 374.316 128.203 374.316C129.454 374.316 130.079 373.416 130.079 371.614C130.079 369.813 129.454 368.912 128.203 368.912ZM133.033 374.918V374.218H135.175V366.294L133.089 366.308L133.075 365.622L135.917 365.608V374.218H138.129V374.918H133.033ZM151.415 368.492L151.247 369.22C150.668 369.015 150.132 368.912 149.637 368.912C148.965 368.912 148.461 369.15 148.125 369.626C147.798 370.093 147.635 370.746 147.635 371.586C147.635 372.426 147.803 373.094 148.139 373.588C148.475 374.074 148.974 374.316 149.637 374.316C150.085 374.316 150.645 374.195 151.317 373.952L151.541 374.652C150.86 374.914 150.23 375.044 149.651 375.044C148.736 375.044 148.036 374.741 147.551 374.134C147.066 373.518 146.823 372.664 146.823 371.572C146.823 370.48 147.061 369.645 147.537 369.066C148.013 368.478 148.713 368.184 149.637 368.184C150.225 368.184 150.818 368.287 151.415 368.492ZM154.033 374.918V374.218H156.175V366.294L154.089 366.308L154.075 365.622L156.917 365.608V374.218H159.129V374.918H154.033ZM162.755 374.316C163.1 374.316 163.474 374.209 163.875 373.994C164.286 373.77 164.584 373.565 164.771 373.378V371.712C164.155 371.666 163.567 371.642 163.007 371.642C162.447 371.642 162.027 371.764 161.747 372.006C161.467 372.24 161.327 372.557 161.327 372.958C161.327 373.864 161.803 374.316 162.755 374.316ZM162.741 375.044C162.06 375.044 161.523 374.872 161.131 374.526C160.739 374.172 160.543 373.672 160.543 373.028C160.543 372.384 160.758 371.885 161.187 371.53C161.616 371.166 162.186 370.984 162.895 370.984C163.604 370.984 164.23 371.012 164.771 371.068C164.771 370.238 164.668 369.673 164.463 369.374C164.258 369.066 163.842 368.912 163.217 368.912C162.592 368.912 161.854 369.062 161.005 369.36L160.795 368.66C161.663 368.343 162.447 368.184 163.147 368.184C164.071 368.184 164.696 368.39 165.023 368.8C165.35 369.211 165.513 369.93 165.513 370.956V373.896L165.625 374.96L164.911 375.03L164.771 374.19C164.556 374.377 164.253 374.568 163.861 374.764C163.469 374.951 163.096 375.044 162.741 375.044ZM167.795 374.596L167.977 373.868C168.901 374.176 169.615 374.33 170.119 374.33C170.623 374.33 171.01 374.223 171.281 374.008C171.561 373.784 171.701 373.49 171.701 373.126C171.701 372.762 171.589 372.496 171.365 372.328C171.15 372.151 170.698 371.983 170.007 371.824C169.316 371.666 168.798 371.437 168.453 371.138C168.108 370.858 167.935 370.438 167.935 369.878C167.935 369.318 168.145 368.894 168.565 368.604C168.994 368.306 169.545 368.156 170.217 368.156C170.889 368.156 171.617 368.306 172.401 368.604L172.205 369.262C171.412 369.001 170.772 368.87 170.287 368.87C169.802 368.87 169.419 368.954 169.139 369.122C168.859 369.309 168.719 369.561 168.719 369.878C168.719 370.196 168.84 370.443 169.083 370.62C169.335 370.798 169.816 370.975 170.525 371.152C171.234 371.33 171.738 371.558 172.037 371.838C172.336 372.109 172.485 372.538 172.485 373.126C172.485 373.714 172.284 374.181 171.883 374.526C171.491 374.872 170.931 375.044 170.203 375.044C169.475 375.044 168.672 374.895 167.795 374.596ZM174.795 374.596L174.977 373.868C175.901 374.176 176.615 374.33 177.119 374.33C177.623 374.33 178.01 374.223 178.281 374.008C178.561 373.784 178.701 373.49 178.701 373.126C178.701 372.762 178.589 372.496 178.365 372.328C178.15 372.151 177.698 371.983 177.007 371.824C176.316 371.666 175.798 371.437 175.453 371.138C175.108 370.858 174.935 370.438 174.935 369.878C174.935 369.318 175.145 368.894 175.565 368.604C175.994 368.306 176.545 368.156 177.217 368.156C177.889 368.156 178.617 368.306 179.401 368.604L179.205 369.262C178.412 369.001 177.772 368.87 177.287 368.87C176.802 368.87 176.419 368.954 176.139 369.122C175.859 369.309 175.719 369.561 175.719 369.878C175.719 370.196 175.84 370.443 176.083 370.62C176.335 370.798 176.816 370.975 177.525 371.152C178.234 371.33 178.738 371.558 179.037 371.838C179.336 372.109 179.485 372.538 179.485 373.126C179.485 373.714 179.284 374.181 178.883 374.526C178.491 374.872 177.931 375.044 177.203 375.044C176.475 375.044 175.672 374.895 174.795 374.596ZM188.781 377.606V369.472L188.655 368.254L189.355 368.17L189.481 368.926C190.162 368.432 190.811 368.184 191.427 368.184C192.258 368.184 192.902 368.488 193.359 369.094C193.816 369.701 194.045 370.536 194.045 371.6C194.045 372.664 193.793 373.504 193.289 374.12C192.785 374.736 192.085 375.044 191.189 375.044C190.666 375.044 190.111 374.918 189.523 374.666V377.606H188.781ZM193.247 371.628C193.247 370.798 193.088 370.14 192.771 369.654C192.454 369.16 191.996 368.912 191.399 368.912C190.811 368.912 190.186 369.178 189.523 369.71V373.91C189.719 374.004 189.985 374.097 190.321 374.19C190.666 374.274 190.946 374.316 191.161 374.316C191.824 374.316 192.337 374.074 192.701 373.588C193.065 373.103 193.247 372.45 193.247 371.628ZM195.837 374.918V374.218H197.433V368.968H195.837V368.268H198.175L198.203 369.08C198.502 368.894 198.922 368.707 199.463 368.52C200.004 368.334 200.48 368.222 200.891 368.184H201.045V369.01H200.891C200.508 369.038 200.032 369.132 199.463 369.29C198.903 369.449 198.483 369.612 198.203 369.78V374.218H200.443V374.918H195.837ZM202.529 371.614C202.529 369.328 203.42 368.184 205.203 368.184C206.986 368.184 207.877 369.328 207.877 371.614C207.877 373.901 206.986 375.044 205.203 375.044C203.42 375.044 202.529 373.901 202.529 371.614ZM205.203 368.912C203.952 368.912 203.327 369.813 203.327 371.614C203.327 373.416 203.952 374.316 205.203 374.316C206.454 374.316 207.079 373.416 207.079 371.614C207.079 369.813 206.454 368.912 205.203 368.912ZM209.991 368.954V368.268H213.631V375.058C213.631 375.73 213.444 376.262 213.071 376.654C212.791 376.953 212.24 377.186 211.419 377.354C211.12 377.41 210.714 377.476 210.201 377.55L210.117 376.822C210.948 376.701 211.517 376.584 211.825 376.472C212.133 376.37 212.348 376.262 212.469 376.15C212.749 375.88 212.889 375.516 212.889 375.058V368.954H209.991ZM212.511 366.294C212.511 365.893 212.716 365.692 213.127 365.692C213.519 365.692 213.715 365.902 213.715 366.322C213.715 366.733 213.519 366.938 213.127 366.938C212.931 366.938 212.777 366.882 212.665 366.77C212.562 366.649 212.511 366.49 212.511 366.294ZM216.641 371.6C216.641 370.527 216.86 369.692 217.299 369.094C217.747 368.488 218.396 368.184 219.245 368.184C220.094 368.184 220.724 368.464 221.135 369.024C221.555 369.584 221.765 370.331 221.765 371.264L221.723 371.964H217.439C217.486 372.664 217.672 373.234 217.999 373.672C218.326 374.102 218.774 374.316 219.343 374.316C219.922 374.316 220.598 374.181 221.373 373.91L221.583 374.61C220.827 374.9 220.118 375.044 219.455 375.044C218.54 375.044 217.84 374.741 217.355 374.134C216.879 373.518 216.641 372.674 216.641 371.6ZM219.301 368.898C218.125 368.898 217.504 369.687 217.439 371.264H220.967C220.967 369.687 220.412 368.898 219.301 368.898ZM228.415 368.492L228.247 369.22C227.668 369.015 227.132 368.912 226.637 368.912C225.965 368.912 225.461 369.15 225.125 369.626C224.798 370.093 224.635 370.746 224.635 371.586C224.635 372.426 224.803 373.094 225.139 373.588C225.475 374.074 225.974 374.316 226.637 374.316C227.085 374.316 227.645 374.195 228.317 373.952L228.541 374.652C227.86 374.914 227.23 375.044 226.651 375.044C225.736 375.044 225.036 374.741 224.551 374.134C224.066 373.518 223.823 372.664 223.823 371.572C223.823 370.48 224.061 369.645 224.537 369.066C225.013 368.478 225.713 368.184 226.637 368.184C227.225 368.184 227.818 368.287 228.415 368.492ZM230.487 369.15V368.45H231.845V366.756L232.587 366.616V368.45H235.793V369.15H232.587V372.342C232.587 373.052 232.69 373.565 232.895 373.882C233.11 374.19 233.488 374.344 234.029 374.344C234.234 374.344 234.552 374.312 234.981 374.246C235.41 374.172 235.704 374.106 235.863 374.05L236.031 374.736C235.854 374.802 235.527 374.872 235.051 374.946C234.584 375.021 234.244 375.058 234.029 375.058C233.189 375.058 232.615 374.839 232.307 374.4C231.999 373.952 231.845 373.276 231.845 372.37V369.15H230.487ZM55.4871 383.15V382.45H56.8451V380.756L57.5871 380.616V382.45H60.7931V383.15H57.5871V386.342C57.5871 387.052 57.6898 387.565 57.8951 387.882C58.1098 388.19 58.4878 388.344 59.0291 388.344C59.2345 388.344 59.5518 388.312 59.9811 388.246C60.4105 388.172 60.7045 388.106 60.8631 388.05L61.0311 388.736C60.8538 388.802 60.5271 388.872 60.0511 388.946C59.5845 389.021 59.2438 389.058 59.0291 389.058C58.1891 389.058 57.6151 388.839 57.3071 388.4C56.9991 387.952 56.8451 387.276 56.8451 386.37V383.15H55.4871ZM66.9391 388.918L66.9111 388.344C66.0151 388.811 65.2685 389.044 64.6711 389.044C64.0738 389.044 63.6025 388.839 63.2571 388.428C62.9118 388.018 62.7391 387.458 62.7391 386.748V382.268H63.4811V386.748C63.4811 387.206 63.5885 387.584 63.8031 387.882C64.0271 388.172 64.3631 388.316 64.8111 388.316C65.2591 388.316 65.9591 388.083 66.9111 387.616V382.268H67.6531V388.918H66.9391ZM69.8371 388.918V388.218H71.4331V382.968H69.8371V382.268H72.1751L72.2031 383.08C72.5018 382.894 72.9218 382.707 73.4631 382.52C74.0045 382.334 74.4805 382.222 74.8911 382.184H75.0451V383.01H74.8911C74.5085 383.038 74.0325 383.132 73.4631 383.29C72.9031 383.449 72.4831 383.612 72.2031 383.78V388.218H74.4431V388.918H69.8371ZM77.4811 382.268L77.5091 382.828C78.4145 382.399 79.1658 382.184 79.7631 382.184C80.3605 382.184 80.8271 382.39 81.1631 382.8C81.5085 383.211 81.6811 383.771 81.6811 384.48V388.918H80.9391V384.48C80.9391 384.023 80.8271 383.645 80.6031 383.346C80.3791 383.057 80.0431 382.912 79.5951 382.912C79.1471 382.912 78.4518 383.118 77.5091 383.528V388.918H76.7671V382.268H77.4811ZM83.6411 385.6C83.6411 384.527 83.8605 383.692 84.2991 383.094C84.7471 382.488 85.3958 382.184 86.2451 382.184C87.0945 382.184 87.7245 382.464 88.1351 383.024C88.5551 383.584 88.7651 384.331 88.7651 385.264L88.7231 385.964H84.4391C84.4858 386.664 84.6725 387.234 84.9991 387.672C85.3258 388.102 85.7738 388.316 86.3431 388.316C86.9218 388.316 87.5985 388.181 88.3731 387.91L88.5831 388.61C87.8271 388.9 87.1178 389.044 86.4551 389.044C85.5405 389.044 84.8405 388.741 84.3551 388.134C83.8791 387.518 83.6411 386.674 83.6411 385.6ZM86.3011 382.898C85.1251 382.898 84.5045 383.687 84.4391 385.264H87.9671C87.9671 383.687 87.4118 382.898 86.3011 382.898ZM95.6951 379.622V387.756L95.8351 388.974L95.1211 389.058L94.9811 388.316C94.2811 388.802 93.6371 389.044 93.0491 389.044C92.2185 389.044 91.5698 388.736 91.1031 388.12C90.6458 387.504 90.4171 386.669 90.4171 385.614C90.4171 384.55 90.6738 383.715 91.1871 383.108C91.7005 382.492 92.4005 382.184 93.2871 382.184C93.8098 382.184 94.3651 382.31 94.9531 382.562V379.622H95.6951ZM91.2151 385.586C91.2151 386.408 91.3738 387.07 91.6911 387.574C92.0178 388.069 92.4845 388.316 93.0911 388.316C93.6978 388.316 94.3185 388.05 94.9531 387.518V383.318C94.7571 383.225 94.4865 383.136 94.1411 383.052C93.8051 382.959 93.5298 382.912 93.3151 382.912C92.6525 382.912 92.1345 383.155 91.7611 383.64C91.3971 384.116 91.2151 384.765 91.2151 385.586ZM104.781 391.606V383.472L104.655 382.254L105.355 382.17L105.481 382.926C106.162 382.432 106.811 382.184 107.427 382.184C108.258 382.184 108.902 382.488 109.359 383.094C109.816 383.701 110.045 384.536 110.045 385.6C110.045 386.664 109.793 387.504 109.289 388.12C108.785 388.736 108.085 389.044 107.189 389.044C106.666 389.044 106.111 388.918 105.523 388.666V391.606H104.781ZM109.247 385.628C109.247 384.798 109.088 384.14 108.771 383.654C108.454 383.16 107.996 382.912 107.399 382.912C106.811 382.912 106.186 383.178 105.523 383.71V387.91C105.719 388.004 105.985 388.097 106.321 388.19C106.666 388.274 106.946 388.316 107.161 388.316C107.824 388.316 108.337 388.074 108.701 387.588C109.065 387.103 109.247 386.45 109.247 385.628ZM115.939 388.918L115.911 388.344C115.015 388.811 114.268 389.044 113.671 389.044C113.074 389.044 112.602 388.839 112.257 388.428C111.912 388.018 111.739 387.458 111.739 386.748V382.268H112.481V386.748C112.481 387.206 112.588 387.584 112.803 387.882C113.027 388.172 113.363 388.316 113.811 388.316C114.259 388.316 114.959 388.083 115.911 387.616V382.268H116.653V388.918H115.939ZM118.781 388.918V379.622H119.523V382.912C120.223 382.427 120.858 382.184 121.427 382.184C122.267 382.184 122.916 382.474 123.373 383.052C123.83 383.622 124.059 384.438 124.059 385.502C124.059 386.566 123.802 387.425 123.289 388.078C122.776 388.722 122.076 389.044 121.189 389.044C120.648 389.044 120.088 388.909 119.509 388.638L119.481 388.918H118.781ZM123.261 385.516C123.261 384.695 123.098 384.056 122.771 383.598C122.454 383.141 121.992 382.912 121.385 382.912C120.778 382.912 120.158 383.178 119.523 383.71V387.91C119.719 388.004 119.985 388.097 120.321 388.19C120.666 388.274 120.946 388.316 121.161 388.316C121.814 388.316 122.328 388.055 122.701 387.532C123.074 387.01 123.261 386.338 123.261 385.516ZM126.033 388.918V388.218H128.175V380.294L126.089 380.308L126.075 379.622L128.917 379.608V388.218H131.129V388.918H126.033ZM132.865 388.918V388.218H134.909V382.968H132.865V382.268H135.651V388.218H137.695V388.918H132.865ZM134.615 380.294C134.615 380.108 134.666 379.963 134.769 379.86C134.881 379.758 135.03 379.706 135.217 379.706C135.6 379.706 135.791 379.912 135.791 380.322C135.791 380.733 135.6 380.934 135.217 380.924C134.816 380.924 134.615 380.714 134.615 380.294ZM144.415 382.492L144.247 383.22C143.668 383.015 143.132 382.912 142.637 382.912C141.965 382.912 141.461 383.15 141.125 383.626C140.798 384.093 140.635 384.746 140.635 385.586C140.635 386.426 140.803 387.094 141.139 387.588C141.475 388.074 141.974 388.316 142.637 388.316C143.085 388.316 143.645 388.195 144.317 387.952L144.541 388.652C143.86 388.914 143.23 389.044 142.651 389.044C141.736 389.044 141.036 388.741 140.551 388.134C140.066 387.518 139.823 386.664 139.823 385.572C139.823 384.48 140.061 383.645 140.537 383.066C141.013 382.478 141.713 382.184 142.637 382.184C143.225 382.184 143.818 382.287 144.415 382.492ZM155.755 388.316C156.1 388.316 156.474 388.209 156.875 387.994C157.286 387.77 157.584 387.565 157.771 387.378V385.712C157.155 385.666 156.567 385.642 156.007 385.642C155.447 385.642 155.027 385.764 154.747 386.006C154.467 386.24 154.327 386.557 154.327 386.958C154.327 387.864 154.803 388.316 155.755 388.316ZM155.741 389.044C155.06 389.044 154.523 388.872 154.131 388.526C153.739 388.172 153.543 387.672 153.543 387.028C153.543 386.384 153.758 385.885 154.187 385.53C154.616 385.166 155.186 384.984 155.895 384.984C156.604 384.984 157.23 385.012 157.771 385.068C157.771 384.238 157.668 383.673 157.463 383.374C157.258 383.066 156.842 382.912 156.217 382.912C155.592 382.912 154.854 383.062 154.005 383.36L153.795 382.66C154.663 382.343 155.447 382.184 156.147 382.184C157.071 382.184 157.696 382.39 158.023 382.8C158.35 383.211 158.513 383.93 158.513 384.956V387.896L158.625 388.96L157.911 389.03L157.771 388.19C157.556 388.377 157.253 388.568 156.861 388.764C156.469 388.951 156.096 389.044 155.741 389.044ZM160.837 388.918V388.218H162.433V382.968H160.837V382.268H163.175L163.203 383.08C163.502 382.894 163.922 382.707 164.463 382.52C165.004 382.334 165.48 382.222 165.891 382.184H166.045V383.01H165.891C165.508 383.038 165.032 383.132 164.463 383.29C163.903 383.449 163.483 383.612 163.203 383.78V388.218H165.443V388.918H160.837ZM167.487 383.15V382.45H168.845V380.756L169.587 380.616V382.45H172.793V383.15H169.587V386.342C169.587 387.052 169.69 387.565 169.895 387.882C170.11 388.19 170.488 388.344 171.029 388.344C171.234 388.344 171.552 388.312 171.981 388.246C172.41 388.172 172.704 388.106 172.863 388.05L173.031 388.736C172.854 388.802 172.527 388.872 172.051 388.946C171.584 389.021 171.244 389.058 171.029 389.058C170.189 389.058 169.615 388.839 169.307 388.4C168.999 387.952 168.845 387.276 168.845 386.37V383.15H167.487ZM181.865 388.918V388.218H183.909V382.968H181.865V382.268H184.651V388.218H186.695V388.918H181.865ZM183.615 380.294C183.615 380.108 183.666 379.963 183.769 379.86C183.881 379.758 184.03 379.706 184.217 379.706C184.6 379.706 184.791 379.912 184.791 380.322C184.791 380.733 184.6 380.934 184.217 380.924C183.816 380.924 183.615 380.714 183.615 380.294ZM189.481 382.268L189.509 382.828C190.414 382.399 191.166 382.184 191.763 382.184C192.36 382.184 192.827 382.39 193.163 382.8C193.508 383.211 193.681 383.771 193.681 384.48V388.918H192.939V384.48C192.939 384.023 192.827 383.645 192.603 383.346C192.379 383.057 192.043 382.912 191.595 382.912C191.147 382.912 190.452 383.118 189.509 383.528V388.918H188.767V382.268H189.481ZM195.795 388.596L195.977 387.868C196.901 388.176 197.615 388.33 198.119 388.33C198.623 388.33 199.01 388.223 199.281 388.008C199.561 387.784 199.701 387.49 199.701 387.126C199.701 386.762 199.589 386.496 199.365 386.328C199.15 386.151 198.698 385.983 198.007 385.824C197.316 385.666 196.798 385.437 196.453 385.138C196.108 384.858 195.935 384.438 195.935 383.878C195.935 383.318 196.145 382.894 196.565 382.604C196.994 382.306 197.545 382.156 198.217 382.156C198.889 382.156 199.617 382.306 200.401 382.604L200.205 383.262C199.412 383.001 198.772 382.87 198.287 382.87C197.802 382.87 197.419 382.954 197.139 383.122C196.859 383.309 196.719 383.561 196.719 383.878C196.719 384.196 196.84 384.443 197.083 384.62C197.335 384.798 197.816 384.975 198.525 385.152C199.234 385.33 199.738 385.558 200.037 385.838C200.336 386.109 200.485 386.538 200.485 387.126C200.485 387.714 200.284 388.181 199.883 388.526C199.491 388.872 198.931 389.044 198.203 389.044C197.475 389.044 196.672 388.895 195.795 388.596ZM202.487 383.15V382.45H203.845V380.756L204.587 380.616V382.45H207.793V383.15H204.587V386.342C204.587 387.052 204.69 387.565 204.895 387.882C205.11 388.19 205.488 388.344 206.029 388.344C206.234 388.344 206.552 388.312 206.981 388.246C207.41 388.172 207.704 388.106 207.863 388.05L208.031 388.736C207.854 388.802 207.527 388.872 207.051 388.946C206.584 389.021 206.244 389.058 206.029 389.058C205.189 389.058 204.615 388.839 204.307 388.4C203.999 387.952 203.845 387.276 203.845 386.37V383.15H202.487ZM211.755 388.316C212.1 388.316 212.474 388.209 212.875 387.994C213.286 387.77 213.584 387.565 213.771 387.378V385.712C213.155 385.666 212.567 385.642 212.007 385.642C211.447 385.642 211.027 385.764 210.747 386.006C210.467 386.24 210.327 386.557 210.327 386.958C210.327 387.864 210.803 388.316 211.755 388.316ZM211.741 389.044C211.06 389.044 210.523 388.872 210.131 388.526C209.739 388.172 209.543 387.672 209.543 387.028C209.543 386.384 209.758 385.885 210.187 385.53C210.616 385.166 211.186 384.984 211.895 384.984C212.604 384.984 213.23 385.012 213.771 385.068C213.771 384.238 213.668 383.673 213.463 383.374C213.258 383.066 212.842 382.912 212.217 382.912C211.592 382.912 210.854 383.062 210.005 383.36L209.795 382.66C210.663 382.343 211.447 382.184 212.147 382.184C213.071 382.184 213.696 382.39 214.023 382.8C214.35 383.211 214.513 383.93 214.513 384.956V387.896L214.625 388.96L213.911 389.03L213.771 388.19C213.556 388.377 213.253 388.568 212.861 388.764C212.469 388.951 212.096 389.044 211.741 389.044ZM217.033 388.918V388.218H219.175V380.294L217.089 380.308L217.075 379.622L219.917 379.608V388.218H222.129V388.918H217.033ZM224.033 388.918V388.218H226.175V380.294L224.089 380.308L224.075 379.622L226.917 379.608V388.218H229.129V388.918H224.033ZM232.755 388.316C233.1 388.316 233.474 388.209 233.875 387.994C234.286 387.77 234.584 387.565 234.771 387.378V385.712C234.155 385.666 233.567 385.642 233.007 385.642C232.447 385.642 232.027 385.764 231.747 386.006C231.467 386.24 231.327 386.557 231.327 386.958C231.327 387.864 231.803 388.316 232.755 388.316ZM232.741 389.044C232.06 389.044 231.523 388.872 231.131 388.526C230.739 388.172 230.543 387.672 230.543 387.028C230.543 386.384 230.758 385.885 231.187 385.53C231.616 385.166 232.186 384.984 232.895 384.984C233.604 384.984 234.23 385.012 234.771 385.068C234.771 384.238 234.668 383.673 234.463 383.374C234.258 383.066 233.842 382.912 233.217 382.912C232.592 382.912 231.854 383.062 231.005 383.36L230.795 382.66C231.663 382.343 232.447 382.184 233.147 382.184C234.071 382.184 234.696 382.39 235.023 382.8C235.35 383.211 235.513 383.93 235.513 384.956V387.896L235.625 388.96L234.911 389.03L234.771 388.19C234.556 388.377 234.253 388.568 233.861 388.764C233.469 388.951 233.096 389.044 232.741 389.044ZM237.487 383.15V382.45H238.845V380.756L239.587 380.616V382.45H242.793V383.15H239.587V386.342C239.587 387.052 239.69 387.565 239.895 387.882C240.11 388.19 240.488 388.344 241.029 388.344C241.234 388.344 241.552 388.312 241.981 388.246C242.41 388.172 242.704 388.106 242.863 388.05L243.031 388.736C242.854 388.802 242.527 388.872 242.051 388.946C241.584 389.021 241.244 389.058 241.029 389.058C240.189 389.058 239.615 388.839 239.307 388.4C238.999 387.952 238.845 387.276 238.845 386.37V383.15H237.487ZM244.865 388.918V388.218H246.909V382.968H244.865V382.268H247.651V388.218H249.695V388.918H244.865ZM246.615 380.294C246.615 380.108 246.666 379.963 246.769 379.86C246.881 379.758 247.03 379.706 247.217 379.706C247.6 379.706 247.791 379.912 247.791 380.322C247.791 380.733 247.6 380.934 247.217 380.924C246.816 380.924 246.615 380.714 246.615 380.294ZM251.529 385.614C251.529 383.328 252.42 382.184 254.203 382.184C255.986 382.184 256.877 383.328 256.877 385.614C256.877 387.901 255.986 389.044 254.203 389.044C252.42 389.044 251.529 387.901 251.529 385.614ZM254.203 382.912C252.952 382.912 252.327 383.813 252.327 385.614C252.327 387.416 252.952 388.316 254.203 388.316C255.454 388.316 256.079 387.416 256.079 385.614C256.079 383.813 255.454 382.912 254.203 382.912ZM259.481 382.268L259.509 382.828C260.414 382.399 261.166 382.184 261.763 382.184C262.36 382.184 262.827 382.39 263.163 382.8C263.508 383.211 263.681 383.771 263.681 384.48V388.918H262.939V384.48C262.939 384.023 262.827 383.645 262.603 383.346C262.379 383.057 262.043 382.912 261.595 382.912C261.147 382.912 260.452 383.118 259.509 383.528V388.918H258.767V382.268H259.481Z" fill="black"/>
<path d="M171.722 306.445C171.806 306.301 171.954 306.051 172.166 305.696C172.386 305.34 172.64 304.947 172.928 304.515C173.224 304.083 173.541 303.652 173.88 303.22C174.227 302.78 174.565 302.408 174.896 302.103L175.467 302.446C175.103 303.047 174.73 303.686 174.35 304.363C173.969 305.031 173.592 305.725 173.22 306.445H177.358L177.104 307.105H172.877C172.496 307.867 172.136 308.624 171.798 309.377C171.468 310.131 171.176 310.85 170.922 311.536C170.668 312.221 170.469 312.864 170.325 313.465C170.181 314.058 170.109 314.574 170.109 315.014C170.109 315.564 170.236 315.962 170.49 316.208C170.744 316.444 171.057 316.563 171.43 316.563C171.76 316.563 172.098 316.466 172.445 316.271C172.792 316.068 173.131 315.814 173.461 315.509C173.799 315.205 174.117 314.87 174.413 314.506C174.718 314.142 174.984 313.8 175.213 313.478C175.45 313.156 175.645 312.877 175.797 312.64C175.949 312.395 176.042 312.242 176.076 312.183L176.546 312.539C176.25 313.029 175.915 313.55 175.543 314.1C175.171 314.65 174.756 315.162 174.299 315.636C173.85 316.102 173.359 316.491 172.826 316.804C172.293 317.109 171.717 317.261 171.1 317.261C170.719 317.261 170.384 317.194 170.097 317.058C169.817 316.923 169.58 316.736 169.386 316.5C169.191 316.254 169.047 315.966 168.954 315.636C168.853 315.306 168.802 314.946 168.802 314.557C168.802 314.303 168.844 313.944 168.929 313.478C169.005 313.013 169.14 312.462 169.335 311.828C169.53 311.184 169.788 310.465 170.109 309.669C170.439 308.874 170.854 308.019 171.354 307.105H169.246L169.5 306.445H171.722ZM177.803 311.955C178.251 311.345 178.717 310.787 179.199 310.279C179.682 309.763 180.168 309.318 180.659 308.946C181.15 308.573 181.632 308.286 182.106 308.083C182.589 307.871 183.054 307.765 183.503 307.765C183.808 307.765 184.057 307.812 184.252 307.905C184.455 307.998 184.612 308.121 184.722 308.273C184.84 308.417 184.921 308.578 184.963 308.755C185.014 308.933 185.039 309.111 185.039 309.289C185.039 309.593 184.976 309.923 184.849 310.279C184.722 310.626 184.561 310.99 184.366 311.371C184.18 311.751 183.977 312.141 183.757 312.539C183.537 312.936 183.329 313.326 183.135 313.707C182.949 314.087 182.792 314.46 182.665 314.824C182.538 315.179 182.475 315.514 182.475 315.827C182.475 316.021 182.517 316.203 182.602 316.373C182.695 316.533 182.855 316.614 183.084 316.614C183.355 316.614 183.655 316.478 183.985 316.208C184.315 315.928 184.65 315.577 184.988 315.154C185.335 314.722 185.678 314.244 186.017 313.719C186.364 313.194 186.685 312.682 186.981 312.183L187.438 312.539C187.345 312.666 187.218 312.873 187.058 313.161C186.897 313.44 186.706 313.757 186.486 314.113C186.275 314.46 186.034 314.819 185.763 315.192C185.5 315.564 185.217 315.907 184.912 316.22C184.616 316.525 184.303 316.775 183.973 316.969C183.643 317.172 183.308 317.274 182.97 317.274C182.75 317.274 182.53 317.249 182.31 317.198C182.09 317.147 181.891 317.054 181.713 316.918C181.535 316.783 181.391 316.601 181.281 316.373C181.171 316.136 181.116 315.839 181.116 315.484C181.116 315.069 181.184 314.65 181.319 314.227C181.463 313.795 181.637 313.372 181.84 312.958C182.051 312.534 182.28 312.128 182.525 311.739C182.771 311.341 182.995 310.969 183.198 310.622C183.41 310.275 183.583 309.961 183.719 309.682C183.863 309.394 183.935 309.153 183.935 308.958C183.935 308.611 183.765 308.438 183.427 308.438C182.944 308.438 182.432 308.599 181.891 308.92C181.357 309.234 180.82 309.644 180.278 310.152C179.737 310.66 179.203 311.231 178.679 311.866C178.154 312.492 177.663 313.118 177.206 313.745L175.276 317.375L174.121 316.918C175.196 314.574 176.229 312.259 177.219 309.974C178.217 307.681 179.242 305.417 180.291 303.182C180.452 302.835 180.638 302.458 180.85 302.052C181.07 301.646 181.302 301.24 181.548 300.833C181.802 300.427 182.073 300.038 182.36 299.666C182.648 299.293 182.944 298.963 183.249 298.675C183.554 298.388 183.867 298.159 184.188 297.99C184.519 297.812 184.849 297.723 185.179 297.723C185.551 297.723 185.839 297.829 186.042 298.041C186.254 298.244 186.359 298.536 186.359 298.917C186.359 299.314 186.254 299.767 186.042 300.275C185.83 300.774 185.547 301.303 185.191 301.862C184.836 302.42 184.421 302.996 183.947 303.588C183.482 304.181 182.987 304.769 182.462 305.353C181.946 305.937 181.421 306.504 180.888 307.054C180.354 307.596 179.842 308.099 179.352 308.565L177.803 311.955ZM185.242 298.396C184.861 298.396 184.51 298.544 184.188 298.84C183.875 299.128 183.533 299.606 183.16 300.275C182.788 300.944 182.36 301.815 181.878 302.89C181.396 303.965 180.807 305.285 180.113 306.851C181.044 305.945 181.857 305.069 182.551 304.223C183.253 303.368 183.837 302.59 184.303 301.887C184.768 301.185 185.115 300.575 185.344 300.059C185.581 299.534 185.699 299.145 185.699 298.891C185.699 298.739 185.657 298.62 185.572 298.536C185.488 298.443 185.378 298.396 185.242 298.396ZM187.959 314.024C187.942 314.125 187.929 314.227 187.921 314.329C187.912 314.43 187.908 314.532 187.908 314.633C187.908 314.938 187.951 315.23 188.035 315.509C188.128 315.78 188.259 316.021 188.429 316.233C188.606 316.436 188.822 316.597 189.076 316.715C189.339 316.834 189.635 316.893 189.965 316.893C191.074 316.893 192.144 316.516 193.177 315.763C194.209 315.01 195.238 313.817 196.262 312.183L196.693 312.564C196.135 313.495 195.568 314.282 194.992 314.925C194.417 315.56 193.841 316.076 193.266 316.474C192.699 316.872 192.14 317.16 191.59 317.337C191.04 317.515 190.515 317.604 190.016 317.604C189.652 317.604 189.267 317.553 188.86 317.452C188.454 317.35 188.077 317.181 187.73 316.944C187.392 316.707 187.113 316.389 186.893 315.992C186.664 315.594 186.55 315.099 186.55 314.506C186.55 313.872 186.66 313.262 186.88 312.678C187.091 312.086 187.371 311.536 187.718 311.028C188.065 310.52 188.463 310.059 188.911 309.644C189.36 309.221 189.812 308.861 190.27 308.565C190.735 308.269 191.188 308.04 191.628 307.879C192.068 307.71 192.457 307.625 192.796 307.625C193.016 307.625 193.24 307.659 193.469 307.727C193.697 307.795 193.9 307.901 194.078 308.044C194.264 308.188 194.412 308.379 194.522 308.616C194.641 308.853 194.7 309.136 194.7 309.466C194.7 309.915 194.594 310.338 194.383 310.736C194.18 311.125 193.905 311.489 193.558 311.828C193.211 312.158 192.809 312.458 192.352 312.729C191.895 312.991 191.416 313.216 190.917 313.402C190.418 313.588 189.914 313.736 189.406 313.846C188.898 313.956 188.416 314.015 187.959 314.024ZM188.061 313.478C188.628 313.419 189.161 313.3 189.66 313.123C190.16 312.945 190.617 312.729 191.031 312.475C191.446 312.213 191.814 311.929 192.136 311.625C192.466 311.32 192.741 311.011 192.961 310.698C193.181 310.385 193.35 310.084 193.469 309.796C193.587 309.509 193.646 309.25 193.646 309.022C193.646 308.793 193.583 308.611 193.456 308.476C193.338 308.341 193.194 308.273 193.024 308.273C192.652 308.273 192.233 308.408 191.768 308.679C191.302 308.942 190.837 309.31 190.371 309.784C189.906 310.249 189.465 310.799 189.051 311.434C188.645 312.069 188.314 312.75 188.061 313.478Z" fill="black"/>
<mask id="path-5-outside-1_1405_8388" maskUnits="userSpaceOnUse" x="95.6963" y="264.479" width="172" height="88" fill="black">
<rect fill="white" x="95.6963" y="264.479" width="172" height="88"/>
<path d="M105.58 320.726C105.148 320.726 104.68 320.906 104.176 321.266V332.966C104.8 332.966 105.496 332.774 106.264 332.39C107.032 331.982 107.416 331.562 107.416 331.13V323.39C107.416 321.614 106.804 320.726 105.58 320.726ZM99.8563 341.246V322.598C99.8563 321.134 99.3643 320.306 98.3803 320.114V319.322L102.016 317.27C102.496 317.462 102.976 317.81 103.456 318.314C103.936 318.818 104.176 319.274 104.176 319.682C106.816 318.074 108.328 317.27 108.712 317.27C109.096 317.27 109.696 317.762 110.512 318.746C111.352 319.73 111.772 320.618 111.772 321.41V331.526C111.772 331.718 110.464 332.33 107.848 333.362C108.952 337.082 110.248 339.59 111.736 340.886C112.408 341.438 113.092 341.714 113.788 341.714V342.794C111.556 344.21 110.14 344.918 109.54 344.918C108.748 344.918 107.74 343.43 106.516 340.454C105.316 337.478 104.668 335.51 104.572 334.55L104.176 334.658V339.374C104.176 340.262 104.272 340.898 104.464 341.282C104.656 341.666 105.052 341.858 105.652 341.858V342.974L98.2723 346.07L97.6963 344.918C98.2243 344.918 98.7283 344.606 99.2083 343.982C99.6403 343.382 99.8563 342.47 99.8563 341.246ZM119.715 326.846V339.59C119.715 341.054 120.207 341.882 121.191 342.074V342.866L117.555 344.918C117.027 344.702 116.535 344.354 116.079 343.874C115.623 343.37 115.395 342.902 115.395 342.47V329.726C115.395 328.262 114.903 327.434 113.919 327.242V326.45L117.555 324.398C118.083 324.614 118.575 324.974 119.031 325.478C119.487 325.958 119.715 326.414 119.715 326.846ZM114.855 319.898V317.702C114.855 317.63 115.347 317.414 116.331 317.054C117.339 316.67 117.915 316.478 118.059 316.478C118.227 316.478 118.455 316.682 118.743 317.09C119.055 317.498 119.211 317.918 119.211 318.35V320.978C119.211 321.05 118.731 321.278 117.771 321.662C116.811 322.022 116.223 322.202 116.007 322.202C115.791 322.202 115.539 321.998 115.251 321.59C114.987 321.158 114.855 320.594 114.855 319.898ZM123.306 340.85V329.726C123.306 328.262 122.814 327.434 121.83 327.242V326.45L125.466 324.398C125.994 324.614 126.486 324.974 126.942 325.478C127.398 325.958 127.626 326.414 127.626 326.846V341.102C127.626 342.974 127.518 344.714 127.302 346.322C127.086 347.954 126.822 349.202 126.51 350.066C126.198 350.954 125.874 351.398 125.538 351.398C124.938 351.398 124.158 351.218 123.198 350.858C122.262 350.498 121.47 350.138 120.822 349.778L119.85 349.238V348.158H121.074C121.914 348.158 122.49 347.606 122.802 346.502C123.138 345.398 123.306 343.514 123.306 340.85ZM122.766 320.69V318.494C122.766 318.422 123.258 318.206 124.242 317.846C125.25 317.462 125.826 317.27 125.97 317.27C126.138 317.27 126.366 317.474 126.654 317.882C126.966 318.29 127.122 318.71 127.122 319.142V321.77C127.122 321.842 126.642 322.07 125.682 322.454C124.722 322.814 124.134 322.994 123.918 322.994C123.702 322.994 123.45 322.79 123.162 322.382C122.898 321.95 122.766 321.386 122.766 320.69ZM135.536 339.59C135.536 341.054 136.028 341.882 137.012 342.074V342.866L133.376 344.918C132.848 344.702 132.356 344.354 131.9 343.874C131.444 343.37 131.216 342.902 131.216 342.47V324.65C131.216 324.002 131.108 323.546 130.892 323.282C130.676 322.994 130.304 322.85 129.776 322.85V321.842C132.896 320.21 135.68 318.674 138.128 317.234L138.704 318.386C138.464 318.506 138.128 318.746 137.696 319.106C137.264 319.442 136.904 319.79 136.616 320.15C135.896 321.062 135.536 322.094 135.536 323.246V326.558C137.768 325.118 139.088 324.398 139.496 324.398C140.168 324.398 140.912 324.842 141.728 325.73C142.544 326.594 142.952 327.566 142.952 328.646V332.57C142.952 332.834 141.704 333.446 139.208 334.406C140.72 338.414 142.196 340.718 143.636 341.318C144.092 341.534 144.596 341.666 145.148 341.714V342.758C142.916 344.198 141.512 344.918 140.936 344.918C140.168 344.918 139.184 343.754 137.984 341.426C136.808 339.074 135.992 337.118 135.536 335.558V339.59ZM135.536 333.794C136.016 333.794 136.88 333.494 138.128 332.894L138.776 332.57V330.95C138.776 328.91 138.08 327.89 136.688 327.89L135.536 328.07V333.794ZM148.34 337.034C147.74 337.034 147.224 336.578 146.792 335.666C146.36 334.754 146.144 333.638 146.144 332.318V328.43C146.144 327.974 147.404 327.194 149.924 326.09C152.444 324.962 153.896 324.398 154.28 324.398C154.496 324.398 154.688 324.53 154.856 324.794C155.024 325.034 155.156 325.238 155.252 325.406C155.348 325.55 155.492 325.814 155.684 326.198C155.9 326.558 156.08 326.858 156.224 327.098C156.536 327.674 156.932 327.962 157.412 327.962V328.682C157.028 328.85 156.524 329.102 155.9 329.438C154.364 330.278 153.536 330.698 153.416 330.698C153.056 330.698 152.66 330.11 152.228 328.934C151.82 327.758 151.448 327.17 151.112 327.17C150.68 327.17 150.464 327.53 150.464 328.25V332.678C150.464 333.638 150.68 334.118 151.112 334.118C151.208 334.118 151.952 333.806 153.344 333.182C154.736 332.558 155.576 332.246 155.864 332.246C156.44 332.246 156.944 332.714 157.376 333.65C157.832 334.562 158.06 335.738 158.06 337.178V341.246C158.06 341.702 156.68 342.494 153.92 343.622C151.184 344.726 149.612 345.278 149.204 345.278C149.036 345.278 148.868 345.134 148.7 344.846C148.556 344.534 148.34 344.066 148.052 343.442C147.788 342.818 147.524 342.29 147.26 341.858C146.948 341.282 146.552 340.994 146.072 340.994V340.274C146.456 340.106 146.972 339.854 147.62 339.518C149.132 338.678 149.948 338.258 150.068 338.258C150.428 338.258 150.872 338.966 151.4 340.382C151.952 341.798 152.396 342.506 152.732 342.506C152.972 342.506 153.2 342.41 153.416 342.218C153.632 342.026 153.74 341.762 153.74 341.426V336.926C153.74 335.846 153.44 335.306 152.84 335.306C152.648 335.306 151.892 335.594 150.572 336.17C149.252 336.746 148.508 337.034 148.34 337.034ZM161.274 342.47V330.266C161.274 329.474 161.106 328.79 160.77 328.214C160.434 327.638 160.014 327.35 159.51 327.35V326.558C159.678 326.534 160.986 325.802 163.434 324.362C163.602 324.41 163.806 324.482 164.046 324.578C164.286 324.65 164.598 324.878 164.982 325.262C165.39 325.646 165.594 326.09 165.594 326.594C165.738 326.522 166.146 326.294 166.818 325.91C168.594 324.902 169.686 324.398 170.094 324.398C170.526 324.398 170.994 324.614 171.498 325.046C172.026 325.478 172.422 325.994 172.686 326.594C172.734 326.57 173.226 326.318 174.162 325.838C176.034 324.878 177.162 324.398 177.546 324.398C178.314 324.398 179.034 324.902 179.706 325.91C180.378 326.918 180.714 327.842 180.714 328.682V339.59C180.714 340.91 181.302 341.69 182.478 341.93V342.722L178.554 344.918C178.026 344.702 177.534 344.354 177.078 343.874C176.622 343.37 176.394 342.902 176.394 342.47V331.85C176.394 330.29 176.19 329.258 175.782 328.754C175.374 328.226 174.846 327.962 174.198 327.962L173.154 328.178V339.59C173.154 340.91 173.742 341.69 174.918 341.93V342.722L170.994 344.918C170.466 344.702 169.974 344.354 169.518 343.874C169.062 343.37 168.834 342.902 168.834 342.47V332.03C168.834 329.27 168.174 327.89 166.854 327.89L165.594 328.106V339.59C165.594 341.054 166.086 341.882 167.07 342.074V342.866L163.434 344.918C162.906 344.702 162.414 344.354 161.958 343.874C161.502 343.37 161.274 342.902 161.274 342.47ZM188.622 339.302C188.622 339.926 188.802 340.442 189.162 340.85C189.546 341.234 189.966 341.426 190.422 341.426C190.878 341.426 191.358 341.246 191.862 340.886V329.69C191.862 328.226 191.37 327.398 190.386 327.206V326.414L194.022 324.362C194.55 324.578 195.042 324.938 195.498 325.442C195.954 325.922 196.182 326.378 196.182 326.81V339.014C196.182 339.806 196.35 340.49 196.686 341.066C197.022 341.642 197.442 341.93 197.946 341.93V342.722C197.778 342.746 196.47 343.478 194.022 344.918C193.47 344.678 192.966 344.33 192.51 343.874C192.078 343.394 191.862 342.938 191.862 342.506L187.362 344.918C187.29 344.87 187.182 344.81 187.038 344.738C186.894 344.642 186.642 344.462 186.282 344.198C185.946 343.91 185.646 343.61 185.382 343.298C184.662 342.506 184.302 341.606 184.302 340.598V329.69C184.302 328.37 183.714 327.59 182.538 327.35V326.558L186.462 324.362C186.99 324.578 187.482 324.938 187.938 325.442C188.394 325.922 188.622 326.378 188.622 326.81V339.302ZM201.426 337.034C200.826 337.034 200.31 336.578 199.878 335.666C199.446 334.754 199.23 333.638 199.23 332.318V328.43C199.23 327.974 200.49 327.194 203.01 326.09C205.53 324.962 206.982 324.398 207.366 324.398C207.582 324.398 207.774 324.53 207.942 324.794C208.11 325.034 208.242 325.238 208.338 325.406C208.434 325.55 208.578 325.814 208.77 326.198C208.986 326.558 209.166 326.858 209.31 327.098C209.622 327.674 210.018 327.962 210.498 327.962V328.682C210.114 328.85 209.61 329.102 208.986 329.438C207.45 330.278 206.622 330.698 206.502 330.698C206.142 330.698 205.746 330.11 205.314 328.934C204.906 327.758 204.534 327.17 204.198 327.17C203.766 327.17 203.55 327.53 203.55 328.25V332.678C203.55 333.638 203.766 334.118 204.198 334.118C204.294 334.118 205.038 333.806 206.43 333.182C207.822 332.558 208.662 332.246 208.95 332.246C209.526 332.246 210.03 332.714 210.462 333.65C210.918 334.562 211.146 335.738 211.146 337.178V341.246C211.146 341.702 209.766 342.494 207.006 343.622C204.27 344.726 202.698 345.278 202.29 345.278C202.122 345.278 201.954 345.134 201.786 344.846C201.642 344.534 201.426 344.066 201.138 343.442C200.874 342.818 200.61 342.29 200.346 341.858C200.034 341.282 199.638 340.994 199.158 340.994V340.274C199.542 340.106 200.058 339.854 200.706 339.518C202.218 338.678 203.034 338.258 203.154 338.258C203.514 338.258 203.958 338.966 204.486 340.382C205.038 341.798 205.482 342.506 205.818 342.506C206.058 342.506 206.286 342.41 206.502 342.218C206.718 342.026 206.826 341.762 206.826 341.426V336.926C206.826 335.846 206.526 335.306 205.926 335.306C205.734 335.306 204.978 335.594 203.658 336.17C202.338 336.746 201.594 337.034 201.426 337.034ZM223.18 324.398C223.3 324.398 223.6 324.59 224.08 324.974C224.56 325.334 225.04 325.85 225.52 326.522C226 327.17 226.24 327.806 226.24 328.43V334.478C226.24 334.91 225.604 335.438 224.332 336.062C223.06 336.686 221.824 337.202 220.624 337.61C219.448 337.994 218.812 338.186 218.716 338.186C218.716 340.034 219.52 341.174 221.128 341.606C221.92 341.798 222.868 341.894 223.972 341.894V342.938C220.036 344.258 217.936 344.918 217.672 344.918C216.952 344.918 216.22 344.414 215.476 343.406C214.732 342.374 214.36 341.174 214.36 339.806V327.71C214.36 327.542 215.728 326.954 218.464 325.946C221.2 324.914 222.772 324.398 223.18 324.398ZM221.92 330.122C221.92 329.45 221.764 328.886 221.452 328.43C221.14 327.95 220.744 327.71 220.264 327.71C219.784 327.71 219.256 327.89 218.68 328.25V336.566C220.84 335.966 221.92 334.67 221.92 332.678V330.122ZM233.973 339.302C233.973 339.926 234.153 340.442 234.513 340.85C234.897 341.234 235.317 341.426 235.773 341.426C236.229 341.426 236.709 341.246 237.213 340.886V329.69C237.213 328.226 236.721 327.398 235.737 327.206V326.414L239.373 324.362C239.901 324.578 240.393 324.938 240.849 325.442C241.305 325.922 241.533 326.378 241.533 326.81V339.014C241.533 339.806 241.701 340.49 242.037 341.066C242.373 341.642 242.793 341.93 243.297 341.93V342.722C243.129 342.746 241.821 343.478 239.373 344.918C238.821 344.678 238.317 344.33 237.861 343.874C237.429 343.394 237.213 342.938 237.213 342.506L232.713 344.918C232.641 344.87 232.533 344.81 232.389 344.738C232.245 344.642 231.993 344.462 231.633 344.198C231.297 343.91 230.997 343.61 230.733 343.298C230.013 342.506 229.653 341.606 229.653 340.598V329.69C229.653 328.37 229.065 327.59 227.889 327.35V326.558L231.813 324.362C232.341 324.578 232.833 324.938 233.289 325.442C233.745 325.922 233.973 326.378 233.973 326.81V339.302ZM245.122 342.47V330.266C245.122 329.474 244.954 328.79 244.618 328.214C244.282 327.638 243.862 327.35 243.358 327.35V326.558C243.526 326.534 244.834 325.802 247.282 324.362C247.45 324.41 247.654 324.482 247.894 324.578C248.134 324.65 248.446 324.878 248.83 325.262C249.238 325.646 249.442 326.09 249.442 326.594C249.586 326.522 249.994 326.294 250.666 325.91C252.442 324.902 253.534 324.398 253.942 324.398C254.374 324.398 254.842 324.614 255.346 325.046C255.874 325.478 256.27 325.994 256.534 326.594C256.582 326.57 257.074 326.318 258.01 325.838C259.882 324.878 261.01 324.398 261.394 324.398C262.162 324.398 262.882 324.902 263.554 325.91C264.226 326.918 264.562 327.842 264.562 328.682V339.59C264.562 340.91 265.15 341.69 266.326 341.93V342.722L262.402 344.918C261.874 344.702 261.382 344.354 260.926 343.874C260.47 343.37 260.242 342.902 260.242 342.47V331.85C260.242 330.29 260.038 329.258 259.63 328.754C259.222 328.226 258.694 327.962 258.046 327.962L257.002 328.178V339.59C257.002 340.91 257.59 341.69 258.766 341.93V342.722L254.842 344.918C254.314 344.702 253.822 344.354 253.366 343.874C252.91 343.37 252.682 342.902 252.682 342.47V332.03C252.682 329.27 252.022 327.89 250.702 327.89L249.442 328.106V339.59C249.442 341.054 249.934 341.882 250.918 342.074V342.866L247.282 344.918C246.754 344.702 246.262 344.354 245.806 343.874C245.35 343.37 245.122 342.902 245.122 342.47Z"/>
<path d="M120.19 289.095C120.19 289.695 120.358 290.199 120.694 290.607C121.03 291.015 121.39 291.219 121.774 291.219C122.158 291.219 122.71 291.039 123.43 290.679V272.859C123.43 271.971 123.334 271.335 123.142 270.951C122.974 270.567 122.59 270.375 121.99 270.375V269.259L129.37 266.163L129.946 267.315C129.418 267.315 128.926 267.627 128.47 268.251C128.014 268.851 127.786 269.763 127.786 270.987V290.571C127.786 290.787 126.502 291.399 123.934 292.407C121.366 293.415 119.71 293.919 118.966 293.919C118.222 293.919 117.514 293.355 116.842 292.227C116.194 291.099 115.87 290.103 115.87 289.239V271.491C115.87 270.171 115.282 269.391 114.106 269.151V268.359L118.03 266.163C118.558 266.379 119.05 266.739 119.506 267.243C119.962 267.723 120.19 268.179 120.19 268.611V289.095ZM135.694 275.847V288.591C135.694 290.055 136.186 290.883 137.17 291.075V291.867L133.534 293.919C133.006 293.703 132.514 293.355 132.058 292.875C131.602 292.371 131.374 291.903 131.374 291.471V278.727C131.374 277.263 130.882 276.435 129.898 276.243V275.451L133.534 273.399C134.062 273.615 134.554 273.975 135.01 274.479C135.466 274.959 135.694 275.415 135.694 275.847ZM130.834 268.899V266.703C130.834 266.631 131.326 266.415 132.31 266.055C133.318 265.671 133.894 265.479 134.038 265.479C134.206 265.479 134.434 265.683 134.722 266.091C135.034 266.499 135.19 266.919 135.19 267.351V269.979C135.19 270.051 134.71 270.279 133.75 270.663C132.79 271.023 132.202 271.203 131.986 271.203C131.77 271.203 131.518 270.999 131.23 270.591C130.966 270.159 130.834 269.595 130.834 268.899ZM140.94 286.035C140.34 286.035 139.824 285.579 139.392 284.667C138.96 283.755 138.744 282.639 138.744 281.319V277.431C138.744 276.975 140.004 276.195 142.524 275.091C145.044 273.963 146.496 273.399 146.88 273.399C147.096 273.399 147.288 273.531 147.456 273.795C147.624 274.035 147.756 274.239 147.852 274.407C147.948 274.551 148.092 274.815 148.284 275.199C148.5 275.559 148.68 275.859 148.824 276.099C149.136 276.675 149.532 276.963 150.012 276.963V277.683C149.628 277.851 149.124 278.103 148.5 278.439C146.964 279.279 146.136 279.699 146.016 279.699C145.656 279.699 145.26 279.111 144.828 277.935C144.42 276.759 144.048 276.171 143.712 276.171C143.28 276.171 143.064 276.531 143.064 277.251V281.679C143.064 282.639 143.28 283.119 143.712 283.119C143.808 283.119 144.552 282.807 145.944 282.183C147.336 281.559 148.176 281.247 148.464 281.247C149.04 281.247 149.544 281.715 149.976 282.651C150.432 283.563 150.66 284.739 150.66 286.179V290.247C150.66 290.703 149.28 291.495 146.52 292.623C143.784 293.727 142.212 294.279 141.804 294.279C141.636 294.279 141.468 294.135 141.3 293.847C141.156 293.535 140.94 293.067 140.652 292.443C140.388 291.819 140.124 291.291 139.86 290.859C139.548 290.283 139.152 289.995 138.672 289.995V289.275C139.056 289.107 139.572 288.855 140.22 288.519C141.732 287.679 142.548 287.259 142.668 287.259C143.028 287.259 143.472 287.967 144 289.383C144.552 290.799 144.996 291.507 145.332 291.507C145.572 291.507 145.8 291.411 146.016 291.219C146.232 291.027 146.34 290.763 146.34 290.427V285.927C146.34 284.847 146.04 284.307 145.44 284.307C145.248 284.307 144.492 284.595 143.172 285.171C141.852 285.747 141.108 286.035 140.94 286.035ZM158.194 288.303C158.194 288.927 158.374 289.443 158.734 289.851C159.118 290.235 159.538 290.427 159.994 290.427C160.45 290.427 160.93 290.247 161.434 289.887V278.691C161.434 277.227 160.942 276.399 159.958 276.207V275.415L163.594 273.363C164.122 273.579 164.614 273.939 165.07 274.443C165.526 274.923 165.754 275.379 165.754 275.811V288.015C165.754 288.807 165.922 289.491 166.258 290.067C166.594 290.643 167.014 290.931 167.518 290.931V291.723C167.35 291.747 166.042 292.479 163.594 293.919C163.042 293.679 162.538 293.331 162.082 292.875C161.65 292.395 161.434 291.939 161.434 291.507L156.934 293.919C156.862 293.871 156.754 293.811 156.61 293.739C156.466 293.643 156.214 293.463 155.854 293.199C155.518 292.911 155.218 292.611 154.954 292.299C154.234 291.507 153.874 290.607 153.874 289.599V278.691C153.874 277.371 153.286 276.591 152.11 276.351V275.559L156.034 273.363C156.562 273.579 157.054 273.939 157.51 274.443C157.966 274.923 158.194 275.379 158.194 275.811V288.303ZM180.503 278.151V288.339C180.503 289.227 180.647 289.851 180.935 290.211C181.223 290.547 181.667 290.787 182.267 290.931V291.723L178.343 293.919C177.815 293.703 177.323 293.355 176.867 292.875C176.411 292.371 176.183 291.915 176.183 291.507L171.683 293.919C171.611 293.871 171.503 293.811 171.359 293.739C171.215 293.643 170.963 293.463 170.603 293.199C170.267 292.911 169.967 292.611 169.703 292.299C168.983 291.507 168.623 290.607 168.623 289.599V283.695C168.623 283.311 169.247 282.819 170.495 282.219C171.743 281.619 172.991 281.127 174.239 280.743L176.147 280.131C176.147 278.763 175.787 277.815 175.067 277.287C174.347 276.735 172.955 276.459 170.891 276.459V275.379C174.611 274.059 176.699 273.399 177.155 273.399C177.947 273.399 178.703 273.915 179.423 274.947C180.143 275.979 180.503 277.047 180.503 278.151ZM172.943 288.303C172.943 288.927 173.123 289.443 173.483 289.851C173.867 290.235 174.287 290.427 174.743 290.427C175.199 290.427 175.679 290.247 176.183 289.887V281.751C175.583 281.967 175.127 282.147 174.815 282.291C174.527 282.435 174.215 282.663 173.879 282.975C173.255 283.551 172.943 284.547 172.943 285.963V288.303ZM188.428 268.683V288.591C188.428 290.055 188.92 290.883 189.904 291.075V291.867L186.268 293.919C185.74 293.703 185.248 293.355 184.792 292.875C184.336 292.371 184.108 291.903 184.108 291.471V271.563C184.108 270.099 183.616 269.271 182.632 269.079V268.287L186.268 266.235C186.796 266.451 187.288 266.811 187.744 267.315C188.2 267.795 188.428 268.251 188.428 268.683ZM196.338 275.847V288.591C196.338 290.055 196.83 290.883 197.814 291.075V291.867L194.178 293.919C193.65 293.703 193.158 293.355 192.702 292.875C192.246 292.371 192.018 291.903 192.018 291.471V278.727C192.018 277.263 191.526 276.435 190.542 276.243V275.451L194.178 273.399C194.706 273.615 195.198 273.975 195.654 274.479C196.11 274.959 196.338 275.415 196.338 275.847ZM191.478 268.899V266.703C191.478 266.631 191.97 266.415 192.954 266.055C193.962 265.671 194.538 265.479 194.682 265.479C194.85 265.479 195.078 265.683 195.366 266.091C195.678 266.499 195.834 266.919 195.834 267.351V269.979C195.834 270.051 195.354 270.279 194.394 270.663C193.434 271.023 192.846 271.203 192.63 271.203C192.414 271.203 192.162 270.999 191.874 270.591C191.61 270.159 191.478 269.595 191.478 268.899ZM205.761 290.391C207.225 290.391 208.053 289.995 208.245 289.203H209.037L211.089 292.155C210.801 292.611 210.429 293.019 209.973 293.379C209.517 293.739 209.073 293.919 208.641 293.919H199.209C198.729 292.455 198.489 291.315 198.489 290.499L206.949 277.251H203.817C202.353 277.251 201.525 277.647 201.333 278.439H200.541L198.489 275.487C198.777 275.031 199.149 274.623 199.605 274.263C200.061 273.903 200.505 273.723 200.937 273.723H205.761C207.225 273.723 208.053 273.327 208.245 272.535H209.037C209.373 272.991 209.793 273.831 210.297 275.055C210.825 276.255 211.089 276.975 211.089 277.215L202.917 290.391H205.761ZM217.573 275.847V288.591C217.573 290.055 218.065 290.883 219.049 291.075V291.867L215.413 293.919C214.885 293.703 214.393 293.355 213.937 292.875C213.481 292.371 213.253 291.903 213.253 291.471V278.727C213.253 277.263 212.761 276.435 211.777 276.243V275.451L215.413 273.399C215.941 273.615 216.433 273.975 216.889 274.479C217.345 274.959 217.573 275.415 217.573 275.847ZM212.713 268.899V266.703C212.713 266.631 213.205 266.415 214.189 266.055C215.197 265.671 215.773 265.479 215.917 265.479C216.085 265.479 216.313 265.683 216.601 266.091C216.913 266.499 217.069 266.919 217.069 267.351V269.979C217.069 270.051 216.589 270.279 215.629 270.663C214.669 271.023 214.081 271.203 213.865 271.203C213.649 271.203 213.397 270.999 213.109 270.591C212.845 270.159 212.713 269.595 212.713 268.899ZM221.163 291.471V279.267C221.163 278.475 220.995 277.791 220.659 277.215C220.323 276.639 219.903 276.351 219.399 276.351V275.559C219.567 275.535 220.875 274.803 223.323 273.363C223.491 273.411 223.695 273.483 223.935 273.579C224.175 273.651 224.487 273.879 224.871 274.263C225.279 274.647 225.483 275.091 225.483 275.595C225.627 275.523 226.035 275.295 226.707 274.911C228.483 273.903 229.539 273.399 229.875 273.399C230.643 273.399 231.363 273.903 232.035 274.911C232.707 275.919 233.043 276.843 233.043 277.683V288.591C233.043 289.911 233.631 290.691 234.807 290.931V291.723L230.883 293.919C230.355 293.703 229.863 293.355 229.407 292.875C228.951 292.371 228.723 291.903 228.723 291.471V281.031C228.723 279.687 228.567 278.667 228.255 277.971C227.967 277.251 227.439 276.891 226.671 276.891L225.483 277.107V288.591C225.483 290.055 225.975 290.883 226.959 291.075V291.867L223.323 293.919C222.795 293.703 222.303 293.355 221.847 292.875C221.391 292.371 221.163 291.903 221.163 291.471ZM236.632 276.747C236.632 276.507 237.952 275.895 240.592 274.911C243.256 273.903 244.888 273.399 245.488 273.399C246.088 273.399 246.748 273.951 247.468 275.055C248.188 276.135 248.548 277.335 248.548 278.655V290.103C248.548 291.015 248.14 292.311 247.324 293.991C246.508 295.695 245.644 297.183 244.732 298.455C243.82 299.751 243.196 300.399 242.86 300.399C242.26 300.399 241.456 300.219 240.448 299.859C239.44 299.499 238.576 299.139 237.856 298.779L236.812 298.239V297.159H238.036C238.972 297.159 240.04 296.619 241.24 295.539C242.44 294.483 243.436 293.067 244.228 291.291C241.516 292.563 239.956 293.199 239.548 293.199C238.804 293.199 238.132 292.731 237.532 291.795C236.932 290.835 236.632 289.767 236.632 288.591V276.747ZM244.228 279.879C244.228 277.767 243.676 276.711 242.572 276.711C241.996 276.711 241.468 276.903 240.988 277.287V285.567C240.988 287.247 241.252 288.375 241.78 288.951C242.308 289.503 243.124 289.779 244.228 289.779V279.879Z"/>
</mask>
<path d="M105.58 320.726C105.148 320.726 104.68 320.906 104.176 321.266V332.966C104.8 332.966 105.496 332.774 106.264 332.39C107.032 331.982 107.416 331.562 107.416 331.13V323.39C107.416 321.614 106.804 320.726 105.58 320.726ZM99.8563 341.246V322.598C99.8563 321.134 99.3643 320.306 98.3803 320.114V319.322L102.016 317.27C102.496 317.462 102.976 317.81 103.456 318.314C103.936 318.818 104.176 319.274 104.176 319.682C106.816 318.074 108.328 317.27 108.712 317.27C109.096 317.27 109.696 317.762 110.512 318.746C111.352 319.73 111.772 320.618 111.772 321.41V331.526C111.772 331.718 110.464 332.33 107.848 333.362C108.952 337.082 110.248 339.59 111.736 340.886C112.408 341.438 113.092 341.714 113.788 341.714V342.794C111.556 344.21 110.14 344.918 109.54 344.918C108.748 344.918 107.74 343.43 106.516 340.454C105.316 337.478 104.668 335.51 104.572 334.55L104.176 334.658V339.374C104.176 340.262 104.272 340.898 104.464 341.282C104.656 341.666 105.052 341.858 105.652 341.858V342.974L98.2723 346.07L97.6963 344.918C98.2243 344.918 98.7283 344.606 99.2083 343.982C99.6403 343.382 99.8563 342.47 99.8563 341.246ZM119.715 326.846V339.59C119.715 341.054 120.207 341.882 121.191 342.074V342.866L117.555 344.918C117.027 344.702 116.535 344.354 116.079 343.874C115.623 343.37 115.395 342.902 115.395 342.47V329.726C115.395 328.262 114.903 327.434 113.919 327.242V326.45L117.555 324.398C118.083 324.614 118.575 324.974 119.031 325.478C119.487 325.958 119.715 326.414 119.715 326.846ZM114.855 319.898V317.702C114.855 317.63 115.347 317.414 116.331 317.054C117.339 316.67 117.915 316.478 118.059 316.478C118.227 316.478 118.455 316.682 118.743 317.09C119.055 317.498 119.211 317.918 119.211 318.35V320.978C119.211 321.05 118.731 321.278 117.771 321.662C116.811 322.022 116.223 322.202 116.007 322.202C115.791 322.202 115.539 321.998 115.251 321.59C114.987 321.158 114.855 320.594 114.855 319.898ZM123.306 340.85V329.726C123.306 328.262 122.814 327.434 121.83 327.242V326.45L125.466 324.398C125.994 324.614 126.486 324.974 126.942 325.478C127.398 325.958 127.626 326.414 127.626 326.846V341.102C127.626 342.974 127.518 344.714 127.302 346.322C127.086 347.954 126.822 349.202 126.51 350.066C126.198 350.954 125.874 351.398 125.538 351.398C124.938 351.398 124.158 351.218 123.198 350.858C122.262 350.498 121.47 350.138 120.822 349.778L119.85 349.238V348.158H121.074C121.914 348.158 122.49 347.606 122.802 346.502C123.138 345.398 123.306 343.514 123.306 340.85ZM122.766 320.69V318.494C122.766 318.422 123.258 318.206 124.242 317.846C125.25 317.462 125.826 317.27 125.97 317.27C126.138 317.27 126.366 317.474 126.654 317.882C126.966 318.29 127.122 318.71 127.122 319.142V321.77C127.122 321.842 126.642 322.07 125.682 322.454C124.722 322.814 124.134 322.994 123.918 322.994C123.702 322.994 123.45 322.79 123.162 322.382C122.898 321.95 122.766 321.386 122.766 320.69ZM135.536 339.59C135.536 341.054 136.028 341.882 137.012 342.074V342.866L133.376 344.918C132.848 344.702 132.356 344.354 131.9 343.874C131.444 343.37 131.216 342.902 131.216 342.47V324.65C131.216 324.002 131.108 323.546 130.892 323.282C130.676 322.994 130.304 322.85 129.776 322.85V321.842C132.896 320.21 135.68 318.674 138.128 317.234L138.704 318.386C138.464 318.506 138.128 318.746 137.696 319.106C137.264 319.442 136.904 319.79 136.616 320.15C135.896 321.062 135.536 322.094 135.536 323.246V326.558C137.768 325.118 139.088 324.398 139.496 324.398C140.168 324.398 140.912 324.842 141.728 325.73C142.544 326.594 142.952 327.566 142.952 328.646V332.57C142.952 332.834 141.704 333.446 139.208 334.406C140.72 338.414 142.196 340.718 143.636 341.318C144.092 341.534 144.596 341.666 145.148 341.714V342.758C142.916 344.198 141.512 344.918 140.936 344.918C140.168 344.918 139.184 343.754 137.984 341.426C136.808 339.074 135.992 337.118 135.536 335.558V339.59ZM135.536 333.794C136.016 333.794 136.88 333.494 138.128 332.894L138.776 332.57V330.95C138.776 328.91 138.08 327.89 136.688 327.89L135.536 328.07V333.794ZM148.34 337.034C147.74 337.034 147.224 336.578 146.792 335.666C146.36 334.754 146.144 333.638 146.144 332.318V328.43C146.144 327.974 147.404 327.194 149.924 326.09C152.444 324.962 153.896 324.398 154.28 324.398C154.496 324.398 154.688 324.53 154.856 324.794C155.024 325.034 155.156 325.238 155.252 325.406C155.348 325.55 155.492 325.814 155.684 326.198C155.9 326.558 156.08 326.858 156.224 327.098C156.536 327.674 156.932 327.962 157.412 327.962V328.682C157.028 328.85 156.524 329.102 155.9 329.438C154.364 330.278 153.536 330.698 153.416 330.698C153.056 330.698 152.66 330.11 152.228 328.934C151.82 327.758 151.448 327.17 151.112 327.17C150.68 327.17 150.464 327.53 150.464 328.25V332.678C150.464 333.638 150.68 334.118 151.112 334.118C151.208 334.118 151.952 333.806 153.344 333.182C154.736 332.558 155.576 332.246 155.864 332.246C156.44 332.246 156.944 332.714 157.376 333.65C157.832 334.562 158.06 335.738 158.06 337.178V341.246C158.06 341.702 156.68 342.494 153.92 343.622C151.184 344.726 149.612 345.278 149.204 345.278C149.036 345.278 148.868 345.134 148.7 344.846C148.556 344.534 148.34 344.066 148.052 343.442C147.788 342.818 147.524 342.29 147.26 341.858C146.948 341.282 146.552 340.994 146.072 340.994V340.274C146.456 340.106 146.972 339.854 147.62 339.518C149.132 338.678 149.948 338.258 150.068 338.258C150.428 338.258 150.872 338.966 151.4 340.382C151.952 341.798 152.396 342.506 152.732 342.506C152.972 342.506 153.2 342.41 153.416 342.218C153.632 342.026 153.74 341.762 153.74 341.426V336.926C153.74 335.846 153.44 335.306 152.84 335.306C152.648 335.306 151.892 335.594 150.572 336.17C149.252 336.746 148.508 337.034 148.34 337.034ZM161.274 342.47V330.266C161.274 329.474 161.106 328.79 160.77 328.214C160.434 327.638 160.014 327.35 159.51 327.35V326.558C159.678 326.534 160.986 325.802 163.434 324.362C163.602 324.41 163.806 324.482 164.046 324.578C164.286 324.65 164.598 324.878 164.982 325.262C165.39 325.646 165.594 326.09 165.594 326.594C165.738 326.522 166.146 326.294 166.818 325.91C168.594 324.902 169.686 324.398 170.094 324.398C170.526 324.398 170.994 324.614 171.498 325.046C172.026 325.478 172.422 325.994 172.686 326.594C172.734 326.57 173.226 326.318 174.162 325.838C176.034 324.878 177.162 324.398 177.546 324.398C178.314 324.398 179.034 324.902 179.706 325.91C180.378 326.918 180.714 327.842 180.714 328.682V339.59C180.714 340.91 181.302 341.69 182.478 341.93V342.722L178.554 344.918C178.026 344.702 177.534 344.354 177.078 343.874C176.622 343.37 176.394 342.902 176.394 342.47V331.85C176.394 330.29 176.19 329.258 175.782 328.754C175.374 328.226 174.846 327.962 174.198 327.962L173.154 328.178V339.59C173.154 340.91 173.742 341.69 174.918 341.93V342.722L170.994 344.918C170.466 344.702 169.974 344.354 169.518 343.874C169.062 343.37 168.834 342.902 168.834 342.47V332.03C168.834 329.27 168.174 327.89 166.854 327.89L165.594 328.106V339.59C165.594 341.054 166.086 341.882 167.07 342.074V342.866L163.434 344.918C162.906 344.702 162.414 344.354 161.958 343.874C161.502 343.37 161.274 342.902 161.274 342.47ZM188.622 339.302C188.622 339.926 188.802 340.442 189.162 340.85C189.546 341.234 189.966 341.426 190.422 341.426C190.878 341.426 191.358 341.246 191.862 340.886V329.69C191.862 328.226 191.37 327.398 190.386 327.206V326.414L194.022 324.362C194.55 324.578 195.042 324.938 195.498 325.442C195.954 325.922 196.182 326.378 196.182 326.81V339.014C196.182 339.806 196.35 340.49 196.686 341.066C197.022 341.642 197.442 341.93 197.946 341.93V342.722C197.778 342.746 196.47 343.478 194.022 344.918C193.47 344.678 192.966 344.33 192.51 343.874C192.078 343.394 191.862 342.938 191.862 342.506L187.362 344.918C187.29 344.87 187.182 344.81 187.038 344.738C186.894 344.642 186.642 344.462 186.282 344.198C185.946 343.91 185.646 343.61 185.382 343.298C184.662 342.506 184.302 341.606 184.302 340.598V329.69C184.302 328.37 183.714 327.59 182.538 327.35V326.558L186.462 324.362C186.99 324.578 187.482 324.938 187.938 325.442C188.394 325.922 188.622 326.378 188.622 326.81V339.302ZM201.426 337.034C200.826 337.034 200.31 336.578 199.878 335.666C199.446 334.754 199.23 333.638 199.23 332.318V328.43C199.23 327.974 200.49 327.194 203.01 326.09C205.53 324.962 206.982 324.398 207.366 324.398C207.582 324.398 207.774 324.53 207.942 324.794C208.11 325.034 208.242 325.238 208.338 325.406C208.434 325.55 208.578 325.814 208.77 326.198C208.986 326.558 209.166 326.858 209.31 327.098C209.622 327.674 210.018 327.962 210.498 327.962V328.682C210.114 328.85 209.61 329.102 208.986 329.438C207.45 330.278 206.622 330.698 206.502 330.698C206.142 330.698 205.746 330.11 205.314 328.934C204.906 327.758 204.534 327.17 204.198 327.17C203.766 327.17 203.55 327.53 203.55 328.25V332.678C203.55 333.638 203.766 334.118 204.198 334.118C204.294 334.118 205.038 333.806 206.43 333.182C207.822 332.558 208.662 332.246 208.95 332.246C209.526 332.246 210.03 332.714 210.462 333.65C210.918 334.562 211.146 335.738 211.146 337.178V341.246C211.146 341.702 209.766 342.494 207.006 343.622C204.27 344.726 202.698 345.278 202.29 345.278C202.122 345.278 201.954 345.134 201.786 344.846C201.642 344.534 201.426 344.066 201.138 343.442C200.874 342.818 200.61 342.29 200.346 341.858C200.034 341.282 199.638 340.994 199.158 340.994V340.274C199.542 340.106 200.058 339.854 200.706 339.518C202.218 338.678 203.034 338.258 203.154 338.258C203.514 338.258 203.958 338.966 204.486 340.382C205.038 341.798 205.482 342.506 205.818 342.506C206.058 342.506 206.286 342.41 206.502 342.218C206.718 342.026 206.826 341.762 206.826 341.426V336.926C206.826 335.846 206.526 335.306 205.926 335.306C205.734 335.306 204.978 335.594 203.658 336.17C202.338 336.746 201.594 337.034 201.426 337.034ZM223.18 324.398C223.3 324.398 223.6 324.59 224.08 324.974C224.56 325.334 225.04 325.85 225.52 326.522C226 327.17 226.24 327.806 226.24 328.43V334.478C226.24 334.91 225.604 335.438 224.332 336.062C223.06 336.686 221.824 337.202 220.624 337.61C219.448 337.994 218.812 338.186 218.716 338.186C218.716 340.034 219.52 341.174 221.128 341.606C221.92 341.798 222.868 341.894 223.972 341.894V342.938C220.036 344.258 217.936 344.918 217.672 344.918C216.952 344.918 216.22 344.414 215.476 343.406C214.732 342.374 214.36 341.174 214.36 339.806V327.71C214.36 327.542 215.728 326.954 218.464 325.946C221.2 324.914 222.772 324.398 223.18 324.398ZM221.92 330.122C221.92 329.45 221.764 328.886 221.452 328.43C221.14 327.95 220.744 327.71 220.264 327.71C219.784 327.71 219.256 327.89 218.68 328.25V336.566C220.84 335.966 221.92 334.67 221.92 332.678V330.122ZM233.973 339.302C233.973 339.926 234.153 340.442 234.513 340.85C234.897 341.234 235.317 341.426 235.773 341.426C236.229 341.426 236.709 341.246 237.213 340.886V329.69C237.213 328.226 236.721 327.398 235.737 327.206V326.414L239.373 324.362C239.901 324.578 240.393 324.938 240.849 325.442C241.305 325.922 241.533 326.378 241.533 326.81V339.014C241.533 339.806 241.701 340.49 242.037 341.066C242.373 341.642 242.793 341.93 243.297 341.93V342.722C243.129 342.746 241.821 343.478 239.373 344.918C238.821 344.678 238.317 344.33 237.861 343.874C237.429 343.394 237.213 342.938 237.213 342.506L232.713 344.918C232.641 344.87 232.533 344.81 232.389 344.738C232.245 344.642 231.993 344.462 231.633 344.198C231.297 343.91 230.997 343.61 230.733 343.298C230.013 342.506 229.653 341.606 229.653 340.598V329.69C229.653 328.37 229.065 327.59 227.889 327.35V326.558L231.813 324.362C232.341 324.578 232.833 324.938 233.289 325.442C233.745 325.922 233.973 326.378 233.973 326.81V339.302ZM245.122 342.47V330.266C245.122 329.474 244.954 328.79 244.618 328.214C244.282 327.638 243.862 327.35 243.358 327.35V326.558C243.526 326.534 244.834 325.802 247.282 324.362C247.45 324.41 247.654 324.482 247.894 324.578C248.134 324.65 248.446 324.878 248.83 325.262C249.238 325.646 249.442 326.09 249.442 326.594C249.586 326.522 249.994 326.294 250.666 325.91C252.442 324.902 253.534 324.398 253.942 324.398C254.374 324.398 254.842 324.614 255.346 325.046C255.874 325.478 256.27 325.994 256.534 326.594C256.582 326.57 257.074 326.318 258.01 325.838C259.882 324.878 261.01 324.398 261.394 324.398C262.162 324.398 262.882 324.902 263.554 325.91C264.226 326.918 264.562 327.842 264.562 328.682V339.59C264.562 340.91 265.15 341.69 266.326 341.93V342.722L262.402 344.918C261.874 344.702 261.382 344.354 260.926 343.874C260.47 343.37 260.242 342.902 260.242 342.47V331.85C260.242 330.29 260.038 329.258 259.63 328.754C259.222 328.226 258.694 327.962 258.046 327.962L257.002 328.178V339.59C257.002 340.91 257.59 341.69 258.766 341.93V342.722L254.842 344.918C254.314 344.702 253.822 344.354 253.366 343.874C252.91 343.37 252.682 342.902 252.682 342.47V332.03C252.682 329.27 252.022 327.89 250.702 327.89L249.442 328.106V339.59C249.442 341.054 249.934 341.882 250.918 342.074V342.866L247.282 344.918C246.754 344.702 246.262 344.354 245.806 343.874C245.35 343.37 245.122 342.902 245.122 342.47Z" stroke="black" stroke-width="2" mask="url(#path-5-outside-1_1405_8388)"/>
<path d="M120.19 289.095C120.19 289.695 120.358 290.199 120.694 290.607C121.03 291.015 121.39 291.219 121.774 291.219C122.158 291.219 122.71 291.039 123.43 290.679V272.859C123.43 271.971 123.334 271.335 123.142 270.951C122.974 270.567 122.59 270.375 121.99 270.375V269.259L129.37 266.163L129.946 267.315C129.418 267.315 128.926 267.627 128.47 268.251C128.014 268.851 127.786 269.763 127.786 270.987V290.571C127.786 290.787 126.502 291.399 123.934 292.407C121.366 293.415 119.71 293.919 118.966 293.919C118.222 293.919 117.514 293.355 116.842 292.227C116.194 291.099 115.87 290.103 115.87 289.239V271.491C115.87 270.171 115.282 269.391 114.106 269.151V268.359L118.03 266.163C118.558 266.379 119.05 266.739 119.506 267.243C119.962 267.723 120.19 268.179 120.19 268.611V289.095ZM135.694 275.847V288.591C135.694 290.055 136.186 290.883 137.17 291.075V291.867L133.534 293.919C133.006 293.703 132.514 293.355 132.058 292.875C131.602 292.371 131.374 291.903 131.374 291.471V278.727C131.374 277.263 130.882 276.435 129.898 276.243V275.451L133.534 273.399C134.062 273.615 134.554 273.975 135.01 274.479C135.466 274.959 135.694 275.415 135.694 275.847ZM130.834 268.899V266.703C130.834 266.631 131.326 266.415 132.31 266.055C133.318 265.671 133.894 265.479 134.038 265.479C134.206 265.479 134.434 265.683 134.722 266.091C135.034 266.499 135.19 266.919 135.19 267.351V269.979C135.19 270.051 134.71 270.279 133.75 270.663C132.79 271.023 132.202 271.203 131.986 271.203C131.77 271.203 131.518 270.999 131.23 270.591C130.966 270.159 130.834 269.595 130.834 268.899ZM140.94 286.035C140.34 286.035 139.824 285.579 139.392 284.667C138.96 283.755 138.744 282.639 138.744 281.319V277.431C138.744 276.975 140.004 276.195 142.524 275.091C145.044 273.963 146.496 273.399 146.88 273.399C147.096 273.399 147.288 273.531 147.456 273.795C147.624 274.035 147.756 274.239 147.852 274.407C147.948 274.551 148.092 274.815 148.284 275.199C148.5 275.559 148.68 275.859 148.824 276.099C149.136 276.675 149.532 276.963 150.012 276.963V277.683C149.628 277.851 149.124 278.103 148.5 278.439C146.964 279.279 146.136 279.699 146.016 279.699C145.656 279.699 145.26 279.111 144.828 277.935C144.42 276.759 144.048 276.171 143.712 276.171C143.28 276.171 143.064 276.531 143.064 277.251V281.679C143.064 282.639 143.28 283.119 143.712 283.119C143.808 283.119 144.552 282.807 145.944 282.183C147.336 281.559 148.176 281.247 148.464 281.247C149.04 281.247 149.544 281.715 149.976 282.651C150.432 283.563 150.66 284.739 150.66 286.179V290.247C150.66 290.703 149.28 291.495 146.52 292.623C143.784 293.727 142.212 294.279 141.804 294.279C141.636 294.279 141.468 294.135 141.3 293.847C141.156 293.535 140.94 293.067 140.652 292.443C140.388 291.819 140.124 291.291 139.86 290.859C139.548 290.283 139.152 289.995 138.672 289.995V289.275C139.056 289.107 139.572 288.855 140.22 288.519C141.732 287.679 142.548 287.259 142.668 287.259C143.028 287.259 143.472 287.967 144 289.383C144.552 290.799 144.996 291.507 145.332 291.507C145.572 291.507 145.8 291.411 146.016 291.219C146.232 291.027 146.34 290.763 146.34 290.427V285.927C146.34 284.847 146.04 284.307 145.44 284.307C145.248 284.307 144.492 284.595 143.172 285.171C141.852 285.747 141.108 286.035 140.94 286.035ZM158.194 288.303C158.194 288.927 158.374 289.443 158.734 289.851C159.118 290.235 159.538 290.427 159.994 290.427C160.45 290.427 160.93 290.247 161.434 289.887V278.691C161.434 277.227 160.942 276.399 159.958 276.207V275.415L163.594 273.363C164.122 273.579 164.614 273.939 165.07 274.443C165.526 274.923 165.754 275.379 165.754 275.811V288.015C165.754 288.807 165.922 289.491 166.258 290.067C166.594 290.643 167.014 290.931 167.518 290.931V291.723C167.35 291.747 166.042 292.479 163.594 293.919C163.042 293.679 162.538 293.331 162.082 292.875C161.65 292.395 161.434 291.939 161.434 291.507L156.934 293.919C156.862 293.871 156.754 293.811 156.61 293.739C156.466 293.643 156.214 293.463 155.854 293.199C155.518 292.911 155.218 292.611 154.954 292.299C154.234 291.507 153.874 290.607 153.874 289.599V278.691C153.874 277.371 153.286 276.591 152.11 276.351V275.559L156.034 273.363C156.562 273.579 157.054 273.939 157.51 274.443C157.966 274.923 158.194 275.379 158.194 275.811V288.303ZM180.503 278.151V288.339C180.503 289.227 180.647 289.851 180.935 290.211C181.223 290.547 181.667 290.787 182.267 290.931V291.723L178.343 293.919C177.815 293.703 177.323 293.355 176.867 292.875C176.411 292.371 176.183 291.915 176.183 291.507L171.683 293.919C171.611 293.871 171.503 293.811 171.359 293.739C171.215 293.643 170.963 293.463 170.603 293.199C170.267 292.911 169.967 292.611 169.703 292.299C168.983 291.507 168.623 290.607 168.623 289.599V283.695C168.623 283.311 169.247 282.819 170.495 282.219C171.743 281.619 172.991 281.127 174.239 280.743L176.147 280.131C176.147 278.763 175.787 277.815 175.067 277.287C174.347 276.735 172.955 276.459 170.891 276.459V275.379C174.611 274.059 176.699 273.399 177.155 273.399C177.947 273.399 178.703 273.915 179.423 274.947C180.143 275.979 180.503 277.047 180.503 278.151ZM172.943 288.303C172.943 288.927 173.123 289.443 173.483 289.851C173.867 290.235 174.287 290.427 174.743 290.427C175.199 290.427 175.679 290.247 176.183 289.887V281.751C175.583 281.967 175.127 282.147 174.815 282.291C174.527 282.435 174.215 282.663 173.879 282.975C173.255 283.551 172.943 284.547 172.943 285.963V288.303ZM188.428 268.683V288.591C188.428 290.055 188.92 290.883 189.904 291.075V291.867L186.268 293.919C185.74 293.703 185.248 293.355 184.792 292.875C184.336 292.371 184.108 291.903 184.108 291.471V271.563C184.108 270.099 183.616 269.271 182.632 269.079V268.287L186.268 266.235C186.796 266.451 187.288 266.811 187.744 267.315C188.2 267.795 188.428 268.251 188.428 268.683ZM196.338 275.847V288.591C196.338 290.055 196.83 290.883 197.814 291.075V291.867L194.178 293.919C193.65 293.703 193.158 293.355 192.702 292.875C192.246 292.371 192.018 291.903 192.018 291.471V278.727C192.018 277.263 191.526 276.435 190.542 276.243V275.451L194.178 273.399C194.706 273.615 195.198 273.975 195.654 274.479C196.11 274.959 196.338 275.415 196.338 275.847ZM191.478 268.899V266.703C191.478 266.631 191.97 266.415 192.954 266.055C193.962 265.671 194.538 265.479 194.682 265.479C194.85 265.479 195.078 265.683 195.366 266.091C195.678 266.499 195.834 266.919 195.834 267.351V269.979C195.834 270.051 195.354 270.279 194.394 270.663C193.434 271.023 192.846 271.203 192.63 271.203C192.414 271.203 192.162 270.999 191.874 270.591C191.61 270.159 191.478 269.595 191.478 268.899ZM205.761 290.391C207.225 290.391 208.053 289.995 208.245 289.203H209.037L211.089 292.155C210.801 292.611 210.429 293.019 209.973 293.379C209.517 293.739 209.073 293.919 208.641 293.919H199.209C198.729 292.455 198.489 291.315 198.489 290.499L206.949 277.251H203.817C202.353 277.251 201.525 277.647 201.333 278.439H200.541L198.489 275.487C198.777 275.031 199.149 274.623 199.605 274.263C200.061 273.903 200.505 273.723 200.937 273.723H205.761C207.225 273.723 208.053 273.327 208.245 272.535H209.037C209.373 272.991 209.793 273.831 210.297 275.055C210.825 276.255 211.089 276.975 211.089 277.215L202.917 290.391H205.761ZM217.573 275.847V288.591C217.573 290.055 218.065 290.883 219.049 291.075V291.867L215.413 293.919C214.885 293.703 214.393 293.355 213.937 292.875C213.481 292.371 213.253 291.903 213.253 291.471V278.727C213.253 277.263 212.761 276.435 211.777 276.243V275.451L215.413 273.399C215.941 273.615 216.433 273.975 216.889 274.479C217.345 274.959 217.573 275.415 217.573 275.847ZM212.713 268.899V266.703C212.713 266.631 213.205 266.415 214.189 266.055C215.197 265.671 215.773 265.479 215.917 265.479C216.085 265.479 216.313 265.683 216.601 266.091C216.913 266.499 217.069 266.919 217.069 267.351V269.979C217.069 270.051 216.589 270.279 215.629 270.663C214.669 271.023 214.081 271.203 213.865 271.203C213.649 271.203 213.397 270.999 213.109 270.591C212.845 270.159 212.713 269.595 212.713 268.899ZM221.163 291.471V279.267C221.163 278.475 220.995 277.791 220.659 277.215C220.323 276.639 219.903 276.351 219.399 276.351V275.559C219.567 275.535 220.875 274.803 223.323 273.363C223.491 273.411 223.695 273.483 223.935 273.579C224.175 273.651 224.487 273.879 224.871 274.263C225.279 274.647 225.483 275.091 225.483 275.595C225.627 275.523 226.035 275.295 226.707 274.911C228.483 273.903 229.539 273.399 229.875 273.399C230.643 273.399 231.363 273.903 232.035 274.911C232.707 275.919 233.043 276.843 233.043 277.683V288.591C233.043 289.911 233.631 290.691 234.807 290.931V291.723L230.883 293.919C230.355 293.703 229.863 293.355 229.407 292.875C228.951 292.371 228.723 291.903 228.723 291.471V281.031C228.723 279.687 228.567 278.667 228.255 277.971C227.967 277.251 227.439 276.891 226.671 276.891L225.483 277.107V288.591C225.483 290.055 225.975 290.883 226.959 291.075V291.867L223.323 293.919C222.795 293.703 222.303 293.355 221.847 292.875C221.391 292.371 221.163 291.903 221.163 291.471ZM236.632 276.747C236.632 276.507 237.952 275.895 240.592 274.911C243.256 273.903 244.888 273.399 245.488 273.399C246.088 273.399 246.748 273.951 247.468 275.055C248.188 276.135 248.548 277.335 248.548 278.655V290.103C248.548 291.015 248.14 292.311 247.324 293.991C246.508 295.695 245.644 297.183 244.732 298.455C243.82 299.751 243.196 300.399 242.86 300.399C242.26 300.399 241.456 300.219 240.448 299.859C239.44 299.499 238.576 299.139 237.856 298.779L236.812 298.239V297.159H238.036C238.972 297.159 240.04 296.619 241.24 295.539C242.44 294.483 243.436 293.067 244.228 291.291C241.516 292.563 239.956 293.199 239.548 293.199C238.804 293.199 238.132 292.731 237.532 291.795C236.932 290.835 236.632 289.767 236.632 288.591V276.747ZM244.228 279.879C244.228 277.767 243.676 276.711 242.572 276.711C241.996 276.711 241.468 276.903 240.988 277.287V285.567C240.988 287.247 241.252 288.375 241.78 288.951C242.308 289.503 243.124 289.779 244.228 289.779V279.879Z" stroke="black" stroke-width="2" mask="url(#path-5-outside-1_1405_8388)"/>
</svg>
