<svg width="630" height="504" viewBox="0 0 630 504" fill="none" xmlns="http://www.w3.org/2000/svg">
<path d="M306.842 333.742L306.444 333.698L306.302 334.687L566.761 380.613L567.253 380.7L567.34 380.207L590.435 249.228L590.522 248.735L590.03 248.649L323.943 201.73L323.733 202.707L324.327 202.858C334.047 218.775 339.647 237.483 339.647 257.499C339.647 287.524 327.046 314.604 306.842 333.742Z" fill="black" stroke="black"/>
<path d="M339.146 257.5C339.146 315.766 291.913 363 233.646 363C175.38 363 129.146 315.766 129.146 257.5C129.146 199.234 175.38 153 233.646 153C291.913 153 339.146 199.234 339.146 257.5Z" fill="black" stroke="black"/>
</svg>
