<svg width="432" height="321" viewBox="0 0 432 321" fill="none" xmlns="http://www.w3.org/2000/svg">
<rect x="10.9375" y="160.601" width="349" height="149" stroke="black"/>
<path d="M287.501 52.4774C301.441 34.5043 339.466 7.36336 380.05 42.5851C366.998 58.842 330.214 83.5802 287.501 52.4774Z" fill="black" stroke="black" stroke-width="2"/>
<path d="M208.096 101.448C230.105 106.948 276.697 104.728 286.995 51.8505C266.739 47.1513 222.6 50.492 208.096 101.448Z" fill="black" stroke="black" stroke-width="2"/>
<path d="M324.041 144.937C329.845 160.975 321.899 178.56 306.366 184.247C290.834 189.934 273.51 181.601 267.706 165.563C261.902 149.525 269.847 131.94 285.38 126.253C300.913 120.566 318.237 128.899 324.041 144.937Z" fill="black" stroke="black" stroke-width="2"/>
<path d="M395.27 149.39C401.074 165.428 393.129 183.013 377.596 188.7C362.063 194.387 344.739 186.054 338.935 170.016C333.132 153.978 341.077 136.393 356.61 130.706C372.143 125.019 389.467 133.352 395.27 149.39Z" fill="black" stroke="black" stroke-width="2"/>
<path d="M355.454 132.082C353.749 102.647 315.052 82.4588 287.936 53.8691C290.603 81.5742 279.581 115.215 288.679 124.973" stroke="black" stroke-width="2"/>
<path d="M97.645 216.013C96.9712 217.185 96.1948 218.357 95.3159 219.529C94.4517 220.701 93.4775 221.763 92.3936 222.715C91.3242 223.652 90.1377 224.421 88.834 225.022C87.5303 225.608 86.1094 225.901 84.5713 225.901C83.3115 225.901 82.1323 225.71 81.0337 225.33C79.9351 224.934 78.9756 224.355 78.1553 223.594C77.3496 222.832 76.7124 221.902 76.2437 220.803C75.7896 219.69 75.5625 218.408 75.5625 216.958C75.5625 215.186 75.8335 213.56 76.3755 212.08C76.9321 210.586 77.6792 209.246 78.6167 208.059C79.5542 206.858 80.6455 205.811 81.8906 204.917C83.1357 204.009 84.4614 203.254 85.8677 202.654C87.2739 202.039 88.7168 201.584 90.1963 201.292C91.6904 200.984 93.1406 200.837 94.5469 200.852C96.0703 200.867 97.5571 201.086 99.0073 201.511C100.472 201.936 101.769 202.588 102.896 203.467C104.039 204.331 104.955 205.43 105.643 206.763C106.332 208.096 106.676 209.67 106.676 211.487C106.676 212.747 106.456 214.16 106.017 215.728C105.577 217.28 104.815 219.001 103.731 220.891C102.472 223.088 101.38 224.963 100.458 226.516C99.5347 228.054 98.7656 229.351 98.1504 230.405C97.5498 231.445 97.103 232.28 96.8101 232.91C96.5171 233.525 96.3706 234.016 96.3706 234.382C96.3706 234.734 96.5244 235.012 96.832 235.217C97.1543 235.422 97.6011 235.525 98.1724 235.525C98.9487 235.525 99.8643 235.32 100.919 234.91C101.974 234.5 103.138 233.884 104.413 233.064C105.57 232.332 106.712 231.489 107.84 230.537C108.968 229.585 110.067 228.574 111.136 227.505C112.22 226.421 113.26 225.3 114.256 224.143C115.267 222.986 116.219 221.836 117.113 220.693C118.006 219.536 118.834 218.408 119.596 217.31C120.357 216.211 121.039 215.178 121.639 214.211C121.346 213.303 121.134 212.439 121.002 211.619C120.87 210.784 120.804 210 120.804 209.268C120.804 208.374 120.885 207.583 121.046 206.895C121.207 206.191 121.419 205.605 121.683 205.137C121.961 204.653 122.284 204.287 122.65 204.038C123.031 203.789 123.434 203.665 123.858 203.665C124.225 203.665 124.54 203.752 124.803 203.928C125.082 204.089 125.309 204.302 125.484 204.565C125.66 204.829 125.792 205.129 125.88 205.466C125.968 205.803 126.012 206.14 126.012 206.477C126.012 206.99 125.924 207.612 125.748 208.345C125.572 209.077 125.25 209.941 124.781 210.938C124.386 211.787 123.829 212.812 123.111 214.014C122.394 215.215 121.544 216.519 120.562 217.925C119.596 219.316 118.519 220.759 117.333 222.253C116.161 223.748 114.908 225.212 113.575 226.648C112.242 228.069 110.851 229.417 109.4 230.691C107.965 231.965 106.507 233.079 105.028 234.031C103.46 235.042 102.12 235.737 101.007 236.118C99.8936 236.499 98.9561 236.689 98.1943 236.689C97.5059 236.689 96.9272 236.587 96.4585 236.382C96.0044 236.177 95.6382 235.898 95.3599 235.547C95.0815 235.21 94.8838 234.829 94.7666 234.404C94.6494 233.979 94.5908 233.547 94.5908 233.108C94.5908 232.581 94.6714 232.024 94.8325 231.438C94.9937 230.852 95.2427 230.281 95.5796 229.724C95.9751 229.065 96.4731 228.259 97.0737 227.307C97.6743 226.355 98.3115 225.315 98.9854 224.187C99.6738 223.059 100.362 221.873 101.051 220.627C101.739 219.368 102.354 218.115 102.896 216.87C103.453 215.61 103.9 214.38 104.237 213.179C104.588 211.978 104.764 210.864 104.764 209.839C104.764 208.843 104.537 207.876 104.083 206.938C103.644 206.001 102.984 205.166 102.105 204.434C101.241 203.701 100.172 203.115 98.8975 202.676C97.623 202.222 96.1509 201.995 94.481 201.995C92.9868 201.995 91.5439 202.178 90.1523 202.544C88.7754 202.896 87.479 203.394 86.2632 204.038C85.0474 204.683 83.9341 205.459 82.9233 206.367C81.9272 207.261 81.0703 208.25 80.3525 209.333C79.6348 210.403 79.0781 211.553 78.6826 212.783C78.2871 213.999 78.0894 215.251 78.0894 216.541C78.0894 217.771 78.2798 218.862 78.6606 219.814C79.0562 220.752 79.5835 221.536 80.2427 222.166C80.9019 222.795 81.6636 223.271 82.5278 223.594C83.3921 223.916 84.3003 224.077 85.2524 224.077C86.2778 224.077 87.3105 223.879 88.3506 223.484C89.3906 223.088 90.4014 222.517 91.3828 221.77C92.3789 221.023 93.3311 220.122 94.2393 219.067C95.1475 217.998 95.9897 216.804 96.7661 215.486L97.645 216.013ZM122.43 212.871C122.928 212.036 123.331 211.289 123.639 210.63C123.961 209.971 124.21 209.385 124.386 208.872C124.562 208.359 124.679 207.913 124.737 207.532C124.811 207.136 124.847 206.792 124.847 206.499C124.847 206.323 124.833 206.14 124.803 205.95C124.774 205.745 124.715 205.562 124.627 205.4C124.554 205.225 124.444 205.085 124.298 204.983C124.166 204.88 123.983 204.829 123.749 204.829C123.485 204.829 123.243 204.954 123.023 205.203C122.804 205.437 122.613 205.759 122.452 206.169C122.291 206.565 122.167 207.034 122.079 207.576C121.991 208.103 121.947 208.674 121.947 209.29C121.947 209.817 121.983 210.381 122.057 210.981C122.13 211.582 122.254 212.212 122.43 212.871ZM132.142 213.486C132.142 213.779 132.069 214.087 131.922 214.409C131.776 214.717 131.585 214.995 131.351 215.244C131.131 215.493 130.882 215.698 130.604 215.859C130.326 216.021 130.047 216.101 129.769 216.101C129.52 216.101 129.33 216.013 129.198 215.837C129.066 215.647 129 215.42 129 215.156C129 214.922 129.044 214.644 129.132 214.321C129.22 213.999 129.352 213.699 129.527 213.42C129.703 213.127 129.916 212.878 130.165 212.673C130.414 212.468 130.699 212.366 131.021 212.366C131.329 212.366 131.593 212.483 131.812 212.717C132.032 212.952 132.142 213.208 132.142 213.486ZM128.033 218.364C127.843 218.745 127.572 219.25 127.22 219.88C126.883 220.496 126.517 221.177 126.122 221.924C125.726 222.656 125.323 223.433 124.913 224.253C124.503 225.059 124.129 225.85 123.792 226.626C123.47 227.388 123.207 228.105 123.001 228.779C122.796 229.453 122.694 230.024 122.694 230.493C122.694 230.918 122.782 231.211 122.958 231.372C123.133 231.519 123.382 231.592 123.705 231.592C124.305 231.592 124.891 231.394 125.462 230.999C126.034 230.603 126.598 230.09 127.154 229.46C127.726 228.816 128.282 228.083 128.824 227.263C129.366 226.443 129.908 225.615 130.45 224.78L131.241 225.396C130.816 226.157 130.333 226.97 129.791 227.834C129.264 228.699 128.67 229.504 128.011 230.251C127.352 230.984 126.627 231.592 125.836 232.075C125.045 232.559 124.181 232.8 123.243 232.8C122.364 232.8 121.69 232.537 121.222 232.009C120.753 231.482 120.519 230.801 120.519 229.966C120.519 228.984 120.746 227.959 121.2 226.89C121.654 225.82 122.218 224.766 122.892 223.726C123.58 222.671 124.32 221.66 125.111 220.693C125.917 219.727 126.656 218.848 127.33 218.057L128.033 218.364ZM137.503 215.728C137.43 215.859 137.335 216.006 137.218 216.167C137.101 216.313 136.983 216.489 136.866 216.694C136.764 216.885 136.668 217.112 136.581 217.375C136.507 217.639 136.471 217.954 136.471 218.32C136.471 218.628 136.544 219.045 136.69 219.573C136.852 220.1 137.02 220.708 137.196 221.396C137.372 222.07 137.533 222.81 137.679 223.616C137.84 224.407 137.921 225.227 137.921 226.077C137.921 227.322 137.752 228.42 137.416 229.373C137.079 230.325 136.632 231.138 136.075 231.812C137.218 231.196 138.338 230.317 139.437 229.175C140.536 228.018 141.642 226.553 142.755 224.78L143.502 225.439C142.872 226.479 142.154 227.512 141.349 228.538C140.558 229.548 139.686 230.464 138.734 231.284C137.782 232.09 136.756 232.742 135.658 233.24C134.559 233.752 133.395 234.009 132.164 234.009C131.065 234.009 130.143 233.745 129.396 233.218C128.634 232.705 128.165 231.929 127.989 230.889L128.78 230.735C128.78 230.823 128.824 230.969 128.912 231.174C128.985 231.365 129.11 231.555 129.286 231.746C129.461 231.936 129.703 232.104 130.011 232.251C130.304 232.397 130.67 232.471 131.109 232.471C131.695 232.471 132.215 232.339 132.669 232.075C133.124 231.797 133.519 231.438 133.856 230.999C134.193 230.559 134.479 230.061 134.713 229.504C134.947 228.933 135.13 228.347 135.262 227.747C135.409 227.146 135.511 226.56 135.57 225.989C135.628 225.417 135.658 224.897 135.658 224.429C135.658 223.96 135.636 223.44 135.592 222.869C135.562 222.297 135.526 221.755 135.482 221.243C135.438 220.715 135.394 220.261 135.35 219.88C135.321 219.485 135.306 219.229 135.306 219.111V219.067C135.116 219.272 134.889 219.573 134.625 219.968C134.361 220.364 134.076 220.796 133.768 221.265C133.475 221.733 133.175 222.209 132.867 222.693C132.574 223.176 132.303 223.616 132.054 224.011C131.82 224.407 131.622 224.736 131.461 225C131.314 225.249 131.241 225.381 131.241 225.396L130.45 224.78C130.465 224.766 130.648 224.451 131 223.835C131.351 223.22 131.812 222.444 132.384 221.506C132.97 220.554 133.629 219.507 134.361 218.364C135.094 217.207 135.848 216.086 136.625 215.002L137.503 215.728ZM152.994 228.186C152.32 228.977 151.654 229.709 150.995 230.383C150.335 231.042 149.676 231.614 149.017 232.097C148.373 232.566 147.728 232.932 147.083 233.196C146.439 233.474 145.787 233.613 145.128 233.613C144.571 233.613 144.066 233.511 143.612 233.306C143.172 233.115 142.792 232.844 142.469 232.493C142.132 232.126 141.876 231.687 141.7 231.174C141.524 230.647 141.437 230.061 141.437 229.417C141.437 228.406 141.664 227.366 142.118 226.296C142.557 225.227 143.114 224.187 143.788 223.176C144.476 222.166 145.23 221.206 146.051 220.298C146.886 219.39 147.677 218.584 148.424 217.881L149.369 218.54C148.841 219.316 148.248 220.195 147.589 221.177C146.944 222.158 146.329 223.176 145.743 224.231C145.172 225.271 144.688 226.318 144.293 227.373C143.897 228.413 143.7 229.38 143.7 230.273C143.7 230.874 143.81 231.387 144.029 231.812C144.264 232.236 144.703 232.449 145.348 232.449C146.051 232.449 146.82 232.17 147.655 231.614C148.504 231.057 149.369 230.332 150.248 229.438C151.141 228.545 152.027 227.542 152.906 226.428C153.8 225.3 154.642 224.165 155.433 223.022C156.224 221.88 156.942 220.789 157.586 219.749C158.246 218.708 158.78 217.822 159.19 217.09L160.794 217.881C159.945 219.551 159.125 221.111 158.333 222.561C157.557 223.997 156.861 225.293 156.246 226.45C155.646 227.593 155.162 228.589 154.796 229.438C154.444 230.288 154.269 230.962 154.269 231.46C154.269 231.665 154.312 231.833 154.4 231.965C154.488 232.097 154.627 232.163 154.818 232.163C155.36 232.178 155.953 231.943 156.598 231.46C157.257 230.977 157.916 230.369 158.575 229.636C159.249 228.904 159.901 228.105 160.531 227.241C161.175 226.362 161.754 225.542 162.267 224.78L163.058 225.396C162.97 225.542 162.787 225.842 162.508 226.296C162.23 226.75 161.886 227.271 161.476 227.856C161.065 228.442 160.597 229.058 160.069 229.702C159.542 230.347 158.985 230.94 158.399 231.482C157.813 232.009 157.206 232.449 156.576 232.8C155.946 233.137 155.323 233.306 154.708 233.306C154.327 233.306 153.983 233.24 153.675 233.108C153.382 232.976 153.133 232.8 152.928 232.581C152.723 232.361 152.562 232.104 152.445 231.812C152.328 231.519 152.269 231.211 152.269 230.889C152.269 230.508 152.328 230.09 152.445 229.636C152.577 229.182 152.76 228.699 152.994 228.186ZM179.735 218.364C179.544 218.745 179.273 219.243 178.922 219.858C178.585 220.474 178.219 221.155 177.823 221.902C177.428 222.634 177.025 223.403 176.615 224.209C176.219 225.015 175.853 225.806 175.516 226.582C175.194 227.344 174.923 228.069 174.703 228.757C174.498 229.431 174.396 230.002 174.396 230.471C174.396 230.94 174.483 231.248 174.659 231.394C174.85 231.526 175.091 231.592 175.384 231.592C175.809 231.592 176.241 231.467 176.681 231.218C177.135 230.969 177.574 230.647 177.999 230.251C178.438 229.856 178.863 229.409 179.273 228.911C179.684 228.413 180.064 227.915 180.416 227.417C180.782 226.904 181.112 226.421 181.405 225.967C181.698 225.498 181.947 225.103 182.152 224.78L182.943 225.396C182.694 225.864 182.401 226.37 182.064 226.912C181.727 227.454 181.354 228.003 180.943 228.56C180.548 229.102 180.116 229.629 179.647 230.142C179.178 230.654 178.68 231.108 178.153 231.504C177.64 231.899 177.098 232.214 176.527 232.449C175.956 232.683 175.37 232.8 174.769 232.8C173.89 232.8 173.246 232.537 172.835 232.009C172.425 231.482 172.22 230.801 172.22 229.966C172.22 229.907 172.22 229.783 172.22 229.592C172.235 229.387 172.257 229.226 172.286 229.109C171.554 230.032 170.851 230.793 170.177 231.394C169.518 231.995 168.873 232.471 168.243 232.822C167.628 233.174 167.027 233.416 166.441 233.547C165.87 233.694 165.321 233.767 164.793 233.767C164.237 233.767 163.709 233.672 163.211 233.481C162.728 233.306 162.303 233.042 161.937 232.69C161.556 232.339 161.263 231.907 161.058 231.394C160.838 230.881 160.729 230.288 160.729 229.614C160.729 228.779 160.919 227.827 161.3 226.758C161.666 225.674 162.325 224.509 163.277 223.264C164.083 222.195 164.918 221.294 165.782 220.562C166.661 219.829 167.518 219.243 168.353 218.804C169.203 218.35 170.008 218.027 170.77 217.837C171.532 217.646 172.213 217.551 172.813 217.551C174.161 217.551 175.179 217.778 175.868 218.232C176.556 218.672 176.974 219.353 177.12 220.276C177.413 219.91 177.721 219.543 178.043 219.177C178.365 218.811 178.695 218.438 179.032 218.057L179.735 218.364ZM172.989 226.714C173.18 226.406 173.414 226.018 173.692 225.549C173.971 225.066 174.264 224.575 174.571 224.077C174.879 223.564 175.179 223.074 175.472 222.605C175.765 222.136 176.021 221.741 176.241 221.418C176.241 221.287 176.219 221.074 176.175 220.781C176.146 220.488 176.051 220.195 175.89 219.902C175.729 219.595 175.472 219.331 175.121 219.111C174.769 218.892 174.278 218.782 173.648 218.782C173.194 218.782 172.682 218.855 172.11 219.001C171.554 219.133 170.953 219.368 170.309 219.705C169.679 220.027 169.027 220.459 168.353 221.001C167.679 221.543 167.005 222.217 166.332 223.022C165.321 224.238 164.537 225.461 163.98 226.692C163.438 227.908 163.167 229.006 163.167 229.988C163.167 230.823 163.358 231.467 163.739 231.921C164.12 232.375 164.662 232.603 165.365 232.603C166.17 232.603 166.925 232.427 167.628 232.075C168.331 231.709 168.99 231.24 169.605 230.669C170.221 230.098 170.807 229.468 171.363 228.779C171.92 228.076 172.462 227.388 172.989 226.714ZM198.082 201.006C198.595 201.006 199.02 201.13 199.356 201.379C199.708 201.628 199.884 202.083 199.884 202.742C199.884 203.196 199.789 203.738 199.598 204.368C199.422 204.998 199.173 205.686 198.851 206.433C198.543 207.166 198.177 207.942 197.752 208.762C197.328 209.568 196.866 210.374 196.368 211.179C195.885 211.985 195.372 212.769 194.83 213.53C194.303 214.292 193.775 214.995 193.248 215.64C192.193 216.943 191.278 218.042 190.501 218.936C189.74 219.829 189.081 220.591 188.524 221.221C187.967 221.836 187.499 222.341 187.118 222.737C186.737 223.118 186.4 223.447 186.107 223.726C185.814 224.004 185.543 224.26 185.294 224.495C185.045 224.714 184.789 224.963 184.525 225.242C184.408 225.798 184.349 226.333 184.349 226.846C184.364 227.344 184.371 227.805 184.371 228.23C184.371 229.504 184.576 230.449 184.986 231.064C185.396 231.68 185.975 231.987 186.722 231.987C187.22 231.987 187.718 231.863 188.216 231.614C188.729 231.35 189.234 231.013 189.732 230.603C190.23 230.193 190.714 229.731 191.183 229.219C191.651 228.691 192.091 228.164 192.501 227.637C192.926 227.095 193.307 226.575 193.644 226.077C193.98 225.579 194.273 225.146 194.522 224.78L195.335 225.396C195.292 225.454 195.145 225.688 194.896 226.099C194.662 226.494 194.347 226.978 193.951 227.549C193.556 228.12 193.087 228.735 192.545 229.395C192.003 230.039 191.417 230.64 190.787 231.196C190.157 231.753 189.491 232.214 188.788 232.581C188.099 232.947 187.396 233.13 186.678 233.13C186.078 233.13 185.499 233.02 184.942 232.8C184.4 232.566 183.917 232.207 183.492 231.724C183.082 231.226 182.745 230.596 182.481 229.834C182.232 229.072 182.108 228.157 182.108 227.087C182.108 225.754 182.262 224.363 182.569 222.913C182.892 221.448 183.324 219.983 183.866 218.518C184.408 217.039 185.045 215.581 185.777 214.146C186.51 212.71 187.286 211.348 188.106 210.059C188.941 208.755 189.806 207.554 190.699 206.455C191.607 205.342 192.494 204.382 193.358 203.577C194.237 202.771 195.079 202.141 195.885 201.687C196.69 201.233 197.423 201.006 198.082 201.006ZM184.92 223.286C186.166 221.997 187.367 220.693 188.524 219.375C189.696 218.042 190.787 216.731 191.798 215.442C192.823 214.138 193.761 212.878 194.61 211.663C195.46 210.432 196.185 209.275 196.786 208.191C197.386 207.107 197.855 206.118 198.192 205.225C198.529 204.331 198.697 203.562 198.697 202.917C198.697 202.8 198.639 202.646 198.521 202.456C198.404 202.251 198.265 202.148 198.104 202.148C197.65 202.148 197.049 202.449 196.302 203.049C195.555 203.65 194.742 204.47 193.863 205.51C192.999 206.536 192.098 207.737 191.161 209.114C190.238 210.491 189.366 211.963 188.546 213.53C187.726 215.098 186.993 216.716 186.349 218.386C185.704 220.056 185.228 221.689 184.92 223.286ZM254.112 205.554C254.112 206.492 253.929 207.466 253.563 208.477C253.197 209.487 252.662 210.483 251.959 211.465C251.256 212.446 250.384 213.391 249.344 214.299C248.319 215.208 247.132 216.035 245.785 216.782C244.452 217.515 242.972 218.145 241.346 218.672C239.72 219.199 237.962 219.573 236.073 219.792C235.296 221.213 234.491 222.627 233.656 224.033C232.821 225.425 231.935 226.758 230.997 228.032C230.06 229.292 229.063 230.464 228.009 231.548C226.969 232.617 225.848 233.547 224.647 234.338C223.46 235.129 222.179 235.745 220.802 236.184C219.439 236.638 217.975 236.865 216.407 236.865C215.118 236.865 213.866 236.675 212.65 236.294C211.449 235.928 210.379 235.386 209.442 234.668C208.519 233.965 207.779 233.101 207.223 232.075C206.666 231.05 206.388 229.878 206.388 228.56C206.388 227.139 206.651 225.901 207.179 224.846C207.691 223.792 208.373 222.913 209.222 222.209C210.086 221.506 211.061 220.986 212.145 220.649C213.229 220.298 214.334 220.122 215.462 220.122C216.327 220.122 217.176 220.21 218.011 220.386C218.861 220.547 219.667 220.781 220.428 221.089C221.205 221.396 221.922 221.763 222.582 222.188C223.255 222.612 223.849 223.081 224.361 223.594L223.702 224.297C223.351 223.96 222.933 223.638 222.45 223.33C221.981 223.022 221.439 222.751 220.824 222.517C220.208 222.268 219.535 222.078 218.802 221.946C218.07 221.799 217.279 221.726 216.429 221.726C215.448 221.726 214.496 221.895 213.573 222.231C212.65 222.554 211.83 223.03 211.112 223.66C210.394 224.275 209.815 225.037 209.376 225.945C208.937 226.838 208.717 227.864 208.717 229.021C208.717 229.958 208.9 230.837 209.266 231.658C209.647 232.463 210.174 233.159 210.848 233.745C211.537 234.346 212.342 234.814 213.265 235.151C214.203 235.488 215.235 235.657 216.363 235.657C217.652 235.657 218.861 235.452 219.989 235.042C221.131 234.646 222.193 234.089 223.175 233.372C224.171 232.668 225.108 231.826 225.987 230.845C226.881 229.863 227.723 228.794 228.514 227.637C229.32 226.465 230.089 225.234 230.821 223.945C231.554 222.656 232.279 221.338 232.997 219.99H232.403C229.942 219.99 227.723 219.741 225.746 219.243C223.783 218.73 222.105 218.035 220.714 217.156C219.337 216.277 218.275 215.251 217.528 214.08C216.795 212.893 216.429 211.619 216.429 210.256C216.429 208.894 216.693 207.693 217.22 206.653C217.748 205.613 218.465 204.741 219.374 204.038C220.282 203.335 221.336 202.808 222.538 202.456C223.739 202.09 225.013 201.907 226.361 201.907C227.518 201.907 228.58 202.002 229.547 202.192C230.514 202.368 231.378 202.603 232.14 202.896C232.916 203.174 233.597 203.481 234.183 203.818C234.784 204.155 235.289 204.478 235.699 204.785C236.109 205.093 236.432 205.364 236.666 205.598C236.9 205.833 237.054 205.986 237.127 206.06L236.38 206.719C236.366 206.704 236.153 206.521 235.743 206.169C235.333 205.803 234.754 205.408 234.007 204.983C233.26 204.543 232.359 204.148 231.305 203.796C230.25 203.43 229.078 203.247 227.789 203.247C226.485 203.247 225.284 203.43 224.186 203.796C223.102 204.163 222.164 204.675 221.373 205.334C220.582 205.979 219.959 206.748 219.505 207.642C219.066 208.535 218.846 209.509 218.846 210.564C218.846 211.809 219.19 212.944 219.879 213.97C220.567 214.98 221.52 215.852 222.735 216.584C223.966 217.302 225.409 217.866 227.064 218.276C228.734 218.672 230.55 218.87 232.513 218.87H233.568C234.33 217.419 235.084 215.984 235.831 214.563C236.593 213.127 237.369 211.765 238.16 210.476C238.951 209.172 239.771 207.964 240.621 206.851C241.471 205.737 242.372 204.778 243.324 203.972C244.276 203.152 245.294 202.515 246.378 202.061C247.462 201.592 248.626 201.357 249.872 201.357C250.384 201.357 250.89 201.431 251.388 201.577C251.9 201.709 252.354 201.943 252.75 202.28C253.16 202.603 253.49 203.035 253.739 203.577C253.988 204.104 254.112 204.763 254.112 205.554ZM250.333 202.544C249.41 202.544 248.531 202.749 247.696 203.159C246.861 203.569 246.063 204.148 245.301 204.895C244.54 205.627 243.8 206.499 243.082 207.51C242.364 208.506 241.654 209.604 240.951 210.806C240.262 211.992 239.566 213.252 238.863 214.585C238.16 215.903 237.442 217.244 236.71 218.606C238.614 218.357 240.343 217.954 241.896 217.397C243.448 216.841 244.825 216.196 246.026 215.464C247.228 214.717 248.268 213.911 249.146 213.047C250.025 212.183 250.75 211.318 251.322 210.454C251.893 209.59 252.311 208.762 252.574 207.971C252.853 207.166 252.992 206.448 252.992 205.818C252.992 205.349 252.94 204.917 252.838 204.521C252.75 204.126 252.604 203.782 252.398 203.489C252.193 203.196 251.922 202.969 251.585 202.808C251.249 202.632 250.831 202.544 250.333 202.544ZM251.981 214.849C252.127 214.6 252.384 214.167 252.75 213.552C253.131 212.937 253.57 212.256 254.068 211.509C254.581 210.762 255.13 210.015 255.716 209.268C256.317 208.506 256.903 207.861 257.474 207.334L258.463 207.927C257.833 208.967 257.188 210.073 256.529 211.245C255.87 212.402 255.218 213.604 254.574 214.849H261.737L261.297 215.991H253.98C253.321 217.31 252.699 218.621 252.113 219.924C251.542 221.228 251.036 222.473 250.597 223.66C250.157 224.846 249.813 225.959 249.564 227C249.315 228.025 249.19 228.918 249.19 229.68C249.19 230.632 249.41 231.321 249.85 231.746C250.289 232.156 250.831 232.361 251.476 232.361C252.047 232.361 252.633 232.192 253.233 231.855C253.834 231.504 254.42 231.064 254.991 230.537C255.577 230.01 256.126 229.431 256.639 228.801C257.167 228.171 257.628 227.578 258.023 227.021C258.434 226.465 258.771 225.981 259.034 225.571C259.298 225.146 259.459 224.883 259.518 224.78L260.331 225.396C259.818 226.245 259.239 227.146 258.595 228.098C257.95 229.05 257.232 229.937 256.441 230.757C255.665 231.562 254.815 232.236 253.893 232.778C252.97 233.306 251.974 233.569 250.904 233.569C250.245 233.569 249.667 233.452 249.168 233.218C248.685 232.983 248.275 232.661 247.938 232.251C247.601 231.826 247.352 231.328 247.191 230.757C247.015 230.186 246.927 229.563 246.927 228.889C246.927 228.45 247 227.827 247.147 227.021C247.279 226.216 247.513 225.264 247.85 224.165C248.187 223.052 248.634 221.807 249.19 220.43C249.762 219.053 250.479 217.573 251.344 215.991H247.696L248.136 214.849H251.981ZM271.91 227C271.969 227.014 272.027 227.021 272.086 227.021C272.145 227.021 272.21 227.021 272.284 227.021C272.694 227.021 273.067 226.985 273.404 226.912C273.741 226.824 274.049 226.692 274.327 226.516C274.62 226.34 274.898 226.113 275.162 225.835C275.426 225.542 275.682 225.19 275.931 224.78L276.722 225.396C276.019 226.392 275.294 227.087 274.547 227.483C273.8 227.878 273.009 228.076 272.174 228.076C271.866 228.076 271.595 228.047 271.361 227.988C270.731 229.043 270.057 229.944 269.339 230.691C268.622 231.423 267.889 232.024 267.142 232.493C266.395 232.961 265.655 233.298 264.923 233.503C264.19 233.723 263.509 233.833 262.879 233.833C262.235 233.833 261.634 233.716 261.078 233.481C260.536 233.262 260.067 232.939 259.671 232.515C259.276 232.09 258.968 231.584 258.749 230.999C258.529 230.413 258.419 229.753 258.419 229.021C258.419 228.289 258.536 227.542 258.771 226.78C259.005 226.018 259.32 225.264 259.715 224.517C260.125 223.77 260.602 223.052 261.144 222.363C261.686 221.66 262.271 221.008 262.901 220.408C263.531 219.807 264.183 219.265 264.857 218.782C265.531 218.298 266.205 217.903 266.878 217.595L267.582 218.518C266.805 219.075 266.014 219.778 265.208 220.627C264.417 221.477 263.692 222.407 263.033 223.418C262.389 224.429 261.854 225.483 261.429 226.582C261.019 227.666 260.814 228.721 260.814 229.746C260.814 230.669 261.019 231.387 261.429 231.899C261.839 232.397 262.462 232.646 263.297 232.646C263.941 232.646 264.579 232.515 265.208 232.251C265.838 231.987 266.454 231.628 267.054 231.174C267.655 230.72 268.233 230.186 268.79 229.57C269.347 228.94 269.874 228.274 270.372 227.571C269.947 227.322 269.574 226.992 269.251 226.582C268.929 226.157 268.658 225.681 268.438 225.154C268.219 224.612 268.05 224.033 267.933 223.418C267.831 222.803 267.779 222.173 267.779 221.528C267.779 220.884 267.86 220.276 268.021 219.705C268.182 219.133 268.402 218.635 268.68 218.21C268.973 217.771 269.31 217.427 269.691 217.178C270.072 216.929 270.489 216.804 270.943 216.804C271.354 216.804 271.72 216.914 272.042 217.134C272.364 217.339 272.635 217.632 272.855 218.013C273.075 218.379 273.243 218.818 273.36 219.331C273.478 219.844 273.536 220.393 273.536 220.979C273.536 221.418 273.5 221.902 273.426 222.429C273.353 222.957 273.243 223.491 273.097 224.033C272.965 224.561 272.796 225.088 272.591 225.615C272.401 226.128 272.174 226.589 271.91 227ZM268.922 221.528C268.922 221.953 268.958 222.415 269.032 222.913C269.105 223.411 269.222 223.894 269.383 224.363C269.544 224.832 269.75 225.271 269.999 225.681C270.248 226.077 270.555 226.392 270.921 226.626C271.185 226.113 271.405 225.593 271.581 225.066C271.771 224.524 271.925 224.004 272.042 223.506C272.174 223.008 272.262 222.546 272.306 222.122C272.364 221.682 272.394 221.301 272.394 220.979C272.394 220.54 272.357 220.137 272.284 219.771C272.21 219.404 272.108 219.089 271.976 218.826C271.859 218.547 271.705 218.335 271.515 218.188C271.339 218.027 271.141 217.947 270.921 217.947C270.628 217.947 270.357 218.049 270.108 218.254C269.859 218.445 269.647 218.708 269.471 219.045C269.295 219.368 269.156 219.749 269.054 220.188C268.966 220.613 268.922 221.06 268.922 221.528ZM289.818 225.396C289.598 225.718 289.334 226.157 289.027 226.714C288.734 227.256 288.39 227.849 287.994 228.494C287.599 229.124 287.159 229.768 286.676 230.427C286.207 231.086 285.687 231.68 285.116 232.207C284.559 232.734 283.951 233.167 283.292 233.503C282.633 233.84 281.93 234.009 281.183 234.009C280.772 234.009 280.384 233.943 280.018 233.811C279.652 233.694 279.33 233.503 279.051 233.24C278.773 232.976 278.553 232.654 278.392 232.273C278.231 231.877 278.15 231.416 278.15 230.889C278.15 230.171 278.29 229.424 278.568 228.647C278.861 227.856 279.198 227.095 279.579 226.362C279.959 225.63 280.34 224.963 280.721 224.363C281.102 223.748 281.38 223.257 281.556 222.891C281.732 222.524 281.82 222.209 281.82 221.946C281.82 221.755 281.754 221.587 281.622 221.44C281.505 221.294 281.351 221.155 281.161 221.023C280.985 220.876 280.794 220.73 280.589 220.583C280.399 220.422 280.238 220.232 280.106 220.012C279.74 220.598 279.366 221.191 278.985 221.792C278.648 222.305 278.282 222.883 277.887 223.528C277.491 224.158 277.11 224.78 276.744 225.396L275.953 224.78L280.655 217.419L281.292 217.749C281.263 217.837 281.212 217.976 281.139 218.167C281.08 218.357 281.051 218.562 281.051 218.782C281.051 218.943 281.073 219.104 281.117 219.265C281.175 219.412 281.285 219.551 281.446 219.683C282.032 220.21 282.494 220.62 282.831 220.913C283.167 221.191 283.409 221.418 283.556 221.594C283.717 221.755 283.812 221.895 283.841 222.012C283.885 222.114 283.907 222.253 283.907 222.429C283.907 222.605 283.878 222.817 283.819 223.066C283.761 223.315 283.658 223.616 283.512 223.967C283.38 224.319 283.189 224.736 282.94 225.22C282.706 225.688 282.406 226.238 282.04 226.868C281.82 227.249 281.6 227.637 281.38 228.032C281.175 228.413 280.985 228.801 280.809 229.197C280.648 229.592 280.516 229.988 280.414 230.383C280.311 230.779 280.26 231.16 280.26 231.526C280.26 231.804 280.296 232.031 280.37 232.207C280.458 232.368 280.567 232.493 280.699 232.581C280.831 232.668 280.97 232.727 281.117 232.756C281.278 232.786 281.432 232.8 281.578 232.8C282.062 232.8 282.538 232.661 283.006 232.383C283.49 232.09 283.958 231.716 284.413 231.262C284.881 230.808 285.328 230.295 285.753 229.724C286.192 229.138 286.61 228.545 287.005 227.944C287.401 227.344 287.767 226.772 288.104 226.23C288.441 225.674 288.741 225.19 289.005 224.78L289.818 225.396ZM298.871 213.486C298.871 213.779 298.797 214.087 298.651 214.409C298.504 214.717 298.314 214.995 298.08 215.244C297.86 215.493 297.611 215.698 297.333 215.859C297.054 216.021 296.776 216.101 296.498 216.101C296.249 216.101 296.058 216.013 295.926 215.837C295.794 215.647 295.729 215.42 295.729 215.156C295.729 214.922 295.772 214.644 295.86 214.321C295.948 213.999 296.08 213.699 296.256 213.42C296.432 213.127 296.644 212.878 296.893 212.673C297.142 212.468 297.428 212.366 297.75 212.366C298.058 212.366 298.321 212.483 298.541 212.717C298.761 212.952 298.871 213.208 298.871 213.486ZM294.762 218.364C294.571 218.745 294.3 219.25 293.949 219.88C293.612 220.496 293.246 221.177 292.85 221.924C292.455 222.656 292.052 223.433 291.642 224.253C291.231 225.059 290.858 225.85 290.521 226.626C290.199 227.388 289.935 228.105 289.73 228.779C289.525 229.453 289.422 230.024 289.422 230.493C289.422 230.918 289.51 231.211 289.686 231.372C289.862 231.519 290.111 231.592 290.433 231.592C291.034 231.592 291.62 231.394 292.191 230.999C292.762 230.603 293.326 230.09 293.883 229.46C294.454 228.816 295.011 228.083 295.553 227.263C296.095 226.443 296.637 225.615 297.179 224.78L297.97 225.396C297.545 226.157 297.062 226.97 296.52 227.834C295.992 228.699 295.399 229.504 294.74 230.251C294.081 230.984 293.355 231.592 292.564 232.075C291.773 232.559 290.909 232.8 289.972 232.8C289.093 232.8 288.419 232.537 287.95 232.009C287.481 231.482 287.247 230.801 287.247 229.966C287.247 228.984 287.474 227.959 287.928 226.89C288.382 225.82 288.946 224.766 289.62 223.726C290.309 222.671 291.048 221.66 291.839 220.693C292.645 219.727 293.385 218.848 294.059 218.057L294.762 218.364ZM298.849 227.966C298.819 228.142 298.797 228.318 298.783 228.494C298.768 228.669 298.761 228.845 298.761 229.021C298.761 229.548 298.834 230.054 298.98 230.537C299.142 231.006 299.369 231.423 299.662 231.79C299.969 232.141 300.343 232.419 300.782 232.625C301.236 232.83 301.749 232.932 302.32 232.932C304.239 232.932 306.092 232.28 307.879 230.977C309.667 229.673 311.446 227.607 313.219 224.78L313.966 225.439C312.999 227.051 312.018 228.413 311.021 229.526C310.025 230.625 309.029 231.519 308.033 232.207C307.052 232.896 306.085 233.394 305.133 233.701C304.181 234.009 303.272 234.163 302.408 234.163C301.778 234.163 301.112 234.075 300.409 233.899C299.706 233.723 299.054 233.43 298.453 233.02C297.867 232.61 297.384 232.061 297.003 231.372C296.607 230.684 296.41 229.827 296.41 228.801C296.41 227.703 296.6 226.648 296.981 225.637C297.347 224.612 297.831 223.66 298.431 222.781C299.032 221.902 299.72 221.104 300.497 220.386C301.273 219.653 302.057 219.031 302.848 218.518C303.653 218.005 304.437 217.61 305.199 217.332C305.96 217.039 306.634 216.892 307.22 216.892C307.601 216.892 307.989 216.951 308.385 217.068C308.78 217.185 309.132 217.368 309.439 217.617C309.762 217.866 310.018 218.196 310.208 218.606C310.414 219.016 310.516 219.507 310.516 220.078C310.516 220.854 310.333 221.587 309.967 222.275C309.615 222.949 309.139 223.579 308.539 224.165C307.938 224.736 307.242 225.256 306.451 225.725C305.66 226.179 304.833 226.567 303.968 226.89C303.104 227.212 302.232 227.468 301.354 227.659C300.475 227.849 299.64 227.952 298.849 227.966ZM299.024 227.021C300.006 226.919 300.929 226.714 301.793 226.406C302.657 226.099 303.448 225.725 304.166 225.286C304.884 224.832 305.521 224.341 306.078 223.813C306.649 223.286 307.125 222.751 307.506 222.209C307.887 221.667 308.18 221.147 308.385 220.649C308.59 220.151 308.692 219.705 308.692 219.309C308.692 218.914 308.583 218.599 308.363 218.364C308.158 218.13 307.909 218.013 307.616 218.013C306.971 218.013 306.246 218.247 305.44 218.716C304.635 219.17 303.829 219.807 303.023 220.627C302.218 221.433 301.456 222.385 300.738 223.484C300.035 224.583 299.464 225.762 299.024 227.021ZM320.272 215.728C320.199 215.859 320.104 216.006 319.986 216.167C319.869 216.313 319.752 216.489 319.635 216.694C319.532 216.885 319.437 217.112 319.349 217.375C319.276 217.639 319.239 217.954 319.239 218.32C319.239 218.628 319.312 219.045 319.459 219.573C319.62 220.1 319.789 220.708 319.964 221.396C320.14 222.07 320.301 222.81 320.448 223.616C320.609 224.407 320.689 225.227 320.689 226.077C320.689 227.322 320.521 228.42 320.184 229.373C319.847 230.325 319.4 231.138 318.844 231.812C319.986 231.196 321.107 230.317 322.206 229.175C323.304 228.018 324.41 226.553 325.523 224.78L326.271 225.439C325.641 226.479 324.923 227.512 324.117 228.538C323.326 229.548 322.455 230.464 321.502 231.284C320.55 232.09 319.525 232.742 318.426 233.24C317.328 233.752 316.163 234.009 314.933 234.009C313.834 234.009 312.911 233.745 312.164 233.218C311.402 232.705 310.934 231.929 310.758 230.889L311.549 230.735C311.549 230.823 311.593 230.969 311.681 231.174C311.754 231.365 311.878 231.555 312.054 231.746C312.23 231.936 312.472 232.104 312.779 232.251C313.072 232.397 313.438 232.471 313.878 232.471C314.464 232.471 314.984 232.339 315.438 232.075C315.892 231.797 316.288 231.438 316.625 230.999C316.961 230.559 317.247 230.061 317.481 229.504C317.716 228.933 317.899 228.347 318.031 227.747C318.177 227.146 318.28 226.56 318.338 225.989C318.397 225.417 318.426 224.897 318.426 224.429C318.426 223.96 318.404 223.44 318.36 222.869C318.331 222.297 318.294 221.755 318.25 221.243C318.207 220.715 318.163 220.261 318.119 219.88C318.089 219.485 318.075 219.229 318.075 219.111V219.067C317.884 219.272 317.657 219.573 317.394 219.968C317.13 220.364 316.844 220.796 316.537 221.265C316.244 221.733 315.943 222.209 315.636 222.693C315.343 223.176 315.072 223.616 314.823 224.011C314.588 224.407 314.391 224.736 314.229 225C314.083 225.249 314.01 225.381 314.01 225.396L313.219 224.78C313.233 224.766 313.417 224.451 313.768 223.835C314.12 223.22 314.581 222.444 315.152 221.506C315.738 220.554 316.397 219.507 317.13 218.364C317.862 217.207 318.617 216.086 319.393 215.002L320.272 215.728Z" fill="black"/>
<path d="M97.3441 252.846C97.3441 253.657 97.0069 254.327 96.3324 254.856C95.1065 255.813 94.473 256.317 94.432 256.367C93.6938 257.119 93.1697 257.871 92.8598 258.623L92.7982 258.746H97.474L96.9955 259.839H91.1303L91.6498 258.5C92.3425 256.973 93.2904 255.777 94.4936 254.911C95.0906 254.469 95.4893 254.177 95.6898 254.036C96.0681 253.771 96.2572 253.352 96.2572 252.778C96.2572 252.746 96.2572 252.712 96.2572 252.675C96.2436 252.119 96.0499 251.652 95.6762 251.274C95.2934 250.887 94.824 250.693 94.268 250.693C93.7257 250.693 93.2585 250.887 92.8666 251.274C92.4747 251.661 92.2787 252.115 92.2787 252.634C92.2787 252.643 92.2787 252.655 92.2787 252.668L92.2855 252.737L91.1918 253.215L91.185 252.689C91.185 251.869 91.4857 251.153 92.0873 250.542C92.6798 249.945 93.4066 249.647 94.268 249.647C95.1293 249.647 95.8562 249.943 96.4486 250.536C97.0456 251.124 97.3441 251.894 97.3441 252.846ZM100.274 252.668V256.955C100.274 257.1 100.288 257.239 100.315 257.372L103.432 251.076C103.091 250.82 102.701 250.693 102.263 250.693C101.712 250.693 101.243 250.887 100.855 251.274C100.468 251.657 100.274 252.122 100.274 252.668ZM105.346 252.689V256.934C105.346 257.773 105.046 258.49 104.444 259.087C103.843 259.68 103.116 259.976 102.263 259.976C101.407 259.976 100.68 259.68 100.083 259.087C99.4813 258.49 99.1805 257.773 99.1805 256.934V252.689C99.1805 251.85 99.4813 251.135 100.083 250.542C100.684 249.945 101.411 249.647 102.263 249.647C103.116 249.647 103.843 249.945 104.444 250.542C105.046 251.135 105.346 251.85 105.346 252.689ZM104.164 252.067L100.992 258.472C101.352 258.778 101.776 258.93 102.263 258.93C102.806 258.93 103.273 258.736 103.665 258.349C104.052 257.966 104.248 257.501 104.253 256.955V252.668C104.253 252.454 104.223 252.254 104.164 252.067ZM113.267 252.846C113.267 253.657 112.93 254.327 112.255 254.856C111.029 255.813 110.396 256.317 110.355 256.367C109.616 257.119 109.092 257.871 108.782 258.623L108.721 258.746H113.397L112.918 259.839H107.053L107.572 258.5C108.265 256.973 109.213 255.777 110.416 254.911C111.013 254.469 111.412 254.177 111.612 254.036C111.991 253.771 112.18 253.352 112.18 252.778C112.18 252.746 112.18 252.712 112.18 252.675C112.166 252.119 111.973 251.652 111.599 251.274C111.216 250.887 110.747 250.693 110.191 250.693C109.648 250.693 109.181 250.887 108.789 251.274C108.397 251.661 108.201 252.115 108.201 252.634C108.201 252.643 108.201 252.655 108.201 252.668L108.208 252.737L107.114 253.215L107.108 252.689C107.108 251.869 107.408 251.153 108.01 250.542C108.602 249.945 109.329 249.647 110.191 249.647C111.052 249.647 111.779 249.943 112.371 250.536C112.968 251.124 113.267 251.894 113.267 252.846ZM116.197 252.668V256.955C116.197 257.1 116.211 257.239 116.238 257.372L119.355 251.076C119.013 250.82 118.624 250.693 118.186 250.693C117.635 250.693 117.165 250.887 116.778 251.274C116.391 251.657 116.197 252.122 116.197 252.668ZM121.269 252.689V256.934C121.269 257.773 120.968 258.49 120.367 259.087C119.765 259.68 119.038 259.976 118.186 259.976C117.329 259.976 116.602 259.68 116.005 259.087C115.404 258.49 115.103 257.773 115.103 256.934V252.689C115.103 251.85 115.404 251.135 116.005 250.542C116.607 249.945 117.334 249.647 118.186 249.647C119.038 249.647 119.765 249.945 120.367 250.542C120.968 251.135 121.269 251.85 121.269 252.689ZM120.087 252.067L116.915 258.472C117.275 258.778 117.699 258.93 118.186 258.93C118.728 258.93 119.196 258.736 119.587 258.349C119.975 257.966 120.171 257.501 120.175 256.955V252.668C120.175 252.454 120.146 252.254 120.087 252.067Z" fill="black"/>
<path d="M135.916 249.52V248.806H141.544V249.52H139.108V257.976H138.338V249.52H135.916ZM145.296 257.374C145.641 257.374 146.015 257.267 146.416 257.052C146.827 256.828 147.125 256.623 147.312 256.436V254.77C146.696 254.723 146.108 254.7 145.548 254.7C144.988 254.7 144.568 254.821 144.288 255.064C144.008 255.297 143.868 255.615 143.868 256.016C143.868 256.921 144.344 257.374 145.296 257.374ZM145.282 258.102C144.601 258.102 144.064 257.929 143.672 257.584C143.28 257.229 143.084 256.73 143.084 256.086C143.084 255.442 143.299 254.943 143.728 254.588C144.157 254.224 144.727 254.042 145.436 254.042C146.145 254.042 146.771 254.07 147.312 254.126C147.312 253.295 147.209 252.731 147.004 252.432C146.799 252.124 146.383 251.97 145.758 251.97C145.133 251.97 144.395 252.119 143.546 252.418L143.336 251.718C144.204 251.401 144.988 251.242 145.688 251.242C146.612 251.242 147.237 251.447 147.564 251.858C147.891 252.269 148.054 252.987 148.054 254.014V256.954L148.166 258.018L147.452 258.088L147.312 257.248C147.097 257.435 146.794 257.626 146.402 257.822C146.01 258.009 145.637 258.102 145.282 258.102ZM150.322 260.664V252.53L150.196 251.312L150.896 251.228L151.022 251.984C151.703 251.489 152.352 251.242 152.968 251.242C153.799 251.242 154.443 251.545 154.9 252.152C155.357 252.759 155.586 253.594 155.586 254.658C155.586 255.722 155.334 256.562 154.83 257.178C154.326 257.794 153.626 258.102 152.73 258.102C152.207 258.102 151.652 257.976 151.064 257.724V260.664H150.322ZM154.788 254.686C154.788 253.855 154.629 253.197 154.312 252.712C153.995 252.217 153.537 251.97 152.94 251.97C152.352 251.97 151.727 252.236 151.064 252.768V256.968C151.26 257.061 151.526 257.155 151.862 257.248C152.207 257.332 152.487 257.374 152.702 257.374C153.365 257.374 153.878 257.131 154.242 256.646C154.606 256.161 154.788 255.507 154.788 254.686ZM157.322 260.664V252.53L157.196 251.312L157.896 251.228L158.022 251.984C158.703 251.489 159.352 251.242 159.968 251.242C160.799 251.242 161.443 251.545 161.9 252.152C162.357 252.759 162.586 253.594 162.586 254.658C162.586 255.722 162.334 256.562 161.83 257.178C161.326 257.794 160.626 258.102 159.73 258.102C159.207 258.102 158.652 257.976 158.064 257.724V260.664H157.322ZM161.788 254.686C161.788 253.855 161.629 253.197 161.312 252.712C160.995 252.217 160.537 251.97 159.94 251.97C159.352 251.97 158.727 252.236 158.064 252.768V256.968C158.26 257.061 158.526 257.155 158.862 257.248C159.207 257.332 159.487 257.374 159.702 257.374C160.365 257.374 160.878 257.131 161.242 256.646C161.606 256.161 161.788 255.507 161.788 254.686ZM166.296 257.374C166.641 257.374 167.015 257.267 167.416 257.052C167.827 256.828 168.125 256.623 168.312 256.436V254.77C167.696 254.723 167.108 254.7 166.548 254.7C165.988 254.7 165.568 254.821 165.288 255.064C165.008 255.297 164.868 255.615 164.868 256.016C164.868 256.921 165.344 257.374 166.296 257.374ZM166.282 258.102C165.601 258.102 165.064 257.929 164.672 257.584C164.28 257.229 164.084 256.73 164.084 256.086C164.084 255.442 164.299 254.943 164.728 254.588C165.157 254.224 165.727 254.042 166.436 254.042C167.145 254.042 167.771 254.07 168.312 254.126C168.312 253.295 168.209 252.731 168.004 252.432C167.799 252.124 167.383 251.97 166.758 251.97C166.133 251.97 165.395 252.119 164.546 252.418L164.336 251.718C165.204 251.401 165.988 251.242 166.688 251.242C167.612 251.242 168.237 251.447 168.564 251.858C168.891 252.269 169.054 252.987 169.054 254.014V256.954L169.166 258.018L168.452 258.088L168.312 257.248C168.097 257.435 167.794 257.626 167.402 257.822C167.01 258.009 166.637 258.102 166.282 258.102ZM171.322 257.976V248.68H172.064V251.97C172.764 251.485 173.399 251.242 173.968 251.242C174.808 251.242 175.457 251.531 175.914 252.11C176.371 252.679 176.6 253.496 176.6 254.56C176.6 255.624 176.343 256.483 175.83 257.136C175.317 257.78 174.617 258.102 173.73 258.102C173.189 258.102 172.629 257.967 172.05 257.696L172.022 257.976H171.322ZM175.802 254.574C175.802 253.753 175.639 253.113 175.312 252.656C174.995 252.199 174.533 251.97 173.926 251.97C173.319 251.97 172.699 252.236 172.064 252.768V256.968C172.26 257.061 172.526 257.155 172.862 257.248C173.207 257.332 173.487 257.374 173.702 257.374C174.355 257.374 174.869 257.113 175.242 256.59C175.615 256.067 175.802 255.395 175.802 254.574ZM178.574 257.976V257.276H180.716V249.352L178.63 249.366L178.616 248.68L181.458 248.666V257.276H183.67V257.976H178.574ZM185.182 254.658C185.182 253.585 185.401 252.749 185.84 252.152C186.288 251.545 186.937 251.242 187.786 251.242C188.635 251.242 189.265 251.522 189.676 252.082C190.096 252.642 190.306 253.389 190.306 254.322L190.264 255.022H185.98C186.027 255.722 186.213 256.291 186.54 256.73C186.867 257.159 187.315 257.374 187.884 257.374C188.463 257.374 189.139 257.239 189.914 256.968L190.124 257.668C189.368 257.957 188.659 258.102 187.996 258.102C187.081 258.102 186.381 257.799 185.896 257.192C185.42 256.576 185.182 255.731 185.182 254.658ZM187.842 251.956C186.666 251.956 186.045 252.745 185.98 254.322H189.508C189.508 252.745 188.953 251.956 187.842 251.956ZM193.666 257.976V256.408H194.996V257.556C194.996 258.396 194.637 259.203 193.918 259.978L193.54 259.642C193.96 259.026 194.189 258.471 194.226 257.976H193.666ZM206.434 251.326L206.476 251.746C206.943 251.41 207.302 251.242 207.554 251.242C208.17 251.242 208.595 251.443 208.828 251.844C209.351 251.443 209.808 251.242 210.2 251.242C210.807 251.242 211.222 251.429 211.446 251.802C211.67 252.175 211.782 252.749 211.782 253.524V257.976H211.04V253.524C211.04 252.992 210.984 252.6 210.872 252.348C210.76 252.087 210.545 251.956 210.228 251.956C209.911 251.956 209.519 252.105 209.052 252.404C209.108 252.721 209.136 253.095 209.136 253.524V255.848H208.394V253.524C208.394 252.992 208.338 252.6 208.226 252.348C208.105 252.087 207.885 251.956 207.568 251.956C207.251 251.956 206.887 252.105 206.476 252.404V257.976H205.734V251.326H206.434ZM213.07 254.672C213.07 252.385 213.961 251.242 215.744 251.242C217.527 251.242 218.418 252.385 218.418 254.672C218.418 256.959 217.527 258.102 215.744 258.102C213.961 258.102 213.07 256.959 213.07 254.672ZM215.744 251.97C214.493 251.97 213.868 252.871 213.868 254.672C213.868 256.473 214.493 257.374 215.744 257.374C216.995 257.374 217.62 256.473 217.62 254.672C217.62 252.871 216.995 251.97 215.744 251.97ZM220.322 257.976V248.68H221.064V251.97C221.764 251.485 222.399 251.242 222.968 251.242C223.808 251.242 224.457 251.531 224.914 252.11C225.371 252.679 225.6 253.496 225.6 254.56C225.6 255.624 225.343 256.483 224.83 257.136C224.317 257.78 223.617 258.102 222.73 258.102C222.189 258.102 221.629 257.967 221.05 257.696L221.022 257.976H220.322ZM224.802 254.574C224.802 253.753 224.639 253.113 224.312 252.656C223.995 252.199 223.533 251.97 222.926 251.97C222.319 251.97 221.699 252.236 221.064 252.768V256.968C221.26 257.061 221.526 257.155 221.862 257.248C222.207 257.332 222.487 257.374 222.702 257.374C223.355 257.374 223.869 257.113 224.242 256.59C224.615 256.067 224.802 255.395 224.802 254.574ZM227.406 257.976V257.276H229.45V252.026H227.406V251.326H230.192V257.276H232.236V257.976H227.406ZM229.156 249.352C229.156 249.165 229.207 249.021 229.31 248.918C229.422 248.815 229.571 248.764 229.758 248.764C230.141 248.764 230.332 248.969 230.332 249.38C230.332 249.791 230.141 249.991 229.758 249.982C229.357 249.982 229.156 249.772 229.156 249.352ZM234.574 257.976V257.276H236.716V249.352L234.63 249.366L234.616 248.68L237.458 248.666V257.276H239.67V257.976H234.574ZM241.182 254.658C241.182 253.585 241.401 252.749 241.84 252.152C242.288 251.545 242.937 251.242 243.786 251.242C244.635 251.242 245.265 251.522 245.676 252.082C246.096 252.642 246.306 253.389 246.306 254.322L246.264 255.022H241.98C242.027 255.722 242.213 256.291 242.54 256.73C242.867 257.159 243.315 257.374 243.884 257.374C244.463 257.374 245.139 257.239 245.914 256.968L246.124 257.668C245.368 257.957 244.659 258.102 243.996 258.102C243.081 258.102 242.381 257.799 241.896 257.192C241.42 256.576 241.182 255.731 241.182 254.658ZM243.842 251.956C242.666 251.956 242.045 252.745 241.98 254.322H245.508C245.508 252.745 244.953 251.956 243.842 251.956ZM248.784 254.994V254.238H252.802V254.994H248.784ZM255.21 257.976V257.276H256.764V252.026H255.266V251.326H256.764C256.764 249.478 257.45 248.554 258.822 248.554C259.27 248.554 259.858 248.661 260.586 248.876L260.418 249.576C259.699 249.371 259.177 249.268 258.85 249.268C258.374 249.268 258.029 249.436 257.814 249.772C257.609 250.099 257.506 250.617 257.506 251.326H260.32V252.026H257.506V257.276H260.348V257.976H255.21ZM262.406 257.976V257.276H264.45V252.026H262.406V251.326H265.192V257.276H267.236V257.976H262.406ZM264.156 249.352C264.156 249.165 264.207 249.021 264.31 248.918C264.422 248.815 264.571 248.764 264.758 248.764C265.141 248.764 265.332 248.969 265.332 249.38C265.332 249.791 265.141 249.991 264.758 249.982C264.357 249.982 264.156 249.772 264.156 249.352ZM269.378 257.976V257.276H270.974V252.026H269.378V251.326H271.716L271.744 252.138C272.043 251.951 272.463 251.765 273.004 251.578C273.545 251.391 274.021 251.279 274.432 251.242H274.586V252.068H274.432C274.049 252.096 273.573 252.189 273.004 252.348C272.444 252.507 272.024 252.67 271.744 252.838V257.276H273.984V257.976H269.378ZM276.336 257.654L276.518 256.926C277.442 257.234 278.156 257.388 278.66 257.388C279.164 257.388 279.551 257.281 279.822 257.066C280.102 256.842 280.242 256.548 280.242 256.184C280.242 255.82 280.13 255.554 279.906 255.386C279.691 255.209 279.239 255.041 278.548 254.882C277.857 254.723 277.339 254.495 276.994 254.196C276.649 253.916 276.476 253.496 276.476 252.936C276.476 252.376 276.686 251.951 277.106 251.662C277.535 251.363 278.086 251.214 278.758 251.214C279.43 251.214 280.158 251.363 280.942 251.662L280.746 252.32C279.953 252.059 279.313 251.928 278.828 251.928C278.343 251.928 277.96 252.012 277.68 252.18C277.4 252.367 277.26 252.619 277.26 252.936C277.26 253.253 277.381 253.501 277.624 253.678C277.876 253.855 278.357 254.033 279.066 254.21C279.775 254.387 280.279 254.616 280.578 254.896C280.877 255.167 281.026 255.596 281.026 256.184C281.026 256.772 280.825 257.239 280.424 257.584C280.032 257.929 279.472 258.102 278.744 258.102C278.016 258.102 277.213 257.953 276.336 257.654ZM283.028 252.208V251.508H284.386V249.814L285.128 249.674V251.508H288.334V252.208H285.128V255.4C285.128 256.109 285.231 256.623 285.436 256.94C285.651 257.248 286.029 257.402 286.57 257.402C286.775 257.402 287.093 257.369 287.522 257.304C287.951 257.229 288.245 257.164 288.404 257.108L288.572 257.794C288.395 257.859 288.068 257.929 287.592 258.004C287.125 258.079 286.785 258.116 286.57 258.116C285.73 258.116 285.156 257.897 284.848 257.458C284.54 257.01 284.386 256.333 284.386 255.428V252.208H283.028ZM141.026 265.326H141.754L140.956 271.976H139.472L138.758 269.078H138.702L137.974 271.976H136.504L135.734 265.326H136.462L137.19 271.304H137.442L138.38 267.93H139.108L140.046 271.304H140.298L141.026 265.326ZM143.182 268.658C143.182 267.585 143.401 266.749 143.84 266.152C144.288 265.545 144.937 265.242 145.786 265.242C146.635 265.242 147.265 265.522 147.676 266.082C148.096 266.642 148.306 267.389 148.306 268.322L148.264 269.022H143.98C144.027 269.722 144.213 270.291 144.54 270.73C144.867 271.159 145.315 271.374 145.884 271.374C146.463 271.374 147.139 271.239 147.914 270.968L148.124 271.668C147.368 271.957 146.659 272.102 145.996 272.102C145.081 272.102 144.381 271.799 143.896 271.192C143.42 270.576 143.182 269.731 143.182 268.658ZM145.842 265.956C144.666 265.956 144.045 266.745 143.98 268.322H147.508C147.508 266.745 146.953 265.956 145.842 265.956ZM150.322 271.976V262.68H151.064V265.97C151.764 265.485 152.399 265.242 152.968 265.242C153.808 265.242 154.457 265.531 154.914 266.11C155.371 266.679 155.6 267.496 155.6 268.56C155.6 269.624 155.343 270.483 154.83 271.136C154.317 271.78 153.617 272.102 152.73 272.102C152.189 272.102 151.629 271.967 151.05 271.696L151.022 271.976H150.322ZM154.802 268.574C154.802 267.753 154.639 267.113 154.312 266.656C153.995 266.199 153.533 265.97 152.926 265.97C152.319 265.97 151.699 266.236 151.064 266.768V270.968C151.26 271.061 151.526 271.155 151.862 271.248C152.207 271.332 152.487 271.374 152.702 271.374C153.355 271.374 153.869 271.113 154.242 270.59C154.615 270.067 154.802 269.395 154.802 268.574ZM164.182 268.658C164.182 267.585 164.401 266.749 164.84 266.152C165.288 265.545 165.937 265.242 166.786 265.242C167.635 265.242 168.265 265.522 168.676 266.082C169.096 266.642 169.306 267.389 169.306 268.322L169.264 269.022H164.98C165.027 269.722 165.213 270.291 165.54 270.73C165.867 271.159 166.315 271.374 166.884 271.374C167.463 271.374 168.139 271.239 168.914 270.968L169.124 271.668C168.368 271.957 167.659 272.102 166.996 272.102C166.081 272.102 165.381 271.799 164.896 271.192C164.42 270.576 164.182 269.731 164.182 268.658ZM166.842 265.956C165.666 265.956 165.045 266.745 164.98 268.322H168.508C168.508 266.745 167.953 265.956 166.842 265.956ZM171.084 265.326H172.05L173.744 268.07L175.424 265.326H176.362L174.262 268.602L176.488 271.976H175.536L173.744 269.134L171.966 271.976H171.014L173.268 268.602L171.084 265.326ZM178.322 274.664V266.53L178.196 265.312L178.896 265.228L179.022 265.984C179.703 265.489 180.352 265.242 180.968 265.242C181.799 265.242 182.443 265.545 182.9 266.152C183.357 266.759 183.586 267.594 183.586 268.658C183.586 269.722 183.334 270.562 182.83 271.178C182.326 271.794 181.626 272.102 180.73 272.102C180.207 272.102 179.652 271.976 179.064 271.724V274.664H178.322ZM182.788 268.686C182.788 267.855 182.629 267.197 182.312 266.712C181.995 266.217 181.537 265.97 180.94 265.97C180.352 265.97 179.727 266.236 179.064 266.768V270.968C179.26 271.061 179.526 271.155 179.862 271.248C180.207 271.332 180.487 271.374 180.702 271.374C181.365 271.374 181.878 271.131 182.242 270.646C182.606 270.161 182.788 269.507 182.788 268.686ZM185.182 268.658C185.182 267.585 185.401 266.749 185.84 266.152C186.288 265.545 186.937 265.242 187.786 265.242C188.635 265.242 189.265 265.522 189.676 266.082C190.096 266.642 190.306 267.389 190.306 268.322L190.264 269.022H185.98C186.027 269.722 186.213 270.291 186.54 270.73C186.867 271.159 187.315 271.374 187.884 271.374C188.463 271.374 189.139 271.239 189.914 270.968L190.124 271.668C189.368 271.957 188.659 272.102 187.996 272.102C187.081 272.102 186.381 271.799 185.896 271.192C185.42 270.576 185.182 269.731 185.182 268.658ZM187.842 265.956C186.666 265.956 186.045 266.745 185.98 268.322H189.508C189.508 266.745 188.953 265.956 187.842 265.956ZM192.378 271.976V271.276H193.974V266.026H192.378V265.326H194.716L194.744 266.138C195.043 265.951 195.463 265.765 196.004 265.578C196.545 265.391 197.021 265.279 197.432 265.242H197.586V266.068H197.432C197.049 266.096 196.573 266.189 196.004 266.348C195.444 266.507 195.024 266.67 194.744 266.838V271.276H196.984V271.976H192.378ZM199.406 271.976V271.276H201.45V266.026H199.406V265.326H202.192V271.276H204.236V271.976H199.406ZM201.156 263.352C201.156 263.165 201.207 263.021 201.31 262.918C201.422 262.815 201.571 262.764 201.758 262.764C202.141 262.764 202.332 262.969 202.332 263.38C202.332 263.791 202.141 263.991 201.758 263.982C201.357 263.982 201.156 263.772 201.156 263.352ZM206.182 268.658C206.182 267.585 206.401 266.749 206.84 266.152C207.288 265.545 207.937 265.242 208.786 265.242C209.635 265.242 210.265 265.522 210.676 266.082C211.096 266.642 211.306 267.389 211.306 268.322L211.264 269.022H206.98C207.027 269.722 207.213 270.291 207.54 270.73C207.867 271.159 208.315 271.374 208.884 271.374C209.463 271.374 210.139 271.239 210.914 270.968L211.124 271.668C210.368 271.957 209.659 272.102 208.996 272.102C208.081 272.102 207.381 271.799 206.896 271.192C206.42 270.576 206.182 269.731 206.182 268.658ZM208.842 265.956C207.666 265.956 207.045 266.745 206.98 268.322H210.508C210.508 266.745 209.953 265.956 208.842 265.956ZM214.022 265.326L214.05 265.886C214.955 265.457 215.707 265.242 216.304 265.242C216.901 265.242 217.368 265.447 217.704 265.858C218.049 266.269 218.222 266.829 218.222 267.538V271.976H217.48V267.538C217.48 267.081 217.368 266.703 217.144 266.404C216.92 266.115 216.584 265.97 216.136 265.97C215.688 265.97 214.993 266.175 214.05 266.586V271.976H213.308V265.326H214.022ZM224.956 265.55L224.788 266.278C224.209 266.073 223.673 265.97 223.178 265.97C222.506 265.97 222.002 266.208 221.666 266.684C221.339 267.151 221.176 267.804 221.176 268.644C221.176 269.484 221.344 270.151 221.68 270.646C222.016 271.131 222.515 271.374 223.178 271.374C223.626 271.374 224.186 271.253 224.858 271.01L225.082 271.71C224.401 271.971 223.771 272.102 223.192 272.102C222.277 272.102 221.577 271.799 221.092 271.192C220.607 270.576 220.364 269.722 220.364 268.63C220.364 267.538 220.602 266.703 221.078 266.124C221.554 265.536 222.254 265.242 223.178 265.242C223.766 265.242 224.359 265.345 224.956 265.55ZM227.182 268.658C227.182 267.585 227.401 266.749 227.84 266.152C228.288 265.545 228.937 265.242 229.786 265.242C230.635 265.242 231.265 265.522 231.676 266.082C232.096 266.642 232.306 267.389 232.306 268.322L232.264 269.022H227.98C228.027 269.722 228.213 270.291 228.54 270.73C228.867 271.159 229.315 271.374 229.884 271.374C230.463 271.374 231.139 271.239 231.914 270.968L232.124 271.668C231.368 271.957 230.659 272.102 229.996 272.102C229.081 272.102 228.381 271.799 227.896 271.192C227.42 270.576 227.182 269.731 227.182 268.658ZM229.842 265.956C228.666 265.956 228.045 266.745 227.98 268.322H231.508C231.508 266.745 230.953 265.956 229.842 265.956ZM234.336 271.654L234.518 270.926C235.442 271.234 236.156 271.388 236.66 271.388C237.164 271.388 237.551 271.281 237.822 271.066C238.102 270.842 238.242 270.548 238.242 270.184C238.242 269.82 238.13 269.554 237.906 269.386C237.691 269.209 237.239 269.041 236.548 268.882C235.857 268.723 235.339 268.495 234.994 268.196C234.649 267.916 234.476 267.496 234.476 266.936C234.476 266.376 234.686 265.951 235.106 265.662C235.535 265.363 236.086 265.214 236.758 265.214C237.43 265.214 238.158 265.363 238.942 265.662L238.746 266.32C237.953 266.059 237.313 265.928 236.828 265.928C236.343 265.928 235.96 266.012 235.68 266.18C235.4 266.367 235.26 266.619 235.26 266.936C235.26 267.253 235.381 267.501 235.624 267.678C235.876 267.855 236.357 268.033 237.066 268.21C237.775 268.387 238.279 268.616 238.578 268.896C238.877 269.167 239.026 269.596 239.026 270.184C239.026 270.772 238.825 271.239 238.424 271.584C238.032 271.929 237.472 272.102 236.744 272.102C236.016 272.102 235.213 271.953 234.336 271.654ZM248.21 271.976V271.276H249.764V266.026H248.266V265.326H249.764C249.764 263.478 250.45 262.554 251.822 262.554C252.27 262.554 252.858 262.661 253.586 262.876L253.418 263.576C252.699 263.371 252.177 263.268 251.85 263.268C251.374 263.268 251.029 263.436 250.814 263.772C250.609 264.099 250.506 264.617 250.506 265.326H253.32V266.026H250.506V271.276H253.348V271.976H248.21ZM255.07 268.672C255.07 266.385 255.961 265.242 257.744 265.242C259.527 265.242 260.418 266.385 260.418 268.672C260.418 270.959 259.527 272.102 257.744 272.102C255.961 272.102 255.07 270.959 255.07 268.672ZM257.744 265.97C256.493 265.97 255.868 266.871 255.868 268.672C255.868 270.473 256.493 271.374 257.744 271.374C258.995 271.374 259.62 270.473 259.62 268.672C259.62 266.871 258.995 265.97 257.744 265.97ZM262.378 271.976V271.276H263.974V266.026H262.378V265.326H264.716L264.744 266.138C265.043 265.951 265.463 265.765 266.004 265.578C266.545 265.391 267.021 265.279 267.432 265.242H267.586V266.068H267.432C267.049 266.096 266.573 266.189 266.004 266.348C265.444 266.507 265.024 266.67 264.744 266.838V271.276H266.984V271.976H262.378ZM276.028 266.208V265.508H277.386V263.814L278.128 263.674V265.508H281.334V266.208H278.128V269.4C278.128 270.109 278.231 270.623 278.436 270.94C278.651 271.248 279.029 271.402 279.57 271.402C279.775 271.402 280.093 271.369 280.522 271.304C280.951 271.229 281.245 271.164 281.404 271.108L281.572 271.794C281.395 271.859 281.068 271.929 280.592 272.004C280.125 272.079 279.785 272.116 279.57 272.116C278.73 272.116 278.156 271.897 277.848 271.458C277.54 271.01 277.386 270.333 277.386 269.428V266.208H276.028ZM284.078 266.544V271.976H283.336V262.68H284.078V265.83C284.955 265.438 285.679 265.242 286.248 265.242C287.583 265.242 288.25 266.007 288.25 267.538V271.976H287.508V267.538C287.508 267.062 287.405 266.684 287.2 266.404C286.995 266.115 286.64 265.97 286.136 265.97C285.632 265.97 284.946 266.161 284.078 266.544ZM290.182 268.658C290.182 267.585 290.401 266.749 290.84 266.152C291.288 265.545 291.937 265.242 292.786 265.242C293.635 265.242 294.265 265.522 294.676 266.082C295.096 266.642 295.306 267.389 295.306 268.322L295.264 269.022H290.98C291.027 269.722 291.213 270.291 291.54 270.73C291.867 271.159 292.315 271.374 292.884 271.374C293.463 271.374 294.139 271.239 294.914 270.968L295.124 271.668C294.368 271.957 293.659 272.102 292.996 272.102C292.081 272.102 291.381 271.799 290.896 271.192C290.42 270.576 290.182 269.731 290.182 268.658ZM292.842 265.956C291.666 265.956 291.045 266.745 290.98 268.322H294.508C294.508 266.745 293.953 265.956 292.842 265.956ZM135.916 277.52V276.806H141.544V277.52H139.108V285.976H138.338V277.52H135.916ZM144.078 280.544V285.976H143.336V276.68H144.078V279.83C144.955 279.438 145.679 279.242 146.248 279.242C147.583 279.242 148.25 280.007 148.25 281.538V285.976H147.508V281.538C147.508 281.062 147.405 280.684 147.2 280.404C146.995 280.115 146.64 279.97 146.136 279.97C145.632 279.97 144.946 280.161 144.078 280.544ZM150.406 285.976V285.276H152.45V280.026H150.406V279.326H153.192V285.276H155.236V285.976H150.406ZM152.156 277.352C152.156 277.165 152.207 277.021 152.31 276.918C152.422 276.815 152.571 276.764 152.758 276.764C153.141 276.764 153.332 276.969 153.332 277.38C153.332 277.791 153.141 277.991 152.758 277.982C152.357 277.982 152.156 277.772 152.156 277.352ZM158.022 279.326L158.05 279.886C158.955 279.457 159.707 279.242 160.304 279.242C160.901 279.242 161.368 279.447 161.704 279.858C162.049 280.269 162.222 280.829 162.222 281.538V285.976H161.48V281.538C161.48 281.081 161.368 280.703 161.144 280.404C160.92 280.115 160.584 279.97 160.136 279.97C159.688 279.97 158.993 280.175 158.05 280.586V285.976H157.308V279.326H158.022ZM164.602 285.976V276.666H165.344V282.336L166.534 282.196C167.113 281.487 167.677 280.675 168.228 279.76L168.494 279.326H169.334C168.606 280.605 167.897 281.659 167.206 282.49C167.859 283.321 168.503 284.301 169.138 285.43L169.446 285.976H168.578C167.943 284.781 167.29 283.75 166.618 282.882L165.344 283.008V285.976H164.602ZM178.294 285.976L177.272 276.806H178.07L179.008 285.276H179.162L180.394 280.852H181.136L182.312 285.276H182.48L183.418 276.806H184.216L183.194 285.976H181.78L180.772 282.028H180.73L179.68 285.976H178.294ZM185.406 285.976V285.276H187.45V280.026H185.406V279.326H188.192V285.276H190.236V285.976H185.406ZM187.156 277.352C187.156 277.165 187.207 277.021 187.31 276.918C187.422 276.815 187.571 276.764 187.758 276.764C188.141 276.764 188.332 276.969 188.332 277.38C188.332 277.791 188.141 277.991 187.758 277.982C187.357 277.982 187.156 277.772 187.156 277.352ZM192.028 280.208V279.508H193.386V277.814L194.128 277.674V279.508H197.334V280.208H194.128V283.4C194.128 284.109 194.231 284.623 194.436 284.94C194.651 285.248 195.029 285.402 195.57 285.402C195.775 285.402 196.093 285.369 196.522 285.304C196.951 285.229 197.245 285.164 197.404 285.108L197.572 285.794C197.395 285.859 197.068 285.929 196.592 286.004C196.125 286.079 195.785 286.116 195.57 286.116C194.73 286.116 194.156 285.897 193.848 285.458C193.54 285.01 193.386 284.333 193.386 283.428V280.208H192.028ZM200.078 280.544V285.976H199.336V276.68H200.078V279.83C200.955 279.438 201.679 279.242 202.248 279.242C203.583 279.242 204.25 280.007 204.25 281.538V285.976H203.508V281.538C203.508 281.062 203.405 280.684 203.2 280.404C202.995 280.115 202.64 279.97 202.136 279.97C201.632 279.97 200.946 280.161 200.078 280.544ZM215.968 286.116C214.885 286.116 214.083 285.743 213.56 284.996C213.037 284.249 212.776 283.05 212.776 281.398C212.776 279.737 213.033 278.533 213.546 277.786C214.059 277.039 214.895 276.666 216.052 276.666C216.808 276.666 217.601 276.815 218.432 277.114L218.236 277.828C217.387 277.539 216.659 277.394 216.052 277.394C215.175 277.394 214.545 277.707 214.162 278.332C213.789 278.948 213.602 279.961 213.602 281.37C213.602 282.77 213.798 283.792 214.19 284.436C214.582 285.071 215.175 285.388 215.968 285.388C216.444 285.388 217.018 285.276 217.69 285.052V282.252H216.108V281.566H218.46V285.598C217.499 285.943 216.668 286.116 215.968 286.116ZM220.07 282.672C220.07 280.385 220.961 279.242 222.744 279.242C224.527 279.242 225.418 280.385 225.418 282.672C225.418 284.959 224.527 286.102 222.744 286.102C220.961 286.102 220.07 284.959 220.07 282.672ZM222.744 279.97C221.493 279.97 220.868 280.871 220.868 282.672C220.868 284.473 221.493 285.374 222.744 285.374C223.995 285.374 224.62 284.473 224.62 282.672C224.62 280.871 223.995 279.97 222.744 279.97ZM227.07 282.672C227.07 280.385 227.961 279.242 229.744 279.242C231.527 279.242 232.418 280.385 232.418 282.672C232.418 284.959 231.527 286.102 229.744 286.102C227.961 286.102 227.07 284.959 227.07 282.672ZM229.744 279.97C228.493 279.97 227.868 280.871 227.868 282.672C227.868 284.473 228.493 285.374 229.744 285.374C230.995 285.374 231.62 284.473 231.62 282.672C231.62 280.871 230.995 279.97 229.744 279.97ZM236.59 285.976C235.75 285.976 235.106 285.687 234.658 285.108C234.21 284.529 233.986 283.713 233.986 282.658C233.986 281.594 234.233 280.759 234.728 280.152C235.232 279.545 235.932 279.242 236.828 279.242C237.323 279.242 237.878 279.405 238.494 279.732L238.522 279.326H239.236V284.366C239.376 285.477 239.446 286.121 239.446 286.298C239.446 287.119 239.171 287.735 238.62 288.146C238.069 288.566 237.421 288.776 236.674 288.776C235.937 288.776 235.097 288.589 234.154 288.216L234.406 287.516C235.33 287.871 236.067 288.048 236.618 288.048C237.178 288.048 237.663 287.903 238.074 287.614C238.494 287.325 238.704 286.891 238.704 286.312L238.578 285.206C237.841 285.719 237.178 285.976 236.59 285.976ZM236.856 279.942C236.193 279.942 235.675 280.189 235.302 280.684C234.929 281.169 234.742 281.823 234.742 282.644C234.742 283.456 234.905 284.1 235.232 284.576C235.559 285.043 236.016 285.276 236.604 285.276C237.192 285.276 237.822 284.996 238.494 284.436V280.516C237.887 280.133 237.341 279.942 236.856 279.942ZM241.574 285.976V285.276H243.716V277.352L241.63 277.366L241.616 276.68L244.458 276.666V285.276H246.67V285.976H241.574ZM248.182 282.658C248.182 281.585 248.401 280.749 248.84 280.152C249.288 279.545 249.937 279.242 250.786 279.242C251.635 279.242 252.265 279.522 252.676 280.082C253.096 280.642 253.306 281.389 253.306 282.322L253.264 283.022H248.98C249.027 283.722 249.213 284.291 249.54 284.73C249.867 285.159 250.315 285.374 250.884 285.374C251.463 285.374 252.139 285.239 252.914 284.968L253.124 285.668C252.368 285.957 251.659 286.102 250.996 286.102C250.081 286.102 249.381 285.799 248.896 285.192C248.42 284.576 248.182 283.731 248.182 282.658ZM250.842 279.956C249.666 279.956 249.045 280.745 248.98 282.322H252.508C252.508 280.745 251.953 279.956 250.842 279.956ZM262.322 288.664V280.53L262.196 279.312L262.896 279.228L263.022 279.984C263.703 279.489 264.352 279.242 264.968 279.242C265.799 279.242 266.443 279.545 266.9 280.152C267.357 280.759 267.586 281.594 267.586 282.658C267.586 283.722 267.334 284.562 266.83 285.178C266.326 285.794 265.626 286.102 264.73 286.102C264.207 286.102 263.652 285.976 263.064 285.724V288.664H262.322ZM266.788 282.686C266.788 281.855 266.629 281.197 266.312 280.712C265.995 280.217 265.537 279.97 264.94 279.97C264.352 279.97 263.727 280.236 263.064 280.768V284.968C263.26 285.061 263.526 285.155 263.862 285.248C264.207 285.332 264.487 285.374 264.702 285.374C265.365 285.374 265.878 285.131 266.242 284.646C266.606 284.161 266.788 283.507 266.788 282.686ZM269.574 285.976V285.276H271.716V277.352L269.63 277.366L269.616 276.68L272.458 276.666V285.276H274.67V285.976H269.574ZM278.296 285.374C278.641 285.374 279.015 285.267 279.416 285.052C279.827 284.828 280.125 284.623 280.312 284.436V282.77C279.696 282.723 279.108 282.7 278.548 282.7C277.988 282.7 277.568 282.821 277.288 283.064C277.008 283.297 276.868 283.615 276.868 284.016C276.868 284.921 277.344 285.374 278.296 285.374ZM278.282 286.102C277.601 286.102 277.064 285.929 276.672 285.584C276.28 285.229 276.084 284.73 276.084 284.086C276.084 283.442 276.299 282.943 276.728 282.588C277.157 282.224 277.727 282.042 278.436 282.042C279.145 282.042 279.771 282.07 280.312 282.126C280.312 281.295 280.209 280.731 280.004 280.432C279.799 280.124 279.383 279.97 278.758 279.97C278.133 279.97 277.395 280.119 276.546 280.418L276.336 279.718C277.204 279.401 277.988 279.242 278.688 279.242C279.612 279.242 280.237 279.447 280.564 279.858C280.891 280.269 281.054 280.987 281.054 282.014V284.954L281.166 286.018L280.452 286.088L280.312 285.248C280.097 285.435 279.794 285.626 279.402 285.822C279.01 286.009 278.637 286.102 278.282 286.102ZM283.028 280.208V279.508H284.386V277.814L285.128 277.674V279.508H288.334V280.208H285.128V283.4C285.128 284.109 285.231 284.623 285.436 284.94C285.651 285.248 286.029 285.402 286.57 285.402C286.775 285.402 287.093 285.369 287.522 285.304C287.951 285.229 288.245 285.164 288.404 285.108L288.572 285.794C288.395 285.859 288.068 285.929 287.592 286.004C287.125 286.079 286.785 286.116 286.57 286.116C285.73 286.116 285.156 285.897 284.848 285.458C284.54 285.01 284.386 284.333 284.386 283.428V280.208H283.028ZM290.21 285.976V285.276H291.764V280.026H290.266V279.326H291.764C291.764 277.478 292.45 276.554 293.822 276.554C294.27 276.554 294.858 276.661 295.586 276.876L295.418 277.576C294.699 277.371 294.177 277.268 293.85 277.268C293.374 277.268 293.029 277.436 292.814 277.772C292.609 278.099 292.506 278.617 292.506 279.326H295.32V280.026H292.506V285.276H295.348V285.976H290.21ZM297.07 282.672C297.07 280.385 297.961 279.242 299.744 279.242C301.527 279.242 302.418 280.385 302.418 282.672C302.418 284.959 301.527 286.102 299.744 286.102C297.961 286.102 297.07 284.959 297.07 282.672ZM299.744 279.97C298.493 279.97 297.868 280.871 297.868 282.672C297.868 284.473 298.493 285.374 299.744 285.374C300.995 285.374 301.62 284.473 301.62 282.672C301.62 280.871 300.995 279.97 299.744 279.97ZM304.378 285.976V285.276H305.974V280.026H304.378V279.326H306.716L306.744 280.138C307.043 279.951 307.463 279.765 308.004 279.578C308.545 279.391 309.021 279.279 309.432 279.242H309.586V280.068H309.432C309.049 280.096 308.573 280.189 308.004 280.348C307.444 280.507 307.024 280.67 306.744 280.838V285.276H308.984V285.976H304.378ZM311.434 279.326L311.476 279.746C311.943 279.41 312.302 279.242 312.554 279.242C313.17 279.242 313.595 279.443 313.828 279.844C314.351 279.443 314.808 279.242 315.2 279.242C315.807 279.242 316.222 279.429 316.446 279.802C316.67 280.175 316.782 280.749 316.782 281.524V285.976H316.04V281.524C316.04 280.992 315.984 280.6 315.872 280.348C315.76 280.087 315.545 279.956 315.228 279.956C314.911 279.956 314.519 280.105 314.052 280.404C314.108 280.721 314.136 281.095 314.136 281.524V283.848H313.394V281.524C313.394 280.992 313.338 280.6 313.226 280.348C313.105 280.087 312.885 279.956 312.568 279.956C312.251 279.956 311.887 280.105 311.476 280.404V285.976H310.734V279.326H311.434Z" fill="black"/>
</svg>
