<svg width="432" height="321" viewBox="0 0 432 321" fill="none" xmlns="http://www.w3.org/2000/svg">
<rect x="10.9375" y="160.802" width="349" height="149" stroke="black"/>
<path d="M287.501 52.6786C301.441 34.7054 339.466 7.56453 380.05 42.7863C366.998 59.0432 330.214 83.7814 287.501 52.6786Z" stroke="black"/>
<path d="M208.096 101.65C230.105 107.149 276.697 104.929 286.995 52.0517C266.739 47.3525 222.6 50.6932 208.096 101.65Z" stroke="black"/>
<path d="M324.51 144.966C330.404 161.252 322.341 179.132 306.537 184.918C290.733 190.704 273.13 182.222 267.236 165.936C261.343 149.65 269.406 131.771 285.21 125.984C301.014 120.198 318.617 128.68 324.51 144.966Z" stroke="black"/>
<path d="M395.74 149.419C401.633 165.705 393.57 183.585 377.766 189.371C361.962 195.157 344.359 186.675 338.466 170.389C332.572 154.103 340.636 136.224 356.44 130.437C372.244 124.651 389.846 133.133 395.74 149.419Z" stroke="black"/>
<path d="M355.454 132.283C353.749 102.848 315.052 82.66 287.936 54.0703C290.603 81.7753 279.581 115.416 288.679 125.174" stroke="black"/>
<path d="M97.645 216.214C96.9712 217.386 96.1948 218.558 95.3159 219.73C94.4517 220.902 93.4775 221.964 92.3936 222.916C91.3242 223.854 90.1377 224.623 88.834 225.223C87.5303 225.809 86.1094 226.102 84.5713 226.102C83.3115 226.102 82.1323 225.912 81.0337 225.531C79.9351 225.135 78.9756 224.557 78.1553 223.795C77.3496 223.033 76.7124 222.103 76.2437 221.004C75.7896 219.891 75.5625 218.609 75.5625 217.159C75.5625 215.387 75.8335 213.761 76.3755 212.281C76.9321 210.787 77.6792 209.447 78.6167 208.26C79.5542 207.059 80.6455 206.012 81.8906 205.118C83.1357 204.21 84.4614 203.456 85.8677 202.855C87.2739 202.24 88.7168 201.786 90.1963 201.493C91.6904 201.185 93.1406 201.039 94.5469 201.053C96.0703 201.068 97.5571 201.288 99.0073 201.712C100.472 202.137 101.769 202.789 102.896 203.668C104.039 204.532 104.955 205.631 105.643 206.964C106.332 208.297 106.676 209.872 106.676 211.688C106.676 212.948 106.456 214.361 106.017 215.929C105.577 217.481 104.815 219.203 103.731 221.092C102.472 223.29 101.38 225.165 100.458 226.717C99.5347 228.255 98.7656 229.552 98.1504 230.606C97.5498 231.646 97.103 232.481 96.8101 233.111C96.5171 233.727 96.3706 234.217 96.3706 234.583C96.3706 234.935 96.5244 235.213 96.832 235.418C97.1543 235.624 97.6011 235.726 98.1724 235.726C98.9487 235.726 99.8643 235.521 100.919 235.111C101.974 234.701 103.138 234.085 104.413 233.265C105.57 232.533 106.712 231.69 107.84 230.738C108.968 229.786 110.067 228.775 111.136 227.706C112.22 226.622 113.26 225.501 114.256 224.344C115.267 223.187 116.219 222.037 117.113 220.895C118.006 219.737 118.834 218.609 119.596 217.511C120.357 216.412 121.039 215.379 121.639 214.413C121.346 213.504 121.134 212.64 121.002 211.82C120.87 210.985 120.804 210.201 120.804 209.469C120.804 208.575 120.885 207.784 121.046 207.096C121.207 206.393 121.419 205.807 121.683 205.338C121.961 204.854 122.284 204.488 122.65 204.239C123.031 203.99 123.434 203.866 123.858 203.866C124.225 203.866 124.54 203.954 124.803 204.129C125.082 204.291 125.309 204.503 125.484 204.767C125.66 205.03 125.792 205.331 125.88 205.667C125.968 206.004 126.012 206.341 126.012 206.678C126.012 207.191 125.924 207.813 125.748 208.546C125.572 209.278 125.25 210.143 124.781 211.139C124.386 211.988 123.829 213.014 123.111 214.215C122.394 215.416 121.544 216.72 120.562 218.126C119.596 219.518 118.519 220.96 117.333 222.455C116.161 223.949 114.908 225.414 113.575 226.849C112.242 228.27 110.851 229.618 109.4 230.892C107.965 232.167 106.507 233.28 105.028 234.232C103.46 235.243 102.12 235.938 101.007 236.319C99.8936 236.7 98.9561 236.891 98.1943 236.891C97.5059 236.891 96.9272 236.788 96.4585 236.583C96.0044 236.378 95.6382 236.1 95.3599 235.748C95.0815 235.411 94.8838 235.03 94.7666 234.605C94.6494 234.181 94.5908 233.749 94.5908 233.309C94.5908 232.782 94.6714 232.225 94.8325 231.639C94.9937 231.053 95.2427 230.482 95.5796 229.925C95.9751 229.266 96.4731 228.46 97.0737 227.508C97.6743 226.556 98.3115 225.516 98.9854 224.388C99.6738 223.26 100.362 222.074 101.051 220.829C101.739 219.569 102.354 218.316 102.896 217.071C103.453 215.812 103.9 214.581 104.237 213.38C104.588 212.179 104.764 211.065 104.764 210.04C104.764 209.044 104.537 208.077 104.083 207.14C103.644 206.202 102.984 205.367 102.105 204.635C101.241 203.902 100.172 203.316 98.8975 202.877C97.623 202.423 96.1509 202.196 94.481 202.196C92.9868 202.196 91.5439 202.379 90.1523 202.745C88.7754 203.097 87.479 203.595 86.2632 204.239C85.0474 204.884 83.9341 205.66 82.9233 206.568C81.9272 207.462 81.0703 208.451 80.3525 209.535C79.6348 210.604 79.0781 211.754 78.6826 212.984C78.2871 214.2 78.0894 215.453 78.0894 216.742C78.0894 217.972 78.2798 219.063 78.6606 220.016C79.0562 220.953 79.5835 221.737 80.2427 222.367C80.9019 222.997 81.6636 223.473 82.5278 223.795C83.3921 224.117 84.3003 224.278 85.2524 224.278C86.2778 224.278 87.3105 224.081 88.3506 223.685C89.3906 223.29 90.4014 222.718 91.3828 221.971C92.3789 221.224 93.3311 220.323 94.2393 219.269C95.1475 218.199 95.9897 217.005 96.7661 215.687L97.645 216.214ZM122.43 213.072C122.928 212.237 123.331 211.49 123.639 210.831C123.961 210.172 124.21 209.586 124.386 209.073C124.562 208.561 124.679 208.114 124.737 207.733C124.811 207.337 124.847 206.993 124.847 206.7C124.847 206.524 124.833 206.341 124.803 206.151C124.774 205.946 124.715 205.763 124.627 205.602C124.554 205.426 124.444 205.287 124.298 205.184C124.166 205.082 123.983 205.03 123.749 205.03C123.485 205.03 123.243 205.155 123.023 205.404C122.804 205.638 122.613 205.96 122.452 206.371C122.291 206.766 122.167 207.235 122.079 207.777C121.991 208.304 121.947 208.875 121.947 209.491C121.947 210.018 121.983 210.582 122.057 211.183C122.13 211.783 122.254 212.413 122.43 213.072ZM132.142 213.688C132.142 213.98 132.069 214.288 131.922 214.61C131.776 214.918 131.585 215.196 131.351 215.445C131.131 215.694 130.882 215.899 130.604 216.061C130.326 216.222 130.047 216.302 129.769 216.302C129.52 216.302 129.33 216.214 129.198 216.039C129.066 215.848 129 215.621 129 215.357C129 215.123 129.044 214.845 129.132 214.522C129.22 214.2 129.352 213.9 129.527 213.622C129.703 213.329 129.916 213.08 130.165 212.875C130.414 212.669 130.699 212.567 131.021 212.567C131.329 212.567 131.593 212.684 131.812 212.918C132.032 213.153 132.142 213.409 132.142 213.688ZM128.033 218.565C127.843 218.946 127.572 219.452 127.22 220.082C126.883 220.697 126.517 221.378 126.122 222.125C125.726 222.857 125.323 223.634 124.913 224.454C124.503 225.26 124.129 226.051 123.792 226.827C123.47 227.589 123.207 228.307 123.001 228.98C122.796 229.654 122.694 230.226 122.694 230.694C122.694 231.119 122.782 231.412 122.958 231.573C123.133 231.72 123.382 231.793 123.705 231.793C124.305 231.793 124.891 231.595 125.462 231.2C126.034 230.804 126.598 230.292 127.154 229.662C127.726 229.017 128.282 228.285 128.824 227.464C129.366 226.644 129.908 225.816 130.45 224.981L131.241 225.597C130.816 226.358 130.333 227.171 129.791 228.036C129.264 228.9 128.67 229.706 128.011 230.453C127.352 231.185 126.627 231.793 125.836 232.276C125.045 232.76 124.181 233.001 123.243 233.001C122.364 233.001 121.69 232.738 121.222 232.21C120.753 231.683 120.519 231.002 120.519 230.167C120.519 229.186 120.746 228.16 121.2 227.091C121.654 226.021 122.218 224.967 122.892 223.927C123.58 222.872 124.32 221.861 125.111 220.895C125.917 219.928 126.656 219.049 127.33 218.258L128.033 218.565ZM137.503 215.929C137.43 216.061 137.335 216.207 137.218 216.368C137.101 216.515 136.983 216.69 136.866 216.896C136.764 217.086 136.668 217.313 136.581 217.577C136.507 217.84 136.471 218.155 136.471 218.521C136.471 218.829 136.544 219.247 136.69 219.774C136.852 220.301 137.02 220.909 137.196 221.598C137.372 222.271 137.533 223.011 137.679 223.817C137.84 224.608 137.921 225.428 137.921 226.278C137.921 227.523 137.752 228.622 137.416 229.574C137.079 230.526 136.632 231.339 136.075 232.013C137.218 231.397 138.338 230.519 139.437 229.376C140.536 228.219 141.642 226.754 142.755 224.981L143.502 225.641C142.872 226.681 142.154 227.713 141.349 228.739C140.558 229.75 139.686 230.665 138.734 231.485C137.782 232.291 136.756 232.943 135.658 233.441C134.559 233.954 133.395 234.21 132.164 234.21C131.065 234.21 130.143 233.946 129.396 233.419C128.634 232.906 128.165 232.13 127.989 231.09L128.78 230.936C128.78 231.024 128.824 231.17 128.912 231.375C128.985 231.566 129.11 231.756 129.286 231.947C129.461 232.137 129.703 232.306 130.011 232.452C130.304 232.599 130.67 232.672 131.109 232.672C131.695 232.672 132.215 232.54 132.669 232.276C133.124 231.998 133.519 231.639 133.856 231.2C134.193 230.76 134.479 230.262 134.713 229.706C134.947 229.134 135.13 228.548 135.262 227.948C135.409 227.347 135.511 226.761 135.57 226.19C135.628 225.619 135.658 225.099 135.658 224.63C135.658 224.161 135.636 223.641 135.592 223.07C135.562 222.499 135.526 221.957 135.482 221.444C135.438 220.917 135.394 220.462 135.35 220.082C135.321 219.686 135.306 219.43 135.306 219.312V219.269C135.116 219.474 134.889 219.774 134.625 220.169C134.361 220.565 134.076 220.997 133.768 221.466C133.475 221.935 133.175 222.411 132.867 222.894C132.574 223.377 132.303 223.817 132.054 224.212C131.82 224.608 131.622 224.938 131.461 225.201C131.314 225.45 131.241 225.582 131.241 225.597L130.45 224.981C130.465 224.967 130.648 224.652 131 224.037C131.351 223.421 131.812 222.645 132.384 221.708C132.97 220.755 133.629 219.708 134.361 218.565C135.094 217.408 135.848 216.288 136.625 215.204L137.503 215.929ZM152.994 228.387C152.32 229.178 151.654 229.911 150.995 230.584C150.335 231.244 149.676 231.815 149.017 232.298C148.373 232.767 147.728 233.133 147.083 233.397C146.439 233.675 145.787 233.814 145.128 233.814C144.571 233.814 144.066 233.712 143.612 233.507C143.172 233.316 142.792 233.045 142.469 232.694C142.132 232.328 141.876 231.888 141.7 231.375C141.524 230.848 141.437 230.262 141.437 229.618C141.437 228.607 141.664 227.567 142.118 226.498C142.557 225.428 143.114 224.388 143.788 223.377C144.476 222.367 145.23 221.407 146.051 220.499C146.886 219.591 147.677 218.785 148.424 218.082L149.369 218.741C148.841 219.518 148.248 220.396 147.589 221.378C146.944 222.359 146.329 223.377 145.743 224.432C145.172 225.472 144.688 226.52 144.293 227.574C143.897 228.614 143.7 229.581 143.7 230.475C143.7 231.075 143.81 231.588 144.029 232.013C144.264 232.438 144.703 232.65 145.348 232.65C146.051 232.65 146.82 232.372 147.655 231.815C148.504 231.258 149.369 230.533 150.248 229.64C151.141 228.746 152.027 227.743 152.906 226.629C153.8 225.501 154.642 224.366 155.433 223.224C156.224 222.081 156.942 220.99 157.586 219.95C158.246 218.91 158.78 218.023 159.19 217.291L160.794 218.082C159.945 219.752 159.125 221.312 158.333 222.762C157.557 224.198 156.861 225.494 156.246 226.651C155.646 227.794 155.162 228.79 154.796 229.64C154.444 230.489 154.269 231.163 154.269 231.661C154.269 231.866 154.312 232.035 154.4 232.167C154.488 232.298 154.627 232.364 154.818 232.364C155.36 232.379 155.953 232.145 156.598 231.661C157.257 231.178 157.916 230.57 158.575 229.837C159.249 229.105 159.901 228.307 160.531 227.442C161.175 226.563 161.754 225.743 162.267 224.981L163.058 225.597C162.97 225.743 162.787 226.043 162.508 226.498C162.23 226.952 161.886 227.472 161.476 228.058C161.065 228.644 160.597 229.259 160.069 229.903C159.542 230.548 158.985 231.141 158.399 231.683C157.813 232.21 157.206 232.65 156.576 233.001C155.946 233.338 155.323 233.507 154.708 233.507C154.327 233.507 153.983 233.441 153.675 233.309C153.382 233.177 153.133 233.001 152.928 232.782C152.723 232.562 152.562 232.306 152.445 232.013C152.328 231.72 152.269 231.412 152.269 231.09C152.269 230.709 152.328 230.292 152.445 229.837C152.577 229.383 152.76 228.9 152.994 228.387ZM179.735 218.565C179.544 218.946 179.273 219.444 178.922 220.06C178.585 220.675 178.219 221.356 177.823 222.103C177.428 222.835 177.025 223.604 176.615 224.41C176.219 225.216 175.853 226.007 175.516 226.783C175.194 227.545 174.923 228.27 174.703 228.958C174.498 229.632 174.396 230.204 174.396 230.672C174.396 231.141 174.483 231.449 174.659 231.595C174.85 231.727 175.091 231.793 175.384 231.793C175.809 231.793 176.241 231.668 176.681 231.419C177.135 231.17 177.574 230.848 177.999 230.453C178.438 230.057 178.863 229.61 179.273 229.112C179.684 228.614 180.064 228.116 180.416 227.618C180.782 227.105 181.112 226.622 181.405 226.168C181.698 225.699 181.947 225.304 182.152 224.981L182.943 225.597C182.694 226.065 182.401 226.571 182.064 227.113C181.727 227.655 181.354 228.204 180.943 228.761C180.548 229.303 180.116 229.83 179.647 230.343C179.178 230.855 178.68 231.31 178.153 231.705C177.64 232.101 177.098 232.416 176.527 232.65C175.956 232.884 175.37 233.001 174.769 233.001C173.89 233.001 173.246 232.738 172.835 232.21C172.425 231.683 172.22 231.002 172.22 230.167C172.22 230.108 172.22 229.984 172.22 229.793C172.235 229.588 172.257 229.427 172.286 229.31C171.554 230.233 170.851 230.995 170.177 231.595C169.518 232.196 168.873 232.672 168.243 233.023C167.628 233.375 167.027 233.617 166.441 233.749C165.87 233.895 165.321 233.968 164.793 233.968C164.237 233.968 163.709 233.873 163.211 233.683C162.728 233.507 162.303 233.243 161.937 232.892C161.556 232.54 161.263 232.108 161.058 231.595C160.838 231.083 160.729 230.489 160.729 229.815C160.729 228.98 160.919 228.028 161.3 226.959C161.666 225.875 162.325 224.71 163.277 223.465C164.083 222.396 164.918 221.495 165.782 220.763C166.661 220.03 167.518 219.444 168.353 219.005C169.203 218.551 170.008 218.229 170.77 218.038C171.532 217.848 172.213 217.752 172.813 217.752C174.161 217.752 175.179 217.979 175.868 218.434C176.556 218.873 176.974 219.554 177.12 220.477C177.413 220.111 177.721 219.745 178.043 219.378C178.365 219.012 178.695 218.639 179.032 218.258L179.735 218.565ZM172.989 226.915C173.18 226.607 173.414 226.219 173.692 225.75C173.971 225.267 174.264 224.776 174.571 224.278C174.879 223.766 175.179 223.275 175.472 222.806C175.765 222.337 176.021 221.942 176.241 221.62C176.241 221.488 176.219 221.275 176.175 220.982C176.146 220.689 176.051 220.396 175.89 220.104C175.729 219.796 175.472 219.532 175.121 219.312C174.769 219.093 174.278 218.983 173.648 218.983C173.194 218.983 172.682 219.056 172.11 219.203C171.554 219.334 170.953 219.569 170.309 219.906C169.679 220.228 169.027 220.66 168.353 221.202C167.679 221.744 167.005 222.418 166.332 223.224C165.321 224.439 164.537 225.663 163.98 226.893C163.438 228.109 163.167 229.208 163.167 230.189C163.167 231.024 163.358 231.668 163.739 232.123C164.12 232.577 164.662 232.804 165.365 232.804C166.17 232.804 166.925 232.628 167.628 232.276C168.331 231.91 168.99 231.441 169.605 230.87C170.221 230.299 170.807 229.669 171.363 228.98C171.92 228.277 172.462 227.589 172.989 226.915ZM198.082 201.207C198.595 201.207 199.02 201.332 199.356 201.581C199.708 201.83 199.884 202.284 199.884 202.943C199.884 203.397 199.789 203.939 199.598 204.569C199.422 205.199 199.173 205.887 198.851 206.634C198.543 207.367 198.177 208.143 197.752 208.963C197.328 209.769 196.866 210.575 196.368 211.38C195.885 212.186 195.372 212.97 194.83 213.731C194.303 214.493 193.775 215.196 193.248 215.841C192.193 217.145 191.278 218.243 190.501 219.137C189.74 220.03 189.081 220.792 188.524 221.422C187.967 222.037 187.499 222.542 187.118 222.938C186.737 223.319 186.4 223.648 186.107 223.927C185.814 224.205 185.543 224.461 185.294 224.696C185.045 224.916 184.789 225.165 184.525 225.443C184.408 226 184.349 226.534 184.349 227.047C184.364 227.545 184.371 228.006 184.371 228.431C184.371 229.706 184.576 230.65 184.986 231.266C185.396 231.881 185.975 232.188 186.722 232.188C187.22 232.188 187.718 232.064 188.216 231.815C188.729 231.551 189.234 231.214 189.732 230.804C190.23 230.394 190.714 229.933 191.183 229.42C191.651 228.893 192.091 228.365 192.501 227.838C192.926 227.296 193.307 226.776 193.644 226.278C193.98 225.78 194.273 225.348 194.522 224.981L195.335 225.597C195.292 225.655 195.145 225.89 194.896 226.3C194.662 226.695 194.347 227.179 193.951 227.75C193.556 228.321 193.087 228.937 192.545 229.596C192.003 230.24 191.417 230.841 190.787 231.397C190.157 231.954 189.491 232.416 188.788 232.782C188.099 233.148 187.396 233.331 186.678 233.331C186.078 233.331 185.499 233.221 184.942 233.001C184.4 232.767 183.917 232.408 183.492 231.925C183.082 231.427 182.745 230.797 182.481 230.035C182.232 229.273 182.108 228.358 182.108 227.289C182.108 225.956 182.262 224.564 182.569 223.114C182.892 221.649 183.324 220.184 183.866 218.719C184.408 217.24 185.045 215.782 185.777 214.347C186.51 212.911 187.286 211.549 188.106 210.26C188.941 208.956 189.806 207.755 190.699 206.656C191.607 205.543 192.494 204.583 193.358 203.778C194.237 202.972 195.079 202.342 195.885 201.888C196.69 201.434 197.423 201.207 198.082 201.207ZM184.92 223.487C186.166 222.198 187.367 220.895 188.524 219.576C189.696 218.243 190.787 216.932 191.798 215.643C192.823 214.339 193.761 213.08 194.61 211.864C195.46 210.633 196.185 209.476 196.786 208.392C197.386 207.308 197.855 206.319 198.192 205.426C198.529 204.532 198.697 203.763 198.697 203.119C198.697 203.001 198.639 202.848 198.521 202.657C198.404 202.452 198.265 202.35 198.104 202.35C197.65 202.35 197.049 202.65 196.302 203.25C195.555 203.851 194.742 204.671 193.863 205.711C192.999 206.737 192.098 207.938 191.161 209.315C190.238 210.692 189.366 212.164 188.546 213.731C187.726 215.299 186.993 216.917 186.349 218.587C185.704 220.257 185.228 221.891 184.92 223.487ZM254.112 205.755C254.112 206.693 253.929 207.667 253.563 208.678C253.197 209.688 252.662 210.685 251.959 211.666C251.256 212.647 250.384 213.592 249.344 214.5C248.319 215.409 247.132 216.236 245.785 216.983C244.452 217.716 242.972 218.346 241.346 218.873C239.72 219.4 237.962 219.774 236.073 219.994C235.296 221.415 234.491 222.828 233.656 224.234C232.821 225.626 231.935 226.959 230.997 228.233C230.06 229.493 229.063 230.665 228.009 231.749C226.969 232.818 225.848 233.749 224.647 234.54C223.46 235.331 222.179 235.946 220.802 236.385C219.439 236.839 217.975 237.066 216.407 237.066C215.118 237.066 213.866 236.876 212.65 236.495C211.449 236.129 210.379 235.587 209.442 234.869C208.519 234.166 207.779 233.302 207.223 232.276C206.666 231.251 206.388 230.079 206.388 228.761C206.388 227.34 206.651 226.102 207.179 225.047C207.691 223.993 208.373 223.114 209.222 222.411C210.086 221.708 211.061 221.188 212.145 220.851C213.229 220.499 214.334 220.323 215.462 220.323C216.327 220.323 217.176 220.411 218.011 220.587C218.861 220.748 219.667 220.982 220.428 221.29C221.205 221.598 221.922 221.964 222.582 222.389C223.255 222.813 223.849 223.282 224.361 223.795L223.702 224.498C223.351 224.161 222.933 223.839 222.45 223.531C221.981 223.224 221.439 222.953 220.824 222.718C220.208 222.469 219.535 222.279 218.802 222.147C218.07 222 217.279 221.927 216.429 221.927C215.448 221.927 214.496 222.096 213.573 222.433C212.65 222.755 211.83 223.231 211.112 223.861C210.394 224.476 209.815 225.238 209.376 226.146C208.937 227.04 208.717 228.065 208.717 229.222C208.717 230.16 208.9 231.039 209.266 231.859C209.647 232.665 210.174 233.36 210.848 233.946C211.537 234.547 212.342 235.016 213.265 235.353C214.203 235.689 215.235 235.858 216.363 235.858C217.652 235.858 218.861 235.653 219.989 235.243C221.131 234.847 222.193 234.291 223.175 233.573C224.171 232.87 225.108 232.027 225.987 231.046C226.881 230.064 227.723 228.995 228.514 227.838C229.32 226.666 230.089 225.436 230.821 224.146C231.554 222.857 232.279 221.539 232.997 220.191H232.403C229.942 220.191 227.723 219.942 225.746 219.444C223.783 218.932 222.105 218.236 220.714 217.357C219.337 216.478 218.275 215.453 217.528 214.281C216.795 213.094 216.429 211.82 216.429 210.458C216.429 209.095 216.693 207.894 217.22 206.854C217.748 205.814 218.465 204.942 219.374 204.239C220.282 203.536 221.336 203.009 222.538 202.657C223.739 202.291 225.013 202.108 226.361 202.108C227.518 202.108 228.58 202.203 229.547 202.394C230.514 202.569 231.378 202.804 232.14 203.097C232.916 203.375 233.597 203.683 234.183 204.02C234.784 204.356 235.289 204.679 235.699 204.986C236.109 205.294 236.432 205.565 236.666 205.799C236.9 206.034 237.054 206.188 237.127 206.261L236.38 206.92C236.366 206.905 236.153 206.722 235.743 206.371C235.333 206.004 234.754 205.609 234.007 205.184C233.26 204.745 232.359 204.349 231.305 203.998C230.25 203.631 229.078 203.448 227.789 203.448C226.485 203.448 225.284 203.631 224.186 203.998C223.102 204.364 222.164 204.876 221.373 205.536C220.582 206.18 219.959 206.949 219.505 207.843C219.066 208.736 218.846 209.71 218.846 210.765C218.846 212.01 219.19 213.146 219.879 214.171C220.567 215.182 221.52 216.053 222.735 216.786C223.966 217.503 225.409 218.067 227.064 218.478C228.734 218.873 230.55 219.071 232.513 219.071H233.568C234.33 217.621 235.084 216.185 235.831 214.764C236.593 213.329 237.369 211.966 238.16 210.677C238.951 209.374 239.771 208.165 240.621 207.052C241.471 205.938 242.372 204.979 243.324 204.173C244.276 203.353 245.294 202.716 246.378 202.262C247.462 201.793 248.626 201.559 249.872 201.559C250.384 201.559 250.89 201.632 251.388 201.778C251.9 201.91 252.354 202.145 252.75 202.481C253.16 202.804 253.49 203.236 253.739 203.778C253.988 204.305 254.112 204.964 254.112 205.755ZM250.333 202.745C249.41 202.745 248.531 202.95 247.696 203.36C246.861 203.771 246.063 204.349 245.301 205.096C244.54 205.829 243.8 206.7 243.082 207.711C242.364 208.707 241.654 209.806 240.951 211.007C240.262 212.193 239.566 213.453 238.863 214.786C238.16 216.104 237.442 217.445 236.71 218.807C238.614 218.558 240.343 218.155 241.896 217.599C243.448 217.042 244.825 216.397 246.026 215.665C247.228 214.918 248.268 214.112 249.146 213.248C250.025 212.384 250.75 211.52 251.322 210.655C251.893 209.791 252.311 208.963 252.574 208.172C252.853 207.367 252.992 206.649 252.992 206.019C252.992 205.55 252.94 205.118 252.838 204.723C252.75 204.327 252.604 203.983 252.398 203.69C252.193 203.397 251.922 203.17 251.585 203.009C251.249 202.833 250.831 202.745 250.333 202.745ZM251.981 215.05C252.127 214.801 252.384 214.369 252.75 213.753C253.131 213.138 253.57 212.457 254.068 211.71C254.581 210.963 255.13 210.216 255.716 209.469C256.317 208.707 256.903 208.062 257.474 207.535L258.463 208.128C257.833 209.168 257.188 210.274 256.529 211.446C255.87 212.604 255.218 213.805 254.574 215.05H261.737L261.297 216.192H253.98C253.321 217.511 252.699 218.822 252.113 220.125C251.542 221.429 251.036 222.674 250.597 223.861C250.157 225.047 249.813 226.161 249.564 227.201C249.315 228.226 249.19 229.12 249.19 229.881C249.19 230.833 249.41 231.522 249.85 231.947C250.289 232.357 250.831 232.562 251.476 232.562C252.047 232.562 252.633 232.394 253.233 232.057C253.834 231.705 254.42 231.266 254.991 230.738C255.577 230.211 256.126 229.632 256.639 229.002C257.167 228.373 257.628 227.779 258.023 227.223C258.434 226.666 258.771 226.183 259.034 225.772C259.298 225.348 259.459 225.084 259.518 224.981L260.331 225.597C259.818 226.446 259.239 227.347 258.595 228.299C257.95 229.251 257.232 230.138 256.441 230.958C255.665 231.764 254.815 232.438 253.893 232.979C252.97 233.507 251.974 233.771 250.904 233.771C250.245 233.771 249.667 233.653 249.168 233.419C248.685 233.185 248.275 232.862 247.938 232.452C247.601 232.027 247.352 231.529 247.191 230.958C247.015 230.387 246.927 229.764 246.927 229.09C246.927 228.651 247 228.028 247.147 227.223C247.279 226.417 247.513 225.465 247.85 224.366C248.187 223.253 248.634 222.008 249.19 220.631C249.762 219.254 250.479 217.774 251.344 216.192H247.696L248.136 215.05H251.981ZM271.91 227.201C271.969 227.215 272.027 227.223 272.086 227.223C272.145 227.223 272.21 227.223 272.284 227.223C272.694 227.223 273.067 227.186 273.404 227.113C273.741 227.025 274.049 226.893 274.327 226.717C274.62 226.542 274.898 226.314 275.162 226.036C275.426 225.743 275.682 225.392 275.931 224.981L276.722 225.597C276.019 226.593 275.294 227.289 274.547 227.684C273.8 228.08 273.009 228.277 272.174 228.277C271.866 228.277 271.595 228.248 271.361 228.189C270.731 229.244 270.057 230.145 269.339 230.892C268.622 231.625 267.889 232.225 267.142 232.694C266.395 233.163 265.655 233.5 264.923 233.705C264.19 233.924 263.509 234.034 262.879 234.034C262.235 234.034 261.634 233.917 261.078 233.683C260.536 233.463 260.067 233.141 259.671 232.716C259.276 232.291 258.968 231.786 258.749 231.2C258.529 230.614 258.419 229.955 258.419 229.222C258.419 228.49 258.536 227.743 258.771 226.981C259.005 226.219 259.32 225.465 259.715 224.718C260.125 223.971 260.602 223.253 261.144 222.564C261.686 221.861 262.271 221.209 262.901 220.609C263.531 220.008 264.183 219.466 264.857 218.983C265.531 218.5 266.205 218.104 266.878 217.796L267.582 218.719C266.805 219.276 266.014 219.979 265.208 220.829C264.417 221.678 263.692 222.608 263.033 223.619C262.389 224.63 261.854 225.685 261.429 226.783C261.019 227.867 260.814 228.922 260.814 229.947C260.814 230.87 261.019 231.588 261.429 232.101C261.839 232.599 262.462 232.848 263.297 232.848C263.941 232.848 264.579 232.716 265.208 232.452C265.838 232.188 266.454 231.83 267.054 231.375C267.655 230.921 268.233 230.387 268.79 229.771C269.347 229.142 269.874 228.475 270.372 227.772C269.947 227.523 269.574 227.193 269.251 226.783C268.929 226.358 268.658 225.882 268.438 225.355C268.219 224.813 268.05 224.234 267.933 223.619C267.831 223.004 267.779 222.374 267.779 221.729C267.779 221.085 267.86 220.477 268.021 219.906C268.182 219.334 268.402 218.836 268.68 218.412C268.973 217.972 269.31 217.628 269.691 217.379C270.072 217.13 270.489 217.005 270.943 217.005C271.354 217.005 271.72 217.115 272.042 217.335C272.364 217.54 272.635 217.833 272.855 218.214C273.075 218.58 273.243 219.02 273.36 219.532C273.478 220.045 273.536 220.594 273.536 221.18C273.536 221.62 273.5 222.103 273.426 222.63C273.353 223.158 273.243 223.692 273.097 224.234C272.965 224.762 272.796 225.289 272.591 225.816C272.401 226.329 272.174 226.791 271.91 227.201ZM268.922 221.729C268.922 222.154 268.958 222.616 269.032 223.114C269.105 223.612 269.222 224.095 269.383 224.564C269.544 225.033 269.75 225.472 269.999 225.882C270.248 226.278 270.555 226.593 270.921 226.827C271.185 226.314 271.405 225.794 271.581 225.267C271.771 224.725 271.925 224.205 272.042 223.707C272.174 223.209 272.262 222.748 272.306 222.323C272.364 221.883 272.394 221.502 272.394 221.18C272.394 220.741 272.357 220.338 272.284 219.972C272.21 219.605 272.108 219.291 271.976 219.027C271.859 218.749 271.705 218.536 271.515 218.39C271.339 218.229 271.141 218.148 270.921 218.148C270.628 218.148 270.357 218.25 270.108 218.456C269.859 218.646 269.647 218.91 269.471 219.247C269.295 219.569 269.156 219.95 269.054 220.389C268.966 220.814 268.922 221.261 268.922 221.729ZM289.818 225.597C289.598 225.919 289.334 226.358 289.027 226.915C288.734 227.457 288.39 228.05 287.994 228.695C287.599 229.325 287.159 229.969 286.676 230.628C286.207 231.288 285.687 231.881 285.116 232.408C284.559 232.936 283.951 233.368 283.292 233.705C282.633 234.042 281.93 234.21 281.183 234.21C280.772 234.21 280.384 234.144 280.018 234.012C279.652 233.895 279.33 233.705 279.051 233.441C278.773 233.177 278.553 232.855 278.392 232.474C278.231 232.079 278.15 231.617 278.15 231.09C278.15 230.372 278.29 229.625 278.568 228.849C278.861 228.058 279.198 227.296 279.579 226.563C279.959 225.831 280.34 225.165 280.721 224.564C281.102 223.949 281.38 223.458 281.556 223.092C281.732 222.726 281.82 222.411 281.82 222.147C281.82 221.957 281.754 221.788 281.622 221.642C281.505 221.495 281.351 221.356 281.161 221.224C280.985 221.078 280.794 220.931 280.589 220.785C280.399 220.624 280.238 220.433 280.106 220.213C279.74 220.799 279.366 221.393 278.985 221.993C278.648 222.506 278.282 223.084 277.887 223.729C277.491 224.359 277.11 224.981 276.744 225.597L275.953 224.981L280.655 217.621L281.292 217.95C281.263 218.038 281.212 218.177 281.139 218.368C281.08 218.558 281.051 218.763 281.051 218.983C281.051 219.144 281.073 219.305 281.117 219.466C281.175 219.613 281.285 219.752 281.446 219.884C282.032 220.411 282.494 220.821 282.831 221.114C283.167 221.393 283.409 221.62 283.556 221.795C283.717 221.957 283.812 222.096 283.841 222.213C283.885 222.315 283.907 222.455 283.907 222.63C283.907 222.806 283.878 223.019 283.819 223.268C283.761 223.517 283.658 223.817 283.512 224.168C283.38 224.52 283.189 224.938 282.94 225.421C282.706 225.89 282.406 226.439 282.04 227.069C281.82 227.45 281.6 227.838 281.38 228.233C281.175 228.614 280.985 229.002 280.809 229.398C280.648 229.793 280.516 230.189 280.414 230.584C280.311 230.98 280.26 231.361 280.26 231.727C280.26 232.005 280.296 232.232 280.37 232.408C280.458 232.569 280.567 232.694 280.699 232.782C280.831 232.87 280.97 232.928 281.117 232.958C281.278 232.987 281.432 233.001 281.578 233.001C282.062 233.001 282.538 232.862 283.006 232.584C283.49 232.291 283.958 231.917 284.413 231.463C284.881 231.009 285.328 230.497 285.753 229.925C286.192 229.339 286.61 228.746 287.005 228.146C287.401 227.545 287.767 226.974 288.104 226.432C288.441 225.875 288.741 225.392 289.005 224.981L289.818 225.597ZM298.871 213.688C298.871 213.98 298.797 214.288 298.651 214.61C298.504 214.918 298.314 215.196 298.08 215.445C297.86 215.694 297.611 215.899 297.333 216.061C297.054 216.222 296.776 216.302 296.498 216.302C296.249 216.302 296.058 216.214 295.926 216.039C295.794 215.848 295.729 215.621 295.729 215.357C295.729 215.123 295.772 214.845 295.86 214.522C295.948 214.2 296.08 213.9 296.256 213.622C296.432 213.329 296.644 213.08 296.893 212.875C297.142 212.669 297.428 212.567 297.75 212.567C298.058 212.567 298.321 212.684 298.541 212.918C298.761 213.153 298.871 213.409 298.871 213.688ZM294.762 218.565C294.571 218.946 294.3 219.452 293.949 220.082C293.612 220.697 293.246 221.378 292.85 222.125C292.455 222.857 292.052 223.634 291.642 224.454C291.231 225.26 290.858 226.051 290.521 226.827C290.199 227.589 289.935 228.307 289.73 228.98C289.525 229.654 289.422 230.226 289.422 230.694C289.422 231.119 289.51 231.412 289.686 231.573C289.862 231.72 290.111 231.793 290.433 231.793C291.034 231.793 291.62 231.595 292.191 231.2C292.762 230.804 293.326 230.292 293.883 229.662C294.454 229.017 295.011 228.285 295.553 227.464C296.095 226.644 296.637 225.816 297.179 224.981L297.97 225.597C297.545 226.358 297.062 227.171 296.52 228.036C295.992 228.9 295.399 229.706 294.74 230.453C294.081 231.185 293.355 231.793 292.564 232.276C291.773 232.76 290.909 233.001 289.972 233.001C289.093 233.001 288.419 232.738 287.95 232.21C287.481 231.683 287.247 231.002 287.247 230.167C287.247 229.186 287.474 228.16 287.928 227.091C288.382 226.021 288.946 224.967 289.62 223.927C290.309 222.872 291.048 221.861 291.839 220.895C292.645 219.928 293.385 219.049 294.059 218.258L294.762 218.565ZM298.849 228.167C298.819 228.343 298.797 228.519 298.783 228.695C298.768 228.871 298.761 229.046 298.761 229.222C298.761 229.75 298.834 230.255 298.98 230.738C299.142 231.207 299.369 231.625 299.662 231.991C299.969 232.342 300.343 232.621 300.782 232.826C301.236 233.031 301.749 233.133 302.32 233.133C304.239 233.133 306.092 232.481 307.879 231.178C309.667 229.874 311.446 227.809 313.219 224.981L313.966 225.641C312.999 227.252 312.018 228.614 311.021 229.728C310.025 230.826 309.029 231.72 308.033 232.408C307.052 233.097 306.085 233.595 305.133 233.902C304.181 234.21 303.272 234.364 302.408 234.364C301.778 234.364 301.112 234.276 300.409 234.1C299.706 233.924 299.054 233.631 298.453 233.221C297.867 232.811 297.384 232.262 297.003 231.573C296.607 230.885 296.41 230.028 296.41 229.002C296.41 227.904 296.6 226.849 296.981 225.838C297.347 224.813 297.831 223.861 298.431 222.982C299.032 222.103 299.72 221.305 300.497 220.587C301.273 219.854 302.057 219.232 302.848 218.719C303.653 218.207 304.437 217.811 305.199 217.533C305.96 217.24 306.634 217.093 307.22 217.093C307.601 217.093 307.989 217.152 308.385 217.269C308.78 217.386 309.132 217.569 309.439 217.818C309.762 218.067 310.018 218.397 310.208 218.807C310.414 219.217 310.516 219.708 310.516 220.279C310.516 221.056 310.333 221.788 309.967 222.477C309.615 223.15 309.139 223.78 308.539 224.366C307.938 224.938 307.242 225.458 306.451 225.926C305.66 226.38 304.833 226.769 303.968 227.091C303.104 227.413 302.232 227.669 301.354 227.86C300.475 228.05 299.64 228.153 298.849 228.167ZM299.024 227.223C300.006 227.12 300.929 226.915 301.793 226.607C302.657 226.3 303.448 225.926 304.166 225.487C304.884 225.033 305.521 224.542 306.078 224.015C306.649 223.487 307.125 222.953 307.506 222.411C307.887 221.869 308.18 221.349 308.385 220.851C308.59 220.353 308.692 219.906 308.692 219.51C308.692 219.115 308.583 218.8 308.363 218.565C308.158 218.331 307.909 218.214 307.616 218.214C306.971 218.214 306.246 218.448 305.44 218.917C304.635 219.371 303.829 220.008 303.023 220.829C302.218 221.634 301.456 222.586 300.738 223.685C300.035 224.784 299.464 225.963 299.024 227.223ZM320.272 215.929C320.199 216.061 320.104 216.207 319.986 216.368C319.869 216.515 319.752 216.69 319.635 216.896C319.532 217.086 319.437 217.313 319.349 217.577C319.276 217.84 319.239 218.155 319.239 218.521C319.239 218.829 319.312 219.247 319.459 219.774C319.62 220.301 319.789 220.909 319.964 221.598C320.14 222.271 320.301 223.011 320.448 223.817C320.609 224.608 320.689 225.428 320.689 226.278C320.689 227.523 320.521 228.622 320.184 229.574C319.847 230.526 319.4 231.339 318.844 232.013C319.986 231.397 321.107 230.519 322.206 229.376C323.304 228.219 324.41 226.754 325.523 224.981L326.271 225.641C325.641 226.681 324.923 227.713 324.117 228.739C323.326 229.75 322.455 230.665 321.502 231.485C320.55 232.291 319.525 232.943 318.426 233.441C317.328 233.954 316.163 234.21 314.933 234.21C313.834 234.21 312.911 233.946 312.164 233.419C311.402 232.906 310.934 232.13 310.758 231.09L311.549 230.936C311.549 231.024 311.593 231.17 311.681 231.375C311.754 231.566 311.878 231.756 312.054 231.947C312.23 232.137 312.472 232.306 312.779 232.452C313.072 232.599 313.438 232.672 313.878 232.672C314.464 232.672 314.984 232.54 315.438 232.276C315.892 231.998 316.288 231.639 316.625 231.2C316.961 230.76 317.247 230.262 317.481 229.706C317.716 229.134 317.899 228.548 318.031 227.948C318.177 227.347 318.28 226.761 318.338 226.19C318.397 225.619 318.426 225.099 318.426 224.63C318.426 224.161 318.404 223.641 318.36 223.07C318.331 222.499 318.294 221.957 318.25 221.444C318.207 220.917 318.163 220.462 318.119 220.082C318.089 219.686 318.075 219.43 318.075 219.312V219.269C317.884 219.474 317.657 219.774 317.394 220.169C317.13 220.565 316.844 220.997 316.537 221.466C316.244 221.935 315.943 222.411 315.636 222.894C315.343 223.377 315.072 223.817 314.823 224.212C314.588 224.608 314.391 224.938 314.229 225.201C314.083 225.45 314.01 225.582 314.01 225.597L313.219 224.981C313.233 224.967 313.417 224.652 313.768 224.037C314.12 223.421 314.581 222.645 315.152 221.708C315.738 220.755 316.397 219.708 317.13 218.565C317.862 217.408 318.617 216.288 319.393 215.204L320.272 215.929Z" fill="black"/>
<path d="M97.3441 253.047C97.3441 253.859 97.0069 254.528 96.3324 255.057C95.1065 256.014 94.473 256.518 94.432 256.568C93.6938 257.32 93.1697 258.072 92.8598 258.824L92.7982 258.947H97.474L96.9955 260.041H91.1303L91.6498 258.701C92.3425 257.174 93.2904 255.978 94.4936 255.112C95.0906 254.67 95.4893 254.378 95.6898 254.237C96.0681 253.972 96.2572 253.553 96.2572 252.979C96.2572 252.947 96.2572 252.913 96.2572 252.876C96.2436 252.32 96.0499 251.853 95.6762 251.475C95.2934 251.088 94.824 250.894 94.268 250.894C93.7257 250.894 93.2585 251.088 92.8666 251.475C92.4747 251.862 92.2787 252.316 92.2787 252.835C92.2787 252.845 92.2787 252.856 92.2787 252.87L92.2855 252.938L91.1918 253.417L91.185 252.89C91.185 252.07 91.4857 251.354 92.0873 250.744C92.6798 250.147 93.4066 249.848 94.268 249.848C95.1293 249.848 95.8562 250.144 96.4486 250.737C97.0456 251.325 97.3441 252.095 97.3441 253.047ZM100.274 252.87V257.156C100.274 257.302 100.288 257.441 100.315 257.573L103.432 251.277C103.091 251.022 102.701 250.894 102.263 250.894C101.712 250.894 101.243 251.088 100.855 251.475C100.468 251.858 100.274 252.323 100.274 252.87ZM105.346 252.89V257.135C105.346 257.974 105.046 258.692 104.444 259.289C103.843 259.881 103.116 260.177 102.263 260.177C101.407 260.177 100.68 259.881 100.083 259.289C99.4813 258.692 99.1805 257.974 99.1805 257.135V252.89C99.1805 252.052 99.4813 251.336 100.083 250.744C100.684 250.147 101.411 249.848 102.263 249.848C103.116 249.848 103.843 250.147 104.444 250.744C105.046 251.336 105.346 252.052 105.346 252.89ZM104.164 252.268L100.992 258.673C101.352 258.979 101.776 259.131 102.263 259.131C102.806 259.131 103.273 258.938 103.665 258.55C104.052 258.167 104.248 257.703 104.253 257.156V252.87C104.253 252.655 104.223 252.455 104.164 252.268ZM113.267 253.047C113.267 253.859 112.93 254.528 112.255 255.057C111.029 256.014 110.396 256.518 110.355 256.568C109.616 257.32 109.092 258.072 108.782 258.824L108.721 258.947H113.397L112.918 260.041H107.053L107.572 258.701C108.265 257.174 109.213 255.978 110.416 255.112C111.013 254.67 111.412 254.378 111.612 254.237C111.991 253.972 112.18 253.553 112.18 252.979C112.18 252.947 112.18 252.913 112.18 252.876C112.166 252.32 111.973 251.853 111.599 251.475C111.216 251.088 110.747 250.894 110.191 250.894C109.648 250.894 109.181 251.088 108.789 251.475C108.397 251.862 108.201 252.316 108.201 252.835C108.201 252.845 108.201 252.856 108.201 252.87L108.208 252.938L107.114 253.417L107.108 252.89C107.108 252.07 107.408 251.354 108.01 250.744C108.602 250.147 109.329 249.848 110.191 249.848C111.052 249.848 111.779 250.144 112.371 250.737C112.968 251.325 113.267 252.095 113.267 253.047ZM116.197 252.87V257.156C116.197 257.302 116.211 257.441 116.238 257.573L119.355 251.277C119.013 251.022 118.624 250.894 118.186 250.894C117.635 250.894 117.165 251.088 116.778 251.475C116.391 251.858 116.197 252.323 116.197 252.87ZM121.269 252.89V257.135C121.269 257.974 120.968 258.692 120.367 259.289C119.765 259.881 119.038 260.177 118.186 260.177C117.329 260.177 116.602 259.881 116.005 259.289C115.404 258.692 115.103 257.974 115.103 257.135V252.89C115.103 252.052 115.404 251.336 116.005 250.744C116.607 250.147 117.334 249.848 118.186 249.848C119.038 249.848 119.765 250.147 120.367 250.744C120.968 251.336 121.269 252.052 121.269 252.89ZM120.087 252.268L116.915 258.673C117.275 258.979 117.699 259.131 118.186 259.131C118.728 259.131 119.196 258.938 119.587 258.55C119.975 258.167 120.171 257.703 120.175 257.156V252.87C120.175 252.655 120.146 252.455 120.087 252.268Z" fill="black"/>
<path d="M135.916 249.721V249.007H141.544V249.721H139.108V258.177H138.338V249.721H135.916ZM145.296 257.575C145.641 257.575 146.015 257.468 146.416 257.253C146.827 257.029 147.125 256.824 147.312 256.637V254.971C146.696 254.925 146.108 254.901 145.548 254.901C144.988 254.901 144.568 255.023 144.288 255.265C144.008 255.499 143.868 255.816 143.868 256.217C143.868 257.123 144.344 257.575 145.296 257.575ZM145.282 258.303C144.601 258.303 144.064 258.131 143.672 257.785C143.28 257.431 143.084 256.931 143.084 256.287C143.084 255.643 143.299 255.144 143.728 254.789C144.157 254.425 144.727 254.243 145.436 254.243C146.145 254.243 146.771 254.271 147.312 254.327C147.312 253.497 147.209 252.932 147.004 252.633C146.799 252.325 146.383 252.171 145.758 252.171C145.133 252.171 144.395 252.321 143.546 252.619L143.336 251.919C144.204 251.602 144.988 251.443 145.688 251.443C146.612 251.443 147.237 251.649 147.564 252.059C147.891 252.47 148.054 253.189 148.054 254.215V257.155L148.166 258.219L147.452 258.289L147.312 257.449C147.097 257.636 146.794 257.827 146.402 258.023C146.01 258.21 145.637 258.303 145.282 258.303ZM150.322 260.865V252.731L150.196 251.513L150.896 251.429L151.022 252.185C151.703 251.691 152.352 251.443 152.968 251.443C153.799 251.443 154.443 251.747 154.9 252.353C155.357 252.96 155.586 253.795 155.586 254.859C155.586 255.923 155.334 256.763 154.83 257.379C154.326 257.995 153.626 258.303 152.73 258.303C152.207 258.303 151.652 258.177 151.064 257.925V260.865H150.322ZM154.788 254.887C154.788 254.057 154.629 253.399 154.312 252.913C153.995 252.419 153.537 252.171 152.94 252.171C152.352 252.171 151.727 252.437 151.064 252.969V257.169C151.26 257.263 151.526 257.356 151.862 257.449C152.207 257.533 152.487 257.575 152.702 257.575C153.365 257.575 153.878 257.333 154.242 256.847C154.606 256.362 154.788 255.709 154.788 254.887ZM157.322 260.865V252.731L157.196 251.513L157.896 251.429L158.022 252.185C158.703 251.691 159.352 251.443 159.968 251.443C160.799 251.443 161.443 251.747 161.9 252.353C162.357 252.96 162.586 253.795 162.586 254.859C162.586 255.923 162.334 256.763 161.83 257.379C161.326 257.995 160.626 258.303 159.73 258.303C159.207 258.303 158.652 258.177 158.064 257.925V260.865H157.322ZM161.788 254.887C161.788 254.057 161.629 253.399 161.312 252.913C160.995 252.419 160.537 252.171 159.94 252.171C159.352 252.171 158.727 252.437 158.064 252.969V257.169C158.26 257.263 158.526 257.356 158.862 257.449C159.207 257.533 159.487 257.575 159.702 257.575C160.365 257.575 160.878 257.333 161.242 256.847C161.606 256.362 161.788 255.709 161.788 254.887ZM166.296 257.575C166.641 257.575 167.015 257.468 167.416 257.253C167.827 257.029 168.125 256.824 168.312 256.637V254.971C167.696 254.925 167.108 254.901 166.548 254.901C165.988 254.901 165.568 255.023 165.288 255.265C165.008 255.499 164.868 255.816 164.868 256.217C164.868 257.123 165.344 257.575 166.296 257.575ZM166.282 258.303C165.601 258.303 165.064 258.131 164.672 257.785C164.28 257.431 164.084 256.931 164.084 256.287C164.084 255.643 164.299 255.144 164.728 254.789C165.157 254.425 165.727 254.243 166.436 254.243C167.145 254.243 167.771 254.271 168.312 254.327C168.312 253.497 168.209 252.932 168.004 252.633C167.799 252.325 167.383 252.171 166.758 252.171C166.133 252.171 165.395 252.321 164.546 252.619L164.336 251.919C165.204 251.602 165.988 251.443 166.688 251.443C167.612 251.443 168.237 251.649 168.564 252.059C168.891 252.47 169.054 253.189 169.054 254.215V257.155L169.166 258.219L168.452 258.289L168.312 257.449C168.097 257.636 167.794 257.827 167.402 258.023C167.01 258.21 166.637 258.303 166.282 258.303ZM171.322 258.177V248.881H172.064V252.171C172.764 251.686 173.399 251.443 173.968 251.443C174.808 251.443 175.457 251.733 175.914 252.311C176.371 252.881 176.6 253.697 176.6 254.761C176.6 255.825 176.343 256.684 175.83 257.337C175.317 257.981 174.617 258.303 173.73 258.303C173.189 258.303 172.629 258.168 172.05 257.897L172.022 258.177H171.322ZM175.802 254.775C175.802 253.954 175.639 253.315 175.312 252.857C174.995 252.4 174.533 252.171 173.926 252.171C173.319 252.171 172.699 252.437 172.064 252.969V257.169C172.26 257.263 172.526 257.356 172.862 257.449C173.207 257.533 173.487 257.575 173.702 257.575C174.355 257.575 174.869 257.314 175.242 256.791C175.615 256.269 175.802 255.597 175.802 254.775ZM178.574 258.177V257.477H180.716V249.553L178.63 249.567L178.616 248.881L181.458 248.867V257.477H183.67V258.177H178.574ZM185.182 254.859C185.182 253.786 185.401 252.951 185.84 252.353C186.288 251.747 186.937 251.443 187.786 251.443C188.635 251.443 189.265 251.723 189.676 252.283C190.096 252.843 190.306 253.59 190.306 254.523L190.264 255.223H185.98C186.027 255.923 186.213 256.493 186.54 256.931C186.867 257.361 187.315 257.575 187.884 257.575C188.463 257.575 189.139 257.44 189.914 257.169L190.124 257.869C189.368 258.159 188.659 258.303 187.996 258.303C187.081 258.303 186.381 258 185.896 257.393C185.42 256.777 185.182 255.933 185.182 254.859ZM187.842 252.157C186.666 252.157 186.045 252.946 185.98 254.523H189.508C189.508 252.946 188.953 252.157 187.842 252.157ZM193.666 258.177V256.609H194.996V257.757C194.996 258.597 194.637 259.405 193.918 260.179L193.54 259.843C193.96 259.227 194.189 258.672 194.226 258.177H193.666ZM206.434 251.527L206.476 251.947C206.943 251.611 207.302 251.443 207.554 251.443C208.17 251.443 208.595 251.644 208.828 252.045C209.351 251.644 209.808 251.443 210.2 251.443C210.807 251.443 211.222 251.63 211.446 252.003C211.67 252.377 211.782 252.951 211.782 253.725V258.177H211.04V253.725C211.04 253.193 210.984 252.801 210.872 252.549C210.76 252.288 210.545 252.157 210.228 252.157C209.911 252.157 209.519 252.307 209.052 252.605C209.108 252.923 209.136 253.296 209.136 253.725V256.049H208.394V253.725C208.394 253.193 208.338 252.801 208.226 252.549C208.105 252.288 207.885 252.157 207.568 252.157C207.251 252.157 206.887 252.307 206.476 252.605V258.177H205.734V251.527H206.434ZM213.07 254.873C213.07 252.587 213.961 251.443 215.744 251.443C217.527 251.443 218.418 252.587 218.418 254.873C218.418 257.16 217.527 258.303 215.744 258.303C213.961 258.303 213.07 257.16 213.07 254.873ZM215.744 252.171C214.493 252.171 213.868 253.072 213.868 254.873C213.868 256.675 214.493 257.575 215.744 257.575C216.995 257.575 217.62 256.675 217.62 254.873C217.62 253.072 216.995 252.171 215.744 252.171ZM220.322 258.177V248.881H221.064V252.171C221.764 251.686 222.399 251.443 222.968 251.443C223.808 251.443 224.457 251.733 224.914 252.311C225.371 252.881 225.6 253.697 225.6 254.761C225.6 255.825 225.343 256.684 224.83 257.337C224.317 257.981 223.617 258.303 222.73 258.303C222.189 258.303 221.629 258.168 221.05 257.897L221.022 258.177H220.322ZM224.802 254.775C224.802 253.954 224.639 253.315 224.312 252.857C223.995 252.4 223.533 252.171 222.926 252.171C222.319 252.171 221.699 252.437 221.064 252.969V257.169C221.26 257.263 221.526 257.356 221.862 257.449C222.207 257.533 222.487 257.575 222.702 257.575C223.355 257.575 223.869 257.314 224.242 256.791C224.615 256.269 224.802 255.597 224.802 254.775ZM227.406 258.177V257.477H229.45V252.227H227.406V251.527H230.192V257.477H232.236V258.177H227.406ZM229.156 249.553C229.156 249.367 229.207 249.222 229.31 249.119C229.422 249.017 229.571 248.965 229.758 248.965C230.141 248.965 230.332 249.171 230.332 249.581C230.332 249.992 230.141 250.193 229.758 250.183C229.357 250.183 229.156 249.973 229.156 249.553ZM234.574 258.177V257.477H236.716V249.553L234.63 249.567L234.616 248.881L237.458 248.867V257.477H239.67V258.177H234.574ZM241.182 254.859C241.182 253.786 241.401 252.951 241.84 252.353C242.288 251.747 242.937 251.443 243.786 251.443C244.635 251.443 245.265 251.723 245.676 252.283C246.096 252.843 246.306 253.59 246.306 254.523L246.264 255.223H241.98C242.027 255.923 242.213 256.493 242.54 256.931C242.867 257.361 243.315 257.575 243.884 257.575C244.463 257.575 245.139 257.44 245.914 257.169L246.124 257.869C245.368 258.159 244.659 258.303 243.996 258.303C243.081 258.303 242.381 258 241.896 257.393C241.42 256.777 241.182 255.933 241.182 254.859ZM243.842 252.157C242.666 252.157 242.045 252.946 241.98 254.523H245.508C245.508 252.946 244.953 252.157 243.842 252.157ZM248.784 255.195V254.439H252.802V255.195H248.784ZM255.21 258.177V257.477H256.764V252.227H255.266V251.527H256.764C256.764 249.679 257.45 248.755 258.822 248.755C259.27 248.755 259.858 248.863 260.586 249.077L260.418 249.777C259.699 249.572 259.177 249.469 258.85 249.469C258.374 249.469 258.029 249.637 257.814 249.973C257.609 250.3 257.506 250.818 257.506 251.527H260.32V252.227H257.506V257.477H260.348V258.177H255.21ZM262.406 258.177V257.477H264.45V252.227H262.406V251.527H265.192V257.477H267.236V258.177H262.406ZM264.156 249.553C264.156 249.367 264.207 249.222 264.31 249.119C264.422 249.017 264.571 248.965 264.758 248.965C265.141 248.965 265.332 249.171 265.332 249.581C265.332 249.992 265.141 250.193 264.758 250.183C264.357 250.183 264.156 249.973 264.156 249.553ZM269.378 258.177V257.477H270.974V252.227H269.378V251.527H271.716L271.744 252.339C272.043 252.153 272.463 251.966 273.004 251.779C273.545 251.593 274.021 251.481 274.432 251.443H274.586V252.269H274.432C274.049 252.297 273.573 252.391 273.004 252.549C272.444 252.708 272.024 252.871 271.744 253.039V257.477H273.984V258.177H269.378ZM276.336 257.855L276.518 257.127C277.442 257.435 278.156 257.589 278.66 257.589C279.164 257.589 279.551 257.482 279.822 257.267C280.102 257.043 280.242 256.749 280.242 256.385C280.242 256.021 280.13 255.755 279.906 255.587C279.691 255.41 279.239 255.242 278.548 255.083C277.857 254.925 277.339 254.696 276.994 254.397C276.649 254.117 276.476 253.697 276.476 253.137C276.476 252.577 276.686 252.153 277.106 251.863C277.535 251.565 278.086 251.415 278.758 251.415C279.43 251.415 280.158 251.565 280.942 251.863L280.746 252.521C279.953 252.26 279.313 252.129 278.828 252.129C278.343 252.129 277.96 252.213 277.68 252.381C277.4 252.568 277.26 252.82 277.26 253.137C277.26 253.455 277.381 253.702 277.624 253.879C277.876 254.057 278.357 254.234 279.066 254.411C279.775 254.589 280.279 254.817 280.578 255.097C280.877 255.368 281.026 255.797 281.026 256.385C281.026 256.973 280.825 257.44 280.424 257.785C280.032 258.131 279.472 258.303 278.744 258.303C278.016 258.303 277.213 258.154 276.336 257.855ZM283.028 252.409V251.709H284.386V250.015L285.128 249.875V251.709H288.334V252.409H285.128V255.601C285.128 256.311 285.231 256.824 285.436 257.141C285.651 257.449 286.029 257.603 286.57 257.603C286.775 257.603 287.093 257.571 287.522 257.505C287.951 257.431 288.245 257.365 288.404 257.309L288.572 257.995C288.395 258.061 288.068 258.131 287.592 258.205C287.125 258.28 286.785 258.317 286.57 258.317C285.73 258.317 285.156 258.098 284.848 257.659C284.54 257.211 284.386 256.535 284.386 255.629V252.409H283.028ZM141.026 265.527H141.754L140.956 272.177H139.472L138.758 269.279H138.702L137.974 272.177H136.504L135.734 265.527H136.462L137.19 271.505H137.442L138.38 268.131H139.108L140.046 271.505H140.298L141.026 265.527ZM143.182 268.859C143.182 267.786 143.401 266.951 143.84 266.353C144.288 265.747 144.937 265.443 145.786 265.443C146.635 265.443 147.265 265.723 147.676 266.283C148.096 266.843 148.306 267.59 148.306 268.523L148.264 269.223H143.98C144.027 269.923 144.213 270.493 144.54 270.931C144.867 271.361 145.315 271.575 145.884 271.575C146.463 271.575 147.139 271.44 147.914 271.169L148.124 271.869C147.368 272.159 146.659 272.303 145.996 272.303C145.081 272.303 144.381 272 143.896 271.393C143.42 270.777 143.182 269.933 143.182 268.859ZM145.842 266.157C144.666 266.157 144.045 266.946 143.98 268.523H147.508C147.508 266.946 146.953 266.157 145.842 266.157ZM150.322 272.177V262.881H151.064V266.171C151.764 265.686 152.399 265.443 152.968 265.443C153.808 265.443 154.457 265.733 154.914 266.311C155.371 266.881 155.6 267.697 155.6 268.761C155.6 269.825 155.343 270.684 154.83 271.337C154.317 271.981 153.617 272.303 152.73 272.303C152.189 272.303 151.629 272.168 151.05 271.897L151.022 272.177H150.322ZM154.802 268.775C154.802 267.954 154.639 267.315 154.312 266.857C153.995 266.4 153.533 266.171 152.926 266.171C152.319 266.171 151.699 266.437 151.064 266.969V271.169C151.26 271.263 151.526 271.356 151.862 271.449C152.207 271.533 152.487 271.575 152.702 271.575C153.355 271.575 153.869 271.314 154.242 270.791C154.615 270.269 154.802 269.597 154.802 268.775ZM164.182 268.859C164.182 267.786 164.401 266.951 164.84 266.353C165.288 265.747 165.937 265.443 166.786 265.443C167.635 265.443 168.265 265.723 168.676 266.283C169.096 266.843 169.306 267.59 169.306 268.523L169.264 269.223H164.98C165.027 269.923 165.213 270.493 165.54 270.931C165.867 271.361 166.315 271.575 166.884 271.575C167.463 271.575 168.139 271.44 168.914 271.169L169.124 271.869C168.368 272.159 167.659 272.303 166.996 272.303C166.081 272.303 165.381 272 164.896 271.393C164.42 270.777 164.182 269.933 164.182 268.859ZM166.842 266.157C165.666 266.157 165.045 266.946 164.98 268.523H168.508C168.508 266.946 167.953 266.157 166.842 266.157ZM171.084 265.527H172.05L173.744 268.271L175.424 265.527H176.362L174.262 268.803L176.488 272.177H175.536L173.744 269.335L171.966 272.177H171.014L173.268 268.803L171.084 265.527ZM178.322 274.865V266.731L178.196 265.513L178.896 265.429L179.022 266.185C179.703 265.691 180.352 265.443 180.968 265.443C181.799 265.443 182.443 265.747 182.9 266.353C183.357 266.96 183.586 267.795 183.586 268.859C183.586 269.923 183.334 270.763 182.83 271.379C182.326 271.995 181.626 272.303 180.73 272.303C180.207 272.303 179.652 272.177 179.064 271.925V274.865H178.322ZM182.788 268.887C182.788 268.057 182.629 267.399 182.312 266.913C181.995 266.419 181.537 266.171 180.94 266.171C180.352 266.171 179.727 266.437 179.064 266.969V271.169C179.26 271.263 179.526 271.356 179.862 271.449C180.207 271.533 180.487 271.575 180.702 271.575C181.365 271.575 181.878 271.333 182.242 270.847C182.606 270.362 182.788 269.709 182.788 268.887ZM185.182 268.859C185.182 267.786 185.401 266.951 185.84 266.353C186.288 265.747 186.937 265.443 187.786 265.443C188.635 265.443 189.265 265.723 189.676 266.283C190.096 266.843 190.306 267.59 190.306 268.523L190.264 269.223H185.98C186.027 269.923 186.213 270.493 186.54 270.931C186.867 271.361 187.315 271.575 187.884 271.575C188.463 271.575 189.139 271.44 189.914 271.169L190.124 271.869C189.368 272.159 188.659 272.303 187.996 272.303C187.081 272.303 186.381 272 185.896 271.393C185.42 270.777 185.182 269.933 185.182 268.859ZM187.842 266.157C186.666 266.157 186.045 266.946 185.98 268.523H189.508C189.508 266.946 188.953 266.157 187.842 266.157ZM192.378 272.177V271.477H193.974V266.227H192.378V265.527H194.716L194.744 266.339C195.043 266.153 195.463 265.966 196.004 265.779C196.545 265.593 197.021 265.481 197.432 265.443H197.586V266.269H197.432C197.049 266.297 196.573 266.391 196.004 266.549C195.444 266.708 195.024 266.871 194.744 267.039V271.477H196.984V272.177H192.378ZM199.406 272.177V271.477H201.45V266.227H199.406V265.527H202.192V271.477H204.236V272.177H199.406ZM201.156 263.553C201.156 263.367 201.207 263.222 201.31 263.119C201.422 263.017 201.571 262.965 201.758 262.965C202.141 262.965 202.332 263.171 202.332 263.581C202.332 263.992 202.141 264.193 201.758 264.183C201.357 264.183 201.156 263.973 201.156 263.553ZM206.182 268.859C206.182 267.786 206.401 266.951 206.84 266.353C207.288 265.747 207.937 265.443 208.786 265.443C209.635 265.443 210.265 265.723 210.676 266.283C211.096 266.843 211.306 267.59 211.306 268.523L211.264 269.223H206.98C207.027 269.923 207.213 270.493 207.54 270.931C207.867 271.361 208.315 271.575 208.884 271.575C209.463 271.575 210.139 271.44 210.914 271.169L211.124 271.869C210.368 272.159 209.659 272.303 208.996 272.303C208.081 272.303 207.381 272 206.896 271.393C206.42 270.777 206.182 269.933 206.182 268.859ZM208.842 266.157C207.666 266.157 207.045 266.946 206.98 268.523H210.508C210.508 266.946 209.953 266.157 208.842 266.157ZM214.022 265.527L214.05 266.087C214.955 265.658 215.707 265.443 216.304 265.443C216.901 265.443 217.368 265.649 217.704 266.059C218.049 266.47 218.222 267.03 218.222 267.739V272.177H217.48V267.739C217.48 267.282 217.368 266.904 217.144 266.605C216.92 266.316 216.584 266.171 216.136 266.171C215.688 266.171 214.993 266.377 214.05 266.787V272.177H213.308V265.527H214.022ZM224.956 265.751L224.788 266.479C224.209 266.274 223.673 266.171 223.178 266.171C222.506 266.171 222.002 266.409 221.666 266.885C221.339 267.352 221.176 268.005 221.176 268.845C221.176 269.685 221.344 270.353 221.68 270.847C222.016 271.333 222.515 271.575 223.178 271.575C223.626 271.575 224.186 271.454 224.858 271.211L225.082 271.911C224.401 272.173 223.771 272.303 223.192 272.303C222.277 272.303 221.577 272 221.092 271.393C220.607 270.777 220.364 269.923 220.364 268.831C220.364 267.739 220.602 266.904 221.078 266.325C221.554 265.737 222.254 265.443 223.178 265.443C223.766 265.443 224.359 265.546 224.956 265.751ZM227.182 268.859C227.182 267.786 227.401 266.951 227.84 266.353C228.288 265.747 228.937 265.443 229.786 265.443C230.635 265.443 231.265 265.723 231.676 266.283C232.096 266.843 232.306 267.59 232.306 268.523L232.264 269.223H227.98C228.027 269.923 228.213 270.493 228.54 270.931C228.867 271.361 229.315 271.575 229.884 271.575C230.463 271.575 231.139 271.44 231.914 271.169L232.124 271.869C231.368 272.159 230.659 272.303 229.996 272.303C229.081 272.303 228.381 272 227.896 271.393C227.42 270.777 227.182 269.933 227.182 268.859ZM229.842 266.157C228.666 266.157 228.045 266.946 227.98 268.523H231.508C231.508 266.946 230.953 266.157 229.842 266.157ZM234.336 271.855L234.518 271.127C235.442 271.435 236.156 271.589 236.66 271.589C237.164 271.589 237.551 271.482 237.822 271.267C238.102 271.043 238.242 270.749 238.242 270.385C238.242 270.021 238.13 269.755 237.906 269.587C237.691 269.41 237.239 269.242 236.548 269.083C235.857 268.925 235.339 268.696 234.994 268.397C234.649 268.117 234.476 267.697 234.476 267.137C234.476 266.577 234.686 266.153 235.106 265.863C235.535 265.565 236.086 265.415 236.758 265.415C237.43 265.415 238.158 265.565 238.942 265.863L238.746 266.521C237.953 266.26 237.313 266.129 236.828 266.129C236.343 266.129 235.96 266.213 235.68 266.381C235.4 266.568 235.26 266.82 235.26 267.137C235.26 267.455 235.381 267.702 235.624 267.879C235.876 268.057 236.357 268.234 237.066 268.411C237.775 268.589 238.279 268.817 238.578 269.097C238.877 269.368 239.026 269.797 239.026 270.385C239.026 270.973 238.825 271.44 238.424 271.785C238.032 272.131 237.472 272.303 236.744 272.303C236.016 272.303 235.213 272.154 234.336 271.855ZM248.21 272.177V271.477H249.764V266.227H248.266V265.527H249.764C249.764 263.679 250.45 262.755 251.822 262.755C252.27 262.755 252.858 262.863 253.586 263.077L253.418 263.777C252.699 263.572 252.177 263.469 251.85 263.469C251.374 263.469 251.029 263.637 250.814 263.973C250.609 264.3 250.506 264.818 250.506 265.527H253.32V266.227H250.506V271.477H253.348V272.177H248.21ZM255.07 268.873C255.07 266.587 255.961 265.443 257.744 265.443C259.527 265.443 260.418 266.587 260.418 268.873C260.418 271.16 259.527 272.303 257.744 272.303C255.961 272.303 255.07 271.16 255.07 268.873ZM257.744 266.171C256.493 266.171 255.868 267.072 255.868 268.873C255.868 270.675 256.493 271.575 257.744 271.575C258.995 271.575 259.62 270.675 259.62 268.873C259.62 267.072 258.995 266.171 257.744 266.171ZM262.378 272.177V271.477H263.974V266.227H262.378V265.527H264.716L264.744 266.339C265.043 266.153 265.463 265.966 266.004 265.779C266.545 265.593 267.021 265.481 267.432 265.443H267.586V266.269H267.432C267.049 266.297 266.573 266.391 266.004 266.549C265.444 266.708 265.024 266.871 264.744 267.039V271.477H266.984V272.177H262.378ZM276.028 266.409V265.709H277.386V264.015L278.128 263.875V265.709H281.334V266.409H278.128V269.601C278.128 270.311 278.231 270.824 278.436 271.141C278.651 271.449 279.029 271.603 279.57 271.603C279.775 271.603 280.093 271.571 280.522 271.505C280.951 271.431 281.245 271.365 281.404 271.309L281.572 271.995C281.395 272.061 281.068 272.131 280.592 272.205C280.125 272.28 279.785 272.317 279.57 272.317C278.73 272.317 278.156 272.098 277.848 271.659C277.54 271.211 277.386 270.535 277.386 269.629V266.409H276.028ZM284.078 266.745V272.177H283.336V262.881H284.078V266.031C284.955 265.639 285.679 265.443 286.248 265.443C287.583 265.443 288.25 266.209 288.25 267.739V272.177H287.508V267.739C287.508 267.263 287.405 266.885 287.2 266.605C286.995 266.316 286.64 266.171 286.136 266.171C285.632 266.171 284.946 266.363 284.078 266.745ZM290.182 268.859C290.182 267.786 290.401 266.951 290.84 266.353C291.288 265.747 291.937 265.443 292.786 265.443C293.635 265.443 294.265 265.723 294.676 266.283C295.096 266.843 295.306 267.59 295.306 268.523L295.264 269.223H290.98C291.027 269.923 291.213 270.493 291.54 270.931C291.867 271.361 292.315 271.575 292.884 271.575C293.463 271.575 294.139 271.44 294.914 271.169L295.124 271.869C294.368 272.159 293.659 272.303 292.996 272.303C292.081 272.303 291.381 272 290.896 271.393C290.42 270.777 290.182 269.933 290.182 268.859ZM292.842 266.157C291.666 266.157 291.045 266.946 290.98 268.523H294.508C294.508 266.946 293.953 266.157 292.842 266.157ZM135.916 277.721V277.007H141.544V277.721H139.108V286.177H138.338V277.721H135.916ZM144.078 280.745V286.177H143.336V276.881H144.078V280.031C144.955 279.639 145.679 279.443 146.248 279.443C147.583 279.443 148.25 280.209 148.25 281.739V286.177H147.508V281.739C147.508 281.263 147.405 280.885 147.2 280.605C146.995 280.316 146.64 280.171 146.136 280.171C145.632 280.171 144.946 280.363 144.078 280.745ZM150.406 286.177V285.477H152.45V280.227H150.406V279.527H153.192V285.477H155.236V286.177H150.406ZM152.156 277.553C152.156 277.367 152.207 277.222 152.31 277.119C152.422 277.017 152.571 276.965 152.758 276.965C153.141 276.965 153.332 277.171 153.332 277.581C153.332 277.992 153.141 278.193 152.758 278.183C152.357 278.183 152.156 277.973 152.156 277.553ZM158.022 279.527L158.05 280.087C158.955 279.658 159.707 279.443 160.304 279.443C160.901 279.443 161.368 279.649 161.704 280.059C162.049 280.47 162.222 281.03 162.222 281.739V286.177H161.48V281.739C161.48 281.282 161.368 280.904 161.144 280.605C160.92 280.316 160.584 280.171 160.136 280.171C159.688 280.171 158.993 280.377 158.05 280.787V286.177H157.308V279.527H158.022ZM164.602 286.177V276.867H165.344V282.537L166.534 282.397C167.113 281.688 167.677 280.876 168.228 279.961L168.494 279.527H169.334C168.606 280.806 167.897 281.861 167.206 282.691C167.859 283.522 168.503 284.502 169.138 285.631L169.446 286.177H168.578C167.943 284.983 167.29 283.951 166.618 283.083L165.344 283.209V286.177H164.602ZM178.294 286.177L177.272 277.007H178.07L179.008 285.477H179.162L180.394 281.053H181.136L182.312 285.477H182.48L183.418 277.007H184.216L183.194 286.177H181.78L180.772 282.229H180.73L179.68 286.177H178.294ZM185.406 286.177V285.477H187.45V280.227H185.406V279.527H188.192V285.477H190.236V286.177H185.406ZM187.156 277.553C187.156 277.367 187.207 277.222 187.31 277.119C187.422 277.017 187.571 276.965 187.758 276.965C188.141 276.965 188.332 277.171 188.332 277.581C188.332 277.992 188.141 278.193 187.758 278.183C187.357 278.183 187.156 277.973 187.156 277.553ZM192.028 280.409V279.709H193.386V278.015L194.128 277.875V279.709H197.334V280.409H194.128V283.601C194.128 284.311 194.231 284.824 194.436 285.141C194.651 285.449 195.029 285.603 195.57 285.603C195.775 285.603 196.093 285.571 196.522 285.505C196.951 285.431 197.245 285.365 197.404 285.309L197.572 285.995C197.395 286.061 197.068 286.131 196.592 286.205C196.125 286.28 195.785 286.317 195.57 286.317C194.73 286.317 194.156 286.098 193.848 285.659C193.54 285.211 193.386 284.535 193.386 283.629V280.409H192.028ZM200.078 280.745V286.177H199.336V276.881H200.078V280.031C200.955 279.639 201.679 279.443 202.248 279.443C203.583 279.443 204.25 280.209 204.25 281.739V286.177H203.508V281.739C203.508 281.263 203.405 280.885 203.2 280.605C202.995 280.316 202.64 280.171 202.136 280.171C201.632 280.171 200.946 280.363 200.078 280.745ZM215.968 286.317C214.885 286.317 214.083 285.944 213.56 285.197C213.037 284.451 212.776 283.251 212.776 281.599C212.776 279.938 213.033 278.734 213.546 277.987C214.059 277.241 214.895 276.867 216.052 276.867C216.808 276.867 217.601 277.017 218.432 277.315L218.236 278.029C217.387 277.74 216.659 277.595 216.052 277.595C215.175 277.595 214.545 277.908 214.162 278.533C213.789 279.149 213.602 280.162 213.602 281.571C213.602 282.971 213.798 283.993 214.19 284.637C214.582 285.272 215.175 285.589 215.968 285.589C216.444 285.589 217.018 285.477 217.69 285.253V282.453H216.108V281.767H218.46V285.799C217.499 286.145 216.668 286.317 215.968 286.317ZM220.07 282.873C220.07 280.587 220.961 279.443 222.744 279.443C224.527 279.443 225.418 280.587 225.418 282.873C225.418 285.16 224.527 286.303 222.744 286.303C220.961 286.303 220.07 285.16 220.07 282.873ZM222.744 280.171C221.493 280.171 220.868 281.072 220.868 282.873C220.868 284.675 221.493 285.575 222.744 285.575C223.995 285.575 224.62 284.675 224.62 282.873C224.62 281.072 223.995 280.171 222.744 280.171ZM227.07 282.873C227.07 280.587 227.961 279.443 229.744 279.443C231.527 279.443 232.418 280.587 232.418 282.873C232.418 285.16 231.527 286.303 229.744 286.303C227.961 286.303 227.07 285.16 227.07 282.873ZM229.744 280.171C228.493 280.171 227.868 281.072 227.868 282.873C227.868 284.675 228.493 285.575 229.744 285.575C230.995 285.575 231.62 284.675 231.62 282.873C231.62 281.072 230.995 280.171 229.744 280.171ZM236.59 286.177C235.75 286.177 235.106 285.888 234.658 285.309C234.21 284.731 233.986 283.914 233.986 282.859C233.986 281.795 234.233 280.96 234.728 280.353C235.232 279.747 235.932 279.443 236.828 279.443C237.323 279.443 237.878 279.607 238.494 279.933L238.522 279.527H239.236V284.567C239.376 285.678 239.446 286.322 239.446 286.499C239.446 287.321 239.171 287.937 238.62 288.347C238.069 288.767 237.421 288.977 236.674 288.977C235.937 288.977 235.097 288.791 234.154 288.417L234.406 287.717C235.33 288.072 236.067 288.249 236.618 288.249C237.178 288.249 237.663 288.105 238.074 287.815C238.494 287.526 238.704 287.092 238.704 286.513L238.578 285.407C237.841 285.921 237.178 286.177 236.59 286.177ZM236.856 280.143C236.193 280.143 235.675 280.391 235.302 280.885C234.929 281.371 234.742 282.024 234.742 282.845C234.742 283.657 234.905 284.301 235.232 284.777C235.559 285.244 236.016 285.477 236.604 285.477C237.192 285.477 237.822 285.197 238.494 284.637V280.717C237.887 280.335 237.341 280.143 236.856 280.143ZM241.574 286.177V285.477H243.716V277.553L241.63 277.567L241.616 276.881L244.458 276.867V285.477H246.67V286.177H241.574ZM248.182 282.859C248.182 281.786 248.401 280.951 248.84 280.353C249.288 279.747 249.937 279.443 250.786 279.443C251.635 279.443 252.265 279.723 252.676 280.283C253.096 280.843 253.306 281.59 253.306 282.523L253.264 283.223H248.98C249.027 283.923 249.213 284.493 249.54 284.931C249.867 285.361 250.315 285.575 250.884 285.575C251.463 285.575 252.139 285.44 252.914 285.169L253.124 285.869C252.368 286.159 251.659 286.303 250.996 286.303C250.081 286.303 249.381 286 248.896 285.393C248.42 284.777 248.182 283.933 248.182 282.859ZM250.842 280.157C249.666 280.157 249.045 280.946 248.98 282.523H252.508C252.508 280.946 251.953 280.157 250.842 280.157ZM262.322 288.865V280.731L262.196 279.513L262.896 279.429L263.022 280.185C263.703 279.691 264.352 279.443 264.968 279.443C265.799 279.443 266.443 279.747 266.9 280.353C267.357 280.96 267.586 281.795 267.586 282.859C267.586 283.923 267.334 284.763 266.83 285.379C266.326 285.995 265.626 286.303 264.73 286.303C264.207 286.303 263.652 286.177 263.064 285.925V288.865H262.322ZM266.788 282.887C266.788 282.057 266.629 281.399 266.312 280.913C265.995 280.419 265.537 280.171 264.94 280.171C264.352 280.171 263.727 280.437 263.064 280.969V285.169C263.26 285.263 263.526 285.356 263.862 285.449C264.207 285.533 264.487 285.575 264.702 285.575C265.365 285.575 265.878 285.333 266.242 284.847C266.606 284.362 266.788 283.709 266.788 282.887ZM269.574 286.177V285.477H271.716V277.553L269.63 277.567L269.616 276.881L272.458 276.867V285.477H274.67V286.177H269.574ZM278.296 285.575C278.641 285.575 279.015 285.468 279.416 285.253C279.827 285.029 280.125 284.824 280.312 284.637V282.971C279.696 282.925 279.108 282.901 278.548 282.901C277.988 282.901 277.568 283.023 277.288 283.265C277.008 283.499 276.868 283.816 276.868 284.217C276.868 285.123 277.344 285.575 278.296 285.575ZM278.282 286.303C277.601 286.303 277.064 286.131 276.672 285.785C276.28 285.431 276.084 284.931 276.084 284.287C276.084 283.643 276.299 283.144 276.728 282.789C277.157 282.425 277.727 282.243 278.436 282.243C279.145 282.243 279.771 282.271 280.312 282.327C280.312 281.497 280.209 280.932 280.004 280.633C279.799 280.325 279.383 280.171 278.758 280.171C278.133 280.171 277.395 280.321 276.546 280.619L276.336 279.919C277.204 279.602 277.988 279.443 278.688 279.443C279.612 279.443 280.237 279.649 280.564 280.059C280.891 280.47 281.054 281.189 281.054 282.215V285.155L281.166 286.219L280.452 286.289L280.312 285.449C280.097 285.636 279.794 285.827 279.402 286.023C279.01 286.21 278.637 286.303 278.282 286.303ZM283.028 280.409V279.709H284.386V278.015L285.128 277.875V279.709H288.334V280.409H285.128V283.601C285.128 284.311 285.231 284.824 285.436 285.141C285.651 285.449 286.029 285.603 286.57 285.603C286.775 285.603 287.093 285.571 287.522 285.505C287.951 285.431 288.245 285.365 288.404 285.309L288.572 285.995C288.395 286.061 288.068 286.131 287.592 286.205C287.125 286.28 286.785 286.317 286.57 286.317C285.73 286.317 285.156 286.098 284.848 285.659C284.54 285.211 284.386 284.535 284.386 283.629V280.409H283.028ZM290.21 286.177V285.477H291.764V280.227H290.266V279.527H291.764C291.764 277.679 292.45 276.755 293.822 276.755C294.27 276.755 294.858 276.863 295.586 277.077L295.418 277.777C294.699 277.572 294.177 277.469 293.85 277.469C293.374 277.469 293.029 277.637 292.814 277.973C292.609 278.3 292.506 278.818 292.506 279.527H295.32V280.227H292.506V285.477H295.348V286.177H290.21ZM297.07 282.873C297.07 280.587 297.961 279.443 299.744 279.443C301.527 279.443 302.418 280.587 302.418 282.873C302.418 285.16 301.527 286.303 299.744 286.303C297.961 286.303 297.07 285.16 297.07 282.873ZM299.744 280.171C298.493 280.171 297.868 281.072 297.868 282.873C297.868 284.675 298.493 285.575 299.744 285.575C300.995 285.575 301.62 284.675 301.62 282.873C301.62 281.072 300.995 280.171 299.744 280.171ZM304.378 286.177V285.477H305.974V280.227H304.378V279.527H306.716L306.744 280.339C307.043 280.153 307.463 279.966 308.004 279.779C308.545 279.593 309.021 279.481 309.432 279.443H309.586V280.269H309.432C309.049 280.297 308.573 280.391 308.004 280.549C307.444 280.708 307.024 280.871 306.744 281.039V285.477H308.984V286.177H304.378ZM311.434 279.527L311.476 279.947C311.943 279.611 312.302 279.443 312.554 279.443C313.17 279.443 313.595 279.644 313.828 280.045C314.351 279.644 314.808 279.443 315.2 279.443C315.807 279.443 316.222 279.63 316.446 280.003C316.67 280.377 316.782 280.951 316.782 281.725V286.177H316.04V281.725C316.04 281.193 315.984 280.801 315.872 280.549C315.76 280.288 315.545 280.157 315.228 280.157C314.911 280.157 314.519 280.307 314.052 280.605C314.108 280.923 314.136 281.296 314.136 281.725V284.049H313.394V281.725C313.394 281.193 313.338 280.801 313.226 280.549C313.105 280.288 312.885 280.157 312.568 280.157C312.251 280.157 311.887 280.307 311.476 280.605V286.177H310.734V279.527H311.434Z" fill="black"/>
</svg>
