<svg width="1649" height="644" viewBox="0 0 1649 644" fill="#FC3D21" stroke="black" xmlns="http://www.w3.org/2000/svg">
<circle cx="10" cy="94" r="9.5" transform="rotate(180 10 94)" />
<circle cx="10" cy="10" r="9.5" transform="matrix(1 0 0 -1 1421 603)" />
<circle cx="792" cy="225" r="9.5" transform="rotate(180 792 225)" />
<circle cx="546" cy="471" r="9.5" transform="rotate(180 546 471)" />
<circle cx="1451" cy="272" r="9.5" transform="rotate(180 1451 272)" />
<circle cx="5" cy="5" r="4.5" transform="matrix(1 0 0 -1 1076 446)" />
<circle cx="860" cy="524" r="4.5" transform="rotate(180 860 524)" />
<circle cx="5" cy="5" r="4.5" transform="matrix(1 0 0 -1 1346 426)" />
<circle cx="665" cy="505" r="4.5" transform="rotate(180 665 505)" />
<circle cx="10" cy="10" r="9.5" transform="matrix(1 0 0 -1 1629 452)" />
<circle cx="322" cy="125" r="9.5" transform="rotate(180 322 125)" />
<circle cx="240" cy="323" r="9.5" transform="rotate(180 240 323)" />
<circle cx="7" cy="7" r="6.5" transform="matrix(1 0 0 -1 1063 300)" />
<circle cx="871" cy="376" r="6.5" transform="rotate(180 871 376)" />
<circle cx="7" cy="7" r="6.5" transform="matrix(-1 0 0 1 1209 494)" />
<circle cx="139" cy="7" r="6.5" />
<circle cx="655" cy="373" r="4.5" transform="rotate(180 655 373)" />
<circle cx="589" cy="256" r="4.5" transform="rotate(180 589 256)" />
<circle cx="5" cy="5" r="4.5" transform="matrix(1 0 0 -1 1117 408)" />
<circle cx="5" cy="5" r="4.5" transform="matrix(1 0 0 -1 1421 494)" />
<circle cx="819" cy="486" r="4.5" transform="rotate(180 819 486)" />
<circle cx="103" cy="241" r="4.5" transform="rotate(180 103 241)" />
<circle cx="885" cy="182" r="4.5" transform="rotate(180 885 182)" />
<circle cx="13" cy="342" r="6.5" transform="rotate(180 13 342)" />
<circle cx="847" cy="126" r="6.5" transform="rotate(180 847 126)" />
<circle cx="5" cy="5" r="4.5" transform="matrix(1 0 0 -1 1579 644)" />
<circle cx="389" cy="368" r="4.5" transform="rotate(180 389 368)" />
<circle cx="5" cy="5" r="4.5" transform="matrix(1 0 0 -1 1542 354)" />
<circle cx="444" cy="162" r="4.5" transform="rotate(180 444 162)" />
<circle cx="250" cy="223" r="4.5" />
<path d="M194.518 177.628L177.855 160.965L194.483 144.336L211.146 160.999L194.518 177.628Z" stroke="#FC3D21"/>
<path d="M185.244 151.725C185.732 151.835 185.732 151.835 185.732 151.835L185.732 151.834L185.733 151.829L185.737 151.811L185.753 151.739L185.817 151.457C185.873 151.21 185.955 150.848 186.06 150.388C186.27 149.466 186.573 148.149 186.94 146.569C187.676 143.409 188.675 139.196 189.726 134.984C190.777 130.77 191.88 126.563 192.823 123.413C193.295 121.836 193.724 120.536 194.083 119.635C194.242 119.236 194.382 118.931 194.5 118.718C194.618 118.931 194.758 119.236 194.917 119.635C195.276 120.536 195.705 121.836 196.177 123.413C197.12 126.563 198.223 130.77 199.274 134.984C200.325 139.196 201.324 143.409 202.06 146.569C202.427 148.149 202.73 149.466 202.94 150.388C203.045 150.848 203.127 151.21 203.183 151.457L203.247 151.739L203.263 151.811L203.267 151.829L203.268 151.834L203.268 151.835C203.268 151.835 203.268 151.835 203.756 151.725M185.244 151.725C185.388 152.204 185.388 152.204 185.388 152.204L185.387 152.205L185.383 152.206L185.37 152.21L185.316 152.226L185.105 152.29C184.921 152.346 184.65 152.428 184.305 152.533C183.616 152.744 182.631 153.046 181.448 153.415C179.084 154.152 175.932 155.152 172.78 156.205C169.627 157.258 166.483 158.361 164.13 159.304C162.952 159.776 161.986 160.203 161.32 160.558C160.993 160.733 160.756 160.882 160.606 161C160.756 161.118 160.993 161.267 161.32 161.442C161.986 161.797 162.952 162.224 164.13 162.696C166.483 163.639 169.627 164.742 172.78 165.795C175.932 166.848 179.084 167.848 181.448 168.585C182.631 168.954 183.616 169.256 184.305 169.467C184.65 169.572 184.921 169.654 185.105 169.71L185.316 169.774L185.37 169.79L185.383 169.794L185.387 169.795L185.388 169.796C185.388 169.796 185.388 169.796 185.244 170.275M185.244 151.725L185.732 151.835L185.668 152.12L185.388 152.204L185.244 151.725ZM185.244 170.275C185.732 170.165 185.732 170.165 185.732 170.165L185.732 170.166L185.733 170.171L185.737 170.189L185.753 170.261L185.817 170.543C185.873 170.79 185.955 171.152 186.06 171.612C186.27 172.534 186.573 173.851 186.94 175.431C187.676 178.591 188.675 182.804 189.726 187.016C190.777 191.23 191.88 195.437 192.823 198.587C193.295 200.164 193.724 201.464 194.083 202.365C194.242 202.764 194.382 203.069 194.5 203.282C194.618 203.069 194.758 202.764 194.917 202.365C195.276 201.464 195.705 200.164 196.177 198.587C197.12 195.437 198.223 191.23 199.274 187.016C200.325 182.804 201.324 178.591 202.06 175.431C202.427 173.851 202.73 172.534 202.94 171.612C203.045 171.152 203.127 170.79 203.183 170.543L203.247 170.261L203.263 170.189L203.267 170.171L203.268 170.166L203.268 170.165C203.268 170.165 203.268 170.165 203.756 170.275M185.244 170.275L185.388 169.796L185.668 169.88L185.732 170.165L185.244 170.275ZM203.756 170.275C203.612 169.796 203.612 169.796 203.612 169.796L203.613 169.795L203.617 169.794L203.63 169.79L203.684 169.774L203.895 169.71C204.079 169.654 204.35 169.572 204.695 169.467C205.384 169.256 206.369 168.954 207.552 168.585C209.916 167.848 213.068 166.848 216.22 165.795C219.373 164.742 222.517 163.639 224.87 162.696C226.048 162.224 227.014 161.797 227.68 161.442C228.007 161.267 228.244 161.118 228.394 161C228.244 160.882 228.007 160.733 227.68 160.558C227.014 160.203 226.048 159.776 224.87 159.304C222.517 158.361 219.373 157.258 216.22 156.205C213.068 155.152 209.916 154.152 207.552 153.415C206.369 153.046 205.384 152.744 204.695 152.533C204.35 152.428 204.079 152.346 203.895 152.29L203.684 152.226L203.63 152.21L203.617 152.206L203.613 152.205L203.612 152.204C203.612 152.204 203.612 152.204 203.756 151.725M203.756 170.275L203.268 170.165L203.332 169.88L203.612 169.796L203.756 170.275ZM203.756 151.725L203.612 152.204L203.332 152.12L203.268 151.835L203.756 151.725ZM194.689 118.441C194.689 118.441 194.687 118.443 194.682 118.447C194.687 118.442 194.689 118.441 194.689 118.441ZM194.318 118.447C194.313 118.443 194.311 118.441 194.311 118.441C194.311 118.441 194.313 118.442 194.318 118.447ZM228.531 161.13C228.531 161.131 228.53 161.129 228.529 161.127C228.53 161.129 228.531 161.13 228.531 161.13ZM194.311 203.559C194.311 203.559 194.313 203.556 194.318 203.553C194.313 203.558 194.311 203.559 194.311 203.559ZM160.469 160.87C160.469 160.87 160.47 160.871 160.471 160.873C160.469 160.871 160.469 160.87 160.469 160.87ZM160.471 161.127C160.47 161.129 160.469 161.13 160.469 161.13C160.469 161.13 160.469 161.129 160.471 161.127Z" />
<path d="M945.518 315.628L928.855 298.965L945.483 282.336L962.146 298.999L945.518 315.628Z" stroke="#FC3D21"/>
<path d="M936.244 289.725C936.732 289.835 936.732 289.835 936.732 289.835L936.732 289.834L936.733 289.829L936.737 289.811L936.753 289.739L936.817 289.457C936.873 289.21 936.955 288.848 937.06 288.388C937.27 287.466 937.573 286.149 937.94 284.569C938.676 281.409 939.675 277.196 940.726 272.984C941.777 268.77 942.88 264.563 943.823 261.413C944.295 259.836 944.724 258.536 945.083 257.635C945.242 257.236 945.382 256.931 945.5 256.718C945.618 256.931 945.758 257.236 945.917 257.635C946.276 258.536 946.705 259.836 947.177 261.413C948.12 264.563 949.223 268.77 950.274 272.984C951.325 277.196 952.324 281.409 953.06 284.569C953.427 286.149 953.73 287.466 953.94 288.388C954.045 288.848 954.127 289.21 954.183 289.457L954.247 289.739L954.263 289.811L954.267 289.829L954.268 289.834L954.268 289.835C954.268 289.835 954.268 289.835 954.756 289.725M936.244 289.725C936.388 290.204 936.388 290.204 936.388 290.204L936.387 290.205L936.383 290.206L936.37 290.21L936.316 290.226L936.105 290.29C935.921 290.346 935.65 290.428 935.305 290.533C934.616 290.744 933.631 291.046 932.448 291.415C930.084 292.152 926.932 293.152 923.78 294.205C920.627 295.258 917.483 296.361 915.13 297.304C913.952 297.776 912.986 298.203 912.32 298.558C911.993 298.733 911.756 298.882 911.606 299C911.756 299.118 911.993 299.267 912.32 299.442C912.986 299.797 913.952 300.224 915.13 300.696C917.483 301.639 920.627 302.742 923.78 303.795C926.932 304.848 930.084 305.848 932.448 306.585C933.631 306.954 934.616 307.256 935.305 307.467C935.65 307.572 935.921 307.654 936.105 307.71L936.316 307.774L936.37 307.79L936.383 307.794L936.387 307.795L936.388 307.796C936.388 307.796 936.388 307.796 936.244 308.275M936.244 289.725L936.732 289.835L936.668 290.12L936.388 290.204L936.244 289.725ZM936.244 308.275C936.732 308.165 936.732 308.165 936.732 308.165L936.732 308.166L936.733 308.171L936.737 308.189L936.753 308.261L936.817 308.543C936.873 308.79 936.955 309.152 937.06 309.612C937.27 310.534 937.573 311.851 937.94 313.431C938.676 316.591 939.675 320.804 940.726 325.016C941.777 329.23 942.88 333.437 943.823 336.587C944.295 338.164 944.724 339.464 945.083 340.365C945.242 340.764 945.382 341.069 945.5 341.282C945.618 341.069 945.758 340.764 945.917 340.365C946.276 339.464 946.705 338.164 947.177 336.587C948.12 333.437 949.223 329.23 950.274 325.016C951.325 320.804 952.324 316.591 953.06 313.431C953.427 311.851 953.73 310.534 953.94 309.612C954.045 309.152 954.127 308.79 954.183 308.543L954.247 308.261L954.263 308.189L954.267 308.171L954.268 308.166L954.268 308.165C954.268 308.165 954.268 308.165 954.756 308.275M936.244 308.275L936.388 307.796L936.668 307.88L936.732 308.165L936.244 308.275ZM954.756 308.275C954.612 307.796 954.612 307.796 954.612 307.796L954.613 307.795L954.617 307.794L954.63 307.79L954.684 307.774L954.895 307.71C955.079 307.654 955.35 307.572 955.695 307.467C956.384 307.256 957.369 306.954 958.552 306.585C960.916 305.848 964.068 304.848 967.22 303.795C970.373 302.742 973.517 301.639 975.87 300.696C977.048 300.224 978.014 299.797 978.68 299.442C979.007 299.267 979.244 299.118 979.394 299C979.244 298.882 979.007 298.733 978.68 298.558C978.014 298.203 977.048 297.776 975.87 297.304C973.517 296.361 970.373 295.258 967.22 294.205C964.068 293.152 960.916 292.152 958.552 291.415C957.369 291.046 956.384 290.744 955.695 290.533C955.35 290.428 955.079 290.346 954.895 290.29L954.684 290.226L954.63 290.21L954.617 290.206L954.613 290.205L954.612 290.204C954.612 290.204 954.612 290.204 954.756 289.725M954.756 308.275L954.268 308.165L954.332 307.88L954.612 307.796L954.756 308.275ZM954.756 289.725L954.612 290.204L954.332 290.12L954.268 289.835L954.756 289.725ZM945.689 256.441C945.689 256.441 945.687 256.443 945.682 256.447C945.687 256.442 945.689 256.441 945.689 256.441ZM945.318 256.447C945.313 256.443 945.311 256.441 945.311 256.441C945.311 256.441 945.313 256.442 945.318 256.447ZM979.531 299.13C979.531 299.131 979.53 299.129 979.529 299.127C979.53 299.129 979.531 299.13 979.531 299.13ZM945.311 341.559C945.311 341.559 945.313 341.556 945.318 341.553C945.313 341.558 945.311 341.559 945.311 341.559ZM911.469 298.87C911.469 298.87 911.47 298.871 911.471 298.873C911.469 298.871 911.469 298.87 911.469 298.87ZM911.471 299.127C911.47 299.129 911.469 299.13 911.469 299.13C911.469 299.13 911.469 299.129 911.471 299.127Z" />
<path d="M510.376 228.478L510.022 228.125L509.668 228.478L500.5 237.646L500.147 238L500.5 238.354L509.626 247.479L509.979 247.833L510.333 247.479L519.501 238.311L519.855 237.957L519.501 237.604L510.376 228.478Z" stroke="#FC3D21"/>
<path d="M504.366 232.392L504.509 232.871L504.789 232.788L504.854 232.502L504.366 232.392ZM504.366 232.392C504.509 232.871 504.509 232.871 504.509 232.871L504.508 232.871L504.506 232.872L504.498 232.875L504.465 232.884L504.337 232.923C504.225 232.956 504.06 233.006 503.851 233.07C503.431 233.197 502.832 233.38 502.113 233.603C500.674 234.048 498.757 234.652 496.84 235.288C494.922 235.925 493.012 236.59 491.586 237.158C490.87 237.443 490.29 237.698 489.895 237.908C489.833 237.941 489.778 237.971 489.728 238C489.778 238.029 489.833 238.059 489.895 238.092C490.29 238.302 490.87 238.557 491.586 238.842C493.012 239.41 494.922 240.075 496.84 240.712C498.757 241.348 500.674 241.952 502.113 242.397C502.832 242.62 503.431 242.803 503.851 242.93C504.06 242.994 504.225 243.044 504.337 243.077L504.465 243.116L504.498 243.125L504.506 243.128L504.508 243.129L504.509 243.129C504.509 243.129 504.509 243.129 504.366 243.608M504.366 232.392C504.854 232.502 504.854 232.502 504.854 232.502L504.854 232.502L504.854 232.499L504.857 232.488L504.867 232.444L504.905 232.274C504.939 232.125 504.989 231.906 505.053 231.628C505.181 231.071 505.365 230.275 505.589 229.32C506.037 227.41 506.644 224.863 507.284 222.318C507.924 219.771 508.593 217.231 509.166 215.331C509.453 214.378 509.712 213.599 509.928 213.063C509.953 213 509.977 212.942 510 212.888C510.023 212.942 510.047 213 510.072 213.063C510.288 213.599 510.547 214.378 510.834 215.331C511.407 217.231 512.076 219.771 512.716 222.318C513.356 224.863 513.963 227.41 514.411 229.32C514.635 230.275 514.819 231.071 514.947 231.628C515.011 231.906 515.061 232.125 515.095 232.274L515.133 232.444L515.143 232.488L515.146 232.499L515.146 232.502L515.146 232.502C515.146 232.502 515.146 232.502 515.634 232.392M515.634 232.392L515.146 232.502L515.211 232.788L515.491 232.871L515.634 232.392ZM515.634 232.392C515.491 232.871 515.491 232.871 515.491 232.871L515.492 232.871L515.494 232.872L515.502 232.875L515.535 232.884L515.663 232.923C515.775 232.956 515.94 233.006 516.149 233.07C516.569 233.197 517.168 233.38 517.887 233.603C519.326 234.048 521.243 234.652 523.16 235.288C525.078 235.925 526.988 236.59 528.414 237.158C529.13 237.443 529.71 237.698 530.105 237.908C530.167 237.941 530.222 237.971 530.272 238C530.222 238.029 530.167 238.059 530.105 238.092C529.71 238.302 529.13 238.557 528.414 238.842C526.988 239.41 525.078 240.075 523.16 240.712C521.243 241.348 519.326 241.952 517.887 242.397C517.168 242.62 516.569 242.803 516.149 242.93C515.94 242.994 515.775 243.044 515.663 243.077L515.535 243.116L515.502 243.125L515.494 243.128L515.492 243.129L515.491 243.129C515.491 243.129 515.491 243.129 515.634 243.608M515.634 243.608L515.491 243.129L515.211 243.212L515.146 243.498L515.634 243.608ZM515.634 243.608C515.146 243.498 515.146 243.498 515.146 243.498L515.146 243.498L515.146 243.501L515.143 243.512L515.133 243.556L515.095 243.726C515.061 243.875 515.011 244.094 514.947 244.372C514.819 244.929 514.635 245.725 514.411 246.68C513.963 248.59 513.356 251.137 512.716 253.682C512.076 256.229 511.407 258.769 510.834 260.669C510.547 261.622 510.288 262.401 510.072 262.937C510.047 263 510.023 263.058 510 263.112C509.977 263.058 509.953 263 509.928 262.937C509.712 262.401 509.453 261.622 509.166 260.669C508.593 258.769 507.924 256.229 507.284 253.682C506.644 251.137 506.037 248.59 505.589 246.68C505.365 245.725 505.181 244.929 505.053 244.372C504.989 244.094 504.939 243.875 504.905 243.726L504.867 243.556L504.857 243.512L504.854 243.501L504.854 243.498L504.854 243.498C504.854 243.498 504.854 243.498 504.366 243.608M504.366 243.608L504.854 243.498L504.789 243.212L504.509 243.129L504.366 243.608Z" />
<path d="M556.376 159.478L556.022 159.125L555.668 159.478L546.5 168.646L546.147 169L546.5 169.354L555.626 178.479L555.979 178.833L556.333 178.479L565.501 169.311L565.855 168.957L565.501 168.604L556.376 159.478Z" stroke="#FC3D21"/>
<path d="M550.366 163.392L550.509 163.871L550.789 163.788L550.854 163.502L550.366 163.392ZM550.366 163.392C550.509 163.871 550.509 163.871 550.509 163.871L550.508 163.871L550.506 163.872L550.498 163.875L550.465 163.884L550.337 163.923C550.225 163.956 550.06 164.006 549.851 164.07C549.431 164.197 548.832 164.38 548.113 164.603C546.674 165.048 544.757 165.652 542.84 166.288C540.922 166.925 539.012 167.59 537.586 168.158C536.87 168.443 536.29 168.698 535.895 168.908C535.833 168.941 535.778 168.971 535.728 169C535.778 169.029 535.833 169.059 535.895 169.092C536.29 169.302 536.87 169.557 537.586 169.842C539.012 170.41 540.922 171.075 542.84 171.712C544.757 172.348 546.674 172.952 548.113 173.397C548.832 173.62 549.431 173.803 549.851 173.93C550.06 173.994 550.225 174.044 550.337 174.077L550.465 174.116L550.498 174.125L550.506 174.128L550.508 174.129L550.509 174.129C550.509 174.129 550.509 174.129 550.366 174.608M550.366 163.392C550.854 163.502 550.854 163.502 550.854 163.502L550.854 163.502L550.854 163.499L550.857 163.488L550.867 163.444L550.905 163.274C550.939 163.125 550.989 162.906 551.053 162.628C551.181 162.071 551.365 161.275 551.589 160.32C552.037 158.41 552.644 155.863 553.284 153.318C553.924 150.771 554.593 148.231 555.166 146.331C555.453 145.378 555.712 144.599 555.928 144.063C555.953 144 555.977 143.942 556 143.888C556.023 143.942 556.047 144 556.072 144.063C556.288 144.599 556.547 145.378 556.834 146.331C557.407 148.231 558.076 150.771 558.716 153.318C559.356 155.863 559.963 158.41 560.411 160.32C560.635 161.275 560.819 162.071 560.947 162.628C561.011 162.906 561.061 163.125 561.095 163.274L561.133 163.444L561.143 163.488L561.146 163.499L561.146 163.502L561.146 163.502C561.146 163.502 561.146 163.502 561.634 163.392M561.634 163.392L561.146 163.502L561.211 163.788L561.491 163.871L561.634 163.392ZM561.634 163.392C561.491 163.871 561.491 163.871 561.491 163.871L561.492 163.871L561.494 163.872L561.502 163.875L561.535 163.884L561.663 163.923C561.775 163.956 561.94 164.006 562.149 164.07C562.569 164.197 563.168 164.38 563.887 164.603C565.326 165.048 567.243 165.652 569.16 166.288C571.078 166.925 572.988 167.59 574.414 168.158C575.13 168.443 575.71 168.698 576.105 168.908C576.167 168.941 576.222 168.971 576.272 169C576.222 169.029 576.167 169.059 576.105 169.092C575.71 169.302 575.13 169.557 574.414 169.842C572.988 170.41 571.078 171.075 569.16 171.712C567.243 172.348 565.326 172.952 563.887 173.397C563.168 173.62 562.569 173.803 562.149 173.93C561.94 173.994 561.775 174.044 561.663 174.077L561.535 174.116L561.502 174.125L561.494 174.128L561.492 174.129L561.491 174.129C561.491 174.129 561.491 174.129 561.634 174.608M561.634 174.608L561.491 174.129L561.211 174.212L561.146 174.498L561.634 174.608ZM561.634 174.608C561.146 174.498 561.146 174.498 561.146 174.498L561.146 174.498L561.146 174.501L561.143 174.512L561.133 174.556L561.095 174.726C561.061 174.875 561.011 175.094 560.947 175.372C560.819 175.929 560.635 176.725 560.411 177.68C559.963 179.59 559.356 182.137 558.716 184.682C558.076 187.229 557.407 189.769 556.834 191.669C556.547 192.622 556.288 193.401 556.072 193.937C556.047 194 556.023 194.058 556 194.112C555.977 194.058 555.953 194 555.928 193.937C555.712 193.401 555.453 192.622 555.166 191.669C554.593 189.769 553.924 187.229 553.284 184.682C552.644 182.137 552.037 179.59 551.589 177.68C551.365 176.725 551.181 175.929 551.053 175.372C550.989 175.094 550.939 174.875 550.905 174.726L550.867 174.556L550.857 174.512L550.854 174.501L550.854 174.498L550.854 174.498C550.854 174.498 550.854 174.498 550.366 174.608M550.366 174.608L550.854 174.498L550.789 174.212L550.509 174.129L550.366 174.608Z" />
<path d="M1208.62 372.478L1208.98 372.125L1209.33 372.478L1218.5 381.646L1218.85 382L1218.5 382.354L1209.37 391.479L1209.02 391.833L1208.67 391.479L1199.5 382.311L1199.15 381.957L1199.5 381.604L1208.62 372.478Z" stroke="#FC3D21"/>
<path d="M1214.63 376.392L1214.49 376.871L1214.21 376.788L1214.15 376.502L1214.63 376.392ZM1214.63 376.392C1214.49 376.871 1214.49 376.871 1214.49 376.871L1214.49 376.871L1214.49 376.872L1214.5 376.875L1214.53 376.884L1214.66 376.923C1214.77 376.956 1214.94 377.006 1215.15 377.07C1215.57 377.197 1216.17 377.38 1216.89 377.603C1218.33 378.048 1220.24 378.652 1222.16 379.288C1224.08 379.925 1225.99 380.59 1227.41 381.158C1228.13 381.443 1228.71 381.698 1229.11 381.908C1229.17 381.941 1229.22 381.971 1229.27 382C1229.22 382.029 1229.17 382.059 1229.11 382.092C1228.71 382.302 1228.13 382.557 1227.41 382.842C1225.99 383.41 1224.08 384.075 1222.16 384.712C1220.24 385.348 1218.33 385.952 1216.89 386.397C1216.17 386.62 1215.57 386.803 1215.15 386.93C1214.94 386.994 1214.77 387.044 1214.66 387.077L1214.53 387.116L1214.5 387.125L1214.49 387.128L1214.49 387.129L1214.49 387.129C1214.49 387.129 1214.49 387.129 1214.63 387.608M1214.63 376.392C1214.15 376.502 1214.15 376.502 1214.15 376.502L1214.15 376.502L1214.15 376.499L1214.14 376.488L1214.13 376.444L1214.09 376.274C1214.06 376.125 1214.01 375.906 1213.95 375.628C1213.82 375.071 1213.63 374.275 1213.41 373.32C1212.96 371.41 1212.36 368.863 1211.72 366.318C1211.08 363.771 1210.41 361.231 1209.83 359.331C1209.55 358.378 1209.29 357.599 1209.07 357.063C1209.05 357 1209.02 356.942 1209 356.888C1208.98 356.942 1208.95 357 1208.93 357.063C1208.71 357.599 1208.45 358.378 1208.17 359.331C1207.59 361.231 1206.92 363.771 1206.28 366.318C1205.64 368.863 1205.04 371.41 1204.59 373.32C1204.37 374.275 1204.18 375.071 1204.05 375.628C1203.99 375.906 1203.94 376.125 1203.91 376.274L1203.87 376.444L1203.86 376.488L1203.85 376.499L1203.85 376.502L1203.85 376.502C1203.85 376.502 1203.85 376.502 1203.37 376.392M1203.37 376.392L1203.85 376.502L1203.79 376.788L1203.51 376.871L1203.37 376.392ZM1203.37 376.392C1203.51 376.871 1203.51 376.871 1203.51 376.871L1203.51 376.871L1203.51 376.872L1203.5 376.875L1203.47 376.884L1203.34 376.923C1203.23 376.956 1203.06 377.006 1202.85 377.07C1202.43 377.197 1201.83 377.38 1201.11 377.603C1199.67 378.048 1197.76 378.652 1195.84 379.288C1193.92 379.925 1192.01 380.59 1190.59 381.158C1189.87 381.443 1189.29 381.698 1188.89 381.908C1188.83 381.941 1188.78 381.971 1188.73 382C1188.78 382.029 1188.83 382.059 1188.89 382.092C1189.29 382.302 1189.87 382.557 1190.59 382.842C1192.01 383.41 1193.92 384.075 1195.84 384.712C1197.76 385.348 1199.67 385.952 1201.11 386.397C1201.83 386.62 1202.43 386.803 1202.85 386.93C1203.06 386.994 1203.23 387.044 1203.34 387.077L1203.47 387.116L1203.5 387.125L1203.51 387.128L1203.51 387.129L1203.51 387.129C1203.51 387.129 1203.51 387.129 1203.37 387.608M1203.37 387.608L1203.51 387.129L1203.79 387.212L1203.85 387.498L1203.37 387.608ZM1203.37 387.608C1203.85 387.498 1203.85 387.498 1203.85 387.498L1203.85 387.498L1203.85 387.501L1203.86 387.512L1203.87 387.556L1203.91 387.726C1203.94 387.875 1203.99 388.094 1204.05 388.372C1204.18 388.929 1204.37 389.725 1204.59 390.68C1205.04 392.59 1205.64 395.137 1206.28 397.682C1206.92 400.229 1207.59 402.769 1208.17 404.669C1208.45 405.622 1208.71 406.401 1208.93 406.937C1208.95 407 1208.98 407.058 1209 407.112C1209.02 407.058 1209.05 407 1209.07 406.937C1209.29 406.401 1209.55 405.622 1209.83 404.669C1210.41 402.769 1211.08 400.229 1211.72 397.682C1212.36 395.137 1212.96 392.59 1213.41 390.68C1213.63 389.725 1213.82 388.929 1213.95 388.372C1214.01 388.094 1214.06 387.875 1214.09 387.726L1214.13 387.556L1214.14 387.512L1214.15 387.501L1214.15 387.498L1214.15 387.498C1214.15 387.498 1214.15 387.498 1214.63 387.608M1214.63 387.608L1214.15 387.498L1214.21 387.212L1214.49 387.129L1214.63 387.608Z" />
<path d="M739.376 433.478L739.022 433.125L738.668 433.478L729.5 442.646L729.147 443L729.5 443.354L738.626 452.479L738.979 452.833L739.333 452.479L748.501 443.311L748.855 442.957L748.501 442.604L739.376 433.478Z" stroke="#FC3D21"/>
<path d="M733.366 437.392L733.509 437.871L733.789 437.788L733.854 437.502L733.366 437.392ZM733.366 437.392C733.509 437.871 733.509 437.871 733.509 437.871L733.508 437.871L733.506 437.872L733.498 437.875L733.465 437.884L733.337 437.923C733.225 437.956 733.06 438.006 732.851 438.07C732.431 438.197 731.832 438.38 731.113 438.603C729.674 439.048 727.757 439.652 725.84 440.288C723.922 440.925 722.012 441.59 720.586 442.158C719.87 442.443 719.29 442.698 718.895 442.908C718.833 442.941 718.778 442.971 718.728 443C718.778 443.029 718.833 443.059 718.895 443.092C719.29 443.302 719.87 443.557 720.586 443.842C722.012 444.41 723.922 445.075 725.84 445.712C727.757 446.348 729.674 446.952 731.113 447.397C731.832 447.62 732.431 447.803 732.851 447.93C733.06 447.994 733.225 448.044 733.337 448.077L733.465 448.116L733.498 448.125L733.506 448.128L733.508 448.129L733.509 448.129C733.509 448.129 733.509 448.129 733.366 448.608M733.366 437.392C733.854 437.502 733.854 437.502 733.854 437.502L733.854 437.502L733.854 437.499L733.857 437.488L733.867 437.444L733.905 437.274C733.939 437.125 733.989 436.906 734.053 436.628C734.181 436.071 734.365 435.275 734.589 434.32C735.037 432.41 735.644 429.863 736.284 427.318C736.924 424.771 737.593 422.231 738.166 420.331C738.453 419.378 738.712 418.599 738.928 418.063C738.953 418 738.977 417.942 739 417.888C739.023 417.942 739.047 418 739.072 418.063C739.288 418.599 739.547 419.378 739.834 420.331C740.407 422.231 741.076 424.771 741.716 427.318C742.356 429.863 742.963 432.41 743.411 434.32C743.635 435.275 743.819 436.071 743.947 436.628C744.011 436.906 744.061 437.125 744.095 437.274L744.133 437.444L744.143 437.488L744.146 437.499L744.146 437.502L744.146 437.502C744.146 437.502 744.146 437.502 744.634 437.392M744.634 437.392L744.146 437.502L744.211 437.788L744.491 437.871L744.634 437.392ZM744.634 437.392C744.491 437.871 744.491 437.871 744.491 437.871L744.492 437.871L744.494 437.872L744.502 437.875L744.535 437.884L744.663 437.923C744.775 437.956 744.94 438.006 745.149 438.07C745.569 438.197 746.168 438.38 746.887 438.603C748.326 439.048 750.243 439.652 752.16 440.288C754.078 440.925 755.988 441.59 757.414 442.158C758.13 442.443 758.71 442.698 759.105 442.908C759.167 442.941 759.222 442.971 759.272 443C759.222 443.029 759.167 443.059 759.105 443.092C758.71 443.302 758.13 443.557 757.414 443.842C755.988 444.41 754.078 445.075 752.16 445.712C750.243 446.348 748.326 446.952 746.887 447.397C746.168 447.62 745.569 447.803 745.149 447.93C744.94 447.994 744.775 448.044 744.663 448.077L744.535 448.116L744.502 448.125L744.494 448.128L744.492 448.129L744.491 448.129C744.491 448.129 744.491 448.129 744.634 448.608M744.634 448.608L744.491 448.129L744.211 448.212L744.146 448.498L744.634 448.608ZM744.634 448.608C744.146 448.498 744.146 448.498 744.146 448.498L744.146 448.498L744.146 448.501L744.143 448.512L744.133 448.556L744.095 448.726C744.061 448.875 744.011 449.094 743.947 449.372C743.819 449.929 743.635 450.725 743.411 451.68C742.963 453.59 742.356 456.137 741.716 458.682C741.076 461.229 740.407 463.769 739.834 465.669C739.547 466.622 739.288 467.401 739.072 467.937C739.047 468 739.023 468.058 739 468.112C738.977 468.058 738.953 468 738.928 467.937C738.712 467.401 738.453 466.622 738.166 465.669C737.593 463.769 736.924 461.229 736.284 458.682C735.644 456.137 735.037 453.59 734.589 451.68C734.365 450.725 734.181 449.929 734.053 449.372C733.989 449.094 733.939 448.875 733.905 448.726L733.867 448.556L733.857 448.512L733.854 448.501L733.854 448.498L733.854 448.498C733.854 448.498 733.854 448.498 733.366 448.608M733.366 448.608L733.854 448.498L733.789 448.212L733.509 448.129L733.366 448.608Z" />
<path d="M1274.62 309.478L1274.98 309.125L1275.33 309.478L1284.5 318.646L1284.85 319L1284.5 319.354L1275.37 328.479L1275.02 328.833L1274.67 328.479L1265.5 319.311L1265.15 318.957L1265.5 318.604L1274.62 309.478Z" stroke="#FC3D21"/>
<path d="M1280.63 313.392L1280.49 313.871L1280.21 313.788L1280.15 313.502L1280.63 313.392ZM1280.63 313.392C1280.49 313.871 1280.49 313.871 1280.49 313.871L1280.49 313.871L1280.49 313.872L1280.5 313.875L1280.53 313.884L1280.66 313.923C1280.77 313.956 1280.94 314.006 1281.15 314.07C1281.57 314.197 1282.17 314.38 1282.89 314.603C1284.33 315.048 1286.24 315.652 1288.16 316.288C1290.08 316.925 1291.99 317.59 1293.41 318.158C1294.13 318.443 1294.71 318.698 1295.11 318.908C1295.17 318.941 1295.22 318.971 1295.27 319C1295.22 319.029 1295.17 319.059 1295.11 319.092C1294.71 319.302 1294.13 319.557 1293.41 319.842C1291.99 320.41 1290.08 321.075 1288.16 321.712C1286.24 322.348 1284.33 322.952 1282.89 323.397C1282.17 323.62 1281.57 323.803 1281.15 323.93C1280.94 323.994 1280.77 324.044 1280.66 324.077L1280.53 324.116L1280.5 324.125L1280.49 324.128L1280.49 324.129L1280.49 324.129C1280.49 324.129 1280.49 324.129 1280.63 324.608M1280.63 313.392C1280.15 313.502 1280.15 313.502 1280.15 313.502L1280.15 313.502L1280.15 313.499L1280.14 313.488L1280.13 313.444L1280.09 313.274C1280.06 313.125 1280.01 312.906 1279.95 312.628C1279.82 312.071 1279.63 311.275 1279.41 310.32C1278.96 308.41 1278.36 305.863 1277.72 303.318C1277.08 300.771 1276.41 298.231 1275.83 296.331C1275.55 295.378 1275.29 294.599 1275.07 294.063C1275.05 294 1275.02 293.942 1275 293.888C1274.98 293.942 1274.95 294 1274.93 294.063C1274.71 294.599 1274.45 295.378 1274.17 296.331C1273.59 298.231 1272.92 300.771 1272.28 303.318C1271.64 305.863 1271.04 308.41 1270.59 310.32C1270.37 311.275 1270.18 312.071 1270.05 312.628C1269.99 312.906 1269.94 313.125 1269.91 313.274L1269.87 313.444L1269.86 313.488L1269.85 313.499L1269.85 313.502L1269.85 313.502C1269.85 313.502 1269.85 313.502 1269.37 313.392M1269.37 313.392L1269.85 313.502L1269.79 313.788L1269.51 313.871L1269.37 313.392ZM1269.37 313.392C1269.51 313.871 1269.51 313.871 1269.51 313.871L1269.51 313.871L1269.51 313.872L1269.5 313.875L1269.47 313.884L1269.34 313.923C1269.23 313.956 1269.06 314.006 1268.85 314.07C1268.43 314.197 1267.83 314.38 1267.11 314.603C1265.67 315.048 1263.76 315.652 1261.84 316.288C1259.92 316.925 1258.01 317.59 1256.59 318.158C1255.87 318.443 1255.29 318.698 1254.89 318.908C1254.83 318.941 1254.78 318.971 1254.73 319C1254.78 319.029 1254.83 319.059 1254.89 319.092C1255.29 319.302 1255.87 319.557 1256.59 319.842C1258.01 320.41 1259.92 321.075 1261.84 321.712C1263.76 322.348 1265.67 322.952 1267.11 323.397C1267.83 323.62 1268.43 323.803 1268.85 323.93C1269.06 323.994 1269.23 324.044 1269.34 324.077L1269.47 324.116L1269.5 324.125L1269.51 324.128L1269.51 324.129L1269.51 324.129C1269.51 324.129 1269.51 324.129 1269.37 324.608M1269.37 324.608L1269.51 324.129L1269.79 324.212L1269.85 324.498L1269.37 324.608ZM1269.37 324.608C1269.85 324.498 1269.85 324.498 1269.85 324.498L1269.85 324.498L1269.85 324.501L1269.86 324.512L1269.87 324.556L1269.91 324.726C1269.94 324.875 1269.99 325.094 1270.05 325.372C1270.18 325.929 1270.37 326.725 1270.59 327.68C1271.04 329.59 1271.64 332.137 1272.28 334.682C1272.92 337.229 1273.59 339.769 1274.17 341.669C1274.45 342.622 1274.71 343.401 1274.93 343.937C1274.95 344 1274.98 344.058 1275 344.112C1275.02 344.058 1275.05 344 1275.07 343.937C1275.29 343.401 1275.55 342.622 1275.83 341.669C1276.41 339.769 1277.08 337.229 1277.72 334.682C1278.36 332.137 1278.96 329.59 1279.41 327.68C1279.63 326.725 1279.82 325.929 1279.95 325.372C1280.01 325.094 1280.06 324.875 1280.09 324.726L1280.13 324.556L1280.14 324.512L1280.15 324.501L1280.15 324.498L1280.15 324.498C1280.15 324.498 1280.15 324.498 1280.63 324.608M1280.63 324.608L1280.15 324.498L1280.21 324.212L1280.49 324.129L1280.63 324.608Z" />
</svg>
