<svg width="512" height="495" viewBox="0 0 512 495" fill="none" xmlns="http://www.w3.org/2000/svg">
<path d="M188.98 2.99484L188.947 1H213.053L213.02 2.99484C212.183 52.6227 210.862 130.973 217.5 151.5C226.327 178.798 298.919 135.525 334.5 141C354 144.001 346 188.05 401 188.05V213.95C346 213.95 301.5 214.5 282 217.501C246.419 222.976 226.327 223.203 217.5 250.501C210.862 271.028 212.183 349.378 213.02 399.006L213.053 401H188.947L188.98 399.006C189.817 349.378 191.138 271.028 184.5 250.501C175.673 223.203 121.581 248.975 86 243.5C66.5 240.499 56 213.95 1 213.95V188.05C56 188.05 100.5 187.5 120 184.5C155.581 179.025 175.673 178.798 184.5 151.5C191.138 130.973 189.817 52.6227 188.98 2.99484Z" fill="black" stroke="black"/>
<rect x="247" y="239" width="64" height="26" fill="black"/>
<rect x="247" y="265" width="105" height="22" fill="black"/>
<rect x="247" y="287" width="76" height="22" fill="black"/>
<rect x="247" y="309" width="40" height="22" fill="black"/>
<rect x="4" y="279.721" width="430" height="54" transform="rotate(-28.61 4 279.721)" fill="black"/>
<circle cx="201" cy="201" r="107" fill="black"/>
<path d="M201 380C300.411 380 381 299.411 381 200H201V380Z" fill="black"/>
</svg>
