<svg width="512" height="495" viewBox="0 0 512 495" fill="none" xmlns="http://www.w3.org/2000/svg">
<path d="M184.5 151.5C191.227 130.695 199.78 50.4958 198.947 1H203.053C202.22 50.4958 210.773 130.695 217.5 151.5C226.327 178.798 246.419 189.025 282 194.5C301.5 197.5 346 198.05 401 198.05V203.95C346 203.95 301.5 204.5 282 207.501C246.419 212.976 226.327 223.203 217.5 250.501C210.773 271.305 202.22 351.505 203.053 401H198.947C199.78 351.505 191.227 271.305 184.5 250.501C175.673 223.203 155.581 212.976 120 207.501C100.5 204.5 56 203.95 1 203.95V198.05C56 198.05 100.5 197.5 120 194.5C155.581 189.025 175.673 178.798 184.5 151.5Z" stroke="black"/>
<mask id="path-2-outside-1_1404_7194" maskUnits="userSpaceOnUse" x="27.5508" y="94.0273" width="361" height="213" fill="black">
<rect fill="white" x="27.5508" y="94.0273" width="361" height="213"/>
<path d="M40.6644 304.987C39.419 305.666 38.1382 305.99 36.822 305.957C35.5159 305.891 34.2947 305.503 33.1584 304.796C32.0322 304.054 31.1173 303.038 30.4136 301.748L29.5765 300.214C29.5279 300.125 29.5482 300.056 29.6371 300.007L33.4067 297.951C33.4956 297.903 33.5705 297.934 33.6311 298.045L34.45 299.546C34.8989 300.369 35.4964 300.909 36.2425 301.166C36.9885 301.422 37.7285 301.35 38.4624 300.95C39.1296 300.586 39.5562 299.993 39.7421 299.17C39.9281 298.347 39.8209 297.569 39.4205 296.835L30.376 280.255C30.3275 280.166 30.3477 280.098 30.4366 280.049L34.1728 278.011C34.2618 277.962 34.3366 277.994 34.3973 278.105L43.457 294.633C44.1242 295.856 44.4427 297.154 44.4125 298.527C44.3924 299.865 44.0629 301.113 43.424 302.269C42.7852 303.426 41.8653 304.331 40.6644 304.987ZM69.2561 289.389C68.0552 290.044 66.7906 290.344 65.4622 290.29C64.144 290.201 62.9117 289.82 61.7653 289.147C60.6067 288.451 59.6938 287.492 59.0266 286.269L53.2911 275.676C52.6238 274.453 52.3063 273.183 52.3386 271.867C52.3931 270.538 52.7569 269.301 53.4301 268.155C54.1033 267.008 55.0293 266.114 56.208 265.471C57.4089 264.815 58.6624 264.521 59.9685 264.588C61.2746 264.654 62.4897 265.03 63.6139 265.716C64.7603 266.389 65.6672 267.337 66.3344 268.56L72.1366 279.117C72.8039 280.34 73.1164 281.627 73.074 282.978C73.0417 284.294 72.695 285.536 72.034 286.705C71.383 287.839 70.4571 288.734 69.2561 289.389ZM67.0541 285.353C67.7213 284.989 68.154 284.406 68.3521 283.606C68.5602 282.771 68.4763 282.008 68.1002 281.319L62.298 270.762C61.8976 270.028 61.3244 269.533 60.5784 269.276C59.8323 269.02 59.1034 269.085 58.3918 269.474C57.7024 269.85 57.2525 270.427 57.0423 271.205C56.8199 271.962 56.915 272.718 57.3275 273.474L63.0964 284.049C63.4967 284.783 64.0871 285.283 64.8676 285.55C65.6359 285.794 66.3647 285.729 67.0541 285.353ZM98.7102 273.321C97.5315 273.964 96.278 274.258 94.9497 274.204C93.6092 274.127 92.3597 273.741 91.2012 273.045C90.0649 272.338 89.1631 271.372 88.4958 270.149L79.4634 253.433C79.4149 253.344 79.4351 253.276 79.5241 253.227L83.2603 251.189C83.3492 251.14 83.418 251.161 83.4665 251.25L92.5656 267.929C92.9781 268.685 93.5635 269.203 94.3217 269.482C95.09 269.726 95.8188 269.661 96.5082 269.285C97.2199 268.896 97.6697 268.319 97.8577 267.553C98.0558 266.752 97.9486 265.974 97.5361 265.218L88.437 248.538C88.3885 248.449 88.4087 248.38 88.4976 248.332L92.2338 246.294C92.3228 246.245 92.3915 246.265 92.4401 246.354L101.606 262.997C102.285 264.243 102.604 265.541 102.561 266.891C102.541 268.23 102.195 269.472 101.521 270.619C100.87 271.753 99.9334 272.654 98.7102 273.321ZM121.913 260.23C121.824 260.279 121.75 260.247 121.689 260.136L109.253 237.182C109.205 237.093 109.225 237.024 109.314 236.976L116.053 233.3C117.254 232.645 118.518 232.344 119.847 232.399C121.185 232.419 122.427 232.766 123.574 233.439C124.708 234.09 125.615 235.038 126.294 236.283C126.743 237.106 127.027 237.918 127.147 238.719C127.254 239.497 127.268 240.211 127.189 240.86C127.098 241.487 126.98 241.984 126.834 242.352C128.763 243.031 130.219 244.271 131.202 246.073L134.966 252.893C135.026 253.004 135.001 253.09 134.89 253.151L131.12 255.207C131.032 255.256 130.969 255.247 130.932 255.18L127.165 248.275C126.729 247.474 126.063 246.943 125.17 246.68C124.286 246.383 123.433 246.458 122.61 246.907L120.408 248.108L125.725 257.934C125.786 258.045 125.772 258.125 125.683 258.174L121.913 260.23ZM118.225 244.105L121.094 242.54C121.783 242.164 122.255 241.575 122.51 240.772C122.764 239.969 122.692 239.201 122.291 238.467C121.903 237.756 121.302 237.29 120.49 237.069C119.699 236.837 118.948 236.915 118.236 237.303L115.368 238.868L118.225 244.105ZM152.219 243.697C152.041 243.795 151.91 243.765 151.825 243.61L139.399 220.91C139.301 220.732 139.342 220.595 139.52 220.498L142.522 218.86L155.33 228.928L148.139 216.142C148.042 215.964 148.093 215.821 148.293 215.712L151.596 213.91C151.729 213.837 151.844 213.89 151.942 214.068L164.386 236.8C164.459 236.934 164.44 237.031 164.328 237.092L161.393 238.693L148.925 229.565L155.71 241.447C155.807 241.625 155.755 241.768 155.555 241.878L152.219 243.697ZM181.572 227.684C181.483 227.733 181.409 227.702 181.348 227.59L168.879 204.655C168.831 204.566 168.851 204.497 168.94 204.448L179.648 198.607C179.737 198.558 179.812 198.59 179.872 198.701L181.911 202.437C181.959 202.526 181.939 202.595 181.85 202.643L175.011 206.374L177.85 211.578L184.689 207.847C184.778 207.799 184.847 207.819 184.895 207.908L186.985 211.659C187.033 211.748 187.013 211.817 186.924 211.865L180.052 215.614L183.237 221.452L190.109 217.703C190.198 217.655 190.273 217.686 190.333 217.797L192.408 221.6C192.457 221.689 192.436 221.758 192.347 221.806L181.572 227.684ZM212.433 210.849C212.366 210.886 212.308 210.86 212.26 210.771L207.125 201.278L195.303 190.24C195.232 190.163 195.241 190.1 195.33 190.052L199.033 188.032C199.144 187.971 199.235 187.979 199.306 188.056L206.67 195.683L204.276 185.345C204.25 185.244 204.281 185.169 204.37 185.12L208.106 183.082C208.195 183.033 208.253 183.06 208.279 183.161L211.055 198.961L216.329 208.55C216.378 208.639 216.358 208.708 216.269 208.757L212.433 210.849ZM236.932 197.484C236.821 197.545 236.735 197.52 236.674 197.408L224.239 174.454C224.19 174.365 224.21 174.297 224.299 174.248L234.974 168.425C235.086 168.364 235.165 168.378 235.214 168.467L237.27 172.237C237.319 172.326 237.299 172.394 237.21 172.443L230.371 176.174L233.192 181.344L240.03 177.614C240.119 177.565 240.194 177.596 240.255 177.708L242.345 181.459C242.393 181.548 242.362 181.623 242.251 181.683L235.412 185.414L240.744 195.188C240.805 195.299 240.779 195.385 240.668 195.446L236.932 197.484ZM265.344 181.984C265.233 182.045 265.147 182.02 265.087 181.909L252.618 158.973C252.569 158.884 252.59 158.815 252.679 158.767L256.415 156.728C256.504 156.68 256.572 156.7 256.621 156.789L269.157 179.688C269.217 179.8 269.203 179.88 269.114 179.928L265.344 181.984ZM286.528 170.428C286.35 170.525 286.219 170.496 286.134 170.34L273.707 147.641C273.61 147.463 273.651 147.326 273.829 147.229L276.831 145.591L289.639 155.659L282.447 142.873C282.35 142.695 282.402 142.552 282.602 142.443L285.905 140.641C286.038 140.568 286.153 140.621 286.25 140.799L298.695 163.531C298.768 163.665 298.748 163.762 298.637 163.822L295.702 165.424L283.234 156.296L290.018 168.178C290.116 168.356 290.064 168.499 289.864 168.609L286.528 170.428ZM315.915 154.397C315.803 154.458 315.717 154.433 315.657 154.321L303.221 131.367C303.173 131.278 303.193 131.21 303.282 131.161L309.502 127.725C310.713 127.035 311.983 126.718 313.311 126.772C314.661 126.815 315.916 127.183 317.075 127.879C318.221 128.552 319.128 129.5 319.795 130.723L325.018 140.297C325.722 141.587 326.053 142.936 326.013 144.343C325.96 145.728 325.581 147.017 324.876 148.21C324.17 149.403 323.168 150.368 321.868 151.106L315.915 154.397ZM317.579 148.165L319.647 147.036C320.47 146.588 321.002 145.922 321.242 145.041C321.505 144.147 321.418 143.3 320.982 142.499L315.74 132.892C315.352 132.18 314.752 131.714 313.939 131.494C313.136 131.239 312.385 131.317 311.686 131.728L309.369 133.035L317.579 148.165ZM345.662 138.169C345.573 138.218 345.498 138.186 345.437 138.075L332.969 115.139C332.92 115.05 332.94 114.982 333.029 114.933L343.737 109.091C343.826 109.043 343.901 109.074 343.962 109.185L346 112.922C346.049 113.011 346.028 113.079 345.939 113.128L339.101 116.859L341.94 122.063L348.778 118.332C348.867 118.283 348.936 118.304 348.985 118.393L351.074 122.144C351.123 122.233 351.103 122.302 351.014 122.35L344.142 126.099L347.326 131.937L354.198 128.188C354.287 128.139 354.362 128.171 354.423 128.282L356.497 132.085C356.546 132.174 356.526 132.243 356.437 132.291L345.662 138.169ZM373.716 122.865C373.627 122.913 373.552 122.882 373.491 122.771L361.056 99.8168C361.007 99.7279 361.028 99.6591 361.117 99.6106L367.855 95.9346C369.056 95.2794 370.321 94.9791 371.649 95.0336C372.987 95.0538 374.23 95.4004 375.376 96.0736C376.511 96.7246 377.417 97.6728 378.097 98.9182C378.546 99.741 378.83 100.553 378.949 101.353C379.056 102.132 379.071 102.846 378.992 103.495C378.901 104.121 378.783 104.619 378.637 104.987C380.566 105.666 382.022 106.906 383.004 108.708L386.768 115.528C386.829 115.639 386.804 115.725 386.693 115.786L382.923 117.842C382.834 117.891 382.771 117.882 382.735 117.815L378.968 110.91C378.531 110.109 377.866 109.577 376.972 109.314C376.089 109.017 375.236 109.093 374.413 109.542L372.211 110.743L377.528 120.569C377.589 120.68 377.574 120.76 377.485 120.808L373.716 122.865ZM370.027 106.74L372.896 105.175C373.585 104.799 374.058 104.21 374.312 103.407C374.567 102.604 374.494 101.836 374.094 101.102C373.706 100.39 373.105 99.9243 372.292 99.704C371.502 99.4715 370.751 99.5494 370.039 99.9376L367.17 101.503L370.027 106.74Z"/>
</mask>
<path d="M40.6644 304.987C39.419 305.666 38.1382 305.99 36.822 305.957C35.5159 305.891 34.2947 305.503 33.1584 304.796C32.0322 304.054 31.1173 303.038 30.4136 301.748L29.5765 300.214C29.5279 300.125 29.5482 300.056 29.6371 300.007L33.4067 297.951C33.4956 297.903 33.5705 297.934 33.6311 298.045L34.45 299.546C34.8989 300.369 35.4964 300.909 36.2425 301.166C36.9885 301.422 37.7285 301.35 38.4624 300.95C39.1296 300.586 39.5562 299.993 39.7421 299.17C39.9281 298.347 39.8209 297.569 39.4205 296.835L30.376 280.255C30.3275 280.166 30.3477 280.098 30.4366 280.049L34.1728 278.011C34.2618 277.962 34.3366 277.994 34.3973 278.105L43.457 294.633C44.1242 295.856 44.4427 297.154 44.4125 298.527C44.3924 299.865 44.0629 301.113 43.424 302.269C42.7852 303.426 41.8653 304.331 40.6644 304.987ZM69.2561 289.389C68.0552 290.044 66.7906 290.344 65.4622 290.29C64.144 290.201 62.9117 289.82 61.7653 289.147C60.6067 288.451 59.6938 287.492 59.0266 286.269L53.2911 275.676C52.6238 274.453 52.3063 273.183 52.3386 271.867C52.3931 270.538 52.7569 269.301 53.4301 268.155C54.1033 267.008 55.0293 266.114 56.208 265.471C57.4089 264.815 58.6624 264.521 59.9685 264.588C61.2746 264.654 62.4897 265.03 63.6139 265.716C64.7603 266.389 65.6672 267.337 66.3344 268.56L72.1366 279.117C72.8039 280.34 73.1164 281.627 73.074 282.978C73.0417 284.294 72.695 285.536 72.034 286.705C71.383 287.839 70.4571 288.734 69.2561 289.389ZM67.0541 285.353C67.7213 284.989 68.154 284.406 68.3521 283.606C68.5602 282.771 68.4763 282.008 68.1002 281.319L62.298 270.762C61.8976 270.028 61.3244 269.533 60.5784 269.276C59.8323 269.02 59.1034 269.085 58.3918 269.474C57.7024 269.85 57.2525 270.427 57.0423 271.205C56.8199 271.962 56.915 272.718 57.3275 273.474L63.0964 284.049C63.4967 284.783 64.0871 285.283 64.8676 285.55C65.6359 285.794 66.3647 285.729 67.0541 285.353ZM98.7102 273.321C97.5315 273.964 96.278 274.258 94.9497 274.204C93.6092 274.127 92.3597 273.741 91.2012 273.045C90.0649 272.338 89.1631 271.372 88.4958 270.149L79.4634 253.433C79.4149 253.344 79.4351 253.276 79.5241 253.227L83.2603 251.189C83.3492 251.14 83.418 251.161 83.4665 251.25L92.5656 267.929C92.9781 268.685 93.5635 269.203 94.3217 269.482C95.09 269.726 95.8188 269.661 96.5082 269.285C97.2199 268.896 97.6697 268.319 97.8577 267.553C98.0558 266.752 97.9486 265.974 97.5361 265.218L88.437 248.538C88.3885 248.449 88.4087 248.38 88.4976 248.332L92.2338 246.294C92.3228 246.245 92.3915 246.265 92.4401 246.354L101.606 262.997C102.285 264.243 102.604 265.541 102.561 266.891C102.541 268.23 102.195 269.472 101.521 270.619C100.87 271.753 99.9334 272.654 98.7102 273.321ZM121.913 260.23C121.824 260.279 121.75 260.247 121.689 260.136L109.253 237.182C109.205 237.093 109.225 237.024 109.314 236.976L116.053 233.3C117.254 232.645 118.518 232.344 119.847 232.399C121.185 232.419 122.427 232.766 123.574 233.439C124.708 234.09 125.615 235.038 126.294 236.283C126.743 237.106 127.027 237.918 127.147 238.719C127.254 239.497 127.268 240.211 127.189 240.86C127.098 241.487 126.98 241.984 126.834 242.352C128.763 243.031 130.219 244.271 131.202 246.073L134.966 252.893C135.026 253.004 135.001 253.09 134.89 253.151L131.12 255.207C131.032 255.256 130.969 255.247 130.932 255.18L127.165 248.275C126.729 247.474 126.063 246.943 125.17 246.68C124.286 246.383 123.433 246.458 122.61 246.907L120.408 248.108L125.725 257.934C125.786 258.045 125.772 258.125 125.683 258.174L121.913 260.23ZM118.225 244.105L121.094 242.54C121.783 242.164 122.255 241.575 122.51 240.772C122.764 239.969 122.692 239.201 122.291 238.467C121.903 237.756 121.302 237.29 120.49 237.069C119.699 236.837 118.948 236.915 118.236 237.303L115.368 238.868L118.225 244.105ZM152.219 243.697C152.041 243.795 151.91 243.765 151.825 243.61L139.399 220.91C139.301 220.732 139.342 220.595 139.52 220.498L142.522 218.86L155.33 228.928L148.139 216.142C148.042 215.964 148.093 215.821 148.293 215.712L151.596 213.91C151.729 213.837 151.844 213.89 151.942 214.068L164.386 236.8C164.459 236.934 164.44 237.031 164.328 237.092L161.393 238.693L148.925 229.565L155.71 241.447C155.807 241.625 155.755 241.768 155.555 241.878L152.219 243.697ZM181.572 227.684C181.483 227.733 181.409 227.702 181.348 227.59L168.879 204.655C168.831 204.566 168.851 204.497 168.94 204.448L179.648 198.607C179.737 198.558 179.812 198.59 179.872 198.701L181.911 202.437C181.959 202.526 181.939 202.595 181.85 202.643L175.011 206.374L177.85 211.578L184.689 207.847C184.778 207.799 184.847 207.819 184.895 207.908L186.985 211.659C187.033 211.748 187.013 211.817 186.924 211.865L180.052 215.614L183.237 221.452L190.109 217.703C190.198 217.655 190.273 217.686 190.333 217.797L192.408 221.6C192.457 221.689 192.436 221.758 192.347 221.806L181.572 227.684ZM212.433 210.849C212.366 210.886 212.308 210.86 212.26 210.771L207.125 201.278L195.303 190.24C195.232 190.163 195.241 190.1 195.33 190.052L199.033 188.032C199.144 187.971 199.235 187.979 199.306 188.056L206.67 195.683L204.276 185.345C204.25 185.244 204.281 185.169 204.37 185.12L208.106 183.082C208.195 183.033 208.253 183.06 208.279 183.161L211.055 198.961L216.329 208.55C216.378 208.639 216.358 208.708 216.269 208.757L212.433 210.849ZM236.932 197.484C236.821 197.545 236.735 197.52 236.674 197.408L224.239 174.454C224.19 174.365 224.21 174.297 224.299 174.248L234.974 168.425C235.086 168.364 235.165 168.378 235.214 168.467L237.27 172.237C237.319 172.326 237.299 172.394 237.21 172.443L230.371 176.174L233.192 181.344L240.03 177.614C240.119 177.565 240.194 177.596 240.255 177.708L242.345 181.459C242.393 181.548 242.362 181.623 242.251 181.683L235.412 185.414L240.744 195.188C240.805 195.299 240.779 195.385 240.668 195.446L236.932 197.484ZM265.344 181.984C265.233 182.045 265.147 182.02 265.087 181.909L252.618 158.973C252.569 158.884 252.59 158.815 252.679 158.767L256.415 156.728C256.504 156.68 256.572 156.7 256.621 156.789L269.157 179.688C269.217 179.8 269.203 179.88 269.114 179.928L265.344 181.984ZM286.528 170.428C286.35 170.525 286.219 170.496 286.134 170.34L273.707 147.641C273.61 147.463 273.651 147.326 273.829 147.229L276.831 145.591L289.639 155.659L282.447 142.873C282.35 142.695 282.402 142.552 282.602 142.443L285.905 140.641C286.038 140.568 286.153 140.621 286.25 140.799L298.695 163.531C298.768 163.665 298.748 163.762 298.637 163.822L295.702 165.424L283.234 156.296L290.018 168.178C290.116 168.356 290.064 168.499 289.864 168.609L286.528 170.428ZM315.915 154.397C315.803 154.458 315.717 154.433 315.657 154.321L303.221 131.367C303.173 131.278 303.193 131.21 303.282 131.161L309.502 127.725C310.713 127.035 311.983 126.718 313.311 126.772C314.661 126.815 315.916 127.183 317.075 127.879C318.221 128.552 319.128 129.5 319.795 130.723L325.018 140.297C325.722 141.587 326.053 142.936 326.013 144.343C325.96 145.728 325.581 147.017 324.876 148.21C324.17 149.403 323.168 150.368 321.868 151.106L315.915 154.397ZM317.579 148.165L319.647 147.036C320.47 146.588 321.002 145.922 321.242 145.041C321.505 144.147 321.418 143.3 320.982 142.499L315.74 132.892C315.352 132.18 314.752 131.714 313.939 131.494C313.136 131.239 312.385 131.317 311.686 131.728L309.369 133.035L317.579 148.165ZM345.662 138.169C345.573 138.218 345.498 138.186 345.437 138.075L332.969 115.139C332.92 115.05 332.94 114.982 333.029 114.933L343.737 109.091C343.826 109.043 343.901 109.074 343.962 109.185L346 112.922C346.049 113.011 346.028 113.079 345.939 113.128L339.101 116.859L341.94 122.063L348.778 118.332C348.867 118.283 348.936 118.304 348.985 118.393L351.074 122.144C351.123 122.233 351.103 122.302 351.014 122.35L344.142 126.099L347.326 131.937L354.198 128.188C354.287 128.139 354.362 128.171 354.423 128.282L356.497 132.085C356.546 132.174 356.526 132.243 356.437 132.291L345.662 138.169ZM373.716 122.865C373.627 122.913 373.552 122.882 373.491 122.771L361.056 99.8168C361.007 99.7279 361.028 99.6591 361.117 99.6106L367.855 95.9346C369.056 95.2794 370.321 94.9791 371.649 95.0336C372.987 95.0538 374.23 95.4004 375.376 96.0736C376.511 96.7246 377.417 97.6728 378.097 98.9182C378.546 99.741 378.83 100.553 378.949 101.353C379.056 102.132 379.071 102.846 378.992 103.495C378.901 104.121 378.783 104.619 378.637 104.987C380.566 105.666 382.022 106.906 383.004 108.708L386.768 115.528C386.829 115.639 386.804 115.725 386.693 115.786L382.923 117.842C382.834 117.891 382.771 117.882 382.735 117.815L378.968 110.91C378.531 110.109 377.866 109.577 376.972 109.314C376.089 109.017 375.236 109.093 374.413 109.542L372.211 110.743L377.528 120.569C377.589 120.68 377.574 120.76 377.485 120.808L373.716 122.865ZM370.027 106.74L372.896 105.175C373.585 104.799 374.058 104.21 374.312 103.407C374.567 102.604 374.494 101.836 374.094 101.102C373.706 100.39 373.105 99.9243 372.292 99.704C371.502 99.4715 370.751 99.5494 370.039 99.9376L367.17 101.503L370.027 106.74Z" stroke="black" stroke-width="2" mask="url(#path-2-outside-1_1404_7194)"/>
</svg>
