<svg width="299" height="310" viewBox="0 0 299 310" fill="none" xmlns="http://www.w3.org/2000/svg">
<g clip-path="url(#clip0_1404_7272)">
<path d="M64.5858 5.52963L52.8019 36.1782L80.1965 18.0748L56.2817 40.5754L88.818 36.1509L57.5089 46.047L88.7429 56.1777L56.2406 51.5092L79.9859 74.1885L52.728 55.8802L64.2815 86.6163L47.6667 58.2942L44.7402 90.9994L42.0592 58.2732L25.2323 86.4697L37.0161 55.8212L9.62157 73.9245L33.5364 51.424L1 55.8484L32.3091 45.9524L1.07514 35.8217L33.5774 40.4902L9.83212 17.8108L37.0901 36.1192L25.5365 5.38311L42.1514 33.7052L45.0779 1L47.7589 33.7262L64.5858 5.52963Z" stroke="black"/>
<path d="M162.115 37.8525L167.647 138.928L204.142 44.5089L178.168 142.347L242.054 63.8262L187.119 148.849L272.142 93.9137L193.621 157.799L291.459 131.826L197.04 168.321L298.115 173.853L197.04 179.384L291.459 215.879L193.621 189.906L272.142 253.791L187.119 198.856L242.054 283.879L178.168 205.359L204.142 303.196L167.647 208.777L162.115 309.853L156.584 208.777L120.089 303.196L146.062 205.359L82.1764 283.879L137.112 198.856L52.0889 253.791L130.609 189.906L32.7715 215.879L127.191 179.384L26.1152 173.853L127.191 168.321L32.7715 131.826L130.609 157.799L52.0889 93.9137L137.112 148.849L82.1764 63.8262L146.062 142.347L120.089 44.5089L156.584 138.928L162.115 37.8525Z" stroke="black"/>
</g>
<defs>
<clipPath id="clip0_1404_7272">
<rect width="299" height="310" fill="white"/>
</clipPath>
</defs>
</svg>
