<svg width="365" height="428" viewBox="0 0 365 428" fill="none" xmlns="http://www.w3.org/2000/svg">
<path d="M40.4601 397.776L181.125 68.1285L321.789 397.776L40.4601 397.776Z" stroke="black"/>
<path d="M283.463 384.976C283.108 385.312 282.754 385.634 282.399 385.942C281.484 386.726 280.901 387.431 280.649 388.056H284.975V388.854H279.725V388.168C279.893 387.692 280.15 387.235 280.495 386.796C280.85 386.358 281.209 385.98 281.573 385.662L282.637 384.71C283.421 383.982 283.813 383.222 283.813 382.428C283.813 381.878 283.65 381.434 283.323 381.098C282.996 380.753 282.586 380.58 282.091 380.58C281.606 380.58 280.91 380.893 280.005 381.518L279.613 380.93C280.593 380.212 281.438 379.852 282.147 379.852C282.866 379.852 283.458 380.081 283.925 380.538C284.401 380.986 284.639 381.649 284.639 382.526C284.639 383.394 284.247 384.211 283.463 384.976ZM286.615 384.402C286.615 382.76 286.825 381.588 287.245 380.888C287.665 380.188 288.346 379.838 289.289 379.838C290.241 379.838 290.927 380.188 291.347 380.888C291.767 381.588 291.977 382.76 291.977 384.402C291.977 386.036 291.767 387.207 291.347 387.916C290.927 388.626 290.241 388.98 289.289 388.98C288.346 388.98 287.665 388.626 287.245 387.916C286.825 387.207 286.615 386.036 286.615 384.402ZM287.889 387.356C288.15 387.954 288.617 388.252 289.289 388.252C289.961 388.252 290.428 387.954 290.689 387.356C290.95 386.759 291.081 385.77 291.081 384.388C291.081 382.998 290.955 382.013 290.703 381.434C290.451 380.856 289.984 380.566 289.303 380.566C288.622 380.566 288.15 380.86 287.889 381.448C287.637 382.027 287.511 383.007 287.511 384.388C287.511 385.77 287.637 386.759 287.889 387.356ZM299.259 388.854H294.009V388.14H296.403V380.86L294.093 381.924L293.771 381.182L296.487 379.964H297.229V388.14H299.259V388.854ZM300.787 381.448L301.053 379.978H306.023V380.762C305.967 381.322 305.44 382.494 304.441 384.276C304.077 384.93 303.741 385.686 303.433 386.544C303.134 387.394 302.985 388.164 302.985 388.854H302.159C302.159 388.136 302.308 387.333 302.607 386.446C302.906 385.569 303.242 384.794 303.615 384.122L304.679 382.134C305.015 381.481 305.197 381.005 305.225 380.706H301.669L301.473 381.504L300.787 381.448Z" fill="black"/>
<path d="M65.0491 374.854C64.2091 374.854 63.5651 374.565 63.1171 373.986C62.6691 373.408 62.4451 372.591 62.4451 371.536C62.4451 370.472 62.6925 369.637 63.1871 369.03C63.6911 368.424 64.3911 368.12 65.2871 368.12C65.7818 368.12 66.3371 368.284 66.9531 368.61L66.9811 368.204H67.6951V373.244C67.8351 374.355 67.9051 374.999 67.9051 375.176C67.9051 375.998 67.6298 376.614 67.0791 377.024C66.5285 377.444 65.8798 377.654 65.1331 377.654C64.3958 377.654 63.5558 377.468 62.6131 377.094L62.8651 376.394C63.7891 376.749 64.5265 376.926 65.0771 376.926C65.6371 376.926 66.1225 376.782 66.5331 376.492C66.9531 376.203 67.1631 375.769 67.1631 375.19L67.0371 374.084C66.2998 374.598 65.6371 374.854 65.0491 374.854ZM65.3151 368.82C64.6525 368.82 64.1345 369.068 63.7611 369.562C63.3878 370.048 63.2011 370.701 63.2011 371.522C63.2011 372.334 63.3645 372.978 63.6911 373.454C64.0178 373.921 64.4751 374.154 65.0631 374.154C65.6511 374.154 66.2811 373.874 66.9531 373.314V369.394C66.3465 369.012 65.8005 368.82 65.3151 368.82ZM69.8371 374.854V374.154H71.4331V368.904H69.8371V368.204H72.1751L72.2031 369.016C72.5018 368.83 72.9218 368.643 73.4631 368.456C74.0045 368.27 74.4805 368.158 74.8911 368.12H75.0451V368.946H74.8911C74.5085 368.974 74.0325 369.068 73.4631 369.226C72.9031 369.385 72.4831 369.548 72.2031 369.716V374.154H74.4431V374.854H69.8371ZM78.7551 374.252C79.1005 374.252 79.4738 374.145 79.8751 373.93C80.2858 373.706 80.5845 373.501 80.7711 373.314V371.648C80.1551 371.602 79.5671 371.578 79.0071 371.578C78.4471 371.578 78.0271 371.7 77.7471 371.942C77.4671 372.176 77.3271 372.493 77.3271 372.894C77.3271 373.8 77.8031 374.252 78.7551 374.252ZM78.7411 374.98C78.0598 374.98 77.5231 374.808 77.1311 374.462C76.7391 374.108 76.5431 373.608 76.5431 372.964C76.5431 372.32 76.7578 371.821 77.1871 371.466C77.6165 371.102 78.1858 370.92 78.8951 370.92C79.6045 370.92 80.2298 370.948 80.7711 371.004C80.7711 370.174 80.6685 369.609 80.4631 369.31C80.2578 369.002 79.8425 368.848 79.2171 368.848C78.5918 368.848 77.8545 368.998 77.0051 369.296L76.7951 368.596C77.6631 368.279 78.4471 368.12 79.1471 368.12C80.0711 368.12 80.6965 368.326 81.0231 368.736C81.3498 369.147 81.5131 369.866 81.5131 370.892V373.832L81.6251 374.896L80.9111 374.966L80.7711 374.126C80.5565 374.313 80.2531 374.504 79.8611 374.7C79.4691 374.887 79.0958 374.98 78.7411 374.98ZM88.6951 365.558V373.692L88.8351 374.91L88.1211 374.994L87.9811 374.252C87.2811 374.738 86.6371 374.98 86.0491 374.98C85.2185 374.98 84.5698 374.672 84.1031 374.056C83.6458 373.44 83.4171 372.605 83.4171 371.55C83.4171 370.486 83.6738 369.651 84.1871 369.044C84.7005 368.428 85.4005 368.12 86.2871 368.12C86.8098 368.12 87.3651 368.246 87.9531 368.498V365.558H88.6951ZM84.2151 371.522C84.2151 372.344 84.3738 373.006 84.6911 373.51C85.0178 374.005 85.4845 374.252 86.0911 374.252C86.6978 374.252 87.3185 373.986 87.9531 373.454V369.254C87.7571 369.161 87.4865 369.072 87.1411 368.988C86.8051 368.895 86.5298 368.848 86.3151 368.848C85.6525 368.848 85.1345 369.091 84.7611 369.576C84.3971 370.052 84.2151 370.701 84.2151 371.522ZM97.7951 374.532L97.9771 373.804C98.9011 374.112 99.6151 374.266 100.119 374.266C100.623 374.266 101.01 374.159 101.281 373.944C101.561 373.72 101.701 373.426 101.701 373.062C101.701 372.698 101.589 372.432 101.365 372.264C101.15 372.087 100.698 371.919 100.007 371.76C99.3165 371.602 98.7985 371.373 98.4531 371.074C98.1078 370.794 97.9351 370.374 97.9351 369.814C97.9351 369.254 98.1451 368.83 98.5651 368.54C98.9945 368.242 99.5451 368.092 100.217 368.092C100.889 368.092 101.617 368.242 102.401 368.54L102.205 369.198C101.412 368.937 100.772 368.806 100.287 368.806C99.8018 368.806 99.4191 368.89 99.1391 369.058C98.8591 369.245 98.7191 369.497 98.7191 369.814C98.7191 370.132 98.8405 370.379 99.0831 370.556C99.3351 370.734 99.8158 370.911 100.525 371.088C101.234 371.266 101.738 371.494 102.037 371.774C102.336 372.045 102.485 372.474 102.485 373.062C102.485 373.65 102.284 374.117 101.883 374.462C101.491 374.808 100.931 374.98 100.203 374.98C99.4751 374.98 98.6725 374.831 97.7951 374.532ZM109.415 368.428L109.247 369.156C108.668 368.951 108.132 368.848 107.637 368.848C106.965 368.848 106.461 369.086 106.125 369.562C105.798 370.029 105.635 370.682 105.635 371.522C105.635 372.362 105.803 373.03 106.139 373.524C106.475 374.01 106.974 374.252 107.637 374.252C108.085 374.252 108.645 374.131 109.317 373.888L109.541 374.588C108.86 374.85 108.23 374.98 107.651 374.98C106.736 374.98 106.036 374.677 105.551 374.07C105.066 373.454 104.823 372.6 104.823 371.508C104.823 370.416 105.061 369.581 105.537 369.002C106.013 368.414 106.713 368.12 107.637 368.12C108.225 368.12 108.818 368.223 109.415 368.428ZM112.537 369.422V374.854H111.795V365.558H112.537V368.708C113.414 368.316 114.138 368.12 114.707 368.12C116.042 368.12 116.709 368.886 116.709 370.416V374.854H115.967V370.416C115.967 369.94 115.864 369.562 115.659 369.282C115.454 368.993 115.099 368.848 114.595 368.848C114.091 368.848 113.405 369.04 112.537 369.422ZM118.529 371.55C118.529 369.264 119.42 368.12 121.203 368.12C122.986 368.12 123.877 369.264 123.877 371.55C123.877 373.837 122.986 374.98 121.203 374.98C119.42 374.98 118.529 373.837 118.529 371.55ZM121.203 368.848C119.952 368.848 119.327 369.749 119.327 371.55C119.327 373.352 119.952 374.252 121.203 374.252C122.454 374.252 123.079 373.352 123.079 371.55C123.079 369.749 122.454 368.848 121.203 368.848ZM125.529 371.55C125.529 369.264 126.42 368.12 128.203 368.12C129.986 368.12 130.877 369.264 130.877 371.55C130.877 373.837 129.986 374.98 128.203 374.98C126.42 374.98 125.529 373.837 125.529 371.55ZM128.203 368.848C126.952 368.848 126.327 369.749 126.327 371.55C126.327 373.352 126.952 374.252 128.203 374.252C129.454 374.252 130.079 373.352 130.079 371.55C130.079 369.749 129.454 368.848 128.203 368.848ZM133.033 374.854V374.154H135.175V366.23L133.089 366.244L133.075 365.558L135.917 365.544V374.154H138.129V374.854H133.033ZM151.415 368.428L151.247 369.156C150.668 368.951 150.132 368.848 149.637 368.848C148.965 368.848 148.461 369.086 148.125 369.562C147.798 370.029 147.635 370.682 147.635 371.522C147.635 372.362 147.803 373.03 148.139 373.524C148.475 374.01 148.974 374.252 149.637 374.252C150.085 374.252 150.645 374.131 151.317 373.888L151.541 374.588C150.86 374.85 150.23 374.98 149.651 374.98C148.736 374.98 148.036 374.677 147.551 374.07C147.066 373.454 146.823 372.6 146.823 371.508C146.823 370.416 147.061 369.581 147.537 369.002C148.013 368.414 148.713 368.12 149.637 368.12C150.225 368.12 150.818 368.223 151.415 368.428ZM154.033 374.854V374.154H156.175V366.23L154.089 366.244L154.075 365.558L156.917 365.544V374.154H159.129V374.854H154.033ZM162.755 374.252C163.1 374.252 163.474 374.145 163.875 373.93C164.286 373.706 164.584 373.501 164.771 373.314V371.648C164.155 371.602 163.567 371.578 163.007 371.578C162.447 371.578 162.027 371.7 161.747 371.942C161.467 372.176 161.327 372.493 161.327 372.894C161.327 373.8 161.803 374.252 162.755 374.252ZM162.741 374.98C162.06 374.98 161.523 374.808 161.131 374.462C160.739 374.108 160.543 373.608 160.543 372.964C160.543 372.32 160.758 371.821 161.187 371.466C161.616 371.102 162.186 370.92 162.895 370.92C163.604 370.92 164.23 370.948 164.771 371.004C164.771 370.174 164.668 369.609 164.463 369.31C164.258 369.002 163.842 368.848 163.217 368.848C162.592 368.848 161.854 368.998 161.005 369.296L160.795 368.596C161.663 368.279 162.447 368.12 163.147 368.12C164.071 368.12 164.696 368.326 165.023 368.736C165.35 369.147 165.513 369.866 165.513 370.892V373.832L165.625 374.896L164.911 374.966L164.771 374.126C164.556 374.313 164.253 374.504 163.861 374.7C163.469 374.887 163.096 374.98 162.741 374.98ZM167.795 374.532L167.977 373.804C168.901 374.112 169.615 374.266 170.119 374.266C170.623 374.266 171.01 374.159 171.281 373.944C171.561 373.72 171.701 373.426 171.701 373.062C171.701 372.698 171.589 372.432 171.365 372.264C171.15 372.087 170.698 371.919 170.007 371.76C169.316 371.602 168.798 371.373 168.453 371.074C168.108 370.794 167.935 370.374 167.935 369.814C167.935 369.254 168.145 368.83 168.565 368.54C168.994 368.242 169.545 368.092 170.217 368.092C170.889 368.092 171.617 368.242 172.401 368.54L172.205 369.198C171.412 368.937 170.772 368.806 170.287 368.806C169.802 368.806 169.419 368.89 169.139 369.058C168.859 369.245 168.719 369.497 168.719 369.814C168.719 370.132 168.84 370.379 169.083 370.556C169.335 370.734 169.816 370.911 170.525 371.088C171.234 371.266 171.738 371.494 172.037 371.774C172.336 372.045 172.485 372.474 172.485 373.062C172.485 373.65 172.284 374.117 171.883 374.462C171.491 374.808 170.931 374.98 170.203 374.98C169.475 374.98 168.672 374.831 167.795 374.532ZM174.795 374.532L174.977 373.804C175.901 374.112 176.615 374.266 177.119 374.266C177.623 374.266 178.01 374.159 178.281 373.944C178.561 373.72 178.701 373.426 178.701 373.062C178.701 372.698 178.589 372.432 178.365 372.264C178.15 372.087 177.698 371.919 177.007 371.76C176.316 371.602 175.798 371.373 175.453 371.074C175.108 370.794 174.935 370.374 174.935 369.814C174.935 369.254 175.145 368.83 175.565 368.54C175.994 368.242 176.545 368.092 177.217 368.092C177.889 368.092 178.617 368.242 179.401 368.54L179.205 369.198C178.412 368.937 177.772 368.806 177.287 368.806C176.802 368.806 176.419 368.89 176.139 369.058C175.859 369.245 175.719 369.497 175.719 369.814C175.719 370.132 175.84 370.379 176.083 370.556C176.335 370.734 176.816 370.911 177.525 371.088C178.234 371.266 178.738 371.494 179.037 371.774C179.336 372.045 179.485 372.474 179.485 373.062C179.485 373.65 179.284 374.117 178.883 374.462C178.491 374.808 177.931 374.98 177.203 374.98C176.475 374.98 175.672 374.831 174.795 374.532ZM188.781 377.542V369.408L188.655 368.19L189.355 368.106L189.481 368.862C190.162 368.368 190.811 368.12 191.427 368.12C192.258 368.12 192.902 368.424 193.359 369.03C193.816 369.637 194.045 370.472 194.045 371.536C194.045 372.6 193.793 373.44 193.289 374.056C192.785 374.672 192.085 374.98 191.189 374.98C190.666 374.98 190.111 374.854 189.523 374.602V377.542H188.781ZM193.247 371.564C193.247 370.734 193.088 370.076 192.771 369.59C192.454 369.096 191.996 368.848 191.399 368.848C190.811 368.848 190.186 369.114 189.523 369.646V373.846C189.719 373.94 189.985 374.033 190.321 374.126C190.666 374.21 190.946 374.252 191.161 374.252C191.824 374.252 192.337 374.01 192.701 373.524C193.065 373.039 193.247 372.386 193.247 371.564ZM195.837 374.854V374.154H197.433V368.904H195.837V368.204H198.175L198.203 369.016C198.502 368.83 198.922 368.643 199.463 368.456C200.004 368.27 200.48 368.158 200.891 368.12H201.045V368.946H200.891C200.508 368.974 200.032 369.068 199.463 369.226C198.903 369.385 198.483 369.548 198.203 369.716V374.154H200.443V374.854H195.837ZM202.529 371.55C202.529 369.264 203.42 368.12 205.203 368.12C206.986 368.12 207.877 369.264 207.877 371.55C207.877 373.837 206.986 374.98 205.203 374.98C203.42 374.98 202.529 373.837 202.529 371.55ZM205.203 368.848C203.952 368.848 203.327 369.749 203.327 371.55C203.327 373.352 203.952 374.252 205.203 374.252C206.454 374.252 207.079 373.352 207.079 371.55C207.079 369.749 206.454 368.848 205.203 368.848ZM209.991 368.89V368.204H213.631V374.994C213.631 375.666 213.444 376.198 213.071 376.59C212.791 376.889 212.24 377.122 211.419 377.29C211.12 377.346 210.714 377.412 210.201 377.486L210.117 376.758C210.948 376.637 211.517 376.52 211.825 376.408C212.133 376.306 212.348 376.198 212.469 376.086C212.749 375.816 212.889 375.452 212.889 374.994V368.89H209.991ZM212.511 366.23C212.511 365.829 212.716 365.628 213.127 365.628C213.519 365.628 213.715 365.838 213.715 366.258C213.715 366.669 213.519 366.874 213.127 366.874C212.931 366.874 212.777 366.818 212.665 366.706C212.562 366.585 212.511 366.426 212.511 366.23ZM216.641 371.536C216.641 370.463 216.86 369.628 217.299 369.03C217.747 368.424 218.396 368.12 219.245 368.12C220.094 368.12 220.724 368.4 221.135 368.96C221.555 369.52 221.765 370.267 221.765 371.2L221.723 371.9H217.439C217.486 372.6 217.672 373.17 217.999 373.608C218.326 374.038 218.774 374.252 219.343 374.252C219.922 374.252 220.598 374.117 221.373 373.846L221.583 374.546C220.827 374.836 220.118 374.98 219.455 374.98C218.54 374.98 217.84 374.677 217.355 374.07C216.879 373.454 216.641 372.61 216.641 371.536ZM219.301 368.834C218.125 368.834 217.504 369.623 217.439 371.2H220.967C220.967 369.623 220.412 368.834 219.301 368.834ZM228.415 368.428L228.247 369.156C227.668 368.951 227.132 368.848 226.637 368.848C225.965 368.848 225.461 369.086 225.125 369.562C224.798 370.029 224.635 370.682 224.635 371.522C224.635 372.362 224.803 373.03 225.139 373.524C225.475 374.01 225.974 374.252 226.637 374.252C227.085 374.252 227.645 374.131 228.317 373.888L228.541 374.588C227.86 374.85 227.23 374.98 226.651 374.98C225.736 374.98 225.036 374.677 224.551 374.07C224.066 373.454 223.823 372.6 223.823 371.508C223.823 370.416 224.061 369.581 224.537 369.002C225.013 368.414 225.713 368.12 226.637 368.12C227.225 368.12 227.818 368.223 228.415 368.428ZM230.487 369.086V368.386H231.845V366.692L232.587 366.552V368.386H235.793V369.086H232.587V372.278C232.587 372.988 232.69 373.501 232.895 373.818C233.11 374.126 233.488 374.28 234.029 374.28C234.234 374.28 234.552 374.248 234.981 374.182C235.41 374.108 235.704 374.042 235.863 373.986L236.031 374.672C235.854 374.738 235.527 374.808 235.051 374.882C234.584 374.957 234.244 374.994 234.029 374.994C233.189 374.994 232.615 374.775 232.307 374.336C231.999 373.888 231.845 373.212 231.845 372.306V369.086H230.487ZM55.4871 383.086V382.386H56.8451V380.692L57.5871 380.552V382.386H60.7931V383.086H57.5871V386.278C57.5871 386.988 57.6898 387.501 57.8951 387.818C58.1098 388.126 58.4878 388.28 59.0291 388.28C59.2345 388.28 59.5518 388.248 59.9811 388.182C60.4105 388.108 60.7045 388.042 60.8631 387.986L61.0311 388.672C60.8538 388.738 60.5271 388.808 60.0511 388.882C59.5845 388.957 59.2438 388.994 59.0291 388.994C58.1891 388.994 57.6151 388.775 57.3071 388.336C56.9991 387.888 56.8451 387.212 56.8451 386.306V383.086H55.4871ZM66.9391 388.854L66.9111 388.28C66.0151 388.747 65.2685 388.98 64.6711 388.98C64.0738 388.98 63.6025 388.775 63.2571 388.364C62.9118 387.954 62.7391 387.394 62.7391 386.684V382.204H63.4811V386.684C63.4811 387.142 63.5885 387.52 63.8031 387.818C64.0271 388.108 64.3631 388.252 64.8111 388.252C65.2591 388.252 65.9591 388.019 66.9111 387.552V382.204H67.6531V388.854H66.9391ZM69.8371 388.854V388.154H71.4331V382.904H69.8371V382.204H72.1751L72.2031 383.016C72.5018 382.83 72.9218 382.643 73.4631 382.456C74.0045 382.27 74.4805 382.158 74.8911 382.12H75.0451V382.946H74.8911C74.5085 382.974 74.0325 383.068 73.4631 383.226C72.9031 383.385 72.4831 383.548 72.2031 383.716V388.154H74.4431V388.854H69.8371ZM77.4811 382.204L77.5091 382.764C78.4145 382.335 79.1658 382.12 79.7631 382.12C80.3605 382.12 80.8271 382.326 81.1631 382.736C81.5085 383.147 81.6811 383.707 81.6811 384.416V388.854H80.9391V384.416C80.9391 383.959 80.8271 383.581 80.6031 383.282C80.3791 382.993 80.0431 382.848 79.5951 382.848C79.1471 382.848 78.4518 383.054 77.5091 383.464V388.854H76.7671V382.204H77.4811ZM83.6411 385.536C83.6411 384.463 83.8605 383.628 84.2991 383.03C84.7471 382.424 85.3958 382.12 86.2451 382.12C87.0945 382.12 87.7245 382.4 88.1351 382.96C88.5551 383.52 88.7651 384.267 88.7651 385.2L88.7231 385.9H84.4391C84.4858 386.6 84.6725 387.17 84.9991 387.608C85.3258 388.038 85.7738 388.252 86.3431 388.252C86.9218 388.252 87.5985 388.117 88.3731 387.846L88.5831 388.546C87.8271 388.836 87.1178 388.98 86.4551 388.98C85.5405 388.98 84.8405 388.677 84.3551 388.07C83.8791 387.454 83.6411 386.61 83.6411 385.536ZM86.3011 382.834C85.1251 382.834 84.5045 383.623 84.4391 385.2H87.9671C87.9671 383.623 87.4118 382.834 86.3011 382.834ZM95.6951 379.558V387.692L95.8351 388.91L95.1211 388.994L94.9811 388.252C94.2811 388.738 93.6371 388.98 93.0491 388.98C92.2185 388.98 91.5698 388.672 91.1031 388.056C90.6458 387.44 90.4171 386.605 90.4171 385.55C90.4171 384.486 90.6738 383.651 91.1871 383.044C91.7005 382.428 92.4005 382.12 93.2871 382.12C93.8098 382.12 94.3651 382.246 94.9531 382.498V379.558H95.6951ZM91.2151 385.522C91.2151 386.344 91.3738 387.006 91.6911 387.51C92.0178 388.005 92.4845 388.252 93.0911 388.252C93.6978 388.252 94.3185 387.986 94.9531 387.454V383.254C94.7571 383.161 94.4865 383.072 94.1411 382.988C93.8051 382.895 93.5298 382.848 93.3151 382.848C92.6525 382.848 92.1345 383.091 91.7611 383.576C91.3971 384.052 91.2151 384.701 91.2151 385.522ZM104.781 391.542V383.408L104.655 382.19L105.355 382.106L105.481 382.862C106.162 382.368 106.811 382.12 107.427 382.12C108.258 382.12 108.902 382.424 109.359 383.03C109.816 383.637 110.045 384.472 110.045 385.536C110.045 386.6 109.793 387.44 109.289 388.056C108.785 388.672 108.085 388.98 107.189 388.98C106.666 388.98 106.111 388.854 105.523 388.602V391.542H104.781ZM109.247 385.564C109.247 384.734 109.088 384.076 108.771 383.59C108.454 383.096 107.996 382.848 107.399 382.848C106.811 382.848 106.186 383.114 105.523 383.646V387.846C105.719 387.94 105.985 388.033 106.321 388.126C106.666 388.21 106.946 388.252 107.161 388.252C107.824 388.252 108.337 388.01 108.701 387.524C109.065 387.039 109.247 386.386 109.247 385.564ZM115.939 388.854L115.911 388.28C115.015 388.747 114.268 388.98 113.671 388.98C113.074 388.98 112.602 388.775 112.257 388.364C111.912 387.954 111.739 387.394 111.739 386.684V382.204H112.481V386.684C112.481 387.142 112.588 387.52 112.803 387.818C113.027 388.108 113.363 388.252 113.811 388.252C114.259 388.252 114.959 388.019 115.911 387.552V382.204H116.653V388.854H115.939ZM118.781 388.854V379.558H119.523V382.848C120.223 382.363 120.858 382.12 121.427 382.12C122.267 382.12 122.916 382.41 123.373 382.988C123.83 383.558 124.059 384.374 124.059 385.438C124.059 386.502 123.802 387.361 123.289 388.014C122.776 388.658 122.076 388.98 121.189 388.98C120.648 388.98 120.088 388.845 119.509 388.574L119.481 388.854H118.781ZM123.261 385.452C123.261 384.631 123.098 383.992 122.771 383.534C122.454 383.077 121.992 382.848 121.385 382.848C120.778 382.848 120.158 383.114 119.523 383.646V387.846C119.719 387.94 119.985 388.033 120.321 388.126C120.666 388.21 120.946 388.252 121.161 388.252C121.814 388.252 122.328 387.991 122.701 387.468C123.074 386.946 123.261 386.274 123.261 385.452ZM126.033 388.854V388.154H128.175V380.23L126.089 380.244L126.075 379.558L128.917 379.544V388.154H131.129V388.854H126.033ZM132.865 388.854V388.154H134.909V382.904H132.865V382.204H135.651V388.154H137.695V388.854H132.865ZM134.615 380.23C134.615 380.044 134.666 379.899 134.769 379.796C134.881 379.694 135.03 379.642 135.217 379.642C135.6 379.642 135.791 379.848 135.791 380.258C135.791 380.669 135.6 380.87 135.217 380.86C134.816 380.86 134.615 380.65 134.615 380.23ZM144.415 382.428L144.247 383.156C143.668 382.951 143.132 382.848 142.637 382.848C141.965 382.848 141.461 383.086 141.125 383.562C140.798 384.029 140.635 384.682 140.635 385.522C140.635 386.362 140.803 387.03 141.139 387.524C141.475 388.01 141.974 388.252 142.637 388.252C143.085 388.252 143.645 388.131 144.317 387.888L144.541 388.588C143.86 388.85 143.23 388.98 142.651 388.98C141.736 388.98 141.036 388.677 140.551 388.07C140.066 387.454 139.823 386.6 139.823 385.508C139.823 384.416 140.061 383.581 140.537 383.002C141.013 382.414 141.713 382.12 142.637 382.12C143.225 382.12 143.818 382.223 144.415 382.428ZM155.755 388.252C156.1 388.252 156.474 388.145 156.875 387.93C157.286 387.706 157.584 387.501 157.771 387.314V385.648C157.155 385.602 156.567 385.578 156.007 385.578C155.447 385.578 155.027 385.7 154.747 385.942C154.467 386.176 154.327 386.493 154.327 386.894C154.327 387.8 154.803 388.252 155.755 388.252ZM155.741 388.98C155.06 388.98 154.523 388.808 154.131 388.462C153.739 388.108 153.543 387.608 153.543 386.964C153.543 386.32 153.758 385.821 154.187 385.466C154.616 385.102 155.186 384.92 155.895 384.92C156.604 384.92 157.23 384.948 157.771 385.004C157.771 384.174 157.668 383.609 157.463 383.31C157.258 383.002 156.842 382.848 156.217 382.848C155.592 382.848 154.854 382.998 154.005 383.296L153.795 382.596C154.663 382.279 155.447 382.12 156.147 382.12C157.071 382.12 157.696 382.326 158.023 382.736C158.35 383.147 158.513 383.866 158.513 384.892V387.832L158.625 388.896L157.911 388.966L157.771 388.126C157.556 388.313 157.253 388.504 156.861 388.7C156.469 388.887 156.096 388.98 155.741 388.98ZM160.837 388.854V388.154H162.433V382.904H160.837V382.204H163.175L163.203 383.016C163.502 382.83 163.922 382.643 164.463 382.456C165.004 382.27 165.48 382.158 165.891 382.12H166.045V382.946H165.891C165.508 382.974 165.032 383.068 164.463 383.226C163.903 383.385 163.483 383.548 163.203 383.716V388.154H165.443V388.854H160.837ZM167.487 383.086V382.386H168.845V380.692L169.587 380.552V382.386H172.793V383.086H169.587V386.278C169.587 386.988 169.69 387.501 169.895 387.818C170.11 388.126 170.488 388.28 171.029 388.28C171.234 388.28 171.552 388.248 171.981 388.182C172.41 388.108 172.704 388.042 172.863 387.986L173.031 388.672C172.854 388.738 172.527 388.808 172.051 388.882C171.584 388.957 171.244 388.994 171.029 388.994C170.189 388.994 169.615 388.775 169.307 388.336C168.999 387.888 168.845 387.212 168.845 386.306V383.086H167.487ZM181.865 388.854V388.154H183.909V382.904H181.865V382.204H184.651V388.154H186.695V388.854H181.865ZM183.615 380.23C183.615 380.044 183.666 379.899 183.769 379.796C183.881 379.694 184.03 379.642 184.217 379.642C184.6 379.642 184.791 379.848 184.791 380.258C184.791 380.669 184.6 380.87 184.217 380.86C183.816 380.86 183.615 380.65 183.615 380.23ZM189.481 382.204L189.509 382.764C190.414 382.335 191.166 382.12 191.763 382.12C192.36 382.12 192.827 382.326 193.163 382.736C193.508 383.147 193.681 383.707 193.681 384.416V388.854H192.939V384.416C192.939 383.959 192.827 383.581 192.603 383.282C192.379 382.993 192.043 382.848 191.595 382.848C191.147 382.848 190.452 383.054 189.509 383.464V388.854H188.767V382.204H189.481ZM195.795 388.532L195.977 387.804C196.901 388.112 197.615 388.266 198.119 388.266C198.623 388.266 199.01 388.159 199.281 387.944C199.561 387.72 199.701 387.426 199.701 387.062C199.701 386.698 199.589 386.432 199.365 386.264C199.15 386.087 198.698 385.919 198.007 385.76C197.316 385.602 196.798 385.373 196.453 385.074C196.108 384.794 195.935 384.374 195.935 383.814C195.935 383.254 196.145 382.83 196.565 382.54C196.994 382.242 197.545 382.092 198.217 382.092C198.889 382.092 199.617 382.242 200.401 382.54L200.205 383.198C199.412 382.937 198.772 382.806 198.287 382.806C197.802 382.806 197.419 382.89 197.139 383.058C196.859 383.245 196.719 383.497 196.719 383.814C196.719 384.132 196.84 384.379 197.083 384.556C197.335 384.734 197.816 384.911 198.525 385.088C199.234 385.266 199.738 385.494 200.037 385.774C200.336 386.045 200.485 386.474 200.485 387.062C200.485 387.65 200.284 388.117 199.883 388.462C199.491 388.808 198.931 388.98 198.203 388.98C197.475 388.98 196.672 388.831 195.795 388.532ZM202.487 383.086V382.386H203.845V380.692L204.587 380.552V382.386H207.793V383.086H204.587V386.278C204.587 386.988 204.69 387.501 204.895 387.818C205.11 388.126 205.488 388.28 206.029 388.28C206.234 388.28 206.552 388.248 206.981 388.182C207.41 388.108 207.704 388.042 207.863 387.986L208.031 388.672C207.854 388.738 207.527 388.808 207.051 388.882C206.584 388.957 206.244 388.994 206.029 388.994C205.189 388.994 204.615 388.775 204.307 388.336C203.999 387.888 203.845 387.212 203.845 386.306V383.086H202.487ZM211.755 388.252C212.1 388.252 212.474 388.145 212.875 387.93C213.286 387.706 213.584 387.501 213.771 387.314V385.648C213.155 385.602 212.567 385.578 212.007 385.578C211.447 385.578 211.027 385.7 210.747 385.942C210.467 386.176 210.327 386.493 210.327 386.894C210.327 387.8 210.803 388.252 211.755 388.252ZM211.741 388.98C211.06 388.98 210.523 388.808 210.131 388.462C209.739 388.108 209.543 387.608 209.543 386.964C209.543 386.32 209.758 385.821 210.187 385.466C210.616 385.102 211.186 384.92 211.895 384.92C212.604 384.92 213.23 384.948 213.771 385.004C213.771 384.174 213.668 383.609 213.463 383.31C213.258 383.002 212.842 382.848 212.217 382.848C211.592 382.848 210.854 382.998 210.005 383.296L209.795 382.596C210.663 382.279 211.447 382.12 212.147 382.12C213.071 382.12 213.696 382.326 214.023 382.736C214.35 383.147 214.513 383.866 214.513 384.892V387.832L214.625 388.896L213.911 388.966L213.771 388.126C213.556 388.313 213.253 388.504 212.861 388.7C212.469 388.887 212.096 388.98 211.741 388.98ZM217.033 388.854V388.154H219.175V380.23L217.089 380.244L217.075 379.558L219.917 379.544V388.154H222.129V388.854H217.033ZM224.033 388.854V388.154H226.175V380.23L224.089 380.244L224.075 379.558L226.917 379.544V388.154H229.129V388.854H224.033ZM232.755 388.252C233.1 388.252 233.474 388.145 233.875 387.93C234.286 387.706 234.584 387.501 234.771 387.314V385.648C234.155 385.602 233.567 385.578 233.007 385.578C232.447 385.578 232.027 385.7 231.747 385.942C231.467 386.176 231.327 386.493 231.327 386.894C231.327 387.8 231.803 388.252 232.755 388.252ZM232.741 388.98C232.06 388.98 231.523 388.808 231.131 388.462C230.739 388.108 230.543 387.608 230.543 386.964C230.543 386.32 230.758 385.821 231.187 385.466C231.616 385.102 232.186 384.92 232.895 384.92C233.604 384.92 234.23 384.948 234.771 385.004C234.771 384.174 234.668 383.609 234.463 383.31C234.258 383.002 233.842 382.848 233.217 382.848C232.592 382.848 231.854 382.998 231.005 383.296L230.795 382.596C231.663 382.279 232.447 382.12 233.147 382.12C234.071 382.12 234.696 382.326 235.023 382.736C235.35 383.147 235.513 383.866 235.513 384.892V387.832L235.625 388.896L234.911 388.966L234.771 388.126C234.556 388.313 234.253 388.504 233.861 388.7C233.469 388.887 233.096 388.98 232.741 388.98ZM237.487 383.086V382.386H238.845V380.692L239.587 380.552V382.386H242.793V383.086H239.587V386.278C239.587 386.988 239.69 387.501 239.895 387.818C240.11 388.126 240.488 388.28 241.029 388.28C241.234 388.28 241.552 388.248 241.981 388.182C242.41 388.108 242.704 388.042 242.863 387.986L243.031 388.672C242.854 388.738 242.527 388.808 242.051 388.882C241.584 388.957 241.244 388.994 241.029 388.994C240.189 388.994 239.615 388.775 239.307 388.336C238.999 387.888 238.845 387.212 238.845 386.306V383.086H237.487ZM244.865 388.854V388.154H246.909V382.904H244.865V382.204H247.651V388.154H249.695V388.854H244.865ZM246.615 380.23C246.615 380.044 246.666 379.899 246.769 379.796C246.881 379.694 247.03 379.642 247.217 379.642C247.6 379.642 247.791 379.848 247.791 380.258C247.791 380.669 247.6 380.87 247.217 380.86C246.816 380.86 246.615 380.65 246.615 380.23ZM251.529 385.55C251.529 383.264 252.42 382.12 254.203 382.12C255.986 382.12 256.877 383.264 256.877 385.55C256.877 387.837 255.986 388.98 254.203 388.98C252.42 388.98 251.529 387.837 251.529 385.55ZM254.203 382.848C252.952 382.848 252.327 383.749 252.327 385.55C252.327 387.352 252.952 388.252 254.203 388.252C255.454 388.252 256.079 387.352 256.079 385.55C256.079 383.749 255.454 382.848 254.203 382.848ZM259.481 382.204L259.509 382.764C260.414 382.335 261.166 382.12 261.763 382.12C262.36 382.12 262.827 382.326 263.163 382.736C263.508 383.147 263.681 383.707 263.681 384.416V388.854H262.939V384.416C262.939 383.959 262.827 383.581 262.603 383.282C262.379 382.993 262.043 382.848 261.595 382.848C261.147 382.848 260.452 383.054 259.509 383.464V388.854H258.767V382.204H259.481Z" fill="black"/>
<path d="M105.581 320.662C105.149 320.662 104.681 320.842 104.177 321.202V332.902C104.801 332.902 105.497 332.71 106.265 332.326C107.033 331.918 107.417 331.498 107.417 331.066V323.326C107.417 321.55 106.805 320.662 105.581 320.662ZM99.8566 341.182V322.534C99.8566 321.07 99.3646 320.242 98.3806 320.05V319.258L102.017 317.206C102.497 317.398 102.977 317.746 103.457 318.25C103.937 318.754 104.177 319.21 104.177 319.618C106.817 318.01 108.329 317.206 108.713 317.206C109.097 317.206 109.697 317.698 110.513 318.682C111.353 319.666 111.773 320.554 111.773 321.346V331.462C111.773 331.654 110.465 332.266 107.849 333.298C108.953 337.018 110.249 339.526 111.737 340.822C112.409 341.374 113.093 341.65 113.789 341.65V342.73C111.557 344.146 110.141 344.854 109.541 344.854C108.749 344.854 107.741 343.366 106.517 340.39C105.317 337.414 104.669 335.446 104.573 334.486L104.177 334.594V339.31C104.177 340.198 104.273 340.834 104.465 341.218C104.657 341.602 105.053 341.794 105.653 341.794V342.91L98.2726 346.006L97.6966 344.854C98.2246 344.854 98.7286 344.542 99.2086 343.918C99.6406 343.318 99.8566 342.406 99.8566 341.182ZM119.716 326.782V339.526C119.716 340.99 120.208 341.818 121.192 342.01V342.802L117.556 344.854C117.028 344.638 116.536 344.29 116.08 343.81C115.624 343.306 115.396 342.838 115.396 342.406V329.662C115.396 328.198 114.904 327.37 113.92 327.178V326.386L117.556 324.334C118.084 324.55 118.576 324.91 119.032 325.414C119.488 325.894 119.716 326.35 119.716 326.782ZM114.856 319.834V317.638C114.856 317.566 115.348 317.35 116.332 316.99C117.34 316.606 117.916 316.414 118.06 316.414C118.228 316.414 118.456 316.618 118.744 317.026C119.056 317.434 119.212 317.854 119.212 318.286V320.914C119.212 320.986 118.732 321.214 117.772 321.598C116.812 321.958 116.224 322.138 116.008 322.138C115.792 322.138 115.54 321.934 115.252 321.526C114.988 321.094 114.856 320.53 114.856 319.834ZM123.306 340.786V329.662C123.306 328.198 122.814 327.37 121.83 327.178V326.386L125.466 324.334C125.994 324.55 126.486 324.91 126.942 325.414C127.398 325.894 127.626 326.35 127.626 326.782V341.038C127.626 342.91 127.518 344.65 127.302 346.258C127.086 347.89 126.822 349.138 126.51 350.002C126.198 350.89 125.874 351.334 125.538 351.334C124.938 351.334 124.158 351.154 123.198 350.794C122.262 350.434 121.47 350.074 120.822 349.714L119.85 349.174V348.094H121.074C121.914 348.094 122.49 347.542 122.802 346.438C123.138 345.334 123.306 343.45 123.306 340.786ZM122.766 320.626V318.43C122.766 318.358 123.258 318.142 124.242 317.782C125.25 317.398 125.826 317.206 125.97 317.206C126.138 317.206 126.366 317.41 126.654 317.818C126.966 318.226 127.122 318.646 127.122 319.078V321.706C127.122 321.778 126.642 322.006 125.682 322.39C124.722 322.75 124.134 322.93 123.918 322.93C123.702 322.93 123.45 322.726 123.162 322.318C122.898 321.886 122.766 321.322 122.766 320.626ZM135.536 339.526C135.536 340.99 136.028 341.818 137.012 342.01V342.802L133.376 344.854C132.848 344.638 132.356 344.29 131.9 343.81C131.444 343.306 131.216 342.838 131.216 342.406V324.586C131.216 323.938 131.108 323.482 130.892 323.218C130.676 322.93 130.304 322.786 129.776 322.786V321.778C132.896 320.146 135.68 318.61 138.128 317.17L138.704 318.322C138.464 318.442 138.128 318.682 137.696 319.042C137.264 319.378 136.904 319.726 136.616 320.086C135.896 320.998 135.536 322.03 135.536 323.182V326.494C137.768 325.054 139.088 324.334 139.496 324.334C140.168 324.334 140.912 324.778 141.728 325.666C142.544 326.53 142.952 327.502 142.952 328.582V332.506C142.952 332.77 141.704 333.382 139.208 334.342C140.72 338.35 142.196 340.654 143.636 341.254C144.092 341.47 144.596 341.602 145.148 341.65V342.694C142.916 344.134 141.512 344.854 140.936 344.854C140.168 344.854 139.184 343.69 137.984 341.362C136.808 339.01 135.992 337.054 135.536 335.494V339.526ZM135.536 333.73C136.016 333.73 136.88 333.43 138.128 332.83L138.776 332.506V330.886C138.776 328.846 138.08 327.826 136.688 327.826L135.536 328.006V333.73ZM148.341 336.97C147.741 336.97 147.225 336.514 146.793 335.602C146.361 334.69 146.145 333.574 146.145 332.254V328.366C146.145 327.91 147.405 327.13 149.925 326.026C152.445 324.898 153.897 324.334 154.281 324.334C154.497 324.334 154.689 324.466 154.857 324.73C155.025 324.97 155.157 325.174 155.253 325.342C155.349 325.486 155.493 325.75 155.685 326.134C155.901 326.494 156.081 326.794 156.225 327.034C156.537 327.61 156.933 327.898 157.413 327.898V328.618C157.029 328.786 156.525 329.038 155.901 329.374C154.365 330.214 153.537 330.634 153.417 330.634C153.057 330.634 152.661 330.046 152.229 328.87C151.821 327.694 151.449 327.106 151.113 327.106C150.681 327.106 150.465 327.466 150.465 328.186V332.614C150.465 333.574 150.681 334.054 151.113 334.054C151.209 334.054 151.953 333.742 153.345 333.118C154.737 332.494 155.577 332.182 155.865 332.182C156.441 332.182 156.945 332.65 157.377 333.586C157.833 334.498 158.061 335.674 158.061 337.114V341.182C158.061 341.638 156.681 342.43 153.921 343.558C151.185 344.662 149.613 345.214 149.205 345.214C149.037 345.214 148.869 345.07 148.701 344.782C148.557 344.47 148.341 344.002 148.053 343.378C147.789 342.754 147.525 342.226 147.261 341.794C146.949 341.218 146.553 340.93 146.073 340.93V340.21C146.457 340.042 146.973 339.79 147.621 339.454C149.133 338.614 149.949 338.194 150.069 338.194C150.429 338.194 150.873 338.902 151.401 340.318C151.953 341.734 152.397 342.442 152.733 342.442C152.973 342.442 153.201 342.346 153.417 342.154C153.633 341.962 153.741 341.698 153.741 341.362V336.862C153.741 335.782 153.441 335.242 152.841 335.242C152.649 335.242 151.893 335.53 150.573 336.106C149.253 336.682 148.509 336.97 148.341 336.97ZM161.275 342.406V330.202C161.275 329.41 161.107 328.726 160.771 328.15C160.435 327.574 160.015 327.286 159.511 327.286V326.494C159.679 326.47 160.987 325.738 163.435 324.298C163.603 324.346 163.807 324.418 164.047 324.514C164.287 324.586 164.599 324.814 164.983 325.198C165.391 325.582 165.595 326.026 165.595 326.53C165.739 326.458 166.147 326.23 166.819 325.846C168.595 324.838 169.687 324.334 170.095 324.334C170.527 324.334 170.995 324.55 171.499 324.982C172.027 325.414 172.423 325.93 172.687 326.53C172.735 326.506 173.227 326.254 174.163 325.774C176.035 324.814 177.163 324.334 177.547 324.334C178.315 324.334 179.035 324.838 179.707 325.846C180.379 326.854 180.715 327.778 180.715 328.618V339.526C180.715 340.846 181.303 341.626 182.479 341.866V342.658L178.555 344.854C178.027 344.638 177.535 344.29 177.079 343.81C176.623 343.306 176.395 342.838 176.395 342.406V331.786C176.395 330.226 176.191 329.194 175.783 328.69C175.375 328.162 174.847 327.898 174.199 327.898L173.155 328.114V339.526C173.155 340.846 173.743 341.626 174.919 341.866V342.658L170.995 344.854C170.467 344.638 169.975 344.29 169.519 343.81C169.063 343.306 168.835 342.838 168.835 342.406V331.966C168.835 329.206 168.175 327.826 166.855 327.826L165.595 328.042V339.526C165.595 340.99 166.087 341.818 167.071 342.01V342.802L163.435 344.854C162.907 344.638 162.415 344.29 161.959 343.81C161.503 343.306 161.275 342.838 161.275 342.406ZM188.622 339.238C188.622 339.862 188.802 340.378 189.162 340.786C189.546 341.17 189.966 341.362 190.422 341.362C190.878 341.362 191.358 341.182 191.862 340.822V329.626C191.862 328.162 191.37 327.334 190.386 327.142V326.35L194.022 324.298C194.55 324.514 195.042 324.874 195.498 325.378C195.954 325.858 196.182 326.314 196.182 326.746V338.95C196.182 339.742 196.35 340.426 196.686 341.002C197.022 341.578 197.442 341.866 197.946 341.866V342.658C197.778 342.682 196.47 343.414 194.022 344.854C193.47 344.614 192.966 344.266 192.51 343.81C192.078 343.33 191.862 342.874 191.862 342.442L187.362 344.854C187.29 344.806 187.182 344.746 187.038 344.674C186.894 344.578 186.642 344.398 186.282 344.134C185.946 343.846 185.646 343.546 185.382 343.234C184.662 342.442 184.302 341.542 184.302 340.534V329.626C184.302 328.306 183.714 327.526 182.538 327.286V326.494L186.462 324.298C186.99 324.514 187.482 324.874 187.938 325.378C188.394 325.858 188.622 326.314 188.622 326.746V339.238ZM201.427 336.97C200.827 336.97 200.311 336.514 199.879 335.602C199.447 334.69 199.231 333.574 199.231 332.254V328.366C199.231 327.91 200.491 327.13 203.011 326.026C205.531 324.898 206.983 324.334 207.367 324.334C207.583 324.334 207.775 324.466 207.943 324.73C208.111 324.97 208.243 325.174 208.339 325.342C208.435 325.486 208.579 325.75 208.771 326.134C208.987 326.494 209.167 326.794 209.311 327.034C209.623 327.61 210.019 327.898 210.499 327.898V328.618C210.115 328.786 209.611 329.038 208.987 329.374C207.451 330.214 206.623 330.634 206.503 330.634C206.143 330.634 205.747 330.046 205.315 328.87C204.907 327.694 204.535 327.106 204.199 327.106C203.767 327.106 203.551 327.466 203.551 328.186V332.614C203.551 333.574 203.767 334.054 204.199 334.054C204.295 334.054 205.039 333.742 206.431 333.118C207.823 332.494 208.663 332.182 208.951 332.182C209.527 332.182 210.031 332.65 210.463 333.586C210.919 334.498 211.147 335.674 211.147 337.114V341.182C211.147 341.638 209.767 342.43 207.007 343.558C204.271 344.662 202.699 345.214 202.291 345.214C202.123 345.214 201.955 345.07 201.787 344.782C201.643 344.47 201.427 344.002 201.139 343.378C200.875 342.754 200.611 342.226 200.347 341.794C200.035 341.218 199.639 340.93 199.159 340.93V340.21C199.543 340.042 200.059 339.79 200.707 339.454C202.219 338.614 203.035 338.194 203.155 338.194C203.515 338.194 203.959 338.902 204.487 340.318C205.039 341.734 205.483 342.442 205.819 342.442C206.059 342.442 206.287 342.346 206.503 342.154C206.719 341.962 206.827 341.698 206.827 341.362V336.862C206.827 335.782 206.527 335.242 205.927 335.242C205.735 335.242 204.979 335.53 203.659 336.106C202.339 336.682 201.595 336.97 201.427 336.97ZM223.181 324.334C223.301 324.334 223.601 324.526 224.081 324.91C224.561 325.27 225.041 325.786 225.521 326.458C226.001 327.106 226.241 327.742 226.241 328.366V334.414C226.241 334.846 225.605 335.374 224.333 335.998C223.061 336.622 221.825 337.138 220.625 337.546C219.449 337.93 218.813 338.122 218.717 338.122C218.717 339.97 219.521 341.11 221.129 341.542C221.921 341.734 222.869 341.83 223.973 341.83V342.874C220.037 344.194 217.937 344.854 217.673 344.854C216.953 344.854 216.221 344.35 215.477 343.342C214.733 342.31 214.361 341.11 214.361 339.742V327.646C214.361 327.478 215.729 326.89 218.465 325.882C221.201 324.85 222.773 324.334 223.181 324.334ZM221.921 330.058C221.921 329.386 221.765 328.822 221.453 328.366C221.141 327.886 220.745 327.646 220.265 327.646C219.785 327.646 219.257 327.826 218.681 328.186V336.502C220.841 335.902 221.921 334.606 221.921 332.614V330.058ZM233.974 339.238C233.974 339.862 234.154 340.378 234.514 340.786C234.898 341.17 235.318 341.362 235.774 341.362C236.23 341.362 236.71 341.182 237.214 340.822V329.626C237.214 328.162 236.722 327.334 235.738 327.142V326.35L239.374 324.298C239.902 324.514 240.394 324.874 240.85 325.378C241.306 325.858 241.534 326.314 241.534 326.746V338.95C241.534 339.742 241.702 340.426 242.038 341.002C242.374 341.578 242.794 341.866 243.298 341.866V342.658C243.13 342.682 241.822 343.414 239.374 344.854C238.822 344.614 238.318 344.266 237.862 343.81C237.43 343.33 237.214 342.874 237.214 342.442L232.714 344.854C232.642 344.806 232.534 344.746 232.39 344.674C232.246 344.578 231.994 344.398 231.634 344.134C231.298 343.846 230.998 343.546 230.734 343.234C230.014 342.442 229.654 341.542 229.654 340.534V329.626C229.654 328.306 229.066 327.526 227.89 327.286V326.494L231.814 324.298C232.342 324.514 232.834 324.874 233.29 325.378C233.746 325.858 233.974 326.314 233.974 326.746V339.238ZM245.122 342.406V330.202C245.122 329.41 244.954 328.726 244.618 328.15C244.282 327.574 243.862 327.286 243.358 327.286V326.494C243.526 326.47 244.834 325.738 247.282 324.298C247.45 324.346 247.654 324.418 247.894 324.514C248.134 324.586 248.446 324.814 248.83 325.198C249.238 325.582 249.442 326.026 249.442 326.53C249.586 326.458 249.994 326.23 250.666 325.846C252.442 324.838 253.534 324.334 253.942 324.334C254.374 324.334 254.842 324.55 255.346 324.982C255.874 325.414 256.27 325.93 256.534 326.53C256.582 326.506 257.074 326.254 258.01 325.774C259.882 324.814 261.01 324.334 261.394 324.334C262.162 324.334 262.882 324.838 263.554 325.846C264.226 326.854 264.562 327.778 264.562 328.618V339.526C264.562 340.846 265.15 341.626 266.326 341.866V342.658L262.402 344.854C261.874 344.638 261.382 344.29 260.926 343.81C260.47 343.306 260.242 342.838 260.242 342.406V331.786C260.242 330.226 260.038 329.194 259.63 328.69C259.222 328.162 258.694 327.898 258.046 327.898L257.002 328.114V339.526C257.002 340.846 257.59 341.626 258.766 341.866V342.658L254.842 344.854C254.314 344.638 253.822 344.29 253.366 343.81C252.91 343.306 252.682 342.838 252.682 342.406V331.966C252.682 329.206 252.022 327.826 250.702 327.826L249.442 328.042V339.526C249.442 340.99 249.934 341.818 250.918 342.01V342.802L247.282 344.854C246.754 344.638 246.262 344.29 245.806 343.81C245.35 343.306 245.122 342.838 245.122 342.406Z" fill="black"/>
<path d="M171.722 306.381C171.806 306.237 171.954 305.987 172.166 305.632C172.386 305.276 172.64 304.883 172.928 304.451C173.224 304.02 173.541 303.588 173.88 303.156C174.227 302.716 174.565 302.344 174.896 302.039L175.467 302.382C175.103 302.983 174.73 303.622 174.35 304.299C173.969 304.967 173.592 305.661 173.22 306.381H177.358L177.104 307.041H172.877C172.496 307.803 172.136 308.56 171.798 309.313C171.468 310.067 171.176 310.786 170.922 311.472C170.668 312.157 170.469 312.8 170.325 313.401C170.181 313.994 170.109 314.51 170.109 314.95C170.109 315.5 170.236 315.898 170.49 316.144C170.744 316.381 171.057 316.499 171.43 316.499C171.76 316.499 172.098 316.402 172.445 316.207C172.792 316.004 173.131 315.75 173.461 315.445C173.799 315.141 174.117 314.806 174.413 314.442C174.718 314.078 174.984 313.736 175.213 313.414C175.45 313.092 175.645 312.813 175.797 312.576C175.949 312.331 176.042 312.178 176.076 312.119L176.546 312.475C176.25 312.965 175.915 313.486 175.543 314.036C175.171 314.586 174.756 315.098 174.299 315.572C173.85 316.038 173.359 316.427 172.826 316.74C172.293 317.045 171.717 317.197 171.1 317.197C170.719 317.197 170.384 317.13 170.097 316.994C169.817 316.859 169.58 316.673 169.386 316.436C169.191 316.19 169.047 315.902 168.954 315.572C168.853 315.242 168.802 314.882 168.802 314.493C168.802 314.239 168.844 313.88 168.929 313.414C169.005 312.949 169.14 312.398 169.335 311.764C169.53 311.12 169.788 310.401 170.109 309.605C170.439 308.81 170.854 307.955 171.354 307.041H169.246L169.5 306.381H171.722ZM177.803 311.891C178.251 311.281 178.717 310.723 179.199 310.215C179.682 309.699 180.168 309.254 180.659 308.882C181.15 308.509 181.632 308.222 182.106 308.019C182.589 307.807 183.054 307.701 183.503 307.701C183.808 307.701 184.057 307.748 184.252 307.841C184.455 307.934 184.612 308.057 184.722 308.209C184.84 308.353 184.921 308.514 184.963 308.691C185.014 308.869 185.039 309.047 185.039 309.225C185.039 309.529 184.976 309.859 184.849 310.215C184.722 310.562 184.561 310.926 184.366 311.307C184.18 311.688 183.977 312.077 183.757 312.475C183.537 312.872 183.329 313.262 183.135 313.643C182.949 314.023 182.792 314.396 182.665 314.76C182.538 315.115 182.475 315.45 182.475 315.763C182.475 315.957 182.517 316.139 182.602 316.309C182.695 316.469 182.855 316.55 183.084 316.55C183.355 316.55 183.655 316.414 183.985 316.144C184.315 315.864 184.65 315.513 184.988 315.09C185.335 314.658 185.678 314.18 186.017 313.655C186.364 313.131 186.685 312.618 186.981 312.119L187.438 312.475C187.345 312.602 187.218 312.809 187.058 313.097C186.897 313.376 186.706 313.693 186.486 314.049C186.275 314.396 186.034 314.756 185.763 315.128C185.5 315.5 185.217 315.843 184.912 316.156C184.616 316.461 184.303 316.711 183.973 316.905C183.643 317.108 183.308 317.21 182.97 317.21C182.75 317.21 182.53 317.185 182.31 317.134C182.09 317.083 181.891 316.99 181.713 316.854C181.535 316.719 181.391 316.537 181.281 316.309C181.171 316.072 181.116 315.775 181.116 315.42C181.116 315.005 181.184 314.586 181.319 314.163C181.463 313.731 181.637 313.308 181.84 312.894C182.051 312.47 182.28 312.064 182.525 311.675C182.771 311.277 182.995 310.905 183.198 310.558C183.41 310.211 183.583 309.897 183.719 309.618C183.863 309.33 183.935 309.089 183.935 308.895C183.935 308.548 183.765 308.374 183.427 308.374C182.944 308.374 182.432 308.535 181.891 308.856C181.357 309.17 180.82 309.58 180.278 310.088C179.737 310.596 179.203 311.167 178.679 311.802C178.154 312.428 177.663 313.054 177.206 313.681L175.276 317.312L174.121 316.854C175.196 314.51 176.229 312.195 177.219 309.91C178.217 307.617 179.242 305.353 180.291 303.118C180.452 302.771 180.638 302.395 180.85 301.988C181.07 301.582 181.302 301.176 181.548 300.77C181.802 300.363 182.073 299.974 182.36 299.602C182.648 299.229 182.944 298.899 183.249 298.611C183.554 298.324 183.867 298.095 184.188 297.926C184.519 297.748 184.849 297.659 185.179 297.659C185.551 297.659 185.839 297.765 186.042 297.977C186.254 298.18 186.359 298.472 186.359 298.853C186.359 299.25 186.254 299.703 186.042 300.211C185.83 300.71 185.547 301.239 185.191 301.798C184.836 302.356 184.421 302.932 183.947 303.524C183.482 304.117 182.987 304.705 182.462 305.289C181.946 305.873 181.421 306.44 180.888 306.99C180.354 307.532 179.842 308.035 179.352 308.501L177.803 311.891ZM185.242 298.332C184.861 298.332 184.51 298.48 184.188 298.776C183.875 299.064 183.533 299.542 183.16 300.211C182.788 300.88 182.36 301.751 181.878 302.826C181.396 303.901 180.807 305.221 180.113 306.787C181.044 305.882 181.857 305.006 182.551 304.159C183.253 303.304 183.837 302.526 184.303 301.823C184.768 301.121 185.115 300.511 185.344 299.995C185.581 299.47 185.699 299.081 185.699 298.827C185.699 298.675 185.657 298.556 185.572 298.472C185.488 298.379 185.378 298.332 185.242 298.332ZM187.959 313.96C187.942 314.062 187.929 314.163 187.921 314.265C187.912 314.366 187.908 314.468 187.908 314.569C187.908 314.874 187.951 315.166 188.035 315.445C188.128 315.716 188.259 315.957 188.429 316.169C188.606 316.372 188.822 316.533 189.076 316.651C189.339 316.77 189.635 316.829 189.965 316.829C191.074 316.829 192.144 316.452 193.177 315.699C194.209 314.946 195.238 313.753 196.262 312.119L196.693 312.5C196.135 313.431 195.568 314.218 194.992 314.861C194.417 315.496 193.841 316.012 193.266 316.41C192.699 316.808 192.14 317.096 191.59 317.273C191.04 317.451 190.515 317.54 190.016 317.54C189.652 317.54 189.267 317.489 188.86 317.388C188.454 317.286 188.077 317.117 187.73 316.88C187.392 316.643 187.113 316.326 186.893 315.928C186.664 315.53 186.55 315.035 186.55 314.442C186.55 313.808 186.66 313.198 186.88 312.614C187.091 312.022 187.371 311.472 187.718 310.964C188.065 310.456 188.463 309.995 188.911 309.58C189.36 309.157 189.812 308.797 190.27 308.501C190.735 308.205 191.188 307.976 191.628 307.815C192.068 307.646 192.457 307.562 192.796 307.562C193.016 307.562 193.24 307.595 193.469 307.663C193.697 307.731 193.9 307.837 194.078 307.98C194.264 308.124 194.412 308.315 194.522 308.552C194.641 308.789 194.7 309.072 194.7 309.402C194.7 309.851 194.594 310.274 194.383 310.672C194.18 311.061 193.905 311.425 193.558 311.764C193.211 312.094 192.809 312.394 192.352 312.665C191.895 312.927 191.416 313.152 190.917 313.338C190.418 313.524 189.914 313.672 189.406 313.782C188.898 313.892 188.416 313.951 187.959 313.96ZM188.061 313.414C188.628 313.355 189.161 313.236 189.66 313.059C190.16 312.881 190.617 312.665 191.031 312.411C191.446 312.149 191.814 311.865 192.136 311.561C192.466 311.256 192.741 310.947 192.961 310.634C193.181 310.321 193.35 310.02 193.469 309.732C193.587 309.445 193.646 309.187 193.646 308.958C193.646 308.729 193.583 308.548 193.456 308.412C193.338 308.277 193.194 308.209 193.024 308.209C192.652 308.209 192.233 308.344 191.768 308.615C191.302 308.878 190.837 309.246 190.371 309.72C189.906 310.185 189.465 310.735 189.051 311.37C188.645 312.005 188.314 312.686 188.061 313.414Z" fill="black"/>
<path d="M120.19 289.03C120.19 289.63 120.358 290.134 120.694 290.542C121.03 290.95 121.39 291.154 121.774 291.154C122.158 291.154 122.71 290.974 123.43 290.614V272.794C123.43 271.906 123.334 271.27 123.142 270.886C122.974 270.502 122.59 270.31 121.99 270.31V269.194L129.37 266.098L129.946 267.25C129.418 267.25 128.926 267.562 128.47 268.186C128.014 268.786 127.786 269.698 127.786 270.922V290.506C127.786 290.722 126.502 291.334 123.934 292.342C121.366 293.35 119.71 293.854 118.966 293.854C118.222 293.854 117.514 293.29 116.842 292.162C116.194 291.034 115.87 290.038 115.87 289.174V271.426C115.87 270.106 115.282 269.326 114.106 269.086V268.294L118.03 266.098C118.558 266.314 119.05 266.674 119.506 267.178C119.962 267.658 120.19 268.114 120.19 268.546V289.03ZM135.694 275.782V288.526C135.694 289.99 136.186 290.818 137.17 291.01V291.802L133.534 293.854C133.006 293.638 132.514 293.29 132.058 292.81C131.602 292.306 131.374 291.838 131.374 291.406V278.662C131.374 277.198 130.882 276.37 129.898 276.178V275.386L133.534 273.334C134.062 273.55 134.554 273.91 135.01 274.414C135.466 274.894 135.694 275.35 135.694 275.782ZM130.834 268.834V266.638C130.834 266.566 131.326 266.35 132.31 265.99C133.318 265.606 133.894 265.414 134.038 265.414C134.206 265.414 134.434 265.618 134.722 266.026C135.034 266.434 135.19 266.854 135.19 267.286V269.914C135.19 269.986 134.71 270.214 133.75 270.598C132.79 270.958 132.202 271.138 131.986 271.138C131.77 271.138 131.518 270.934 131.23 270.526C130.966 270.094 130.834 269.53 130.834 268.834ZM140.94 285.97C140.34 285.97 139.824 285.514 139.392 284.602C138.96 283.69 138.744 282.574 138.744 281.254V277.366C138.744 276.91 140.004 276.13 142.524 275.026C145.044 273.898 146.496 273.334 146.88 273.334C147.096 273.334 147.288 273.466 147.456 273.73C147.624 273.97 147.756 274.174 147.852 274.342C147.948 274.486 148.092 274.75 148.284 275.134C148.5 275.494 148.68 275.794 148.824 276.034C149.136 276.61 149.532 276.898 150.012 276.898V277.618C149.628 277.786 149.124 278.038 148.5 278.374C146.964 279.214 146.136 279.634 146.016 279.634C145.656 279.634 145.26 279.046 144.828 277.87C144.42 276.694 144.048 276.106 143.712 276.106C143.28 276.106 143.064 276.466 143.064 277.186V281.614C143.064 282.574 143.28 283.054 143.712 283.054C143.808 283.054 144.552 282.742 145.944 282.118C147.336 281.494 148.176 281.182 148.464 281.182C149.04 281.182 149.544 281.65 149.976 282.586C150.432 283.498 150.66 284.674 150.66 286.114V290.182C150.66 290.638 149.28 291.43 146.52 292.558C143.784 293.662 142.212 294.214 141.804 294.214C141.636 294.214 141.468 294.07 141.3 293.782C141.156 293.47 140.94 293.002 140.652 292.378C140.388 291.754 140.124 291.226 139.86 290.794C139.548 290.218 139.152 289.93 138.672 289.93V289.21C139.056 289.042 139.572 288.79 140.22 288.454C141.732 287.614 142.548 287.194 142.668 287.194C143.028 287.194 143.472 287.902 144 289.318C144.552 290.734 144.996 291.442 145.332 291.442C145.572 291.442 145.8 291.346 146.016 291.154C146.232 290.962 146.34 290.698 146.34 290.362V285.862C146.34 284.782 146.04 284.242 145.44 284.242C145.248 284.242 144.492 284.53 143.172 285.106C141.852 285.682 141.108 285.97 140.94 285.97ZM158.194 288.238C158.194 288.862 158.374 289.378 158.734 289.786C159.118 290.17 159.538 290.362 159.994 290.362C160.45 290.362 160.93 290.182 161.434 289.822V278.626C161.434 277.162 160.942 276.334 159.958 276.142V275.35L163.594 273.298C164.122 273.514 164.614 273.874 165.07 274.378C165.526 274.858 165.754 275.314 165.754 275.746V287.95C165.754 288.742 165.922 289.426 166.258 290.002C166.594 290.578 167.014 290.866 167.518 290.866V291.658C167.35 291.682 166.042 292.414 163.594 293.854C163.042 293.614 162.538 293.266 162.082 292.81C161.65 292.33 161.434 291.874 161.434 291.442L156.934 293.854C156.862 293.806 156.754 293.746 156.61 293.674C156.466 293.578 156.214 293.398 155.854 293.134C155.518 292.846 155.218 292.546 154.954 292.234C154.234 291.442 153.874 290.542 153.874 289.534V278.626C153.874 277.306 153.286 276.526 152.11 276.286V275.494L156.034 273.298C156.562 273.514 157.054 273.874 157.51 274.378C157.966 274.858 158.194 275.314 158.194 275.746V288.238ZM180.503 278.086V288.274C180.503 289.162 180.647 289.786 180.935 290.146C181.223 290.482 181.667 290.722 182.267 290.866V291.658L178.343 293.854C177.815 293.638 177.323 293.29 176.867 292.81C176.411 292.306 176.183 291.85 176.183 291.442L171.683 293.854C171.611 293.806 171.503 293.746 171.359 293.674C171.215 293.578 170.963 293.398 170.603 293.134C170.267 292.846 169.967 292.546 169.703 292.234C168.983 291.442 168.623 290.542 168.623 289.534V283.63C168.623 283.246 169.247 282.754 170.495 282.154C171.743 281.554 172.991 281.062 174.239 280.678L176.147 280.066C176.147 278.698 175.787 277.75 175.067 277.222C174.347 276.67 172.955 276.394 170.891 276.394V275.314C174.611 273.994 176.699 273.334 177.155 273.334C177.947 273.334 178.703 273.85 179.423 274.882C180.143 275.914 180.503 276.982 180.503 278.086ZM172.943 288.238C172.943 288.862 173.123 289.378 173.483 289.786C173.867 290.17 174.287 290.362 174.743 290.362C175.199 290.362 175.679 290.182 176.183 289.822V281.686C175.583 281.902 175.127 282.082 174.815 282.226C174.527 282.37 174.215 282.598 173.879 282.91C173.255 283.486 172.943 284.482 172.943 285.898V288.238ZM188.429 268.618V288.526C188.429 289.99 188.921 290.818 189.905 291.01V291.802L186.269 293.854C185.741 293.638 185.249 293.29 184.793 292.81C184.337 292.306 184.109 291.838 184.109 291.406V271.498C184.109 270.034 183.617 269.206 182.633 269.014V268.222L186.269 266.17C186.797 266.386 187.289 266.746 187.745 267.25C188.201 267.73 188.429 268.186 188.429 268.618ZM196.339 275.782V288.526C196.339 289.99 196.831 290.818 197.815 291.01V291.802L194.179 293.854C193.651 293.638 193.159 293.29 192.703 292.81C192.247 292.306 192.019 291.838 192.019 291.406V278.662C192.019 277.198 191.527 276.37 190.543 276.178V275.386L194.179 273.334C194.707 273.55 195.199 273.91 195.655 274.414C196.111 274.894 196.339 275.35 196.339 275.782ZM191.479 268.834V266.638C191.479 266.566 191.971 266.35 192.955 265.99C193.963 265.606 194.539 265.414 194.683 265.414C194.851 265.414 195.079 265.618 195.367 266.026C195.679 266.434 195.835 266.854 195.835 267.286V269.914C195.835 269.986 195.355 270.214 194.395 270.598C193.435 270.958 192.847 271.138 192.631 271.138C192.415 271.138 192.163 270.934 191.875 270.526C191.611 270.094 191.479 269.53 191.479 268.834ZM205.761 290.326C207.225 290.326 208.053 289.93 208.245 289.138H209.037L211.089 292.09C210.801 292.546 210.429 292.954 209.973 293.314C209.517 293.674 209.073 293.854 208.641 293.854H199.209C198.729 292.39 198.489 291.25 198.489 290.434L206.949 277.186H203.817C202.353 277.186 201.525 277.582 201.333 278.374H200.541L198.489 275.422C198.777 274.966 199.149 274.558 199.605 274.198C200.061 273.838 200.505 273.658 200.937 273.658H205.761C207.225 273.658 208.053 273.262 208.245 272.47H209.037C209.373 272.926 209.793 273.766 210.297 274.99C210.825 276.19 211.089 276.91 211.089 277.15L202.917 290.326H205.761ZM217.573 275.782V288.526C217.573 289.99 218.065 290.818 219.049 291.01V291.802L215.413 293.854C214.885 293.638 214.393 293.29 213.937 292.81C213.481 292.306 213.253 291.838 213.253 291.406V278.662C213.253 277.198 212.761 276.37 211.777 276.178V275.386L215.413 273.334C215.941 273.55 216.433 273.91 216.889 274.414C217.345 274.894 217.573 275.35 217.573 275.782ZM212.713 268.834V266.638C212.713 266.566 213.205 266.35 214.189 265.99C215.197 265.606 215.773 265.414 215.917 265.414C216.085 265.414 216.313 265.618 216.601 266.026C216.913 266.434 217.069 266.854 217.069 267.286V269.914C217.069 269.986 216.589 270.214 215.629 270.598C214.669 270.958 214.081 271.138 213.865 271.138C213.649 271.138 213.397 270.934 213.109 270.526C212.845 270.094 212.713 269.53 212.713 268.834ZM221.163 291.406V279.202C221.163 278.41 220.995 277.726 220.659 277.15C220.323 276.574 219.903 276.286 219.399 276.286V275.494C219.567 275.47 220.875 274.738 223.323 273.298C223.491 273.346 223.695 273.418 223.935 273.514C224.175 273.586 224.487 273.814 224.871 274.198C225.279 274.582 225.483 275.026 225.483 275.53C225.627 275.458 226.035 275.23 226.707 274.846C228.483 273.838 229.539 273.334 229.875 273.334C230.643 273.334 231.363 273.838 232.035 274.846C232.707 275.854 233.043 276.778 233.043 277.618V288.526C233.043 289.846 233.631 290.626 234.807 290.866V291.658L230.883 293.854C230.355 293.638 229.863 293.29 229.407 292.81C228.951 292.306 228.723 291.838 228.723 291.406V280.966C228.723 279.622 228.567 278.602 228.255 277.906C227.967 277.186 227.439 276.826 226.671 276.826L225.483 277.042V288.526C225.483 289.99 225.975 290.818 226.959 291.01V291.802L223.323 293.854C222.795 293.638 222.303 293.29 221.847 292.81C221.391 292.306 221.163 291.838 221.163 291.406ZM236.632 276.682C236.632 276.442 237.952 275.83 240.592 274.846C243.256 273.838 244.888 273.334 245.488 273.334C246.088 273.334 246.748 273.886 247.468 274.99C248.188 276.07 248.548 277.27 248.548 278.59V290.038C248.548 290.95 248.14 292.246 247.324 293.926C246.508 295.63 245.644 297.118 244.732 298.39C243.82 299.686 243.196 300.334 242.86 300.334C242.26 300.334 241.456 300.154 240.448 299.794C239.44 299.434 238.576 299.074 237.856 298.714L236.812 298.174V297.094H238.036C238.972 297.094 240.04 296.554 241.24 295.474C242.44 294.418 243.436 293.002 244.228 291.226C241.516 292.498 239.956 293.134 239.548 293.134C238.804 293.134 238.132 292.666 237.532 291.73C236.932 290.77 236.632 289.702 236.632 288.526V276.682ZM244.228 279.814C244.228 277.702 243.676 276.646 242.572 276.646C241.996 276.646 241.468 276.838 240.988 277.222V285.502C240.988 287.182 241.252 288.31 241.78 288.886C242.308 289.438 243.124 289.714 244.228 289.714V279.814Z" fill="black"/>
</svg>
