<svg width="365" height="428" viewBox="0 0 365 428" fill="none" xmlns="http://www.w3.org/2000/svg">
<path d="M0.75697 426.564L182.219 1.3062L363.682 426.564L0.75697 426.564Z" fill="white" stroke="black"/>
<path d="M40.4601 397.808L181.125 68.1607L321.789 397.808L40.4601 397.808Z" fill="white" stroke="black"/>
<path d="M284.919 382.461C284.919 382.983 284.802 383.464 284.569 383.903C284.345 384.341 284.06 384.715 283.715 385.023C283.379 385.331 283.034 385.615 282.679 385.877C281.774 386.558 281.237 387.109 281.069 387.529H285.255V388.887H279.445V387.641C279.632 387.174 279.902 386.74 280.257 386.339C280.602 385.928 280.952 385.583 281.307 385.303L282.343 384.491C283.09 383.875 283.458 383.198 283.449 382.461C283.449 382.05 283.328 381.733 283.085 381.509C282.842 381.275 282.534 381.159 282.161 381.159C281.797 381.159 281.461 381.238 281.153 381.397C280.854 381.546 280.472 381.784 280.005 382.111L279.291 381.061C279.72 380.743 280.192 380.468 280.705 380.235C281.218 380.001 281.671 379.885 282.063 379.885C282.884 379.885 283.566 380.104 284.107 380.543C284.648 380.972 284.919 381.611 284.919 382.461ZM286.363 384.435C286.363 382.829 286.606 381.667 287.091 380.949C287.586 380.23 288.318 379.871 289.289 379.871C290.269 379.871 291.002 380.23 291.487 380.949C291.982 381.667 292.229 382.829 292.229 384.435C292.229 386.031 291.982 387.197 291.487 387.935C290.992 388.663 290.26 389.027 289.289 389.027C288.318 389.027 287.586 388.663 287.091 387.935C286.606 387.197 286.363 386.031 286.363 384.435ZM289.289 387.753C289.802 387.753 290.171 387.519 290.395 387.053C290.628 386.586 290.745 385.713 290.745 384.435C290.745 383.147 290.628 382.279 290.395 381.831C290.171 381.383 289.802 381.159 289.289 381.159C288.776 381.159 288.412 381.383 288.197 381.831C287.982 382.269 287.875 383.035 287.875 384.127C287.875 385.209 287.926 385.998 288.029 386.493C288.141 386.978 288.295 387.309 288.491 387.487C288.687 387.664 288.953 387.753 289.289 387.753ZM299.539 388.887H293.869V387.599H296.179L296.165 381.481L293.995 382.461L293.491 381.285L296.361 379.997H297.481V387.599H299.539V388.887ZM300.437 382.055L300.801 380.011H306.331V381.299C306.275 381.541 306.079 381.961 305.743 382.559L304.735 384.379C304.39 384.995 304.068 385.727 303.769 386.577C303.47 387.426 303.312 388.196 303.293 388.887H301.865C301.865 388.168 301.996 387.398 302.257 386.577C302.528 385.755 302.822 385.046 303.139 384.449L304.091 382.643C304.408 382.036 304.59 381.588 304.637 381.299H301.865L301.641 382.111L300.437 382.055Z" fill="#FF00E6"/>
<path d="M65.0491 374.887C64.2091 374.887 63.5651 374.597 63.1171 374.019C62.6691 373.44 62.4451 372.623 62.4451 371.569C62.4451 370.505 62.6925 369.669 63.1871 369.063C63.6911 368.456 64.3911 368.153 65.2871 368.153C65.7818 368.153 66.3371 368.316 66.9531 368.643L66.9811 368.237H67.6951V373.277C67.8351 374.387 67.9051 375.031 67.9051 375.209C67.9051 376.03 67.6298 376.646 67.0791 377.057C66.5285 377.477 65.8798 377.687 65.1331 377.687C64.3958 377.687 63.5558 377.5 62.6131 377.127L62.8651 376.427C63.7891 376.781 64.5265 376.959 65.0771 376.959C65.6371 376.959 66.1225 376.814 66.5331 376.525C66.9531 376.235 67.1631 375.801 67.1631 375.223L67.0371 374.117C66.2998 374.63 65.6371 374.887 65.0491 374.887ZM65.3151 368.853C64.6525 368.853 64.1345 369.1 63.7611 369.595C63.3878 370.08 63.2011 370.733 63.2011 371.555C63.2011 372.367 63.3645 373.011 63.6911 373.487C64.0178 373.953 64.4751 374.187 65.0631 374.187C65.6511 374.187 66.2811 373.907 66.9531 373.347V369.427C66.3465 369.044 65.8005 368.853 65.3151 368.853ZM69.8371 374.887V374.187H71.4331V368.937H69.8371V368.237H72.1751L72.2031 369.049C72.5018 368.862 72.9218 368.675 73.4631 368.489C74.0045 368.302 74.4805 368.19 74.8911 368.153H75.0451V368.979H74.8911C74.5085 369.007 74.0325 369.1 73.4631 369.259C72.9031 369.417 72.4831 369.581 72.2031 369.749V374.187H74.4431V374.887H69.8371ZM78.7551 374.285C79.1005 374.285 79.4738 374.177 79.8751 373.963C80.2858 373.739 80.5845 373.533 80.7711 373.347V371.681C80.1551 371.634 79.5671 371.611 79.0071 371.611C78.4471 371.611 78.0271 371.732 77.7471 371.975C77.4671 372.208 77.3271 372.525 77.3271 372.927C77.3271 373.832 77.8031 374.285 78.7551 374.285ZM78.7411 375.013C78.0598 375.013 77.5231 374.84 77.1311 374.495C76.7391 374.14 76.5431 373.641 76.5431 372.997C76.5431 372.353 76.7578 371.853 77.1871 371.499C77.6165 371.135 78.1858 370.953 78.8951 370.953C79.6045 370.953 80.2298 370.981 80.7711 371.037C80.7711 370.206 80.6685 369.641 80.4631 369.343C80.2578 369.035 79.8425 368.881 79.2171 368.881C78.5918 368.881 77.8545 369.03 77.0051 369.329L76.7951 368.629C77.6631 368.311 78.4471 368.153 79.1471 368.153C80.0711 368.153 80.6965 368.358 81.0231 368.769C81.3498 369.179 81.5131 369.898 81.5131 370.925V373.865L81.6251 374.929L80.9111 374.999L80.7711 374.159C80.5565 374.345 80.2531 374.537 79.8611 374.733C79.4691 374.919 79.0958 375.013 78.7411 375.013ZM88.6951 365.591V373.725L88.8351 374.943L88.1211 375.027L87.9811 374.285C87.2811 374.77 86.6371 375.013 86.0491 375.013C85.2185 375.013 84.5698 374.705 84.1031 374.089C83.6458 373.473 83.4171 372.637 83.4171 371.583C83.4171 370.519 83.6738 369.683 84.1871 369.077C84.7005 368.461 85.4005 368.153 86.2871 368.153C86.8098 368.153 87.3651 368.279 87.9531 368.531V365.591H88.6951ZM84.2151 371.555C84.2151 372.376 84.3738 373.039 84.6911 373.543C85.0178 374.037 85.4845 374.285 86.0911 374.285C86.6978 374.285 87.3185 374.019 87.9531 373.487V369.287C87.7571 369.193 87.4865 369.105 87.1411 369.021C86.8051 368.927 86.5298 368.881 86.3151 368.881C85.6525 368.881 85.1345 369.123 84.7611 369.609C84.3971 370.085 84.2151 370.733 84.2151 371.555ZM97.7951 374.565L97.9771 373.837C98.9011 374.145 99.6151 374.299 100.119 374.299C100.623 374.299 101.01 374.191 101.281 373.977C101.561 373.753 101.701 373.459 101.701 373.095C101.701 372.731 101.589 372.465 101.365 372.297C101.15 372.119 100.698 371.951 100.007 371.793C99.3165 371.634 98.7985 371.405 98.4531 371.107C98.1078 370.827 97.9351 370.407 97.9351 369.847C97.9351 369.287 98.1451 368.862 98.5651 368.573C98.9945 368.274 99.5451 368.125 100.217 368.125C100.889 368.125 101.617 368.274 102.401 368.573L102.205 369.231C101.412 368.969 100.772 368.839 100.287 368.839C99.8018 368.839 99.4191 368.923 99.1391 369.091C98.8591 369.277 98.7191 369.529 98.7191 369.847C98.7191 370.164 98.8405 370.411 99.0831 370.589C99.3351 370.766 99.8158 370.943 100.525 371.121C101.234 371.298 101.738 371.527 102.037 371.807C102.336 372.077 102.485 372.507 102.485 373.095C102.485 373.683 102.284 374.149 101.883 374.495C101.491 374.84 100.931 375.013 100.203 375.013C99.4751 375.013 98.6725 374.863 97.7951 374.565ZM109.415 368.461L109.247 369.189C108.668 368.983 108.132 368.881 107.637 368.881C106.965 368.881 106.461 369.119 106.125 369.595C105.798 370.061 105.635 370.715 105.635 371.555C105.635 372.395 105.803 373.062 106.139 373.557C106.475 374.042 106.974 374.285 107.637 374.285C108.085 374.285 108.645 374.163 109.317 373.921L109.541 374.621C108.86 374.882 108.23 375.013 107.651 375.013C106.736 375.013 106.036 374.709 105.551 374.103C105.066 373.487 104.823 372.633 104.823 371.541C104.823 370.449 105.061 369.613 105.537 369.035C106.013 368.447 106.713 368.153 107.637 368.153C108.225 368.153 108.818 368.255 109.415 368.461ZM112.537 369.455V374.887H111.795V365.591H112.537V368.741C113.414 368.349 114.138 368.153 114.707 368.153C116.042 368.153 116.709 368.918 116.709 370.449V374.887H115.967V370.449C115.967 369.973 115.864 369.595 115.659 369.315C115.454 369.025 115.099 368.881 114.595 368.881C114.091 368.881 113.405 369.072 112.537 369.455ZM118.529 371.583C118.529 369.296 119.42 368.153 121.203 368.153C122.986 368.153 123.877 369.296 123.877 371.583C123.877 373.869 122.986 375.013 121.203 375.013C119.42 375.013 118.529 373.869 118.529 371.583ZM121.203 368.881C119.952 368.881 119.327 369.781 119.327 371.583C119.327 373.384 119.952 374.285 121.203 374.285C122.454 374.285 123.079 373.384 123.079 371.583C123.079 369.781 122.454 368.881 121.203 368.881ZM125.529 371.583C125.529 369.296 126.42 368.153 128.203 368.153C129.986 368.153 130.877 369.296 130.877 371.583C130.877 373.869 129.986 375.013 128.203 375.013C126.42 375.013 125.529 373.869 125.529 371.583ZM128.203 368.881C126.952 368.881 126.327 369.781 126.327 371.583C126.327 373.384 126.952 374.285 128.203 374.285C129.454 374.285 130.079 373.384 130.079 371.583C130.079 369.781 129.454 368.881 128.203 368.881ZM133.033 374.887V374.187H135.175V366.263L133.089 366.277L133.075 365.591L135.917 365.577V374.187H138.129V374.887H133.033ZM151.415 368.461L151.247 369.189C150.668 368.983 150.132 368.881 149.637 368.881C148.965 368.881 148.461 369.119 148.125 369.595C147.798 370.061 147.635 370.715 147.635 371.555C147.635 372.395 147.803 373.062 148.139 373.557C148.475 374.042 148.974 374.285 149.637 374.285C150.085 374.285 150.645 374.163 151.317 373.921L151.541 374.621C150.86 374.882 150.23 375.013 149.651 375.013C148.736 375.013 148.036 374.709 147.551 374.103C147.066 373.487 146.823 372.633 146.823 371.541C146.823 370.449 147.061 369.613 147.537 369.035C148.013 368.447 148.713 368.153 149.637 368.153C150.225 368.153 150.818 368.255 151.415 368.461ZM154.033 374.887V374.187H156.175V366.263L154.089 366.277L154.075 365.591L156.917 365.577V374.187H159.129V374.887H154.033ZM162.755 374.285C163.1 374.285 163.474 374.177 163.875 373.963C164.286 373.739 164.584 373.533 164.771 373.347V371.681C164.155 371.634 163.567 371.611 163.007 371.611C162.447 371.611 162.027 371.732 161.747 371.975C161.467 372.208 161.327 372.525 161.327 372.927C161.327 373.832 161.803 374.285 162.755 374.285ZM162.741 375.013C162.06 375.013 161.523 374.84 161.131 374.495C160.739 374.14 160.543 373.641 160.543 372.997C160.543 372.353 160.758 371.853 161.187 371.499C161.616 371.135 162.186 370.953 162.895 370.953C163.604 370.953 164.23 370.981 164.771 371.037C164.771 370.206 164.668 369.641 164.463 369.343C164.258 369.035 163.842 368.881 163.217 368.881C162.592 368.881 161.854 369.03 161.005 369.329L160.795 368.629C161.663 368.311 162.447 368.153 163.147 368.153C164.071 368.153 164.696 368.358 165.023 368.769C165.35 369.179 165.513 369.898 165.513 370.925V373.865L165.625 374.929L164.911 374.999L164.771 374.159C164.556 374.345 164.253 374.537 163.861 374.733C163.469 374.919 163.096 375.013 162.741 375.013ZM167.795 374.565L167.977 373.837C168.901 374.145 169.615 374.299 170.119 374.299C170.623 374.299 171.01 374.191 171.281 373.977C171.561 373.753 171.701 373.459 171.701 373.095C171.701 372.731 171.589 372.465 171.365 372.297C171.15 372.119 170.698 371.951 170.007 371.793C169.316 371.634 168.798 371.405 168.453 371.107C168.108 370.827 167.935 370.407 167.935 369.847C167.935 369.287 168.145 368.862 168.565 368.573C168.994 368.274 169.545 368.125 170.217 368.125C170.889 368.125 171.617 368.274 172.401 368.573L172.205 369.231C171.412 368.969 170.772 368.839 170.287 368.839C169.802 368.839 169.419 368.923 169.139 369.091C168.859 369.277 168.719 369.529 168.719 369.847C168.719 370.164 168.84 370.411 169.083 370.589C169.335 370.766 169.816 370.943 170.525 371.121C171.234 371.298 171.738 371.527 172.037 371.807C172.336 372.077 172.485 372.507 172.485 373.095C172.485 373.683 172.284 374.149 171.883 374.495C171.491 374.84 170.931 375.013 170.203 375.013C169.475 375.013 168.672 374.863 167.795 374.565ZM174.795 374.565L174.977 373.837C175.901 374.145 176.615 374.299 177.119 374.299C177.623 374.299 178.01 374.191 178.281 373.977C178.561 373.753 178.701 373.459 178.701 373.095C178.701 372.731 178.589 372.465 178.365 372.297C178.15 372.119 177.698 371.951 177.007 371.793C176.316 371.634 175.798 371.405 175.453 371.107C175.108 370.827 174.935 370.407 174.935 369.847C174.935 369.287 175.145 368.862 175.565 368.573C175.994 368.274 176.545 368.125 177.217 368.125C177.889 368.125 178.617 368.274 179.401 368.573L179.205 369.231C178.412 368.969 177.772 368.839 177.287 368.839C176.802 368.839 176.419 368.923 176.139 369.091C175.859 369.277 175.719 369.529 175.719 369.847C175.719 370.164 175.84 370.411 176.083 370.589C176.335 370.766 176.816 370.943 177.525 371.121C178.234 371.298 178.738 371.527 179.037 371.807C179.336 372.077 179.485 372.507 179.485 373.095C179.485 373.683 179.284 374.149 178.883 374.495C178.491 374.84 177.931 375.013 177.203 375.013C176.475 375.013 175.672 374.863 174.795 374.565ZM188.781 377.575V369.441L188.655 368.223L189.355 368.139L189.481 368.895C190.162 368.4 190.811 368.153 191.427 368.153C192.258 368.153 192.902 368.456 193.359 369.063C193.816 369.669 194.045 370.505 194.045 371.569C194.045 372.633 193.793 373.473 193.289 374.089C192.785 374.705 192.085 375.013 191.189 375.013C190.666 375.013 190.111 374.887 189.523 374.635V377.575H188.781ZM193.247 371.597C193.247 370.766 193.088 370.108 192.771 369.623C192.454 369.128 191.996 368.881 191.399 368.881C190.811 368.881 190.186 369.147 189.523 369.679V373.879C189.719 373.972 189.985 374.065 190.321 374.159C190.666 374.243 190.946 374.285 191.161 374.285C191.824 374.285 192.337 374.042 192.701 373.557C193.065 373.071 193.247 372.418 193.247 371.597ZM195.837 374.887V374.187H197.433V368.937H195.837V368.237H198.175L198.203 369.049C198.502 368.862 198.922 368.675 199.463 368.489C200.004 368.302 200.48 368.19 200.891 368.153H201.045V368.979H200.891C200.508 369.007 200.032 369.1 199.463 369.259C198.903 369.417 198.483 369.581 198.203 369.749V374.187H200.443V374.887H195.837ZM202.529 371.583C202.529 369.296 203.42 368.153 205.203 368.153C206.986 368.153 207.877 369.296 207.877 371.583C207.877 373.869 206.986 375.013 205.203 375.013C203.42 375.013 202.529 373.869 202.529 371.583ZM205.203 368.881C203.952 368.881 203.327 369.781 203.327 371.583C203.327 373.384 203.952 374.285 205.203 374.285C206.454 374.285 207.079 373.384 207.079 371.583C207.079 369.781 206.454 368.881 205.203 368.881ZM209.991 368.923V368.237H213.631V375.027C213.631 375.699 213.444 376.231 213.071 376.623C212.791 376.921 212.24 377.155 211.419 377.323C211.12 377.379 210.714 377.444 210.201 377.519L210.117 376.791C210.948 376.669 211.517 376.553 211.825 376.441C212.133 376.338 212.348 376.231 212.469 376.119C212.749 375.848 212.889 375.484 212.889 375.027V368.923H209.991ZM212.511 366.263C212.511 365.861 212.716 365.661 213.127 365.661C213.519 365.661 213.715 365.871 213.715 366.291C213.715 366.701 213.519 366.907 213.127 366.907C212.931 366.907 212.777 366.851 212.665 366.739C212.562 366.617 212.511 366.459 212.511 366.263ZM216.641 371.569C216.641 370.495 216.86 369.66 217.299 369.063C217.747 368.456 218.396 368.153 219.245 368.153C220.094 368.153 220.724 368.433 221.135 368.993C221.555 369.553 221.765 370.299 221.765 371.233L221.723 371.933H217.439C217.486 372.633 217.672 373.202 217.999 373.641C218.326 374.07 218.774 374.285 219.343 374.285C219.922 374.285 220.598 374.149 221.373 373.879L221.583 374.579C220.827 374.868 220.118 375.013 219.455 375.013C218.54 375.013 217.84 374.709 217.355 374.103C216.879 373.487 216.641 372.642 216.641 371.569ZM219.301 368.867C218.125 368.867 217.504 369.655 217.439 371.233H220.967C220.967 369.655 220.412 368.867 219.301 368.867ZM228.415 368.461L228.247 369.189C227.668 368.983 227.132 368.881 226.637 368.881C225.965 368.881 225.461 369.119 225.125 369.595C224.798 370.061 224.635 370.715 224.635 371.555C224.635 372.395 224.803 373.062 225.139 373.557C225.475 374.042 225.974 374.285 226.637 374.285C227.085 374.285 227.645 374.163 228.317 373.921L228.541 374.621C227.86 374.882 227.23 375.013 226.651 375.013C225.736 375.013 225.036 374.709 224.551 374.103C224.066 373.487 223.823 372.633 223.823 371.541C223.823 370.449 224.061 369.613 224.537 369.035C225.013 368.447 225.713 368.153 226.637 368.153C227.225 368.153 227.818 368.255 228.415 368.461ZM230.487 369.119V368.419H231.845V366.725L232.587 366.585V368.419H235.793V369.119H232.587V372.311C232.587 373.02 232.69 373.533 232.895 373.851C233.11 374.159 233.488 374.313 234.029 374.313C234.234 374.313 234.552 374.28 234.981 374.215C235.41 374.14 235.704 374.075 235.863 374.019L236.031 374.705C235.854 374.77 235.527 374.84 235.051 374.915C234.584 374.989 234.244 375.027 234.029 375.027C233.189 375.027 232.615 374.807 232.307 374.369C231.999 373.921 231.845 373.244 231.845 372.339V369.119H230.487ZM55.4871 383.119V382.419H56.8451V380.725L57.5871 380.585V382.419H60.7931V383.119H57.5871V386.311C57.5871 387.02 57.6898 387.533 57.8951 387.851C58.1098 388.159 58.4878 388.313 59.0291 388.313C59.2345 388.313 59.5518 388.28 59.9811 388.215C60.4105 388.14 60.7045 388.075 60.8631 388.019L61.0311 388.705C60.8538 388.77 60.5271 388.84 60.0511 388.915C59.5845 388.989 59.2438 389.027 59.0291 389.027C58.1891 389.027 57.6151 388.807 57.3071 388.369C56.9991 387.921 56.8451 387.244 56.8451 386.339V383.119H55.4871ZM66.9391 388.887L66.9111 388.313C66.0151 388.779 65.2685 389.013 64.6711 389.013C64.0738 389.013 63.6025 388.807 63.2571 388.397C62.9118 387.986 62.7391 387.426 62.7391 386.717V382.237H63.4811V386.717C63.4811 387.174 63.5885 387.552 63.8031 387.851C64.0271 388.14 64.3631 388.285 64.8111 388.285C65.2591 388.285 65.9591 388.051 66.9111 387.585V382.237H67.6531V388.887H66.9391ZM69.8371 388.887V388.187H71.4331V382.937H69.8371V382.237H72.1751L72.2031 383.049C72.5018 382.862 72.9218 382.675 73.4631 382.489C74.0045 382.302 74.4805 382.19 74.8911 382.153H75.0451V382.979H74.8911C74.5085 383.007 74.0325 383.1 73.4631 383.259C72.9031 383.417 72.4831 383.581 72.2031 383.749V388.187H74.4431V388.887H69.8371ZM77.4811 382.237L77.5091 382.797C78.4145 382.367 79.1658 382.153 79.7631 382.153C80.3605 382.153 80.8271 382.358 81.1631 382.769C81.5085 383.179 81.6811 383.739 81.6811 384.449V388.887H80.9391V384.449C80.9391 383.991 80.8271 383.613 80.6031 383.315C80.3791 383.025 80.0431 382.881 79.5951 382.881C79.1471 382.881 78.4518 383.086 77.5091 383.497V388.887H76.7671V382.237H77.4811ZM83.6411 385.569C83.6411 384.495 83.8605 383.66 84.2991 383.063C84.7471 382.456 85.3958 382.153 86.2451 382.153C87.0945 382.153 87.7245 382.433 88.1351 382.993C88.5551 383.553 88.7651 384.299 88.7651 385.233L88.7231 385.933H84.4391C84.4858 386.633 84.6725 387.202 84.9991 387.641C85.3258 388.07 85.7738 388.285 86.3431 388.285C86.9218 388.285 87.5985 388.149 88.3731 387.879L88.5831 388.579C87.8271 388.868 87.1178 389.013 86.4551 389.013C85.5405 389.013 84.8405 388.709 84.3551 388.103C83.8791 387.487 83.6411 386.642 83.6411 385.569ZM86.3011 382.867C85.1251 382.867 84.5045 383.655 84.4391 385.233H87.9671C87.9671 383.655 87.4118 382.867 86.3011 382.867ZM95.6951 379.591V387.725L95.8351 388.943L95.1211 389.027L94.9811 388.285C94.2811 388.77 93.6371 389.013 93.0491 389.013C92.2185 389.013 91.5698 388.705 91.1031 388.089C90.6458 387.473 90.4171 386.637 90.4171 385.583C90.4171 384.519 90.6738 383.683 91.1871 383.077C91.7005 382.461 92.4005 382.153 93.2871 382.153C93.8098 382.153 94.3651 382.279 94.9531 382.531V379.591H95.6951ZM91.2151 385.555C91.2151 386.376 91.3738 387.039 91.6911 387.543C92.0178 388.037 92.4845 388.285 93.0911 388.285C93.6978 388.285 94.3185 388.019 94.9531 387.487V383.287C94.7571 383.193 94.4865 383.105 94.1411 383.021C93.8051 382.927 93.5298 382.881 93.3151 382.881C92.6525 382.881 92.1345 383.123 91.7611 383.609C91.3971 384.085 91.2151 384.733 91.2151 385.555ZM104.781 391.575V383.441L104.655 382.223L105.355 382.139L105.481 382.895C106.162 382.4 106.811 382.153 107.427 382.153C108.258 382.153 108.902 382.456 109.359 383.063C109.816 383.669 110.045 384.505 110.045 385.569C110.045 386.633 109.793 387.473 109.289 388.089C108.785 388.705 108.085 389.013 107.189 389.013C106.666 389.013 106.111 388.887 105.523 388.635V391.575H104.781ZM109.247 385.597C109.247 384.766 109.088 384.108 108.771 383.623C108.454 383.128 107.996 382.881 107.399 382.881C106.811 382.881 106.186 383.147 105.523 383.679V387.879C105.719 387.972 105.985 388.065 106.321 388.159C106.666 388.243 106.946 388.285 107.161 388.285C107.824 388.285 108.337 388.042 108.701 387.557C109.065 387.071 109.247 386.418 109.247 385.597ZM115.939 388.887L115.911 388.313C115.015 388.779 114.268 389.013 113.671 389.013C113.074 389.013 112.602 388.807 112.257 388.397C111.912 387.986 111.739 387.426 111.739 386.717V382.237H112.481V386.717C112.481 387.174 112.588 387.552 112.803 387.851C113.027 388.14 113.363 388.285 113.811 388.285C114.259 388.285 114.959 388.051 115.911 387.585V382.237H116.653V388.887H115.939ZM118.781 388.887V379.591H119.523V382.881C120.223 382.395 120.858 382.153 121.427 382.153C122.267 382.153 122.916 382.442 123.373 383.021C123.83 383.59 124.059 384.407 124.059 385.471C124.059 386.535 123.802 387.393 123.289 388.047C122.776 388.691 122.076 389.013 121.189 389.013C120.648 389.013 120.088 388.877 119.509 388.607L119.481 388.887H118.781ZM123.261 385.485C123.261 384.663 123.098 384.024 122.771 383.567C122.454 383.109 121.992 382.881 121.385 382.881C120.778 382.881 120.158 383.147 119.523 383.679V387.879C119.719 387.972 119.985 388.065 120.321 388.159C120.666 388.243 120.946 388.285 121.161 388.285C121.814 388.285 122.328 388.023 122.701 387.501C123.074 386.978 123.261 386.306 123.261 385.485ZM126.033 388.887V388.187H128.175V380.263L126.089 380.277L126.075 379.591L128.917 379.577V388.187H131.129V388.887H126.033ZM132.865 388.887V388.187H134.909V382.937H132.865V382.237H135.651V388.187H137.695V388.887H132.865ZM134.615 380.263C134.615 380.076 134.666 379.931 134.769 379.829C134.881 379.726 135.03 379.675 135.217 379.675C135.6 379.675 135.791 379.88 135.791 380.291C135.791 380.701 135.6 380.902 135.217 380.893C134.816 380.893 134.615 380.683 134.615 380.263ZM144.415 382.461L144.247 383.189C143.668 382.983 143.132 382.881 142.637 382.881C141.965 382.881 141.461 383.119 141.125 383.595C140.798 384.061 140.635 384.715 140.635 385.555C140.635 386.395 140.803 387.062 141.139 387.557C141.475 388.042 141.974 388.285 142.637 388.285C143.085 388.285 143.645 388.163 144.317 387.921L144.541 388.621C143.86 388.882 143.23 389.013 142.651 389.013C141.736 389.013 141.036 388.709 140.551 388.103C140.066 387.487 139.823 386.633 139.823 385.541C139.823 384.449 140.061 383.613 140.537 383.035C141.013 382.447 141.713 382.153 142.637 382.153C143.225 382.153 143.818 382.255 144.415 382.461ZM155.755 388.285C156.1 388.285 156.474 388.177 156.875 387.963C157.286 387.739 157.584 387.533 157.771 387.347V385.681C157.155 385.634 156.567 385.611 156.007 385.611C155.447 385.611 155.027 385.732 154.747 385.975C154.467 386.208 154.327 386.525 154.327 386.927C154.327 387.832 154.803 388.285 155.755 388.285ZM155.741 389.013C155.06 389.013 154.523 388.84 154.131 388.495C153.739 388.14 153.543 387.641 153.543 386.997C153.543 386.353 153.758 385.853 154.187 385.499C154.616 385.135 155.186 384.953 155.895 384.953C156.604 384.953 157.23 384.981 157.771 385.037C157.771 384.206 157.668 383.641 157.463 383.343C157.258 383.035 156.842 382.881 156.217 382.881C155.592 382.881 154.854 383.03 154.005 383.329L153.795 382.629C154.663 382.311 155.447 382.153 156.147 382.153C157.071 382.153 157.696 382.358 158.023 382.769C158.35 383.179 158.513 383.898 158.513 384.925V387.865L158.625 388.929L157.911 388.999L157.771 388.159C157.556 388.345 157.253 388.537 156.861 388.733C156.469 388.919 156.096 389.013 155.741 389.013ZM160.837 388.887V388.187H162.433V382.937H160.837V382.237H163.175L163.203 383.049C163.502 382.862 163.922 382.675 164.463 382.489C165.004 382.302 165.48 382.19 165.891 382.153H166.045V382.979H165.891C165.508 383.007 165.032 383.1 164.463 383.259C163.903 383.417 163.483 383.581 163.203 383.749V388.187H165.443V388.887H160.837ZM167.487 383.119V382.419H168.845V380.725L169.587 380.585V382.419H172.793V383.119H169.587V386.311C169.587 387.02 169.69 387.533 169.895 387.851C170.11 388.159 170.488 388.313 171.029 388.313C171.234 388.313 171.552 388.28 171.981 388.215C172.41 388.14 172.704 388.075 172.863 388.019L173.031 388.705C172.854 388.77 172.527 388.84 172.051 388.915C171.584 388.989 171.244 389.027 171.029 389.027C170.189 389.027 169.615 388.807 169.307 388.369C168.999 387.921 168.845 387.244 168.845 386.339V383.119H167.487ZM181.865 388.887V388.187H183.909V382.937H181.865V382.237H184.651V388.187H186.695V388.887H181.865ZM183.615 380.263C183.615 380.076 183.666 379.931 183.769 379.829C183.881 379.726 184.03 379.675 184.217 379.675C184.6 379.675 184.791 379.88 184.791 380.291C184.791 380.701 184.6 380.902 184.217 380.893C183.816 380.893 183.615 380.683 183.615 380.263ZM189.481 382.237L189.509 382.797C190.414 382.367 191.166 382.153 191.763 382.153C192.36 382.153 192.827 382.358 193.163 382.769C193.508 383.179 193.681 383.739 193.681 384.449V388.887H192.939V384.449C192.939 383.991 192.827 383.613 192.603 383.315C192.379 383.025 192.043 382.881 191.595 382.881C191.147 382.881 190.452 383.086 189.509 383.497V388.887H188.767V382.237H189.481ZM195.795 388.565L195.977 387.837C196.901 388.145 197.615 388.299 198.119 388.299C198.623 388.299 199.01 388.191 199.281 387.977C199.561 387.753 199.701 387.459 199.701 387.095C199.701 386.731 199.589 386.465 199.365 386.297C199.15 386.119 198.698 385.951 198.007 385.793C197.316 385.634 196.798 385.405 196.453 385.107C196.108 384.827 195.935 384.407 195.935 383.847C195.935 383.287 196.145 382.862 196.565 382.573C196.994 382.274 197.545 382.125 198.217 382.125C198.889 382.125 199.617 382.274 200.401 382.573L200.205 383.231C199.412 382.969 198.772 382.839 198.287 382.839C197.802 382.839 197.419 382.923 197.139 383.091C196.859 383.277 196.719 383.529 196.719 383.847C196.719 384.164 196.84 384.411 197.083 384.589C197.335 384.766 197.816 384.943 198.525 385.121C199.234 385.298 199.738 385.527 200.037 385.807C200.336 386.077 200.485 386.507 200.485 387.095C200.485 387.683 200.284 388.149 199.883 388.495C199.491 388.84 198.931 389.013 198.203 389.013C197.475 389.013 196.672 388.863 195.795 388.565ZM202.487 383.119V382.419H203.845V380.725L204.587 380.585V382.419H207.793V383.119H204.587V386.311C204.587 387.02 204.69 387.533 204.895 387.851C205.11 388.159 205.488 388.313 206.029 388.313C206.234 388.313 206.552 388.28 206.981 388.215C207.41 388.14 207.704 388.075 207.863 388.019L208.031 388.705C207.854 388.77 207.527 388.84 207.051 388.915C206.584 388.989 206.244 389.027 206.029 389.027C205.189 389.027 204.615 388.807 204.307 388.369C203.999 387.921 203.845 387.244 203.845 386.339V383.119H202.487ZM211.755 388.285C212.1 388.285 212.474 388.177 212.875 387.963C213.286 387.739 213.584 387.533 213.771 387.347V385.681C213.155 385.634 212.567 385.611 212.007 385.611C211.447 385.611 211.027 385.732 210.747 385.975C210.467 386.208 210.327 386.525 210.327 386.927C210.327 387.832 210.803 388.285 211.755 388.285ZM211.741 389.013C211.06 389.013 210.523 388.84 210.131 388.495C209.739 388.14 209.543 387.641 209.543 386.997C209.543 386.353 209.758 385.853 210.187 385.499C210.616 385.135 211.186 384.953 211.895 384.953C212.604 384.953 213.23 384.981 213.771 385.037C213.771 384.206 213.668 383.641 213.463 383.343C213.258 383.035 212.842 382.881 212.217 382.881C211.592 382.881 210.854 383.03 210.005 383.329L209.795 382.629C210.663 382.311 211.447 382.153 212.147 382.153C213.071 382.153 213.696 382.358 214.023 382.769C214.35 383.179 214.513 383.898 214.513 384.925V387.865L214.625 388.929L213.911 388.999L213.771 388.159C213.556 388.345 213.253 388.537 212.861 388.733C212.469 388.919 212.096 389.013 211.741 389.013ZM217.033 388.887V388.187H219.175V380.263L217.089 380.277L217.075 379.591L219.917 379.577V388.187H222.129V388.887H217.033ZM224.033 388.887V388.187H226.175V380.263L224.089 380.277L224.075 379.591L226.917 379.577V388.187H229.129V388.887H224.033ZM232.755 388.285C233.1 388.285 233.474 388.177 233.875 387.963C234.286 387.739 234.584 387.533 234.771 387.347V385.681C234.155 385.634 233.567 385.611 233.007 385.611C232.447 385.611 232.027 385.732 231.747 385.975C231.467 386.208 231.327 386.525 231.327 386.927C231.327 387.832 231.803 388.285 232.755 388.285ZM232.741 389.013C232.06 389.013 231.523 388.84 231.131 388.495C230.739 388.14 230.543 387.641 230.543 386.997C230.543 386.353 230.758 385.853 231.187 385.499C231.616 385.135 232.186 384.953 232.895 384.953C233.604 384.953 234.23 384.981 234.771 385.037C234.771 384.206 234.668 383.641 234.463 383.343C234.258 383.035 233.842 382.881 233.217 382.881C232.592 382.881 231.854 383.03 231.005 383.329L230.795 382.629C231.663 382.311 232.447 382.153 233.147 382.153C234.071 382.153 234.696 382.358 235.023 382.769C235.35 383.179 235.513 383.898 235.513 384.925V387.865L235.625 388.929L234.911 388.999L234.771 388.159C234.556 388.345 234.253 388.537 233.861 388.733C233.469 388.919 233.096 389.013 232.741 389.013ZM237.487 383.119V382.419H238.845V380.725L239.587 380.585V382.419H242.793V383.119H239.587V386.311C239.587 387.02 239.69 387.533 239.895 387.851C240.11 388.159 240.488 388.313 241.029 388.313C241.234 388.313 241.552 388.28 241.981 388.215C242.41 388.14 242.704 388.075 242.863 388.019L243.031 388.705C242.854 388.77 242.527 388.84 242.051 388.915C241.584 388.989 241.244 389.027 241.029 389.027C240.189 389.027 239.615 388.807 239.307 388.369C238.999 387.921 238.845 387.244 238.845 386.339V383.119H237.487ZM244.865 388.887V388.187H246.909V382.937H244.865V382.237H247.651V388.187H249.695V388.887H244.865ZM246.615 380.263C246.615 380.076 246.666 379.931 246.769 379.829C246.881 379.726 247.03 379.675 247.217 379.675C247.6 379.675 247.791 379.88 247.791 380.291C247.791 380.701 247.6 380.902 247.217 380.893C246.816 380.893 246.615 380.683 246.615 380.263ZM251.529 385.583C251.529 383.296 252.42 382.153 254.203 382.153C255.986 382.153 256.877 383.296 256.877 385.583C256.877 387.869 255.986 389.013 254.203 389.013C252.42 389.013 251.529 387.869 251.529 385.583ZM254.203 382.881C252.952 382.881 252.327 383.781 252.327 385.583C252.327 387.384 252.952 388.285 254.203 388.285C255.454 388.285 256.079 387.384 256.079 385.583C256.079 383.781 255.454 382.881 254.203 382.881ZM259.481 382.237L259.509 382.797C260.414 382.367 261.166 382.153 261.763 382.153C262.36 382.153 262.827 382.358 263.163 382.769C263.508 383.179 263.681 383.739 263.681 384.449V388.887H262.939V384.449C262.939 383.991 262.827 383.613 262.603 383.315C262.379 383.025 262.043 382.881 261.595 382.881C261.147 382.881 260.452 383.086 259.509 383.497V388.887H258.767V382.237H259.481Z" fill="black"/>
<path d="M105.581 320.695C105.149 320.695 104.681 320.875 104.177 321.235V332.935C104.801 332.935 105.497 332.743 106.265 332.359C107.033 331.951 107.417 331.531 107.417 331.099V323.359C107.417 321.583 106.805 320.695 105.581 320.695ZM99.8566 341.215V322.567C99.8566 321.103 99.3646 320.275 98.3806 320.083V319.291L102.017 317.239C102.497 317.431 102.977 317.779 103.457 318.283C103.937 318.787 104.177 319.243 104.177 319.651C106.817 318.043 108.329 317.239 108.713 317.239C109.097 317.239 109.697 317.731 110.513 318.715C111.353 319.699 111.773 320.587 111.773 321.379V331.495C111.773 331.687 110.465 332.299 107.849 333.331C108.953 337.051 110.249 339.559 111.737 340.855C112.409 341.407 113.093 341.683 113.789 341.683V342.763C111.557 344.179 110.141 344.887 109.541 344.887C108.749 344.887 107.741 343.399 106.517 340.423C105.317 337.447 104.669 335.479 104.573 334.519L104.177 334.627V339.343C104.177 340.231 104.273 340.867 104.465 341.251C104.657 341.635 105.053 341.827 105.653 341.827V342.943L98.2726 346.039L97.6966 344.887C98.2246 344.887 98.7286 344.575 99.2086 343.951C99.6406 343.351 99.8566 342.439 99.8566 341.215ZM119.716 326.815V339.559C119.716 341.023 120.208 341.851 121.192 342.043V342.835L117.556 344.887C117.028 344.671 116.536 344.323 116.08 343.843C115.624 343.339 115.396 342.871 115.396 342.439V329.695C115.396 328.231 114.904 327.403 113.92 327.211V326.419L117.556 324.367C118.084 324.583 118.576 324.943 119.032 325.447C119.488 325.927 119.716 326.383 119.716 326.815ZM114.856 319.867V317.671C114.856 317.599 115.348 317.383 116.332 317.023C117.34 316.639 117.916 316.447 118.06 316.447C118.228 316.447 118.456 316.651 118.744 317.059C119.056 317.467 119.212 317.887 119.212 318.319V320.947C119.212 321.019 118.732 321.247 117.772 321.631C116.812 321.991 116.224 322.171 116.008 322.171C115.792 322.171 115.54 321.967 115.252 321.559C114.988 321.127 114.856 320.563 114.856 319.867ZM123.306 340.819V329.695C123.306 328.231 122.814 327.403 121.83 327.211V326.419L125.466 324.367C125.994 324.583 126.486 324.943 126.942 325.447C127.398 325.927 127.626 326.383 127.626 326.815V341.071C127.626 342.943 127.518 344.683 127.302 346.291C127.086 347.923 126.822 349.171 126.51 350.035C126.198 350.923 125.874 351.367 125.538 351.367C124.938 351.367 124.158 351.187 123.198 350.827C122.262 350.467 121.47 350.107 120.822 349.747L119.85 349.207V348.127H121.074C121.914 348.127 122.49 347.575 122.802 346.471C123.138 345.367 123.306 343.483 123.306 340.819ZM122.766 320.659V318.463C122.766 318.391 123.258 318.175 124.242 317.815C125.25 317.431 125.826 317.239 125.97 317.239C126.138 317.239 126.366 317.443 126.654 317.851C126.966 318.259 127.122 318.679 127.122 319.111V321.739C127.122 321.811 126.642 322.039 125.682 322.423C124.722 322.783 124.134 322.963 123.918 322.963C123.702 322.963 123.45 322.759 123.162 322.351C122.898 321.919 122.766 321.355 122.766 320.659ZM135.536 339.559C135.536 341.023 136.028 341.851 137.012 342.043V342.835L133.376 344.887C132.848 344.671 132.356 344.323 131.9 343.843C131.444 343.339 131.216 342.871 131.216 342.439V324.619C131.216 323.971 131.108 323.515 130.892 323.251C130.676 322.963 130.304 322.819 129.776 322.819V321.811C132.896 320.179 135.68 318.643 138.128 317.203L138.704 318.355C138.464 318.475 138.128 318.715 137.696 319.075C137.264 319.411 136.904 319.759 136.616 320.119C135.896 321.031 135.536 322.063 135.536 323.215V326.527C137.768 325.087 139.088 324.367 139.496 324.367C140.168 324.367 140.912 324.811 141.728 325.699C142.544 326.563 142.952 327.535 142.952 328.615V332.539C142.952 332.803 141.704 333.415 139.208 334.375C140.72 338.383 142.196 340.687 143.636 341.287C144.092 341.503 144.596 341.635 145.148 341.683V342.727C142.916 344.167 141.512 344.887 140.936 344.887C140.168 344.887 139.184 343.723 137.984 341.395C136.808 339.043 135.992 337.087 135.536 335.527V339.559ZM135.536 333.763C136.016 333.763 136.88 333.463 138.128 332.863L138.776 332.539V330.919C138.776 328.879 138.08 327.859 136.688 327.859L135.536 328.039V333.763ZM148.341 337.003C147.741 337.003 147.225 336.547 146.793 335.635C146.361 334.723 146.145 333.607 146.145 332.287V328.399C146.145 327.943 147.405 327.163 149.925 326.059C152.445 324.931 153.897 324.367 154.281 324.367C154.497 324.367 154.689 324.499 154.857 324.763C155.025 325.003 155.157 325.207 155.253 325.375C155.349 325.519 155.493 325.783 155.685 326.167C155.901 326.527 156.081 326.827 156.225 327.067C156.537 327.643 156.933 327.931 157.413 327.931V328.651C157.029 328.819 156.525 329.071 155.901 329.407C154.365 330.247 153.537 330.667 153.417 330.667C153.057 330.667 152.661 330.079 152.229 328.903C151.821 327.727 151.449 327.139 151.113 327.139C150.681 327.139 150.465 327.499 150.465 328.219V332.647C150.465 333.607 150.681 334.087 151.113 334.087C151.209 334.087 151.953 333.775 153.345 333.151C154.737 332.527 155.577 332.215 155.865 332.215C156.441 332.215 156.945 332.683 157.377 333.619C157.833 334.531 158.061 335.707 158.061 337.147V341.215C158.061 341.671 156.681 342.463 153.921 343.591C151.185 344.695 149.613 345.247 149.205 345.247C149.037 345.247 148.869 345.103 148.701 344.815C148.557 344.503 148.341 344.035 148.053 343.411C147.789 342.787 147.525 342.259 147.261 341.827C146.949 341.251 146.553 340.963 146.073 340.963V340.243C146.457 340.075 146.973 339.823 147.621 339.487C149.133 338.647 149.949 338.227 150.069 338.227C150.429 338.227 150.873 338.935 151.401 340.351C151.953 341.767 152.397 342.475 152.733 342.475C152.973 342.475 153.201 342.379 153.417 342.187C153.633 341.995 153.741 341.731 153.741 341.395V336.895C153.741 335.815 153.441 335.275 152.841 335.275C152.649 335.275 151.893 335.563 150.573 336.139C149.253 336.715 148.509 337.003 148.341 337.003ZM161.275 342.439V330.235C161.275 329.443 161.107 328.759 160.771 328.183C160.435 327.607 160.015 327.319 159.511 327.319V326.527C159.679 326.503 160.987 325.771 163.435 324.331C163.603 324.379 163.807 324.451 164.047 324.547C164.287 324.619 164.599 324.847 164.983 325.231C165.391 325.615 165.595 326.059 165.595 326.563C165.739 326.491 166.147 326.263 166.819 325.879C168.595 324.871 169.687 324.367 170.095 324.367C170.527 324.367 170.995 324.583 171.499 325.015C172.027 325.447 172.423 325.963 172.687 326.563C172.735 326.539 173.227 326.287 174.163 325.807C176.035 324.847 177.163 324.367 177.547 324.367C178.315 324.367 179.035 324.871 179.707 325.879C180.379 326.887 180.715 327.811 180.715 328.651V339.559C180.715 340.879 181.303 341.659 182.479 341.899V342.691L178.555 344.887C178.027 344.671 177.535 344.323 177.079 343.843C176.623 343.339 176.395 342.871 176.395 342.439V331.819C176.395 330.259 176.191 329.227 175.783 328.723C175.375 328.195 174.847 327.931 174.199 327.931L173.155 328.147V339.559C173.155 340.879 173.743 341.659 174.919 341.899V342.691L170.995 344.887C170.467 344.671 169.975 344.323 169.519 343.843C169.063 343.339 168.835 342.871 168.835 342.439V331.999C168.835 329.239 168.175 327.859 166.855 327.859L165.595 328.075V339.559C165.595 341.023 166.087 341.851 167.071 342.043V342.835L163.435 344.887C162.907 344.671 162.415 344.323 161.959 343.843C161.503 343.339 161.275 342.871 161.275 342.439ZM188.622 339.271C188.622 339.895 188.802 340.411 189.162 340.819C189.546 341.203 189.966 341.395 190.422 341.395C190.878 341.395 191.358 341.215 191.862 340.855V329.659C191.862 328.195 191.37 327.367 190.386 327.175V326.383L194.022 324.331C194.55 324.547 195.042 324.907 195.498 325.411C195.954 325.891 196.182 326.347 196.182 326.779V338.983C196.182 339.775 196.35 340.459 196.686 341.035C197.022 341.611 197.442 341.899 197.946 341.899V342.691C197.778 342.715 196.47 343.447 194.022 344.887C193.47 344.647 192.966 344.299 192.51 343.843C192.078 343.363 191.862 342.907 191.862 342.475L187.362 344.887C187.29 344.839 187.182 344.779 187.038 344.707C186.894 344.611 186.642 344.431 186.282 344.167C185.946 343.879 185.646 343.579 185.382 343.267C184.662 342.475 184.302 341.575 184.302 340.567V329.659C184.302 328.339 183.714 327.559 182.538 327.319V326.527L186.462 324.331C186.99 324.547 187.482 324.907 187.938 325.411C188.394 325.891 188.622 326.347 188.622 326.779V339.271ZM201.427 337.003C200.827 337.003 200.311 336.547 199.879 335.635C199.447 334.723 199.231 333.607 199.231 332.287V328.399C199.231 327.943 200.491 327.163 203.011 326.059C205.531 324.931 206.983 324.367 207.367 324.367C207.583 324.367 207.775 324.499 207.943 324.763C208.111 325.003 208.243 325.207 208.339 325.375C208.435 325.519 208.579 325.783 208.771 326.167C208.987 326.527 209.167 326.827 209.311 327.067C209.623 327.643 210.019 327.931 210.499 327.931V328.651C210.115 328.819 209.611 329.071 208.987 329.407C207.451 330.247 206.623 330.667 206.503 330.667C206.143 330.667 205.747 330.079 205.315 328.903C204.907 327.727 204.535 327.139 204.199 327.139C203.767 327.139 203.551 327.499 203.551 328.219V332.647C203.551 333.607 203.767 334.087 204.199 334.087C204.295 334.087 205.039 333.775 206.431 333.151C207.823 332.527 208.663 332.215 208.951 332.215C209.527 332.215 210.031 332.683 210.463 333.619C210.919 334.531 211.147 335.707 211.147 337.147V341.215C211.147 341.671 209.767 342.463 207.007 343.591C204.271 344.695 202.699 345.247 202.291 345.247C202.123 345.247 201.955 345.103 201.787 344.815C201.643 344.503 201.427 344.035 201.139 343.411C200.875 342.787 200.611 342.259 200.347 341.827C200.035 341.251 199.639 340.963 199.159 340.963V340.243C199.543 340.075 200.059 339.823 200.707 339.487C202.219 338.647 203.035 338.227 203.155 338.227C203.515 338.227 203.959 338.935 204.487 340.351C205.039 341.767 205.483 342.475 205.819 342.475C206.059 342.475 206.287 342.379 206.503 342.187C206.719 341.995 206.827 341.731 206.827 341.395V336.895C206.827 335.815 206.527 335.275 205.927 335.275C205.735 335.275 204.979 335.563 203.659 336.139C202.339 336.715 201.595 337.003 201.427 337.003ZM223.181 324.367C223.301 324.367 223.601 324.559 224.081 324.943C224.561 325.303 225.041 325.819 225.521 326.491C226.001 327.139 226.241 327.775 226.241 328.399V334.447C226.241 334.879 225.605 335.407 224.333 336.031C223.061 336.655 221.825 337.171 220.625 337.579C219.449 337.963 218.813 338.155 218.717 338.155C218.717 340.003 219.521 341.143 221.129 341.575C221.921 341.767 222.869 341.863 223.973 341.863V342.907C220.037 344.227 217.937 344.887 217.673 344.887C216.953 344.887 216.221 344.383 215.477 343.375C214.733 342.343 214.361 341.143 214.361 339.775V327.679C214.361 327.511 215.729 326.923 218.465 325.915C221.201 324.883 222.773 324.367 223.181 324.367ZM221.921 330.091C221.921 329.419 221.765 328.855 221.453 328.399C221.141 327.919 220.745 327.679 220.265 327.679C219.785 327.679 219.257 327.859 218.681 328.219V336.535C220.841 335.935 221.921 334.639 221.921 332.647V330.091ZM233.974 339.271C233.974 339.895 234.154 340.411 234.514 340.819C234.898 341.203 235.318 341.395 235.774 341.395C236.23 341.395 236.71 341.215 237.214 340.855V329.659C237.214 328.195 236.722 327.367 235.738 327.175V326.383L239.374 324.331C239.902 324.547 240.394 324.907 240.85 325.411C241.306 325.891 241.534 326.347 241.534 326.779V338.983C241.534 339.775 241.702 340.459 242.038 341.035C242.374 341.611 242.794 341.899 243.298 341.899V342.691C243.13 342.715 241.822 343.447 239.374 344.887C238.822 344.647 238.318 344.299 237.862 343.843C237.43 343.363 237.214 342.907 237.214 342.475L232.714 344.887C232.642 344.839 232.534 344.779 232.39 344.707C232.246 344.611 231.994 344.431 231.634 344.167C231.298 343.879 230.998 343.579 230.734 343.267C230.014 342.475 229.654 341.575 229.654 340.567V329.659C229.654 328.339 229.066 327.559 227.89 327.319V326.527L231.814 324.331C232.342 324.547 232.834 324.907 233.29 325.411C233.746 325.891 233.974 326.347 233.974 326.779V339.271ZM245.122 342.439V330.235C245.122 329.443 244.954 328.759 244.618 328.183C244.282 327.607 243.862 327.319 243.358 327.319V326.527C243.526 326.503 244.834 325.771 247.282 324.331C247.45 324.379 247.654 324.451 247.894 324.547C248.134 324.619 248.446 324.847 248.83 325.231C249.238 325.615 249.442 326.059 249.442 326.563C249.586 326.491 249.994 326.263 250.666 325.879C252.442 324.871 253.534 324.367 253.942 324.367C254.374 324.367 254.842 324.583 255.346 325.015C255.874 325.447 256.27 325.963 256.534 326.563C256.582 326.539 257.074 326.287 258.01 325.807C259.882 324.847 261.01 324.367 261.394 324.367C262.162 324.367 262.882 324.871 263.554 325.879C264.226 326.887 264.562 327.811 264.562 328.651V339.559C264.562 340.879 265.15 341.659 266.326 341.899V342.691L262.402 344.887C261.874 344.671 261.382 344.323 260.926 343.843C260.47 343.339 260.242 342.871 260.242 342.439V331.819C260.242 330.259 260.038 329.227 259.63 328.723C259.222 328.195 258.694 327.931 258.046 327.931L257.002 328.147V339.559C257.002 340.879 257.59 341.659 258.766 341.899V342.691L254.842 344.887C254.314 344.671 253.822 344.323 253.366 343.843C252.91 343.339 252.682 342.871 252.682 342.439V331.999C252.682 329.239 252.022 327.859 250.702 327.859L249.442 328.075V339.559C249.442 341.023 249.934 341.851 250.918 342.043V342.835L247.282 344.887C246.754 344.671 246.262 344.323 245.806 343.843C245.35 343.339 245.122 342.871 245.122 342.439Z" fill="#FF00E6"/>
<path d="M171.722 306.413C171.806 306.269 171.954 306.02 172.166 305.664C172.386 305.309 172.64 304.915 172.928 304.483C173.224 304.052 173.541 303.62 173.88 303.188C174.227 302.748 174.565 302.376 174.896 302.071L175.467 302.414C175.103 303.015 174.73 303.654 174.35 304.331C173.969 305 173.592 305.694 173.22 306.413H177.358L177.104 307.073H172.877C172.496 307.835 172.136 308.592 171.798 309.346C171.468 310.099 171.176 310.818 170.922 311.504C170.668 312.189 170.469 312.833 170.325 313.434C170.181 314.026 170.109 314.542 170.109 314.982C170.109 315.533 170.236 315.93 170.49 316.176C170.744 316.413 171.057 316.531 171.43 316.531C171.76 316.531 172.098 316.434 172.445 316.239C172.792 316.036 173.131 315.782 173.461 315.478C173.799 315.173 174.117 314.839 174.413 314.475C174.718 314.111 174.984 313.768 175.213 313.446C175.45 313.125 175.645 312.845 175.797 312.608C175.949 312.363 176.042 312.211 176.076 312.151L176.546 312.507C176.25 312.998 175.915 313.518 175.543 314.068C175.171 314.618 174.756 315.131 174.299 315.604C173.85 316.07 173.359 316.459 172.826 316.772C172.293 317.077 171.717 317.229 171.1 317.229C170.719 317.229 170.384 317.162 170.097 317.026C169.817 316.891 169.58 316.705 169.386 316.468C169.191 316.222 169.047 315.935 168.954 315.604C168.853 315.274 168.802 314.915 168.802 314.525C168.802 314.271 168.844 313.912 168.929 313.446C169.005 312.981 169.14 312.431 169.335 311.796C169.53 311.153 169.788 310.433 170.109 309.638C170.439 308.842 170.854 307.987 171.354 307.073H169.246L169.5 306.413H171.722ZM177.803 311.923C178.251 311.313 178.717 310.755 179.199 310.247C179.682 309.731 180.168 309.286 180.659 308.914C181.15 308.542 181.632 308.254 182.106 308.051C182.589 307.839 183.054 307.733 183.503 307.733C183.808 307.733 184.057 307.78 184.252 307.873C184.455 307.966 184.612 308.089 184.722 308.241C184.84 308.385 184.921 308.546 184.963 308.724C185.014 308.901 185.039 309.079 185.039 309.257C185.039 309.562 184.976 309.892 184.849 310.247C184.722 310.594 184.561 310.958 184.366 311.339C184.18 311.72 183.977 312.109 183.757 312.507C183.537 312.905 183.329 313.294 183.135 313.675C182.949 314.056 182.792 314.428 182.665 314.792C182.538 315.147 182.475 315.482 182.475 315.795C182.475 315.99 182.517 316.172 182.602 316.341C182.695 316.502 182.855 316.582 183.084 316.582C183.355 316.582 183.655 316.447 183.985 316.176C184.315 315.896 184.65 315.545 184.988 315.122C185.335 314.69 185.678 314.212 186.017 313.688C186.364 313.163 186.685 312.651 186.981 312.151L187.438 312.507C187.345 312.634 187.218 312.841 187.058 313.129C186.897 313.408 186.706 313.726 186.486 314.081C186.275 314.428 186.034 314.788 185.763 315.16C185.5 315.533 185.217 315.875 184.912 316.188C184.616 316.493 184.303 316.743 183.973 316.938C183.643 317.141 183.308 317.242 182.97 317.242C182.75 317.242 182.53 317.217 182.31 317.166C182.09 317.115 181.891 317.022 181.713 316.887C181.535 316.751 181.391 316.569 181.281 316.341C181.171 316.104 181.116 315.808 181.116 315.452C181.116 315.037 181.184 314.618 181.319 314.195C181.463 313.764 181.637 313.34 181.84 312.926C182.051 312.503 182.28 312.096 182.525 311.707C182.771 311.309 182.995 310.937 183.198 310.59C183.41 310.243 183.583 309.93 183.719 309.65C183.863 309.363 183.935 309.121 183.935 308.927C183.935 308.58 183.765 308.406 183.427 308.406C182.944 308.406 182.432 308.567 181.891 308.889C181.357 309.202 180.82 309.612 180.278 310.12C179.737 310.628 179.203 311.199 178.679 311.834C178.154 312.46 177.663 313.087 177.206 313.713L175.276 317.344L174.121 316.887C175.196 314.542 176.229 312.228 177.219 309.942C178.217 307.649 179.242 305.385 180.291 303.15C180.452 302.803 180.638 302.427 180.85 302.021C181.07 301.614 181.302 301.208 181.548 300.802C181.802 300.396 182.073 300.006 182.36 299.634C182.648 299.261 182.944 298.931 183.249 298.644C183.554 298.356 183.867 298.127 184.188 297.958C184.519 297.78 184.849 297.691 185.179 297.691C185.551 297.691 185.839 297.797 186.042 298.009C186.254 298.212 186.359 298.504 186.359 298.885C186.359 299.283 186.254 299.735 186.042 300.243C185.83 300.743 185.547 301.271 185.191 301.83C184.836 302.389 184.421 302.964 183.947 303.557C183.482 304.149 182.987 304.737 182.462 305.321C181.946 305.905 181.421 306.472 180.888 307.022C180.354 307.564 179.842 308.068 179.352 308.533L177.803 311.923ZM185.242 298.364C184.861 298.364 184.51 298.512 184.188 298.809C183.875 299.096 183.533 299.575 183.16 300.243C182.788 300.912 182.36 301.784 181.878 302.858C181.396 303.933 180.807 305.254 180.113 306.819C181.044 305.914 181.857 305.038 182.551 304.191C183.253 303.337 183.837 302.558 184.303 301.855C184.768 301.153 185.115 300.544 185.344 300.027C185.581 299.503 185.699 299.113 185.699 298.859C185.699 298.707 185.657 298.589 185.572 298.504C185.488 298.411 185.378 298.364 185.242 298.364ZM187.959 313.992C187.942 314.094 187.929 314.195 187.921 314.297C187.912 314.398 187.908 314.5 187.908 314.602C187.908 314.906 187.951 315.198 188.035 315.478C188.128 315.748 188.259 315.99 188.429 316.201C188.606 316.404 188.822 316.565 189.076 316.684C189.339 316.802 189.635 316.861 189.965 316.861C191.074 316.861 192.144 316.485 193.177 315.731C194.209 314.978 195.238 313.785 196.262 312.151L196.693 312.532C196.135 313.463 195.568 314.25 194.992 314.894C194.417 315.528 193.841 316.045 193.266 316.442C192.699 316.84 192.14 317.128 191.59 317.306C191.04 317.483 190.515 317.572 190.016 317.572C189.652 317.572 189.267 317.521 188.86 317.42C188.454 317.318 188.077 317.149 187.73 316.912C187.392 316.675 187.113 316.358 186.893 315.96C186.664 315.562 186.55 315.067 186.55 314.475C186.55 313.84 186.66 313.23 186.88 312.646C187.091 312.054 187.371 311.504 187.718 310.996C188.065 310.488 188.463 310.027 188.911 309.612C189.36 309.189 189.812 308.829 190.27 308.533C190.735 308.237 191.188 308.008 191.628 307.848C192.068 307.678 192.457 307.594 192.796 307.594C193.016 307.594 193.24 307.628 193.469 307.695C193.697 307.763 193.9 307.869 194.078 308.013C194.264 308.157 194.412 308.347 194.522 308.584C194.641 308.821 194.7 309.104 194.7 309.435C194.7 309.883 194.594 310.306 194.383 310.704C194.18 311.093 193.905 311.457 193.558 311.796C193.211 312.126 192.809 312.426 192.352 312.697C191.895 312.96 191.416 313.184 190.917 313.37C190.418 313.556 189.914 313.704 189.406 313.814C188.898 313.924 188.416 313.984 187.959 313.992ZM188.061 313.446C188.628 313.387 189.161 313.269 189.66 313.091C190.16 312.913 190.617 312.697 191.031 312.443C191.446 312.181 191.814 311.897 192.136 311.593C192.466 311.288 192.741 310.979 192.961 310.666C193.181 310.353 193.35 310.052 193.469 309.765C193.587 309.477 193.646 309.219 193.646 308.99C193.646 308.762 193.583 308.58 193.456 308.444C193.338 308.309 193.194 308.241 193.024 308.241C192.652 308.241 192.233 308.377 191.768 308.647C191.302 308.91 190.837 309.278 190.371 309.752C189.906 310.217 189.465 310.768 189.051 311.402C188.645 312.037 188.314 312.718 188.061 313.446Z" fill="black"/>
<path d="M120.19 289.063C120.19 289.663 120.358 290.167 120.694 290.575C121.03 290.983 121.39 291.187 121.774 291.187C122.158 291.187 122.71 291.007 123.43 290.647V272.827C123.43 271.939 123.334 271.303 123.142 270.919C122.974 270.535 122.59 270.343 121.99 270.343V269.227L129.37 266.131L129.946 267.283C129.418 267.283 128.926 267.595 128.47 268.219C128.014 268.819 127.786 269.731 127.786 270.955V290.539C127.786 290.755 126.502 291.367 123.934 292.375C121.366 293.383 119.71 293.887 118.966 293.887C118.222 293.887 117.514 293.323 116.842 292.195C116.194 291.067 115.87 290.071 115.87 289.207V271.459C115.87 270.139 115.282 269.359 114.106 269.119V268.327L118.03 266.131C118.558 266.347 119.05 266.707 119.506 267.211C119.962 267.691 120.19 268.147 120.19 268.579V289.063ZM135.694 275.815V288.559C135.694 290.023 136.186 290.851 137.17 291.043V291.835L133.534 293.887C133.006 293.671 132.514 293.323 132.058 292.843C131.602 292.339 131.374 291.871 131.374 291.439V278.695C131.374 277.231 130.882 276.403 129.898 276.211V275.419L133.534 273.367C134.062 273.583 134.554 273.943 135.01 274.447C135.466 274.927 135.694 275.383 135.694 275.815ZM130.834 268.867V266.671C130.834 266.599 131.326 266.383 132.31 266.023C133.318 265.639 133.894 265.447 134.038 265.447C134.206 265.447 134.434 265.651 134.722 266.059C135.034 266.467 135.19 266.887 135.19 267.319V269.947C135.19 270.019 134.71 270.247 133.75 270.631C132.79 270.991 132.202 271.171 131.986 271.171C131.77 271.171 131.518 270.967 131.23 270.559C130.966 270.127 130.834 269.563 130.834 268.867ZM140.94 286.003C140.34 286.003 139.824 285.547 139.392 284.635C138.96 283.723 138.744 282.607 138.744 281.287V277.399C138.744 276.943 140.004 276.163 142.524 275.059C145.044 273.931 146.496 273.367 146.88 273.367C147.096 273.367 147.288 273.499 147.456 273.763C147.624 274.003 147.756 274.207 147.852 274.375C147.948 274.519 148.092 274.783 148.284 275.167C148.5 275.527 148.68 275.827 148.824 276.067C149.136 276.643 149.532 276.931 150.012 276.931V277.651C149.628 277.819 149.124 278.071 148.5 278.407C146.964 279.247 146.136 279.667 146.016 279.667C145.656 279.667 145.26 279.079 144.828 277.903C144.42 276.727 144.048 276.139 143.712 276.139C143.28 276.139 143.064 276.499 143.064 277.219V281.647C143.064 282.607 143.28 283.087 143.712 283.087C143.808 283.087 144.552 282.775 145.944 282.151C147.336 281.527 148.176 281.215 148.464 281.215C149.04 281.215 149.544 281.683 149.976 282.619C150.432 283.531 150.66 284.707 150.66 286.147V290.215C150.66 290.671 149.28 291.463 146.52 292.591C143.784 293.695 142.212 294.247 141.804 294.247C141.636 294.247 141.468 294.103 141.3 293.815C141.156 293.503 140.94 293.035 140.652 292.411C140.388 291.787 140.124 291.259 139.86 290.827C139.548 290.251 139.152 289.963 138.672 289.963V289.243C139.056 289.075 139.572 288.823 140.22 288.487C141.732 287.647 142.548 287.227 142.668 287.227C143.028 287.227 143.472 287.935 144 289.351C144.552 290.767 144.996 291.475 145.332 291.475C145.572 291.475 145.8 291.379 146.016 291.187C146.232 290.995 146.34 290.731 146.34 290.395V285.895C146.34 284.815 146.04 284.275 145.44 284.275C145.248 284.275 144.492 284.563 143.172 285.139C141.852 285.715 141.108 286.003 140.94 286.003ZM158.194 288.271C158.194 288.895 158.374 289.411 158.734 289.819C159.118 290.203 159.538 290.395 159.994 290.395C160.45 290.395 160.93 290.215 161.434 289.855V278.659C161.434 277.195 160.942 276.367 159.958 276.175V275.383L163.594 273.331C164.122 273.547 164.614 273.907 165.07 274.411C165.526 274.891 165.754 275.347 165.754 275.779V287.983C165.754 288.775 165.922 289.459 166.258 290.035C166.594 290.611 167.014 290.899 167.518 290.899V291.691C167.35 291.715 166.042 292.447 163.594 293.887C163.042 293.647 162.538 293.299 162.082 292.843C161.65 292.363 161.434 291.907 161.434 291.475L156.934 293.887C156.862 293.839 156.754 293.779 156.61 293.707C156.466 293.611 156.214 293.431 155.854 293.167C155.518 292.879 155.218 292.579 154.954 292.267C154.234 291.475 153.874 290.575 153.874 289.567V278.659C153.874 277.339 153.286 276.559 152.11 276.319V275.527L156.034 273.331C156.562 273.547 157.054 273.907 157.51 274.411C157.966 274.891 158.194 275.347 158.194 275.779V288.271ZM180.503 278.119V288.307C180.503 289.195 180.647 289.819 180.935 290.179C181.223 290.515 181.667 290.755 182.267 290.899V291.691L178.343 293.887C177.815 293.671 177.323 293.323 176.867 292.843C176.411 292.339 176.183 291.883 176.183 291.475L171.683 293.887C171.611 293.839 171.503 293.779 171.359 293.707C171.215 293.611 170.963 293.431 170.603 293.167C170.267 292.879 169.967 292.579 169.703 292.267C168.983 291.475 168.623 290.575 168.623 289.567V283.663C168.623 283.279 169.247 282.787 170.495 282.187C171.743 281.587 172.991 281.095 174.239 280.711L176.147 280.099C176.147 278.731 175.787 277.783 175.067 277.255C174.347 276.703 172.955 276.427 170.891 276.427V275.347C174.611 274.027 176.699 273.367 177.155 273.367C177.947 273.367 178.703 273.883 179.423 274.915C180.143 275.947 180.503 277.015 180.503 278.119ZM172.943 288.271C172.943 288.895 173.123 289.411 173.483 289.819C173.867 290.203 174.287 290.395 174.743 290.395C175.199 290.395 175.679 290.215 176.183 289.855V281.719C175.583 281.935 175.127 282.115 174.815 282.259C174.527 282.403 174.215 282.631 173.879 282.943C173.255 283.519 172.943 284.515 172.943 285.931V288.271ZM188.429 268.651V288.559C188.429 290.023 188.921 290.851 189.905 291.043V291.835L186.269 293.887C185.741 293.671 185.249 293.323 184.793 292.843C184.337 292.339 184.109 291.871 184.109 291.439V271.531C184.109 270.067 183.617 269.239 182.633 269.047V268.255L186.269 266.203C186.797 266.419 187.289 266.779 187.745 267.283C188.201 267.763 188.429 268.219 188.429 268.651ZM196.339 275.815V288.559C196.339 290.023 196.831 290.851 197.815 291.043V291.835L194.179 293.887C193.651 293.671 193.159 293.323 192.703 292.843C192.247 292.339 192.019 291.871 192.019 291.439V278.695C192.019 277.231 191.527 276.403 190.543 276.211V275.419L194.179 273.367C194.707 273.583 195.199 273.943 195.655 274.447C196.111 274.927 196.339 275.383 196.339 275.815ZM191.479 268.867V266.671C191.479 266.599 191.971 266.383 192.955 266.023C193.963 265.639 194.539 265.447 194.683 265.447C194.851 265.447 195.079 265.651 195.367 266.059C195.679 266.467 195.835 266.887 195.835 267.319V269.947C195.835 270.019 195.355 270.247 194.395 270.631C193.435 270.991 192.847 271.171 192.631 271.171C192.415 271.171 192.163 270.967 191.875 270.559C191.611 270.127 191.479 269.563 191.479 268.867ZM205.761 290.359C207.225 290.359 208.053 289.963 208.245 289.171H209.037L211.089 292.123C210.801 292.579 210.429 292.987 209.973 293.347C209.517 293.707 209.073 293.887 208.641 293.887H199.209C198.729 292.423 198.489 291.283 198.489 290.467L206.949 277.219H203.817C202.353 277.219 201.525 277.615 201.333 278.407H200.541L198.489 275.455C198.777 274.999 199.149 274.591 199.605 274.231C200.061 273.871 200.505 273.691 200.937 273.691H205.761C207.225 273.691 208.053 273.295 208.245 272.503H209.037C209.373 272.959 209.793 273.799 210.297 275.023C210.825 276.223 211.089 276.943 211.089 277.183L202.917 290.359H205.761ZM217.573 275.815V288.559C217.573 290.023 218.065 290.851 219.049 291.043V291.835L215.413 293.887C214.885 293.671 214.393 293.323 213.937 292.843C213.481 292.339 213.253 291.871 213.253 291.439V278.695C213.253 277.231 212.761 276.403 211.777 276.211V275.419L215.413 273.367C215.941 273.583 216.433 273.943 216.889 274.447C217.345 274.927 217.573 275.383 217.573 275.815ZM212.713 268.867V266.671C212.713 266.599 213.205 266.383 214.189 266.023C215.197 265.639 215.773 265.447 215.917 265.447C216.085 265.447 216.313 265.651 216.601 266.059C216.913 266.467 217.069 266.887 217.069 267.319V269.947C217.069 270.019 216.589 270.247 215.629 270.631C214.669 270.991 214.081 271.171 213.865 271.171C213.649 271.171 213.397 270.967 213.109 270.559C212.845 270.127 212.713 269.563 212.713 268.867ZM221.163 291.439V279.235C221.163 278.443 220.995 277.759 220.659 277.183C220.323 276.607 219.903 276.319 219.399 276.319V275.527C219.567 275.503 220.875 274.771 223.323 273.331C223.491 273.379 223.695 273.451 223.935 273.547C224.175 273.619 224.487 273.847 224.871 274.231C225.279 274.615 225.483 275.059 225.483 275.563C225.627 275.491 226.035 275.263 226.707 274.879C228.483 273.871 229.539 273.367 229.875 273.367C230.643 273.367 231.363 273.871 232.035 274.879C232.707 275.887 233.043 276.811 233.043 277.651V288.559C233.043 289.879 233.631 290.659 234.807 290.899V291.691L230.883 293.887C230.355 293.671 229.863 293.323 229.407 292.843C228.951 292.339 228.723 291.871 228.723 291.439V280.999C228.723 279.655 228.567 278.635 228.255 277.939C227.967 277.219 227.439 276.859 226.671 276.859L225.483 277.075V288.559C225.483 290.023 225.975 290.851 226.959 291.043V291.835L223.323 293.887C222.795 293.671 222.303 293.323 221.847 292.843C221.391 292.339 221.163 291.871 221.163 291.439ZM236.632 276.715C236.632 276.475 237.952 275.863 240.592 274.879C243.256 273.871 244.888 273.367 245.488 273.367C246.088 273.367 246.748 273.919 247.468 275.023C248.188 276.103 248.548 277.303 248.548 278.623V290.071C248.548 290.983 248.14 292.279 247.324 293.959C246.508 295.663 245.644 297.151 244.732 298.423C243.82 299.719 243.196 300.367 242.86 300.367C242.26 300.367 241.456 300.187 240.448 299.827C239.44 299.467 238.576 299.107 237.856 298.747L236.812 298.207V297.127H238.036C238.972 297.127 240.04 296.587 241.24 295.507C242.44 294.451 243.436 293.035 244.228 291.259C241.516 292.531 239.956 293.167 239.548 293.167C238.804 293.167 238.132 292.699 237.532 291.763C236.932 290.803 236.632 289.735 236.632 288.559V276.715ZM244.228 279.847C244.228 277.735 243.676 276.679 242.572 276.679C241.996 276.679 241.468 276.871 240.988 277.255V285.535C240.988 287.215 241.252 288.343 241.78 288.919C242.308 289.471 243.124 289.747 244.228 289.747V279.847Z" fill="#FF00E6"/>
<path d="M24.1001 391.599L37.7295 385.186L32.9925 370.939M32.9925 370.939L32.9771 370.893M32.9925 370.939L32.9484 370.96M32.9925 370.939L46.5778 364.548L41.8254 350.255L55.4549 343.842L50.7178 329.596M50.7178 329.596L50.7024 329.549M50.7178 329.596L50.6737 329.616M50.7178 329.596L64.3032 323.204L59.5507 308.911L73.1802 302.498L68.4432 288.252M68.4432 288.252L68.4278 288.205M68.4432 288.252L68.3991 288.272M68.4432 288.252L82.0285 281.86L77.2761 267.567L90.9055 261.155L86.1685 246.908M86.1685 246.908L86.1531 246.861M86.1685 246.908L86.1244 246.928M86.1685 246.908L99.7538 240.516L95.0014 226.223L108.631 219.811L103.894 205.564M103.894 205.564L103.878 205.518M103.894 205.564L103.85 205.585M103.894 205.564L117.479 199.172L112.727 184.879L126.356 178.467L121.619 164.22M121.619 164.22L121.604 164.174M121.619 164.22L121.575 164.241M121.619 164.22L135.205 157.828L130.452 143.535L144.082 137.123L139.345 122.876M139.345 122.876L139.329 122.83M139.345 122.876L139.3 122.897M139.345 122.876L152.93 116.484L148.177 102.191L161.807 95.7789L157.07 81.532M157.07 81.532L157.054 81.4857M157.07 81.532L157.026 81.5527M157.07 81.532L170.655 75.1404L165.903 60.8473" stroke="#FF00E6" stroke-width="3"/>
<path d="M35.4141 418.024L46.6307 408.044M46.6307 408.044L46.6671 408.012M46.6307 408.044L46.5942 408.012M46.6307 408.044L57.8693 418L69.1223 407.987L80.3974 417.975L91.6141 407.995M91.6141 407.995L91.6505 407.962M91.6141 407.995L91.5776 407.962M91.6141 407.995L102.853 417.95L114.106 407.938L125.381 417.925L136.597 407.945M136.597 407.945L136.634 407.913M136.597 407.945L136.561 407.913M136.597 407.945L147.836 417.9L159.089 407.888L170.364 417.875L181.581 407.895M181.581 407.895L181.617 407.863M181.581 407.895L181.544 407.863M181.581 407.895L192.819 417.851L204.072 407.838L215.348 417.826L226.564 407.846M226.564 407.846L226.601 407.813M226.564 407.846L226.528 407.813M226.564 407.846L237.803 417.801L249.056 407.789L260.331 417.776L271.548 407.796M271.548 407.796L271.584 407.764M271.548 407.796L271.511 407.764M271.548 407.796L282.786 417.751L294.039 407.739L305.314 417.726L316.531 407.746M316.531 407.746L316.567 407.714M316.531 407.746L316.495 407.714M316.531 407.746L327.77 417.702" stroke="#FF00E6" stroke-width="3"/>
<path d="M198.764 63.0325L194.009 77.325L207.594 83.7183M207.594 83.7183L207.638 83.739M207.594 83.7183L207.609 83.672M207.594 83.7183L202.855 97.9646L216.484 104.379L211.729 118.671L225.314 125.065M225.314 125.065L225.358 125.085M225.314 125.065L225.329 125.018M225.314 125.065L220.575 139.311L234.204 145.725L229.449 160.017L243.034 166.411M243.034 166.411L243.078 166.431M243.034 166.411L243.049 166.364M243.034 166.411L238.295 180.657L251.924 187.071L247.169 201.364L260.754 207.757M260.754 207.757L260.798 207.778M260.754 207.757L260.769 207.711M260.754 207.757L256.015 222.003L269.644 228.417L264.889 242.71L278.474 249.103M278.474 249.103L278.518 249.124M278.474 249.103L278.489 249.057M278.474 249.103L273.735 263.349L287.364 269.764L282.609 284.056L296.194 290.449M296.194 290.449L296.238 290.47M296.194 290.449L296.209 290.403M296.194 290.449L291.455 304.696L305.084 311.11L300.329 325.402L313.914 331.796M313.914 331.796L313.958 331.816M313.914 331.796L313.929 331.749M313.914 331.796L309.175 346.042L322.804 352.456L318.049 366.749L331.634 373.142M331.634 373.142L331.678 373.163M331.634 373.142L331.649 373.096M331.634 373.142L326.895 387.388L340.524 393.802" stroke="#FF00E6" stroke-width="3"/>
<circle cx="181.745" cy="58.7529" r="3.5" transform="rotate(-42 181.745 58.7529)" fill="white" stroke="#FF00E6" stroke-width="3"/>
<circle cx="331.521" cy="402.939" r="3.5" transform="rotate(-42 331.521 402.939)" fill="white" stroke="#FF00E6" stroke-width="3"/>
<circle cx="31.3045" cy="402.783" r="3.5" transform="rotate(-42 31.3045 402.783)" fill="white" stroke="#FF00E6" stroke-width="3"/>
<path d="M164.563 192.432L178.225 208.358L177.093 187.405L182.492 207.682L190.563 188.313L186.63 208.924L202.305 194.975L189.819 211.839L209.994 206.073L191.427 215.848L212.106 219.407L191.137 220.159L208.224 232.337L189.005 223.916L199.116 242.303L185.454 226.377L186.586 247.329L181.187 227.053L173.116 246.422L177.049 225.81L161.373 239.759L173.86 222.896L153.685 228.662L172.251 218.886L151.572 215.328L172.542 214.576L155.455 202.397L174.674 210.818L164.563 192.432Z" fill="white" stroke="black"/>
<circle cx="181.929" cy="217.372" r="3.5" transform="rotate(-42 181.929 217.372)" stroke="#FF00E6" stroke-width="3"/>
</svg>
