<svg width="633" height="694" viewBox="0 0 633 694" fill="none" xmlns="http://www.w3.org/2000/svg">
<path d="M147.922 190.614C133.521 159.037 118.949 96.2831 175.871 97.8839C232.793 99.4848 255.748 138.007 260.111 157.068C268.805 125.662 300.245 69.6776 356.455 96.9888C426.717 131.128 397.447 195.22 378.811 210.205C407.097 191.107 467.143 164.422 481.043 210.462C494.944 256.502 435.829 275.999 404.535 279.992C436.378 278.787 503.069 283.764 515.088 313.312C528.144 345.407 492.072 402.165 473.345 413.761C502.543 406.685 559.517 402.772 548.894 453.82C534.434 523.302 462.487 527.774 450.509 499.165C458.734 524.868 476.167 574.455 441.354 586.77C401.5 600.869 360.726 530.05 348.893 515.296C352.281 532.983 334.639 548.671 307.3 551.601C268.985 555.708 237.304 528.422 253.193 486.453C243.43 501.951 205.809 521.013 176.607 512.211C152.932 505.076 128.873 461.947 167.442 413.851C132.76 421.916 65.8143 425.719 75.4893 376.415C85.1643 327.111 132.71 328.386 155.273 335.186C122.526 323.773 63.0229 294.744 86.9824 269.929C98.7505 257.741 112.141 252.881 124.184 251.787C94.0282 244.988 64.0468 231.479 79.185 209.017C99.6193 178.695 133.524 184.114 147.922 190.614Z" fill="white" stroke="black"/>
<path d="M275.948 229.951L290.112 7.05535L345.832 199.984L346.05 200.74L346.642 200.222L560.682 12.8746L419.809 243.585L419.108 244.734L420.389 244.322L589.363 190.001L419.926 323.778L419.297 324.274L420.019 324.621L583.627 403.278L415.167 388.892L414.372 388.824L414.658 389.569L469.083 531.537L360.245 431.478L359.315 430.623L359.408 431.882L371.596 597.913L306.772 447.148L306.16 445.725L305.824 447.237L252.694 686.815L245.527 442.838L245.506 442.113L244.836 442.391L95.1687 504.477L203.553 382.813L204.281 381.996L203.187 381.98L53.6249 379.822L180.139 330.839L181.001 330.505L180.249 329.966L24.5834 218.507L188.715 248.25L189.589 248.408L189.271 247.579L119.862 66.5693L275.086 230.263L275.875 231.095L275.948 229.951Z" fill="white" stroke="black"/>
<path d="M195.368 193.826L287.732 263.36L295.665 95.9243L328.135 262.508L462.847 138.761L358.448 290.331L501.793 239.439L388.495 327.109L522.51 380.852L390.725 370.97L423.33 461.749L341.155 401.651L348.637 510.043L301.423 409.909L268.005 539.762L261.125 410.189L180.296 445.987L238.442 368.14L158.266 366.378L224.567 326.86L144.063 269.329L245.146 294.133L195.368 193.826Z" fill="white" stroke="black"/>
<path d="M270.548 326.521C271.386 325.976 272.11 325.442 272.72 324.921C273.329 324.399 273.827 323.904 274.214 323.436C274.599 322.958 274.874 322.518 275.039 322.114C275.205 321.71 275.259 321.36 275.201 321.064C275.182 320.962 275.108 320.854 274.979 320.741C274.851 320.628 274.669 320.536 274.432 320.465C274.206 320.392 273.927 320.351 273.597 320.341C273.264 320.321 272.888 320.352 272.468 320.433C271.344 320.652 270.327 320.993 269.42 321.455C268.51 321.908 267.7 322.405 266.988 322.947C266.276 323.489 265.66 324.033 265.14 324.579C264.619 325.116 264.184 325.582 263.837 325.979C263.619 326.223 263.432 326.461 263.275 326.693C263.127 326.913 262.976 327.117 262.821 327.306C262.675 327.483 262.509 327.638 262.322 327.77C262.136 327.901 261.899 327.995 261.613 328.051C261.184 328.134 260.826 328.097 260.541 327.941C260.266 327.782 260.093 327.518 260.021 327.15C259.936 326.711 260.019 326.212 260.272 325.653C260.522 325.085 260.906 324.495 261.424 323.885C261.942 323.275 262.573 322.67 263.315 322.069C264.056 321.458 264.869 320.892 265.755 320.369C266.65 319.845 267.595 319.38 268.588 318.975C269.591 318.568 270.614 318.263 271.657 318.06C272.731 317.851 273.673 317.758 274.484 317.781C275.295 317.804 275.975 317.921 276.526 318.132C277.086 318.342 277.525 318.633 277.842 319.007C278.169 319.378 278.38 319.809 278.475 320.3C278.571 320.791 278.506 321.334 278.283 321.929C278.059 322.525 277.692 323.148 277.181 323.799C276.682 324.448 276.04 325.103 275.256 325.765C274.48 326.414 273.584 327.045 272.567 327.656C273.721 327.804 274.674 328.011 275.426 328.279C276.187 328.534 276.798 328.84 277.26 329.196C277.73 329.539 278.076 329.928 278.298 330.363C278.519 330.787 278.675 331.239 278.769 331.72C278.906 332.425 278.847 333.158 278.592 333.919C278.336 334.679 277.92 335.434 277.344 336.183C276.776 336.919 276.068 337.641 275.218 338.347C274.377 339.041 273.436 339.686 272.395 340.281C271.352 340.865 270.231 341.38 269.034 341.825C267.838 342.28 266.607 342.631 265.339 342.878C264.889 342.965 264.429 343.028 263.959 343.066C263.489 343.105 263.046 343.095 262.632 343.038C262.228 342.978 261.881 342.86 261.592 342.683C261.313 342.504 261.139 342.235 261.069 341.877C261.061 341.836 261.054 341.8 261.048 341.77C261.051 341.727 261.052 341.679 261.052 341.626C261.077 341.536 261.104 341.43 261.134 341.308C261.161 341.175 261.256 341.034 261.418 340.886C261.58 340.738 261.849 340.59 262.223 340.443C262.606 340.284 263.166 340.133 263.902 339.99C264.725 337.399 265.386 335.18 265.887 333.332C266.395 331.472 266.824 329.94 267.174 328.737C267.524 327.533 267.837 326.634 268.114 326.039C268.401 325.442 268.729 325.108 269.097 325.036C269.261 325.004 269.424 324.999 269.588 325.02C269.751 325.042 269.898 325.087 270.028 325.157C270.167 325.215 270.285 325.304 270.382 325.423C270.478 325.532 270.54 325.663 270.57 325.816C270.508 325.934 270.483 326.051 270.495 326.165C270.504 326.269 270.522 326.388 270.548 326.521ZM270.274 329.614C270.016 330.747 269.763 331.767 269.515 332.675C269.278 333.58 269.047 334.416 268.825 335.181C268.6 335.935 268.383 336.646 268.173 337.313C267.971 337.968 267.772 338.611 267.577 339.243C268.743 338.91 269.808 338.491 270.771 337.986C271.742 337.468 272.561 336.906 273.228 336.298C273.906 335.689 274.404 335.057 274.722 334.4C275.05 333.742 275.153 333.096 275.029 332.462C274.974 332.176 274.849 331.887 274.654 331.596C274.47 331.303 274.193 331.028 273.825 330.77C273.457 330.513 272.982 330.282 272.401 330.076C271.82 329.871 271.111 329.717 270.274 329.614ZM284.97 329.145C285.321 328.822 285.686 328.518 286.066 328.232C286.455 327.944 286.836 327.69 287.207 327.469C287.576 327.238 287.931 327.047 288.273 326.896C288.623 326.732 288.942 326.622 289.228 326.567C289.688 326.477 290.063 326.521 290.352 326.698C290.649 326.863 290.848 327.207 290.95 327.728C290.972 327.841 290.99 327.964 291.006 328.099C291.02 328.224 291.025 328.361 291.022 328.51C291.023 328.786 290.93 329.128 290.744 329.535C290.558 329.943 290.329 330.375 290.057 330.831C289.795 331.285 289.503 331.75 289.182 332.226C288.869 332.69 288.576 333.124 288.305 333.527C288.041 333.918 287.821 334.258 287.643 334.547C287.476 334.834 287.402 335.024 287.42 335.116C287.435 335.198 287.452 335.253 287.468 335.281C287.484 335.31 287.533 335.317 287.615 335.301C288.121 334.958 288.68 334.558 289.291 334.099C289.911 333.629 290.524 333.154 291.131 332.675C291.739 332.196 292.312 331.735 292.852 331.29C293.39 330.835 293.844 330.445 294.216 330.118C294.298 330.049 294.382 329.99 294.468 329.941C294.562 329.881 294.65 329.842 294.732 329.826C294.916 329.791 295.082 329.822 295.228 329.921C295.375 330.02 295.468 330.171 295.508 330.376C295.553 330.611 295.504 330.902 295.359 331.249C295.222 331.583 294.95 331.959 294.544 332.378C294.23 332.672 293.875 333.007 293.481 333.38C293.095 333.742 292.686 334.124 292.255 334.526C291.832 334.916 291.398 335.303 290.953 335.686C290.518 336.068 290.092 336.416 289.675 336.731C289.259 337.045 288.86 337.313 288.479 337.536C288.106 337.747 287.771 337.881 287.475 337.938C286.769 338.075 286.205 338.01 285.781 337.742C285.368 337.472 285.11 337.072 285.006 336.54C284.99 336.458 284.984 336.396 284.986 336.353C284.97 335.889 285.018 335.429 285.131 334.972C285.244 334.515 285.386 334.073 285.558 333.647C285.73 333.221 285.916 332.813 286.116 332.424C286.315 332.025 286.492 331.656 286.65 331.318C286.815 330.967 286.944 330.65 287.038 330.367C287.131 330.083 287.157 329.834 287.115 329.62C287.105 329.569 287.085 329.519 287.055 329.472C287.024 329.425 286.973 329.408 286.902 329.422C286.779 329.446 286.584 329.532 286.315 329.68C286.057 329.825 285.784 330.006 285.497 330.221C285.21 330.436 284.943 330.673 284.697 330.933C284.448 331.183 284.284 331.433 284.205 331.682C284.097 332 283.979 332.399 283.849 332.881C283.72 333.362 283.585 333.866 283.443 334.392C283.311 334.917 283.184 335.435 283.061 335.947C282.937 336.459 282.832 336.899 282.744 337.266C282.679 337.586 282.567 337.884 282.408 338.159C282.26 338.432 282.084 338.673 281.88 338.882C281.677 339.092 281.461 339.266 281.234 339.406C281.006 339.546 280.79 339.636 280.586 339.675C280.351 339.721 280.15 339.696 279.983 339.602C279.826 339.505 279.721 339.318 279.667 339.042C279.645 338.93 279.634 338.789 279.632 338.619C279.64 338.437 279.68 338.233 279.752 338.007C279.869 337.623 279.979 337.209 280.084 336.764C280.199 336.318 280.328 335.81 280.472 335.241C280.614 334.661 280.778 334.003 280.964 333.267C281.158 332.518 281.388 331.656 281.655 330.681C281.488 330.586 281.336 330.462 281.2 330.308C281.073 330.142 280.983 329.926 280.931 329.66C280.883 329.414 280.894 329.195 280.962 329.001C281.029 328.797 281.138 328.622 281.29 328.476C281.442 328.33 281.625 328.209 281.84 328.114C282.064 328.007 282.303 327.929 282.559 327.879C282.825 327.827 283.096 327.801 283.371 327.801C283.645 327.79 283.893 327.811 284.116 327.863C284.348 327.913 284.544 327.992 284.703 328.099C284.861 328.206 284.958 328.346 284.992 328.52C284.997 328.551 284.995 328.594 284.985 328.649C284.974 328.704 284.96 328.765 284.941 328.833C284.932 328.898 284.923 328.958 284.912 329.013C284.902 329.068 284.899 329.111 284.905 329.142C284.909 329.162 284.916 329.172 284.927 329.17L284.942 329.167L284.97 329.145ZM298.731 327.059C298.25 327.153 297.809 327.366 297.407 327.699C297.004 328.032 296.668 328.431 296.398 328.898C296.128 329.364 295.939 329.868 295.832 330.408C295.723 330.939 295.717 331.455 295.815 331.956C295.854 332.16 295.906 332.373 295.971 332.594C296.043 332.803 296.143 332.99 296.271 333.156C296.399 333.323 296.556 333.451 296.744 333.542C296.941 333.631 297.183 333.648 297.47 333.592C297.695 333.548 297.937 333.4 298.195 333.148C298.462 332.884 298.725 332.568 298.982 332.2C299.247 331.819 299.498 331.415 299.733 330.987C299.966 330.549 300.171 330.127 300.347 329.722C300.522 329.316 300.659 328.955 300.757 328.639C300.855 328.323 300.891 328.099 300.865 327.966C300.827 327.771 300.727 327.611 300.564 327.483C300.399 327.345 300.209 327.239 299.993 327.164C299.777 327.09 299.551 327.049 299.316 327.041C299.09 327.022 298.894 327.028 298.731 327.059ZM310.129 328.95C309.979 329.16 309.78 329.448 309.533 329.814C309.286 330.181 308.998 330.582 308.669 331.017C308.35 331.451 308.001 331.895 307.623 332.351C307.252 332.794 306.861 333.21 306.448 333.598C306.046 333.984 305.637 334.312 305.223 334.584C304.811 334.866 304.406 335.045 304.007 335.123C303.649 335.192 303.327 335.175 303.042 335.072C302.756 334.968 302.503 334.81 302.281 334.599C302.07 334.385 301.894 334.133 301.752 333.842C301.609 333.541 301.505 333.227 301.442 332.899C301.4 332.685 301.375 332.472 301.366 332.262C301.355 332.041 301.367 331.832 301.403 331.634C301.169 332.125 300.893 332.64 300.573 333.18C300.262 333.707 299.908 334.206 299.511 334.675C299.122 335.133 298.695 335.529 298.23 335.864C297.776 336.206 297.289 336.429 296.767 336.53C296.502 336.582 296.179 336.586 295.799 336.543C295.431 336.508 295.065 336.399 294.701 336.215C294.336 336.032 294.009 335.766 293.718 335.419C293.428 335.073 293.228 334.618 293.119 334.056C293.037 333.636 293.001 333.123 293.011 332.517C293.03 331.908 293.107 331.267 293.242 330.594C293.384 329.908 293.596 329.22 293.875 328.529C294.165 327.836 294.539 327.195 294.998 326.607C295.455 326.009 296.007 325.493 296.655 325.059C297.301 324.615 298.058 324.309 298.927 324.14C299.377 324.053 299.782 324.032 300.141 324.079C300.501 324.126 300.811 324.193 301.072 324.28C301.369 324.392 301.639 324.526 301.882 324.68C302.038 324.554 302.2 324.433 302.368 324.315C302.507 324.214 302.654 324.121 302.807 324.039C302.969 323.943 303.112 323.884 303.234 323.86C303.623 323.785 303.961 323.83 304.248 323.997C304.535 324.164 304.703 324.376 304.753 324.631C304.767 324.703 304.773 324.76 304.771 324.803C304.757 325.007 304.723 325.269 304.668 325.587C304.624 325.903 304.571 326.259 304.509 326.652C304.446 327.036 304.381 327.441 304.316 327.868C304.258 328.282 304.21 328.69 304.171 329.09C304.132 329.49 304.11 329.866 304.104 330.217C304.096 330.558 304.115 330.846 304.161 331.082C304.22 331.388 304.321 331.634 304.463 331.819C304.603 331.993 304.796 332.056 305.041 332.009C305.195 331.979 305.365 331.898 305.551 331.766C305.746 331.622 305.95 331.445 306.164 331.233C306.377 331.022 306.592 330.789 306.808 330.535C307.032 330.269 307.246 330.004 307.45 329.742C307.923 329.119 308.418 328.418 308.935 327.639C309.073 327.474 309.218 327.377 309.372 327.347C309.576 327.307 309.765 327.376 309.938 327.555C310.118 327.722 310.233 327.928 310.28 328.173C310.336 328.459 310.286 328.718 310.129 328.95ZM310.037 323.891C310.156 323.411 310.348 323.034 310.613 322.76C310.878 322.486 311.159 322.32 311.455 322.262C311.701 322.214 311.939 322.264 312.169 322.41C312.397 322.546 312.545 322.788 312.612 323.135C312.638 323.268 312.65 323.415 312.65 323.574C312.649 323.733 312.624 323.908 312.576 324.098C312.746 323.767 313.011 323.413 313.373 323.035C313.732 322.647 314.14 322.287 314.595 321.954C315.059 321.609 315.541 321.309 316.043 321.052C316.555 320.793 317.052 320.617 317.532 320.524C318.074 320.418 318.55 320.464 318.96 320.66C319.377 320.844 319.647 321.248 319.768 321.872C319.84 322.24 319.858 322.634 319.823 323.055C319.788 323.476 319.717 323.903 319.611 324.338C319.514 324.77 319.392 325.203 319.242 325.635C319.101 326.055 318.956 326.455 318.807 326.834C318.658 327.213 318.519 327.564 318.39 327.886C318.27 328.196 318.177 328.453 318.11 328.657C318.009 328.846 317.98 329.048 318.021 329.263C318.037 329.345 318.077 329.411 318.14 329.463C318.203 329.514 318.291 329.529 318.403 329.507C318.475 329.493 318.555 329.472 318.645 329.444C318.733 329.406 318.835 329.328 318.95 329.21C319.462 328.898 319.975 328.533 320.488 328.115C321.011 327.695 321.506 327.264 321.972 326.824C322.436 326.373 322.855 325.936 323.23 325.513C323.612 325.078 323.924 324.693 324.167 324.359C324.235 324.272 324.307 324.205 324.383 324.158C324.459 324.112 324.532 324.081 324.604 324.068C324.778 324.034 324.924 324.074 325.042 324.189C325.17 324.303 325.254 324.461 325.293 324.666C325.355 324.983 325.321 325.355 325.192 325.784C325.074 326.21 324.832 326.634 324.468 327.055C323.967 327.587 323.505 328.075 323.082 328.518C322.669 328.959 322.236 329.383 321.785 329.789C321.341 330.183 320.854 330.569 320.323 330.948C319.8 331.315 319.172 331.687 318.438 332.063C318.188 332.196 317.955 332.305 317.738 332.39C317.531 332.473 317.336 332.532 317.152 332.568C316.61 332.673 316.182 332.602 315.869 332.355C315.564 332.096 315.358 331.696 315.253 331.154C315.239 331.082 315.226 331.016 315.214 330.954C315.211 330.881 315.206 330.802 315.2 330.718C315.159 330.398 315.173 330.034 315.243 329.628C315.323 329.22 315.426 328.796 315.553 328.358C315.69 327.917 315.839 327.48 315.999 327.046C316.156 326.601 316.298 326.186 316.425 325.801C316.56 325.403 316.667 325.053 316.746 324.751C316.826 324.449 316.848 324.212 316.815 324.038C316.785 323.884 316.714 323.765 316.602 323.681C316.498 323.585 316.36 323.553 316.186 323.587C315.531 323.714 314.945 324.03 314.428 324.533C313.921 325.035 313.467 325.622 313.067 326.294C312.665 326.956 312.311 327.646 312.005 328.363C311.698 329.081 311.43 329.722 311.201 330.286C311.062 330.663 310.943 331.063 310.845 331.486C310.755 331.896 310.65 332.287 310.532 332.661C310.412 333.024 310.255 333.335 310.061 333.596C309.88 333.864 309.615 334.032 309.268 334.1C308.91 334.17 308.607 334.112 308.359 333.927C308.11 333.741 307.955 333.485 307.891 333.158C307.857 332.984 307.874 332.689 307.942 332.273C308.009 331.856 308.106 331.371 308.231 330.816C308.357 330.261 308.501 329.665 308.664 329.028C308.835 328.38 309.003 327.742 309.168 327.116C309.341 326.477 309.505 325.878 309.662 325.317C309.818 324.756 309.943 324.28 310.037 323.891ZM332.73 325.91C332.724 325.933 332.724 325.959 332.73 325.99C332.735 326.021 332.735 326.047 332.729 326.07C332.765 326.254 332.849 326.439 332.98 326.626C333.11 326.802 333.277 326.87 333.482 326.831C333.564 326.815 333.623 326.793 333.66 326.764C334.209 326.477 334.743 326.087 335.263 325.593C335.793 325.097 336.29 324.571 336.755 324.014C337.219 323.457 337.636 322.898 338.005 322.338C338.384 321.776 338.691 321.282 338.926 320.854C339.035 320.652 339.177 320.535 339.351 320.501C339.504 320.471 339.651 320.517 339.791 320.638C339.942 320.757 340.041 320.94 340.089 321.185C340.126 321.379 340.115 321.62 340.054 321.908C340.003 322.194 339.885 322.514 339.699 322.868C339.225 323.65 338.731 324.41 338.216 325.146C337.702 325.883 337.169 326.554 336.618 327.16C336.065 327.756 335.495 328.259 334.906 328.671C334.328 329.08 333.732 329.345 333.118 329.464C332.372 329.609 331.743 329.514 331.232 329.178C330.719 328.832 330.38 328.235 330.215 327.386C330.205 327.335 330.195 327.284 330.186 327.233C330.174 327.171 330.168 327.114 330.168 327.061C330.016 327.536 329.791 327.988 329.493 328.418C329.192 328.837 328.847 329.217 328.457 329.558C328.065 329.889 327.647 330.167 327.202 330.391C326.76 330.626 326.318 330.786 325.879 330.871C325.5 330.945 325.143 330.961 324.806 330.921C324.469 330.88 324.161 330.77 323.882 330.591C323.614 330.41 323.379 330.158 323.179 329.836C322.988 329.512 322.845 329.105 322.75 328.614C322.583 327.755 322.558 326.917 322.675 326.098C322.79 325.269 323.004 324.49 323.319 323.76C323.631 323.02 324.019 322.34 324.482 321.72C324.953 321.087 325.456 320.533 325.989 320.058C326.531 319.57 327.085 319.171 327.651 318.859C328.216 318.548 328.749 318.343 329.25 318.246C329.833 318.133 330.353 318.132 330.81 318.245C331.035 318.308 331.251 318.409 331.458 318.549C331.481 318.449 331.505 318.354 331.53 318.264C331.585 317.999 331.636 317.772 331.684 317.582C331.73 317.382 331.761 317.238 331.775 317.15C331.788 317.052 331.833 316.821 331.911 316.455C331.988 316.09 332.075 315.665 332.172 315.179C332.277 314.681 332.386 314.151 332.499 313.587C332.623 313.022 332.732 312.491 332.827 311.996C332.921 311.5 333.003 311.075 333.073 310.722C333.14 310.359 333.18 310.128 333.193 310.03C333.215 309.761 333.264 309.496 333.341 309.237C333.416 308.968 333.519 308.731 333.648 308.525C333.786 308.307 333.958 308.125 334.163 307.979C334.366 307.823 334.611 307.717 334.897 307.662C335.286 307.586 335.625 307.61 335.914 307.734C336.202 307.848 336.392 308.146 336.485 308.626C336.523 308.82 336.536 309.025 336.525 309.239C336.514 309.454 336.491 309.665 336.457 309.873C336.434 310.079 336.4 310.288 336.356 310.498C336.32 310.696 336.287 310.883 336.258 311.058C335.945 312.18 335.625 313.399 335.297 314.715C334.967 316.02 334.645 317.335 334.329 318.659C334.013 319.984 333.717 321.272 333.441 322.525C333.164 323.778 332.927 324.906 332.73 325.91ZM331.104 320.003C330.495 320.142 329.876 320.4 329.249 320.777C328.524 321.194 327.89 321.731 327.35 322.388C326.807 323.035 326.385 323.785 326.084 324.639C325.794 325.492 325.714 326.42 325.845 327.424C325.925 327.833 326.138 328.003 326.486 327.936C326.916 327.852 327.308 327.686 327.662 327.437C328.015 327.177 328.337 326.865 328.627 326.501C328.925 326.125 329.19 325.712 329.421 325.264C329.652 324.816 329.855 324.357 330.029 323.889C330.213 323.418 330.368 322.958 330.493 322.509C330.626 322.048 330.735 321.624 330.819 321.236C330.848 321.114 330.889 320.941 330.941 320.719C330.985 320.509 331.039 320.27 331.104 320.003ZM269.171 371.93C268.483 371.99 267.87 372.061 267.335 372.144C266.807 372.215 266.313 372.295 265.853 372.384C265.547 372.444 265.246 372.508 264.951 372.575C264.667 372.641 264.378 372.708 264.083 372.776C263.797 372.832 263.496 372.895 263.181 372.967C262.876 373.037 262.55 373.106 262.202 373.173C261.865 373.239 261.585 373.193 261.364 373.034C261.142 372.876 261.003 372.653 260.947 372.367C260.925 372.254 260.918 372.134 260.925 372.005C260.936 371.897 261.032 371.767 261.215 371.614C261.406 371.45 261.66 371.284 261.978 371.116C262.303 370.936 262.688 370.76 263.133 370.589C263.577 370.418 264.056 370.261 264.569 370.119C264.876 368.86 265.202 367.587 265.546 366.3C265.898 365 266.258 363.737 266.624 362.509C266.988 361.271 267.347 360.087 267.7 358.957C268.054 357.827 268.389 356.796 268.707 355.864C269.022 354.922 269.309 354.103 269.566 353.405C269.833 352.706 270.058 352.169 270.239 351.794C269.74 352.008 269.258 352.229 268.793 352.457C268.326 352.675 267.797 352.905 267.208 353.147C267.093 353.212 266.974 353.256 266.851 353.28C266.555 353.338 266.305 353.28 266.102 353.108C265.896 352.925 265.765 352.685 265.707 352.388C265.681 352.256 265.769 352.079 265.97 351.86C266.18 351.628 266.477 351.379 266.86 351.114C267.252 350.836 267.717 350.555 268.256 350.269C268.803 349.972 269.4 349.686 270.047 349.412C270.704 349.136 271.398 348.884 272.129 348.657C272.868 348.418 273.62 348.224 274.387 348.075C275.103 347.936 275.675 347.904 276.104 347.98C276.541 348.044 276.794 348.254 276.863 348.612C276.897 348.786 276.881 348.975 276.814 349.179C276.746 349.373 276.639 349.558 276.493 349.735C276.357 349.91 276.18 350.066 275.963 350.204C275.744 350.331 275.506 350.42 275.251 350.47C275.108 350.498 274.974 350.518 274.849 350.532C274.722 350.535 274.587 350.551 274.444 350.579C274.066 350.652 273.715 350.731 273.392 350.815C273.067 350.889 272.758 350.965 272.465 351.043C272.505 351.141 272.531 351.216 272.541 351.267C272.568 351.41 272.57 351.553 272.544 351.696C272.517 351.829 272.489 351.956 272.46 352.079C272.272 352.805 272.044 353.682 271.777 354.71C271.508 355.728 271.22 356.814 270.914 357.966C270.607 359.119 270.294 360.289 269.973 361.476C269.662 362.661 269.365 363.78 269.081 364.833C268.798 365.885 268.54 366.827 268.309 367.657C268.076 368.477 267.9 369.1 267.781 369.526C268.363 369.466 268.904 369.435 269.402 369.434C269.899 369.422 270.329 369.45 270.692 369.518C271.064 369.573 271.363 369.668 271.591 369.804C271.82 369.94 271.954 370.116 271.996 370.331C272.026 370.484 272.005 370.647 271.932 370.821C271.858 370.984 271.751 371.142 271.611 371.297C271.469 371.441 271.303 371.569 271.112 371.68C270.92 371.781 270.716 371.853 270.501 371.895C270.266 371.94 270.035 371.953 269.809 371.934C269.592 371.912 269.38 371.911 269.171 371.93ZM284.112 365.922C284.106 365.945 284.106 365.971 284.112 366.002C284.117 366.033 284.117 366.059 284.111 366.082C284.147 366.266 284.231 366.451 284.362 366.638C284.492 366.814 284.659 366.882 284.864 366.843C284.946 366.827 285.005 366.804 285.042 366.776C285.591 366.489 286.125 366.099 286.645 365.605C287.175 365.109 287.672 364.583 288.137 364.026C288.601 363.468 289.018 362.91 289.387 362.35C289.766 361.788 290.073 361.294 290.308 360.866C290.417 360.664 290.559 360.546 290.733 360.513C290.886 360.483 291.033 360.529 291.173 360.65C291.324 360.769 291.423 360.952 291.471 361.197C291.508 361.391 291.497 361.632 291.436 361.92C291.385 362.206 291.267 362.526 291.081 362.88C290.607 363.662 290.113 364.421 289.598 365.158C289.084 365.895 288.551 366.566 288 367.172C287.447 367.768 286.877 368.271 286.288 368.683C285.71 369.092 285.114 369.357 284.5 369.476C283.754 369.621 283.125 369.526 282.614 369.19C282.101 368.844 281.762 368.247 281.597 367.398C281.587 367.347 281.577 367.296 281.568 367.244C281.556 367.183 281.55 367.126 281.55 367.073C281.398 367.548 281.173 368 280.875 368.43C280.574 368.849 280.229 369.229 279.839 369.57C279.447 369.901 279.029 370.179 278.584 370.403C278.142 370.638 277.7 370.798 277.261 370.883C276.882 370.957 276.525 370.973 276.188 370.932C275.851 370.892 275.543 370.782 275.264 370.603C274.996 370.421 274.761 370.17 274.561 369.848C274.37 369.524 274.227 369.117 274.132 368.626C273.965 367.767 273.94 366.928 274.057 366.11C274.172 365.281 274.386 364.502 274.701 363.772C275.013 363.032 275.401 362.352 275.864 361.732C276.335 361.099 276.838 360.545 277.371 360.07C277.913 359.582 278.467 359.183 279.033 358.871C279.598 358.56 280.131 358.355 280.632 358.258C281.215 358.145 281.735 358.144 282.192 358.257C282.417 358.32 282.633 358.421 282.84 358.561C282.863 358.461 282.887 358.366 282.912 358.276C282.967 358.011 283.018 357.783 283.066 357.594C283.112 357.394 283.143 357.25 283.157 357.162C283.17 357.064 283.215 356.833 283.293 356.467C283.37 356.102 283.457 355.677 283.554 355.191C283.659 354.693 283.768 354.162 283.881 353.599C284.005 353.034 284.114 352.503 284.209 352.007C284.303 351.512 284.385 351.087 284.455 350.734C284.522 350.371 284.562 350.14 284.575 350.042C284.597 349.773 284.646 349.508 284.723 349.249C284.798 348.98 284.901 348.743 285.03 348.537C285.168 348.319 285.34 348.137 285.545 347.991C285.748 347.835 285.993 347.729 286.279 347.673C286.668 347.598 287.007 347.622 287.296 347.746C287.584 347.86 287.774 348.157 287.867 348.638C287.905 348.832 287.918 349.037 287.907 349.251C287.896 349.466 287.873 349.677 287.839 349.885C287.816 350.091 287.782 350.3 287.738 350.51C287.702 350.708 287.669 350.894 287.64 351.07C287.327 352.192 287.007 353.411 286.679 354.727C286.349 356.032 286.027 357.347 285.711 358.671C285.395 359.996 285.099 361.284 284.823 362.537C284.546 363.79 284.309 364.918 284.112 365.922ZM282.486 360.015C281.877 360.154 281.258 360.412 280.631 360.789C279.906 361.206 279.272 361.743 278.732 362.4C278.189 363.046 277.767 363.797 277.466 364.651C277.176 365.504 277.096 366.432 277.227 367.436C277.307 367.845 277.52 368.015 277.868 367.948C278.298 367.864 278.69 367.698 279.044 367.448C279.397 367.189 279.719 366.877 280.009 366.513C280.307 366.137 280.572 365.724 280.803 365.276C281.034 364.828 281.237 364.369 281.411 363.9C281.595 363.43 281.75 362.97 281.875 362.521C282.008 362.06 282.117 361.636 282.201 361.248C282.23 361.125 282.271 360.953 282.323 360.731C282.367 360.521 282.421 360.282 282.486 360.015ZM294.799 357.685C294.746 357.685 294.699 357.688 294.658 357.696C294.617 357.704 294.571 357.713 294.52 357.723C294.131 357.799 293.783 357.946 293.476 358.165C293.168 358.384 292.896 358.649 292.659 358.96C292.431 359.259 292.235 359.589 292.072 359.95C291.919 360.309 291.786 360.663 291.674 361.014C291.56 361.355 291.469 361.68 291.402 361.99C291.345 362.298 291.305 362.556 291.281 362.762C291.603 362.508 291.931 362.227 292.263 361.918C292.606 361.608 292.925 361.312 293.221 361.032C293.517 360.751 293.771 360.5 293.982 360.279C294.204 360.055 294.36 359.903 294.45 359.822C294.855 359.446 295.12 359.119 295.246 358.839C295.37 358.55 295.415 358.313 295.379 358.129C295.349 357.976 295.274 357.863 295.154 357.791C295.044 357.717 294.926 357.681 294.799 357.685ZM294.94 355.461C295.788 355.296 296.462 355.377 296.961 355.705C297.46 356.032 297.78 356.559 297.921 357.285C298.004 357.714 297.979 358.186 297.846 358.7C297.712 359.214 297.417 359.77 296.96 360.369C296.501 360.957 295.857 361.597 295.025 362.289C294.203 362.969 293.145 363.699 291.854 364.481C291.963 364.768 292.167 364.972 292.467 365.094C292.764 365.206 293.133 365.219 293.573 365.134C294.043 365.042 294.531 364.878 295.037 364.642C295.551 364.394 296.048 364.111 296.528 363.795C297.018 363.477 297.49 363.147 297.943 362.804C298.394 362.451 298.798 362.123 299.153 361.821C299.518 361.516 299.818 361.256 300.052 361.041C300.296 360.824 300.46 360.686 300.544 360.627C300.624 360.548 300.699 360.496 300.769 360.472C300.848 360.446 300.919 360.427 300.98 360.415C301.103 360.391 301.211 360.402 301.305 360.447C301.397 360.482 301.476 360.536 301.543 360.608C301.618 360.668 301.675 360.741 301.714 360.829C301.75 360.907 301.774 360.977 301.786 361.038C301.804 361.13 301.816 361.245 301.821 361.382C301.824 361.508 301.775 361.666 301.674 361.856C301.633 361.917 301.486 362.089 301.233 362.371C300.991 362.652 300.669 362.99 300.269 363.387C299.868 363.783 299.395 364.214 298.849 364.681C298.311 365.136 297.728 365.573 297.098 365.992C296.479 366.41 295.819 366.782 295.119 367.109C294.42 367.447 293.713 367.685 292.998 367.824C292.384 367.943 291.814 367.932 291.288 367.79C290.772 367.647 290.306 367.408 289.891 367.075C289.487 366.74 289.147 366.328 288.871 365.841C288.596 365.353 288.403 364.823 288.292 364.25C288.206 363.811 288.2 363.313 288.272 362.758C288.343 362.192 288.49 361.612 288.714 361.017C288.937 360.421 289.236 359.827 289.609 359.235C289.99 358.63 290.439 358.076 290.957 357.572C291.474 357.068 292.063 356.63 292.723 356.258C293.393 355.884 294.132 355.618 294.94 355.461ZM301.666 356.079C301.785 355.6 301.977 355.223 302.242 354.949C302.507 354.674 302.788 354.508 303.084 354.451C303.33 354.403 303.567 354.452 303.797 354.599C304.025 354.735 304.173 354.977 304.241 355.324C304.267 355.457 304.279 355.603 304.278 355.763C304.277 355.922 304.253 356.096 304.205 356.286C304.374 355.956 304.64 355.602 305.001 355.224C305.361 354.836 305.768 354.475 306.224 354.143C306.687 353.798 307.17 353.497 307.672 353.241C308.184 352.982 308.68 352.806 309.161 352.712C309.703 352.607 310.179 352.653 310.588 352.849C311.006 353.033 311.276 353.437 311.397 354.061C311.468 354.429 311.487 354.823 311.452 355.244C311.417 355.664 311.346 356.092 311.239 356.527C311.143 356.959 311.02 357.392 310.871 357.824C310.73 358.244 310.585 358.644 310.435 359.023C310.286 359.402 310.147 359.752 310.019 360.075C309.899 360.384 309.806 360.641 309.739 360.845C309.638 361.035 309.608 361.237 309.65 361.452C309.666 361.533 309.705 361.6 309.768 361.651C309.831 361.703 309.919 361.718 310.032 361.696C310.103 361.682 310.184 361.661 310.274 361.633C310.362 361.594 310.464 361.516 310.579 361.398C311.091 361.087 311.604 360.722 312.117 360.304C312.64 359.883 313.135 359.453 313.601 359.012C314.065 358.561 314.484 358.124 314.858 357.701C315.241 357.266 315.553 356.882 315.796 356.548C315.864 356.461 315.936 356.394 316.012 356.347C316.087 356.3 316.161 356.27 316.233 356.256C316.407 356.223 316.552 356.263 316.67 356.378C316.798 356.491 316.882 356.65 316.922 356.855C316.984 357.171 316.95 357.544 316.821 357.972C316.702 358.399 316.461 358.822 316.097 359.243C315.596 359.776 315.133 360.264 314.71 360.707C314.297 361.148 313.865 361.571 313.413 361.978C312.97 362.371 312.483 362.758 311.951 363.137C311.428 363.504 310.8 363.876 310.067 364.252C309.817 364.385 309.583 364.494 309.366 364.579C309.16 364.661 308.964 364.721 308.78 364.756C308.238 364.862 307.811 364.791 307.497 364.544C307.192 364.285 306.987 363.885 306.882 363.343C306.868 363.271 306.855 363.205 306.843 363.143C306.839 363.07 306.835 362.991 306.829 362.907C306.788 362.586 306.802 362.223 306.872 361.817C306.952 361.408 307.055 360.985 307.182 360.546C307.319 360.106 307.468 359.669 307.627 359.234C307.785 358.79 307.927 358.375 308.054 357.989C308.189 357.592 308.296 357.242 308.375 356.94C308.454 356.638 308.477 356.4 308.443 356.226C308.414 356.073 308.343 355.954 308.231 355.87C308.127 355.773 307.988 355.742 307.815 355.776C307.16 355.903 306.574 356.218 306.057 356.722C305.549 357.224 305.096 357.811 304.696 358.483C304.294 359.145 303.94 359.834 303.633 360.552C303.327 361.269 303.059 361.91 302.829 362.475C302.69 362.852 302.572 363.252 302.474 363.674C302.383 364.084 302.279 364.476 302.161 364.849C302.04 365.212 301.883 365.524 301.69 365.784C301.509 366.053 301.244 366.221 300.897 366.289C300.539 366.358 300.236 366.301 299.987 366.115C299.739 365.93 299.583 365.674 299.52 365.347C299.486 365.173 299.503 364.878 299.57 364.461C299.638 364.045 299.735 363.559 299.86 363.004C299.986 362.449 300.13 361.854 300.293 361.217C300.464 360.568 300.632 359.931 300.796 359.305C300.969 358.666 301.134 358.066 301.29 357.505C301.447 356.944 301.572 356.469 301.666 356.079ZM318.536 353.612C318.301 354.422 318.083 355.212 317.883 355.983C317.681 356.744 317.489 357.45 317.308 358.101C317.233 358.37 317.166 358.68 317.106 359.031C317.056 359.37 317.054 359.662 317.102 359.908C317.13 360.051 317.182 360.157 317.259 360.227C317.347 360.295 317.467 360.314 317.621 360.284C317.835 360.243 318.094 360.128 318.398 359.942C318.699 359.746 319.019 359.508 319.358 359.23C319.694 358.942 320.046 358.624 320.414 358.277C320.779 357.919 321.134 357.559 321.477 357.195C321.828 356.819 322.16 356.452 322.473 356.094C322.783 355.726 323.058 355.391 323.296 355.09C323.438 354.946 323.58 354.86 323.724 354.832C323.897 354.798 324.056 354.847 324.198 354.979C324.34 355.11 324.434 355.294 324.48 355.529C324.526 355.764 324.516 356.015 324.451 356.282C324.386 356.55 324.229 356.83 323.978 357.123C323.43 357.855 322.867 358.559 322.287 359.234C321.718 359.907 321.136 360.519 320.543 361.069C319.958 361.607 319.362 362.063 318.755 362.435C318.148 362.808 317.538 363.054 316.925 363.173C316.516 363.253 316.162 363.263 315.864 363.204C315.568 363.156 315.316 363.056 315.106 362.906C314.905 362.744 314.744 362.547 314.625 362.315C314.504 362.073 314.415 361.809 314.36 361.523C314.26 361.012 314.244 360.463 314.31 359.877C314.377 359.291 314.475 358.758 314.604 358.276C314.787 357.582 314.967 356.895 315.142 356.214C315.328 355.53 315.508 354.874 315.683 354.246L315.023 354.374C314.451 354.486 314.039 354.47 313.789 354.328C313.538 354.186 313.39 353.997 313.344 353.762C313.324 353.659 313.331 353.531 313.365 353.376C313.407 353.208 313.477 353.051 313.576 352.905C313.683 352.746 313.819 352.603 313.986 352.475C314.152 352.347 314.352 352.26 314.588 352.215L316.244 351.893L318.231 344.837C318.36 344.409 318.557 344.084 318.822 343.863C319.095 343.629 319.395 343.481 319.722 343.417C320.029 343.357 320.326 343.385 320.613 343.499C320.901 343.612 321.081 343.859 321.155 344.237C321.193 344.431 321.185 344.64 321.133 344.862C321.089 345.072 321.021 345.324 320.93 345.618C320.872 345.809 320.8 346.041 320.715 346.312C320.627 346.573 320.534 346.857 320.434 347.163C320.343 347.456 320.244 347.767 320.138 348.096C320.042 348.422 319.945 348.738 319.845 349.044C319.624 349.766 319.39 350.528 319.143 351.329L324.143 350.357C324.389 350.31 324.617 350.281 324.827 350.272C325.035 350.253 325.219 350.27 325.378 350.324C325.546 350.366 325.683 350.445 325.791 350.562C325.898 350.679 325.974 350.85 326.018 351.075C326.04 351.188 326.041 351.304 326.022 351.425C326.013 351.543 325.967 351.658 325.882 351.77C325.808 351.88 325.69 351.983 325.528 352.078C325.376 352.171 325.17 352.254 324.908 352.326L318.536 353.612ZM324.839 347.468C324.793 347.233 324.788 346.985 324.822 346.724C324.864 346.45 324.952 346.194 325.086 345.956C325.22 345.718 325.402 345.507 325.632 345.324C325.872 345.14 326.171 345.013 326.529 344.943C327.122 344.828 327.559 344.865 327.84 345.054C328.119 345.234 328.292 345.497 328.36 345.845C328.397 346.039 328.398 346.262 328.362 346.513C328.336 346.762 328.267 347.004 328.153 347.238C328.037 347.462 327.87 347.664 327.65 347.845C327.431 348.026 327.152 348.149 326.815 348.214C326.181 348.338 325.717 348.327 325.424 348.182C325.128 348.028 324.933 347.79 324.839 347.468ZM323.823 351.247C323.941 350.927 324.101 350.684 324.302 350.517C324.503 350.351 324.721 350.245 324.956 350.199C325.345 350.124 325.702 350.187 326.028 350.389C326.362 350.579 326.566 350.868 326.642 351.256C326.65 351.35 326.652 351.445 326.65 351.541C326.657 351.635 326.644 351.733 326.611 351.835C326.52 352.129 326.446 352.377 326.39 352.579C326.333 352.781 326.28 352.972 326.23 353.151C326.188 353.318 326.147 353.486 326.105 353.653C326.063 353.82 326.012 354.021 325.951 354.256C325.878 354.535 325.795 354.843 325.701 355.18C325.606 355.506 325.517 355.842 325.435 356.187C325.364 356.529 325.307 356.864 325.265 357.191C325.232 357.515 325.241 357.806 325.29 358.061C325.344 358.337 325.446 358.508 325.597 358.575C325.756 358.629 325.964 358.631 326.219 358.581C326.506 358.525 326.79 358.406 327.073 358.224C327.366 358.04 327.652 357.82 327.932 357.564C328.211 357.308 328.48 357.027 328.739 356.722C328.996 356.407 329.233 356.096 329.449 355.788C329.675 355.479 329.878 355.185 330.057 354.906C330.247 354.625 330.4 354.378 330.518 354.164C330.685 353.93 330.87 353.793 331.075 353.753C331.259 353.718 331.423 353.771 331.567 353.912C331.722 354.052 331.824 354.25 331.874 354.505C331.919 354.741 331.907 355.003 331.836 355.293C331.775 355.58 331.634 355.868 331.414 356.155C330.996 356.788 330.564 357.402 330.117 357.998C329.669 358.584 329.195 359.122 328.696 359.612C328.205 360.089 327.695 360.496 327.166 360.832C326.637 361.169 326.081 361.393 325.499 361.507C324.67 361.668 323.975 361.585 323.413 361.259C322.859 360.921 322.495 360.302 322.32 359.403C322.229 358.932 322.206 358.459 322.251 357.983C322.297 357.508 322.371 357.042 322.473 356.587C322.574 356.122 322.688 355.675 322.817 355.247C322.944 354.808 323.045 354.396 323.118 354.011C323.144 353.868 323.191 353.646 323.26 353.346C323.339 353.044 323.422 352.736 323.51 352.422C323.608 352.053 323.712 351.661 323.823 351.247ZM333.997 350.607C333.762 351.416 333.544 352.207 333.344 352.978C333.141 353.739 332.949 354.445 332.768 355.095C332.693 355.365 332.626 355.675 332.567 356.026C332.516 356.365 332.515 356.657 332.562 356.902C332.59 357.045 332.643 357.152 332.72 357.222C332.807 357.29 332.928 357.309 333.081 357.279C333.296 357.237 333.555 357.123 333.858 356.937C334.16 356.74 334.48 356.503 334.818 356.225C335.155 355.937 335.507 355.619 335.875 355.272C336.24 354.914 336.594 354.553 336.938 354.19C337.289 353.813 337.621 353.447 337.933 353.089C338.244 352.721 338.518 352.386 338.757 352.085C338.899 351.941 339.041 351.855 339.184 351.827C339.358 351.793 339.516 351.842 339.658 351.973C339.801 352.105 339.895 352.288 339.94 352.523C339.986 352.759 339.977 353.01 339.912 353.277C339.847 353.544 339.689 353.824 339.438 354.117C338.891 354.85 338.328 355.554 337.748 356.229C337.178 356.902 336.597 357.514 336.003 358.064C335.418 358.602 334.822 359.058 334.216 359.43C333.609 359.803 332.999 360.049 332.385 360.168C331.976 360.247 331.623 360.258 331.325 360.199C331.029 360.15 330.776 360.051 330.567 359.901C330.365 359.738 330.205 359.541 330.086 359.31C329.964 359.068 329.876 358.804 329.82 358.518C329.721 358.006 329.704 357.458 329.771 356.872C329.837 356.286 329.935 355.752 330.064 355.271C330.248 354.577 330.427 353.89 330.603 353.208C330.788 352.525 330.968 351.869 331.144 351.241L330.484 351.369C329.911 351.48 329.5 351.465 329.249 351.323C328.999 351.18 328.851 350.992 328.805 350.756C328.785 350.654 328.792 350.525 328.825 350.37C328.867 350.203 328.937 350.046 329.036 349.9C329.143 349.741 329.28 349.598 329.446 349.47C329.612 349.342 329.813 349.255 330.048 349.209L331.705 348.887L333.692 341.832C333.821 341.403 334.018 341.079 334.282 340.857C334.555 340.624 334.855 340.475 335.183 340.412C335.489 340.352 335.787 340.379 336.074 340.493C336.361 340.607 336.542 340.853 336.615 341.232C336.653 341.426 336.646 341.634 336.594 341.857C336.55 342.067 336.482 342.319 336.39 342.612C336.332 342.804 336.26 343.036 336.175 343.307C336.088 343.568 335.995 343.851 335.895 344.157C335.803 344.451 335.705 344.762 335.599 345.09C335.503 345.417 335.405 345.733 335.305 346.039C335.085 346.761 334.851 347.522 334.604 348.324L339.604 347.352C339.849 347.304 340.077 347.276 340.288 347.267C340.496 347.248 340.68 347.265 340.839 347.319C341.006 347.361 341.144 347.44 341.251 347.557C341.359 347.674 341.435 347.845 341.478 348.07C341.5 348.183 341.502 348.299 341.483 348.419C341.474 348.538 341.427 348.653 341.343 348.765C341.269 348.875 341.151 348.977 340.989 349.073C340.837 349.166 340.63 349.248 340.368 349.32L333.997 350.607ZM346.556 346.924C346.799 346.643 347.006 346.428 347.179 346.278C347.359 346.115 347.516 345.994 347.649 345.915C347.781 345.826 347.901 345.766 348.012 345.734C348.133 345.7 348.254 345.671 348.377 345.647C348.592 345.605 348.761 345.657 348.885 345.803C349.007 345.938 349.085 346.093 349.118 346.267C349.146 346.41 349.146 346.548 349.119 346.68L347.076 354.511C347.495 354.047 347.988 353.58 348.554 353.109C349.129 352.626 349.681 352.19 350.21 351.801C350.747 351.399 351.209 351.071 351.594 350.815C351.99 350.558 352.218 350.423 352.28 350.411C352.535 350.362 352.779 350.415 353.011 350.572C353.243 350.728 353.388 350.955 353.446 351.251C353.498 351.517 353.45 351.818 353.303 352.154C353.166 352.489 352.874 352.843 352.427 353.216C351.789 353.754 351.232 354.218 350.756 354.607C350.278 354.987 349.856 355.329 349.491 355.633C349.125 355.938 348.802 356.213 348.521 356.459C348.24 356.704 347.975 356.952 347.726 357.202C347.488 357.45 347.252 357.708 347.017 357.976C346.795 358.253 346.554 358.57 346.295 358.929C346.179 359.588 346.058 360.222 345.932 360.83C345.817 361.436 345.703 361.972 345.593 362.44C345.492 362.905 345.406 363.282 345.335 363.572C345.264 363.862 345.226 364.018 345.219 364.04C344.725 365.919 343.982 366.955 342.99 367.148C342.581 367.227 342.222 367.154 341.913 366.927C341.605 366.711 341.407 366.373 341.317 365.913C341.234 365.483 341.202 365.044 341.22 364.595C341.251 364.154 341.35 363.652 341.517 363.089C341.693 362.524 341.94 361.882 342.256 361.162C342.585 360.451 343.004 359.605 343.514 358.626L345.374 351.817C344.194 353.936 343.074 355.597 342.013 356.8C340.953 358.004 339.88 358.711 338.797 358.922C338.449 358.989 338.136 358.965 337.859 358.849C337.584 358.744 337.411 358.507 337.339 358.139C337.24 357.627 337.25 357.026 337.37 356.334C337.446 355.958 337.527 355.614 337.615 355.299C337.7 354.975 337.792 354.655 337.89 354.339C337.986 354.012 338.082 353.665 338.18 353.295C338.289 352.924 338.399 352.51 338.512 352.053C338.633 351.584 338.757 351.05 338.885 350.452C339.021 349.842 339.165 349.135 339.317 348.331C339.444 347.893 339.654 347.555 339.947 347.317C340.239 347.069 340.538 346.916 340.844 346.856C341.161 346.795 341.442 346.82 341.687 346.931C341.94 347.031 342.09 347.203 342.137 347.448C342.161 347.571 342.162 347.683 342.139 347.783L340.468 354.172C340.382 354.496 340.356 354.745 340.39 354.919C340.42 355.073 340.496 355.137 340.619 355.113C340.731 355.092 340.864 355.008 341.016 354.861C341.168 354.715 341.306 354.555 341.432 354.382L346.556 346.924ZM275.174 392.905C275.064 393.372 274.949 393.93 274.831 394.579C274.713 395.228 274.58 395.906 274.431 396.615C274.282 397.323 274.112 398.03 273.92 398.735C273.739 399.439 273.524 400.081 273.275 400.659C273.035 401.226 272.762 401.704 272.456 402.092C272.159 402.479 271.822 402.709 271.444 402.782C271.127 402.844 270.856 402.843 270.632 402.781C270.409 402.729 270.227 402.637 270.085 402.505C269.944 402.384 269.832 402.241 269.747 402.077C269.67 401.901 269.616 401.732 269.584 401.568C269.536 401.323 269.523 401.065 269.545 400.795C269.577 400.524 269.629 400.27 269.7 400.033L273.472 388.078C273.64 387.579 273.812 387.179 273.987 386.88C274.173 386.578 274.351 386.347 274.521 386.187C274.702 386.025 274.867 385.918 275.016 385.868C275.164 385.807 275.289 385.767 275.391 385.747C275.575 385.712 275.757 385.745 275.936 385.848C276.113 385.941 276.234 386.156 276.3 386.494C276.364 386.821 276.364 387.288 276.302 387.894C276.239 388.501 276.06 389.3 275.765 390.291C276.55 390.074 277.312 389.788 278.049 389.433C278.785 389.067 279.423 388.641 279.965 388.153C280.517 387.664 280.932 387.122 281.209 386.527C281.484 385.921 281.554 385.271 281.419 384.576C281.299 383.962 281.084 383.399 280.772 382.887C280.468 382.362 280.082 381.928 279.612 381.584C279.15 381.228 278.614 380.982 278.004 380.846C277.392 380.7 276.717 380.698 275.981 380.841C274.979 381.036 274.134 381.301 273.446 381.637C272.766 381.96 272.195 382.326 271.733 382.734C271.281 383.14 270.92 383.576 270.65 384.042C270.38 384.509 270.157 384.971 269.981 385.43C269.815 385.887 269.674 386.333 269.557 386.77C269.44 387.207 269.304 387.599 269.149 387.948C269.004 388.294 268.818 388.59 268.59 388.836C268.36 389.072 268.05 389.228 267.662 389.303C267.161 389.401 266.763 389.345 266.467 389.137C266.183 388.927 265.994 388.587 265.903 388.117C265.812 387.647 265.84 387.11 265.988 386.509C266.135 385.897 266.388 385.264 266.749 384.61C267.11 383.956 267.574 383.309 268.139 382.668C268.712 382.016 269.38 381.408 270.14 380.847C270.901 380.285 271.75 379.791 272.686 379.365C273.63 378.927 274.649 378.601 275.743 378.389C276.766 378.19 277.776 378.147 278.775 378.261C279.781 378.363 280.704 378.634 281.543 379.076C282.383 379.518 283.102 380.136 283.703 380.932C284.312 381.716 284.73 382.696 284.959 383.872C285.167 384.945 285.095 385.967 284.743 386.938C284.399 387.896 283.845 388.762 283.083 389.537C282.329 390.299 281.412 390.955 280.33 391.504C279.246 392.044 278.071 392.437 276.803 392.684C276.537 392.735 276.265 392.783 275.987 392.826C275.719 392.868 275.448 392.894 275.174 392.905ZM288.581 389.566C288.932 389.244 289.297 388.939 289.676 388.653C290.066 388.365 290.447 388.111 290.817 387.89C291.186 387.659 291.542 387.468 291.884 387.317C292.234 387.153 292.552 387.044 292.839 386.988C293.299 386.898 293.673 386.942 293.963 387.12C294.26 387.285 294.459 387.628 294.561 388.149C294.583 388.262 294.601 388.386 294.617 388.52C294.631 388.645 294.636 388.782 294.633 388.931C294.634 389.207 294.541 389.549 294.355 389.956C294.169 390.364 293.94 390.796 293.668 391.252C293.406 391.706 293.114 392.171 292.793 392.647C292.48 393.112 292.187 393.545 291.915 393.948C291.652 394.339 291.431 394.679 291.254 394.968C291.087 395.255 291.013 395.445 291.03 395.537C291.046 395.619 291.062 395.674 291.079 395.703C291.095 395.731 291.144 395.738 291.226 395.722C291.732 395.379 292.291 394.979 292.902 394.52C293.522 394.05 294.135 393.575 294.742 393.096C295.35 392.617 295.923 392.156 296.463 391.711C297 391.257 297.455 390.866 297.827 390.539C297.909 390.47 297.993 390.411 298.079 390.362C298.173 390.302 298.261 390.263 298.343 390.247C298.527 390.212 298.692 390.243 298.839 390.342C298.986 390.441 299.079 390.593 299.118 390.797C299.164 391.032 299.115 391.323 298.97 391.67C298.833 392.004 298.561 392.38 298.155 392.799C297.84 393.094 297.486 393.428 297.092 393.801C296.706 394.163 296.297 394.545 295.866 394.947C295.443 395.337 295.009 395.724 294.564 396.108C294.128 396.489 293.703 396.837 293.286 397.152C292.87 397.466 292.471 397.735 292.09 397.957C291.717 398.168 291.382 398.302 291.086 398.359C290.38 398.497 289.816 398.431 289.392 398.163C288.979 397.893 288.721 397.493 288.617 396.961C288.601 396.879 288.595 396.817 288.597 396.774C288.581 396.31 288.629 395.85 288.742 395.393C288.855 394.936 288.997 394.494 289.169 394.068C289.341 393.642 289.527 393.235 289.727 392.845C289.926 392.446 290.103 392.077 290.26 391.739C290.426 391.388 290.555 391.072 290.649 390.788C290.742 390.505 290.768 390.256 290.726 390.041C290.716 389.99 290.696 389.941 290.666 389.893C290.635 389.846 290.584 389.83 290.513 389.844C290.39 389.867 290.194 389.953 289.926 390.101C289.668 390.246 289.395 390.427 289.108 390.642C288.821 390.857 288.554 391.094 288.307 391.355C288.059 391.604 287.895 391.854 287.816 392.103C287.708 392.421 287.59 392.821 287.46 393.302C287.331 393.783 287.196 394.287 287.054 394.814C286.922 395.338 286.795 395.856 286.671 396.368C286.548 396.88 286.443 397.32 286.355 397.687C286.29 398.008 286.178 398.305 286.019 398.58C285.871 398.853 285.695 399.094 285.491 399.304C285.288 399.513 285.072 399.687 284.845 399.827C284.617 399.967 284.401 400.057 284.197 400.096C283.962 400.142 283.76 400.118 283.593 400.023C283.437 399.926 283.331 399.739 283.278 399.463C283.256 399.351 283.244 399.21 283.243 399.04C283.25 398.858 283.29 398.654 283.363 398.428C283.48 398.045 283.59 397.63 283.695 397.186C283.809 396.739 283.939 396.231 284.083 395.662C284.225 395.082 284.389 394.424 284.575 393.688C284.769 392.939 284.999 392.077 285.266 391.102C285.099 391.007 284.947 390.883 284.811 390.729C284.683 390.563 284.594 390.347 284.542 390.081C284.494 389.835 284.505 389.616 284.573 389.422C284.64 389.218 284.749 389.043 284.901 388.897C285.053 388.751 285.236 388.63 285.451 388.535C285.675 388.428 285.914 388.35 286.17 388.3C286.436 388.248 286.706 388.222 286.982 388.222C287.256 388.211 287.504 388.232 287.726 388.284C287.959 388.334 288.155 388.413 288.314 388.52C288.472 388.627 288.569 388.768 288.602 388.941C288.608 388.972 288.606 389.015 288.596 389.07C288.585 389.125 288.57 389.186 288.552 389.254C288.543 389.319 288.534 389.379 288.523 389.434C288.513 389.489 288.51 389.532 288.516 389.563C288.52 389.583 288.527 389.593 288.538 389.591L288.553 389.588L288.581 389.566ZM302.143 387.44C301.662 387.533 301.221 387.746 300.819 388.079C300.425 388.4 300.092 388.793 299.822 389.26C299.56 389.714 299.376 390.211 299.269 390.752C299.16 391.283 299.156 391.809 299.257 392.33C299.295 392.524 299.352 392.736 299.428 392.965C299.503 393.184 299.606 393.387 299.738 393.574C299.878 393.748 300.053 393.884 300.263 393.981C300.472 394.078 300.731 394.097 301.038 394.037C301.508 393.946 301.939 393.735 302.331 393.404C302.731 393.061 303.066 392.656 303.337 392.19C303.605 391.713 303.791 391.199 303.897 390.648C304.002 390.097 304.004 389.561 303.902 389.04C303.862 388.835 303.806 388.628 303.734 388.42C303.67 388.199 303.569 388.006 303.431 387.842C303.303 387.676 303.136 387.554 302.93 387.478C302.722 387.391 302.46 387.378 302.143 387.44ZM302.416 384.585C302.804 384.51 303.228 384.48 303.688 384.497C304.158 384.512 304.605 384.605 305.031 384.777C305.458 384.949 305.833 385.215 306.158 385.577C306.491 385.926 306.715 386.397 306.831 386.99C306.89 387.297 306.918 387.657 306.914 388.072C306.907 388.477 306.864 388.909 306.784 389.371C306.91 389.474 307.045 389.538 307.187 389.563C307.33 389.588 307.478 389.586 307.632 389.556C307.847 389.514 308.07 389.407 308.302 389.235C308.544 389.061 308.784 388.849 309.022 388.601C309.26 388.353 309.494 388.08 309.722 387.781C309.95 387.482 310.164 387.186 310.361 386.893C310.559 386.6 310.734 386.327 310.887 386.074C311.047 385.81 311.179 385.588 311.282 385.408C311.34 385.323 311.42 385.27 311.522 385.25C311.665 385.222 311.808 385.274 311.95 385.406C312.091 385.527 312.187 385.721 312.238 385.987C312.29 386.252 312.268 386.575 312.172 386.955C312.086 387.332 311.865 387.752 311.509 388.213C311.316 388.527 311.094 388.888 310.845 389.298C310.595 389.707 310.321 390.1 310.023 390.476C309.725 390.852 309.402 391.186 309.056 391.476C308.709 391.766 308.341 391.949 307.952 392.025C307.687 392.076 307.418 392.086 307.146 392.054C306.885 392.02 306.609 391.936 306.317 391.801C306.06 392.445 305.743 393.048 305.364 393.61C304.985 394.172 304.537 394.678 304.019 395.129C303.512 395.578 302.939 395.96 302.3 396.275C301.673 396.598 300.982 396.834 300.225 396.981C299.939 397.036 299.595 397.045 299.195 397.006C298.795 396.967 298.396 396.853 297.999 396.665C297.61 396.465 297.257 396.178 296.94 395.805C296.623 395.431 296.406 394.943 296.289 394.34C296.21 393.931 296.181 393.427 296.202 392.828C296.224 392.23 296.309 391.603 296.458 390.948C296.615 390.281 296.84 389.611 297.134 388.939C297.436 388.254 297.827 387.621 298.308 387.039C298.787 386.447 299.367 385.936 300.048 385.507C300.727 385.067 301.516 384.76 302.416 384.585ZM312.879 380.355C312.843 380.117 312.848 379.867 312.892 379.604C312.945 379.328 313.043 379.071 313.187 378.83C313.332 378.59 313.524 378.378 313.764 378.193C314.004 378.008 314.303 377.881 314.661 377.812C315.223 377.702 315.638 377.733 315.904 377.904C316.179 378.063 316.347 378.301 316.409 378.618C316.449 378.822 316.452 379.055 316.418 379.317C316.392 379.566 316.318 379.814 316.196 380.06C316.084 380.305 315.915 380.523 315.687 380.716C315.459 380.909 315.166 381.04 314.808 381.11C314.174 381.233 313.711 381.222 313.417 381.078C313.132 380.921 312.953 380.68 312.879 380.355ZM312.38 392.199C312.892 391.558 313.56 390.818 314.383 389.979C315.215 389.127 316.236 388.154 317.445 387.06C317.581 386.938 317.72 386.863 317.863 386.835C318.088 386.791 318.29 386.848 318.469 387.004C318.658 387.158 318.778 387.368 318.83 387.634C318.882 387.9 318.836 388.211 318.693 388.568C318.548 388.914 318.26 389.257 317.827 389.596L313.334 394.162C313.149 394.41 312.978 394.624 312.822 394.803C312.678 394.99 312.527 395.168 312.369 395.337C312.223 395.514 312.065 395.687 311.897 395.858C311.741 396.037 311.561 396.231 311.358 396.44C311.023 397.397 310.715 398.21 310.431 398.881C310.15 399.562 309.85 400.124 309.533 400.567C309.218 401.021 308.873 401.375 308.498 401.628C308.123 401.882 307.674 402.059 307.153 402.16C306.672 402.254 306.321 402.221 306.099 402.063C305.869 401.916 305.721 401.675 305.656 401.337C305.594 401.02 305.68 400.669 305.913 400.284C306.148 399.91 306.431 399.51 306.762 399.085C307.095 398.67 307.429 398.228 307.762 397.76C308.087 397.304 308.314 396.831 308.441 396.339C308.606 395.713 308.783 395.041 308.973 394.325C309.152 393.611 309.335 392.886 309.521 392.15C309.707 391.413 309.893 390.682 310.081 389.955C310.277 389.217 310.46 388.518 310.629 387.859C310.806 387.188 310.972 386.567 311.126 385.996C311.291 385.423 311.434 384.933 311.557 384.527C311.686 384.099 311.892 383.767 312.175 383.532C312.467 383.284 312.766 383.13 313.072 383.071C313.4 383.007 313.699 383.044 313.97 383.183C314.241 383.321 314.409 383.559 314.474 383.897C314.518 384.121 314.538 384.33 314.532 384.522C314.537 384.712 314.512 384.934 314.455 385.19C314.397 385.434 314.312 385.737 314.202 386.098C314.1 386.447 313.964 386.893 313.793 387.435C313.623 387.978 313.422 388.638 313.191 389.415C312.958 390.181 312.688 391.11 312.38 392.199ZM322.947 382.775C322.894 382.775 322.847 382.778 322.806 382.786C322.765 382.794 322.719 382.803 322.668 382.813C322.28 382.889 321.932 383.036 321.624 383.255C321.316 383.474 321.044 383.739 320.808 384.05C320.579 384.349 320.383 384.679 320.22 385.04C320.067 385.399 319.934 385.753 319.822 386.104C319.708 386.445 319.617 386.77 319.55 387.08C319.493 387.388 319.453 387.646 319.43 387.852C319.752 387.598 320.079 387.317 320.412 387.008C320.755 386.698 321.074 386.402 321.37 386.122C321.665 385.841 321.919 385.591 322.13 385.369C322.352 385.145 322.508 384.993 322.599 384.912C323.003 384.536 323.269 384.209 323.395 383.929C323.519 383.64 323.563 383.403 323.527 383.219C323.497 383.066 323.422 382.953 323.302 382.881C323.192 382.807 323.074 382.771 322.947 382.775ZM323.088 380.551C323.937 380.386 324.611 380.467 325.109 380.795C325.608 381.122 325.928 381.649 326.069 382.375C326.153 382.804 326.128 383.276 325.994 383.79C325.86 384.304 325.565 384.86 325.109 385.459C324.65 386.047 324.005 386.687 323.174 387.379C322.351 388.059 321.294 388.789 320.003 389.571C320.111 389.858 320.315 390.062 320.615 390.184C320.913 390.296 321.281 390.309 321.721 390.224C322.192 390.132 322.68 389.968 323.186 389.732C323.7 389.484 324.197 389.201 324.676 388.885C325.166 388.567 325.638 388.237 326.091 387.894C326.543 387.541 326.946 387.213 327.301 386.911C327.666 386.606 327.966 386.346 328.2 386.131C328.444 385.914 328.608 385.776 328.692 385.717C328.773 385.638 328.847 385.586 328.917 385.562C328.997 385.536 329.067 385.517 329.129 385.505C329.251 385.481 329.36 385.492 329.453 385.537C329.545 385.573 329.625 385.626 329.692 385.698C329.767 385.758 329.824 385.831 329.862 385.919C329.898 385.997 329.922 386.067 329.934 386.128C329.952 386.22 329.964 386.335 329.969 386.472C329.973 386.598 329.924 386.756 329.823 386.946C329.781 387.007 329.634 387.179 329.382 387.461C329.139 387.742 328.818 388.08 328.417 388.477C328.017 388.873 327.543 389.304 326.997 389.771C326.46 390.226 325.876 390.663 325.247 391.082C324.627 391.5 323.968 391.872 323.267 392.199C322.569 392.537 321.862 392.775 321.146 392.914C320.532 393.033 319.962 393.022 319.436 392.88C318.92 392.737 318.455 392.498 318.04 392.165C317.635 391.83 317.295 391.418 317.02 390.931C316.744 390.443 316.551 389.913 316.44 389.34C316.354 388.901 316.348 388.403 316.42 387.848C316.491 387.282 316.638 386.702 316.862 386.107C317.086 385.511 317.384 384.917 317.757 384.325C318.138 383.72 318.588 383.166 319.105 382.662C319.623 382.158 320.211 381.72 320.871 381.348C321.541 380.974 322.28 380.708 323.088 380.551ZM335.927 379.536C335.989 379.853 336.022 380.212 336.025 380.615C336.027 381.007 335.979 381.388 335.881 381.757C335.783 382.126 335.628 382.448 335.417 382.723C335.205 382.997 334.91 383.171 334.531 383.245C334.327 383.285 334.188 383.28 334.114 383.231C334.051 383.179 334.005 383.077 333.975 382.923C333.957 382.831 333.931 382.698 333.898 382.525C333.872 382.339 333.843 382.164 333.812 382C333.776 381.816 333.72 381.668 333.646 381.555C333.569 381.432 333.428 381.39 333.223 381.43C332.988 381.476 332.74 381.619 332.479 381.861C332.227 382.091 331.98 382.377 331.739 382.721C331.509 383.063 331.291 383.445 331.087 383.867C330.88 384.278 330.701 384.695 330.55 385.117C330.406 385.527 330.302 385.919 330.237 386.292C330.182 386.664 330.178 386.972 330.226 387.218C330.295 387.576 330.473 387.833 330.758 387.99C331.053 388.145 331.416 388.18 331.845 388.097C332.305 388.007 332.781 387.835 333.273 387.58C333.764 387.326 334.243 387.031 334.709 386.696C335.184 386.36 335.636 386.007 336.063 385.637C336.49 385.268 336.873 384.923 337.214 384.602C337.563 384.269 337.854 383.989 338.086 383.764C338.316 383.528 338.468 383.382 338.542 383.325C338.69 383.211 338.835 383.141 338.978 383.113C339.101 383.089 339.209 383.1 339.303 383.145C339.405 383.178 339.489 383.231 339.556 383.303C339.621 383.365 339.673 383.439 339.711 383.527C339.748 383.605 339.772 383.675 339.784 383.736C339.802 383.828 339.813 383.943 339.819 384.08C339.822 384.206 339.773 384.364 339.672 384.554C339.633 384.625 339.495 384.816 339.258 385.128C339.03 385.427 338.724 385.789 338.339 386.214C337.965 386.636 337.525 387.099 337.017 387.601C336.518 388.09 335.967 388.558 335.364 389.004C334.771 389.449 334.142 389.842 333.476 390.183C332.812 390.535 332.138 390.778 331.453 390.911C330.931 391.012 330.45 391.021 330.009 390.937C329.579 390.851 329.199 390.696 328.869 390.474C328.537 390.241 328.263 389.95 328.046 389.599C327.83 389.249 327.681 388.864 327.599 388.445C327.51 387.984 327.515 387.437 327.614 386.802C327.712 386.157 327.889 385.486 328.146 384.789C328.403 384.091 328.729 383.391 329.123 382.689C329.517 381.986 329.964 381.342 330.466 380.756C330.978 380.169 331.528 379.669 332.117 379.257C332.715 378.844 333.347 378.573 334.012 378.443C334.237 378.4 334.451 378.385 334.655 378.398C334.87 378.409 335.06 378.457 335.225 378.542C335.398 378.614 335.543 378.735 335.661 378.903C335.789 379.069 335.877 379.28 335.927 379.536ZM341.991 379.614C341.756 380.424 341.538 381.214 341.338 381.986C341.136 382.747 340.944 383.452 340.762 384.103C340.687 384.372 340.62 384.682 340.561 385.034C340.51 385.372 340.509 385.665 340.557 385.91C340.584 386.053 340.637 386.16 340.714 386.229C340.802 386.297 340.922 386.316 341.076 386.287C341.29 386.245 341.549 386.131 341.853 385.945C342.154 385.748 342.474 385.511 342.813 385.233C343.149 384.944 343.501 384.627 343.869 384.279C344.234 383.922 344.589 383.561 344.932 383.197C345.283 382.821 345.615 382.454 345.928 382.096C346.238 381.728 346.513 381.394 346.751 381.093C346.893 380.948 347.035 380.862 347.179 380.834C347.352 380.801 347.51 380.849 347.653 380.981C347.795 381.112 347.889 381.296 347.935 381.531C347.98 381.766 347.971 382.017 347.906 382.285C347.841 382.552 347.684 382.832 347.433 383.125C346.885 383.857 346.322 384.561 345.742 385.236C345.173 385.909 344.591 386.521 343.998 387.072C343.413 387.61 342.817 388.065 342.21 388.438C341.603 388.81 340.993 389.056 340.38 389.176C339.971 389.255 339.617 389.265 339.319 389.207C339.023 389.158 338.77 389.059 338.561 388.908C338.359 388.746 338.199 388.549 338.08 388.317C337.959 388.076 337.87 387.812 337.814 387.525C337.715 387.014 337.699 386.465 337.765 385.879C337.832 385.294 337.93 384.76 338.059 384.278C338.242 383.585 338.422 382.897 338.597 382.216C338.783 381.533 338.963 380.877 339.138 380.248L338.478 380.377C337.906 380.488 337.494 380.472 337.244 380.33C336.993 380.188 336.845 379.999 336.799 379.764C336.779 379.662 336.786 379.533 336.82 379.378C336.861 379.211 336.932 379.054 337.031 378.907C337.138 378.748 337.274 378.605 337.441 378.477C337.607 378.35 337.807 378.263 338.043 378.217L339.699 377.895L341.686 370.839C341.815 370.411 342.012 370.086 342.277 369.865C342.55 369.632 342.85 369.483 343.177 369.419C343.484 369.36 343.781 369.387 344.068 369.501C344.356 369.615 344.536 369.861 344.61 370.239C344.647 370.434 344.64 370.642 344.588 370.864C344.544 371.074 344.476 371.326 344.385 371.62C344.326 371.812 344.255 372.043 344.169 372.315C344.082 372.576 343.989 372.859 343.889 373.165C343.798 373.459 343.699 373.77 343.593 374.098C343.497 374.424 343.399 374.74 343.3 375.046C343.079 375.768 342.845 376.53 342.598 377.332L347.598 376.36C347.843 376.312 348.071 376.284 348.282 376.274C348.49 376.255 348.674 376.272 348.833 376.326C349 376.368 349.138 376.448 349.246 376.565C349.353 376.682 349.429 376.853 349.473 377.078C349.494 377.19 349.496 377.307 349.477 377.427C349.468 377.545 349.421 377.661 349.337 377.773C349.263 377.882 349.145 377.985 348.983 378.08C348.831 378.173 348.625 378.256 348.363 378.328L341.991 379.614ZM349.9 377.966C350.587 378.172 351.217 378.436 351.789 378.76C352.362 379.084 352.862 379.448 353.291 379.853C353.728 380.246 354.08 380.665 354.348 381.112C354.625 381.557 354.809 382.009 354.898 382.47C355.011 383.052 354.945 383.612 354.699 384.148C354.461 384.672 354.103 385.15 353.625 385.582C353.155 386.003 352.588 386.362 351.924 386.661C351.273 386.968 350.595 387.19 349.889 387.327C349.357 387.43 348.829 387.469 348.304 387.444C347.781 387.429 347.286 387.34 346.819 387.176C346.363 387.01 345.949 386.766 345.579 386.446C345.207 386.115 344.908 385.695 344.682 385.188C344.646 385.11 344.623 385.045 344.613 384.994C344.559 384.718 344.61 384.464 344.767 384.232C344.921 383.99 345.116 383.846 345.351 383.8C345.464 383.778 345.591 383.775 345.732 383.79C345.883 383.803 346.008 383.874 346.107 384.003C346.288 384.223 346.515 384.407 346.788 384.555C347.071 384.702 347.375 384.818 347.699 384.904C348.021 384.979 348.354 385.026 348.697 385.044C349.049 385.05 349.383 385.022 349.7 384.96C350.027 384.897 350.333 384.805 350.617 384.686C350.912 384.566 351.159 384.417 351.358 384.24C351.568 384.061 351.719 383.857 351.812 383.627C351.905 383.396 351.923 383.133 351.865 382.836C351.764 382.315 351.553 381.857 351.232 381.463C350.912 381.069 350.526 380.725 350.077 380.43C349.635 380.123 349.143 379.858 348.601 379.635C348.067 379.399 347.536 379.178 347.008 378.973C346.951 378.953 346.857 378.881 346.727 378.757C346.595 378.624 346.514 378.48 346.484 378.327C346.46 378.204 346.472 378.101 346.52 378.018C346.642 377.771 346.788 377.515 346.959 377.248C347.13 376.981 347.32 376.732 347.53 376.5C347.738 376.258 347.974 376.053 348.238 375.885C348.5 375.707 348.785 375.588 349.092 375.528C349.317 375.484 349.532 375.474 349.739 375.498C349.945 375.521 350.124 375.571 350.277 375.648C350.428 375.714 350.551 375.802 350.646 375.91C350.75 376.007 350.812 376.106 350.832 376.209C350.86 376.352 350.851 376.497 350.805 376.644C350.759 376.79 350.687 376.937 350.588 377.084C350.499 377.228 350.39 377.377 350.261 377.529C350.141 377.68 350.021 377.825 349.9 377.966Z" fill="black"/>
<path d="M244.753 321.387L237.656 314.745L238.054 313.62L240.778 310.719L241.249 311.816L238.858 314.372L241.333 316.688L244.052 313.784L244.523 314.88L242.132 317.436L245.151 320.262L244.753 321.387Z" fill="black"/>
<path d="M253.498 312.786L247.444 305.015L248.096 304.074L249.676 302.843C250.342 302.324 251.091 302.122 251.924 302.235C252.768 302.346 253.45 302.736 253.971 303.405C254.497 304.081 254.711 304.836 254.61 305.671C254.565 306.059 254.46 306.413 254.293 306.733L258.111 308.585L257.537 309.639L253.579 307.618C253.543 307.646 253.506 307.676 253.466 307.707L251.886 308.938L254.066 311.736L253.498 312.786ZM248.769 304.936L251.214 308.075L252.81 306.831C253.238 306.498 253.485 306.06 253.553 305.516C253.62 304.972 253.485 304.483 253.146 304.048C252.813 303.62 252.373 303.371 251.826 303.3C251.28 303.228 250.793 303.36 250.365 303.693L248.769 304.936Z" fill="black"/>
<path d="M263.157 300.457L264.795 303.418L269.054 301.062L269.165 302.25L264.368 304.904L259.729 296.517L260.454 295.569L263.939 293.65L264.05 294.838L260.987 296.532L262.628 299.499L266.109 297.574L266.22 298.762L263.157 300.457Z" fill="black"/>
<path d="M275.395 294.63L276.551 297.81L281.125 296.147L281.049 297.339L275.897 299.212L272.623 290.204L273.487 289.381L277.229 288.028L277.153 289.22L273.863 290.415L275.021 293.602L278.761 292.243L278.685 293.434L275.395 294.63Z" fill="black"/>
<path d="M285.883 285.936L286.865 285.258L288.602 294.189L293.379 293.26L293.118 294.425L287.737 295.471L285.883 285.936Z" fill="black"/>
<path d="M300.354 293.68L300.096 286.397C300.067 285.559 300.342 284.834 300.922 284.22C301.502 283.602 302.218 283.278 303.07 283.248C303.922 283.218 304.659 283.491 305.281 284.066C305.903 284.637 306.229 285.341 306.259 286.179L306.499 292.984L305.423 293.501L305.26 288.889L301.284 289.03L301.43 293.163L300.354 293.68ZM301.245 287.937L305.221 287.796L305.165 286.198C305.141 285.651 304.929 285.194 304.528 284.825C304.123 284.451 303.649 284.274 303.107 284.294C302.56 284.313 302.098 284.523 301.72 284.924C301.346 285.32 301.169 285.785 301.188 286.318L301.189 286.338L301.245 287.937Z" fill="black"/>
<path d="M313.193 293.738L314.074 286.504C314.176 285.672 314.561 284.998 315.23 284.483C315.899 283.963 316.657 283.755 317.503 283.858C318.349 283.961 319.034 284.345 319.559 285.01C320.085 285.671 320.297 286.418 320.195 287.25L319.372 294.009L318.228 294.352L319.112 287.098C319.174 286.554 319.035 286.069 318.697 285.642C318.355 285.21 317.915 284.962 317.376 284.896C316.833 284.83 316.344 284.965 315.908 285.302C315.477 285.635 315.23 286.067 315.165 286.596C315.164 286.605 315.163 286.612 315.163 286.616L314.337 293.395L313.193 293.738Z" fill="black"/>
<path d="M332.786 294.019L332.63 294.565C332.4 295.371 331.914 295.979 331.172 296.388C330.431 296.793 329.65 296.878 328.831 296.644C328.007 296.409 327.389 295.925 326.978 295.192C326.563 294.453 326.471 293.68 326.701 292.873L327.865 288.791C328.095 287.985 328.581 287.379 329.322 286.975C330.064 286.565 330.845 286.478 331.665 286.712C332.493 286.948 333.11 287.434 333.516 288.171C333.929 288.914 334.022 289.685 333.795 290.483L333.778 290.542L332.589 290.722L332.749 290.163C332.897 289.641 332.836 289.141 332.566 288.661C332.295 288.181 331.899 287.866 331.378 287.717C330.847 287.566 330.343 287.624 329.864 287.89C329.386 288.152 329.073 288.546 328.923 289.071L327.747 293.193C327.598 293.715 327.657 294.215 327.923 294.694C328.189 295.172 328.588 295.487 329.118 295.639C329.639 295.787 330.142 295.729 330.625 295.464C331.107 295.204 331.423 294.81 331.573 294.285L331.595 294.206L332.786 294.019Z" fill="black"/>
<path d="M341.494 296.315L340.07 299.385L344.485 301.434L343.59 302.224L338.617 299.916L342.652 291.223L343.845 291.249L347.451 292.93L346.557 293.721L343.382 292.248L341.955 295.323L345.564 296.998L344.669 297.789L341.494 296.315Z" fill="black"/>
</svg>
