<svg width="633" height="694" viewBox="0 0 633 694" fill="none" xmlns="http://www.w3.org/2000/svg">
<path d="M161.909 193.422L256.109 254.315L263.451 142.389L309.776 244.542L376.464 154.354L360.207 265.336L465.068 225.519L391.39 310.093L501.132 333.29L393.425 364.605L473.205 443.45L365.666 411.563L390.154 521.024L316.926 436.06L278.348 541.383L262.68 430.316L173.284 498.063L220.15 396.157L108.318 404.818L202.839 344.427L104.078 291.252L216.244 291.55L161.909 193.422Z" stroke="black"/>
<path d="M263.576 268.318L269.598 176.529L307.588 260.304L307.939 261.079L308.445 260.395L363.136 186.432L349.803 277.447L349.68 278.289L350.475 277.987L436.471 245.334L376.049 314.693L375.49 315.334L376.322 315.51L466.32 334.533L377.991 360.215L377.174 360.452L377.779 361.05L443.206 425.71L355.015 399.56L354.199 399.318L354.384 400.149L374.467 489.916L314.413 420.238L313.858 419.593L313.565 420.392L281.928 506.767L269.078 415.682L268.959 414.84L268.281 415.354L194.968 470.912L233.403 387.34L233.758 386.567L232.91 386.633L141.198 393.736L218.714 344.209L219.431 343.751L218.682 343.348L137.689 299.74L229.675 299.984L230.526 299.986L230.114 299.242L185.554 218.769L262.806 268.705L263.521 269.167L263.576 268.318Z" stroke="black"/>
<path d="M270.548 326.175C271.386 325.63 272.11 325.097 272.72 324.575C273.329 324.053 273.827 323.559 274.214 323.091C274.599 322.613 274.874 322.172 275.039 321.768C275.205 321.365 275.259 321.015 275.201 320.718C275.182 320.616 275.108 320.508 274.979 320.395C274.851 320.282 274.669 320.19 274.432 320.12C274.206 320.047 273.927 320.005 273.597 319.995C273.264 319.975 272.888 320.006 272.468 320.087C271.344 320.306 270.327 320.647 269.42 321.11C268.51 321.562 267.7 322.06 266.988 322.601C266.276 323.143 265.66 323.687 265.14 324.234C264.619 324.77 264.184 325.237 263.837 325.633C263.619 325.877 263.432 326.115 263.275 326.347C263.127 326.567 262.976 326.772 262.821 326.961C262.675 327.138 262.509 327.292 262.322 327.424C262.136 327.556 261.899 327.649 261.613 327.705C261.184 327.788 260.826 327.752 260.541 327.595C260.266 327.436 260.093 327.173 260.021 326.805C259.936 326.365 260.019 325.866 260.272 325.307C260.522 324.739 260.906 324.15 261.424 323.539C261.942 322.929 262.573 322.324 263.315 321.723C264.056 321.112 264.869 320.546 265.755 320.024C266.65 319.499 267.595 319.035 268.588 318.629C269.591 318.222 270.614 317.917 271.657 317.714C272.731 317.506 273.673 317.413 274.484 317.435C275.295 317.458 275.975 317.575 276.526 317.787C277.086 317.996 277.525 318.287 277.842 318.661C278.169 319.032 278.38 319.464 278.475 319.954C278.571 320.445 278.506 320.988 278.283 321.584C278.059 322.179 277.692 322.802 277.181 323.453C276.682 324.102 276.04 324.757 275.256 325.419C274.48 326.069 273.584 326.699 272.567 327.311C273.721 327.458 274.674 327.665 275.426 327.933C276.187 328.188 276.798 328.494 277.26 328.85C277.73 329.194 278.076 329.583 278.298 330.017C278.519 330.441 278.675 330.893 278.769 331.374C278.906 332.079 278.847 332.812 278.592 333.573C278.336 334.334 277.92 335.088 277.344 335.837C276.776 336.574 276.068 337.295 275.218 338.001C274.377 338.695 273.436 339.34 272.395 339.935C271.352 340.52 270.231 341.035 269.034 341.48C267.838 341.935 266.607 342.286 265.339 342.532C264.889 342.62 264.429 342.682 263.959 342.721C263.489 342.759 263.046 342.75 262.632 342.692C262.228 342.633 261.881 342.514 261.592 342.337C261.313 342.158 261.139 341.889 261.069 341.531C261.061 341.491 261.054 341.455 261.048 341.424C261.051 341.381 261.052 341.333 261.052 341.28C261.077 341.19 261.104 341.084 261.134 340.962C261.161 340.829 261.256 340.689 261.418 340.54C261.58 340.392 261.849 340.245 262.223 340.097C262.606 339.938 263.166 339.787 263.902 339.644C264.725 337.054 265.386 334.835 265.887 332.987C266.395 331.126 266.824 329.594 267.174 328.391C267.524 327.187 267.837 326.288 268.114 325.693C268.401 325.096 268.729 324.762 269.097 324.69C269.261 324.658 269.424 324.653 269.588 324.675C269.751 324.696 269.898 324.742 270.028 324.812C270.167 324.87 270.285 324.958 270.382 325.077C270.478 325.186 270.54 325.317 270.57 325.47C270.508 325.589 270.483 325.705 270.495 325.819C270.504 325.924 270.522 326.042 270.548 326.175ZM270.274 329.269C270.016 330.401 269.763 331.421 269.515 332.329C269.278 333.235 269.047 334.07 268.825 334.835C268.6 335.59 268.383 336.3 268.173 336.967C267.971 337.622 267.772 338.265 267.577 338.898C268.743 338.565 269.808 338.146 270.771 337.64C271.742 337.122 272.561 336.56 273.228 335.953C273.906 335.343 274.404 334.711 274.722 334.055C275.05 333.397 275.153 332.751 275.029 332.117C274.974 331.83 274.849 331.542 274.654 331.25C274.47 330.957 274.193 330.682 273.825 330.425C273.457 330.167 272.982 329.936 272.401 329.731C271.82 329.525 271.111 329.371 270.274 329.269ZM284.97 328.8C285.321 328.477 285.686 328.172 286.066 327.886C286.455 327.598 286.836 327.344 287.207 327.123C287.576 326.892 287.931 326.701 288.273 326.55C288.623 326.386 288.942 326.277 289.228 326.221C289.688 326.132 290.063 326.175 290.352 326.353C290.649 326.518 290.848 326.861 290.95 327.383C290.972 327.495 290.99 327.619 291.006 327.754C291.02 327.878 291.025 328.015 291.022 328.164C291.023 328.44 290.93 328.782 290.744 329.189C290.558 329.597 290.329 330.029 290.057 330.485C289.795 330.939 289.503 331.404 289.182 331.881C288.869 332.345 288.576 332.778 288.305 333.181C288.041 333.572 287.821 333.912 287.643 334.201C287.476 334.488 287.402 334.678 287.42 334.77C287.435 334.852 287.452 334.907 287.468 334.936C287.484 334.964 287.533 334.971 287.615 334.955C288.121 334.612 288.68 334.212 289.291 333.754C289.911 333.283 290.524 332.808 291.131 332.329C291.739 331.851 292.312 331.389 292.852 330.944C293.39 330.49 293.844 330.099 294.216 329.772C294.298 329.703 294.382 329.644 294.468 329.596C294.562 329.535 294.65 329.497 294.732 329.481C294.916 329.445 295.082 329.476 295.228 329.575C295.375 329.674 295.468 329.826 295.508 330.03C295.553 330.265 295.504 330.556 295.359 330.903C295.222 331.237 294.95 331.614 294.544 332.032C294.23 332.327 293.875 332.661 293.481 333.035C293.095 333.396 292.686 333.778 292.255 334.18C291.832 334.57 291.398 334.957 290.953 335.341C290.518 335.722 290.092 336.07 289.675 336.385C289.259 336.699 288.86 336.968 288.479 337.19C288.106 337.401 287.771 337.535 287.475 337.593C286.769 337.73 286.205 337.664 285.781 337.396C285.368 337.127 285.11 336.726 285.006 336.194C284.99 336.112 284.984 336.05 284.986 336.007C284.97 335.543 285.018 335.083 285.131 334.626C285.244 334.169 285.386 333.727 285.558 333.301C285.73 332.875 285.916 332.468 286.116 332.079C286.315 331.679 286.492 331.31 286.65 330.972C286.815 330.622 286.944 330.305 287.038 330.021C287.131 329.738 287.157 329.489 287.115 329.274C287.105 329.223 287.085 329.174 287.055 329.127C287.024 329.079 286.973 329.063 286.902 329.077C286.779 329.101 286.584 329.186 286.315 329.334C286.057 329.48 285.784 329.66 285.497 329.875C285.21 330.09 284.943 330.328 284.697 330.588C284.448 330.838 284.284 331.087 284.205 331.336C284.097 331.654 283.979 332.054 283.849 332.535C283.72 333.017 283.585 333.52 283.443 334.047C283.311 334.571 283.184 335.089 283.061 335.601C282.937 336.113 282.832 336.553 282.744 336.92C282.679 337.241 282.567 337.538 282.408 337.813C282.26 338.086 282.084 338.327 281.88 338.537C281.677 338.746 281.461 338.921 281.234 339.06C281.006 339.2 280.79 339.29 280.586 339.33C280.351 339.375 280.15 339.351 279.983 339.256C279.826 339.159 279.721 338.972 279.667 338.696C279.645 338.584 279.634 338.443 279.632 338.273C279.64 338.092 279.68 337.887 279.752 337.661C279.869 337.278 279.979 336.864 280.084 336.419C280.199 335.972 280.328 335.464 280.472 334.895C280.614 334.315 280.778 333.657 280.964 332.921C281.158 332.172 281.388 331.31 281.655 330.335C281.488 330.24 281.336 330.116 281.2 329.962C281.073 329.796 280.983 329.58 280.931 329.314C280.883 329.069 280.894 328.849 280.962 328.655C281.029 328.451 281.138 328.276 281.29 328.13C281.442 327.984 281.625 327.863 281.84 327.768C282.064 327.661 282.303 327.583 282.559 327.533C282.825 327.482 283.096 327.455 283.371 327.455C283.645 327.444 283.893 327.465 284.116 327.517C284.348 327.567 284.544 327.646 284.703 327.753C284.861 327.86 284.958 328.001 284.992 328.175C284.997 328.205 284.995 328.248 284.985 328.303C284.974 328.358 284.96 328.42 284.941 328.487C284.932 328.552 284.923 328.612 284.912 328.668C284.902 328.723 284.899 328.766 284.905 328.796C284.909 328.817 284.916 328.826 284.927 328.824L284.942 328.821L284.97 328.8ZM298.731 326.714C298.25 326.807 297.809 327.02 297.407 327.353C297.004 327.686 296.668 328.086 296.398 328.552C296.128 329.018 295.939 329.522 295.832 330.063C295.723 330.593 295.717 331.109 295.815 331.61C295.854 331.815 295.906 332.027 295.971 332.248C296.043 332.457 296.143 332.645 296.271 332.811C296.399 332.977 296.556 333.105 296.744 333.196C296.941 333.285 297.183 333.302 297.47 333.246C297.695 333.202 297.937 333.055 298.195 332.803C298.462 332.539 298.725 332.222 298.982 331.854C299.247 331.473 299.498 331.069 299.733 330.641C299.966 330.204 300.171 329.782 300.347 329.376C300.522 328.971 300.659 328.61 300.757 328.294C300.855 327.977 300.891 327.753 300.865 327.62C300.827 327.426 300.727 327.265 300.564 327.137C300.399 327 300.209 326.893 299.993 326.819C299.777 326.744 299.551 326.703 299.316 326.695C299.09 326.676 298.894 326.682 298.731 326.714ZM310.129 328.605C309.979 328.814 309.78 329.102 309.533 329.469C309.286 329.835 308.998 330.236 308.669 330.671C308.35 331.105 308.001 331.549 307.623 332.005C307.252 332.448 306.861 332.864 306.448 333.252C306.046 333.638 305.637 333.967 305.223 334.238C304.811 334.52 304.406 334.699 304.007 334.777C303.649 334.847 303.327 334.829 303.042 334.726C302.756 334.622 302.503 334.464 302.281 334.253C302.07 334.039 301.894 333.787 301.752 333.496C301.609 333.195 301.505 332.881 301.442 332.554C301.4 332.339 301.375 332.126 301.366 331.916C301.355 331.695 301.367 331.486 301.403 331.288C301.169 331.779 300.893 332.294 300.573 332.834C300.262 333.361 299.908 333.86 299.511 334.33C299.122 334.787 298.695 335.183 298.23 335.518C297.776 335.861 297.289 336.083 296.767 336.184C296.502 336.236 296.179 336.24 295.799 336.197C295.431 336.163 295.065 336.053 294.701 335.87C294.336 335.686 294.009 335.421 293.718 335.074C293.428 334.727 293.228 334.272 293.119 333.71C293.037 333.291 293.001 332.778 293.011 332.171C293.03 331.562 293.107 330.921 293.242 330.248C293.384 329.562 293.596 328.874 293.875 328.183C294.165 327.49 294.539 326.849 294.998 326.261C295.455 325.663 296.007 325.147 296.655 324.714C297.301 324.27 298.058 323.963 298.927 323.794C299.377 323.707 299.782 323.687 300.141 323.734C300.501 323.78 300.811 323.848 301.072 323.935C301.369 324.047 301.639 324.18 301.882 324.334C302.038 324.209 302.2 324.087 302.368 323.969C302.507 323.868 302.654 323.776 302.807 323.693C302.969 323.598 303.112 323.538 303.234 323.514C303.623 323.439 303.961 323.485 304.248 323.652C304.535 323.819 304.703 324.03 304.753 324.286C304.767 324.357 304.773 324.414 304.771 324.457C304.757 324.662 304.723 324.923 304.668 325.241C304.624 325.558 304.571 325.913 304.509 326.307C304.446 326.69 304.381 327.096 304.316 327.522C304.258 327.937 304.21 328.344 304.171 328.744C304.132 329.144 304.11 329.52 304.104 329.871C304.096 330.213 304.115 330.501 304.161 330.736C304.22 331.043 304.321 331.288 304.463 331.473C304.603 331.647 304.796 331.711 305.041 331.663C305.195 331.633 305.365 331.552 305.551 331.421C305.746 331.277 305.95 331.099 306.164 330.888C306.377 330.676 306.592 330.444 306.808 330.189C307.032 329.923 307.246 329.659 307.45 329.396C307.923 328.774 308.418 328.073 308.935 327.293C309.073 327.128 309.218 327.031 309.372 327.001C309.576 326.961 309.765 327.031 309.938 327.209C310.118 327.376 310.233 327.582 310.28 327.827C310.336 328.114 310.286 328.373 310.129 328.605ZM310.037 323.545C310.156 323.066 310.348 322.689 310.613 322.414C310.878 322.14 311.159 321.974 311.455 321.916C311.701 321.869 311.939 321.918 312.169 322.064C312.397 322.2 312.545 322.442 312.612 322.79C312.638 322.923 312.65 323.069 312.65 323.228C312.649 323.388 312.624 323.562 312.576 323.752C312.746 323.422 313.011 323.068 313.373 322.69C313.732 322.301 314.14 321.941 314.595 321.608C315.059 321.264 315.541 320.963 316.043 320.706C316.555 320.447 317.052 320.271 317.532 320.178C318.074 320.073 318.55 320.118 318.96 320.314C319.377 320.498 319.647 320.902 319.768 321.526C319.84 321.894 319.858 322.289 319.823 322.709C319.788 323.13 319.717 323.558 319.611 323.992C319.514 324.425 319.392 324.857 319.242 325.289C319.101 325.709 318.956 326.109 318.807 326.488C318.658 326.867 318.519 327.218 318.39 327.54C318.27 327.85 318.177 328.107 318.11 328.311C318.009 328.5 317.98 328.702 318.021 328.917C318.037 328.999 318.077 329.066 318.14 329.117C318.203 329.168 318.291 329.183 318.403 329.161C318.475 329.147 318.555 329.126 318.645 329.098C318.733 329.06 318.835 328.982 318.95 328.864C319.462 328.552 319.975 328.187 320.488 327.769C321.011 327.349 321.506 326.919 321.972 326.478C322.436 326.027 322.855 325.59 323.23 325.167C323.612 324.732 323.924 324.347 324.167 324.014C324.235 323.926 324.307 323.859 324.383 323.813C324.459 323.766 324.532 323.736 324.604 323.722C324.778 323.688 324.924 323.729 325.042 323.844C325.17 323.957 325.254 324.116 325.293 324.32C325.355 324.637 325.321 325.01 325.192 325.438C325.074 325.864 324.832 326.288 324.468 326.709C323.967 327.241 323.505 327.729 323.082 328.172C322.669 328.613 322.236 329.037 321.785 329.443C321.341 329.837 320.854 330.224 320.323 330.603C319.8 330.97 319.172 331.341 318.438 331.717C318.188 331.851 317.955 331.96 317.738 332.044C317.531 332.127 317.336 332.186 317.152 332.222C316.61 332.327 316.182 332.257 315.869 332.01C315.564 331.751 315.358 331.35 315.253 330.808C315.239 330.737 315.226 330.67 315.214 330.609C315.211 330.535 315.206 330.457 315.2 330.373C315.159 330.052 315.173 329.688 315.243 329.282C315.323 328.874 315.426 328.451 315.553 328.012C315.69 327.572 315.839 327.134 315.999 326.7C316.156 326.255 316.298 325.84 316.425 325.455C316.56 325.057 316.667 324.708 316.746 324.406C316.826 324.104 316.848 323.866 316.815 323.692C316.785 323.539 316.714 323.42 316.602 323.335C316.498 323.239 316.36 323.207 316.186 323.241C315.531 323.368 314.945 323.684 314.428 324.188C313.921 324.69 313.467 325.277 313.067 325.949C312.665 326.61 312.311 327.3 312.005 328.017C311.698 328.735 311.43 329.376 311.201 329.941C311.062 330.318 310.943 330.717 310.845 331.14C310.755 331.55 310.65 331.942 310.532 332.315C310.412 332.678 310.255 332.99 310.061 333.25C309.88 333.519 309.615 333.687 309.268 333.754C308.91 333.824 308.607 333.766 308.359 333.581C308.11 333.396 307.955 333.14 307.891 332.812C307.857 332.638 307.874 332.343 307.942 331.927C308.009 331.511 308.106 331.025 308.231 330.47C308.357 329.915 308.501 329.319 308.664 328.683C308.835 328.034 309.003 327.396 309.168 326.77C309.341 326.132 309.505 325.532 309.662 324.971C309.818 324.41 309.943 323.935 310.037 323.545ZM332.73 325.565C332.724 325.587 332.724 325.614 332.73 325.644C332.735 325.675 332.735 325.702 332.729 325.724C332.765 325.908 332.849 326.093 332.98 326.28C333.11 326.456 333.277 326.525 333.482 326.485C333.564 326.469 333.623 326.447 333.66 326.418C334.209 326.131 334.743 325.741 335.263 325.247C335.793 324.752 336.29 324.225 336.755 323.668C337.219 323.111 337.636 322.552 338.005 321.993C338.384 321.431 338.691 320.936 338.926 320.508C339.035 320.307 339.177 320.189 339.351 320.155C339.504 320.125 339.651 320.171 339.791 320.292C339.942 320.412 340.041 320.594 340.089 320.839C340.126 321.034 340.115 321.275 340.054 321.562C340.003 321.848 339.885 322.168 339.699 322.523C339.225 323.305 338.731 324.064 338.216 324.801C337.702 325.537 337.169 326.209 336.618 326.814C336.065 327.41 335.495 327.914 334.906 328.325C334.328 328.735 333.732 328.999 333.118 329.118C332.372 329.263 331.743 329.168 331.232 328.832C330.719 328.486 330.38 327.889 330.215 327.04C330.205 326.989 330.195 326.938 330.186 326.887C330.174 326.826 330.168 326.768 330.168 326.715C330.016 327.19 329.791 327.643 329.493 328.072C329.192 328.491 328.847 328.872 328.457 329.213C328.065 329.543 327.647 329.821 327.202 330.045C326.76 330.28 326.318 330.44 325.879 330.526C325.5 330.599 325.143 330.616 324.806 330.575C324.469 330.534 324.161 330.424 323.882 330.245C323.614 330.064 323.379 329.812 323.179 329.49C322.988 329.167 322.845 328.759 322.75 328.269C322.583 327.41 322.558 326.571 322.675 325.752C322.79 324.924 323.004 324.144 323.319 323.415C323.631 322.675 324.019 321.994 324.482 321.374C324.953 320.741 325.456 320.187 325.989 319.712C326.531 319.225 327.085 318.825 327.651 318.514C328.216 318.202 328.749 317.998 329.25 317.9C329.833 317.787 330.353 317.787 330.81 317.899C331.035 317.962 331.251 318.063 331.458 318.203C331.481 318.103 331.505 318.008 331.53 317.919C331.585 317.653 331.636 317.426 331.684 317.236C331.73 317.036 331.761 316.892 331.775 316.805C331.788 316.707 331.833 316.475 331.911 316.11C331.988 315.744 332.075 315.319 332.172 314.833C332.277 314.335 332.386 313.805 332.499 313.242C332.623 312.676 332.732 312.146 332.827 311.65C332.921 311.154 333.003 310.729 333.073 310.376C333.14 310.013 333.18 309.783 333.193 309.685C333.215 309.415 333.264 309.151 333.341 308.892C333.416 308.622 333.519 308.385 333.648 308.179C333.786 307.961 333.958 307.78 334.163 307.634C334.366 307.477 334.611 307.371 334.897 307.316C335.286 307.24 335.625 307.265 335.914 307.389C336.202 307.503 336.392 307.8 336.485 308.28C336.523 308.475 336.536 308.679 336.525 308.894C336.514 309.108 336.491 309.319 336.457 309.528C336.434 309.734 336.4 309.942 336.356 310.152C336.32 310.35 336.287 310.537 336.258 310.712C335.945 311.834 335.625 313.053 335.297 314.369C334.967 315.675 334.645 316.99 334.329 318.314C334.013 319.638 333.717 320.926 333.441 322.179C333.164 323.432 332.927 324.561 332.73 325.565ZM331.104 319.657C330.495 319.797 329.876 320.055 329.249 320.431C328.524 320.848 327.89 321.385 327.35 322.042C326.807 322.689 326.385 323.439 326.084 324.294C325.794 325.146 325.714 326.074 325.845 327.078C325.925 327.487 326.138 327.658 326.486 327.59C326.916 327.507 327.308 327.34 327.662 327.091C328.015 326.831 328.337 326.519 328.627 326.155C328.925 325.779 329.19 325.367 329.421 324.919C329.652 324.47 329.855 324.012 330.029 323.543C330.213 323.072 330.368 322.612 330.493 322.163C330.626 321.702 330.735 321.278 330.819 320.89C330.848 320.768 330.889 320.595 330.941 320.373C330.985 320.163 331.039 319.924 331.104 319.657ZM269.171 371.585C268.483 371.644 267.87 371.715 267.335 371.798C266.807 371.869 266.313 371.949 265.853 372.039C265.547 372.098 265.246 372.162 264.951 372.23C264.667 372.296 264.378 372.363 264.083 372.43C263.797 372.486 263.496 372.55 263.181 372.622C262.876 372.691 262.55 372.76 262.202 372.828C261.865 372.893 261.585 372.847 261.364 372.688C261.142 372.53 261.003 372.307 260.947 372.021C260.925 371.909 260.918 371.788 260.925 371.659C260.936 371.551 261.032 371.421 261.215 371.269C261.406 371.104 261.66 370.938 261.978 370.77C262.303 370.59 262.688 370.415 263.133 370.243C263.577 370.072 264.056 369.915 264.569 369.773C264.876 368.514 265.202 367.241 265.546 365.954C265.898 364.655 266.258 363.391 266.624 362.163C266.988 360.925 267.347 359.741 267.7 358.611C268.054 357.481 268.389 356.451 268.707 355.519C269.022 354.577 269.309 353.757 269.566 353.06C269.833 352.36 270.058 351.823 270.239 351.448C269.74 351.662 269.258 351.883 268.793 352.112C268.326 352.33 267.797 352.56 267.208 352.802C267.093 352.866 266.974 352.911 266.851 352.935C266.555 352.992 266.305 352.935 266.102 352.762C265.896 352.579 265.765 352.339 265.707 352.043C265.681 351.91 265.769 351.734 265.97 351.514C266.18 351.282 266.477 351.034 266.86 350.768C267.252 350.49 267.717 350.209 268.256 349.924C268.803 349.626 269.4 349.341 270.047 349.066C270.704 348.79 271.398 348.538 272.129 348.311C272.868 348.072 273.62 347.878 274.387 347.729C275.103 347.59 275.675 347.558 276.104 347.634C276.541 347.698 276.794 347.909 276.863 348.267C276.897 348.44 276.881 348.629 276.814 348.833C276.746 349.027 276.639 349.212 276.493 349.389C276.357 349.564 276.18 349.72 275.963 349.858C275.744 349.986 275.506 350.074 275.251 350.124C275.108 350.152 274.974 350.173 274.849 350.186C274.722 350.19 274.587 350.205 274.444 350.233C274.066 350.307 273.715 350.385 273.392 350.469C273.067 350.543 272.758 350.619 272.465 350.697C272.505 350.796 272.531 350.87 272.541 350.921C272.568 351.065 272.57 351.208 272.544 351.35C272.517 351.483 272.489 351.611 272.46 351.733C272.272 352.459 272.044 353.337 271.777 354.365C271.508 355.383 271.22 356.468 270.914 357.621C270.607 358.773 270.294 359.943 269.973 361.13C269.662 362.315 269.365 363.434 269.081 364.487C268.798 365.54 268.54 366.481 268.309 367.311C268.076 368.131 267.9 368.754 267.781 369.181C268.363 369.121 268.904 369.09 269.402 369.088C269.899 369.077 270.329 369.105 270.692 369.172C271.064 369.227 271.363 369.323 271.591 369.459C271.82 369.595 271.954 369.77 271.996 369.985C272.026 370.138 272.005 370.302 271.932 370.475C271.858 370.638 271.751 370.797 271.611 370.951C271.469 371.095 271.303 371.223 271.112 371.335C270.92 371.436 270.716 371.507 270.501 371.549C270.266 371.595 270.035 371.608 269.809 371.588C269.592 371.566 269.38 371.565 269.171 371.585ZM284.112 365.576C284.106 365.599 284.106 365.625 284.112 365.656C284.117 365.687 284.117 365.713 284.111 365.736C284.147 365.92 284.231 366.105 284.362 366.292C284.492 366.468 284.659 366.537 284.864 366.497C284.946 366.481 285.005 366.459 285.042 366.43C285.591 366.143 286.125 365.753 286.645 365.259C287.175 364.764 287.672 364.237 288.137 363.68C288.601 363.123 289.018 362.564 289.387 362.004C289.766 361.443 290.073 360.948 290.308 360.52C290.417 360.318 290.559 360.201 290.733 360.167C290.886 360.137 291.033 360.183 291.173 360.304C291.324 360.423 291.423 360.606 291.471 360.851C291.508 361.046 291.497 361.287 291.436 361.574C291.385 361.86 291.267 362.18 291.081 362.535C290.607 363.316 290.113 364.076 289.598 364.813C289.084 365.549 288.551 366.221 288 366.826C287.447 367.422 286.877 367.925 286.288 368.337C285.71 368.747 285.114 369.011 284.5 369.13C283.754 369.275 283.125 369.18 282.614 368.844C282.101 368.498 281.762 367.901 281.597 367.052C281.587 367.001 281.577 366.95 281.568 366.899C281.556 366.837 281.55 366.78 281.55 366.727C281.398 367.202 281.173 367.655 280.875 368.084C280.574 368.503 280.229 368.883 279.839 369.224C279.447 369.555 279.029 369.833 278.584 370.057C278.142 370.292 277.7 370.452 277.261 370.537C276.882 370.611 276.525 370.627 276.188 370.587C275.851 370.546 275.543 370.436 275.264 370.257C274.996 370.076 274.761 369.824 274.561 369.502C274.37 369.179 274.227 368.771 274.132 368.28C273.965 367.422 273.94 366.583 274.057 365.764C274.172 364.935 274.386 364.156 274.701 363.427C275.013 362.687 275.401 362.006 275.864 361.386C276.335 360.753 276.838 360.199 277.371 359.724C277.913 359.237 278.467 358.837 279.033 358.526C279.598 358.214 280.131 358.009 280.632 357.912C281.215 357.799 281.735 357.799 282.192 357.911C282.417 357.974 282.633 358.075 282.84 358.215C282.863 358.115 282.887 358.02 282.912 357.931C282.967 357.665 283.018 357.438 283.066 357.248C283.112 357.048 283.143 356.904 283.157 356.816C283.17 356.718 283.215 356.487 283.293 356.122C283.37 355.756 283.457 355.331 283.554 354.845C283.659 354.347 283.768 353.817 283.881 353.253C284.005 352.688 284.114 352.158 284.209 351.662C284.303 351.166 284.385 350.741 284.455 350.388C284.522 350.025 284.562 349.794 284.575 349.696C284.597 349.427 284.646 349.163 284.723 348.904C284.798 348.634 284.901 348.397 285.03 348.191C285.168 347.973 285.34 347.791 285.545 347.645C285.748 347.489 285.993 347.383 286.279 347.328C286.668 347.252 287.007 347.276 287.296 347.401C287.584 347.515 287.774 347.812 287.867 348.292C287.905 348.487 287.918 348.691 287.907 348.905C287.896 349.12 287.873 349.331 287.839 349.539C287.816 349.746 287.782 349.954 287.738 350.164C287.702 350.362 287.669 350.549 287.64 350.724C287.327 351.846 287.007 353.065 286.679 354.381C286.349 355.687 286.027 357.002 285.711 358.326C285.395 359.65 285.099 360.938 284.823 362.191C284.546 363.444 284.309 364.572 284.112 365.576ZM282.486 359.669C281.877 359.809 281.258 360.067 280.631 360.443C279.906 360.86 279.272 361.397 278.732 362.054C278.189 362.701 277.767 363.451 277.466 364.306C277.176 365.158 277.096 366.086 277.227 367.09C277.307 367.499 277.52 367.67 277.868 367.602C278.298 367.518 278.69 367.352 279.044 367.103C279.397 366.843 279.719 366.531 280.009 366.167C280.307 365.791 280.572 365.379 280.803 364.93C281.034 364.482 281.237 364.024 281.411 363.555C281.595 363.084 281.75 362.624 281.875 362.175C282.008 361.714 282.117 361.29 282.201 360.902C282.23 360.78 282.271 360.607 282.323 360.385C282.367 360.175 282.421 359.936 282.486 359.669ZM294.799 357.339C294.746 357.339 294.699 357.343 294.658 357.351C294.617 357.359 294.571 357.367 294.52 357.377C294.131 357.453 293.783 357.6 293.476 357.819C293.168 358.038 292.896 358.303 292.659 358.615C292.431 358.914 292.235 359.244 292.072 359.604C291.919 359.963 291.786 360.318 291.674 360.668C291.56 361.009 291.469 361.334 291.402 361.645C291.345 361.953 291.305 362.21 291.281 362.416C291.603 362.162 291.931 361.881 292.263 361.573C292.606 361.262 292.925 360.966 293.221 360.686C293.517 360.406 293.771 360.155 293.982 359.933C294.204 359.71 294.36 359.557 294.45 359.476C294.855 359.1 295.12 358.773 295.246 358.494C295.37 358.204 295.415 357.968 295.379 357.783C295.349 357.63 295.274 357.517 295.154 357.445C295.044 357.371 294.926 357.336 294.799 357.339ZM294.94 355.115C295.788 354.95 296.462 355.031 296.961 355.359C297.46 355.686 297.78 356.213 297.921 356.939C298.004 357.369 297.979 357.84 297.846 358.355C297.712 358.869 297.417 359.425 296.96 360.023C296.501 360.611 295.857 361.251 295.025 361.943C294.203 362.623 293.145 363.354 291.854 364.135C291.963 364.422 292.167 364.626 292.467 364.748C292.764 364.86 293.133 364.874 293.573 364.788C294.043 364.697 294.531 364.533 295.037 364.296C295.551 364.048 296.048 363.766 296.528 363.45C297.018 363.131 297.49 362.801 297.943 362.458C298.394 362.105 298.798 361.777 299.153 361.475C299.518 361.171 299.818 360.911 300.052 360.695C300.296 360.478 300.46 360.34 300.544 360.281C300.624 360.202 300.699 360.15 300.769 360.126C300.848 360.1 300.919 360.081 300.98 360.069C301.103 360.045 301.211 360.056 301.305 360.102C301.397 360.137 301.476 360.19 301.543 360.262C301.618 360.322 301.675 360.396 301.714 360.484C301.75 360.562 301.774 360.631 301.786 360.693C301.804 360.785 301.816 360.899 301.821 361.036C301.824 361.163 301.775 361.321 301.674 361.51C301.633 361.571 301.486 361.743 301.233 362.026C300.991 362.306 300.669 362.645 300.269 363.041C299.868 363.437 299.395 363.869 298.849 364.335C298.311 364.79 297.728 365.227 297.098 365.647C296.479 366.064 295.819 366.437 295.119 366.764C294.42 367.101 293.713 367.339 292.998 367.478C292.384 367.598 291.814 367.587 291.288 367.445C290.772 367.301 290.306 367.063 289.891 366.729C289.487 366.394 289.147 365.983 288.871 365.495C288.596 365.007 288.403 364.477 288.292 363.905C288.206 363.465 288.2 362.967 288.272 362.412C288.343 361.847 288.49 361.266 288.714 360.671C288.937 360.076 289.236 359.482 289.609 358.889C289.99 358.284 290.439 357.73 290.957 357.226C291.474 356.723 292.063 356.284 292.723 355.912C293.393 355.538 294.132 355.272 294.94 355.115ZM301.666 355.734C301.785 355.254 301.977 354.877 302.242 354.603C302.507 354.329 302.788 354.163 303.084 354.105C303.33 354.057 303.567 354.107 303.797 354.253C304.025 354.389 304.173 354.631 304.241 354.979C304.267 355.111 304.279 355.258 304.278 355.417C304.277 355.576 304.253 355.751 304.205 355.941C304.374 355.61 304.64 355.256 305.001 354.878C305.361 354.49 305.768 354.13 306.224 353.797C306.687 353.452 307.17 353.152 307.672 352.895C308.184 352.636 308.68 352.46 309.161 352.367C309.703 352.261 310.179 352.307 310.588 352.503C311.006 352.687 311.276 353.091 311.397 353.715C311.468 354.083 311.487 354.477 311.452 354.898C311.417 355.319 311.346 355.746 311.239 356.181C311.143 356.613 311.02 357.046 310.871 357.478C310.73 357.898 310.585 358.298 310.435 358.677C310.286 359.056 310.147 359.407 310.019 359.729C309.899 360.039 309.806 360.296 309.739 360.5C309.638 360.689 309.608 360.891 309.65 361.106C309.666 361.188 309.705 361.254 309.768 361.306C309.831 361.357 309.919 361.372 310.032 361.35C310.103 361.336 310.184 361.315 310.274 361.287C310.362 361.249 310.464 361.171 310.579 361.053C311.091 360.741 311.604 360.376 312.117 359.958C312.64 359.538 313.135 359.107 313.601 358.667C314.065 358.216 314.484 357.779 314.858 357.356C315.241 356.921 315.553 356.536 315.796 356.202C315.864 356.115 315.936 356.048 316.012 356.001C316.087 355.955 316.161 355.925 316.233 355.911C316.407 355.877 316.552 355.917 316.67 356.032C316.798 356.146 316.882 356.304 316.922 356.509C316.984 356.826 316.95 357.198 316.821 357.627C316.702 358.053 316.461 358.477 316.097 358.898C315.596 359.43 315.133 359.918 314.71 360.361C314.297 360.802 313.865 361.226 313.413 361.632C312.97 362.026 312.483 362.412 311.951 362.791C311.428 363.158 310.8 363.53 310.067 363.906C309.817 364.039 309.583 364.148 309.366 364.233C309.16 364.316 308.964 364.375 308.78 364.411C308.238 364.516 307.811 364.445 307.497 364.198C307.192 363.939 306.987 363.539 306.882 362.997C306.868 362.925 306.855 362.859 306.843 362.798C306.839 362.724 306.835 362.645 306.829 362.561C306.788 362.241 306.802 361.877 306.872 361.471C306.952 361.063 307.055 360.639 307.182 360.201C307.319 359.76 307.468 359.323 307.627 358.889C307.785 358.444 307.927 358.029 308.054 357.644C308.189 357.246 308.296 356.896 308.375 356.594C308.454 356.292 308.477 356.055 308.443 355.881C308.414 355.727 308.343 355.608 308.231 355.524C308.127 355.428 307.988 355.396 307.815 355.43C307.16 355.557 306.574 355.873 306.057 356.376C305.549 356.878 305.096 357.465 304.696 358.137C304.294 358.799 303.94 359.489 303.633 360.206C303.327 360.924 303.059 361.565 302.829 362.129C302.69 362.506 302.572 362.906 302.474 363.329C302.383 363.739 302.279 364.13 302.161 364.504C302.04 364.867 301.883 365.178 301.69 365.439C301.509 365.707 301.244 365.876 300.897 365.943C300.539 366.013 300.236 365.955 299.987 365.77C299.739 365.584 299.583 365.328 299.52 365.001C299.486 364.827 299.503 364.532 299.57 364.116C299.638 363.699 299.735 363.214 299.86 362.659C299.986 362.104 300.13 361.508 300.293 360.871C300.464 360.223 300.632 359.585 300.796 358.959C300.969 358.32 301.134 357.721 301.29 357.16C301.447 356.599 301.572 356.123 301.666 355.734ZM318.536 353.266C318.301 354.076 318.083 354.866 317.883 355.638C317.681 356.399 317.489 357.104 317.308 357.755C317.233 358.024 317.166 358.334 317.106 358.685C317.056 359.024 317.054 359.316 317.102 359.562C317.13 359.705 317.182 359.812 317.259 359.881C317.347 359.949 317.467 359.968 317.621 359.939C317.835 359.897 318.094 359.783 318.398 359.596C318.699 359.4 319.019 359.163 319.358 358.885C319.694 358.596 320.046 358.279 320.414 357.931C320.779 357.574 321.134 357.213 321.477 356.849C321.828 356.473 322.16 356.106 322.473 355.748C322.783 355.38 323.058 355.046 323.296 354.745C323.438 354.6 323.58 354.514 323.724 354.486C323.897 354.453 324.056 354.501 324.198 354.633C324.34 354.764 324.434 354.948 324.48 355.183C324.526 355.418 324.516 355.669 324.451 355.937C324.386 356.204 324.229 356.484 323.978 356.777C323.43 357.509 322.867 358.213 322.287 358.888C321.718 359.561 321.136 360.173 320.543 360.724C319.958 361.262 319.362 361.717 318.755 362.09C318.148 362.462 317.538 362.708 316.925 362.828C316.516 362.907 316.162 362.917 315.864 362.859C315.568 362.81 315.316 362.711 315.106 362.56C314.905 362.398 314.744 362.201 314.625 361.969C314.504 361.728 314.415 361.464 314.36 361.177C314.26 360.666 314.244 360.117 314.31 359.531C314.377 358.946 314.475 358.412 314.604 357.93C314.787 357.237 314.967 356.549 315.142 355.868C315.328 355.185 315.508 354.529 315.683 353.9L315.023 354.029C314.451 354.14 314.039 354.124 313.789 353.982C313.538 353.84 313.39 353.651 313.344 353.416C313.324 353.314 313.331 353.185 313.365 353.03C313.407 352.863 313.477 352.706 313.576 352.559C313.683 352.4 313.819 352.257 313.986 352.129C314.152 352.001 314.352 351.915 314.588 351.869L316.244 351.547L318.231 344.491C318.36 344.063 318.557 343.738 318.822 343.517C319.095 343.284 319.395 343.135 319.722 343.071C320.029 343.012 320.326 343.039 320.613 343.153C320.901 343.267 321.081 343.513 321.155 343.891C321.193 344.086 321.185 344.294 321.133 344.516C321.089 344.726 321.021 344.978 320.93 345.272C320.872 345.464 320.8 345.695 320.715 345.966C320.627 346.227 320.534 346.511 320.434 346.817C320.343 347.111 320.244 347.422 320.138 347.75C320.042 348.076 319.945 348.392 319.845 348.698C319.624 349.42 319.39 350.182 319.143 350.984L324.143 350.012C324.389 349.964 324.617 349.935 324.827 349.926C325.035 349.907 325.219 349.924 325.378 349.978C325.546 350.02 325.683 350.1 325.791 350.217C325.898 350.334 325.974 350.505 326.018 350.73C326.04 350.842 326.041 350.959 326.022 351.079C326.013 351.197 325.967 351.313 325.882 351.424C325.808 351.534 325.69 351.637 325.528 351.732C325.376 351.825 325.17 351.908 324.908 351.98L318.536 353.266ZM324.839 347.123C324.793 346.887 324.788 346.639 324.822 346.378C324.864 346.104 324.952 345.848 325.086 345.61C325.22 345.372 325.402 345.161 325.632 344.979C325.872 344.794 326.171 344.667 326.529 344.598C327.122 344.482 327.559 344.519 327.84 344.709C328.119 344.888 328.292 345.151 328.36 345.499C328.397 345.693 328.398 345.916 328.362 346.167C328.336 346.416 328.267 346.658 328.153 346.892C328.037 347.116 327.87 347.319 327.65 347.499C327.431 347.68 327.152 347.803 326.815 347.869C326.181 347.992 325.717 347.981 325.424 347.837C325.128 347.682 324.933 347.444 324.839 347.123ZM323.823 350.902C323.941 350.581 324.101 350.338 324.302 350.172C324.503 350.005 324.721 349.899 324.956 349.854C325.345 349.778 325.702 349.841 326.028 350.043C326.362 350.233 326.566 350.522 326.642 350.911C326.65 351.005 326.652 351.1 326.65 351.196C326.657 351.29 326.644 351.388 326.611 351.49C326.52 351.783 326.446 352.031 326.39 352.233C326.333 352.435 326.28 352.626 326.23 352.805C326.188 352.973 326.147 353.14 326.105 353.307C326.063 353.474 326.012 353.675 325.951 353.91C325.878 354.19 325.795 354.498 325.701 354.834C325.606 355.16 325.517 355.496 325.435 355.841C325.364 356.184 325.307 356.518 325.265 356.845C325.232 357.17 325.241 357.46 325.29 357.715C325.344 357.992 325.446 358.163 325.597 358.229C325.756 358.283 325.964 358.285 326.219 358.235C326.506 358.18 326.79 358.061 327.073 357.878C327.366 357.694 327.652 357.474 327.932 357.218C328.211 356.962 328.48 356.682 328.739 356.377C328.996 356.061 329.233 355.75 329.449 355.443C329.675 355.133 329.878 354.839 330.057 354.56C330.247 354.28 330.4 354.032 330.518 353.818C330.685 353.584 330.87 353.447 331.075 353.408C331.259 353.372 331.423 353.425 331.567 353.567C331.722 353.706 331.824 353.904 331.874 354.16C331.919 354.395 331.907 354.657 331.836 354.947C331.775 355.235 331.634 355.522 331.414 355.809C330.996 356.442 330.564 357.057 330.117 357.653C329.669 358.239 329.195 358.776 328.696 359.266C328.205 359.743 327.695 360.15 327.166 360.487C326.637 360.823 326.081 361.048 325.499 361.161C324.67 361.322 323.975 361.24 323.413 360.914C322.859 360.576 322.495 359.957 322.32 359.057C322.229 358.587 322.206 358.113 322.251 357.638C322.297 357.162 322.371 356.697 322.473 356.242C322.574 355.776 322.688 355.33 322.817 354.901C322.944 354.463 323.045 354.051 323.118 353.665C323.144 353.522 323.191 353.301 323.26 353.001C323.339 352.699 323.422 352.391 323.51 352.077C323.608 351.707 323.712 351.316 323.823 350.902ZM333.997 350.261C333.762 351.071 333.544 351.861 333.344 352.632C333.141 353.393 332.949 354.099 332.768 354.75C332.693 355.019 332.626 355.329 332.567 355.68C332.516 356.019 332.515 356.311 332.562 356.557C332.59 356.7 332.643 356.806 332.72 356.876C332.807 356.944 332.928 356.963 333.081 356.933C333.296 356.892 333.555 356.778 333.858 356.591C334.16 356.395 334.48 356.157 334.818 355.879C335.155 355.591 335.507 355.273 335.875 354.926C336.24 354.568 336.594 354.208 336.938 353.844C337.289 353.468 337.621 353.101 337.933 352.743C338.244 352.375 338.518 352.04 338.757 351.739C338.899 351.595 339.041 351.509 339.184 351.481C339.358 351.447 339.516 351.496 339.658 351.628C339.801 351.759 339.895 351.943 339.94 352.178C339.986 352.413 339.977 352.664 339.912 352.931C339.847 353.199 339.689 353.479 339.438 353.772C338.891 354.504 338.328 355.208 337.748 355.883C337.178 356.556 336.597 357.168 336.003 357.718C335.418 358.256 334.822 358.712 334.216 359.084C333.609 359.457 332.999 359.703 332.385 359.822C331.976 359.902 331.623 359.912 331.325 359.853C331.029 359.805 330.776 359.705 330.567 359.555C330.365 359.393 330.205 359.196 330.086 358.964C329.964 358.722 329.876 358.458 329.82 358.172C329.721 357.661 329.704 357.112 329.771 356.526C329.837 355.94 329.935 355.407 330.064 354.925C330.248 354.232 330.427 353.544 330.603 352.863C330.788 352.179 330.968 351.523 331.144 350.895L330.484 351.023C329.911 351.135 329.5 351.119 329.249 350.977C328.999 350.835 328.851 350.646 328.805 350.411C328.785 350.308 328.792 350.18 328.825 350.025C328.867 349.857 328.937 349.7 329.036 349.554C329.143 349.395 329.28 349.252 329.446 349.124C329.612 348.996 329.813 348.909 330.048 348.864L331.705 348.542L333.692 341.486C333.821 341.058 334.018 340.733 334.282 340.512C334.555 340.278 334.855 340.13 335.183 340.066C335.489 340.007 335.787 340.034 336.074 340.148C336.361 340.262 336.542 340.508 336.615 340.886C336.653 341.08 336.646 341.289 336.594 341.511C336.55 341.721 336.482 341.973 336.39 342.267C336.332 342.459 336.26 342.69 336.175 342.961C336.088 343.222 335.995 343.506 335.895 343.812C335.803 344.105 335.705 344.416 335.599 344.745C335.503 345.071 335.405 345.387 335.305 345.693C335.085 346.415 334.851 347.177 334.604 347.978L339.604 347.006C339.849 346.959 340.077 346.93 340.288 346.921C340.496 346.902 340.68 346.919 340.839 346.973C341.006 347.015 341.144 347.094 341.251 347.211C341.359 347.328 341.435 347.499 341.478 347.724C341.5 347.837 341.502 347.953 341.483 348.074C341.474 348.192 341.427 348.307 341.343 348.419C341.269 348.529 341.151 348.632 340.989 348.727C340.837 348.82 340.63 348.903 340.368 348.975L333.997 350.261ZM346.556 346.578C346.799 346.298 347.006 346.082 347.179 345.932C347.359 345.769 347.516 345.649 347.649 345.57C347.781 345.481 347.901 345.42 348.012 345.388C348.133 345.354 348.254 345.325 348.377 345.301C348.592 345.259 348.761 345.311 348.885 345.457C349.007 345.592 349.085 345.747 349.118 345.921C349.146 346.064 349.146 346.202 349.119 346.335L347.076 354.165C347.495 353.702 347.988 353.235 348.554 352.764C349.129 352.281 349.681 351.844 350.21 351.455C350.747 351.053 351.209 350.725 351.594 350.47C351.99 350.212 352.218 350.078 352.28 350.066C352.535 350.016 352.779 350.069 353.011 350.226C353.243 350.382 353.388 350.609 353.446 350.906C353.498 351.171 353.45 351.472 353.303 351.809C353.166 352.143 352.874 352.497 352.427 352.87C351.789 353.408 351.232 353.872 350.756 354.262C350.278 354.641 349.856 354.983 349.491 355.288C349.125 355.592 348.802 355.867 348.521 356.113C348.24 356.359 347.975 356.606 347.726 356.856C347.488 357.104 347.252 357.362 347.017 357.631C346.795 357.907 346.554 358.225 346.295 358.583C346.179 359.242 346.058 359.876 345.932 360.484C345.817 361.09 345.703 361.627 345.593 362.094C345.492 362.559 345.406 362.937 345.335 363.226C345.264 363.516 345.226 363.672 345.219 363.695C344.725 365.573 343.982 366.609 342.99 366.802C342.581 366.882 342.222 366.808 341.913 366.582C341.605 366.366 341.407 366.027 341.317 365.567C341.234 365.138 341.202 364.698 341.22 364.249C341.251 363.808 341.35 363.306 341.517 362.743C341.693 362.178 341.94 361.536 342.256 360.816C342.585 360.105 343.004 359.26 343.514 358.28L345.374 351.472C344.194 353.59 343.074 355.251 342.013 356.455C340.953 357.658 339.88 358.365 338.797 358.576C338.449 358.644 338.136 358.619 337.859 358.504C337.584 358.398 337.411 358.161 337.339 357.793C337.24 357.282 337.25 356.68 337.37 355.988C337.446 355.613 337.527 355.268 337.615 354.954C337.7 354.629 337.792 354.309 337.89 353.993C337.986 353.667 338.082 353.319 338.18 352.95C338.289 352.578 338.399 352.164 338.512 351.707C338.633 351.238 338.757 350.705 338.885 350.107C339.021 349.497 339.165 348.789 339.317 347.985C339.444 347.547 339.654 347.209 339.947 346.971C340.239 346.724 340.538 346.57 340.844 346.511C341.161 346.449 341.442 346.474 341.687 346.586C341.94 346.685 342.09 346.857 342.137 347.103C342.161 347.225 342.162 347.337 342.139 347.437L340.468 353.826C340.382 354.151 340.356 354.4 340.39 354.573C340.42 354.727 340.496 354.792 340.619 354.768C340.731 354.746 340.864 354.662 341.016 354.516C341.168 354.369 341.306 354.21 341.432 354.037L346.556 346.578ZM275.174 392.559C275.064 393.026 274.949 393.584 274.831 394.233C274.713 394.882 274.58 395.561 274.431 396.269C274.282 396.977 274.112 397.684 273.92 398.39C273.739 399.094 273.524 399.735 273.275 400.314C273.035 400.88 272.762 401.358 272.456 401.746C272.159 402.133 271.822 402.363 271.444 402.437C271.127 402.498 270.856 402.498 270.632 402.435C270.409 402.383 270.227 402.291 270.085 402.16C269.944 402.038 269.832 401.896 269.747 401.732C269.67 401.556 269.616 401.386 269.584 401.222C269.536 400.977 269.523 400.719 269.545 400.45C269.577 400.178 269.629 399.924 269.7 399.688L273.472 387.732C273.64 387.233 273.812 386.833 273.987 386.534C274.173 386.233 274.351 386.002 274.521 385.841C274.702 385.679 274.867 385.573 275.016 385.522C275.164 385.462 275.289 385.422 275.391 385.402C275.575 385.366 275.757 385.4 275.936 385.503C276.113 385.596 276.234 385.811 276.3 386.148C276.364 386.475 276.364 386.942 276.302 387.549C276.239 388.155 276.06 388.954 275.765 389.945C276.55 389.729 277.312 389.443 278.049 389.087C278.785 388.721 279.423 388.295 279.965 387.807C280.517 387.318 280.932 386.776 281.209 386.181C281.484 385.576 281.554 384.925 281.419 384.23C281.299 383.616 281.084 383.054 280.772 382.541C280.468 382.016 280.082 381.582 279.612 381.239C279.15 380.883 278.614 380.637 278.004 380.501C277.392 380.354 276.717 380.353 275.981 380.496C274.979 380.691 274.134 380.956 273.446 381.291C272.766 381.614 272.195 381.98 271.733 382.388C271.281 382.794 270.92 383.23 270.65 383.697C270.38 384.163 270.157 384.626 269.981 385.084C269.815 385.541 269.674 385.988 269.557 386.424C269.44 386.861 269.304 387.253 269.149 387.602C269.004 387.948 268.818 388.245 268.59 388.491C268.36 388.726 268.05 388.882 267.662 388.957C267.161 389.055 266.763 389 266.467 388.792C266.183 388.582 265.994 388.242 265.903 387.771C265.812 387.301 265.84 386.765 265.988 386.163C266.135 385.551 266.388 384.918 266.749 384.264C267.11 383.61 267.574 382.963 268.139 382.323C268.712 381.67 269.38 381.063 270.14 380.501C270.901 379.939 271.75 379.445 272.686 379.019C273.63 378.581 274.649 378.256 275.743 378.043C276.766 377.844 277.776 377.802 278.775 377.915C279.781 378.017 280.704 378.288 281.543 378.73C282.383 379.172 283.102 379.791 283.703 380.587C284.312 381.37 284.73 382.35 284.959 383.526C285.167 384.6 285.095 385.622 284.743 386.592C284.399 387.551 283.845 388.417 283.083 389.191C282.329 389.953 281.412 390.609 280.33 391.159C279.246 391.698 278.071 392.091 276.803 392.338C276.537 392.39 276.265 392.437 275.987 392.481C275.719 392.522 275.448 392.548 275.174 392.559ZM288.581 389.221C288.932 388.898 289.297 388.593 289.676 388.307C290.066 388.019 290.447 387.765 290.817 387.544C291.186 387.313 291.542 387.122 291.884 386.971C292.234 386.807 292.552 386.698 292.839 386.642C293.299 386.553 293.673 386.597 293.963 386.774C294.26 386.939 294.459 387.282 294.561 387.804C294.583 387.916 294.601 388.04 294.617 388.175C294.631 388.299 294.636 388.436 294.633 388.585C294.634 388.861 294.541 389.203 294.355 389.611C294.169 390.018 293.94 390.45 293.668 390.906C293.406 391.36 293.114 391.825 292.793 392.302C292.48 392.766 292.187 393.199 291.915 393.602C291.652 393.993 291.431 394.333 291.254 394.622C291.087 394.91 291.013 395.099 291.03 395.191C291.046 395.273 291.062 395.328 291.079 395.357C291.095 395.386 291.144 395.392 291.226 395.376C291.732 395.034 292.291 394.633 292.902 394.175C293.522 393.704 294.135 393.229 294.742 392.751C295.35 392.272 295.923 391.81 296.463 391.366C297 390.911 297.455 390.52 297.827 390.193C297.909 390.124 297.993 390.065 298.079 390.017C298.173 389.956 298.261 389.918 298.343 389.902C298.527 389.866 298.692 389.898 298.839 389.996C298.986 390.095 299.079 390.247 299.118 390.451C299.164 390.687 299.115 390.977 298.97 391.324C298.833 391.658 298.561 392.035 298.155 392.453C297.84 392.748 297.486 393.082 297.092 393.456C296.706 393.817 296.297 394.199 295.866 394.601C295.443 394.991 295.009 395.378 294.564 395.762C294.128 396.144 293.703 396.492 293.286 396.806C292.87 397.12 292.471 397.389 292.09 397.612C291.717 397.822 291.382 397.956 291.086 398.014C290.38 398.151 289.816 398.085 289.392 397.818C288.979 397.548 288.721 397.147 288.617 396.615C288.601 396.533 288.595 396.471 288.597 396.428C288.581 395.964 288.629 395.504 288.742 395.047C288.855 394.59 288.997 394.148 289.169 393.722C289.341 393.296 289.527 392.889 289.727 392.5C289.926 392.1 290.103 391.732 290.26 391.393C290.426 391.043 290.555 390.726 290.649 390.442C290.742 390.159 290.768 389.91 290.726 389.695C290.716 389.644 290.696 389.595 290.666 389.548C290.635 389.501 290.584 389.484 290.513 389.498C290.39 389.522 290.194 389.607 289.926 389.755C289.668 389.901 289.395 390.081 289.108 390.296C288.821 390.511 288.554 390.749 288.307 391.009C288.059 391.259 287.895 391.508 287.816 391.757C287.708 392.075 287.59 392.475 287.46 392.956C287.331 393.438 287.196 393.942 287.054 394.468C286.922 394.992 286.795 395.51 286.671 396.022C286.548 396.535 286.443 396.974 286.355 397.342C286.29 397.662 286.178 397.96 286.019 398.235C285.871 398.507 285.695 398.749 285.491 398.958C285.288 399.167 285.072 399.342 284.845 399.481C284.617 399.621 284.401 399.711 284.197 399.751C283.962 399.796 283.76 399.772 283.593 399.677C283.437 399.58 283.331 399.394 283.278 399.118C283.256 399.005 283.244 398.864 283.243 398.694C283.25 398.513 283.29 398.309 283.363 398.082C283.48 397.699 283.59 397.285 283.695 396.84C283.809 396.393 283.939 395.885 284.083 395.316C284.225 394.737 284.389 394.079 284.575 393.342C284.769 392.593 284.999 391.732 285.266 390.756C285.099 390.662 284.947 390.537 284.811 390.383C284.683 390.217 284.594 390.001 284.542 389.735C284.494 389.49 284.505 389.27 284.573 389.077C284.64 388.873 284.749 388.697 284.901 388.551C285.053 388.405 285.236 388.284 285.451 388.19C285.675 388.082 285.914 388.004 286.17 387.954C286.436 387.903 286.706 387.877 286.982 387.876C287.256 387.865 287.504 387.886 287.726 387.938C287.959 387.989 288.155 388.067 288.314 388.174C288.472 388.281 288.569 388.422 288.602 388.596C288.608 388.626 288.606 388.669 288.596 388.724C288.585 388.78 288.57 388.841 288.552 388.908C288.543 388.973 288.534 389.034 288.523 389.089C288.513 389.144 288.51 389.187 288.516 389.217C288.52 389.238 288.527 389.247 288.538 389.245L288.553 389.242L288.581 389.221ZM302.143 387.094C301.662 387.187 301.221 387.4 300.819 387.733C300.425 388.054 300.092 388.447 299.822 388.914C299.56 389.368 299.376 389.865 299.269 390.406C299.16 390.937 299.156 391.463 299.257 391.984C299.295 392.179 299.352 392.39 299.428 392.62C299.503 392.839 299.606 393.041 299.738 393.228C299.878 393.402 300.053 393.538 300.263 393.635C300.472 393.732 300.731 393.751 301.038 393.692C301.508 393.6 301.939 393.389 302.331 393.058C302.731 392.715 303.066 392.31 303.337 391.844C303.605 391.367 303.791 390.854 303.897 390.303C304.002 389.752 304.004 389.215 303.902 388.694C303.862 388.489 303.806 388.283 303.734 388.074C303.67 387.853 303.569 387.66 303.431 387.496C303.303 387.33 303.136 387.209 302.93 387.132C302.722 387.045 302.46 387.032 302.143 387.094ZM302.416 384.239C302.804 384.164 303.228 384.134 303.688 384.151C304.158 384.166 304.605 384.259 305.031 384.431C305.458 384.603 305.833 384.87 306.158 385.231C306.491 385.58 306.715 386.051 306.831 386.644C306.89 386.951 306.918 387.312 306.914 387.726C306.907 388.131 306.864 388.564 306.784 389.025C306.91 389.128 307.045 389.192 307.187 389.217C307.33 389.243 307.478 389.24 307.632 389.21C307.847 389.169 308.07 389.062 308.302 388.889C308.544 388.715 308.784 388.504 309.022 388.256C309.26 388.008 309.494 387.734 309.722 387.435C309.95 387.136 310.164 386.84 310.361 386.547C310.559 386.254 310.734 385.981 310.887 385.729C311.047 385.464 311.179 385.242 311.282 385.063C311.34 384.977 311.42 384.924 311.522 384.905C311.665 384.877 311.808 384.929 311.95 385.06C312.091 385.181 312.187 385.375 312.238 385.641C312.29 385.907 312.268 386.229 312.172 386.609C312.086 386.986 311.865 387.406 311.509 387.868C311.316 388.181 311.094 388.543 310.845 388.952C310.595 389.361 310.321 389.754 310.023 390.13C309.725 390.507 309.402 390.84 309.056 391.13C308.709 391.421 308.341 391.603 307.952 391.679C307.687 391.731 307.418 391.74 307.146 391.708C306.885 391.674 306.609 391.59 306.317 391.456C306.06 392.1 305.743 392.703 305.364 393.265C304.985 393.826 304.537 394.333 304.019 394.783C303.512 395.232 302.939 395.614 302.3 395.929C301.673 396.253 300.982 396.488 300.225 396.635C299.939 396.691 299.595 396.699 299.195 396.66C298.795 396.621 298.396 396.508 297.999 396.32C297.61 396.119 297.257 395.833 296.94 395.459C296.623 395.086 296.406 394.597 296.289 393.994C296.21 393.585 296.181 393.081 296.202 392.483C296.224 391.884 296.309 391.257 296.458 390.602C296.615 389.935 296.84 389.265 297.134 388.593C297.436 387.908 297.827 387.275 298.308 386.693C298.787 386.101 299.367 385.591 300.048 385.161C300.727 384.722 301.516 384.414 302.416 384.239ZM312.879 380.009C312.843 379.772 312.848 379.522 312.892 379.258C312.945 378.983 313.043 378.725 313.187 378.485C313.332 378.244 313.524 378.032 313.764 377.847C314.004 377.663 314.303 377.536 314.661 377.466C315.223 377.357 315.638 377.388 315.904 377.559C316.179 377.717 316.347 377.955 316.409 378.272C316.449 378.477 316.452 378.71 316.418 378.971C316.392 379.22 316.318 379.468 316.196 379.714C316.084 379.959 315.915 380.178 315.687 380.37C315.459 380.563 315.166 380.694 314.808 380.764C314.174 380.887 313.711 380.877 313.417 380.732C313.132 380.575 312.953 380.334 312.879 380.009ZM312.38 391.853C312.892 391.212 313.56 390.472 314.383 389.633C315.215 388.782 316.236 387.809 317.445 386.714C317.581 386.592 317.72 386.517 317.863 386.489C318.088 386.446 318.29 386.502 318.469 386.658C318.658 386.812 318.778 387.023 318.83 387.288C318.882 387.554 318.836 387.866 318.693 388.222C318.548 388.569 318.26 388.911 317.827 389.25L313.334 393.816C313.149 394.065 312.978 394.278 312.822 394.457C312.678 394.644 312.527 394.822 312.369 394.991C312.223 395.168 312.065 395.342 311.897 395.512C311.741 395.691 311.561 395.885 311.358 396.095C311.023 397.051 310.715 397.865 310.431 398.535C310.15 399.216 309.85 399.778 309.533 400.222C309.218 400.676 308.873 401.029 308.498 401.283C308.123 401.536 307.674 401.713 307.153 401.815C306.672 401.908 306.321 401.875 306.099 401.717C305.869 401.571 305.721 401.329 305.656 400.991C305.594 400.674 305.68 400.323 305.913 399.939C306.148 399.564 306.431 399.164 306.762 398.739C307.095 398.324 307.429 397.882 307.762 397.414C308.087 396.959 308.314 396.485 308.441 395.993C308.606 395.367 308.783 394.696 308.973 393.98C309.152 393.266 309.335 392.54 309.521 391.804C309.707 391.067 309.893 390.336 310.081 389.61C310.277 388.871 310.46 388.173 310.629 387.514C310.806 386.843 310.972 386.221 311.126 385.65C311.291 385.077 311.434 384.587 311.557 384.182C311.686 383.753 311.892 383.421 312.175 383.186C312.467 382.938 312.766 382.785 313.072 382.725C313.4 382.661 313.699 382.699 313.97 382.837C314.241 382.975 314.409 383.213 314.474 383.551C314.518 383.776 314.538 383.984 314.532 384.176C314.537 384.366 314.512 384.589 314.455 384.844C314.397 385.089 314.312 385.392 314.202 385.753C314.1 386.101 313.964 386.547 313.793 387.09C313.623 387.632 313.422 388.292 313.191 389.069C312.958 389.836 312.688 390.764 312.38 391.853ZM322.947 382.429C322.894 382.429 322.847 382.433 322.806 382.441C322.765 382.449 322.719 382.457 322.668 382.467C322.28 382.543 321.932 382.69 321.624 382.909C321.316 383.128 321.044 383.393 320.808 383.705C320.579 384.004 320.383 384.334 320.22 384.694C320.067 385.053 319.934 385.408 319.822 385.758C319.708 386.099 319.617 386.424 319.55 386.735C319.493 387.043 319.453 387.3 319.43 387.506C319.752 387.252 320.079 386.971 320.412 386.663C320.755 386.352 321.074 386.056 321.37 385.776C321.665 385.496 321.919 385.245 322.13 385.023C322.352 384.8 322.508 384.647 322.599 384.566C323.003 384.19 323.269 383.863 323.395 383.584C323.519 383.294 323.563 383.058 323.527 382.874C323.497 382.72 323.422 382.607 323.302 382.535C323.192 382.461 323.074 382.426 322.947 382.429ZM323.088 380.205C323.937 380.04 324.611 380.121 325.109 380.449C325.608 380.776 325.928 381.303 326.069 382.029C326.153 382.459 326.128 382.93 325.994 383.445C325.86 383.959 325.565 384.515 325.109 385.113C324.65 385.701 324.005 386.341 323.174 387.033C322.351 387.713 321.294 388.444 320.003 389.225C320.111 389.512 320.315 389.716 320.615 389.838C320.913 389.95 321.281 389.964 321.721 389.878C322.192 389.787 322.68 389.623 323.186 389.386C323.7 389.138 324.197 388.856 324.676 388.54C325.166 388.222 325.638 387.891 326.091 387.548C326.543 387.195 326.946 386.868 327.301 386.565C327.666 386.261 327.966 386.001 328.2 385.785C328.444 385.568 328.608 385.43 328.692 385.371C328.773 385.292 328.847 385.24 328.917 385.216C328.997 385.19 329.067 385.171 329.129 385.159C329.251 385.135 329.36 385.146 329.453 385.192C329.545 385.227 329.625 385.28 329.692 385.352C329.767 385.412 329.824 385.486 329.862 385.574C329.898 385.652 329.922 385.721 329.934 385.783C329.952 385.875 329.964 385.989 329.969 386.126C329.973 386.253 329.924 386.411 329.823 386.6C329.781 386.661 329.634 386.833 329.382 387.116C329.139 387.396 328.818 387.735 328.417 388.131C328.017 388.527 327.543 388.959 326.997 389.426C326.46 389.88 325.876 390.317 325.247 390.737C324.627 391.154 323.968 391.527 323.267 391.854C322.569 392.191 321.862 392.429 321.146 392.569C320.532 392.688 319.962 392.677 319.436 392.535C318.92 392.391 318.455 392.153 318.04 391.819C317.635 391.484 317.295 391.073 317.02 390.585C316.744 390.097 316.551 389.567 316.44 388.995C316.354 388.555 316.348 388.057 316.42 387.502C316.491 386.937 316.638 386.356 316.862 385.761C317.086 385.166 317.384 384.572 317.757 383.979C318.138 383.374 318.588 382.82 319.105 382.316C319.623 381.813 320.211 381.374 320.871 381.002C321.541 380.628 322.28 380.362 323.088 380.205ZM335.927 379.19C335.989 379.507 336.022 379.867 336.025 380.269C336.027 380.661 335.979 381.042 335.881 381.411C335.783 381.78 335.628 382.102 335.417 382.377C335.205 382.652 334.91 382.826 334.531 382.899C334.327 382.939 334.188 382.934 334.114 382.885C334.051 382.833 334.005 382.731 333.975 382.578C333.957 382.486 333.931 382.353 333.898 382.179C333.872 381.993 333.843 381.818 333.812 381.654C333.776 381.47 333.72 381.322 333.646 381.209C333.569 381.086 333.428 381.045 333.223 381.084C332.988 381.13 332.74 381.274 332.479 381.515C332.227 381.745 331.98 382.032 331.739 382.376C331.509 382.718 331.291 383.099 331.087 383.521C330.88 383.933 330.701 384.35 330.55 384.772C330.406 385.181 330.302 385.573 330.237 385.947C330.182 386.318 330.178 386.627 330.226 386.872C330.295 387.23 330.473 387.487 330.758 387.644C331.053 387.799 331.416 387.834 331.845 387.751C332.305 387.662 332.781 387.489 333.273 387.235C333.764 386.98 334.243 386.685 334.709 386.351C335.184 386.014 335.636 385.661 336.063 385.292C336.49 384.922 336.873 384.577 337.214 384.256C337.563 383.923 337.854 383.644 338.086 383.418C338.316 383.182 338.468 383.036 338.542 382.979C338.69 382.866 338.835 382.795 338.978 382.767C339.101 382.743 339.209 382.754 339.303 382.8C339.405 382.833 339.489 382.885 339.556 382.957C339.621 383.019 339.673 383.094 339.711 383.182C339.748 383.26 339.772 383.329 339.784 383.39C339.802 383.482 339.813 383.597 339.819 383.734C339.822 383.861 339.773 384.019 339.672 384.208C339.633 384.279 339.495 384.471 339.258 384.782C339.03 385.081 338.724 385.443 338.339 385.868C337.965 386.291 337.525 386.753 337.017 387.255C336.518 387.745 335.967 388.213 335.364 388.659C334.771 389.103 334.142 389.496 333.476 389.837C332.812 390.189 332.138 390.432 331.453 390.565C330.931 390.666 330.45 390.675 330.009 390.591C329.579 390.505 329.199 390.351 328.869 390.128C328.537 389.896 328.263 389.604 328.046 389.253C327.83 388.903 327.681 388.518 327.599 388.099C327.51 387.639 327.515 387.091 327.614 386.456C327.712 385.811 327.889 385.14 328.146 384.443C328.403 383.746 328.729 383.046 329.123 382.343C329.517 381.64 329.964 380.996 330.466 380.411C330.978 379.823 331.528 379.323 332.117 378.912C332.715 378.498 333.347 378.227 334.012 378.098C334.237 378.054 334.451 378.039 334.655 378.052C334.87 378.064 335.06 378.112 335.225 378.196C335.398 378.269 335.543 378.389 335.661 378.557C335.789 378.723 335.877 378.934 335.927 379.19ZM341.991 379.269C341.756 380.078 341.538 380.869 341.338 381.64C341.136 382.401 340.944 383.107 340.762 383.757C340.687 384.027 340.62 384.337 340.561 384.688C340.51 385.027 340.509 385.319 340.557 385.564C340.584 385.707 340.637 385.814 340.714 385.884C340.802 385.952 340.922 385.971 341.076 385.941C341.29 385.899 341.549 385.785 341.853 385.599C342.154 385.402 342.474 385.165 342.813 384.887C343.149 384.599 343.501 384.281 343.869 383.934C344.234 383.576 344.589 383.215 344.932 382.851C345.283 382.475 345.615 382.108 345.928 381.751C346.238 381.382 346.513 381.048 346.751 380.747C346.893 380.603 347.035 380.517 347.179 380.489C347.352 380.455 347.51 380.504 347.653 380.635C347.795 380.767 347.889 380.95 347.935 381.185C347.98 381.42 347.971 381.672 347.906 381.939C347.841 382.206 347.684 382.486 347.433 382.779C346.885 383.512 346.322 384.215 345.742 384.891C345.173 385.564 344.591 386.175 343.998 386.726C343.413 387.264 342.817 387.719 342.21 388.092C341.603 388.465 340.993 388.711 340.38 388.83C339.971 388.909 339.617 388.92 339.319 388.861C339.023 388.812 338.77 388.713 338.561 388.563C338.359 388.4 338.199 388.203 338.08 387.972C337.959 387.73 337.87 387.466 337.814 387.18C337.715 386.668 337.699 386.12 337.765 385.534C337.832 384.948 337.93 384.414 338.059 383.933C338.242 383.239 338.422 382.552 338.597 381.87C338.783 381.187 338.963 380.531 339.138 379.903L338.478 380.031C337.906 380.142 337.494 380.127 337.244 379.984C336.993 379.842 336.845 379.653 336.799 379.418C336.779 379.316 336.786 379.187 336.82 379.032C336.861 378.865 336.932 378.708 337.031 378.561C337.138 378.403 337.274 378.259 337.441 378.132C337.607 378.004 337.807 377.917 338.043 377.871L339.699 377.549L341.686 370.494C341.815 370.065 342.012 369.741 342.277 369.519C342.55 369.286 342.85 369.137 343.177 369.074C343.484 369.014 343.781 369.041 344.068 369.155C344.356 369.269 344.536 369.515 344.61 369.894C344.647 370.088 344.64 370.296 344.588 370.519C344.544 370.729 344.476 370.981 344.385 371.274C344.326 371.466 344.255 371.698 344.169 371.969C344.082 372.23 343.989 372.513 343.889 372.819C343.798 373.113 343.699 373.424 343.593 373.752C343.497 374.079 343.399 374.395 343.3 374.701C343.079 375.423 342.845 376.184 342.598 376.986L347.598 376.014C347.843 375.966 348.071 375.938 348.282 375.929C348.49 375.909 348.674 375.927 348.833 375.981C349 376.023 349.138 376.102 349.246 376.219C349.353 376.336 349.429 376.507 349.473 376.732C349.494 376.844 349.496 376.961 349.477 377.081C349.468 377.2 349.421 377.315 349.337 377.427C349.263 377.537 349.145 377.639 348.983 377.734C348.831 377.828 348.625 377.91 348.363 377.982L341.991 379.269ZM349.9 377.62C350.587 377.826 351.217 378.091 351.789 378.415C352.362 378.738 352.862 379.103 353.291 379.507C353.728 379.9 354.08 380.32 354.348 380.766C354.625 381.211 354.809 381.664 354.898 382.124C355.011 382.707 354.945 383.266 354.699 383.802C354.461 384.326 354.103 384.804 353.625 385.237C353.155 385.657 352.588 386.016 351.924 386.315C351.273 386.622 350.595 386.844 349.889 386.981C349.357 387.085 348.829 387.124 348.304 387.098C347.781 387.083 347.286 386.994 346.819 386.83C346.363 386.664 345.949 386.421 345.579 386.1C345.207 385.769 344.908 385.35 344.682 384.842C344.646 384.764 344.623 384.7 344.613 384.648C344.559 384.372 344.61 384.118 344.767 383.886C344.921 383.644 345.116 383.5 345.351 383.454C345.464 383.432 345.591 383.429 345.732 383.444C345.883 383.457 346.008 383.528 346.107 383.658C346.288 383.877 346.515 384.061 346.788 384.21C347.071 384.356 347.375 384.472 347.699 384.558C348.021 384.633 348.354 384.68 348.697 384.698C349.049 384.704 349.383 384.676 349.7 384.615C350.027 384.551 350.333 384.46 350.617 384.341C350.912 384.22 351.159 384.071 351.358 383.894C351.568 383.716 351.719 383.511 351.812 383.281C351.905 383.051 351.923 382.787 351.865 382.491C351.764 381.969 351.553 381.511 351.232 381.117C350.912 380.723 350.526 380.379 350.077 380.085C349.635 379.778 349.143 379.513 348.601 379.289C348.067 379.053 347.536 378.833 347.008 378.628C346.951 378.607 346.857 378.535 346.727 378.412C346.595 378.278 346.514 378.135 346.484 377.981C346.46 377.859 346.472 377.756 346.52 377.672C346.642 377.426 346.788 377.169 346.959 376.902C347.13 376.635 347.32 376.386 347.53 376.155C347.738 375.913 347.974 375.707 348.238 375.539C348.5 375.361 348.785 375.242 349.092 375.182C349.317 375.139 349.532 375.129 349.739 375.152C349.945 375.176 350.124 375.226 350.277 375.302C350.428 375.368 350.551 375.456 350.646 375.565C350.75 375.661 350.812 375.761 350.832 375.863C350.86 376.006 350.851 376.151 350.805 376.298C350.759 376.445 350.687 376.591 350.588 376.738C350.499 376.883 350.39 377.031 350.261 377.184C350.141 377.334 350.021 377.48 349.9 377.62Z" fill="black"/>
<path d="M244.753 321.042L237.656 314.399L238.054 313.274L240.778 310.374L241.249 311.47L238.858 314.026L241.333 316.343L244.052 313.438L244.523 314.535L242.132 317.09L245.151 319.916L244.753 321.042Z" fill="black"/>
<path d="M253.498 312.44L247.444 304.67L248.096 303.728L249.676 302.497C250.342 301.979 251.091 301.776 251.924 301.89C252.768 302.001 253.45 302.391 253.971 303.059C254.497 303.735 254.711 304.491 254.61 305.326C254.565 305.713 254.46 306.067 254.293 306.387L258.111 308.24L257.537 309.294L253.579 307.273C253.543 307.301 253.506 307.33 253.466 307.361L251.886 308.592L254.066 311.391L253.498 312.44ZM248.769 304.591L251.214 307.729L252.81 306.486C253.238 306.152 253.485 305.714 253.553 305.17C253.62 304.627 253.485 304.137 253.146 303.702C252.813 303.274 252.373 303.025 251.826 302.954C251.28 302.883 250.793 303.014 250.365 303.347L248.769 304.591Z" fill="black"/>
<path d="M263.157 300.111L264.795 303.072L269.054 300.716L269.165 301.905L264.368 304.558L259.729 296.172L260.454 295.224L263.939 293.304L264.05 294.493L260.987 296.187L262.628 299.154L266.109 297.228L266.22 298.417L263.157 300.111Z" fill="black"/>
<path d="M275.395 294.284L276.551 297.464L281.125 295.802L281.049 296.993L275.897 298.866L272.623 289.858L273.487 289.035L277.229 287.682L277.153 288.874L273.863 290.069L275.021 293.256L278.761 291.897L278.685 293.088L275.395 294.284Z" fill="black"/>
<path d="M285.883 285.59L286.865 284.912L288.602 293.843L293.379 292.915L293.118 294.08L287.737 295.126L285.883 285.59Z" fill="black"/>
<path d="M300.354 293.334L300.096 286.052C300.067 285.214 300.342 284.488 300.922 283.875C301.502 283.257 302.218 282.933 303.07 282.903C303.922 282.872 304.659 283.145 305.281 283.72C305.903 284.291 306.229 284.996 306.259 285.834L306.499 292.638L305.423 293.155L305.26 288.544L301.284 288.684L301.43 292.817L300.354 293.334ZM301.245 287.591L305.221 287.45L305.165 285.852C305.141 285.305 304.929 284.848 304.528 284.479C304.123 284.106 303.649 283.929 303.107 283.948C302.56 283.967 302.098 284.177 301.72 284.578C301.346 284.975 301.169 285.439 301.188 285.972L301.189 285.992L301.245 287.591Z" fill="black"/>
<path d="M313.193 293.392L314.074 286.159C314.176 285.326 314.561 284.652 315.23 284.137C315.899 283.617 316.657 283.409 317.503 283.512C318.349 283.615 319.034 283.999 319.559 284.665C320.085 285.326 320.297 286.072 320.195 286.905L319.372 293.663L318.228 294.006L319.112 286.752C319.174 286.209 319.035 285.723 318.697 285.297C318.355 284.865 317.915 284.616 317.376 284.55C316.833 284.484 316.344 284.62 315.908 284.957C315.477 285.29 315.23 285.721 315.165 286.25C315.164 286.259 315.163 286.266 315.163 286.271L314.337 293.05L313.193 293.392Z" fill="black"/>
<path d="M332.786 293.674L332.63 294.219C332.4 295.026 331.914 295.633 331.172 296.042C330.431 296.447 329.65 296.533 328.831 296.299C328.007 296.064 327.389 295.579 326.978 294.846C326.563 294.107 326.471 293.334 326.701 292.528L327.865 288.445C328.095 287.639 328.581 287.034 329.322 286.629C330.064 286.22 330.845 286.132 331.665 286.366C332.493 286.602 333.11 287.089 333.516 287.825C333.929 288.569 334.022 289.339 333.795 290.137L333.778 290.196L332.589 290.376L332.749 289.817C332.897 289.296 332.836 288.795 332.566 288.315C332.295 287.835 331.899 287.52 331.378 287.372C330.847 287.22 330.343 287.278 329.864 287.544C329.386 287.806 329.073 288.2 328.923 288.726L327.747 292.847C327.598 293.369 327.657 293.869 327.923 294.348C328.189 294.827 328.588 295.142 329.118 295.293C329.639 295.442 330.142 295.384 330.625 295.119C331.107 294.858 331.423 294.465 331.573 293.939L331.595 293.86L332.786 293.674Z" fill="black"/>
<path d="M341.494 295.97L340.07 299.039L344.485 301.088L343.59 301.879L338.617 299.571L342.652 290.877L343.845 290.904L347.451 292.585L346.557 293.375L343.382 291.902L341.955 294.977L345.564 296.652L344.669 297.443L341.494 295.97Z" fill="black"/>
</svg>
