<svg width="630" height="504" viewBox="0 0 630 504" fill="none" xmlns="http://www.w3.org/2000/svg">
<path d="M489.39 88.7255C489.878 88.835 489.878 88.8349 489.878 88.8347L489.879 88.8335L489.88 88.829L489.884 88.8108L489.9 88.7387L489.964 88.4571C490.019 88.2103 490.101 87.8483 490.207 87.3876C490.417 86.466 490.719 85.1493 491.087 83.5693C491.823 80.409 492.821 76.196 493.872 71.9838C494.924 67.7699 496.026 63.5633 496.969 60.413C497.441 58.8358 497.87 57.5355 498.23 56.6345C498.389 56.2363 498.529 55.9309 498.646 55.7185C498.764 55.9309 498.904 56.2363 499.063 56.6345C499.423 57.5355 499.852 58.8358 500.324 60.413C501.267 63.5633 502.369 67.7699 503.421 71.9838C504.471 76.196 505.47 80.409 506.206 83.5693C506.574 85.1493 506.876 86.466 507.086 87.3876C507.192 87.8483 507.274 88.2103 507.329 88.4571L507.393 88.7387L507.409 88.8108L507.413 88.829L507.414 88.8335L507.415 88.8347C507.415 88.8349 507.415 88.835 507.903 88.7255M489.39 88.7255C489.534 89.2043 489.534 89.2043 489.534 89.2044L489.533 89.2047L489.53 89.2057L489.516 89.2098L489.462 89.226L489.252 89.2897C489.067 89.3455 488.796 89.4278 488.452 89.533C487.762 89.7436 486.777 90.0463 485.595 90.4148C483.23 91.152 480.078 92.1522 476.927 93.2046C473.774 94.2578 470.629 95.3607 468.277 96.3036C467.098 96.7759 466.133 97.2026 465.467 97.5583C465.139 97.7335 464.903 97.8817 464.753 98C464.903 98.1183 465.139 98.2665 465.467 98.4417C466.133 98.7974 467.098 99.2241 468.277 99.6964C470.629 100.639 473.774 101.742 476.927 102.795C480.078 103.848 483.23 104.848 485.595 105.585C486.777 105.954 487.762 106.256 488.452 106.467C488.796 106.572 489.067 106.654 489.252 106.71L489.462 106.774L489.516 106.79L489.53 106.794L489.533 106.795L489.534 106.796C489.534 106.796 489.534 106.796 489.39 107.275M489.39 88.7255L489.878 88.835L489.814 89.1202L489.534 89.2043L489.39 88.7255ZM489.39 107.275C489.878 107.165 489.878 107.165 489.878 107.165L489.879 107.166L489.88 107.171L489.884 107.189L489.9 107.261L489.964 107.543C490.019 107.79 490.101 108.152 490.207 108.612C490.417 109.534 490.719 110.851 491.087 112.431C491.823 115.591 492.821 119.804 493.872 124.016C494.924 128.23 496.026 132.437 496.969 135.587C497.441 137.164 497.87 138.464 498.23 139.365C498.389 139.764 498.529 140.069 498.646 140.282C498.764 140.069 498.904 139.764 499.063 139.365C499.423 138.464 499.852 137.164 500.324 135.587C501.267 132.437 502.369 128.23 503.421 124.016C504.471 119.804 505.47 115.591 506.206 112.431C506.574 110.851 506.876 109.534 507.086 108.612C507.192 108.152 507.274 107.79 507.329 107.543L507.393 107.261L507.409 107.189L507.413 107.171L507.414 107.166L507.415 107.165C507.415 107.165 507.415 107.165 507.903 107.275M489.39 107.275L489.534 106.796L489.814 106.88L489.878 107.165L489.39 107.275ZM507.903 107.275C507.759 106.796 507.759 106.796 507.759 106.796L507.76 106.795L507.763 106.794L507.777 106.79L507.831 106.774L508.041 106.71C508.226 106.654 508.497 106.572 508.841 106.467C509.531 106.256 510.516 105.954 511.698 105.585C514.063 104.848 517.215 103.848 520.366 102.795C523.519 101.742 526.664 100.639 529.016 99.6964C530.195 99.2241 531.16 98.7974 531.826 98.4417C532.154 98.2665 532.39 98.1183 532.54 98C532.39 97.8817 532.154 97.7335 531.826 97.5583C531.16 97.2026 530.195 96.7759 529.016 96.3036C526.664 95.3607 523.519 94.2578 520.366 93.2046C517.215 92.1522 514.063 91.152 511.698 90.4148C510.516 90.0463 509.531 89.7436 508.841 89.533C508.497 89.4278 508.226 89.3455 508.041 89.2897L507.831 89.226L507.777 89.2098L507.763 89.2057L507.76 89.2047L507.759 89.2044C507.759 89.2043 507.759 89.2043 507.903 88.7255M507.903 107.275L507.415 107.165L507.479 106.88L507.759 106.796L507.903 107.275ZM507.903 88.7255L507.759 89.2043L507.479 89.1202L507.415 88.835L507.903 88.7255ZM498.836 55.441C498.836 55.4413 498.833 55.4435 498.829 55.4469C498.833 55.4425 498.836 55.4408 498.836 55.441ZM498.464 55.4469C498.46 55.4435 498.457 55.4413 498.457 55.441C498.457 55.4408 498.46 55.4425 498.464 55.4469ZM532.678 98.1303C532.678 98.1305 532.677 98.1292 532.675 98.1265C532.677 98.1289 532.678 98.1301 532.678 98.1303ZM498.457 140.559C498.457 140.559 498.46 140.557 498.464 140.553C498.46 140.557 498.457 140.559 498.457 140.559ZM464.615 97.8697C464.615 97.8697 464.616 97.8708 464.617 97.873C464.616 97.8708 464.615 97.8697 464.615 97.8697ZM464.617 98.127C464.616 98.1292 464.615 98.1303 464.615 98.1303C464.615 98.1303 464.616 98.1292 464.617 98.127Z" stroke="black"/>
<path d="M428.512 159.392L428.655 159.871L428.936 159.788L429 159.502L428.512 159.392ZM428.512 159.392C428.655 159.871 428.655 159.871 428.655 159.871L428.655 159.871L428.653 159.872L428.644 159.875L428.612 159.884L428.484 159.923C428.372 159.956 428.207 160.006 427.997 160.07C427.578 160.197 426.979 160.38 426.259 160.603C424.821 161.048 422.903 161.652 420.987 162.288C419.068 162.925 417.159 163.59 415.732 164.158C415.017 164.443 414.437 164.698 414.041 164.908C413.979 164.941 413.924 164.971 413.875 165C413.924 165.029 413.979 165.059 414.041 165.092C414.437 165.302 415.017 165.557 415.732 165.842C417.159 166.41 419.068 167.075 420.987 167.712C422.903 168.348 424.821 168.952 426.259 169.397C426.979 169.62 427.578 169.803 427.997 169.93C428.207 169.994 428.372 170.044 428.484 170.077L428.612 170.116L428.644 170.125L428.653 170.128L428.655 170.129L428.655 170.129C428.655 170.129 428.655 170.129 428.512 170.608M428.512 159.392C429 159.502 429 159.502 429 159.502L429 159.502L429.001 159.499L429.003 159.488L429.013 159.444L429.052 159.274C429.086 159.125 429.136 158.906 429.2 158.628C429.328 158.071 429.512 157.275 429.735 156.32C430.183 154.41 430.791 151.863 431.43 149.318C432.07 146.771 432.74 144.231 433.313 142.331C433.6 141.378 433.859 140.599 434.074 140.063C434.099 140 434.123 139.942 434.146 139.888C434.17 139.942 434.194 140 434.219 140.063C434.434 140.599 434.693 141.378 434.98 142.331C435.553 144.231 436.223 146.771 436.863 149.318C437.502 151.863 438.11 154.41 438.558 156.32C438.781 157.275 438.965 158.071 439.093 158.628C439.157 158.906 439.207 159.125 439.241 159.274L439.28 159.444L439.29 159.488L439.292 159.499L439.293 159.502L439.293 159.502C439.293 159.502 439.293 159.502 439.781 159.392M439.781 159.392L439.293 159.502L439.357 159.788L439.638 159.871L439.781 159.392ZM439.781 159.392C439.638 159.871 439.638 159.871 439.638 159.871L439.638 159.871L439.64 159.872L439.648 159.875L439.681 159.884L439.809 159.923C439.921 159.956 440.086 160.006 440.296 160.07C440.715 160.197 441.314 160.38 442.034 160.603C443.472 161.048 445.39 161.652 447.306 162.288C449.225 162.925 451.134 163.59 452.561 164.158C453.276 164.443 453.856 164.698 454.252 164.908C454.314 164.941 454.369 164.971 454.418 165C454.369 165.029 454.314 165.059 454.252 165.092C453.856 165.302 453.276 165.557 452.561 165.842C451.134 166.41 449.225 167.075 447.306 167.712C445.39 168.348 443.472 168.952 442.034 169.397C441.314 169.62 440.715 169.803 440.296 169.93C440.086 169.994 439.921 170.044 439.809 170.077L439.681 170.116L439.648 170.125L439.64 170.128L439.638 170.129L439.638 170.129C439.638 170.129 439.638 170.129 439.781 170.608M439.781 170.608L439.638 170.129L439.357 170.212L439.293 170.498L439.781 170.608ZM439.781 170.608C439.293 170.498 439.293 170.498 439.293 170.498L439.293 170.498L439.292 170.501L439.29 170.512L439.28 170.556L439.241 170.726C439.207 170.875 439.157 171.094 439.093 171.372C438.965 171.929 438.781 172.725 438.558 173.68C438.11 175.59 437.502 178.137 436.863 180.682C436.223 183.229 435.553 185.769 434.98 187.669C434.693 188.622 434.434 189.401 434.219 189.937C434.194 190 434.17 190.058 434.146 190.112C434.123 190.058 434.099 190 434.074 189.937C433.859 189.401 433.6 188.622 433.313 187.669C432.74 185.769 432.07 183.229 431.43 180.682C430.791 178.137 430.183 175.59 429.735 173.68C429.512 172.725 429.328 171.929 429.2 171.372C429.136 171.094 429.086 170.875 429.052 170.726L429.013 170.556L429.003 170.512L429.001 170.501L429 170.498L429 170.498C429 170.498 429 170.498 428.512 170.608M428.512 170.608L429 170.498L428.936 170.212L428.655 170.129L428.512 170.608Z" stroke="black"/>
<path d="M15.5123 184.392L15.6554 184.871L15.9356 184.788L16 184.502L15.5123 184.392ZM15.5123 184.392C15.6554 184.871 15.6554 184.871 15.6552 184.871L15.6548 184.871L15.6527 184.872L15.6445 184.875L15.6118 184.884L15.4838 184.923C15.3716 184.956 15.2069 185.006 14.9972 185.07C14.5778 185.197 13.9785 185.38 13.2593 185.603C11.8206 186.048 9.90329 186.652 7.98686 187.288C6.06842 187.925 4.15891 188.59 2.73235 189.158C2.01681 189.443 1.43682 189.698 1.04117 189.908C0.979462 189.941 0.924085 189.971 0.874749 190C0.924085 190.029 0.979462 190.059 1.04117 190.092C1.43682 190.302 2.01681 190.557 2.73235 190.842C4.15891 191.41 6.06842 192.075 7.98686 192.712C9.90329 193.348 11.8206 193.952 13.2593 194.397C13.9785 194.62 14.5778 194.803 14.9972 194.93C15.2069 194.994 15.3716 195.044 15.4838 195.077L15.6118 195.116L15.6445 195.125L15.6527 195.128L15.6548 195.129L15.6552 195.129C15.6554 195.129 15.6554 195.129 15.5123 195.608M15.5123 184.392C16 184.502 16 184.502 16.0001 184.502L16.0002 184.502L16.0009 184.499L16.0033 184.488L16.0132 184.444L16.0519 184.274C16.0858 184.125 16.1358 183.906 16.1997 183.628C16.3276 183.071 16.5115 182.275 16.7354 181.32C17.1833 179.41 17.7908 176.863 18.4302 174.318C19.07 171.771 19.74 169.231 20.3127 167.331C20.5997 166.378 20.8587 165.599 21.0742 165.063C21.0993 165 21.1234 164.942 21.1465 164.888C21.1696 164.942 21.1937 165 21.2188 165.063C21.4343 165.599 21.6933 166.378 21.9803 167.331C22.553 169.231 23.223 171.771 23.8628 174.318C24.5021 176.863 25.1097 179.41 25.5575 181.32C25.7814 182.275 25.9653 183.071 26.0932 183.628C26.1572 183.906 26.2071 184.125 26.2411 184.274L26.2798 184.444L26.2896 184.488L26.2921 184.499L26.2927 184.502L26.2929 184.502C26.2929 184.502 26.2929 184.502 26.7806 184.392M26.7806 184.392L26.2929 184.502L26.3574 184.788L26.6376 184.871L26.7806 184.392ZM26.7806 184.392C26.6376 184.871 26.6376 184.871 26.6377 184.871L26.6382 184.871L26.6403 184.872L26.6485 184.875L26.6812 184.884L26.8092 184.923C26.9214 184.956 27.0861 185.006 27.2957 185.07C27.7151 185.197 28.3144 185.38 29.0336 185.603C30.4724 186.048 32.3897 186.652 34.3061 187.288C36.2246 187.925 38.1341 188.59 39.5606 189.158C40.2762 189.443 40.8562 189.698 41.2518 189.908C41.3135 189.941 41.3689 189.971 41.4182 190C41.3689 190.029 41.3135 190.059 41.2518 190.092C40.8562 190.302 40.2762 190.557 39.5606 190.842C38.1341 191.41 36.2246 192.075 34.3061 192.712C32.3897 193.348 30.4724 193.952 29.0336 194.397C28.3144 194.62 27.7151 194.803 27.2957 194.93C27.0861 194.994 26.9214 195.044 26.8092 195.077L26.6812 195.116L26.6485 195.125L26.6403 195.128L26.6382 195.129L26.6377 195.129C26.6376 195.129 26.6376 195.129 26.7806 195.608M26.7806 195.608L26.6376 195.129L26.3574 195.212L26.2929 195.498L26.7806 195.608ZM26.7806 195.608C26.2929 195.498 26.2929 195.498 26.2929 195.498L26.2927 195.498L26.2921 195.501L26.2896 195.512L26.2798 195.556L26.2411 195.726C26.2071 195.875 26.1572 196.094 26.0932 196.372C25.9653 196.929 25.7814 197.725 25.5575 198.68C25.1097 200.59 24.5021 203.137 23.8628 205.682C23.223 208.229 22.553 210.769 21.9803 212.669C21.6933 213.622 21.4343 214.401 21.2188 214.937C21.1937 215 21.1696 215.058 21.1465 215.112C21.1234 215.058 21.0993 215 21.0742 214.937C20.8587 214.401 20.5997 213.622 20.3127 212.669C19.74 210.769 19.07 208.229 18.4302 205.682C17.7908 203.137 17.1833 200.59 16.7354 198.68C16.5115 197.725 16.3276 196.929 16.1997 196.372C16.1358 196.094 16.0858 195.875 16.0519 195.726L16.0132 195.556L16.0033 195.512L16.0009 195.501L16.0002 195.498L16.0001 195.498C16 195.498 16 195.498 15.5123 195.608M15.5123 195.608L16 195.498L15.9356 195.212L15.6554 195.129L15.5123 195.608Z" stroke="black"/>
<path d="M214.512 451.392L214.655 451.871L214.936 451.788L215 451.502L214.512 451.392ZM214.512 451.392C214.655 451.871 214.655 451.871 214.655 451.871L214.655 451.871L214.653 451.872L214.644 451.875L214.612 451.884L214.484 451.923C214.372 451.956 214.207 452.006 213.997 452.07C213.578 452.197 212.979 452.38 212.259 452.603C210.821 453.048 208.903 453.652 206.987 454.288C205.068 454.925 203.159 455.59 201.732 456.158C201.017 456.443 200.437 456.698 200.041 456.908C199.979 456.941 199.924 456.971 199.875 457C199.924 457.029 199.979 457.059 200.041 457.092C200.437 457.302 201.017 457.557 201.732 457.842C203.159 458.41 205.068 459.075 206.987 459.712C208.903 460.348 210.821 460.952 212.259 461.397C212.979 461.62 213.578 461.803 213.997 461.93C214.207 461.994 214.372 462.044 214.484 462.077L214.612 462.116L214.644 462.125L214.653 462.128L214.655 462.129L214.655 462.129C214.655 462.129 214.655 462.129 214.512 462.608M214.512 451.392C215 451.502 215 451.502 215 451.502L215 451.502L215.001 451.499L215.003 451.488L215.013 451.444L215.052 451.274C215.086 451.125 215.136 450.906 215.2 450.628C215.328 450.071 215.512 449.275 215.735 448.32C216.183 446.41 216.791 443.863 217.43 441.318C218.07 438.771 218.74 436.231 219.313 434.331C219.6 433.378 219.859 432.599 220.074 432.063C220.099 432 220.123 431.942 220.146 431.888C220.17 431.942 220.194 432 220.219 432.063C220.434 432.599 220.693 433.378 220.98 434.331C221.553 436.231 222.223 438.771 222.863 441.318C223.502 443.863 224.11 446.41 224.558 448.32C224.781 449.275 224.965 450.071 225.093 450.628C225.157 450.906 225.207 451.125 225.241 451.274L225.28 451.444L225.29 451.488L225.292 451.499L225.293 451.502L225.293 451.502C225.293 451.502 225.293 451.502 225.781 451.392M225.781 451.392L225.293 451.502L225.357 451.788L225.638 451.871L225.781 451.392ZM225.781 451.392C225.638 451.871 225.638 451.871 225.638 451.871L225.638 451.871L225.64 451.872L225.648 451.875L225.681 451.884L225.809 451.923C225.921 451.956 226.086 452.006 226.296 452.07C226.715 452.197 227.314 452.38 228.034 452.603C229.472 453.048 231.39 453.652 233.306 454.288C235.225 454.925 237.134 455.59 238.561 456.158C239.276 456.443 239.856 456.698 240.252 456.908C240.314 456.941 240.369 456.971 240.418 457C240.369 457.029 240.314 457.059 240.252 457.092C239.856 457.302 239.276 457.557 238.561 457.842C237.134 458.41 235.225 459.075 233.306 459.712C231.39 460.348 229.472 460.952 228.034 461.397C227.314 461.62 226.715 461.803 226.296 461.93C226.086 461.994 225.921 462.044 225.809 462.077L225.681 462.116L225.648 462.125L225.64 462.128L225.638 462.129L225.638 462.129C225.638 462.129 225.638 462.129 225.781 462.608M225.781 462.608L225.638 462.129L225.357 462.212L225.293 462.498L225.781 462.608ZM225.781 462.608C225.293 462.498 225.293 462.498 225.293 462.498L225.293 462.498L225.292 462.501L225.29 462.512L225.28 462.556L225.241 462.726C225.207 462.875 225.157 463.094 225.093 463.372C224.965 463.929 224.781 464.725 224.558 465.68C224.11 467.59 223.502 470.137 222.863 472.682C222.223 475.229 221.553 477.769 220.98 479.669C220.693 480.622 220.434 481.401 220.219 481.937C220.194 482 220.17 482.058 220.146 482.112C220.123 482.058 220.099 482 220.074 481.937C219.859 481.401 219.6 480.622 219.313 479.669C218.74 477.769 218.07 475.229 217.43 472.682C216.791 470.137 216.183 467.59 215.735 465.68C215.512 464.725 215.328 463.929 215.2 463.372C215.136 463.094 215.086 462.875 215.052 462.726L215.013 462.556L215.003 462.512L215.001 462.501L215 462.498L215 462.498C215 462.498 215 462.498 214.512 462.608M214.512 462.608L215 462.498L214.936 462.212L214.655 462.129L214.512 462.608Z" stroke="black"/>
<circle cx="129.146" cy="398" r="9.5" stroke="black"/>
<circle cx="61.1465" cy="99" r="4.5" stroke="black"/>
<circle cx="331.146" cy="119" r="4.5" stroke="black"/>
<circle cx="619.146" cy="98" r="9.5" stroke="black"/>
<circle cx="50.1465" cy="247" r="6.5" stroke="black"/>
<circle cx="182.146" cy="39" r="6.5" transform="rotate(180 182.146 39)" stroke="black"/>
<circle cx="332.146" cy="367" r="4.5" stroke="black"/>
<circle cx="102.146" cy="137" r="4.5" stroke="black"/>
<circle cx="36.1465" cy="441" r="4.5" stroke="black"/>
<circle cx="74.1465" cy="497" r="6.5" stroke="black"/>
<circle cx="532.146" cy="5" r="4.5" stroke="black"/>
<circle cx="527.146" cy="191" r="4.5" stroke="black"/>
<path d="M306.842 333.742L306.444 333.698L306.302 334.687L566.761 380.613L567.253 380.7L567.34 380.207L590.435 249.228L590.522 248.735L590.03 248.649L323.943 201.73L323.733 202.707L324.327 202.858C334.047 218.775 339.647 237.483 339.647 257.499C339.647 287.524 327.046 314.604 306.842 333.742Z" stroke="black"/>
<path d="M376.49 236.353L376.225 237.86L366.534 236.151L369.946 216.8L371.571 217.086L368.425 234.931L376.49 236.353ZM379.416 238.422L388.382 220.05L391.218 220.55L393.154 240.845L391.411 240.537L390.986 235.863L383.157 234.482L381.129 238.725L379.416 238.422ZM390.862 234.318L389.776 221.819L389.274 221.731L383.831 233.078L390.862 234.318ZM396.561 235.688L398.988 221.92L400.613 222.207L398.222 235.768C397.687 238.801 398.809 240.562 401.586 241.052C402.984 241.299 404.101 241.069 404.936 240.363C405.775 239.638 406.314 238.596 406.554 237.237L408.945 223.676L410.57 223.963L408.142 237.73C407.805 239.641 407.046 241.01 405.864 241.837C404.703 242.668 403.166 242.915 401.256 242.578C399.345 242.241 397.999 241.466 397.218 240.252C396.457 239.041 396.238 237.52 396.561 235.688ZM420.689 245.7L421.225 242.657L415.139 227.936L415.051 227.921L412.18 244.2L410.555 243.913L413.967 224.562L415.563 224.843L421.653 239.716L421.741 239.732L424.101 226.349L425.726 226.635L422.314 245.986L420.689 245.7ZM437.056 246.514L437.174 248.089C435.351 248.295 433.75 248.277 432.371 248.034C430.106 247.635 428.559 246.56 427.731 244.809C426.925 243.043 426.83 240.416 427.444 236.93C428.059 233.444 429.037 231.006 430.379 229.618C431.724 228.21 433.568 227.713 435.912 228.126C437.35 228.38 438.793 228.949 440.241 229.834L439.508 231.228C438.194 230.387 436.907 229.855 435.646 229.633C433.893 229.324 432.505 229.77 431.481 230.97C430.48 232.154 429.719 234.224 429.198 237.178C428.677 240.133 428.712 242.352 429.303 243.838C429.894 245.323 431.017 246.211 432.671 246.503C433.774 246.697 435.236 246.701 437.056 246.514ZM440.779 249.242L444.191 229.891L445.816 230.177L444.232 239.159L452.564 240.628L454.148 231.647L455.772 231.933L452.36 251.284L450.735 250.998L452.298 242.135L443.967 240.666L442.404 249.529L440.779 249.242ZM477.631 246.175C475.955 245.433 474.774 244.585 474.089 243.631C473.428 242.662 473.234 241.399 473.508 239.843C473.783 238.287 474.528 237.169 475.745 236.49C476.981 235.815 478.446 235.626 480.139 235.925C481.833 236.224 483.503 236.833 485.148 237.752L484.469 239.186C482.938 238.307 481.484 237.746 480.105 237.503C478.746 237.263 477.65 237.375 476.817 237.837C475.987 238.28 475.475 239.053 475.281 240.156C475.087 241.259 475.234 242.148 475.725 242.823C476.215 243.498 477.295 244.227 478.964 245.009C480.657 245.774 481.83 246.611 482.482 247.518C483.138 248.405 483.316 249.696 483.018 251.39C482.723 253.064 481.917 254.293 480.601 255.076C479.308 255.843 477.765 256.069 475.973 255.753C474.634 255.517 472.99 254.932 471.043 254L471.692 252.561C473.604 253.467 475.171 254.027 476.392 254.242C477.613 254.458 478.676 254.3 479.582 253.769C480.492 253.219 481.054 252.333 481.269 251.112C481.485 249.891 481.357 248.944 480.887 248.272C480.416 247.6 479.331 246.901 477.631 246.175ZM487.666 257.51L487.926 256.033L491.265 256.621L494.156 240.224L490.817 239.636L491.078 238.158L499.321 239.612L499.06 241.089L495.781 240.511L492.89 256.908L496.169 257.486L495.908 258.963L487.666 257.51ZM504.018 241.994L504.284 240.487L516.161 242.581L515.895 244.088L510.754 243.181L507.608 261.026L505.983 260.74L509.13 242.895L504.018 241.994ZM516.944 262.672L520.356 243.321L530.431 245.097L530.175 246.545L521.726 245.055L520.434 252.382L528.086 253.731L527.831 255.179L520.179 253.83L518.824 261.511L527.362 263.017L527.107 264.464L516.944 262.672ZM367.02 264.669L375.986 246.296L378.822 246.797L380.758 267.091L379.015 266.784L378.59 262.109L370.761 260.728L368.733 264.971L367.02 264.669ZM378.466 260.564L377.38 248.065L376.878 247.977L371.435 259.324L378.466 260.564ZM389.898 259.137C388.221 258.395 387.04 257.547 386.356 256.594C385.694 255.624 385.5 254.361 385.775 252.805C386.049 251.249 386.794 250.132 388.011 249.452C389.247 248.777 390.712 248.588 392.406 248.887C394.1 249.186 395.769 249.795 397.414 250.715L396.735 252.148C395.205 251.269 393.75 250.708 392.371 250.465C391.012 250.225 389.916 250.337 389.083 250.799C388.254 251.242 387.742 252.015 387.547 253.118C387.353 254.221 387.501 255.11 387.991 255.785C388.481 256.461 389.561 257.189 391.23 257.971C392.923 258.737 394.096 259.573 394.748 260.48C395.404 261.367 395.583 262.658 395.284 264.352C394.989 266.026 394.183 267.255 392.867 268.038C391.574 268.805 390.032 269.031 388.239 268.715C386.9 268.479 385.257 267.894 383.309 266.962L383.959 265.523C385.87 266.429 387.437 266.989 388.658 267.205C389.879 267.42 390.943 267.262 391.849 266.731C392.758 266.181 393.32 265.295 393.536 264.074C393.751 262.853 393.623 261.906 393.153 261.234C392.683 260.563 391.597 259.863 389.898 259.137ZM404.965 261.794C403.289 261.052 402.108 260.204 401.423 259.25C400.761 258.281 400.568 257.018 400.842 255.462C401.117 253.906 401.862 252.788 403.078 252.109C404.314 251.434 405.779 251.245 407.473 251.544C409.167 251.843 410.837 252.452 412.482 253.371L411.803 254.805C410.272 253.926 408.817 253.365 407.439 253.122C406.08 252.882 404.984 252.994 404.151 253.456C403.321 253.899 402.809 254.672 402.615 255.775C402.42 256.877 402.568 257.767 403.058 258.442C403.549 259.117 404.628 259.846 406.298 260.628C407.991 261.393 409.163 262.23 409.816 263.137C410.472 264.024 410.65 265.315 410.352 267.009C410.056 268.683 409.251 269.912 407.935 270.695C406.642 271.462 405.099 271.688 403.307 271.372C401.968 271.135 400.324 270.551 398.376 269.619L399.026 268.18C400.938 269.086 402.504 269.646 403.726 269.861C404.947 270.077 406.01 269.919 406.916 269.388C407.826 268.838 408.388 267.952 408.603 266.731C408.819 265.51 408.691 264.563 408.221 263.891C407.75 263.219 406.665 262.52 404.965 261.794ZM414.143 272.978L417.555 253.626L427.629 255.403L427.374 256.85L418.925 255.36L417.633 262.687L425.285 264.037L425.029 265.484L417.377 264.135L416.023 271.817L424.561 273.322L424.306 274.77L414.143 272.978ZM428.206 275.457L431.618 256.106L433.184 256.382L435.438 267.959L435.881 268.037L441.958 257.929L443.524 258.205L440.112 277.557L438.517 277.275L441.163 262.267L441.045 262.246L436.531 269.706L434.256 269.305L432.571 260.721L432.453 260.701L429.801 275.739L428.206 275.457ZM443.835 278.213L447.247 258.862L451.797 259.664C453.963 260.046 455.499 260.723 456.404 261.695C457.332 262.651 457.638 264.025 457.322 265.817C456.926 268.062 455.576 269.327 453.272 269.611C454.52 270.136 455.388 270.797 455.877 271.594C456.386 272.394 456.524 273.454 456.291 274.774C455.923 276.862 455.079 278.195 453.758 278.775C452.441 279.335 450.561 279.399 448.119 278.969L443.835 278.213ZM454.578 274.472C455.001 272.069 453.578 270.579 450.309 270.003L447.059 269.43L445.715 277.052L448.374 277.521C450.206 277.844 451.625 277.8 452.632 277.388C453.661 276.961 454.31 275.988 454.578 274.472ZM454.609 262.201C453.824 261.697 452.802 261.334 451.541 261.112L448.616 260.596L447.314 267.982L450.475 268.539C451.716 268.758 452.819 268.668 453.782 268.269C454.75 267.851 455.375 266.895 455.659 265.402C455.943 263.908 455.593 262.841 454.609 262.201ZM469.567 281.197L469.302 282.704L459.611 280.995L463.023 261.644L464.648 261.93L461.502 279.775L469.567 281.197ZM481.619 276.255L480.145 284.616L478.549 284.334L480.023 275.973L476.259 263.977L478.209 264.321L481.088 274.425L481.148 274.435L487.309 265.926L489.259 266.27L481.619 276.255ZM504.175 282.913C504.415 281.554 504.845 280.553 505.466 279.911C506.11 279.253 506.948 278.761 507.981 278.435C507.269 277.173 507.037 275.842 507.283 274.444C507.887 271.016 509.962 269.615 513.508 270.241C514.374 270.393 515.281 270.665 516.227 271.055L516.738 271.267L516.202 272.757C515.072 272.253 514.084 271.926 513.237 271.777C511.917 271.544 510.911 271.661 510.22 272.128C509.548 272.599 509.104 273.445 508.889 274.666C508.674 275.887 508.867 277.038 509.468 278.119L518.42 279.697L518.154 281.204L515.377 280.714L513.71 290.169C512.078 290.327 510.572 290.285 509.193 290.042C505.136 289.327 503.463 286.95 504.175 282.913ZM509.941 279.756C507.656 279.353 506.26 280.589 505.753 283.465C505.496 284.923 505.662 286.058 506.249 286.873C506.856 287.691 507.958 288.24 509.553 288.522C510.558 288.699 511.494 288.742 512.363 288.652L513.811 280.438L509.941 279.756ZM357.401 291.404L357.661 289.927L361 290.516L363.891 274.119L360.553 273.53L360.813 272.053L369.056 273.506L368.795 274.984L365.516 274.405L362.625 290.802L365.904 291.381L365.644 292.858L357.401 291.404ZM380.829 295.536L381.366 292.493L375.28 277.772L375.191 277.756L372.321 294.035L370.696 293.749L374.108 274.397L375.703 274.679L381.793 289.552L381.882 289.568L384.242 276.184L385.867 276.471L382.454 295.822L380.829 295.536ZM388.821 278.545L389.087 277.038L400.964 279.133L400.698 280.639L395.557 279.733L392.411 297.578L390.786 297.291L393.932 279.446L388.821 278.545ZM401.747 299.224L405.159 279.872L415.234 281.649L414.978 283.096L406.529 281.607L405.237 288.934L412.889 290.283L412.633 291.73L404.981 290.381L403.627 298.063L412.165 299.568L411.91 301.016L401.747 299.224ZM422.198 303.135C419.914 302.732 418.359 301.645 417.534 299.875C416.708 298.105 416.603 295.477 417.218 291.99C417.836 288.485 418.826 286.039 420.187 284.655C421.548 283.27 423.45 282.793 425.892 283.224C427.487 283.505 429.106 284.115 430.748 285.055L430.069 286.488C428.384 285.562 426.901 284.986 425.621 284.76C423.77 284.433 422.324 284.859 421.284 286.036C420.267 287.197 419.496 289.265 418.971 292.239C418.45 295.193 418.484 297.423 419.071 298.928C419.662 300.413 420.795 301.303 422.469 301.598C423.474 301.775 424.727 301.753 426.228 301.53L427.27 295.621L423.932 295.033L424.187 293.585L429.15 294.46L427.65 302.969C425.493 303.34 423.676 303.395 422.198 303.135ZM438.778 297.559C437.704 297.431 437.01 297.339 436.695 297.283L434.272 296.856L432.886 304.715L431.261 304.428L434.674 285.077L439.017 285.842C441.42 286.266 443.109 286.991 444.086 288.016C445.063 289.041 445.367 290.597 444.999 292.685C444.753 294.084 444.269 295.156 443.549 295.902C442.848 296.652 441.83 297.183 440.495 297.496C441.387 300.273 442.12 303.256 442.695 306.444L440.922 306.132C440.346 303.065 439.632 300.207 438.778 297.559ZM438.697 287.309L436.038 286.84L434.533 295.379L436.896 295.795C438.708 296.115 440.154 296.035 441.234 295.555C442.317 295.055 443.001 293.998 443.286 292.383C443.57 290.768 443.33 289.598 442.564 288.874C441.818 288.154 440.529 287.632 438.697 287.309ZM445.029 306.856L453.996 288.484L456.832 288.984L458.767 309.278L457.024 308.971L456.599 304.296L448.77 302.915L446.743 307.158L445.029 306.856ZM456.476 302.751L455.39 290.253L454.887 290.164L449.444 301.511L456.476 302.751ZM464.159 291.829L464.425 290.323L476.301 292.417L476.036 293.923L470.895 293.017L467.749 310.862L466.124 310.575L469.27 292.731L464.159 291.829ZM477.941 312.659L478.202 311.182L481.54 311.77L484.432 295.373L481.093 294.785L481.354 293.308L489.596 294.761L489.336 296.238L486.056 295.66L483.165 312.057L486.445 312.635L486.184 314.112L477.941 312.659ZM492.651 305.078C492.922 303.542 493.255 302.23 493.65 301.142C494.045 300.054 494.539 299.095 495.132 298.265C496.341 296.59 498.157 295.966 500.58 296.393C503.334 296.899 504.918 298.509 505.334 301.222C505.585 302.789 505.534 304.578 505.18 306.587C504.829 308.576 504.451 310.144 504.045 311.291C503.64 312.438 503.137 313.446 502.537 314.315C501.291 316.086 499.466 316.759 497.063 316.335C494.7 315.919 493.225 314.664 492.64 312.57C492.102 310.668 492.106 308.17 492.651 305.078ZM503.275 307.195C503.463 306.132 503.584 305.27 503.64 304.609C503.715 303.952 503.733 303.214 503.695 302.395C503.657 301.576 503.525 300.883 503.3 300.315C503.095 299.751 502.736 299.251 502.224 298.815C501.735 298.364 501.097 298.068 500.309 297.929C499.521 297.79 498.81 297.848 498.177 298.102C497.566 298.339 497.058 298.686 496.653 299.143C496.267 299.603 495.916 300.211 495.6 300.968C495.109 302.14 494.731 303.475 494.467 304.972C494.207 306.449 494.044 307.659 493.979 308.602C493.938 309.529 493.987 310.462 494.126 311.4C494.413 313.34 495.483 314.473 497.334 314.799C499.225 315.132 500.629 314.426 501.547 312.678C502.337 311.193 502.913 309.365 503.275 307.195ZM516.437 319.447L516.974 316.404L510.888 301.683L510.799 301.668L507.929 317.947L506.304 317.66L509.716 298.309L511.311 298.59L517.401 313.463L517.49 313.479L519.85 300.095L521.475 300.382L518.062 319.733L516.437 319.447ZM373.84 322.735L377.252 303.384L381.802 304.186C383.969 304.568 385.504 305.245 386.409 306.217C387.338 307.172 387.644 308.547 387.328 310.339C386.932 312.584 385.582 313.849 383.277 314.133C384.525 314.658 385.393 315.319 385.883 316.116C386.391 316.916 386.529 317.976 386.297 319.296C385.928 321.384 385.084 322.717 383.763 323.297C382.446 323.857 380.566 323.921 378.124 323.49L373.84 322.735ZM384.583 318.994C385.007 316.591 383.584 315.101 380.314 314.525L377.064 313.952L375.72 321.574L378.379 322.043C380.211 322.366 381.63 322.322 382.637 321.91C383.667 321.482 384.316 320.51 384.583 318.994ZM384.614 306.723C383.83 306.219 382.807 305.856 381.547 305.634L378.622 305.118L377.32 312.504L380.481 313.061C381.722 313.28 382.824 313.19 383.788 312.791C384.755 312.373 385.381 311.417 385.664 309.924C385.948 308.43 385.598 307.363 384.614 306.723ZM387.43 325.131L396.397 306.759L399.233 307.259L401.169 327.554L399.425 327.246L399.001 322.572L391.172 321.191L389.144 325.434L387.43 325.131ZM398.877 321.027L397.791 308.528L397.289 308.44L391.846 319.787L398.877 321.027ZM410.309 319.6C408.632 318.858 407.451 318.01 406.766 317.056C406.105 316.087 405.911 314.824 406.185 313.268C406.46 311.712 407.205 310.594 408.422 309.915C409.658 309.24 411.123 309.051 412.817 309.35C414.51 309.649 416.18 310.258 417.825 311.177L417.146 312.611C415.615 311.732 414.161 311.171 412.782 310.928C411.423 310.688 410.327 310.8 409.494 311.262C408.665 311.705 408.153 312.478 407.958 313.581C407.764 314.684 407.911 315.573 408.402 316.248C408.892 316.923 409.972 317.652 411.641 318.434C413.334 319.199 414.507 320.036 415.159 320.943C415.815 321.83 415.994 323.121 415.695 324.815C415.4 326.489 414.594 327.718 413.278 328.501C411.985 329.268 410.443 329.494 408.65 329.178C407.311 328.942 405.667 328.357 403.72 327.425L404.369 325.986C406.281 326.892 407.848 327.452 409.069 327.667C410.29 327.883 411.354 327.725 412.259 327.194C413.169 326.644 413.731 325.758 413.947 324.537C414.162 323.316 414.034 322.369 413.564 321.697C413.093 321.025 412.008 320.326 410.309 319.6ZM419.486 330.784L422.898 311.432L432.973 313.209L432.717 314.656L424.268 313.166L422.976 320.493L430.628 321.843L430.373 323.29L422.721 321.941L421.366 329.623L429.904 331.128L429.649 332.576L419.486 330.784ZM444.776 333.689L444.51 335.196L434.819 333.487L438.232 314.136L439.857 314.422L436.71 332.267L444.776 333.689ZM450.478 336.248L450.738 334.771L454.077 335.36L456.968 318.963L453.63 318.374L453.89 316.897L462.133 318.35L461.872 319.828L458.593 319.249L455.702 335.646L458.981 336.225L458.721 337.702L450.478 336.248ZM473.906 340.379L474.443 337.336L468.357 322.616L468.268 322.6L465.398 338.879L463.773 338.593L467.185 319.241L468.78 319.522L474.87 334.396L474.959 334.412L477.319 321.028L478.944 321.315L475.531 340.666L473.906 340.379ZM479.756 341.411L483.168 322.059L493.243 323.836L492.988 325.284L484.538 323.794L483.246 331.121L490.898 332.47L490.643 333.918L482.991 332.568L481.636 340.25L490.175 341.755L489.919 343.203L479.756 341.411Z" fill="black"/>
<path d="M344.87 334.889C344.83 334.882 344.814 334.859 344.821 334.82L346.264 326.703C346.27 326.671 346.289 326.658 346.32 326.664L347.644 326.897C347.675 326.903 347.688 326.921 347.683 326.953L346.263 335.074C346.256 335.113 346.237 335.13 346.205 335.125L344.87 334.889ZM347.595 335.37C347.532 335.359 347.506 335.325 347.515 335.27L348.922 327.22C348.934 327.157 348.971 327.131 349.034 327.142L350.097 327.33L351.273 332.338L352.019 327.766C352.03 327.703 352.071 327.678 352.142 327.69L353.312 327.897C353.359 327.905 353.377 327.941 353.366 328.004L351.957 336.066C351.948 336.113 351.924 336.133 351.885 336.126L350.845 335.943L349.567 331.233L348.9 335.502C348.889 335.565 348.848 335.591 348.777 335.578L347.595 335.37ZM354.349 336.561C354.318 336.555 354.306 336.533 354.313 336.493L355.5 329.757L353.964 329.486C353.925 329.479 353.908 329.456 353.915 329.417L354.161 328.095C354.166 328.064 354.185 328.051 354.216 328.056L358.707 328.848C358.746 328.855 358.763 328.874 358.758 328.906L358.524 330.229C358.517 330.269 358.498 330.286 358.467 330.28L356.918 330.007L355.742 336.745C355.736 336.785 355.716 336.802 355.685 336.796L354.349 336.561ZM358.144 337.23C358.112 337.224 358.1 337.202 358.107 337.162L359.55 329.046C359.556 329.014 359.574 329.001 359.606 329.007L363.399 329.675C363.431 329.681 363.443 329.703 363.436 329.743L363.203 331.066C363.197 331.098 363.179 331.111 363.147 331.105L360.724 330.678L360.399 332.522L362.822 332.949C362.853 332.955 362.866 332.973 362.861 333.005L362.637 334.342C362.632 334.374 362.613 334.387 362.582 334.381L360.147 333.952L359.783 336.02L362.217 336.449C362.249 336.455 362.261 336.477 362.254 336.517L362.016 337.864C362.011 337.895 361.992 337.908 361.961 337.903L358.144 337.23ZM363.303 338.139C363.272 338.134 363.259 338.111 363.266 338.072L364.721 329.957C364.727 329.926 364.745 329.913 364.777 329.918L367.164 330.339C367.59 330.414 367.961 330.589 368.278 330.865C368.604 331.133 368.842 331.464 368.993 331.856C369.144 332.24 369.181 332.653 369.103 333.094C369.052 333.385 368.962 333.642 368.834 333.863C368.707 334.076 368.57 334.255 368.422 334.399C368.276 334.536 368.149 334.636 368.041 334.698C368.383 335.245 368.498 335.838 368.385 336.477L367.97 338.901C367.963 338.941 367.94 338.957 367.9 338.95L366.565 338.714C366.533 338.709 366.52 338.694 366.524 338.671L366.955 336.224C367.005 335.941 366.946 335.679 366.777 335.438C366.618 335.19 366.392 335.041 366.101 334.989L365.321 334.852L364.696 338.324C364.689 338.363 364.67 338.38 364.638 338.375L363.303 338.139ZM365.571 333.434L366.587 333.613C366.831 333.656 367.064 333.603 367.285 333.456C367.506 333.308 367.639 333.104 367.685 332.844C367.73 332.592 367.673 332.358 367.516 332.144C367.367 331.931 367.166 331.802 366.914 331.757L365.898 331.578L365.571 333.434ZM369.26 339.19C369.197 339.179 369.171 339.146 369.18 339.09L370.587 331.04C370.599 330.977 370.636 330.951 370.699 330.963L371.762 331.15L372.938 336.158L373.684 331.586C373.695 331.523 373.736 331.498 373.807 331.511L374.977 331.717C375.024 331.725 375.042 331.761 375.031 331.824L373.622 339.886C373.613 339.933 373.589 339.953 373.55 339.946L372.51 339.763L371.232 335.053L370.565 339.322C370.554 339.385 370.513 339.411 370.442 339.398L369.26 339.19ZM374.441 340.042L377.338 332.182C377.352 332.152 377.374 332.14 377.406 332.145L379.119 332.447C379.151 332.453 379.168 332.472 379.17 332.505L379.145 340.872C379.146 340.913 379.126 340.929 379.087 340.922L377.775 340.691C377.744 340.686 377.728 340.662 377.727 340.622L377.749 339.736L376.141 339.453L375.859 340.292C375.845 340.33 375.821 340.347 375.79 340.341L374.478 340.11C374.447 340.104 374.434 340.082 374.441 340.042ZM376.601 338.23L377.735 338.43L377.836 335.024L377.843 334.574L377.718 335.003L376.601 338.23ZM380.12 341.105C380.089 341.099 380.076 341.077 380.083 341.037L381.525 332.932C381.532 332.893 381.555 332.877 381.594 332.884L382.906 333.115C382.945 333.122 382.961 333.145 382.955 333.185L381.759 339.895L384.194 340.324C384.233 340.331 384.249 340.354 384.242 340.394L384.007 341.729C384 341.768 383.977 341.785 383.937 341.778L380.12 341.105ZM387.627 342.428C387.595 342.423 387.583 342.4 387.59 342.361L388.778 335.625L387.241 335.354C387.202 335.347 387.186 335.324 387.193 335.284L387.438 333.963C387.443 333.931 387.462 333.918 387.493 333.924L391.984 334.716C392.024 334.723 392.04 334.742 392.035 334.773L391.802 336.097C391.795 336.136 391.775 336.153 391.744 336.148L390.196 335.875L389.02 342.613C389.013 342.652 388.994 342.669 388.962 342.664L387.627 342.428ZM393.424 343.572C392.998 343.497 392.627 343.322 392.31 343.047C392.002 342.765 391.773 342.428 391.623 342.036C391.474 341.636 391.438 341.22 391.514 340.786L392.187 337.042C392.263 336.609 392.435 336.233 392.702 335.915C392.978 335.598 393.311 335.364 393.703 335.214C394.095 335.064 394.5 335.025 394.918 335.099C395.343 335.174 395.71 335.348 396.02 335.622C396.329 335.896 396.554 336.228 396.697 336.619C396.847 337.011 396.884 337.424 396.807 337.857L396.159 341.605C396.082 342.039 395.906 342.418 395.629 342.743C395.362 343.061 395.031 343.299 394.638 343.457C394.254 343.609 393.849 343.647 393.424 343.572ZM393.676 342.142C393.912 342.184 394.134 342.126 394.34 341.967C394.556 341.802 394.686 341.597 394.729 341.353L395.378 337.605C395.423 337.345 395.38 337.11 395.246 336.899C395.113 336.689 394.92 336.562 394.668 336.517C394.423 336.474 394.199 336.528 393.993 336.678C393.789 336.821 393.664 337.027 393.617 337.294L392.956 341.041C392.91 341.301 392.957 341.54 393.097 341.76C393.239 341.972 393.431 342.099 393.676 342.142ZM399.022 344.559C398.596 344.484 398.225 344.309 397.908 344.034C397.6 343.752 397.371 343.415 397.221 343.023C397.072 342.623 397.036 342.207 397.112 341.773L397.785 338.029C397.861 337.596 398.033 337.22 398.3 336.902C398.576 336.585 398.909 336.351 399.301 336.201C399.693 336.051 400.098 336.012 400.516 336.086C400.941 336.161 401.308 336.336 401.618 336.609C401.927 336.883 402.152 337.215 402.295 337.606C402.445 337.998 402.482 338.411 402.405 338.844L401.757 342.592C401.68 343.026 401.504 343.405 401.227 343.73C400.96 344.048 400.629 344.286 400.236 344.444C399.852 344.596 399.447 344.634 399.022 344.559ZM399.274 343.129C399.51 343.171 399.732 343.113 399.938 342.954C400.154 342.789 400.284 342.585 400.327 342.34L400.976 338.592C401.021 338.332 400.978 338.097 400.844 337.886C400.711 337.676 400.518 337.549 400.266 337.504C400.021 337.461 399.797 337.515 399.591 337.666C399.387 337.808 399.262 338.014 399.215 338.282L398.554 342.028C398.508 342.288 398.555 342.528 398.695 342.747C398.837 342.959 399.03 343.086 399.274 343.129ZM402.501 345.051C402.47 345.046 402.458 345.023 402.465 344.984L403.906 336.879C403.913 336.839 403.936 336.823 403.975 336.83L405.287 337.061C405.327 337.068 405.343 337.092 405.336 337.131L404.14 343.841L406.575 344.271C406.614 344.278 406.63 344.301 406.624 344.34L406.388 345.675C406.381 345.715 406.358 345.731 406.319 345.724L402.501 345.051ZM410.825 346.519C410.793 346.513 410.78 346.495 410.786 346.463L411.021 345.128C411.027 345.096 411.045 345.083 411.077 345.089L412.412 345.324C412.444 345.33 412.457 345.348 412.451 345.38L412.216 346.715C412.21 346.747 412.192 346.76 412.16 346.754L410.825 346.519ZM419.431 348.158C419.013 348.084 418.646 347.91 418.329 347.635C418.013 347.352 417.781 347.01 417.632 346.61C417.491 346.212 417.459 345.796 417.535 345.362L418.601 339.458C418.606 339.426 418.625 339.413 418.656 339.419L419.98 339.652C420.012 339.658 420.025 339.676 420.019 339.708L418.977 345.617C418.93 345.885 418.972 346.128 419.104 346.346C419.246 346.558 419.439 346.685 419.683 346.728C419.935 346.773 420.16 346.719 420.357 346.567C420.564 346.408 420.691 346.195 420.738 345.927L421.78 340.018C421.785 339.987 421.804 339.974 421.835 339.979L423.159 340.213C423.191 340.218 423.204 340.237 423.198 340.268L422.18 346.181C422.102 346.623 421.925 347.006 421.648 347.33C421.379 347.657 421.049 347.895 420.657 348.045C420.273 348.197 419.864 348.234 419.431 348.158ZM422.428 348.565C422.396 348.559 422.388 348.537 422.403 348.499L424.494 344.518L423.858 340.385C423.856 340.352 423.87 340.338 423.902 340.344L425.225 340.577C425.265 340.584 425.286 340.604 425.288 340.637L425.584 343.589L426.883 340.918C426.897 340.888 426.923 340.876 426.963 340.883L428.274 341.115C428.306 341.12 428.315 341.138 428.302 341.168L426.292 344.823L426.882 349.289C426.891 349.331 426.875 349.349 426.836 349.342L425.512 349.109C425.481 349.103 425.461 349.079 425.452 349.037L425.186 345.846L423.833 348.751C423.818 348.789 423.791 348.805 423.752 348.798L422.428 348.565ZM429.895 349.881C429.855 349.874 429.839 349.851 429.846 349.812L431.301 341.697C431.307 341.666 431.325 341.653 431.357 341.658L433.569 342.036C434.004 342.105 434.379 342.276 434.696 342.552C435.021 342.828 435.258 343.167 435.407 343.567C435.557 343.959 435.594 344.371 435.518 344.805L434.92 348.196C434.839 348.653 434.655 349.051 434.368 349.391C434.082 349.722 433.735 349.965 433.325 350.121C432.916 350.276 432.478 350.317 432.012 350.242L429.895 349.881ZM431.534 348.671L432.266 348.801C432.558 348.852 432.82 348.793 433.053 348.623C433.294 348.454 433.44 348.228 433.49 347.944L434.09 344.541C434.134 344.288 434.078 344.055 433.921 343.841C433.773 343.62 433.572 343.491 433.319 343.454L432.49 343.32L431.534 348.671ZM435.654 350.897C435.623 350.891 435.61 350.869 435.617 350.829L437.061 342.713C437.066 342.681 437.085 342.668 437.116 342.674L440.91 343.343C440.941 343.348 440.953 343.371 440.947 343.41L440.713 344.734C440.708 344.765 440.689 344.778 440.658 344.773L438.235 344.345L437.91 346.189L440.332 346.616C440.364 346.622 440.377 346.64 440.371 346.672L440.148 348.009C440.142 348.041 440.124 348.054 440.092 348.048L437.658 347.619L437.293 349.687L439.728 350.116C439.759 350.122 439.771 350.144 439.764 350.184L439.527 351.531C439.521 351.562 439.503 351.575 439.471 351.57L435.654 350.897ZM442.685 352.258C442.26 352.183 441.889 352.008 441.572 351.733C441.264 351.451 441.035 351.114 440.885 350.722C440.744 350.324 440.711 349.908 440.788 349.475L440.884 348.931C440.891 348.892 440.914 348.875 440.953 348.882L442.277 349.116C442.308 349.121 442.321 349.144 442.314 349.183L442.218 349.727C442.172 349.987 442.219 350.227 442.359 350.446C442.5 350.658 442.693 350.785 442.937 350.828C443.182 350.872 443.407 350.814 443.614 350.655C443.82 350.497 443.946 350.291 443.99 350.039C444.042 349.748 443.897 349.462 443.556 349.183C443.443 349.09 443.265 348.945 443.024 348.748C442.782 348.551 442.555 348.365 442.343 348.189C441.954 347.861 441.686 347.488 441.54 347.073C441.404 346.651 441.378 346.199 441.462 345.719C441.54 345.278 441.716 344.902 441.99 344.593C442.265 344.276 442.594 344.046 442.977 343.902C443.367 343.76 443.768 343.725 444.177 343.797C444.595 343.871 444.958 344.044 445.267 344.318C445.586 344.586 445.816 344.915 445.958 345.305C446.11 345.689 446.148 346.098 446.071 346.531L445.9 347.5C445.895 347.532 445.876 347.545 445.845 347.539L444.521 347.306C444.49 347.3 444.477 347.282 444.482 347.25L444.641 346.279C444.69 346.003 444.643 345.764 444.5 345.56C444.357 345.356 444.168 345.233 443.931 345.191C443.687 345.148 443.462 345.206 443.255 345.365C443.05 345.515 442.925 345.717 442.88 345.969C442.835 346.229 442.851 346.455 442.931 346.648C443.011 346.841 443.183 347.042 443.446 347.251C443.482 347.281 443.549 347.338 443.648 347.42C443.756 347.496 443.871 347.585 443.991 347.688C444.112 347.782 444.219 347.866 444.312 347.939C444.413 348.014 444.473 348.061 444.494 348.081C444.849 348.371 445.112 348.698 445.284 349.061C445.457 349.417 445.502 349.827 445.42 350.291C445.341 350.741 445.163 351.128 444.887 351.452C444.619 351.771 444.29 352.005 443.898 352.155C443.515 352.299 443.111 352.333 442.685 352.258ZM446.1 352.739C446.061 352.732 446.045 352.709 446.052 352.669L447.495 344.553C447.501 344.521 447.519 344.508 447.551 344.514L448.874 344.747C448.906 344.753 448.919 344.771 448.913 344.803L447.493 352.923C447.486 352.963 447.467 352.98 447.436 352.974L446.1 352.739ZM450.861 353.7C450.436 353.625 450.068 353.451 449.759 353.177C449.45 352.903 449.22 352.57 449.07 352.178C448.929 351.779 448.898 351.36 448.976 350.918L449.636 347.172C449.711 346.747 449.882 346.375 450.15 346.056C450.426 345.731 450.757 345.493 451.141 345.342C451.533 345.191 451.938 345.153 452.355 345.227C452.789 345.303 453.16 345.478 453.469 345.752C453.787 346.02 454.018 346.349 454.16 346.739C454.302 347.13 454.335 347.546 454.257 347.987L454.161 348.531C454.155 348.562 454.133 348.574 454.094 348.567L452.77 348.334C452.738 348.328 452.725 348.31 452.731 348.278L452.81 347.829C452.863 347.53 452.82 347.266 452.682 347.039C452.551 346.813 452.359 346.678 452.107 346.633C451.879 346.593 451.657 346.651 451.443 346.808C451.236 346.967 451.111 347.172 451.066 347.424L450.406 351.171C450.36 351.43 450.407 351.67 450.547 351.89C450.688 352.102 450.877 352.228 451.113 352.27C451.365 352.315 451.59 352.261 451.788 352.109C451.993 351.958 452.119 351.749 452.166 351.481L452.268 350.902L451.441 350.756C451.402 350.749 451.386 350.726 451.393 350.687L451.626 349.363C451.633 349.324 451.656 349.307 451.695 349.314L453.905 349.704C453.937 349.71 453.949 349.732 453.942 349.771L453.596 351.733C453.518 352.174 453.341 352.557 453.065 352.882C452.797 353.201 452.472 353.436 452.087 353.587C451.703 353.739 451.294 353.776 450.861 353.7ZM454.343 354.192C454.28 354.181 454.253 354.148 454.263 354.093L455.67 346.043C455.681 345.98 455.718 345.954 455.781 345.965L456.845 346.152L458.021 351.161L458.766 346.589C458.778 346.526 458.819 346.5 458.89 346.513L460.059 346.719C460.107 346.728 460.125 346.763 460.114 346.826L458.704 354.888C458.696 354.935 458.672 354.956 458.633 354.949L457.593 354.765L456.315 350.056L455.648 354.325C455.637 354.388 455.596 354.413 455.525 354.401L454.343 354.192ZM463.873 355.885C463.409 355.803 463.019 355.616 462.705 355.325C462.399 355.036 462.177 354.7 462.042 354.319C461.906 353.938 461.868 353.574 461.93 353.227L462.067 352.447C462.114 352.179 462.223 351.93 462.394 351.7C462.564 351.47 462.769 351.275 463.009 351.114C462.875 350.904 462.784 350.66 462.735 350.384C462.688 350.099 462.693 349.795 462.75 349.472C462.822 349.063 462.982 348.709 463.229 348.411C463.486 348.107 463.793 347.885 464.151 347.745C464.517 347.607 464.9 347.573 465.302 347.644L466.898 347.925C466.953 347.935 466.975 347.967 466.966 348.022L466.745 349.275C466.737 349.322 466.709 349.342 466.661 349.333L465.054 349.05C464.857 349.015 464.67 349.064 464.493 349.195C464.323 349.327 464.219 349.504 464.18 349.724C464.133 349.992 464.155 350.211 464.247 350.382C464.346 350.554 464.518 350.661 464.763 350.705L467.977 351.271C468.016 351.278 468.033 351.301 468.026 351.341L467.794 352.653C467.789 352.684 467.77 352.697 467.739 352.691L466.699 352.508L466.035 356.205C466.029 356.236 466.011 356.249 465.979 356.244L463.873 355.885ZM464.124 354.467L464.894 354.59L465.316 352.264L464.501 352.121C464.335 352.091 464.174 352.108 464.017 352.169C463.869 352.224 463.746 352.3 463.648 352.397C463.55 352.493 463.491 352.592 463.473 352.695L463.336 353.475C463.315 353.593 463.328 353.725 463.375 353.872C463.432 354.012 463.524 354.138 463.65 354.249C463.777 354.361 463.934 354.433 464.124 354.467ZM469.936 356.942C469.905 356.936 469.892 356.914 469.899 356.874L471.355 348.76C471.36 348.728 471.379 348.715 471.41 348.721L473.797 349.142C474.223 349.217 474.594 349.392 474.911 349.667C475.237 349.936 475.476 350.266 475.626 350.658C475.777 351.042 475.814 351.455 475.736 351.896C475.685 352.188 475.595 352.444 475.467 352.665C475.34 352.878 475.203 353.057 475.055 353.202C474.909 353.339 474.782 353.438 474.674 353.5C475.016 354.048 475.131 354.641 475.018 355.279L474.603 357.704C474.596 357.743 474.573 357.759 474.533 357.752L473.198 357.517C473.166 357.511 473.153 357.497 473.157 357.473L473.588 355.027C473.638 354.743 473.579 354.481 473.41 354.24C473.251 353.992 473.025 353.843 472.734 353.792L471.954 353.654L471.329 357.126C471.322 357.166 471.303 357.183 471.272 357.177L469.936 356.942ZM472.204 352.236L473.22 352.415C473.464 352.458 473.697 352.406 473.918 352.258C474.139 352.11 474.272 351.906 474.318 351.646C474.363 351.394 474.306 351.161 474.149 350.946C474 350.733 473.799 350.604 473.547 350.56L472.531 350.381L472.204 352.236ZM475.834 357.982C475.803 357.976 475.79 357.954 475.797 357.914L477.241 349.798C477.246 349.766 477.265 349.753 477.296 349.759L481.09 350.427C481.121 350.433 481.134 350.456 481.127 350.495L480.893 351.819C480.888 351.85 480.869 351.863 480.838 351.857L478.415 351.43L478.09 353.274L480.513 353.701C480.544 353.707 480.557 353.725 480.552 353.757L480.328 355.094C480.322 355.126 480.304 355.139 480.272 355.133L477.838 354.704L477.473 356.772L479.908 357.201C479.939 357.207 479.951 357.229 479.945 357.269L479.707 358.616C479.701 358.647 479.683 358.66 479.651 358.655L475.834 357.982ZM482.865 359.343C482.44 359.268 482.069 359.093 481.752 358.818C481.444 358.536 481.215 358.199 481.065 357.807C480.924 357.409 480.892 356.993 480.968 356.559L481.064 356.016C481.071 355.976 481.094 355.96 481.133 355.967L482.457 356.201C482.488 356.206 482.501 356.229 482.494 356.268L482.398 356.812C482.352 357.072 482.399 357.311 482.539 357.531C482.68 357.743 482.873 357.87 483.118 357.913C483.362 357.956 483.587 357.899 483.794 357.74C484.001 357.582 484.126 357.376 484.171 357.124C484.222 356.833 484.077 356.547 483.737 356.268C483.623 356.175 483.446 356.03 483.204 355.833C482.963 355.636 482.736 355.45 482.523 355.274C482.134 354.945 481.866 354.573 481.72 354.158C481.584 353.736 481.558 353.284 481.642 352.804C481.72 352.362 481.896 351.987 482.17 351.678C482.445 351.361 482.774 351.131 483.157 350.987C483.548 350.845 483.948 350.81 484.357 350.882C484.775 350.955 485.138 351.129 485.447 351.403C485.766 351.67 485.996 351.999 486.139 352.39C486.29 352.774 486.328 353.183 486.251 353.616L486.08 354.585C486.075 354.617 486.056 354.63 486.025 354.624L484.701 354.391C484.67 354.385 484.657 354.367 484.662 354.335L484.821 353.364C484.87 353.088 484.823 352.849 484.68 352.645C484.537 352.441 484.348 352.318 484.111 352.276C483.867 352.233 483.642 352.291 483.435 352.449C483.23 352.6 483.105 352.801 483.061 353.054C483.015 353.314 483.032 353.54 483.111 353.733C483.191 353.926 483.363 354.126 483.627 354.335C483.662 354.366 483.729 354.422 483.828 354.505C483.937 354.581 484.051 354.67 484.171 354.773C484.292 354.867 484.399 354.951 484.492 355.024C484.593 355.099 484.653 355.146 484.674 355.166C485.029 355.456 485.293 355.783 485.464 356.146C485.637 356.501 485.682 356.911 485.6 357.376C485.521 357.825 485.343 358.212 485.067 358.537C484.799 358.856 484.47 359.09 484.078 359.24C483.695 359.384 483.291 359.418 482.865 359.343ZM486.269 359.821C486.237 359.816 486.225 359.793 486.232 359.754L487.675 351.637C487.681 351.606 487.699 351.593 487.731 351.598L491.524 352.267C491.556 352.273 491.568 352.295 491.561 352.335L491.328 353.658C491.322 353.69 491.304 353.703 491.272 353.697L488.849 353.27L488.524 355.114L490.947 355.541C490.979 355.546 490.991 355.565 490.986 355.596L490.762 356.934C490.757 356.965 490.738 356.978 490.707 356.973L488.272 356.544L487.908 358.612L490.342 359.041C490.374 359.047 490.386 359.069 490.379 359.108L490.141 360.456C490.136 360.487 490.117 360.5 490.086 360.495L486.269 359.821ZM490.874 360.573L493.771 352.712C493.784 352.682 493.807 352.67 493.838 352.675L495.552 352.978C495.583 352.983 495.6 353.002 495.603 353.035L495.577 361.402C495.578 361.443 495.559 361.46 495.52 361.453L494.208 361.221C494.176 361.216 494.16 361.193 494.159 361.152L494.181 360.266L492.574 359.983L492.292 360.823C492.277 360.861 492.254 360.877 492.223 360.871L490.911 360.64C490.879 360.634 490.867 360.612 490.874 360.573ZM493.034 358.76L494.168 358.96L494.269 355.554L494.275 355.104L494.151 355.533L493.034 358.76ZM496.553 361.635C496.521 361.629 496.509 361.607 496.516 361.567L497.971 353.453C497.977 353.421 497.995 353.408 498.027 353.414L500.414 353.835C500.839 353.91 501.211 354.085 501.528 354.36C501.854 354.629 502.092 354.959 502.242 355.351C502.394 355.736 502.431 356.148 502.353 356.589C502.302 356.881 502.212 357.137 502.084 357.358C501.957 357.572 501.819 357.75 501.672 357.895C501.526 358.032 501.399 358.131 501.291 358.193C501.633 358.741 501.747 359.334 501.635 359.972L501.219 362.397C501.213 362.436 501.189 362.452 501.15 362.445L499.815 362.21C499.783 362.204 499.769 362.19 499.774 362.166L500.205 359.72C500.255 359.436 500.196 359.174 500.027 358.933C499.867 358.686 499.642 358.536 499.35 358.485L498.57 358.347L497.946 361.82C497.939 361.859 497.92 361.876 497.888 361.87L496.553 361.635ZM498.82 356.929L499.837 357.108C500.081 357.151 500.314 357.099 500.535 356.951C500.756 356.803 500.889 356.599 500.935 356.339C500.979 356.087 500.923 355.854 500.766 355.639C500.617 355.426 500.416 355.297 500.164 355.253L499.148 355.074L498.82 356.929ZM504.5 363.158C504.066 363.082 503.691 362.906 503.374 362.631C503.066 362.349 502.842 362.009 502.701 361.61C502.56 361.212 502.529 360.788 502.608 360.339L503.27 356.654C503.347 356.22 503.515 355.844 503.774 355.524C504.043 355.198 504.369 354.959 504.754 354.807C505.147 354.649 505.56 354.608 505.994 354.685C506.427 354.761 506.798 354.936 507.107 355.21C507.417 355.484 507.642 355.82 507.783 356.219C507.925 356.609 507.957 357.025 507.879 357.466L507.783 358.01C507.778 358.042 507.759 358.054 507.728 358.049L506.404 357.816C506.373 357.81 506.36 357.791 506.365 357.76L506.461 357.216C506.507 356.956 506.46 356.717 506.32 356.497C506.188 356.279 505.996 356.147 505.744 356.103C505.46 356.053 505.226 356.113 505.042 356.284C504.859 356.446 504.745 356.654 504.7 356.906L504.05 360.593C503.999 360.884 504.04 361.135 504.173 361.346C504.315 361.558 504.508 361.685 504.752 361.728C505.004 361.772 505.23 361.711 505.43 361.543C505.64 361.369 505.767 361.156 505.811 360.903L505.907 360.36C505.912 360.328 505.931 360.315 505.963 360.321L507.298 360.556C507.329 360.562 507.342 360.58 507.337 360.612L507.241 361.156C507.162 361.605 506.984 361.992 506.707 362.317C506.439 362.643 506.111 362.886 505.726 363.045C505.342 363.197 504.933 363.234 504.5 363.158ZM507.945 363.644C507.914 363.638 507.901 363.616 507.908 363.576L509.352 355.46C509.357 355.428 509.38 355.416 509.419 355.423L510.731 355.654C510.77 355.661 510.787 355.68 510.782 355.712L510.203 358.924L511.976 359.237L512.542 356.022C512.548 355.991 512.567 355.978 512.598 355.983L513.91 356.215C513.949 356.221 513.966 356.241 513.961 356.272L512.553 364.395C512.546 364.435 512.523 364.451 512.483 364.444L511.16 364.21C511.12 364.203 511.104 364.18 511.111 364.141L511.724 360.667L509.951 360.354L509.338 363.828C509.331 363.868 509.312 363.885 509.281 363.879L507.945 363.644Z" fill="black"/>
<path d="M559.774 255.197C559.366 255.467 558.961 255.722 558.558 255.964C557.522 256.577 556.825 257.17 556.468 257.742L560.728 258.493L560.59 259.279L555.419 258.367L555.539 257.692C555.787 257.252 556.119 256.846 556.535 256.474C556.961 256.104 557.38 255.794 557.794 255.545L559.007 254.792C559.905 254.211 560.423 253.53 560.561 252.749C560.657 252.207 560.573 251.742 560.31 251.354C560.048 250.957 559.673 250.716 559.186 250.63C558.708 250.546 557.969 250.733 556.969 251.191L556.685 250.544C557.775 250.007 558.669 249.8 559.368 249.923C560.076 250.047 560.619 250.376 561 250.907C561.391 251.431 561.51 252.125 561.358 252.989C561.207 253.844 560.679 254.58 559.774 255.197ZM562.879 255.162C563.165 253.544 563.575 252.427 564.11 251.811C564.645 251.194 565.377 250.968 566.305 251.132C567.243 251.297 567.858 251.761 568.15 252.523C568.442 253.285 568.445 254.475 568.16 256.093C567.876 257.702 567.466 258.819 566.929 259.444C566.392 260.07 565.655 260.3 564.718 260.135C563.789 259.971 563.18 259.504 562.89 258.732C562.599 257.961 562.596 256.771 562.879 255.162ZM563.621 258.292C563.775 258.926 564.182 259.301 564.844 259.418C565.506 259.535 566.017 259.321 566.378 258.779C566.74 258.236 567.04 257.284 567.28 255.924C567.521 254.554 567.568 253.563 567.421 252.949C567.273 252.335 566.864 251.969 566.193 251.851C565.522 251.733 565.006 251.94 564.647 252.474C564.298 253 564.004 253.944 563.764 255.304C563.524 256.664 563.477 257.66 563.621 258.292ZM574.46 261.725L569.289 260.813L569.413 260.11L571.771 260.526L573.035 253.356L570.576 254.003L570.387 253.216L573.274 252.488L574.004 252.617L572.585 260.669L574.584 261.022L574.46 261.725ZM579.232 259.169C578.377 259.018 577.757 258.667 577.371 258.115C576.986 257.555 576.869 256.847 577.02 255.992C577.172 255.128 577.543 254.478 578.132 254.042C578.72 253.605 579.428 253.46 580.256 253.606C581.092 253.753 581.7 254.121 582.08 254.709C582.459 255.297 582.57 256.042 582.411 256.943C582.192 258.184 581.786 259.225 581.192 260.068C580.597 260.911 579.718 261.785 578.555 262.688L577.658 262.374C578.687 261.589 579.443 260.926 579.927 260.386C580.42 259.847 580.829 259.251 581.152 258.597C580.46 259.082 579.82 259.272 579.232 259.169ZM577.827 256.092C577.589 257.443 578.099 258.23 579.358 258.452C579.901 258.547 580.384 258.438 580.809 258.125C581.243 257.813 581.511 257.372 581.611 256.802C581.864 255.368 581.361 254.54 580.102 254.318C579.504 254.212 579.001 254.323 578.593 254.649C578.194 254.977 577.939 255.458 577.827 256.092Z" fill="black"/>
<path d="M339.446 257.5C339.446 315.766 292.212 363 233.946 363C175.68 363 129.446 315.766 129.446 257.5C129.446 199.234 175.68 153 233.946 153C292.212 153 339.446 199.234 339.446 257.5Z" stroke="black"/>
<path d="M126 311.5L123 311C136.167 298.667 178.102 268.449 237 239C297 209 342.5 163.5 353.5 140C347.5 192 261.5 263 242.5 282.5C235.499 289.685 192 330.5 164 368L163.5 364C177.5 343 180 339.5 200 316.5C218.332 295.418 236.5 280.667 253 265.5C264.967 254.5 299.5 221.5 313 204C303 215.333 270.5 240.5 223 259.5C175.658 278.437 138.5 300 126 311.5Z" stroke="black"/>
</svg>
