<svg width="301" height="125" viewBox="0 0 301 125" fill="none" xmlns="http://www.w3.org/2000/svg">
<path d="M277.01 0.5L299.646 20.4585V104.541L277.01 124.5L23.283 124.5L0.646484 104.541L0.646484 20.4586L23.283 0.5L277.01 0.5Z" fill="white" stroke="black"/>
<path d="M84.7762 97.8707C84.8295 98.084 84.8562 98.3507 84.8562 98.6707C84.8562 98.9774 84.8295 99.244 84.7762 99.4707C84.8295 99.684 84.8562 99.9507 84.8562 100.271C84.8562 100.577 84.8295 100.844 84.7762 101.071C84.8295 101.284 84.8562 101.551 84.8562 101.871C84.8562 102.177 84.8295 102.444 84.7762 102.671C84.8295 102.884 84.8562 103.151 84.8562 103.471C84.8562 103.777 84.8295 104.044 84.7762 104.271C84.8295 104.484 84.8562 104.751 84.8562 105.071C84.8562 105.377 84.8295 105.644 84.7762 105.871H83.9762C84.0295 106.084 84.0562 106.351 84.0562 106.671C84.0562 106.977 84.0295 107.244 83.9762 107.471H79.1762C79.1228 107.244 79.0962 106.977 79.0962 106.671C79.0962 106.351 79.1228 106.084 79.1762 105.871H78.3762C78.3228 105.644 78.2962 105.377 78.2962 105.071C78.2962 104.751 78.3228 104.484 78.3762 104.271C78.3228 104.044 78.2962 103.777 78.2962 103.471C78.2962 103.151 78.3228 102.884 78.3762 102.671C78.3228 102.444 78.2962 102.177 78.2962 101.871C78.2962 101.551 78.3228 101.284 78.3762 101.071C78.3228 100.844 78.2962 100.577 78.2962 100.271C78.2962 99.9507 78.3228 99.684 78.3762 99.4707C78.3228 99.244 78.2962 98.9774 78.2962 98.6707C78.2962 98.3507 78.3228 98.084 78.3762 97.8707C78.3228 97.644 78.2962 97.3774 78.2962 97.0707C78.2962 96.7507 78.3228 96.484 78.3762 96.2707H79.9762C80.0295 96.484 80.0562 96.7507 80.0562 97.0707C80.0562 97.3774 80.0295 97.644 79.9762 97.8707C80.0295 98.084 80.0562 98.3507 80.0562 98.6707C80.0562 98.9774 80.0295 99.244 79.9762 99.4707C80.0295 99.684 80.0562 99.9507 80.0562 100.271C80.0562 100.577 80.0295 100.844 79.9762 101.071C80.0295 101.284 80.0562 101.551 80.0562 101.871C80.0562 102.177 80.0295 102.444 79.9762 102.671C80.0295 102.884 80.0562 103.151 80.0562 103.471C80.0562 103.777 80.0295 104.044 79.9762 104.271C80.0295 104.484 80.0562 104.751 80.0562 105.071C80.0562 105.377 80.0295 105.644 79.9762 105.871H83.1762C83.1228 105.644 83.0962 105.377 83.0962 105.071C83.0962 104.751 83.1228 104.484 83.1762 104.271C83.1228 104.044 83.0962 103.777 83.0962 103.471C83.0962 103.151 83.1228 102.884 83.1762 102.671C83.1228 102.444 83.0962 102.177 83.0962 101.871C83.0962 101.551 83.1228 101.284 83.1762 101.071C83.1228 100.844 83.0962 100.577 83.0962 100.271C83.0962 99.9507 83.1228 99.684 83.1762 99.4707C83.1228 99.244 83.0962 98.9774 83.0962 98.6707C83.0962 98.3507 83.1228 98.084 83.1762 97.8707C83.1228 97.644 83.0962 97.3774 83.0962 97.0707C83.0962 96.7507 83.1228 96.484 83.1762 96.2707H84.7762C84.8295 96.484 84.8562 96.7507 84.8562 97.0707C84.8562 97.3774 84.8295 97.644 84.7762 97.8707ZM92.784 105.871C92.8373 106.084 92.864 106.351 92.864 106.671C92.864 106.977 92.8373 107.244 92.784 107.471H91.184C91.1307 107.244 91.104 106.977 91.104 106.671C91.104 106.351 91.1307 106.084 91.184 105.871H90.584C90.5307 105.644 90.504 105.377 90.504 105.071C90.504 104.751 90.5307 104.484 90.584 104.271H90.184C90.1307 104.044 90.104 103.777 90.104 103.471C90.104 103.151 90.1307 102.884 90.184 102.671H88.984C89.0373 102.884 89.064 103.151 89.064 103.471C89.064 103.777 89.0373 104.044 88.984 104.271H88.584C88.6373 104.484 88.664 104.751 88.664 105.071C88.664 105.377 88.6373 105.644 88.584 105.871H87.984C88.0373 106.084 88.064 106.351 88.064 106.671C88.064 106.977 88.0373 107.244 87.984 107.471H86.384C86.3307 107.244 86.304 106.977 86.304 106.671C86.304 106.351 86.3307 106.084 86.384 105.871H86.984C86.9307 105.644 86.904 105.377 86.904 105.071C86.904 104.751 86.9307 104.484 86.984 104.271H87.784C87.7307 104.044 87.704 103.777 87.704 103.471C87.704 103.151 87.7307 102.884 87.784 102.671H88.384C88.3307 102.444 88.304 102.177 88.304 101.871C88.304 101.551 88.3307 101.284 88.384 101.071H87.784C87.7307 100.844 87.704 100.577 87.704 100.271C87.704 99.9507 87.7307 99.684 87.784 99.4707H86.984C86.9307 99.244 86.904 98.9774 86.904 98.6707C86.904 98.3507 86.9307 98.084 86.984 97.8707H86.384C86.3307 97.644 86.304 97.3774 86.304 97.0707C86.304 96.7507 86.3307 96.484 86.384 96.2707H87.984C88.0373 96.484 88.064 96.7507 88.064 97.0707C88.064 97.3774 88.0373 97.644 87.984 97.8707H88.584C88.6373 98.084 88.664 98.3507 88.664 98.6707C88.664 98.9774 88.6373 99.244 88.584 99.4707H88.984C89.0373 99.684 89.064 99.9507 89.064 100.271C89.064 100.577 89.0373 100.844 88.984 101.071H90.184C90.1307 100.844 90.104 100.577 90.104 100.271C90.104 99.9507 90.1307 99.684 90.184 99.4707H90.584C90.5307 99.244 90.504 98.9774 90.504 98.6707C90.504 98.3507 90.5307 98.084 90.584 97.8707H91.184C91.1307 97.644 91.104 97.3774 91.104 97.0707C91.104 96.7507 91.1307 96.484 91.184 96.2707H92.784C92.8373 96.484 92.864 96.7507 92.864 97.0707C92.864 97.3774 92.8373 97.644 92.784 97.8707H92.184C92.2373 98.084 92.264 98.3507 92.264 98.6707C92.264 98.9774 92.2373 99.244 92.184 99.4707H91.384C91.4373 99.684 91.464 99.9507 91.464 100.271C91.464 100.577 91.4373 100.844 91.384 101.071H90.784C90.8373 101.284 90.864 101.551 90.864 101.871C90.864 102.177 90.8373 102.444 90.784 102.671H91.384C91.4373 102.884 91.464 103.151 91.464 103.471C91.464 103.777 91.4373 104.044 91.384 104.271H92.184C92.2373 104.484 92.264 104.751 92.264 105.071C92.264 105.377 92.2373 105.644 92.184 105.871H92.784ZM108.8 101.071C108.853 101.284 108.88 101.551 108.88 101.871C108.88 102.177 108.853 102.444 108.8 102.671C108.853 102.884 108.88 103.151 108.88 103.471C108.88 103.777 108.853 104.044 108.8 104.271H108C108.053 104.484 108.08 104.751 108.08 105.071C108.08 105.377 108.053 105.644 108 105.871H107.2C107.253 106.084 107.28 106.351 107.28 106.671C107.28 106.977 107.253 107.244 107.2 107.471H102.4C102.346 107.244 102.32 106.977 102.32 106.671C102.32 106.351 102.346 106.084 102.4 105.871C102.346 105.644 102.32 105.377 102.32 105.071C102.32 104.751 102.346 104.484 102.4 104.271C102.346 104.044 102.32 103.777 102.32 103.471C102.32 103.151 102.346 102.884 102.4 102.671C102.346 102.444 102.32 102.177 102.32 101.871C102.32 101.551 102.346 101.284 102.4 101.071C102.346 100.844 102.32 100.577 102.32 100.271C102.32 99.9507 102.346 99.684 102.4 99.4707C102.346 99.244 102.32 98.9774 102.32 98.6707C102.32 98.3507 102.346 98.084 102.4 97.8707C102.346 97.644 102.32 97.3774 102.32 97.0707C102.32 96.7507 102.346 96.484 102.4 96.2707H107.2C107.253 96.484 107.28 96.7507 107.28 97.0707C107.28 97.3774 107.253 97.644 107.2 97.8707H108C108.053 98.084 108.08 98.3507 108.08 98.6707C108.08 98.9774 108.053 99.244 108 99.4707H108.8C108.853 99.684 108.88 99.9507 108.88 100.271C108.88 100.577 108.853 100.844 108.8 101.071ZM107.2 104.271C107.146 104.044 107.12 103.777 107.12 103.471C107.12 103.151 107.146 102.884 107.2 102.671C107.146 102.444 107.12 102.177 107.12 101.871C107.12 101.551 107.146 101.284 107.2 101.071C107.146 100.844 107.12 100.577 107.12 100.271C107.12 99.9507 107.146 99.684 107.2 99.4707H106.4C106.346 99.244 106.32 98.9774 106.32 98.6707C106.32 98.3507 106.346 98.084 106.4 97.8707H104C104.053 98.084 104.08 98.3507 104.08 98.6707C104.08 98.9774 104.053 99.244 104 99.4707C104.053 99.684 104.08 99.9507 104.08 100.271C104.08 100.577 104.053 100.844 104 101.071C104.053 101.284 104.08 101.551 104.08 101.871C104.08 102.177 104.053 102.444 104 102.671C104.053 102.884 104.08 103.151 104.08 103.471C104.08 103.777 104.053 104.044 104 104.271C104.053 104.484 104.08 104.751 104.08 105.071C104.08 105.377 104.053 105.644 104 105.871H106.4C106.346 105.644 106.32 105.377 106.32 105.071C106.32 104.751 106.346 104.484 106.4 104.271H107.2ZM116.887 101.871C116.887 102.177 116.861 102.444 116.807 102.671C116.861 102.884 116.887 103.151 116.887 103.471C116.887 103.777 116.861 104.044 116.807 104.271H112.607C112.661 104.484 112.687 104.751 112.687 105.071C112.687 105.377 112.661 105.644 112.607 105.871H116.007C116.061 106.084 116.087 106.351 116.087 106.671C116.087 106.977 116.061 107.244 116.007 107.471H112.007C111.954 107.244 111.927 106.977 111.927 106.671C111.927 106.351 111.954 106.084 112.007 105.871H111.007C110.954 105.644 110.927 105.377 110.927 105.071C110.927 104.751 110.954 104.484 111.007 104.271H110.407C110.354 104.044 110.327 103.777 110.327 103.471C110.327 103.151 110.354 102.884 110.407 102.671H111.007C110.954 102.444 110.927 102.177 110.927 101.871C110.927 101.551 110.954 101.284 111.007 101.071H112.007C111.954 100.844 111.927 100.577 111.927 100.271C111.927 99.9507 111.954 99.684 112.007 99.4707H116.007C116.061 99.684 116.087 99.9507 116.087 100.271C116.087 100.577 116.061 100.844 116.007 101.071H116.807C116.861 101.284 116.887 101.551 116.887 101.871ZM115.207 102.671C115.154 102.444 115.127 102.177 115.127 101.871C115.127 101.551 115.154 101.284 115.207 101.071H112.607C112.661 101.284 112.687 101.551 112.687 101.871C112.687 102.177 112.661 102.444 112.607 102.671H115.207ZM124.495 105.071C124.495 105.377 124.469 105.644 124.415 105.871H123.615C123.669 106.084 123.695 106.351 123.695 106.671C123.695 106.977 123.669 107.244 123.615 107.471H119.215C119.162 107.244 119.135 106.977 119.135 106.671C119.135 106.351 119.162 106.084 119.215 105.871H122.815C122.762 105.644 122.735 105.377 122.735 105.071C122.735 104.751 122.762 104.484 122.815 104.271H119.615C119.562 104.044 119.535 103.777 119.535 103.471C119.535 103.151 119.562 102.884 119.615 102.671H118.815C118.762 102.444 118.735 102.177 118.735 101.871C118.735 101.551 118.762 101.284 118.815 101.071H119.615C119.562 100.844 119.535 100.577 119.535 100.271C119.535 99.9507 119.562 99.684 119.615 99.4707H124.015C124.069 99.684 124.095 99.9507 124.095 100.271C124.095 100.577 124.069 100.844 124.015 101.071H120.415C120.469 101.284 120.495 101.551 120.495 101.871C120.495 102.177 120.469 102.444 120.415 102.671H123.615C123.669 102.884 123.695 103.151 123.695 103.471C123.695 103.777 123.669 104.044 123.615 104.271H124.415C124.469 104.484 124.495 104.751 124.495 105.071ZM128.823 97.8707C128.77 97.644 128.743 97.3774 128.743 97.0707C128.743 96.7507 128.77 96.484 128.823 96.2707H130.423C130.476 96.484 130.503 96.7507 130.503 97.0707C130.503 97.3774 130.476 97.644 130.423 97.8707H128.823ZM132.023 105.871C132.076 106.084 132.103 106.351 132.103 106.671C132.103 106.977 132.076 107.244 132.023 107.471H127.223C127.17 107.244 127.143 106.977 127.143 106.671C127.143 106.351 127.17 106.084 127.223 105.871H128.823C128.77 105.644 128.743 105.377 128.743 105.071C128.743 104.751 128.77 104.484 128.823 104.271C128.77 104.044 128.743 103.777 128.743 103.471C128.743 103.151 128.77 102.884 128.823 102.671C128.77 102.444 128.743 102.177 128.743 101.871C128.743 101.551 128.77 101.284 128.823 101.071H127.623C127.57 100.844 127.543 100.577 127.543 100.271C127.543 99.9507 127.57 99.684 127.623 99.4707H130.423C130.476 99.684 130.503 99.9507 130.503 100.271C130.503 100.577 130.476 100.844 130.423 101.071C130.476 101.284 130.503 101.551 130.503 101.871C130.503 102.177 130.476 102.444 130.423 102.671C130.476 102.884 130.503 103.151 130.503 103.471C130.503 103.777 130.476 104.044 130.423 104.271C130.476 104.484 130.503 104.751 130.503 105.071C130.503 105.377 130.476 105.644 130.423 105.871H132.023ZM140.831 101.071C140.884 101.284 140.911 101.551 140.911 101.871C140.911 102.177 140.884 102.444 140.831 102.671C140.884 102.884 140.911 103.151 140.911 103.471C140.911 103.777 140.884 104.044 140.831 104.271C140.884 104.484 140.911 104.751 140.911 105.071C140.911 105.377 140.884 105.644 140.831 105.871C140.884 106.084 140.911 106.351 140.911 106.671C140.911 106.977 140.884 107.244 140.831 107.471H140.031C140.084 107.684 140.111 107.951 140.111 108.271C140.111 108.577 140.084 108.844 140.031 109.071H139.231C139.284 109.284 139.311 109.551 139.311 109.871C139.311 110.177 139.284 110.444 139.231 110.671H136.031C135.978 110.444 135.951 110.177 135.951 109.871C135.951 109.551 135.978 109.284 136.031 109.071H138.431C138.378 108.844 138.351 108.577 138.351 108.271C138.351 107.951 138.378 107.684 138.431 107.471H139.231C139.178 107.244 139.151 106.977 139.151 106.671C139.151 106.351 139.178 106.084 139.231 105.871H138.431C138.378 105.644 138.351 105.377 138.351 105.071C138.351 104.751 138.378 104.484 138.431 104.271H139.231C139.178 104.044 139.151 103.777 139.151 103.471C139.151 103.151 139.178 102.884 139.231 102.671C139.178 102.444 139.151 102.177 139.151 101.871C139.151 101.551 139.178 101.284 139.231 101.071H136.631C136.684 101.284 136.711 101.551 136.711 101.871C136.711 102.177 136.684 102.444 136.631 102.671H136.031C136.084 102.884 136.111 103.151 136.111 103.471C136.111 103.777 136.084 104.044 136.031 104.271H136.631C136.684 104.484 136.711 104.751 136.711 105.071C136.711 105.377 136.684 105.644 136.631 105.871H138.431C138.484 106.084 138.511 106.351 138.511 106.671C138.511 106.977 138.484 107.244 138.431 107.471H136.031C135.978 107.244 135.951 106.977 135.951 106.671C135.951 106.351 135.978 106.084 136.031 105.871H135.031C134.978 105.644 134.951 105.377 134.951 105.071C134.951 104.751 134.978 104.484 135.031 104.271H134.431C134.378 104.044 134.351 103.777 134.351 103.471C134.351 103.151 134.378 102.884 134.431 102.671H135.031C134.978 102.444 134.951 102.177 134.951 101.871C134.951 101.551 134.978 101.284 135.031 101.071H136.031C135.978 100.844 135.951 100.577 135.951 100.271C135.951 99.9507 135.978 99.684 136.031 99.4707H140.831C140.884 99.684 140.911 99.9507 140.911 100.271C140.911 100.577 140.884 100.844 140.831 101.071ZM143.919 100.271C143.919 100.577 143.892 100.844 143.839 101.071H144.639C144.692 101.284 144.719 101.551 144.719 101.871C144.719 102.177 144.692 102.444 144.639 102.671H144.039C144.092 102.884 144.119 103.151 144.119 103.471C144.119 103.777 144.092 104.044 144.039 104.271C144.092 104.484 144.119 104.751 144.119 105.071C144.119 105.377 144.092 105.644 144.039 105.871C144.092 106.084 144.119 106.351 144.119 106.671C144.119 106.977 144.092 107.244 144.039 107.471H142.439C142.385 107.244 142.359 106.977 142.359 106.671C142.359 106.351 142.385 106.084 142.439 105.871C142.385 105.644 142.359 105.377 142.359 105.071C142.359 104.751 142.385 104.484 142.439 104.271C142.385 104.044 142.359 103.777 142.359 103.471C142.359 103.151 142.385 102.884 142.439 102.671C142.385 102.444 142.359 102.177 142.359 101.871C142.359 101.551 142.385 101.284 142.439 101.071C142.385 100.844 142.359 100.577 142.359 100.271C142.359 99.9507 142.385 99.684 142.439 99.4707H143.839C143.892 99.684 143.919 99.9507 143.919 100.271ZM148.839 102.671C148.892 102.884 148.919 103.151 148.919 103.471C148.919 103.777 148.892 104.044 148.839 104.271C148.892 104.484 148.919 104.751 148.919 105.071C148.919 105.377 148.892 105.644 148.839 105.871C148.892 106.084 148.919 106.351 148.919 106.671C148.919 106.977 148.892 107.244 148.839 107.471H147.239C147.185 107.244 147.159 106.977 147.159 106.671C147.159 106.351 147.185 106.084 147.239 105.871C147.185 105.644 147.159 105.377 147.159 105.071C147.159 104.751 147.185 104.484 147.239 104.271C147.185 104.044 147.159 103.777 147.159 103.471C147.159 103.151 147.185 102.884 147.239 102.671C147.185 102.444 147.159 102.177 147.159 101.871C147.159 101.551 147.185 101.284 147.239 101.071H144.639C144.585 100.844 144.559 100.577 144.559 100.271C144.559 99.9507 144.585 99.684 144.639 99.4707H147.839C147.892 99.684 147.919 99.9507 147.919 100.271C147.919 100.577 147.892 100.844 147.839 101.071H148.839C148.892 101.284 148.919 101.551 148.919 101.871C148.919 102.177 148.892 102.444 148.839 102.671ZM164.854 99.4707C164.908 99.684 164.934 99.9507 164.934 100.271C164.934 100.577 164.908 100.844 164.854 101.071C164.908 101.284 164.934 101.551 164.934 101.871C164.934 102.177 164.908 102.444 164.854 102.671C164.908 102.884 164.934 103.151 164.934 103.471C164.934 103.777 164.908 104.044 164.854 104.271H161.654C161.601 104.044 161.574 103.777 161.574 103.471C161.574 103.151 161.601 102.884 161.654 102.671H161.054C161.001 102.444 160.974 102.177 160.974 101.871C160.974 101.551 161.001 101.284 161.054 101.071C161.001 100.844 160.974 100.577 160.974 100.271C160.974 99.9507 161.001 99.684 161.054 99.4707H161.654C161.601 99.244 161.574 98.9774 161.574 98.6707C161.574 98.3507 161.601 98.084 161.654 97.8707H162.454C162.401 97.644 162.374 97.3774 162.374 97.0707C162.374 96.7507 162.401 96.484 162.454 96.2707H160.454C160.508 96.484 160.534 96.7507 160.534 97.0707C160.534 97.3774 160.508 97.644 160.454 97.8707H159.654C159.708 98.084 159.734 98.3507 159.734 98.6707C159.734 98.9774 159.708 99.244 159.654 99.4707C159.708 99.684 159.734 99.9507 159.734 100.271C159.734 100.577 159.708 100.844 159.654 101.071C159.708 101.284 159.734 101.551 159.734 101.871C159.734 102.177 159.708 102.444 159.654 102.671C159.708 102.884 159.734 103.151 159.734 103.471C159.734 103.777 159.708 104.044 159.654 104.271H160.454C160.508 104.484 160.534 104.751 160.534 105.071C160.534 105.377 160.508 105.644 160.454 105.871H164.054C164.108 106.084 164.134 106.351 164.134 106.671C164.134 106.977 164.108 107.244 164.054 107.471H160.054C160.001 107.244 159.974 106.977 159.974 106.671C159.974 106.351 160.001 106.084 160.054 105.871H159.254C159.201 105.644 159.174 105.377 159.174 105.071C159.174 104.751 159.201 104.484 159.254 104.271H158.454C158.401 104.044 158.374 103.777 158.374 103.471C158.374 103.151 158.401 102.884 158.454 102.671C158.401 102.444 158.374 102.177 158.374 101.871C158.374 101.551 158.401 101.284 158.454 101.071C158.401 100.844 158.374 100.577 158.374 100.271C158.374 99.9507 158.401 99.684 158.454 99.4707C158.401 99.244 158.374 98.9774 158.374 98.6707C158.374 98.3507 158.401 98.084 158.454 97.8707H159.254C159.201 97.644 159.174 97.3774 159.174 97.0707C159.174 96.7507 159.201 96.484 159.254 96.2707H160.054C160.001 96.044 159.974 95.7774 159.974 95.4707C159.974 95.1507 160.001 94.884 160.054 94.6707H163.254C163.308 94.884 163.334 95.1507 163.334 95.4707C163.334 95.7774 163.308 96.044 163.254 96.2707H164.054C164.108 96.484 164.134 96.7507 164.134 97.0707C164.134 97.3774 164.108 97.644 164.054 97.8707H164.854C164.908 98.084 164.934 98.3507 164.934 98.6707C164.934 98.9774 164.908 99.244 164.854 99.4707ZM163.654 102.671C163.601 102.444 163.574 102.177 163.574 101.871C163.574 101.551 163.601 101.284 163.654 101.071C163.601 100.844 163.574 100.577 163.574 100.271C163.574 99.9507 163.601 99.684 163.654 99.4707H162.254C162.308 99.684 162.334 99.9507 162.334 100.271C162.334 100.577 162.308 100.844 162.254 101.071C162.308 101.284 162.334 101.551 162.334 101.871C162.334 102.177 162.308 102.444 162.254 102.671H163.654Z" fill="black"/>
<path d="M180.87 101.071C180.923 101.284 180.95 101.551 180.95 101.871C180.95 102.177 180.923 102.444 180.87 102.671C180.923 102.884 180.95 103.151 180.95 103.471C180.95 103.777 180.923 104.044 180.87 104.271C180.923 104.484 180.95 104.751 180.95 105.071C180.95 105.377 180.923 105.644 180.87 105.871H180.07C180.123 106.084 180.15 106.351 180.15 106.671C180.15 106.977 180.123 107.244 180.07 107.471H176.07C176.017 107.244 175.99 106.977 175.99 106.671C175.99 106.351 176.017 106.084 176.07 105.871H175.27C175.217 105.644 175.19 105.377 175.19 105.071C175.19 104.751 175.217 104.484 175.27 104.271H174.47C174.417 104.044 174.39 103.777 174.39 103.471C174.39 103.151 174.417 102.884 174.47 102.671C174.417 102.444 174.39 102.177 174.39 101.871C174.39 101.551 174.417 101.284 174.47 101.071C174.417 100.844 174.39 100.577 174.39 100.271C174.39 99.9507 174.417 99.684 174.47 99.4707H175.27C175.217 99.244 175.19 98.9774 175.19 98.6707C175.19 98.3507 175.217 98.084 175.27 97.8707H176.07C176.017 97.644 175.99 97.3774 175.99 97.0707C175.99 96.7507 176.017 96.484 176.07 96.2707H180.07C180.123 96.484 180.15 96.7507 180.15 97.0707C180.15 97.3774 180.123 97.644 180.07 97.8707H180.87C180.923 98.084 180.95 98.3507 180.95 98.6707C180.95 98.9774 180.923 99.244 180.87 99.4707H179.27C179.217 99.244 179.19 98.9774 179.19 98.6707C179.19 98.3507 179.217 98.084 179.27 97.8707H176.87C176.923 98.084 176.95 98.3507 176.95 98.6707C176.95 98.9774 176.923 99.244 176.87 99.4707H176.07C176.123 99.684 176.15 99.9507 176.15 100.271C176.15 100.577 176.123 100.844 176.07 101.071C176.123 101.284 176.15 101.551 176.15 101.871C176.15 102.177 176.123 102.444 176.07 102.671C176.123 102.884 176.15 103.151 176.15 103.471C176.15 103.777 176.123 104.044 176.07 104.271H176.87C176.923 104.484 176.95 104.751 176.95 105.071C176.95 105.377 176.923 105.644 176.87 105.871H179.27C179.217 105.644 179.19 105.377 179.19 105.071C179.19 104.751 179.217 104.484 179.27 104.271C179.217 104.044 179.19 103.777 179.19 103.471C179.19 103.151 179.217 102.884 179.27 102.671H178.07C178.017 102.444 177.99 102.177 177.99 101.871C177.99 101.551 178.017 101.284 178.07 101.071H180.87ZM204.893 101.071C204.947 101.284 204.973 101.551 204.973 101.871C204.973 102.177 204.947 102.444 204.893 102.671C204.947 102.884 204.973 103.151 204.973 103.471C204.973 103.777 204.947 104.044 204.893 104.271C204.947 104.484 204.973 104.751 204.973 105.071C204.973 105.377 204.947 105.644 204.893 105.871C204.947 106.084 204.973 106.351 204.973 106.671C204.973 106.977 204.947 107.244 204.893 107.471H204.093C204.147 107.684 204.173 107.951 204.173 108.271C204.173 108.577 204.147 108.844 204.093 109.071H203.293C203.347 109.284 203.373 109.551 203.373 109.871C203.373 110.177 203.347 110.444 203.293 110.671H200.093C200.04 110.444 200.013 110.177 200.013 109.871C200.013 109.551 200.04 109.284 200.093 109.071H202.493C202.44 108.844 202.413 108.577 202.413 108.271C202.413 107.951 202.44 107.684 202.493 107.471H203.293C203.24 107.244 203.213 106.977 203.213 106.671C203.213 106.351 203.24 106.084 203.293 105.871H202.493C202.44 105.644 202.413 105.377 202.413 105.071C202.413 104.751 202.44 104.484 202.493 104.271H203.293C203.24 104.044 203.213 103.777 203.213 103.471C203.213 103.151 203.24 102.884 203.293 102.671C203.24 102.444 203.213 102.177 203.213 101.871C203.213 101.551 203.24 101.284 203.293 101.071H200.693C200.747 101.284 200.773 101.551 200.773 101.871C200.773 102.177 200.747 102.444 200.693 102.671H200.093C200.147 102.884 200.173 103.151 200.173 103.471C200.173 103.777 200.147 104.044 200.093 104.271H200.693C200.747 104.484 200.773 104.751 200.773 105.071C200.773 105.377 200.747 105.644 200.693 105.871H202.493C202.547 106.084 202.573 106.351 202.573 106.671C202.573 106.977 202.547 107.244 202.493 107.471H200.093C200.04 107.244 200.013 106.977 200.013 106.671C200.013 106.351 200.04 106.084 200.093 105.871H199.093C199.04 105.644 199.013 105.377 199.013 105.071C199.013 104.751 199.04 104.484 199.093 104.271H198.493C198.44 104.044 198.413 103.777 198.413 103.471C198.413 103.151 198.44 102.884 198.493 102.671H199.093C199.04 102.444 199.013 102.177 199.013 101.871C199.013 101.551 199.04 101.284 199.093 101.071H200.093C200.04 100.844 200.013 100.577 200.013 100.271C200.013 99.9507 200.04 99.684 200.093 99.4707H204.893C204.947 99.684 204.973 99.9507 204.973 100.271C204.973 100.577 204.947 100.844 204.893 101.071Z" fill="#4285F4"/>
<path d="M188.958 103.471C188.958 103.777 188.931 104.044 188.878 104.271H188.278C188.331 104.484 188.358 104.751 188.358 105.071C188.358 105.377 188.331 105.644 188.278 105.871H187.278C187.331 106.084 187.358 106.351 187.358 106.671C187.358 106.977 187.331 107.244 187.278 107.471H184.078C184.024 107.244 183.998 106.977 183.998 106.671C183.998 106.351 184.024 106.084 184.078 105.871H183.078C183.024 105.644 182.998 105.377 182.998 105.071C182.998 104.751 183.024 104.484 183.078 104.271H182.478C182.424 104.044 182.398 103.777 182.398 103.471C182.398 103.151 182.424 102.884 182.478 102.671H183.078C183.024 102.444 182.998 102.177 182.998 101.871C182.998 101.551 183.024 101.284 183.078 101.071H184.078C184.024 100.844 183.998 100.577 183.998 100.271C183.998 99.9507 184.024 99.684 184.078 99.4707H187.278C187.331 99.684 187.358 99.9507 187.358 100.271C187.358 100.577 187.331 100.844 187.278 101.071H188.278C188.331 101.284 188.358 101.551 188.358 101.871C188.358 102.177 188.331 102.444 188.278 102.671H188.878C188.931 102.884 188.958 103.151 188.958 103.471ZM187.278 104.271C187.224 104.044 187.198 103.777 187.198 103.471C187.198 103.151 187.224 102.884 187.278 102.671H186.678C186.624 102.444 186.598 102.177 186.598 101.871C186.598 101.551 186.624 101.284 186.678 101.071H184.678C184.731 101.284 184.758 101.551 184.758 101.871C184.758 102.177 184.731 102.444 184.678 102.671H184.078C184.131 102.884 184.158 103.151 184.158 103.471C184.158 103.777 184.131 104.044 184.078 104.271H184.678C184.731 104.484 184.758 104.751 184.758 105.071C184.758 105.377 184.731 105.644 184.678 105.871H186.678C186.624 105.644 186.598 105.377 186.598 105.071C186.598 104.751 186.624 104.484 186.678 104.271H187.278ZM220.989 101.871C220.989 102.177 220.962 102.444 220.909 102.671C220.962 102.884 220.989 103.151 220.989 103.471C220.989 103.777 220.962 104.044 220.909 104.271H216.709C216.762 104.484 216.789 104.751 216.789 105.071C216.789 105.377 216.762 105.644 216.709 105.871H220.109C220.162 106.084 220.189 106.351 220.189 106.671C220.189 106.977 220.162 107.244 220.109 107.471H216.109C216.056 107.244 216.029 106.977 216.029 106.671C216.029 106.351 216.056 106.084 216.109 105.871H215.109C215.056 105.644 215.029 105.377 215.029 105.071C215.029 104.751 215.056 104.484 215.109 104.271H214.509C214.456 104.044 214.429 103.777 214.429 103.471C214.429 103.151 214.456 102.884 214.509 102.671H215.109C215.056 102.444 215.029 102.177 215.029 101.871C215.029 101.551 215.056 101.284 215.109 101.071H216.109C216.056 100.844 216.029 100.577 216.029 100.271C216.029 99.9507 216.056 99.684 216.109 99.4707H220.109C220.162 99.684 220.189 99.9507 220.189 100.271C220.189 100.577 220.162 100.844 220.109 101.071H220.909C220.962 101.284 220.989 101.551 220.989 101.871ZM219.309 102.671C219.256 102.444 219.229 102.177 219.229 101.871C219.229 101.551 219.256 101.284 219.309 101.071H216.709C216.762 101.284 216.789 101.551 216.789 101.871C216.789 102.177 216.762 102.444 216.709 102.671H219.309Z" fill="#EA4335"/>
<path d="M196.966 103.471C196.966 103.777 196.939 104.044 196.886 104.271H196.286C196.339 104.484 196.366 104.751 196.366 105.071C196.366 105.377 196.339 105.644 196.286 105.871H195.286C195.339 106.084 195.366 106.351 195.366 106.671C195.366 106.977 195.339 107.244 195.286 107.471H192.086C192.032 107.244 192.006 106.977 192.006 106.671C192.006 106.351 192.032 106.084 192.086 105.871H191.086C191.032 105.644 191.006 105.377 191.006 105.071C191.006 104.751 191.032 104.484 191.086 104.271H190.486C190.432 104.044 190.406 103.777 190.406 103.471C190.406 103.151 190.432 102.884 190.486 102.671H191.086C191.032 102.444 191.006 102.177 191.006 101.871C191.006 101.551 191.032 101.284 191.086 101.071H192.086C192.032 100.844 192.006 100.577 192.006 100.271C192.006 99.9507 192.032 99.684 192.086 99.4707H195.286C195.339 99.684 195.366 99.9507 195.366 100.271C195.366 100.577 195.339 100.844 195.286 101.071H196.286C196.339 101.284 196.366 101.551 196.366 101.871C196.366 102.177 196.339 102.444 196.286 102.671H196.886C196.939 102.884 196.966 103.151 196.966 103.471ZM195.286 104.271C195.232 104.044 195.206 103.777 195.206 103.471C195.206 103.151 195.232 102.884 195.286 102.671H194.686C194.632 102.444 194.606 102.177 194.606 101.871C194.606 101.551 194.632 101.284 194.686 101.071H192.686C192.739 101.284 192.766 101.551 192.766 101.871C192.766 102.177 192.739 102.444 192.686 102.671H192.086C192.139 102.884 192.166 103.151 192.166 103.471C192.166 103.777 192.139 104.044 192.086 104.271H192.686C192.739 104.484 192.766 104.751 192.766 105.071C192.766 105.377 192.739 105.644 192.686 105.871H194.686C194.632 105.644 194.606 105.377 194.606 105.071C194.606 104.751 194.632 104.484 194.686 104.271H195.286Z" fill="#FBBC04"/>
<path d="M212.101 105.871C212.155 106.084 212.181 106.351 212.181 106.671C212.181 106.977 212.155 107.244 212.101 107.471H207.301C207.248 107.244 207.221 106.977 207.221 106.671C207.221 106.351 207.248 106.084 207.301 105.871H208.901C208.848 105.644 208.821 105.377 208.821 105.071C208.821 104.751 208.848 104.484 208.901 104.271C208.848 104.044 208.821 103.777 208.821 103.471C208.821 103.151 208.848 102.884 208.901 102.671C208.848 102.444 208.821 102.177 208.821 101.871C208.821 101.551 208.848 101.284 208.901 101.071C208.848 100.844 208.821 100.577 208.821 100.271C208.821 99.9507 208.848 99.684 208.901 99.4707C208.848 99.244 208.821 98.9774 208.821 98.6707C208.821 98.3507 208.848 98.084 208.901 97.8707H207.701C207.648 97.644 207.621 97.3774 207.621 97.0707C207.621 96.7507 207.648 96.484 207.701 96.2707H210.501C210.555 96.484 210.581 96.7507 210.581 97.0707C210.581 97.3774 210.555 97.644 210.501 97.8707C210.555 98.084 210.581 98.3507 210.581 98.6707C210.581 98.9774 210.555 99.244 210.501 99.4707C210.555 99.684 210.581 99.9507 210.581 100.271C210.581 100.577 210.555 100.844 210.501 101.071C210.555 101.284 210.581 101.551 210.581 101.871C210.581 102.177 210.555 102.444 210.501 102.671C210.555 102.884 210.581 103.151 210.581 103.471C210.581 103.777 210.555 104.044 210.501 104.271C210.555 104.484 210.581 104.751 210.581 105.071C210.581 105.377 210.555 105.644 210.501 105.871H212.101Z" fill="#34A853"/>
<path d="M73.6901 42.1587V42.9727H69.1141V56.6567H73.6901V57.4707H63.7681V56.6567H68.3221V42.9727H63.7681V42.1587H73.6901ZM79.0193 57.4707V42.1587H79.8773L90.5693 52.5427V42.1587H91.3833V57.4707H90.5693V53.6867L79.8333 43.2147V57.4707H79.0193ZM107.47 42.1587V42.9727H101.684V57.4707H100.892V42.9727H95.1064V42.1587H107.47ZM112.294 42.1587H123.074V42.9727H113.108V49.1767H121.776V49.9907H113.108V56.6567H123.074V57.4707H112.294V42.1587ZM137.181 42.6647C138.061 43.0754 138.75 43.684 139.249 44.4907C139.762 45.2974 140.019 46.192 140.019 47.1747C140.019 48.3187 139.667 49.3454 138.963 50.2547C138.273 51.1494 137.386 51.7434 136.301 52.0367L140.195 57.4707H139.227L135.465 52.1907L134.761 52.2127H129.239V57.4707H128.425V42.1587H134.255C134.9 42.1587 135.45 42.2027 135.905 42.2907C136.374 42.364 136.799 42.4887 137.181 42.6647ZM134.981 51.3987C135.743 51.3987 136.447 51.208 137.093 50.8267C137.738 50.4454 138.251 49.932 138.633 49.2867C139.014 48.6414 139.205 47.9374 139.205 47.1747C139.205 46.324 138.977 45.554 138.523 44.8647C138.083 44.1754 137.467 43.662 136.675 43.3247C136.103 43.09 135.296 42.9727 134.255 42.9727H129.239V51.3987H134.981ZM149.726 42.1587H150.584L156.876 57.4707H155.996L153.928 52.4107H146.382L144.292 57.4707H143.434L149.726 42.1587ZM146.712 51.6187H153.598L150.144 43.2147L146.712 51.6187ZM161.171 51.6187C161.171 52.5867 161.413 53.4814 161.897 54.3027C162.396 55.124 163.056 55.7767 163.877 56.2607C164.713 56.7447 165.615 56.9867 166.583 56.9867C167.58 56.9867 168.482 56.7887 169.289 56.3927C170.096 55.9967 170.726 55.4467 171.181 54.7427C171.65 54.0387 171.892 53.2467 171.907 52.3667H172.699C172.699 53.3787 172.428 54.3027 171.885 55.1387C171.357 55.96 170.624 56.6127 169.685 57.0967C168.761 57.566 167.727 57.8007 166.583 57.8007C165.468 57.8007 164.434 57.522 163.481 56.9647C162.528 56.4074 161.772 55.6594 161.215 54.7207C160.658 53.7674 160.379 52.7334 160.379 51.6187V48.0107C160.379 46.896 160.65 45.8694 161.193 44.9307C161.75 43.9774 162.498 43.222 163.437 42.6647C164.39 42.1074 165.424 41.8287 166.539 41.8287C167.668 41.8287 168.695 42.0707 169.619 42.5547C170.558 43.024 171.298 43.6767 171.841 44.5127C172.384 45.334 172.655 46.2507 172.655 47.2627H171.863C171.848 46.3827 171.606 45.5907 171.137 44.8867C170.668 44.1827 170.03 43.6327 169.223 43.2367C168.431 42.8407 167.536 42.6427 166.539 42.6427C165.571 42.6427 164.676 42.8847 163.855 43.3687C163.034 43.8527 162.381 44.5054 161.897 45.3267C161.413 46.148 161.171 47.0427 161.171 48.0107V51.6187ZM188.896 42.1587V42.9727H183.11V57.4707H182.318V42.9727H176.532V42.1587H188.896ZM203.971 42.1587V42.9727H199.395V56.6567H203.971V57.4707H194.049V56.6567H198.603V42.9727H194.049V42.1587H203.971ZM209.411 42.1587L215.263 56.3927L221.115 42.1587H221.973L215.681 57.4707H214.823L208.531 42.1587H209.411ZM226.29 42.1587H237.07V42.9727H227.104V49.1767H235.772V49.9907H227.104V56.6567H237.07V57.4707H226.29V42.1587ZM92.7279 68.1587H93.5859L99.8779 83.4707H98.9979L96.9299 78.4107H89.3839L87.2939 83.4707H86.4359L92.7279 68.1587ZM89.7139 77.6187H96.5999L93.1459 69.2147L89.7139 77.6187ZM112.753 68.6647C113.633 69.0754 114.322 69.684 114.821 70.4907C115.334 71.2974 115.591 72.192 115.591 73.1747C115.591 74.3187 115.239 75.3454 114.535 76.2547C113.846 77.1494 112.958 77.7434 111.873 78.0367L115.767 83.4707H114.799L111.037 78.1907L110.333 78.2127H104.811V83.4707H103.997V68.1587H109.827C110.472 68.1587 111.022 68.2027 111.477 68.2907C111.946 68.364 112.372 68.4887 112.753 68.6647ZM110.553 77.3987C111.316 77.3987 112.02 77.208 112.665 76.8267C113.31 76.4454 113.824 75.932 114.205 75.2867C114.586 74.6414 114.777 73.9374 114.777 73.1747C114.777 72.324 114.55 71.554 114.095 70.8647C113.655 70.1754 113.039 69.662 112.247 69.3247C111.675 69.09 110.868 68.9727 109.827 68.9727H104.811V77.3987H110.553ZM131.898 68.1587V68.9727H126.112V83.4707H125.32V68.9727H119.534V68.1587H131.898ZM146.973 68.1587V68.9727H142.397V82.6567H146.973V83.4707H137.051V82.6567H141.605V68.9727H137.051V68.1587H146.973ZM153.028 77.6187C153.028 78.5867 153.27 79.4814 153.754 80.3027C154.253 81.124 154.913 81.7767 155.734 82.2607C156.57 82.7447 157.472 82.9867 158.44 82.9867C159.438 82.9867 160.34 82.7887 161.146 82.3927C161.953 81.9967 162.584 81.4467 163.038 80.7427C163.508 80.0387 163.75 79.2467 163.764 78.3667H164.556C164.556 79.3787 164.285 80.3027 163.742 81.1387C163.214 81.96 162.481 82.6127 161.542 83.0967C160.618 83.566 159.584 83.8007 158.44 83.8007C157.326 83.8007 156.292 83.522 155.338 82.9647C154.385 82.4074 153.63 81.6594 153.072 80.7207C152.515 79.7674 152.236 78.7334 152.236 77.6187V74.0107C152.236 72.896 152.508 71.8694 153.05 70.9307C153.608 69.9774 154.356 69.222 155.294 68.6647C156.248 68.1074 157.282 67.8287 158.396 67.8287C159.526 67.8287 160.552 68.0707 161.476 68.5547C162.415 69.024 163.156 69.6767 163.698 70.5127C164.241 71.334 164.512 72.2507 164.512 73.2627H163.72C163.706 72.3827 163.464 71.5907 162.994 70.8867C162.525 70.1827 161.887 69.6327 161.08 69.2367C160.288 68.8407 159.394 68.6427 158.396 68.6427C157.428 68.6427 156.534 68.8847 155.712 69.3687C154.891 69.8527 154.238 70.5054 153.754 71.3267C153.27 72.148 153.028 73.0427 153.028 74.0107V77.6187ZM169.842 83.4707V68.1587H170.656V82.6567H181.326V83.4707H169.842ZM185.577 68.1587H196.357V68.9727H186.391V75.1767H195.059V75.9907H186.391V82.6567H196.357V83.4707H185.577V68.1587ZM207.472 76.1447C206.225 75.8954 205.206 75.624 204.414 75.3307C203.637 75.0227 203.021 74.612 202.566 74.0987C202.126 73.5707 201.906 72.896 201.906 72.0747C201.906 71.224 202.126 70.476 202.566 69.8307C203.021 69.1854 203.651 68.6867 204.458 68.3347C205.279 67.9827 206.225 67.8067 207.296 67.8067C208.323 67.8067 209.261 68.0267 210.112 68.4667C210.977 68.892 211.659 69.4934 212.158 70.2707C212.657 71.048 212.906 71.9354 212.906 72.9327H212.092C212.092 72.0674 211.879 71.3047 211.454 70.6447C211.029 69.9847 210.449 69.4787 209.716 69.1267C208.983 68.76 208.169 68.5767 207.274 68.5767C206.482 68.5767 205.741 68.7014 205.052 68.9507C204.363 69.2 203.798 69.5814 203.358 70.0947C202.933 70.608 202.72 71.2534 202.72 72.0307C202.72 72.7347 202.925 73.2994 203.336 73.7247C203.747 74.1354 204.282 74.4507 204.942 74.6707C205.602 74.8907 206.526 75.1254 207.714 75.3747C208.917 75.624 209.848 75.866 210.508 76.1007C211.183 76.3207 211.747 76.6947 212.202 77.2227C212.671 77.7507 212.906 78.4914 212.906 79.4447C212.906 80.398 212.649 81.2047 212.136 81.8647C211.637 82.51 210.97 82.994 210.134 83.3167C209.298 83.6394 208.389 83.8007 207.406 83.8007C206.189 83.8007 205.118 83.5734 204.194 83.1187C203.27 82.664 202.559 82.026 202.06 81.2047C201.576 80.3687 201.334 79.4154 201.334 78.3447H202.148C202.148 79.2834 202.353 80.1047 202.764 80.8087C203.189 81.5127 203.798 82.0627 204.59 82.4587C205.382 82.84 206.321 83.0307 207.406 83.0307C208.755 83.0307 209.87 82.708 210.75 82.0627C211.645 81.4174 212.092 80.5374 212.092 79.4227C212.092 78.66 211.901 78.0734 211.52 77.6627C211.139 77.252 210.655 76.9587 210.068 76.7827C209.496 76.592 208.631 76.3794 207.472 76.1447Z" fill="black"/>
<path d="M150.146 11L152.507 18.2574H160.146L153.966 22.7426L156.327 30L150.146 25.5147L143.966 30L146.327 22.7426L140.146 18.2574H147.786L150.146 11Z" fill="black"/>
<path d="M11.0166 71.4C11.8278 71.4 12.4977 71.7372 13.0264 72.4117C13.9834 73.6376 14.487 74.2711 14.5371 74.3121C15.2891 75.0504 16.041 75.5745 16.793 75.8844L16.916 75.9459V71.2701L18.0098 71.7486V77.6139L16.6699 77.0943C15.1432 76.4016 13.9469 75.4537 13.0811 74.2506C12.639 73.6536 12.3473 73.2548 12.2061 73.0543C11.9417 72.676 11.5225 72.4869 10.9482 72.4869C10.9163 72.4869 10.8822 72.4869 10.8457 72.4869C10.2897 72.5006 9.82259 72.6943 9.44434 73.068C9.05697 73.4508 8.86328 73.9202 8.86328 74.4762C8.86328 75.0185 9.05697 75.4856 9.44434 75.8775C9.83171 76.2695 10.2852 76.4654 10.8047 76.4654C10.8138 76.4654 10.8252 76.4654 10.8389 76.4654L10.9072 76.4586L11.3857 77.5523L10.8594 77.5592C10.0391 77.5592 9.32357 77.2584 8.71289 76.6568C8.11589 76.0644 7.81738 75.3375 7.81738 74.4762C7.81738 73.6148 8.11361 72.888 8.70605 72.2955C9.29395 71.6985 10.0641 71.4 11.0166 71.4ZM10.8389 68.4699H15.125C15.2708 68.4699 15.4098 68.4562 15.542 68.4289L9.24609 65.3117C8.99089 65.6535 8.86328 66.0432 8.86328 66.4807C8.86328 67.0321 9.05697 67.5015 9.44434 67.8889C9.82715 68.2762 10.292 68.4699 10.8389 68.4699ZM10.8594 63.3977H15.1045C15.943 63.3977 16.6608 63.6984 17.2578 64.3C17.8503 64.9016 18.1465 65.6284 18.1465 66.4807C18.1465 67.3374 17.8503 68.0643 17.2578 68.6613C16.6608 69.2629 15.943 69.5637 15.1045 69.5637H10.8594C10.0208 69.5637 9.30534 69.2629 8.71289 68.6613C8.11589 68.0598 7.81738 67.3329 7.81738 66.4807C7.81738 65.6284 8.11589 64.9016 8.71289 64.3C9.30534 63.6984 10.0208 63.3977 10.8594 63.3977ZM10.2373 64.5803L16.6426 67.7521C16.9479 67.3921 17.1006 66.9683 17.1006 66.4807C17.1006 65.9383 16.9069 65.4712 16.5195 65.0793C16.1367 64.6919 15.6719 64.496 15.125 64.4914H10.8389C10.6247 64.4914 10.4242 64.521 10.2373 64.5803ZM11.0166 55.4773C11.8278 55.4773 12.4977 55.8146 13.0264 56.4891C13.9834 57.715 14.487 58.3484 14.5371 58.3895C15.2891 59.1277 16.041 59.6518 16.793 59.9617L16.916 60.0232V55.3475L18.0098 55.826L18.0098 61.6912L16.6699 61.1717C15.1432 60.479 13.9469 59.5311 13.0811 58.3279C12.639 57.7309 12.3473 57.3322 12.2061 57.1316C11.9417 56.7534 11.5225 56.5643 10.9482 56.5643C10.9163 56.5643 10.8822 56.5643 10.8457 56.5643C10.2897 56.5779 9.82259 56.7716 9.44434 57.1453C9.05697 57.5281 8.86328 57.9975 8.86328 58.5535C8.86328 59.0958 9.05697 59.563 9.44434 59.9549C9.83171 60.3468 10.2852 60.5428 10.8047 60.5428C10.8138 60.5428 10.8252 60.5428 10.8389 60.5428L10.9072 60.5359L11.3857 61.6297L10.8594 61.6365C10.0391 61.6365 9.32357 61.3357 8.71289 60.7342C8.11589 60.1417 7.81738 59.4148 7.81738 58.5535C7.81738 57.6922 8.11361 56.9653 8.70605 56.3729C9.29395 55.7758 10.0641 55.4773 11.0166 55.4773ZM11.0166 47.516C11.8278 47.516 12.4977 47.8533 13.0264 48.5277C13.9834 49.7536 14.487 50.3871 14.5371 50.4281C15.2891 51.1664 16.041 51.6905 16.793 52.0004L16.916 52.0619L16.916 47.3861L18.0098 47.8646V53.7299L16.6699 53.2104C15.1432 52.5176 13.9469 51.5697 13.0811 50.3666C12.639 49.7696 12.3473 49.3708 12.2061 49.1703C11.9417 48.7921 11.5225 48.6029 10.9482 48.6029C10.9163 48.6029 10.8822 48.6029 10.8457 48.6029C10.2897 48.6166 9.82259 48.8103 9.44434 49.184C9.05697 49.5668 8.86328 50.0362 8.86328 50.5922C8.86328 51.1345 9.05697 51.6016 9.44434 51.9936C9.83171 52.3855 10.2852 52.5814 10.8047 52.5814C10.8138 52.5814 10.8252 52.5814 10.8389 52.5814L10.9072 52.5746L11.3857 53.6684L10.8594 53.6752C10.0391 53.6752 9.32357 53.3744 8.71289 52.7729C8.11589 52.1804 7.81738 51.4535 7.81738 50.5922C7.81738 49.7309 8.11361 49.004 8.70605 48.4115C9.29395 47.8145 10.0641 47.516 11.0166 47.516Z" fill="black"/>
<rect x="262.063" y="4.82812" width="10.4331" height="10.4331" transform="rotate(90 262.063 4.82812)" fill="black" stroke="black"/>
<rect x="272.544" y="15.3091" width="10.4331" height="10.4331" transform="rotate(90 272.544 15.3091)" fill="black" stroke="black"/>
<rect x="262.063" y="25.7891" width="10.4331" height="10.4331" transform="rotate(90 262.063 25.7891)" fill="black" stroke="black"/>
<rect x="272.544" y="36.27" width="10.4331" height="10.4331" transform="rotate(90 272.544 36.27)" fill="#4285F4" stroke="black"/>
<rect x="262.063" y="46.75" width="10.4331" height="10.4331" transform="rotate(90 262.063 46.75)" fill="black" stroke="black"/>
<rect x="272.544" y="57.23" width="10.4331" height="10.4331" transform="rotate(90 272.544 57.23)" fill="black" stroke="black"/>
<rect x="262.063" y="67.7109" width="10.4331" height="10.4331" transform="rotate(90 262.063 67.7109)" fill="#FBBC04" stroke="black"/>
<rect x="272.544" y="78.1899" width="10.4331" height="10.4331" transform="rotate(90 272.544 78.1899)" fill="black" stroke="black"/>
<rect x="262.063" y="88.6714" width="10.4331" height="10.4331" transform="rotate(90 262.063 88.6714)" fill="black" stroke="black"/>
<rect x="272.544" y="99.1514" width="10.4331" height="10.4331" transform="rotate(90 272.544 99.1514)" fill="black" stroke="black"/>
<rect x="262.063" y="109.632" width="10.4331" height="10.4331" transform="rotate(90 262.063 109.632)" fill="black" stroke="black"/>
<rect x="272.544" y="4.82861" width="10.4331" height="10.4331" transform="rotate(90 272.544 4.82861)" stroke="black"/>
<rect x="262.063" y="15.3096" width="10.4331" height="10.4331" transform="rotate(90 262.063 15.3096)" stroke="black"/>
<rect x="272.544" y="25.7896" width="10.4331" height="10.4331" transform="rotate(90 272.544 25.7896)" stroke="black"/>
<rect x="262.063" y="36.2695" width="10.4331" height="10.4331" transform="rotate(90 262.063 36.2695)" stroke="black"/>
<rect x="272.544" y="46.7485" width="10.4331" height="10.4331" transform="rotate(90 272.544 46.7485)" stroke="black"/>
<rect x="262.063" y="57.23" width="10.4331" height="10.4331" transform="rotate(90 262.063 57.23)" stroke="black"/>
<rect x="272.544" y="67.7109" width="10.4331" height="10.4331" transform="rotate(90 272.544 67.7109)" stroke="black"/>
<rect x="262.063" y="78.1909" width="10.4331" height="10.4331" transform="rotate(90 262.063 78.1909)" stroke="black"/>
<rect x="272.544" y="88.6719" width="10.4331" height="10.4331" transform="rotate(90 272.544 88.6719)" stroke="black"/>
<rect x="262.063" y="99.1519" width="10.4331" height="10.4331" transform="rotate(90 262.063 99.1519)" stroke="black"/>
<rect x="272.544" y="109.632" width="10.4331" height="10.4331" transform="rotate(90 272.544 109.632)" stroke="black"/>
<rect x="39.5986" y="4.68164" width="10.4331" height="10.4331" transform="rotate(90 39.5986 4.68164)" fill="black" stroke="black"/>
<rect x="50.0791" y="15.1626" width="10.4331" height="10.4331" transform="rotate(90 50.0791 15.1626)" fill="#EA4335" stroke="black"/>
<rect x="39.5986" y="25.6426" width="10.4331" height="10.4331" transform="rotate(90 39.5986 25.6426)" fill="black" stroke="black"/>
<rect x="50.0791" y="36.1235" width="10.4331" height="10.4331" transform="rotate(90 50.0791 36.1235)" fill="black" stroke="black"/>
<rect x="39.5986" y="46.6035" width="10.4331" height="10.4331" transform="rotate(90 39.5986 46.6035)" fill="black" stroke="black"/>
<rect x="50.0791" y="57.0835" width="10.4331" height="10.4331" transform="rotate(90 50.0791 57.0835)" fill="black" stroke="black"/>
<rect x="39.5986" y="67.5645" width="10.4331" height="10.4331" transform="rotate(90 39.5986 67.5645)" fill="black" stroke="black"/>
<rect x="50.0791" y="78.0435" width="10.4331" height="10.4331" transform="rotate(90 50.0791 78.0435)" fill="black" stroke="black"/>
<rect x="39.5986" y="88.5249" width="10.4331" height="10.4331" transform="rotate(90 39.5986 88.5249)" fill="black" stroke="black"/>
<rect x="50.0791" y="99.0049" width="10.4331" height="10.4331" transform="rotate(90 50.0791 99.0049)" fill="#34A853" stroke="black"/>
<rect x="39.5986" y="109.486" width="10.4331" height="10.4331" transform="rotate(90 39.5986 109.486)" fill="black" stroke="black"/>
<rect x="50.0791" y="4.68213" width="10.4331" height="10.4331" transform="rotate(90 50.0791 4.68213)" stroke="black"/>
<rect x="39.5986" y="15.1631" width="10.4331" height="10.4331" transform="rotate(90 39.5986 15.1631)" stroke="black"/>
<rect x="50.0791" y="25.6431" width="10.4331" height="10.4331" transform="rotate(90 50.0791 25.6431)" stroke="black"/>
<rect x="39.5986" y="36.123" width="10.4331" height="10.4331" transform="rotate(90 39.5986 36.123)" stroke="black"/>
<rect x="50.0791" y="46.6021" width="10.4331" height="10.4331" transform="rotate(90 50.0791 46.6021)" stroke="black"/>
<rect x="39.5986" y="57.0835" width="10.4331" height="10.4331" transform="rotate(90 39.5986 57.0835)" stroke="black"/>
<rect x="50.0791" y="67.5645" width="10.4331" height="10.4331" transform="rotate(90 50.0791 67.5645)" stroke="black"/>
<rect x="39.5986" y="78.0444" width="10.4331" height="10.4331" transform="rotate(90 39.5986 78.0444)" stroke="black"/>
<rect x="50.0791" y="88.5254" width="10.4331" height="10.4331" transform="rotate(90 50.0791 88.5254)" stroke="black"/>
<rect x="39.5986" y="99.0054" width="10.4331" height="10.4331" transform="rotate(90 39.5986 99.0054)" stroke="black"/>
<rect x="50.0791" y="109.485" width="10.4331" height="10.4331" transform="rotate(90 50.0791 109.485)" stroke="black"/>
</svg>
