<svg width="493" height="53" viewBox="0 0 493 53" fill="none" xmlns="http://www.w3.org/2000/svg">
<rect x="447.403" y="1.5" width="43.7478" height="50.319" stroke="black"/>
<rect x="403.863" y="1.5" width="43.5393" height="50.319" stroke="black"/>
<rect x="359.817" y="1.5" width="44.0467" height="50.319" stroke="black"/>
<rect x="315.771" y="1.5" width="44.0467" height="50.319" stroke="black"/>
<rect x="271.156" y="1.5" width="44.6138" height="50.319" stroke="black"/>
<rect x="226.924" y="1.5" width="44.233" height="50.319" stroke="black"/>
<rect x="181.463" y="1.5" width="45.4603" height="50.319" stroke="black"/>
<rect x="137.186" y="1.5" width="44.2779" height="50.319" stroke="black"/>
<rect x="92.0205" y="1.5" width="45.1645" height="50.319" stroke="black"/>
<rect x="46.834" y="1.5" width="45.1871" height="50.319" stroke="black"/>
<rect x="1.64648" y="1.5" width="45.1871" height="50.319" stroke="black"/>
<circle cx="27" cy="24" r="8.5" stroke="black"/>
<circle cx="66" cy="25" r="8.5" stroke="black"/>
<circle cx="116.146" cy="24.5" r="8.5" stroke="black"/>
<circle cx="158.293" cy="29" r="8.5" stroke="black"/>
<circle cx="207.439" cy="25.5" r="8.5" stroke="black"/>
<circle cx="250.586" cy="26" r="8.5" stroke="black"/>
<circle cx="295.732" cy="28.5" r="8.5" stroke="black"/>
<circle cx="336.146" cy="24.5" r="8.5" stroke="black"/>
<circle cx="379.561" cy="27" r="8.5" stroke="black"/>
<circle cx="418.975" cy="23.5" r="8.5" stroke="black"/>
<circle cx="470.146" cy="23" r="8.5" stroke="black"/>
</svg>
