<svg width="432" height="321" viewBox="0 0 432 321" fill="none" xmlns="http://www.w3.org/2000/svg">
<rect x="10.9375" y="160.903" width="349" height="149" fill="black" stroke="black"/>
<path d="M287.501 52.7794C301.441 34.8062 339.467 7.66529 380.05 42.887C366.998 59.144 330.215 83.8822 287.501 52.7794Z" fill="black"/>
<path d="M208.096 101.75C230.105 107.249 276.697 105.029 286.995 52.1521C266.738 47.4529 222.6 50.7936 208.096 101.75Z" fill="black"/>
<path d="M324.98 144.895C330.963 161.429 322.782 179.604 306.707 185.489C290.632 191.375 272.75 182.743 266.767 166.209C260.784 149.675 268.965 131.501 285.04 125.615C301.115 119.729 318.997 128.361 324.98 144.895Z" fill="black"/>
<path d="M396.209 149.348C402.193 165.882 394.011 184.056 377.936 189.942C361.861 195.828 343.98 187.195 337.996 170.662C332.013 154.128 340.195 135.953 356.27 130.068C372.345 124.182 390.226 132.814 396.209 149.348Z" fill="black"/>
<path d="M283.999 147.5L281.499 57L307.938 43.4995L380.438 166.5L327.999 170.662L283.999 147.5Z" fill="black"/>
</svg>
