<svg width="432" height="321" viewBox="0 0 432 321" fill="none" xmlns="http://www.w3.org/2000/svg">
<rect x="2.4375" y="152.202" width="366" height="166" rx="12" fill="white" stroke="#D30000" stroke-width="4"/>
<rect x="10.9375" y="160.702" width="349" height="149" fill="white" stroke="#D30000"/>
<path d="M287.501 52.578C301.441 34.6048 339.466 7.46394 380.05 42.6857C366.998 58.9426 330.214 83.6808 287.501 52.578Z" fill="#008445" stroke="black" stroke-width="2"/>
<path d="M208.096 101.549C230.105 107.048 276.697 104.828 286.995 51.9511C266.739 47.2519 222.6 50.5926 208.096 101.549Z" fill="#008445" stroke="black" stroke-width="2"/>
<path d="M324.041 145.038C329.845 161.076 321.899 178.66 306.366 184.347C290.834 190.034 273.51 181.702 267.706 165.664C261.902 149.625 269.847 132.041 285.38 126.354C300.913 120.667 318.237 128.999 324.041 145.038Z" fill="#D30000" stroke="black" stroke-width="2"/>
<path d="M395.27 149.491C401.074 165.529 393.129 183.113 377.596 188.8C362.063 194.487 344.739 186.155 338.935 170.117C333.132 154.078 341.077 136.494 356.61 130.807C372.143 125.12 389.467 133.452 395.27 149.491Z" fill="#D30000" stroke="black" stroke-width="2"/>
<path d="M355.454 132.182C353.749 102.747 315.052 82.5594 287.936 53.9697C290.603 81.6747 279.581 115.315 288.679 125.074" stroke="black" stroke-width="2"/>
<path d="M97.645 216.114C96.9712 217.286 96.1948 218.458 95.3159 219.629C94.4517 220.801 93.4775 221.863 92.3936 222.815C91.3242 223.753 90.1377 224.522 88.834 225.123C87.5303 225.708 86.1094 226.001 84.5713 226.001C83.3115 226.001 82.1323 225.811 81.0337 225.43C79.9351 225.035 78.9756 224.456 78.1553 223.694C77.3496 222.933 76.7124 222.002 76.2437 220.904C75.7896 219.791 75.5625 218.509 75.5625 217.059C75.5625 215.286 75.8335 213.66 76.3755 212.181C76.9321 210.687 77.6792 209.346 78.6167 208.16C79.5542 206.958 80.6455 205.911 81.8906 205.018C83.1357 204.109 84.4614 203.355 85.8677 202.754C87.2739 202.139 88.7168 201.685 90.1963 201.392C91.6904 201.084 93.1406 200.938 94.5469 200.953C96.0703 200.967 97.5571 201.187 99.0073 201.612C100.472 202.037 101.769 202.688 102.896 203.567C104.039 204.432 104.955 205.53 105.643 206.863C106.332 208.196 106.676 209.771 106.676 211.587C106.676 212.847 106.456 214.261 106.017 215.828C105.577 217.381 104.815 219.102 103.731 220.992C102.472 223.189 101.38 225.064 100.458 226.617C99.5347 228.155 98.7656 229.451 98.1504 230.506C97.5498 231.546 97.103 232.381 96.8101 233.011C96.5171 233.626 96.3706 234.117 96.3706 234.483C96.3706 234.834 96.5244 235.113 96.832 235.318C97.1543 235.523 97.6011 235.625 98.1724 235.625C98.9487 235.625 99.8643 235.42 100.919 235.01C101.974 234.6 103.138 233.985 104.413 233.165C105.57 232.432 106.712 231.59 107.84 230.638C108.968 229.686 110.067 228.675 111.136 227.605C112.22 226.521 113.26 225.401 114.256 224.244C115.267 223.086 116.219 221.937 117.113 220.794C118.006 219.637 118.834 218.509 119.596 217.41C120.357 216.312 121.039 215.279 121.639 214.312C121.346 213.404 121.134 212.54 121.002 211.719C120.87 210.884 120.804 210.101 120.804 209.368C120.804 208.475 120.885 207.684 121.046 206.995C121.207 206.292 121.419 205.706 121.683 205.237C121.961 204.754 122.284 204.388 122.65 204.139C123.031 203.89 123.434 203.765 123.858 203.765C124.225 203.765 124.54 203.853 124.803 204.029C125.082 204.19 125.309 204.402 125.484 204.666C125.66 204.93 125.792 205.23 125.88 205.567C125.968 205.904 126.012 206.241 126.012 206.578C126.012 207.09 125.924 207.713 125.748 208.445C125.572 209.178 125.25 210.042 124.781 211.038C124.386 211.888 123.829 212.913 123.111 214.114C122.394 215.315 121.544 216.619 120.562 218.025C119.596 219.417 118.519 220.86 117.333 222.354C116.161 223.848 114.908 225.313 113.575 226.749C112.242 228.169 110.851 229.517 109.4 230.792C107.965 232.066 106.507 233.179 105.028 234.131C103.46 235.142 102.12 235.838 101.007 236.219C99.8936 236.6 98.9561 236.79 98.1943 236.79C97.5059 236.79 96.9272 236.688 96.4585 236.482C96.0044 236.277 95.6382 235.999 95.3599 235.647C95.0815 235.311 94.8838 234.93 94.7666 234.505C94.6494 234.08 94.5908 233.648 94.5908 233.208C94.5908 232.681 94.6714 232.125 94.8325 231.539C94.9937 230.953 95.2427 230.381 95.5796 229.825C95.9751 229.166 96.4731 228.36 97.0737 227.408C97.6743 226.456 98.3115 225.416 98.9854 224.288C99.6738 223.16 100.362 221.973 101.051 220.728C101.739 219.468 102.354 218.216 102.896 216.971C103.453 215.711 103.9 214.48 104.237 213.279C104.588 212.078 104.764 210.965 104.764 209.939C104.764 208.943 104.537 207.977 104.083 207.039C103.644 206.102 102.984 205.267 102.105 204.534C101.241 203.802 100.172 203.216 98.8975 202.776C97.623 202.322 96.1509 202.095 94.481 202.095C92.9868 202.095 91.5439 202.278 90.1523 202.645C88.7754 202.996 87.479 203.494 86.2632 204.139C85.0474 204.783 83.9341 205.56 82.9233 206.468C81.9272 207.361 81.0703 208.35 80.3525 209.434C79.6348 210.503 79.0781 211.653 78.6826 212.884C78.2871 214.1 78.0894 215.352 78.0894 216.641C78.0894 217.872 78.2798 218.963 78.6606 219.915C79.0562 220.853 79.5835 221.636 80.2427 222.266C80.9019 222.896 81.6636 223.372 82.5278 223.694C83.3921 224.017 84.3003 224.178 85.2524 224.178C86.2778 224.178 87.3105 223.98 88.3506 223.584C89.3906 223.189 90.4014 222.618 91.3828 221.871C92.3789 221.124 93.3311 220.223 94.2393 219.168C95.1475 218.099 95.9897 216.905 96.7661 215.586L97.645 216.114ZM122.43 212.972C122.928 212.137 123.331 211.39 123.639 210.73C123.961 210.071 124.21 209.485 124.386 208.973C124.562 208.46 124.679 208.013 124.737 207.632C124.811 207.237 124.847 206.893 124.847 206.6C124.847 206.424 124.833 206.241 124.803 206.05C124.774 205.845 124.715 205.662 124.627 205.501C124.554 205.325 124.444 205.186 124.298 205.083C124.166 204.981 123.983 204.93 123.749 204.93C123.485 204.93 123.243 205.054 123.023 205.303C122.804 205.538 122.613 205.86 122.452 206.27C122.291 206.666 122.167 207.134 122.079 207.676C121.991 208.204 121.947 208.775 121.947 209.39C121.947 209.917 121.983 210.481 122.057 211.082C122.13 211.683 122.254 212.312 122.43 212.972ZM132.142 213.587C132.142 213.88 132.069 214.188 131.922 214.51C131.776 214.817 131.585 215.096 131.351 215.345C131.131 215.594 130.882 215.799 130.604 215.96C130.326 216.121 130.047 216.202 129.769 216.202C129.52 216.202 129.33 216.114 129.198 215.938C129.066 215.748 129 215.521 129 215.257C129 215.022 129.044 214.744 129.132 214.422C129.22 214.1 129.352 213.799 129.527 213.521C129.703 213.228 129.916 212.979 130.165 212.774C130.414 212.569 130.699 212.466 131.021 212.466C131.329 212.466 131.593 212.583 131.812 212.818C132.032 213.052 132.142 213.309 132.142 213.587ZM128.033 218.465C127.843 218.846 127.572 219.351 127.22 219.981C126.883 220.596 126.517 221.277 126.122 222.024C125.726 222.757 125.323 223.533 124.913 224.354C124.503 225.159 124.129 225.95 123.792 226.727C123.47 227.488 123.207 228.206 123.001 228.88C122.796 229.554 122.694 230.125 122.694 230.594C122.694 231.019 122.782 231.312 122.958 231.473C123.133 231.619 123.382 231.692 123.705 231.692C124.305 231.692 124.891 231.495 125.462 231.099C126.034 230.704 126.598 230.191 127.154 229.561C127.726 228.917 128.282 228.184 128.824 227.364C129.366 226.543 129.908 225.716 130.45 224.881L131.241 225.496C130.816 226.258 130.333 227.071 129.791 227.935C129.264 228.799 128.67 229.605 128.011 230.352C127.352 231.084 126.627 231.692 125.836 232.176C125.045 232.659 124.181 232.901 123.243 232.901C122.364 232.901 121.69 232.637 121.222 232.11C120.753 231.583 120.519 230.901 120.519 230.066C120.519 229.085 120.746 228.06 121.2 226.99C121.654 225.921 122.218 224.866 122.892 223.826C123.58 222.771 124.32 221.761 125.111 220.794C125.917 219.827 126.656 218.948 127.33 218.157L128.033 218.465ZM137.503 215.828C137.43 215.96 137.335 216.106 137.218 216.268C137.101 216.414 136.983 216.59 136.866 216.795C136.764 216.985 136.668 217.212 136.581 217.476C136.507 217.74 136.471 218.055 136.471 218.421C136.471 218.729 136.544 219.146 136.69 219.673C136.852 220.201 137.02 220.809 137.196 221.497C137.372 222.171 137.533 222.911 137.679 223.716C137.84 224.507 137.921 225.328 137.921 226.177C137.921 227.422 137.752 228.521 137.416 229.473C137.079 230.425 136.632 231.238 136.075 231.912C137.218 231.297 138.338 230.418 139.437 229.275C140.536 228.118 141.642 226.653 142.755 224.881L143.502 225.54C142.872 226.58 142.154 227.613 141.349 228.638C140.558 229.649 139.686 230.564 138.734 231.385C137.782 232.19 136.756 232.842 135.658 233.34C134.559 233.853 133.395 234.109 132.164 234.109C131.065 234.109 130.143 233.846 129.396 233.318C128.634 232.806 128.165 232.029 127.989 230.989L128.78 230.835C128.78 230.923 128.824 231.07 128.912 231.275C128.985 231.465 129.11 231.656 129.286 231.846C129.461 232.037 129.703 232.205 130.011 232.352C130.304 232.498 130.67 232.571 131.109 232.571C131.695 232.571 132.215 232.439 132.669 232.176C133.124 231.897 133.519 231.539 133.856 231.099C134.193 230.66 134.479 230.162 134.713 229.605C134.947 229.034 135.13 228.448 135.262 227.847C135.409 227.247 135.511 226.661 135.57 226.089C135.628 225.518 135.658 224.998 135.658 224.529C135.658 224.061 135.636 223.541 135.592 222.969C135.562 222.398 135.526 221.856 135.482 221.343C135.438 220.816 135.394 220.362 135.35 219.981C135.321 219.585 135.306 219.329 135.306 219.212V219.168C135.116 219.373 134.889 219.673 134.625 220.069C134.361 220.464 134.076 220.896 133.768 221.365C133.475 221.834 133.175 222.31 132.867 222.793C132.574 223.277 132.303 223.716 132.054 224.112C131.82 224.507 131.622 224.837 131.461 225.101C131.314 225.35 131.241 225.481 131.241 225.496L130.45 224.881C130.465 224.866 130.648 224.551 131 223.936C131.351 223.321 131.812 222.544 132.384 221.607C132.97 220.655 133.629 219.607 134.361 218.465C135.094 217.308 135.848 216.187 136.625 215.103L137.503 215.828ZM152.994 228.287C152.32 229.078 151.654 229.81 150.995 230.484C150.335 231.143 149.676 231.714 149.017 232.198C148.373 232.667 147.728 233.033 147.083 233.296C146.439 233.575 145.787 233.714 145.128 233.714C144.571 233.714 144.066 233.611 143.612 233.406C143.172 233.216 142.792 232.945 142.469 232.593C142.132 232.227 141.876 231.788 141.7 231.275C141.524 230.748 141.437 230.162 141.437 229.517C141.437 228.506 141.664 227.466 142.118 226.397C142.557 225.328 143.114 224.288 143.788 223.277C144.476 222.266 145.23 221.307 146.051 220.398C146.886 219.49 147.677 218.685 148.424 217.981L149.369 218.641C148.841 219.417 148.248 220.296 147.589 221.277C146.944 222.259 146.329 223.277 145.743 224.332C145.172 225.372 144.688 226.419 144.293 227.474C143.897 228.514 143.7 229.48 143.7 230.374C143.7 230.975 143.81 231.487 144.029 231.912C144.264 232.337 144.703 232.549 145.348 232.549C146.051 232.549 146.82 232.271 147.655 231.714C148.504 231.158 149.369 230.433 150.248 229.539C151.141 228.646 152.027 227.642 152.906 226.529C153.8 225.401 154.642 224.266 155.433 223.123C156.224 221.98 156.942 220.889 157.586 219.849C158.246 218.809 158.78 217.923 159.19 217.19L160.794 217.981C159.945 219.651 159.125 221.211 158.333 222.662C157.557 224.097 156.861 225.394 156.246 226.551C155.646 227.693 155.162 228.689 154.796 229.539C154.444 230.389 154.269 231.062 154.269 231.561C154.269 231.766 154.312 231.934 154.4 232.066C154.488 232.198 154.627 232.264 154.818 232.264C155.36 232.278 155.953 232.044 156.598 231.561C157.257 231.077 157.916 230.469 158.575 229.737C159.249 229.004 159.901 228.206 160.531 227.342C161.175 226.463 161.754 225.643 162.267 224.881L163.058 225.496C162.97 225.643 162.787 225.943 162.508 226.397C162.23 226.851 161.886 227.371 161.476 227.957C161.065 228.543 160.597 229.158 160.069 229.803C159.542 230.447 158.985 231.041 158.399 231.583C157.813 232.11 157.206 232.549 156.576 232.901C155.946 233.238 155.323 233.406 154.708 233.406C154.327 233.406 153.983 233.34 153.675 233.208C153.382 233.077 153.133 232.901 152.928 232.681C152.723 232.461 152.562 232.205 152.445 231.912C152.328 231.619 152.269 231.312 152.269 230.989C152.269 230.608 152.328 230.191 152.445 229.737C152.577 229.283 152.76 228.799 152.994 228.287ZM179.735 218.465C179.544 218.846 179.273 219.344 178.922 219.959C178.585 220.574 178.219 221.255 177.823 222.002C177.428 222.735 177.025 223.504 176.615 224.31C176.219 225.115 175.853 225.906 175.516 226.683C175.194 227.444 174.923 228.169 174.703 228.858C174.498 229.532 174.396 230.103 174.396 230.572C174.396 231.041 174.483 231.348 174.659 231.495C174.85 231.626 175.091 231.692 175.384 231.692C175.809 231.692 176.241 231.568 176.681 231.319C177.135 231.07 177.574 230.748 177.999 230.352C178.438 229.957 178.863 229.51 179.273 229.012C179.684 228.514 180.064 228.016 180.416 227.518C180.782 227.005 181.112 226.521 181.405 226.067C181.698 225.599 181.947 225.203 182.152 224.881L182.943 225.496C182.694 225.965 182.401 226.47 182.064 227.012C181.727 227.554 181.354 228.104 180.943 228.66C180.548 229.202 180.116 229.729 179.647 230.242C179.178 230.755 178.68 231.209 178.153 231.604C177.64 232 177.098 232.315 176.527 232.549C175.956 232.784 175.37 232.901 174.769 232.901C173.89 232.901 173.246 232.637 172.835 232.11C172.425 231.583 172.22 230.901 172.22 230.066C172.22 230.008 172.22 229.883 172.22 229.693C172.235 229.488 172.257 229.327 172.286 229.209C171.554 230.132 170.851 230.894 170.177 231.495C169.518 232.095 168.873 232.571 168.243 232.923C167.628 233.274 167.027 233.516 166.441 233.648C165.87 233.794 165.321 233.868 164.793 233.868C164.237 233.868 163.709 233.772 163.211 233.582C162.728 233.406 162.303 233.143 161.937 232.791C161.556 232.439 161.263 232.007 161.058 231.495C160.838 230.982 160.729 230.389 160.729 229.715C160.729 228.88 160.919 227.928 161.3 226.858C161.666 225.774 162.325 224.61 163.277 223.365C164.083 222.295 164.918 221.395 165.782 220.662C166.661 219.93 167.518 219.344 168.353 218.904C169.203 218.45 170.008 218.128 170.77 217.938C171.532 217.747 172.213 217.652 172.813 217.652C174.161 217.652 175.179 217.879 175.868 218.333C176.556 218.772 176.974 219.454 177.12 220.376C177.413 220.01 177.721 219.644 178.043 219.278C178.365 218.912 178.695 218.538 179.032 218.157L179.735 218.465ZM172.989 226.814C173.18 226.507 173.414 226.119 173.692 225.65C173.971 225.167 174.264 224.676 174.571 224.178C174.879 223.665 175.179 223.174 175.472 222.706C175.765 222.237 176.021 221.841 176.241 221.519C176.241 221.387 176.219 221.175 176.175 220.882C176.146 220.589 176.051 220.296 175.89 220.003C175.729 219.695 175.472 219.432 175.121 219.212C174.769 218.992 174.278 218.882 173.648 218.882C173.194 218.882 172.682 218.956 172.11 219.102C171.554 219.234 170.953 219.468 170.309 219.805C169.679 220.127 169.027 220.56 168.353 221.102C167.679 221.644 167.005 222.317 166.332 223.123C165.321 224.339 164.537 225.562 163.98 226.792C163.438 228.008 163.167 229.107 163.167 230.088C163.167 230.923 163.358 231.568 163.739 232.022C164.12 232.476 164.662 232.703 165.365 232.703C166.17 232.703 166.925 232.527 167.628 232.176C168.331 231.81 168.99 231.341 169.605 230.77C170.221 230.198 170.807 229.568 171.363 228.88C171.92 228.177 172.462 227.488 172.989 226.814ZM198.082 201.106C198.595 201.106 199.02 201.231 199.356 201.48C199.708 201.729 199.884 202.183 199.884 202.842C199.884 203.296 199.789 203.838 199.598 204.468C199.422 205.098 199.173 205.787 198.851 206.534C198.543 207.266 198.177 208.042 197.752 208.863C197.328 209.668 196.866 210.474 196.368 211.28C195.885 212.085 195.372 212.869 194.83 213.631C194.303 214.393 193.775 215.096 193.248 215.74C192.193 217.044 191.278 218.143 190.501 219.036C189.74 219.93 189.081 220.691 188.524 221.321C187.967 221.937 187.499 222.442 187.118 222.837C186.737 223.218 186.4 223.548 186.107 223.826C185.814 224.104 185.543 224.361 185.294 224.595C185.045 224.815 184.789 225.064 184.525 225.342C184.408 225.899 184.349 226.434 184.349 226.946C184.364 227.444 184.371 227.906 184.371 228.331C184.371 229.605 184.576 230.55 184.986 231.165C185.396 231.78 185.975 232.088 186.722 232.088C187.22 232.088 187.718 231.963 188.216 231.714C188.729 231.451 189.234 231.114 189.732 230.704C190.23 230.293 190.714 229.832 191.183 229.319C191.651 228.792 192.091 228.265 192.501 227.737C192.926 227.195 193.307 226.675 193.644 226.177C193.98 225.679 194.273 225.247 194.522 224.881L195.335 225.496C195.292 225.555 195.145 225.789 194.896 226.199C194.662 226.595 194.347 227.078 193.951 227.649C193.556 228.221 193.087 228.836 192.545 229.495C192.003 230.14 191.417 230.74 190.787 231.297C190.157 231.854 189.491 232.315 188.788 232.681C188.099 233.047 187.396 233.23 186.678 233.23C186.078 233.23 185.499 233.121 184.942 232.901C184.4 232.667 183.917 232.308 183.492 231.824C183.082 231.326 182.745 230.696 182.481 229.935C182.232 229.173 182.108 228.257 182.108 227.188C182.108 225.855 182.262 224.463 182.569 223.013C182.892 221.548 183.324 220.083 183.866 218.619C184.408 217.139 185.045 215.682 185.777 214.246C186.51 212.811 187.286 211.448 188.106 210.159C188.941 208.855 189.806 207.654 190.699 206.556C191.607 205.442 192.494 204.483 193.358 203.677C194.237 202.872 195.079 202.242 195.885 201.788C196.69 201.333 197.423 201.106 198.082 201.106ZM184.92 223.387C186.166 222.098 187.367 220.794 188.524 219.476C189.696 218.143 190.787 216.832 191.798 215.542C192.823 214.239 193.761 212.979 194.61 211.763C195.46 210.533 196.185 209.375 196.786 208.292C197.386 207.208 197.855 206.219 198.192 205.325C198.529 204.432 198.697 203.663 198.697 203.018C198.697 202.901 198.639 202.747 198.521 202.557C198.404 202.352 198.265 202.249 198.104 202.249C197.65 202.249 197.049 202.549 196.302 203.15C195.555 203.75 194.742 204.571 193.863 205.611C192.999 206.636 192.098 207.837 191.161 209.214C190.238 210.591 189.366 212.063 188.546 213.631C187.726 215.198 186.993 216.817 186.349 218.487C185.704 220.157 185.228 221.79 184.92 223.387ZM254.112 205.655C254.112 206.592 253.929 207.566 253.563 208.577C253.197 209.588 252.662 210.584 251.959 211.565C251.256 212.547 250.384 213.492 249.344 214.4C248.319 215.308 247.132 216.136 245.785 216.883C244.452 217.615 242.972 218.245 241.346 218.772C239.72 219.3 237.962 219.673 236.073 219.893C235.296 221.314 234.491 222.728 233.656 224.134C232.821 225.525 231.935 226.858 230.997 228.133C230.06 229.393 229.063 230.564 228.009 231.648C226.969 232.718 225.848 233.648 224.647 234.439C223.46 235.23 222.179 235.845 220.802 236.285C219.439 236.739 217.975 236.966 216.407 236.966C215.118 236.966 213.866 236.775 212.65 236.395C211.449 236.028 210.379 235.486 209.442 234.769C208.519 234.065 207.779 233.201 207.223 232.176C206.666 231.15 206.388 229.979 206.388 228.66C206.388 227.239 206.651 226.001 207.179 224.947C207.691 223.892 208.373 223.013 209.222 222.31C210.086 221.607 211.061 221.087 212.145 220.75C213.229 220.398 214.334 220.223 215.462 220.223C216.327 220.223 217.176 220.311 218.011 220.486C218.861 220.647 219.667 220.882 220.428 221.189C221.205 221.497 221.922 221.863 222.582 222.288C223.255 222.713 223.849 223.182 224.361 223.694L223.702 224.397C223.351 224.061 222.933 223.738 222.45 223.431C221.981 223.123 221.439 222.852 220.824 222.618C220.208 222.369 219.535 222.178 218.802 222.046C218.07 221.9 217.279 221.827 216.429 221.827C215.448 221.827 214.496 221.995 213.573 222.332C212.65 222.654 211.83 223.13 211.112 223.76C210.394 224.375 209.815 225.137 209.376 226.045C208.937 226.939 208.717 227.964 208.717 229.122C208.717 230.059 208.9 230.938 209.266 231.758C209.647 232.564 210.174 233.26 210.848 233.846C211.537 234.446 212.342 234.915 213.265 235.252C214.203 235.589 215.235 235.757 216.363 235.757C217.652 235.757 218.861 235.552 219.989 235.142C221.131 234.747 222.193 234.19 223.175 233.472C224.171 232.769 225.108 231.927 225.987 230.945C226.881 229.964 227.723 228.895 228.514 227.737C229.32 226.565 230.089 225.335 230.821 224.046C231.554 222.757 232.279 221.438 232.997 220.091H232.403C229.942 220.091 227.723 219.842 225.746 219.344C223.783 218.831 222.105 218.135 220.714 217.256C219.337 216.377 218.275 215.352 217.528 214.18C216.795 212.994 216.429 211.719 216.429 210.357C216.429 208.995 216.693 207.793 217.22 206.753C217.748 205.713 218.465 204.842 219.374 204.139C220.282 203.436 221.336 202.908 222.538 202.557C223.739 202.19 225.013 202.007 226.361 202.007C227.518 202.007 228.58 202.103 229.547 202.293C230.514 202.469 231.378 202.703 232.14 202.996C232.916 203.274 233.597 203.582 234.183 203.919C234.784 204.256 235.289 204.578 235.699 204.886C236.109 205.193 236.432 205.464 236.666 205.699C236.9 205.933 237.054 206.087 237.127 206.16L236.38 206.819C236.366 206.805 236.153 206.622 235.743 206.27C235.333 205.904 234.754 205.508 234.007 205.083C233.26 204.644 232.359 204.249 231.305 203.897C230.25 203.531 229.078 203.348 227.789 203.348C226.485 203.348 225.284 203.531 224.186 203.897C223.102 204.263 222.164 204.776 221.373 205.435C220.582 206.08 219.959 206.849 219.505 207.742C219.066 208.636 218.846 209.61 218.846 210.665C218.846 211.91 219.19 213.045 219.879 214.07C220.567 215.081 221.52 215.953 222.735 216.685C223.966 217.403 225.409 217.967 227.064 218.377C228.734 218.772 230.55 218.97 232.513 218.97H233.568C234.33 217.52 235.084 216.084 235.831 214.664C236.593 213.228 237.369 211.866 238.16 210.577C238.951 209.273 239.771 208.064 240.621 206.951C241.471 205.838 242.372 204.878 243.324 204.073C244.276 203.252 245.294 202.615 246.378 202.161C247.462 201.692 248.626 201.458 249.872 201.458C250.384 201.458 250.89 201.531 251.388 201.678C251.9 201.81 252.354 202.044 252.75 202.381C253.16 202.703 253.49 203.135 253.739 203.677C253.988 204.205 254.112 204.864 254.112 205.655ZM250.333 202.645C249.41 202.645 248.531 202.85 247.696 203.26C246.861 203.67 246.063 204.249 245.301 204.996C244.54 205.728 243.8 206.6 243.082 207.61C242.364 208.606 241.654 209.705 240.951 210.906C240.262 212.093 239.566 213.353 238.863 214.686C238.16 216.004 237.442 217.344 236.71 218.707C238.614 218.458 240.343 218.055 241.896 217.498C243.448 216.941 244.825 216.297 246.026 215.564C247.228 214.817 248.268 214.012 249.146 213.147C250.025 212.283 250.75 211.419 251.322 210.555C251.893 209.69 252.311 208.863 252.574 208.072C252.853 207.266 252.992 206.548 252.992 205.918C252.992 205.45 252.94 205.018 252.838 204.622C252.75 204.227 252.604 203.882 252.398 203.589C252.193 203.296 251.922 203.069 251.585 202.908C251.249 202.732 250.831 202.645 250.333 202.645ZM251.981 214.949C252.127 214.7 252.384 214.268 252.75 213.653C253.131 213.038 253.57 212.356 254.068 211.609C254.581 210.862 255.13 210.115 255.716 209.368C256.317 208.606 256.903 207.962 257.474 207.435L258.463 208.028C257.833 209.068 257.188 210.174 256.529 211.346C255.87 212.503 255.218 213.704 254.574 214.949H261.737L261.297 216.092H253.98C253.321 217.41 252.699 218.721 252.113 220.025C251.542 221.329 251.036 222.574 250.597 223.76C250.157 224.947 249.813 226.06 249.564 227.1C249.315 228.125 249.19 229.019 249.19 229.781C249.19 230.733 249.41 231.421 249.85 231.846C250.289 232.256 250.831 232.461 251.476 232.461C252.047 232.461 252.633 232.293 253.233 231.956C253.834 231.604 254.42 231.165 254.991 230.638C255.577 230.11 256.126 229.532 256.639 228.902C257.167 228.272 257.628 227.679 258.023 227.122C258.434 226.565 258.771 226.082 259.034 225.672C259.298 225.247 259.459 224.983 259.518 224.881L260.331 225.496C259.818 226.346 259.239 227.247 258.595 228.199C257.95 229.151 257.232 230.037 256.441 230.857C255.665 231.663 254.815 232.337 253.893 232.879C252.97 233.406 251.974 233.67 250.904 233.67C250.245 233.67 249.667 233.553 249.168 233.318C248.685 233.084 248.275 232.762 247.938 232.352C247.601 231.927 247.352 231.429 247.191 230.857C247.015 230.286 246.927 229.664 246.927 228.99C246.927 228.55 247 227.928 247.147 227.122C247.279 226.316 247.513 225.364 247.85 224.266C248.187 223.152 248.634 221.907 249.19 220.53C249.762 219.153 250.479 217.674 251.344 216.092H247.696L248.136 214.949H251.981ZM271.91 227.1C271.969 227.115 272.027 227.122 272.086 227.122C272.145 227.122 272.21 227.122 272.284 227.122C272.694 227.122 273.067 227.085 273.404 227.012C273.741 226.924 274.049 226.792 274.327 226.617C274.62 226.441 274.898 226.214 275.162 225.936C275.426 225.643 275.682 225.291 275.931 224.881L276.722 225.496C276.019 226.492 275.294 227.188 274.547 227.583C273.8 227.979 273.009 228.177 272.174 228.177C271.866 228.177 271.595 228.147 271.361 228.089C270.731 229.144 270.057 230.044 269.339 230.792C268.622 231.524 267.889 232.125 267.142 232.593C266.395 233.062 265.655 233.399 264.923 233.604C264.19 233.824 263.509 233.934 262.879 233.934C262.235 233.934 261.634 233.816 261.078 233.582C260.536 233.362 260.067 233.04 259.671 232.615C259.276 232.19 258.968 231.685 258.749 231.099C258.529 230.513 258.419 229.854 258.419 229.122C258.419 228.389 258.536 227.642 258.771 226.88C259.005 226.119 259.32 225.364 259.715 224.617C260.125 223.87 260.602 223.152 261.144 222.464C261.686 221.761 262.271 221.109 262.901 220.508C263.531 219.908 264.183 219.366 264.857 218.882C265.531 218.399 266.205 218.003 266.878 217.696L267.582 218.619C266.805 219.175 266.014 219.878 265.208 220.728C264.417 221.578 263.692 222.508 263.033 223.519C262.389 224.529 261.854 225.584 261.429 226.683C261.019 227.767 260.814 228.821 260.814 229.847C260.814 230.77 261.019 231.487 261.429 232C261.839 232.498 262.462 232.747 263.297 232.747C263.941 232.747 264.579 232.615 265.208 232.352C265.838 232.088 266.454 231.729 267.054 231.275C267.655 230.821 268.233 230.286 268.79 229.671C269.347 229.041 269.874 228.375 270.372 227.671C269.947 227.422 269.574 227.093 269.251 226.683C268.929 226.258 268.658 225.782 268.438 225.254C268.219 224.712 268.05 224.134 267.933 223.519C267.831 222.903 267.779 222.273 267.779 221.629C267.779 220.984 267.86 220.376 268.021 219.805C268.182 219.234 268.402 218.736 268.68 218.311C268.973 217.872 269.31 217.527 269.691 217.278C270.072 217.029 270.489 216.905 270.943 216.905C271.354 216.905 271.72 217.015 272.042 217.234C272.364 217.439 272.635 217.732 272.855 218.113C273.075 218.479 273.243 218.919 273.36 219.432C273.478 219.944 273.536 220.494 273.536 221.08C273.536 221.519 273.5 222.002 273.426 222.53C273.353 223.057 273.243 223.592 273.097 224.134C272.965 224.661 272.796 225.188 272.591 225.716C272.401 226.229 272.174 226.69 271.91 227.1ZM268.922 221.629C268.922 222.054 268.958 222.515 269.032 223.013C269.105 223.511 269.222 223.995 269.383 224.463C269.544 224.932 269.75 225.372 269.999 225.782C270.248 226.177 270.555 226.492 270.921 226.727C271.185 226.214 271.405 225.694 271.581 225.167C271.771 224.625 271.925 224.104 272.042 223.606C272.174 223.108 272.262 222.647 272.306 222.222C272.364 221.783 272.394 221.402 272.394 221.08C272.394 220.64 272.357 220.237 272.284 219.871C272.21 219.505 272.108 219.19 271.976 218.926C271.859 218.648 271.705 218.436 271.515 218.289C271.339 218.128 271.141 218.047 270.921 218.047C270.628 218.047 270.357 218.15 270.108 218.355C269.859 218.545 269.647 218.809 269.471 219.146C269.295 219.468 269.156 219.849 269.054 220.289C268.966 220.713 268.922 221.16 268.922 221.629ZM289.818 225.496C289.598 225.818 289.334 226.258 289.027 226.814C288.734 227.356 288.39 227.95 287.994 228.594C287.599 229.224 287.159 229.869 286.676 230.528C286.207 231.187 285.687 231.78 285.116 232.308C284.559 232.835 283.951 233.267 283.292 233.604C282.633 233.941 281.93 234.109 281.183 234.109C280.772 234.109 280.384 234.043 280.018 233.912C279.652 233.794 279.33 233.604 279.051 233.34C278.773 233.077 278.553 232.754 278.392 232.374C278.231 231.978 278.15 231.517 278.15 230.989C278.15 230.271 278.29 229.524 278.568 228.748C278.861 227.957 279.198 227.195 279.579 226.463C279.959 225.73 280.34 225.064 280.721 224.463C281.102 223.848 281.38 223.357 281.556 222.991C281.732 222.625 281.82 222.31 281.82 222.046C281.82 221.856 281.754 221.688 281.622 221.541C281.505 221.395 281.351 221.255 281.161 221.124C280.985 220.977 280.794 220.831 280.589 220.684C280.399 220.523 280.238 220.333 280.106 220.113C279.74 220.699 279.366 221.292 278.985 221.893C278.648 222.405 278.282 222.984 277.887 223.628C277.491 224.258 277.11 224.881 276.744 225.496L275.953 224.881L280.655 217.52L281.292 217.85C281.263 217.938 281.212 218.077 281.139 218.267C281.08 218.458 281.051 218.663 281.051 218.882C281.051 219.043 281.073 219.205 281.117 219.366C281.175 219.512 281.285 219.651 281.446 219.783C282.032 220.311 282.494 220.721 282.831 221.014C283.167 221.292 283.409 221.519 283.556 221.695C283.717 221.856 283.812 221.995 283.841 222.112C283.885 222.215 283.907 222.354 283.907 222.53C283.907 222.706 283.878 222.918 283.819 223.167C283.761 223.416 283.658 223.716 283.512 224.068C283.38 224.419 283.189 224.837 282.94 225.32C282.706 225.789 282.406 226.338 282.04 226.968C281.82 227.349 281.6 227.737 281.38 228.133C281.175 228.514 280.985 228.902 280.809 229.297C280.648 229.693 280.516 230.088 280.414 230.484C280.311 230.879 280.26 231.26 280.26 231.626C280.26 231.905 280.296 232.132 280.37 232.308C280.458 232.469 280.567 232.593 280.699 232.681C280.831 232.769 280.97 232.828 281.117 232.857C281.278 232.886 281.432 232.901 281.578 232.901C282.062 232.901 282.538 232.762 283.006 232.483C283.49 232.19 283.958 231.817 284.413 231.363C284.881 230.909 285.328 230.396 285.753 229.825C286.192 229.239 286.61 228.646 287.005 228.045C287.401 227.444 287.767 226.873 288.104 226.331C288.441 225.774 288.741 225.291 289.005 224.881L289.818 225.496ZM298.871 213.587C298.871 213.88 298.797 214.188 298.651 214.51C298.504 214.817 298.314 215.096 298.08 215.345C297.86 215.594 297.611 215.799 297.333 215.96C297.054 216.121 296.776 216.202 296.498 216.202C296.249 216.202 296.058 216.114 295.926 215.938C295.794 215.748 295.729 215.521 295.729 215.257C295.729 215.022 295.772 214.744 295.86 214.422C295.948 214.1 296.08 213.799 296.256 213.521C296.432 213.228 296.644 212.979 296.893 212.774C297.142 212.569 297.428 212.466 297.75 212.466C298.058 212.466 298.321 212.583 298.541 212.818C298.761 213.052 298.871 213.309 298.871 213.587ZM294.762 218.465C294.571 218.846 294.3 219.351 293.949 219.981C293.612 220.596 293.246 221.277 292.85 222.024C292.455 222.757 292.052 223.533 291.642 224.354C291.231 225.159 290.858 225.95 290.521 226.727C290.199 227.488 289.935 228.206 289.73 228.88C289.525 229.554 289.422 230.125 289.422 230.594C289.422 231.019 289.51 231.312 289.686 231.473C289.862 231.619 290.111 231.692 290.433 231.692C291.034 231.692 291.62 231.495 292.191 231.099C292.762 230.704 293.326 230.191 293.883 229.561C294.454 228.917 295.011 228.184 295.553 227.364C296.095 226.543 296.637 225.716 297.179 224.881L297.97 225.496C297.545 226.258 297.062 227.071 296.52 227.935C295.992 228.799 295.399 229.605 294.74 230.352C294.081 231.084 293.355 231.692 292.564 232.176C291.773 232.659 290.909 232.901 289.972 232.901C289.093 232.901 288.419 232.637 287.95 232.11C287.481 231.583 287.247 230.901 287.247 230.066C287.247 229.085 287.474 228.06 287.928 226.99C288.382 225.921 288.946 224.866 289.62 223.826C290.309 222.771 291.048 221.761 291.839 220.794C292.645 219.827 293.385 218.948 294.059 218.157L294.762 218.465ZM298.849 228.067C298.819 228.243 298.797 228.418 298.783 228.594C298.768 228.77 298.761 228.946 298.761 229.122C298.761 229.649 298.834 230.154 298.98 230.638C299.142 231.106 299.369 231.524 299.662 231.89C299.969 232.242 300.343 232.52 300.782 232.725C301.236 232.93 301.749 233.033 302.32 233.033C304.239 233.033 306.092 232.381 307.879 231.077C309.667 229.773 311.446 227.708 313.219 224.881L313.966 225.54C312.999 227.151 312.018 228.514 311.021 229.627C310.025 230.726 309.029 231.619 308.033 232.308C307.052 232.996 306.085 233.494 305.133 233.802C304.181 234.109 303.272 234.263 302.408 234.263C301.778 234.263 301.112 234.175 300.409 234C299.706 233.824 299.054 233.531 298.453 233.121C297.867 232.71 297.384 232.161 297.003 231.473C296.607 230.784 296.41 229.927 296.41 228.902C296.41 227.803 296.6 226.749 296.981 225.738C297.347 224.712 297.831 223.76 298.431 222.881C299.032 222.002 299.72 221.204 300.497 220.486C301.273 219.754 302.057 219.131 302.848 218.619C303.653 218.106 304.437 217.71 305.199 217.432C305.96 217.139 306.634 216.993 307.22 216.993C307.601 216.993 307.989 217.051 308.385 217.168C308.78 217.286 309.132 217.469 309.439 217.718C309.762 217.967 310.018 218.296 310.208 218.707C310.414 219.117 310.516 219.607 310.516 220.179C310.516 220.955 310.333 221.688 309.967 222.376C309.615 223.05 309.139 223.68 308.539 224.266C307.938 224.837 307.242 225.357 306.451 225.826C305.66 226.28 304.833 226.668 303.968 226.99C303.104 227.312 302.232 227.569 301.354 227.759C300.475 227.95 299.64 228.052 298.849 228.067ZM299.024 227.122C300.006 227.02 300.929 226.814 301.793 226.507C302.657 226.199 303.448 225.826 304.166 225.386C304.884 224.932 305.521 224.441 306.078 223.914C306.649 223.387 307.125 222.852 307.506 222.31C307.887 221.768 308.18 221.248 308.385 220.75C308.59 220.252 308.692 219.805 308.692 219.41C308.692 219.014 308.583 218.699 308.363 218.465C308.158 218.23 307.909 218.113 307.616 218.113C306.971 218.113 306.246 218.348 305.44 218.816C304.635 219.271 303.829 219.908 303.023 220.728C302.218 221.534 301.456 222.486 300.738 223.584C300.035 224.683 299.464 225.862 299.024 227.122ZM320.272 215.828C320.199 215.96 320.104 216.106 319.986 216.268C319.869 216.414 319.752 216.59 319.635 216.795C319.532 216.985 319.437 217.212 319.349 217.476C319.276 217.74 319.239 218.055 319.239 218.421C319.239 218.729 319.312 219.146 319.459 219.673C319.62 220.201 319.789 220.809 319.964 221.497C320.14 222.171 320.301 222.911 320.448 223.716C320.609 224.507 320.689 225.328 320.689 226.177C320.689 227.422 320.521 228.521 320.184 229.473C319.847 230.425 319.4 231.238 318.844 231.912C319.986 231.297 321.107 230.418 322.206 229.275C323.304 228.118 324.41 226.653 325.523 224.881L326.271 225.54C325.641 226.58 324.923 227.613 324.117 228.638C323.326 229.649 322.455 230.564 321.502 231.385C320.55 232.19 319.525 232.842 318.426 233.34C317.328 233.853 316.163 234.109 314.933 234.109C313.834 234.109 312.911 233.846 312.164 233.318C311.402 232.806 310.934 232.029 310.758 230.989L311.549 230.835C311.549 230.923 311.593 231.07 311.681 231.275C311.754 231.465 311.878 231.656 312.054 231.846C312.23 232.037 312.472 232.205 312.779 232.352C313.072 232.498 313.438 232.571 313.878 232.571C314.464 232.571 314.984 232.439 315.438 232.176C315.892 231.897 316.288 231.539 316.625 231.099C316.961 230.66 317.247 230.162 317.481 229.605C317.716 229.034 317.899 228.448 318.031 227.847C318.177 227.247 318.28 226.661 318.338 226.089C318.397 225.518 318.426 224.998 318.426 224.529C318.426 224.061 318.404 223.541 318.36 222.969C318.331 222.398 318.294 221.856 318.25 221.343C318.207 220.816 318.163 220.362 318.119 219.981C318.089 219.585 318.075 219.329 318.075 219.212V219.168C317.884 219.373 317.657 219.673 317.394 220.069C317.13 220.464 316.844 220.896 316.537 221.365C316.244 221.834 315.943 222.31 315.636 222.793C315.343 223.277 315.072 223.716 314.823 224.112C314.588 224.507 314.391 224.837 314.229 225.101C314.083 225.35 314.01 225.481 314.01 225.496L313.219 224.881C313.233 224.866 313.417 224.551 313.768 223.936C314.12 223.321 314.581 222.544 315.152 221.607C315.738 220.655 316.397 219.607 317.13 218.465C317.862 217.308 318.617 216.187 319.393 215.103L320.272 215.828Z" fill="black"/>
<path d="M97.3441 252.947C97.3441 253.758 97.0069 254.428 96.3324 254.957C95.1065 255.914 94.473 256.417 94.432 256.467C93.6938 257.219 93.1697 257.971 92.8598 258.723L92.7982 258.846H97.474L96.9955 259.94H91.1303L91.6498 258.6C92.3425 257.073 93.2904 255.877 94.4936 255.011C95.0906 254.569 95.4893 254.278 95.6898 254.136C96.0681 253.872 96.2572 253.453 96.2572 252.878C96.2572 252.847 96.2572 252.812 96.2572 252.776C96.2436 252.22 96.0499 251.753 95.6762 251.375C95.2934 250.987 94.824 250.793 94.268 250.793C93.7257 250.793 93.2585 250.987 92.8666 251.375C92.4747 251.762 92.2787 252.215 92.2787 252.735C92.2787 252.744 92.2787 252.755 92.2787 252.769L92.2855 252.837L91.1918 253.316L91.185 252.79C91.185 251.969 91.4857 251.254 92.0873 250.643C92.6798 250.046 93.4066 249.748 94.268 249.748C95.1293 249.748 95.8562 250.044 96.4486 250.636C97.0456 251.224 97.3441 251.994 97.3441 252.947ZM100.274 252.769V257.055C100.274 257.201 100.288 257.34 100.315 257.472L103.432 251.176C103.091 250.921 102.701 250.793 102.263 250.793C101.712 250.793 101.243 250.987 100.855 251.375C100.468 251.757 100.274 252.222 100.274 252.769ZM105.346 252.79V257.035C105.346 257.873 105.046 258.591 104.444 259.188C103.843 259.78 103.116 260.077 102.263 260.077C101.407 260.077 100.68 259.78 100.083 259.188C99.4813 258.591 99.1805 257.873 99.1805 257.035V252.79C99.1805 251.951 99.4813 251.236 100.083 250.643C100.684 250.046 101.411 249.748 102.263 249.748C103.116 249.748 103.843 250.046 104.444 250.643C105.046 251.236 105.346 251.951 105.346 252.79ZM104.164 252.167L100.992 258.573C101.352 258.878 101.776 259.031 102.263 259.031C102.806 259.031 103.273 258.837 103.665 258.45C104.052 258.067 104.248 257.602 104.253 257.055V252.769C104.253 252.555 104.223 252.354 104.164 252.167ZM113.267 252.947C113.267 253.758 112.93 254.428 112.255 254.957C111.029 255.914 110.396 256.417 110.355 256.467C109.616 257.219 109.092 257.971 108.782 258.723L108.721 258.846H113.397L112.918 259.94H107.053L107.572 258.6C108.265 257.073 109.213 255.877 110.416 255.011C111.013 254.569 111.412 254.278 111.612 254.136C111.991 253.872 112.18 253.453 112.18 252.878C112.18 252.847 112.18 252.812 112.18 252.776C112.166 252.22 111.973 251.753 111.599 251.375C111.216 250.987 110.747 250.793 110.191 250.793C109.648 250.793 109.181 250.987 108.789 251.375C108.397 251.762 108.201 252.215 108.201 252.735C108.201 252.744 108.201 252.755 108.201 252.769L108.208 252.837L107.114 253.316L107.108 252.79C107.108 251.969 107.408 251.254 108.01 250.643C108.602 250.046 109.329 249.748 110.191 249.748C111.052 249.748 111.779 250.044 112.371 250.636C112.968 251.224 113.267 251.994 113.267 252.947ZM117.687 251.716L116.074 253.254L115.431 252.386L117.687 250.226L118.781 249.748V259.598L117.687 260.077V251.716Z" fill="black"/>
<path d="M135.916 249.621V248.907H141.544V249.621H139.108V258.077H138.338V249.621H135.916ZM145.296 257.475C145.641 257.475 146.015 257.367 146.416 257.153C146.827 256.929 147.125 256.723 147.312 256.537V254.871C146.696 254.824 146.108 254.801 145.548 254.801C144.988 254.801 144.568 254.922 144.288 255.165C144.008 255.398 143.868 255.715 143.868 256.117C143.868 257.022 144.344 257.475 145.296 257.475ZM145.282 258.203C144.601 258.203 144.064 258.03 143.672 257.685C143.28 257.33 143.084 256.831 143.084 256.187C143.084 255.543 143.299 255.043 143.728 254.689C144.157 254.325 144.727 254.143 145.436 254.143C146.145 254.143 146.771 254.171 147.312 254.227C147.312 253.396 147.209 252.831 147.004 252.533C146.799 252.225 146.383 252.071 145.758 252.071C145.133 252.071 144.395 252.22 143.546 252.519L143.336 251.819C144.204 251.501 144.988 251.343 145.688 251.343C146.612 251.343 147.237 251.548 147.564 251.959C147.891 252.369 148.054 253.088 148.054 254.115V257.055L148.166 258.119L147.452 258.189L147.312 257.349C147.097 257.535 146.794 257.727 146.402 257.923C146.01 258.109 145.637 258.203 145.282 258.203ZM150.322 260.765V252.631L150.196 251.413L150.896 251.329L151.022 252.085C151.703 251.59 152.352 251.343 152.968 251.343C153.799 251.343 154.443 251.646 154.9 252.253C155.357 252.859 155.586 253.695 155.586 254.759C155.586 255.823 155.334 256.663 154.83 257.279C154.326 257.895 153.626 258.203 152.73 258.203C152.207 258.203 151.652 258.077 151.064 257.825V260.765H150.322ZM154.788 254.787C154.788 253.956 154.629 253.298 154.312 252.813C153.995 252.318 153.537 252.071 152.94 252.071C152.352 252.071 151.727 252.337 151.064 252.869V257.069C151.26 257.162 151.526 257.255 151.862 257.349C152.207 257.433 152.487 257.475 152.702 257.475C153.365 257.475 153.878 257.232 154.242 256.747C154.606 256.261 154.788 255.608 154.788 254.787ZM157.322 260.765V252.631L157.196 251.413L157.896 251.329L158.022 252.085C158.703 251.59 159.352 251.343 159.968 251.343C160.799 251.343 161.443 251.646 161.9 252.253C162.357 252.859 162.586 253.695 162.586 254.759C162.586 255.823 162.334 256.663 161.83 257.279C161.326 257.895 160.626 258.203 159.73 258.203C159.207 258.203 158.652 258.077 158.064 257.825V260.765H157.322ZM161.788 254.787C161.788 253.956 161.629 253.298 161.312 252.813C160.995 252.318 160.537 252.071 159.94 252.071C159.352 252.071 158.727 252.337 158.064 252.869V257.069C158.26 257.162 158.526 257.255 158.862 257.349C159.207 257.433 159.487 257.475 159.702 257.475C160.365 257.475 160.878 257.232 161.242 256.747C161.606 256.261 161.788 255.608 161.788 254.787ZM166.296 257.475C166.641 257.475 167.015 257.367 167.416 257.153C167.827 256.929 168.125 256.723 168.312 256.537V254.871C167.696 254.824 167.108 254.801 166.548 254.801C165.988 254.801 165.568 254.922 165.288 255.165C165.008 255.398 164.868 255.715 164.868 256.117C164.868 257.022 165.344 257.475 166.296 257.475ZM166.282 258.203C165.601 258.203 165.064 258.03 164.672 257.685C164.28 257.33 164.084 256.831 164.084 256.187C164.084 255.543 164.299 255.043 164.728 254.689C165.157 254.325 165.727 254.143 166.436 254.143C167.145 254.143 167.771 254.171 168.312 254.227C168.312 253.396 168.209 252.831 168.004 252.533C167.799 252.225 167.383 252.071 166.758 252.071C166.133 252.071 165.395 252.22 164.546 252.519L164.336 251.819C165.204 251.501 165.988 251.343 166.688 251.343C167.612 251.343 168.237 251.548 168.564 251.959C168.891 252.369 169.054 253.088 169.054 254.115V257.055L169.166 258.119L168.452 258.189L168.312 257.349C168.097 257.535 167.794 257.727 167.402 257.923C167.01 258.109 166.637 258.203 166.282 258.203ZM171.322 258.077V248.781H172.064V252.071C172.764 251.585 173.399 251.343 173.968 251.343C174.808 251.343 175.457 251.632 175.914 252.211C176.371 252.78 176.6 253.597 176.6 254.661C176.6 255.725 176.343 256.583 175.83 257.237C175.317 257.881 174.617 258.203 173.73 258.203C173.189 258.203 172.629 258.067 172.05 257.797L172.022 258.077H171.322ZM175.802 254.675C175.802 253.853 175.639 253.214 175.312 252.757C174.995 252.299 174.533 252.071 173.926 252.071C173.319 252.071 172.699 252.337 172.064 252.869V257.069C172.26 257.162 172.526 257.255 172.862 257.349C173.207 257.433 173.487 257.475 173.702 257.475C174.355 257.475 174.869 257.213 175.242 256.691C175.615 256.168 175.802 255.496 175.802 254.675ZM178.574 258.077V257.377H180.716V249.453L178.63 249.467L178.616 248.781L181.458 248.767V257.377H183.67V258.077H178.574ZM185.182 254.759C185.182 253.685 185.401 252.85 185.84 252.253C186.288 251.646 186.937 251.343 187.786 251.343C188.635 251.343 189.265 251.623 189.676 252.183C190.096 252.743 190.306 253.489 190.306 254.423L190.264 255.123H185.98C186.027 255.823 186.213 256.392 186.54 256.831C186.867 257.26 187.315 257.475 187.884 257.475C188.463 257.475 189.139 257.339 189.914 257.069L190.124 257.769C189.368 258.058 188.659 258.203 187.996 258.203C187.081 258.203 186.381 257.899 185.896 257.293C185.42 256.677 185.182 255.832 185.182 254.759ZM187.842 252.057C186.666 252.057 186.045 252.845 185.98 254.423H189.508C189.508 252.845 188.953 252.057 187.842 252.057ZM193.666 258.077V256.509H194.996V257.657C194.996 258.497 194.637 259.304 193.918 260.079L193.54 259.743C193.96 259.127 194.189 258.571 194.226 258.077H193.666ZM206.434 251.427L206.476 251.847C206.943 251.511 207.302 251.343 207.554 251.343C208.17 251.343 208.595 251.543 208.828 251.945C209.351 251.543 209.808 251.343 210.2 251.343C210.807 251.343 211.222 251.529 211.446 251.903C211.67 252.276 211.782 252.85 211.782 253.625V258.077H211.04V253.625C211.04 253.093 210.984 252.701 210.872 252.449C210.76 252.187 210.545 252.057 210.228 252.057C209.911 252.057 209.519 252.206 209.052 252.505C209.108 252.822 209.136 253.195 209.136 253.625V255.949H208.394V253.625C208.394 253.093 208.338 252.701 208.226 252.449C208.105 252.187 207.885 252.057 207.568 252.057C207.251 252.057 206.887 252.206 206.476 252.505V258.077H205.734V251.427H206.434ZM213.07 254.773C213.07 252.486 213.961 251.343 215.744 251.343C217.527 251.343 218.418 252.486 218.418 254.773C218.418 257.059 217.527 258.203 215.744 258.203C213.961 258.203 213.07 257.059 213.07 254.773ZM215.744 252.071C214.493 252.071 213.868 252.971 213.868 254.773C213.868 256.574 214.493 257.475 215.744 257.475C216.995 257.475 217.62 256.574 217.62 254.773C217.62 252.971 216.995 252.071 215.744 252.071ZM220.322 258.077V248.781H221.064V252.071C221.764 251.585 222.399 251.343 222.968 251.343C223.808 251.343 224.457 251.632 224.914 252.211C225.371 252.78 225.6 253.597 225.6 254.661C225.6 255.725 225.343 256.583 224.83 257.237C224.317 257.881 223.617 258.203 222.73 258.203C222.189 258.203 221.629 258.067 221.05 257.797L221.022 258.077H220.322ZM224.802 254.675C224.802 253.853 224.639 253.214 224.312 252.757C223.995 252.299 223.533 252.071 222.926 252.071C222.319 252.071 221.699 252.337 221.064 252.869V257.069C221.26 257.162 221.526 257.255 221.862 257.349C222.207 257.433 222.487 257.475 222.702 257.475C223.355 257.475 223.869 257.213 224.242 256.691C224.615 256.168 224.802 255.496 224.802 254.675ZM227.406 258.077V257.377H229.45V252.127H227.406V251.427H230.192V257.377H232.236V258.077H227.406ZM229.156 249.453C229.156 249.266 229.207 249.121 229.31 249.019C229.422 248.916 229.571 248.865 229.758 248.865C230.141 248.865 230.332 249.07 230.332 249.481C230.332 249.891 230.141 250.092 229.758 250.083C229.357 250.083 229.156 249.873 229.156 249.453ZM234.574 258.077V257.377H236.716V249.453L234.63 249.467L234.616 248.781L237.458 248.767V257.377H239.67V258.077H234.574ZM241.182 254.759C241.182 253.685 241.401 252.85 241.84 252.253C242.288 251.646 242.937 251.343 243.786 251.343C244.635 251.343 245.265 251.623 245.676 252.183C246.096 252.743 246.306 253.489 246.306 254.423L246.264 255.123H241.98C242.027 255.823 242.213 256.392 242.54 256.831C242.867 257.26 243.315 257.475 243.884 257.475C244.463 257.475 245.139 257.339 245.914 257.069L246.124 257.769C245.368 258.058 244.659 258.203 243.996 258.203C243.081 258.203 242.381 257.899 241.896 257.293C241.42 256.677 241.182 255.832 241.182 254.759ZM243.842 252.057C242.666 252.057 242.045 252.845 241.98 254.423H245.508C245.508 252.845 244.953 252.057 243.842 252.057ZM248.784 255.095V254.339H252.802V255.095H248.784ZM255.21 258.077V257.377H256.764V252.127H255.266V251.427H256.764C256.764 249.579 257.45 248.655 258.822 248.655C259.27 248.655 259.858 248.762 260.586 248.977L260.418 249.677C259.699 249.471 259.177 249.369 258.85 249.369C258.374 249.369 258.029 249.537 257.814 249.873C257.609 250.199 257.506 250.717 257.506 251.427H260.32V252.127H257.506V257.377H260.348V258.077H255.21ZM262.406 258.077V257.377H264.45V252.127H262.406V251.427H265.192V257.377H267.236V258.077H262.406ZM264.156 249.453C264.156 249.266 264.207 249.121 264.31 249.019C264.422 248.916 264.571 248.865 264.758 248.865C265.141 248.865 265.332 249.07 265.332 249.481C265.332 249.891 265.141 250.092 264.758 250.083C264.357 250.083 264.156 249.873 264.156 249.453ZM269.378 258.077V257.377H270.974V252.127H269.378V251.427H271.716L271.744 252.239C272.043 252.052 272.463 251.865 273.004 251.679C273.545 251.492 274.021 251.38 274.432 251.343H274.586V252.169H274.432C274.049 252.197 273.573 252.29 273.004 252.449C272.444 252.607 272.024 252.771 271.744 252.939V257.377H273.984V258.077H269.378ZM276.336 257.755L276.518 257.027C277.442 257.335 278.156 257.489 278.66 257.489C279.164 257.489 279.551 257.381 279.822 257.167C280.102 256.943 280.242 256.649 280.242 256.285C280.242 255.921 280.13 255.655 279.906 255.487C279.691 255.309 279.239 255.141 278.548 254.983C277.857 254.824 277.339 254.595 276.994 254.297C276.649 254.017 276.476 253.597 276.476 253.037C276.476 252.477 276.686 252.052 277.106 251.763C277.535 251.464 278.086 251.315 278.758 251.315C279.43 251.315 280.158 251.464 280.942 251.763L280.746 252.421C279.953 252.159 279.313 252.029 278.828 252.029C278.343 252.029 277.96 252.113 277.68 252.281C277.4 252.467 277.26 252.719 277.26 253.037C277.26 253.354 277.381 253.601 277.624 253.779C277.876 253.956 278.357 254.133 279.066 254.311C279.775 254.488 280.279 254.717 280.578 254.997C280.877 255.267 281.026 255.697 281.026 256.285C281.026 256.873 280.825 257.339 280.424 257.685C280.032 258.03 279.472 258.203 278.744 258.203C278.016 258.203 277.213 258.053 276.336 257.755ZM283.028 252.309V251.609H284.386V249.915L285.128 249.775V251.609H288.334V252.309H285.128V255.501C285.128 256.21 285.231 256.723 285.436 257.041C285.651 257.349 286.029 257.503 286.57 257.503C286.775 257.503 287.093 257.47 287.522 257.405C287.951 257.33 288.245 257.265 288.404 257.209L288.572 257.895C288.395 257.96 288.068 258.03 287.592 258.105C287.125 258.179 286.785 258.217 286.57 258.217C285.73 258.217 285.156 257.997 284.848 257.559C284.54 257.111 284.386 256.434 284.386 255.529V252.309H283.028ZM141.026 265.427H141.754L140.956 272.077H139.472L138.758 269.179H138.702L137.974 272.077H136.504L135.734 265.427H136.462L137.19 271.405H137.442L138.38 268.031H139.108L140.046 271.405H140.298L141.026 265.427ZM143.182 268.759C143.182 267.685 143.401 266.85 143.84 266.253C144.288 265.646 144.937 265.343 145.786 265.343C146.635 265.343 147.265 265.623 147.676 266.183C148.096 266.743 148.306 267.489 148.306 268.423L148.264 269.123H143.98C144.027 269.823 144.213 270.392 144.54 270.831C144.867 271.26 145.315 271.475 145.884 271.475C146.463 271.475 147.139 271.339 147.914 271.069L148.124 271.769C147.368 272.058 146.659 272.203 145.996 272.203C145.081 272.203 144.381 271.899 143.896 271.293C143.42 270.677 143.182 269.832 143.182 268.759ZM145.842 266.057C144.666 266.057 144.045 266.845 143.98 268.423H147.508C147.508 266.845 146.953 266.057 145.842 266.057ZM150.322 272.077V262.781H151.064V266.071C151.764 265.585 152.399 265.343 152.968 265.343C153.808 265.343 154.457 265.632 154.914 266.211C155.371 266.78 155.6 267.597 155.6 268.661C155.6 269.725 155.343 270.583 154.83 271.237C154.317 271.881 153.617 272.203 152.73 272.203C152.189 272.203 151.629 272.067 151.05 271.797L151.022 272.077H150.322ZM154.802 268.675C154.802 267.853 154.639 267.214 154.312 266.757C153.995 266.299 153.533 266.071 152.926 266.071C152.319 266.071 151.699 266.337 151.064 266.869V271.069C151.26 271.162 151.526 271.255 151.862 271.349C152.207 271.433 152.487 271.475 152.702 271.475C153.355 271.475 153.869 271.213 154.242 270.691C154.615 270.168 154.802 269.496 154.802 268.675ZM164.182 268.759C164.182 267.685 164.401 266.85 164.84 266.253C165.288 265.646 165.937 265.343 166.786 265.343C167.635 265.343 168.265 265.623 168.676 266.183C169.096 266.743 169.306 267.489 169.306 268.423L169.264 269.123H164.98C165.027 269.823 165.213 270.392 165.54 270.831C165.867 271.26 166.315 271.475 166.884 271.475C167.463 271.475 168.139 271.339 168.914 271.069L169.124 271.769C168.368 272.058 167.659 272.203 166.996 272.203C166.081 272.203 165.381 271.899 164.896 271.293C164.42 270.677 164.182 269.832 164.182 268.759ZM166.842 266.057C165.666 266.057 165.045 266.845 164.98 268.423H168.508C168.508 266.845 167.953 266.057 166.842 266.057ZM171.084 265.427H172.05L173.744 268.171L175.424 265.427H176.362L174.262 268.703L176.488 272.077H175.536L173.744 269.235L171.966 272.077H171.014L173.268 268.703L171.084 265.427ZM178.322 274.765V266.631L178.196 265.413L178.896 265.329L179.022 266.085C179.703 265.59 180.352 265.343 180.968 265.343C181.799 265.343 182.443 265.646 182.9 266.253C183.357 266.859 183.586 267.695 183.586 268.759C183.586 269.823 183.334 270.663 182.83 271.279C182.326 271.895 181.626 272.203 180.73 272.203C180.207 272.203 179.652 272.077 179.064 271.825V274.765H178.322ZM182.788 268.787C182.788 267.956 182.629 267.298 182.312 266.813C181.995 266.318 181.537 266.071 180.94 266.071C180.352 266.071 179.727 266.337 179.064 266.869V271.069C179.26 271.162 179.526 271.255 179.862 271.349C180.207 271.433 180.487 271.475 180.702 271.475C181.365 271.475 181.878 271.232 182.242 270.747C182.606 270.261 182.788 269.608 182.788 268.787ZM185.182 268.759C185.182 267.685 185.401 266.85 185.84 266.253C186.288 265.646 186.937 265.343 187.786 265.343C188.635 265.343 189.265 265.623 189.676 266.183C190.096 266.743 190.306 267.489 190.306 268.423L190.264 269.123H185.98C186.027 269.823 186.213 270.392 186.54 270.831C186.867 271.26 187.315 271.475 187.884 271.475C188.463 271.475 189.139 271.339 189.914 271.069L190.124 271.769C189.368 272.058 188.659 272.203 187.996 272.203C187.081 272.203 186.381 271.899 185.896 271.293C185.42 270.677 185.182 269.832 185.182 268.759ZM187.842 266.057C186.666 266.057 186.045 266.845 185.98 268.423H189.508C189.508 266.845 188.953 266.057 187.842 266.057ZM192.378 272.077V271.377H193.974V266.127H192.378V265.427H194.716L194.744 266.239C195.043 266.052 195.463 265.865 196.004 265.679C196.545 265.492 197.021 265.38 197.432 265.343H197.586V266.169H197.432C197.049 266.197 196.573 266.29 196.004 266.449C195.444 266.607 195.024 266.771 194.744 266.939V271.377H196.984V272.077H192.378ZM199.406 272.077V271.377H201.45V266.127H199.406V265.427H202.192V271.377H204.236V272.077H199.406ZM201.156 263.453C201.156 263.266 201.207 263.121 201.31 263.019C201.422 262.916 201.571 262.865 201.758 262.865C202.141 262.865 202.332 263.07 202.332 263.481C202.332 263.891 202.141 264.092 201.758 264.083C201.357 264.083 201.156 263.873 201.156 263.453ZM206.182 268.759C206.182 267.685 206.401 266.85 206.84 266.253C207.288 265.646 207.937 265.343 208.786 265.343C209.635 265.343 210.265 265.623 210.676 266.183C211.096 266.743 211.306 267.489 211.306 268.423L211.264 269.123H206.98C207.027 269.823 207.213 270.392 207.54 270.831C207.867 271.26 208.315 271.475 208.884 271.475C209.463 271.475 210.139 271.339 210.914 271.069L211.124 271.769C210.368 272.058 209.659 272.203 208.996 272.203C208.081 272.203 207.381 271.899 206.896 271.293C206.42 270.677 206.182 269.832 206.182 268.759ZM208.842 266.057C207.666 266.057 207.045 266.845 206.98 268.423H210.508C210.508 266.845 209.953 266.057 208.842 266.057ZM214.022 265.427L214.05 265.987C214.955 265.557 215.707 265.343 216.304 265.343C216.901 265.343 217.368 265.548 217.704 265.959C218.049 266.369 218.222 266.929 218.222 267.639V272.077H217.48V267.639C217.48 267.181 217.368 266.803 217.144 266.505C216.92 266.215 216.584 266.071 216.136 266.071C215.688 266.071 214.993 266.276 214.05 266.687V272.077H213.308V265.427H214.022ZM224.956 265.651L224.788 266.379C224.209 266.173 223.673 266.071 223.178 266.071C222.506 266.071 222.002 266.309 221.666 266.785C221.339 267.251 221.176 267.905 221.176 268.745C221.176 269.585 221.344 270.252 221.68 270.747C222.016 271.232 222.515 271.475 223.178 271.475C223.626 271.475 224.186 271.353 224.858 271.111L225.082 271.811C224.401 272.072 223.771 272.203 223.192 272.203C222.277 272.203 221.577 271.899 221.092 271.293C220.607 270.677 220.364 269.823 220.364 268.731C220.364 267.639 220.602 266.803 221.078 266.225C221.554 265.637 222.254 265.343 223.178 265.343C223.766 265.343 224.359 265.445 224.956 265.651ZM227.182 268.759C227.182 267.685 227.401 266.85 227.84 266.253C228.288 265.646 228.937 265.343 229.786 265.343C230.635 265.343 231.265 265.623 231.676 266.183C232.096 266.743 232.306 267.489 232.306 268.423L232.264 269.123H227.98C228.027 269.823 228.213 270.392 228.54 270.831C228.867 271.26 229.315 271.475 229.884 271.475C230.463 271.475 231.139 271.339 231.914 271.069L232.124 271.769C231.368 272.058 230.659 272.203 229.996 272.203C229.081 272.203 228.381 271.899 227.896 271.293C227.42 270.677 227.182 269.832 227.182 268.759ZM229.842 266.057C228.666 266.057 228.045 266.845 227.98 268.423H231.508C231.508 266.845 230.953 266.057 229.842 266.057ZM234.336 271.755L234.518 271.027C235.442 271.335 236.156 271.489 236.66 271.489C237.164 271.489 237.551 271.381 237.822 271.167C238.102 270.943 238.242 270.649 238.242 270.285C238.242 269.921 238.13 269.655 237.906 269.487C237.691 269.309 237.239 269.141 236.548 268.983C235.857 268.824 235.339 268.595 234.994 268.297C234.649 268.017 234.476 267.597 234.476 267.037C234.476 266.477 234.686 266.052 235.106 265.763C235.535 265.464 236.086 265.315 236.758 265.315C237.43 265.315 238.158 265.464 238.942 265.763L238.746 266.421C237.953 266.159 237.313 266.029 236.828 266.029C236.343 266.029 235.96 266.113 235.68 266.281C235.4 266.467 235.26 266.719 235.26 267.037C235.26 267.354 235.381 267.601 235.624 267.779C235.876 267.956 236.357 268.133 237.066 268.311C237.775 268.488 238.279 268.717 238.578 268.997C238.877 269.267 239.026 269.697 239.026 270.285C239.026 270.873 238.825 271.339 238.424 271.685C238.032 272.03 237.472 272.203 236.744 272.203C236.016 272.203 235.213 272.053 234.336 271.755ZM248.21 272.077V271.377H249.764V266.127H248.266V265.427H249.764C249.764 263.579 250.45 262.655 251.822 262.655C252.27 262.655 252.858 262.762 253.586 262.977L253.418 263.677C252.699 263.471 252.177 263.369 251.85 263.369C251.374 263.369 251.029 263.537 250.814 263.873C250.609 264.199 250.506 264.717 250.506 265.427H253.32V266.127H250.506V271.377H253.348V272.077H248.21ZM255.07 268.773C255.07 266.486 255.961 265.343 257.744 265.343C259.527 265.343 260.418 266.486 260.418 268.773C260.418 271.059 259.527 272.203 257.744 272.203C255.961 272.203 255.07 271.059 255.07 268.773ZM257.744 266.071C256.493 266.071 255.868 266.971 255.868 268.773C255.868 270.574 256.493 271.475 257.744 271.475C258.995 271.475 259.62 270.574 259.62 268.773C259.62 266.971 258.995 266.071 257.744 266.071ZM262.378 272.077V271.377H263.974V266.127H262.378V265.427H264.716L264.744 266.239C265.043 266.052 265.463 265.865 266.004 265.679C266.545 265.492 267.021 265.38 267.432 265.343H267.586V266.169H267.432C267.049 266.197 266.573 266.29 266.004 266.449C265.444 266.607 265.024 266.771 264.744 266.939V271.377H266.984V272.077H262.378ZM276.028 266.309V265.609H277.386V263.915L278.128 263.775V265.609H281.334V266.309H278.128V269.501C278.128 270.21 278.231 270.723 278.436 271.041C278.651 271.349 279.029 271.503 279.57 271.503C279.775 271.503 280.093 271.47 280.522 271.405C280.951 271.33 281.245 271.265 281.404 271.209L281.572 271.895C281.395 271.96 281.068 272.03 280.592 272.105C280.125 272.179 279.785 272.217 279.57 272.217C278.73 272.217 278.156 271.997 277.848 271.559C277.54 271.111 277.386 270.434 277.386 269.529V266.309H276.028ZM284.078 266.645V272.077H283.336V262.781H284.078V265.931C284.955 265.539 285.679 265.343 286.248 265.343C287.583 265.343 288.25 266.108 288.25 267.639V272.077H287.508V267.639C287.508 267.163 287.405 266.785 287.2 266.505C286.995 266.215 286.64 266.071 286.136 266.071C285.632 266.071 284.946 266.262 284.078 266.645ZM290.182 268.759C290.182 267.685 290.401 266.85 290.84 266.253C291.288 265.646 291.937 265.343 292.786 265.343C293.635 265.343 294.265 265.623 294.676 266.183C295.096 266.743 295.306 267.489 295.306 268.423L295.264 269.123H290.98C291.027 269.823 291.213 270.392 291.54 270.831C291.867 271.26 292.315 271.475 292.884 271.475C293.463 271.475 294.139 271.339 294.914 271.069L295.124 271.769C294.368 272.058 293.659 272.203 292.996 272.203C292.081 272.203 291.381 271.899 290.896 271.293C290.42 270.677 290.182 269.832 290.182 268.759ZM292.842 266.057C291.666 266.057 291.045 266.845 290.98 268.423H294.508C294.508 266.845 293.953 266.057 292.842 266.057ZM135.916 277.621V276.907H141.544V277.621H139.108V286.077H138.338V277.621H135.916ZM144.078 280.645V286.077H143.336V276.781H144.078V279.931C144.955 279.539 145.679 279.343 146.248 279.343C147.583 279.343 148.25 280.108 148.25 281.639V286.077H147.508V281.639C147.508 281.163 147.405 280.785 147.2 280.505C146.995 280.215 146.64 280.071 146.136 280.071C145.632 280.071 144.946 280.262 144.078 280.645ZM150.406 286.077V285.377H152.45V280.127H150.406V279.427H153.192V285.377H155.236V286.077H150.406ZM152.156 277.453C152.156 277.266 152.207 277.121 152.31 277.019C152.422 276.916 152.571 276.865 152.758 276.865C153.141 276.865 153.332 277.07 153.332 277.481C153.332 277.891 153.141 278.092 152.758 278.083C152.357 278.083 152.156 277.873 152.156 277.453ZM158.022 279.427L158.05 279.987C158.955 279.557 159.707 279.343 160.304 279.343C160.901 279.343 161.368 279.548 161.704 279.959C162.049 280.369 162.222 280.929 162.222 281.639V286.077H161.48V281.639C161.48 281.181 161.368 280.803 161.144 280.505C160.92 280.215 160.584 280.071 160.136 280.071C159.688 280.071 158.993 280.276 158.05 280.687V286.077H157.308V279.427H158.022ZM164.602 286.077V276.767H165.344V282.437L166.534 282.297C167.113 281.587 167.677 280.775 168.228 279.861L168.494 279.427H169.334C168.606 280.705 167.897 281.76 167.206 282.591C167.859 283.421 168.503 284.401 169.138 285.531L169.446 286.077H168.578C167.943 284.882 167.29 283.851 166.618 282.983L165.344 283.109V286.077H164.602ZM178.294 286.077L177.272 276.907H178.07L179.008 285.377H179.162L180.394 280.953H181.136L182.312 285.377H182.48L183.418 276.907H184.216L183.194 286.077H181.78L180.772 282.129H180.73L179.68 286.077H178.294ZM185.406 286.077V285.377H187.45V280.127H185.406V279.427H188.192V285.377H190.236V286.077H185.406ZM187.156 277.453C187.156 277.266 187.207 277.121 187.31 277.019C187.422 276.916 187.571 276.865 187.758 276.865C188.141 276.865 188.332 277.07 188.332 277.481C188.332 277.891 188.141 278.092 187.758 278.083C187.357 278.083 187.156 277.873 187.156 277.453ZM192.028 280.309V279.609H193.386V277.915L194.128 277.775V279.609H197.334V280.309H194.128V283.501C194.128 284.21 194.231 284.723 194.436 285.041C194.651 285.349 195.029 285.503 195.57 285.503C195.775 285.503 196.093 285.47 196.522 285.405C196.951 285.33 197.245 285.265 197.404 285.209L197.572 285.895C197.395 285.96 197.068 286.03 196.592 286.105C196.125 286.179 195.785 286.217 195.57 286.217C194.73 286.217 194.156 285.997 193.848 285.559C193.54 285.111 193.386 284.434 193.386 283.529V280.309H192.028ZM200.078 280.645V286.077H199.336V276.781H200.078V279.931C200.955 279.539 201.679 279.343 202.248 279.343C203.583 279.343 204.25 280.108 204.25 281.639V286.077H203.508V281.639C203.508 281.163 203.405 280.785 203.2 280.505C202.995 280.215 202.64 280.071 202.136 280.071C201.632 280.071 200.946 280.262 200.078 280.645ZM215.968 286.217C214.885 286.217 214.083 285.843 213.56 285.097C213.037 284.35 212.776 283.151 212.776 281.499C212.776 279.837 213.033 278.633 213.546 277.887C214.059 277.14 214.895 276.767 216.052 276.767C216.808 276.767 217.601 276.916 218.432 277.215L218.236 277.929C217.387 277.639 216.659 277.495 216.052 277.495C215.175 277.495 214.545 277.807 214.162 278.433C213.789 279.049 213.602 280.061 213.602 281.471C213.602 282.871 213.798 283.893 214.19 284.537C214.582 285.171 215.175 285.489 215.968 285.489C216.444 285.489 217.018 285.377 217.69 285.153V282.353H216.108V281.667H218.46V285.699C217.499 286.044 216.668 286.217 215.968 286.217ZM220.07 282.773C220.07 280.486 220.961 279.343 222.744 279.343C224.527 279.343 225.418 280.486 225.418 282.773C225.418 285.059 224.527 286.203 222.744 286.203C220.961 286.203 220.07 285.059 220.07 282.773ZM222.744 280.071C221.493 280.071 220.868 280.971 220.868 282.773C220.868 284.574 221.493 285.475 222.744 285.475C223.995 285.475 224.62 284.574 224.62 282.773C224.62 280.971 223.995 280.071 222.744 280.071ZM227.07 282.773C227.07 280.486 227.961 279.343 229.744 279.343C231.527 279.343 232.418 280.486 232.418 282.773C232.418 285.059 231.527 286.203 229.744 286.203C227.961 286.203 227.07 285.059 227.07 282.773ZM229.744 280.071C228.493 280.071 227.868 280.971 227.868 282.773C227.868 284.574 228.493 285.475 229.744 285.475C230.995 285.475 231.62 284.574 231.62 282.773C231.62 280.971 230.995 280.071 229.744 280.071ZM236.59 286.077C235.75 286.077 235.106 285.787 234.658 285.209C234.21 284.63 233.986 283.813 233.986 282.759C233.986 281.695 234.233 280.859 234.728 280.253C235.232 279.646 235.932 279.343 236.828 279.343C237.323 279.343 237.878 279.506 238.494 279.833L238.522 279.427H239.236V284.467C239.376 285.577 239.446 286.221 239.446 286.399C239.446 287.22 239.171 287.836 238.62 288.247C238.069 288.667 237.421 288.877 236.674 288.877C235.937 288.877 235.097 288.69 234.154 288.317L234.406 287.617C235.33 287.971 236.067 288.149 236.618 288.149C237.178 288.149 237.663 288.004 238.074 287.715C238.494 287.425 238.704 286.991 238.704 286.413L238.578 285.307C237.841 285.82 237.178 286.077 236.59 286.077ZM236.856 280.043C236.193 280.043 235.675 280.29 235.302 280.785C234.929 281.27 234.742 281.923 234.742 282.745C234.742 283.557 234.905 284.201 235.232 284.677C235.559 285.143 236.016 285.377 236.604 285.377C237.192 285.377 237.822 285.097 238.494 284.537V280.617C237.887 280.234 237.341 280.043 236.856 280.043ZM241.574 286.077V285.377H243.716V277.453L241.63 277.467L241.616 276.781L244.458 276.767V285.377H246.67V286.077H241.574ZM248.182 282.759C248.182 281.685 248.401 280.85 248.84 280.253C249.288 279.646 249.937 279.343 250.786 279.343C251.635 279.343 252.265 279.623 252.676 280.183C253.096 280.743 253.306 281.489 253.306 282.423L253.264 283.123H248.98C249.027 283.823 249.213 284.392 249.54 284.831C249.867 285.26 250.315 285.475 250.884 285.475C251.463 285.475 252.139 285.339 252.914 285.069L253.124 285.769C252.368 286.058 251.659 286.203 250.996 286.203C250.081 286.203 249.381 285.899 248.896 285.293C248.42 284.677 248.182 283.832 248.182 282.759ZM250.842 280.057C249.666 280.057 249.045 280.845 248.98 282.423H252.508C252.508 280.845 251.953 280.057 250.842 280.057ZM262.322 288.765V280.631L262.196 279.413L262.896 279.329L263.022 280.085C263.703 279.59 264.352 279.343 264.968 279.343C265.799 279.343 266.443 279.646 266.9 280.253C267.357 280.859 267.586 281.695 267.586 282.759C267.586 283.823 267.334 284.663 266.83 285.279C266.326 285.895 265.626 286.203 264.73 286.203C264.207 286.203 263.652 286.077 263.064 285.825V288.765H262.322ZM266.788 282.787C266.788 281.956 266.629 281.298 266.312 280.813C265.995 280.318 265.537 280.071 264.94 280.071C264.352 280.071 263.727 280.337 263.064 280.869V285.069C263.26 285.162 263.526 285.255 263.862 285.349C264.207 285.433 264.487 285.475 264.702 285.475C265.365 285.475 265.878 285.232 266.242 284.747C266.606 284.261 266.788 283.608 266.788 282.787ZM269.574 286.077V285.377H271.716V277.453L269.63 277.467L269.616 276.781L272.458 276.767V285.377H274.67V286.077H269.574ZM278.296 285.475C278.641 285.475 279.015 285.367 279.416 285.153C279.827 284.929 280.125 284.723 280.312 284.537V282.871C279.696 282.824 279.108 282.801 278.548 282.801C277.988 282.801 277.568 282.922 277.288 283.165C277.008 283.398 276.868 283.715 276.868 284.117C276.868 285.022 277.344 285.475 278.296 285.475ZM278.282 286.203C277.601 286.203 277.064 286.03 276.672 285.685C276.28 285.33 276.084 284.831 276.084 284.187C276.084 283.543 276.299 283.043 276.728 282.689C277.157 282.325 277.727 282.143 278.436 282.143C279.145 282.143 279.771 282.171 280.312 282.227C280.312 281.396 280.209 280.831 280.004 280.533C279.799 280.225 279.383 280.071 278.758 280.071C278.133 280.071 277.395 280.22 276.546 280.519L276.336 279.819C277.204 279.501 277.988 279.343 278.688 279.343C279.612 279.343 280.237 279.548 280.564 279.959C280.891 280.369 281.054 281.088 281.054 282.115V285.055L281.166 286.119L280.452 286.189L280.312 285.349C280.097 285.535 279.794 285.727 279.402 285.923C279.01 286.109 278.637 286.203 278.282 286.203ZM283.028 280.309V279.609H284.386V277.915L285.128 277.775V279.609H288.334V280.309H285.128V283.501C285.128 284.21 285.231 284.723 285.436 285.041C285.651 285.349 286.029 285.503 286.57 285.503C286.775 285.503 287.093 285.47 287.522 285.405C287.951 285.33 288.245 285.265 288.404 285.209L288.572 285.895C288.395 285.96 288.068 286.03 287.592 286.105C287.125 286.179 286.785 286.217 286.57 286.217C285.73 286.217 285.156 285.997 284.848 285.559C284.54 285.111 284.386 284.434 284.386 283.529V280.309H283.028ZM290.21 286.077V285.377H291.764V280.127H290.266V279.427H291.764C291.764 277.579 292.45 276.655 293.822 276.655C294.27 276.655 294.858 276.762 295.586 276.977L295.418 277.677C294.699 277.471 294.177 277.369 293.85 277.369C293.374 277.369 293.029 277.537 292.814 277.873C292.609 278.199 292.506 278.717 292.506 279.427H295.32V280.127H292.506V285.377H295.348V286.077H290.21ZM297.07 282.773C297.07 280.486 297.961 279.343 299.744 279.343C301.527 279.343 302.418 280.486 302.418 282.773C302.418 285.059 301.527 286.203 299.744 286.203C297.961 286.203 297.07 285.059 297.07 282.773ZM299.744 280.071C298.493 280.071 297.868 280.971 297.868 282.773C297.868 284.574 298.493 285.475 299.744 285.475C300.995 285.475 301.62 284.574 301.62 282.773C301.62 280.971 300.995 280.071 299.744 280.071ZM304.378 286.077V285.377H305.974V280.127H304.378V279.427H306.716L306.744 280.239C307.043 280.052 307.463 279.865 308.004 279.679C308.545 279.492 309.021 279.38 309.432 279.343H309.586V280.169H309.432C309.049 280.197 308.573 280.29 308.004 280.449C307.444 280.607 307.024 280.771 306.744 280.939V285.377H308.984V286.077H304.378ZM311.434 279.427L311.476 279.847C311.943 279.511 312.302 279.343 312.554 279.343C313.17 279.343 313.595 279.543 313.828 279.945C314.351 279.543 314.808 279.343 315.2 279.343C315.807 279.343 316.222 279.529 316.446 279.903C316.67 280.276 316.782 280.85 316.782 281.625V286.077H316.04V281.625C316.04 281.093 315.984 280.701 315.872 280.449C315.76 280.187 315.545 280.057 315.228 280.057C314.911 280.057 314.519 280.206 314.052 280.505C314.108 280.822 314.136 281.195 314.136 281.625V283.949H313.394V281.625C313.394 281.093 313.338 280.701 313.226 280.449C313.105 280.187 312.885 280.057 312.568 280.057C312.251 280.057 311.887 280.206 311.476 280.505V286.077H310.734V279.427H311.434Z" fill="black"/>
</svg>
