<svg width="256" height="142" viewBox="0 0 256 142" fill="none" xmlns="http://www.w3.org/2000/svg">
<rect x="0.5" y="0.500488" width="255" height="141" rx="5.5" fill="white"/>
<path d="M17.12 33.0005V21.4805H18.856L22.84 29.6405L26.824 21.4805H28.56V33.0005H26.76V25.6165L23.224 33.0005H22.456L18.928 25.6165V33.0005H17.12ZM30.9675 23.0485V21.2805H32.8955V23.0485H30.9675ZM30.9675 33.0005V24.3605H32.8955V33.0005H30.9675ZM38.6279 33.2405C37.5612 33.2405 36.6945 33.0005 36.0279 32.5205C35.3612 32.0405 34.9559 31.3658 34.8119 30.4965L36.7799 30.1925C36.8812 30.6192 37.1052 30.9552 37.4519 31.2005C37.7985 31.4458 38.2359 31.5685 38.7639 31.5685C39.2279 31.5685 39.5852 31.4778 39.8359 31.2965C40.0919 31.1098 40.2199 30.8565 40.2199 30.5365C40.2199 30.3392 40.1719 30.1818 40.0759 30.0645C39.9852 29.9418 39.7825 29.8245 39.4679 29.7125C39.1532 29.6005 38.6705 29.4592 38.0199 29.2885C37.2945 29.0965 36.7185 28.8912 36.2919 28.6725C35.8652 28.4485 35.5585 28.1845 35.3719 27.8805C35.1852 27.5765 35.0919 27.2085 35.0919 26.7765C35.0919 26.2378 35.2332 25.7685 35.5159 25.3685C35.7985 24.9685 36.1932 24.6618 36.6999 24.4485C37.2065 24.2298 37.8039 24.1205 38.4919 24.1205C39.1639 24.1205 39.7585 24.2245 40.2759 24.4325C40.7985 24.6405 41.2199 24.9365 41.5399 25.3205C41.8599 25.7045 42.0572 26.1552 42.1319 26.6725L40.1639 27.0245C40.1159 26.6565 39.9479 26.3658 39.6599 26.1525C39.3772 25.9392 38.9985 25.8192 38.5239 25.7925C38.0705 25.7658 37.7052 25.8352 37.4279 26.0005C37.1505 26.1605 37.0119 26.3872 37.0119 26.6805C37.0119 26.8458 37.0679 26.9872 37.1799 27.1045C37.2919 27.2218 37.5159 27.3392 37.8519 27.4565C38.1932 27.5738 38.6999 27.7178 39.3719 27.8885C40.0599 28.0645 40.6092 28.2672 41.0199 28.4965C41.4359 28.7205 41.7345 28.9898 41.9159 29.3045C42.1025 29.6192 42.1959 30.0005 42.1959 30.4485C42.1959 31.3178 41.8785 32.0005 41.2439 32.4965C40.6145 32.9925 39.7425 33.2405 38.6279 33.2405ZM47.2841 33.2405C46.2175 33.2405 45.3508 33.0005 44.6841 32.5205C44.0175 32.0405 43.6121 31.3658 43.4681 30.4965L45.4361 30.1925C45.5375 30.6192 45.7615 30.9552 46.1081 31.2005C46.4548 31.4458 46.8921 31.5685 47.4201 31.5685C47.8841 31.5685 48.2415 31.4778 48.4921 31.2965C48.7481 31.1098 48.8761 30.8565 48.8761 30.5365C48.8761 30.3392 48.8281 30.1818 48.7321 30.0645C48.6415 29.9418 48.4388 29.8245 48.1241 29.7125C47.8095 29.6005 47.3268 29.4592 46.6761 29.2885C45.9508 29.0965 45.3748 28.8912 44.9481 28.6725C44.5215 28.4485 44.2148 28.1845 44.0281 27.8805C43.8415 27.5765 43.7481 27.2085 43.7481 26.7765C43.7481 26.2378 43.8895 25.7685 44.1721 25.3685C44.4548 24.9685 44.8495 24.6618 45.3561 24.4485C45.8628 24.2298 46.4601 24.1205 47.1481 24.1205C47.8201 24.1205 48.4148 24.2245 48.9321 24.4325C49.4548 24.6405 49.8761 24.9365 50.1961 25.3205C50.5161 25.7045 50.7135 26.1552 50.7881 26.6725L48.8201 27.0245C48.7721 26.6565 48.6041 26.3658 48.3161 26.1525C48.0335 25.9392 47.6548 25.8192 47.1801 25.7925C46.7268 25.7658 46.3615 25.8352 46.0841 26.0005C45.8068 26.1605 45.6681 26.3872 45.6681 26.6805C45.6681 26.8458 45.7241 26.9872 45.8361 27.1045C45.9481 27.2218 46.1721 27.3392 46.5081 27.4565C46.8495 27.5738 47.3561 27.7178 48.0281 27.8885C48.7161 28.0645 49.2655 28.2672 49.6761 28.4965C50.0921 28.7205 50.3908 28.9898 50.5721 29.3045C50.7588 29.6192 50.8521 30.0005 50.8521 30.4485C50.8521 31.3178 50.5348 32.0005 49.9001 32.4965C49.2708 32.9925 48.3988 33.2405 47.2841 33.2405ZM52.7644 23.0485V21.2805H54.6924V23.0485H52.7644ZM52.7644 33.0005V24.3605H54.6924V33.0005H52.7644ZM60.9048 33.2405C60.0408 33.2405 59.2861 33.0458 58.6408 32.6565C57.9954 32.2672 57.4941 31.7312 57.1368 31.0485C56.7848 30.3605 56.6088 29.5712 56.6088 28.6805C56.6088 27.7738 56.7901 26.9792 57.1528 26.2965C57.5154 25.6138 58.0194 25.0805 58.6648 24.6965C59.3101 24.3125 60.0568 24.1205 60.9048 24.1205C61.7741 24.1205 62.5314 24.3152 63.1768 24.7045C63.8221 25.0938 64.3234 25.6325 64.6808 26.3205C65.0381 27.0032 65.2168 27.7898 65.2168 28.6805C65.2168 29.5765 65.0354 30.3685 64.6728 31.0565C64.3154 31.7392 63.8141 32.2752 63.1688 32.6645C62.5234 33.0485 61.7688 33.2405 60.9048 33.2405ZM60.9048 31.4325C61.6728 31.4325 62.2434 31.1765 62.6168 30.6645C62.9901 30.1525 63.1768 29.4912 63.1768 28.6805C63.1768 27.8432 62.9874 27.1765 62.6088 26.6805C62.2301 26.1792 61.6621 25.9285 60.9048 25.9285C60.3874 25.9285 59.9608 26.0458 59.6248 26.2805C59.2941 26.5098 59.0488 26.8325 58.8888 27.2485C58.7288 27.6592 58.6488 28.1365 58.6488 28.6805C58.6488 29.5178 58.8381 30.1872 59.2168 30.6885C59.6008 31.1845 60.1634 31.4325 60.9048 31.4325ZM72.9554 33.0005V28.8405C72.9554 28.5685 72.9367 28.2672 72.8994 27.9365C72.862 27.6058 72.774 27.2885 72.6354 26.9845C72.502 26.6752 72.2994 26.4218 72.0274 26.2245C71.7607 26.0272 71.398 25.9285 70.9394 25.9285C70.694 25.9285 70.4514 25.9685 70.2114 26.0485C69.9714 26.1285 69.7527 26.2672 69.5554 26.4645C69.3634 26.6565 69.2087 26.9232 69.0914 27.2645C68.974 27.6005 68.9154 28.0325 68.9154 28.5605L67.7714 28.0725C67.7714 27.3365 67.9127 26.6698 68.1954 26.0725C68.4834 25.4752 68.9047 25.0005 69.4594 24.6485C70.014 24.2912 70.6967 24.1125 71.5074 24.1125C72.1474 24.1125 72.6754 24.2192 73.0914 24.4325C73.5074 24.6458 73.838 24.9178 74.0834 25.2485C74.3287 25.5792 74.51 25.9312 74.6274 26.3045C74.7447 26.6778 74.8194 27.0325 74.8514 27.3685C74.8887 27.6992 74.9074 27.9685 74.9074 28.1765V33.0005H72.9554ZM66.9634 33.0005V24.3605H68.6834V27.0405H68.9154V33.0005H66.9634ZM79.3981 33.0005L83.0301 21.4805H85.8541L89.4861 33.0005H87.5021L84.2061 22.6645H84.6381L81.3821 33.0005H79.3981ZM81.4221 30.5045V28.7045H87.4701V30.5045H81.4221ZM94.2685 33.2405C93.2018 33.2405 92.3352 33.0005 91.6685 32.5205C91.0018 32.0405 90.5965 31.3658 90.4525 30.4965L92.4205 30.1925C92.5218 30.6192 92.7458 30.9552 93.0925 31.2005C93.4392 31.4458 93.8765 31.5685 94.4045 31.5685C94.8685 31.5685 95.2258 31.4778 95.4765 31.2965C95.7325 31.1098 95.8605 30.8565 95.8605 30.5365C95.8605 30.3392 95.8125 30.1818 95.7165 30.0645C95.6258 29.9418 95.4232 29.8245 95.1085 29.7125C94.7938 29.6005 94.3112 29.4592 93.6605 29.2885C92.9352 29.0965 92.3592 28.8912 91.9325 28.6725C91.5058 28.4485 91.1992 28.1845 91.0125 27.8805C90.8258 27.5765 90.7325 27.2085 90.7325 26.7765C90.7325 26.2378 90.8738 25.7685 91.1565 25.3685C91.4392 24.9685 91.8338 24.6618 92.3405 24.4485C92.8472 24.2298 93.4445 24.1205 94.1325 24.1205C94.8045 24.1205 95.3992 24.2245 95.9165 24.4325C96.4392 24.6405 96.8605 24.9365 97.1805 25.3205C97.5005 25.7045 97.6978 26.1552 97.7725 26.6725L95.8045 27.0245C95.7565 26.6565 95.5885 26.3658 95.3005 26.1525C95.0178 25.9392 94.6392 25.8192 94.1645 25.7925C93.7112 25.7658 93.3458 25.8352 93.0685 26.0005C92.7912 26.1605 92.6525 26.3872 92.6525 26.6805C92.6525 26.8458 92.7085 26.9872 92.8205 27.1045C92.9325 27.2218 93.1565 27.3392 93.4925 27.4565C93.8338 27.5738 94.3405 27.7178 95.0125 27.8885C95.7005 28.0645 96.2498 28.2672 96.6605 28.4965C97.0765 28.7205 97.3752 28.9898 97.5565 29.3045C97.7432 29.6192 97.8365 30.0005 97.8365 30.4485C97.8365 31.3178 97.5192 32.0005 96.8845 32.4965C96.2552 32.9925 95.3832 33.2405 94.2685 33.2405ZM102.925 33.2405C101.858 33.2405 100.991 33.0005 100.325 32.5205C99.6581 32.0405 99.2528 31.3658 99.1088 30.4965L101.077 30.1925C101.178 30.6192 101.402 30.9552 101.749 31.2005C102.095 31.4458 102.533 31.5685 103.061 31.5685C103.525 31.5685 103.882 31.4778 104.133 31.2965C104.389 31.1098 104.517 30.8565 104.517 30.5365C104.517 30.3392 104.469 30.1818 104.373 30.0645C104.282 29.9418 104.079 29.8245 103.765 29.7125C103.45 29.6005 102.967 29.4592 102.317 29.2885C101.591 29.0965 101.015 28.8912 100.589 28.6725C100.162 28.4485 99.8554 28.1845 99.6688 27.8805C99.4821 27.5765 99.3888 27.2085 99.3888 26.7765C99.3888 26.2378 99.5301 25.7685 99.8128 25.3685C100.095 24.9685 100.49 24.6618 100.997 24.4485C101.503 24.2298 102.101 24.1205 102.789 24.1205C103.461 24.1205 104.055 24.2245 104.573 24.4325C105.095 24.6405 105.517 24.9365 105.837 25.3205C106.157 25.7045 106.354 26.1552 106.429 26.6725L104.461 27.0245C104.413 26.6565 104.245 26.3658 103.957 26.1525C103.674 25.9392 103.295 25.8192 102.821 25.7925C102.367 25.7658 102.002 25.8352 101.725 26.0005C101.447 26.1605 101.309 26.3872 101.309 26.6805C101.309 26.8458 101.365 26.9872 101.477 27.1045C101.589 27.2218 101.813 27.3392 102.149 27.4565C102.49 27.5738 102.997 27.7178 103.669 27.8885C104.357 28.0645 104.906 28.2672 105.317 28.4965C105.733 28.7205 106.031 28.9898 106.213 29.3045C106.399 29.6192 106.493 30.0005 106.493 30.4485C106.493 31.3178 106.175 32.0005 105.541 32.4965C104.911 32.9925 104.039 33.2405 102.925 33.2405ZM111.485 33.2485C110.845 33.2485 110.317 33.1418 109.901 32.9285C109.485 32.7152 109.154 32.4432 108.909 32.1125C108.664 31.7818 108.482 31.4298 108.365 31.0565C108.248 30.6832 108.17 30.3312 108.133 30.0005C108.101 29.6645 108.085 29.3925 108.085 29.1845V24.3605H110.037V28.5205C110.037 28.7872 110.056 29.0885 110.093 29.4245C110.13 29.7552 110.216 30.0752 110.349 30.3845C110.488 30.6885 110.69 30.9392 110.957 31.1365C111.229 31.3338 111.594 31.4325 112.053 31.4325C112.298 31.4325 112.541 31.3925 112.781 31.3125C113.021 31.2325 113.237 31.0965 113.429 30.9045C113.626 30.7072 113.784 30.4378 113.901 30.0965C114.018 29.7552 114.077 29.3232 114.077 28.8005L115.221 29.2885C115.221 30.0245 115.077 30.6912 114.789 31.2885C114.506 31.8858 114.088 32.3632 113.533 32.7205C112.978 33.0725 112.296 33.2485 111.485 33.2485ZM114.309 33.0005V30.3205H114.077V24.3605H116.013V33.0005H114.309ZM118.261 33.0005V24.3605H119.965V26.4645L119.757 26.1925C119.863 25.9045 120.005 25.6432 120.181 25.4085C120.362 25.1685 120.578 24.9712 120.829 24.8165C121.042 24.6725 121.277 24.5605 121.533 24.4805C121.794 24.3952 122.061 24.3445 122.333 24.3285C122.605 24.3072 122.869 24.3178 123.125 24.3605V26.1605C122.869 26.0858 122.573 26.0618 122.237 26.0885C121.906 26.1152 121.607 26.2085 121.341 26.3685C121.074 26.5125 120.855 26.6965 120.685 26.9205C120.519 27.1445 120.397 27.4005 120.317 27.6885C120.237 27.9712 120.197 28.2778 120.197 28.6085V33.0005H118.261ZM126.864 33.2405C126.24 33.2405 125.712 33.1232 125.28 32.8885C124.848 32.6485 124.52 32.3312 124.296 31.9365C124.077 31.5418 123.968 31.1072 123.968 30.6325C123.968 30.2165 124.037 29.8432 124.176 29.5125C124.315 29.1765 124.528 28.8885 124.816 28.6485C125.104 28.4032 125.477 28.2032 125.936 28.0485C126.283 27.9365 126.688 27.8352 127.152 27.7445C127.621 27.6538 128.128 27.5712 128.672 27.4965C129.221 27.4165 129.795 27.3312 130.392 27.2405L129.704 27.6325C129.709 27.0352 129.576 26.5952 129.304 26.3125C129.032 26.0298 128.573 25.8885 127.928 25.8885C127.539 25.8885 127.163 25.9792 126.8 26.1605C126.437 26.3418 126.184 26.6538 126.04 27.0965L124.28 26.5445C124.493 25.8138 124.899 25.2272 125.496 24.7845C126.099 24.3418 126.909 24.1205 127.928 24.1205C128.696 24.1205 129.371 24.2458 129.952 24.4965C130.539 24.7472 130.973 25.1578 131.256 25.7285C131.411 26.0325 131.504 26.3445 131.536 26.6645C131.568 26.9792 131.584 27.3232 131.584 27.6965V33.0005H129.896V31.1285L130.176 31.4325C129.787 32.0565 129.331 32.5152 128.808 32.8085C128.291 33.0965 127.643 33.2405 126.864 33.2405ZM127.248 31.7045C127.685 31.7045 128.059 31.6272 128.368 31.4725C128.677 31.3178 128.923 31.1285 129.104 30.9045C129.291 30.6805 129.416 30.4698 129.48 30.2725C129.581 30.0272 129.637 29.7472 129.648 29.4325C129.664 29.1125 129.672 28.8538 129.672 28.6565L130.264 28.8325C129.683 28.9232 129.184 29.0032 128.768 29.0725C128.352 29.1418 127.995 29.2085 127.696 29.2725C127.397 29.3312 127.133 29.3978 126.904 29.4725C126.68 29.5525 126.491 29.6458 126.336 29.7525C126.181 29.8592 126.061 29.9818 125.976 30.1205C125.896 30.2592 125.856 30.4218 125.856 30.6085C125.856 30.8218 125.909 31.0112 126.016 31.1765C126.123 31.3365 126.277 31.4645 126.48 31.5605C126.688 31.6565 126.944 31.7045 127.248 31.7045ZM139.643 33.0005V28.8405C139.643 28.5685 139.624 28.2672 139.587 27.9365C139.55 27.6058 139.462 27.2885 139.323 26.9845C139.19 26.6752 138.987 26.4218 138.715 26.2245C138.448 26.0272 138.086 25.9285 137.627 25.9285C137.382 25.9285 137.139 25.9685 136.899 26.0485C136.659 26.1285 136.44 26.2672 136.243 26.4645C136.051 26.6565 135.896 26.9232 135.779 27.2645C135.662 27.6005 135.603 28.0325 135.603 28.5605L134.459 28.0725C134.459 27.3365 134.6 26.6698 134.883 26.0725C135.171 25.4752 135.592 25.0005 136.147 24.6485C136.702 24.2912 137.384 24.1125 138.195 24.1125C138.835 24.1125 139.363 24.2192 139.779 24.4325C140.195 24.6458 140.526 24.9178 140.771 25.2485C141.016 25.5792 141.198 25.9312 141.315 26.3045C141.432 26.6778 141.507 27.0325 141.539 27.3685C141.576 27.6992 141.595 27.9685 141.595 28.1765V33.0005H139.643ZM133.651 33.0005V24.3605H135.371V27.0405H135.603V33.0005H133.651ZM147.294 33.2405C146.403 33.2405 145.643 33.0432 145.014 32.6485C144.385 32.2485 143.902 31.7045 143.566 31.0165C143.235 30.3285 143.067 29.5498 143.062 28.6805C143.067 27.7952 143.241 27.0112 143.582 26.3285C143.929 25.6405 144.419 25.1018 145.054 24.7125C145.689 24.3178 146.443 24.1205 147.318 24.1205C148.299 24.1205 149.129 24.3685 149.806 24.8645C150.489 25.3552 150.934 26.0272 151.142 26.8805L149.222 27.4005C149.073 26.9365 148.825 26.5765 148.478 26.3205C148.131 26.0592 147.737 25.9285 147.294 25.9285C146.793 25.9285 146.379 26.0485 146.054 26.2885C145.729 26.5232 145.489 26.8485 145.334 27.2645C145.179 27.6805 145.102 28.1525 145.102 28.6805C145.102 29.5018 145.286 30.1658 145.654 30.6725C146.022 31.1792 146.569 31.4325 147.294 31.4325C147.806 31.4325 148.209 31.3152 148.502 31.0805C148.801 30.8458 149.025 30.5072 149.174 30.0645L151.142 30.5045C150.875 31.3845 150.409 32.0618 149.742 32.5365C149.075 33.0058 148.259 33.2405 147.294 33.2405ZM156.439 33.2405C155.564 33.2405 154.796 33.0512 154.135 32.6725C153.473 32.2938 152.956 31.7685 152.583 31.0965C152.215 30.4245 152.031 29.6512 152.031 28.7765C152.031 27.8325 152.212 27.0138 152.575 26.3205C152.937 25.6218 153.441 25.0805 154.087 24.6965C154.732 24.3125 155.479 24.1205 156.327 24.1205C157.223 24.1205 157.983 24.3312 158.607 24.7525C159.236 25.1685 159.703 25.7578 160.007 26.5205C160.311 27.2832 160.425 28.1818 160.351 29.2165H158.439V28.5125C158.433 27.5738 158.268 26.8885 157.943 26.4565C157.617 26.0245 157.105 25.8085 156.407 25.8085C155.617 25.8085 155.031 26.0538 154.647 26.5445C154.263 27.0298 154.071 27.7418 154.071 28.6805C154.071 29.5552 154.263 30.2325 154.647 30.7125C155.031 31.1925 155.591 31.4325 156.327 31.4325C156.801 31.4325 157.209 31.3285 157.551 31.1205C157.897 30.9072 158.164 30.6005 158.351 30.2005L160.255 30.7765C159.924 31.5552 159.412 32.1605 158.719 32.5925C158.031 33.0245 157.271 33.2405 156.439 33.2405ZM153.463 29.2165V27.7605H159.407V29.2165H153.463ZM169.603 33.2405C168.76 33.2405 168 33.0938 167.323 32.8005C166.651 32.5072 166.096 32.0885 165.659 31.5445C165.227 30.9952 164.952 30.3445 164.835 29.5925L166.835 29.2885C167.005 29.9712 167.355 30.4992 167.883 30.8725C168.416 31.2458 169.029 31.4325 169.723 31.4325C170.133 31.4325 170.52 31.3685 170.883 31.2405C171.245 31.1125 171.539 30.9258 171.763 30.6805C171.992 30.4352 172.107 30.1338 172.107 29.7765C172.107 29.6165 172.08 29.4698 172.027 29.3365C171.973 29.1978 171.893 29.0752 171.787 28.9685C171.685 28.8618 171.552 28.7658 171.387 28.6805C171.227 28.5898 171.04 28.5125 170.827 28.4485L167.851 27.5685C167.595 27.4938 167.317 27.3952 167.019 27.2725C166.725 27.1445 166.445 26.9712 166.179 26.7525C165.917 26.5285 165.701 26.2458 165.531 25.9045C165.365 25.5578 165.283 25.1312 165.283 24.6245C165.283 23.8832 165.469 23.2618 165.843 22.7605C166.221 22.2538 166.728 21.8752 167.363 21.6245C168.003 21.3738 168.712 21.2512 169.491 21.2565C170.28 21.2618 170.984 21.3978 171.603 21.6645C172.221 21.9258 172.739 22.3072 173.155 22.8085C173.571 23.3098 173.864 23.9152 174.035 24.6245L171.963 24.9845C171.877 24.5792 171.712 24.2352 171.467 23.9525C171.227 23.6645 170.931 23.4458 170.579 23.2965C170.232 23.1472 169.861 23.0672 169.467 23.0565C169.083 23.0512 168.725 23.1098 168.395 23.2325C168.069 23.3498 167.805 23.5205 167.603 23.7445C167.405 23.9685 167.307 24.2298 167.307 24.5285C167.307 24.8112 167.392 25.0432 167.563 25.2245C167.733 25.4005 167.944 25.5418 168.195 25.6485C168.451 25.7498 168.709 25.8352 168.971 25.9045L171.035 26.4805C171.317 26.5552 171.635 26.6565 171.987 26.7845C172.339 26.9125 172.677 27.0912 173.003 27.3205C173.328 27.5498 173.595 27.8512 173.803 28.2245C174.016 28.5978 174.123 29.0725 174.123 29.6485C174.123 30.2458 173.997 30.7712 173.747 31.2245C173.501 31.6725 173.168 32.0458 172.747 32.3445C172.325 32.6432 171.843 32.8672 171.299 33.0165C170.76 33.1658 170.195 33.2405 169.603 33.2405ZM176.834 36.8405L178.498 32.2725L178.53 33.6165L174.762 24.3605H176.77L179.442 31.2085H178.93L181.53 24.3605H183.458L178.642 36.8405H176.834ZM187.987 33.2405C186.921 33.2405 186.054 33.0005 185.387 32.5205C184.721 32.0405 184.315 31.3658 184.171 30.4965L186.139 30.1925C186.241 30.6192 186.465 30.9552 186.811 31.2005C187.158 31.4458 187.595 31.5685 188.123 31.5685C188.587 31.5685 188.945 31.4778 189.195 31.2965C189.451 31.1098 189.579 30.8565 189.579 30.5365C189.579 30.3392 189.531 30.1818 189.435 30.0645C189.345 29.9418 189.142 29.8245 188.827 29.7125C188.513 29.6005 188.03 29.4592 187.379 29.2885C186.654 29.0965 186.078 28.8912 185.651 28.6725C185.225 28.4485 184.918 28.1845 184.731 27.8805C184.545 27.5765 184.451 27.2085 184.451 26.7765C184.451 26.2378 184.593 25.7685 184.875 25.3685C185.158 24.9685 185.553 24.6618 186.059 24.4485C186.566 24.2298 187.163 24.1205 187.851 24.1205C188.523 24.1205 189.118 24.2245 189.635 24.4325C190.158 24.6405 190.579 24.9365 190.899 25.3205C191.219 25.7045 191.417 26.1552 191.491 26.6725L189.523 27.0245C189.475 26.6565 189.307 26.3658 189.019 26.1525C188.737 25.9392 188.358 25.8192 187.883 25.7925C187.43 25.7658 187.065 25.8352 186.787 26.0005C186.51 26.1605 186.371 26.3872 186.371 26.6805C186.371 26.8458 186.427 26.9872 186.539 27.1045C186.651 27.2218 186.875 27.3392 187.211 27.4565C187.553 27.5738 188.059 27.7178 188.731 27.8885C189.419 28.0645 189.969 28.2672 190.379 28.4965C190.795 28.7205 191.094 28.9898 191.275 29.3045C191.462 29.6192 191.555 30.0005 191.555 30.4485C191.555 31.3178 191.238 32.0005 190.603 32.4965C189.974 32.9925 189.102 33.2405 187.987 33.2405ZM198.372 33.0005C197.801 33.1072 197.241 33.1525 196.692 33.1365C196.148 33.1258 195.66 33.0272 195.228 32.8405C194.796 32.6485 194.468 32.3472 194.243 31.9365C194.046 31.5632 193.942 31.1818 193.932 30.7925C193.921 30.4032 193.916 29.9632 193.916 29.4725V21.9605H195.836V29.3605C195.836 29.7072 195.838 30.0112 195.844 30.2725C195.854 30.5338 195.91 30.7472 196.012 30.9125C196.204 31.2325 196.51 31.4112 196.932 31.4485C197.353 31.4858 197.833 31.4645 198.372 31.3845V33.0005ZM192.348 25.8725V24.3605H198.372V25.8725H192.348ZM203.72 33.2405C202.845 33.2405 202.077 33.0512 201.416 32.6725C200.755 32.2938 200.237 31.7685 199.864 31.0965C199.496 30.4245 199.312 29.6512 199.312 28.7765C199.312 27.8325 199.493 27.0138 199.856 26.3205C200.219 25.6218 200.723 25.0805 201.368 24.6965C202.013 24.3125 202.76 24.1205 203.608 24.1205C204.504 24.1205 205.264 24.3312 205.888 24.7525C206.517 25.1685 206.984 25.7578 207.288 26.5205C207.592 27.2832 207.707 28.1818 207.632 29.2165H205.72V28.5125C205.715 27.5738 205.549 26.8885 205.224 26.4565C204.899 26.0245 204.387 25.8085 203.688 25.8085C202.899 25.8085 202.312 26.0538 201.928 26.5445C201.544 27.0298 201.352 27.7418 201.352 28.6805C201.352 29.5552 201.544 30.2325 201.928 30.7125C202.312 31.1925 202.872 31.4325 203.608 31.4325C204.083 31.4325 204.491 31.3285 204.832 31.1205C205.179 30.9072 205.445 30.6005 205.632 30.2005L207.536 30.7765C207.205 31.5552 206.693 32.1605 206 32.5925C205.312 33.0245 204.552 33.2405 203.72 33.2405ZM200.744 29.2165V27.7605H206.688V29.2165H200.744ZM219.559 33.0005V27.7525C219.559 27.1605 219.412 26.6992 219.119 26.3685C218.825 26.0325 218.428 25.8645 217.927 25.8645C217.617 25.8645 217.34 25.9365 217.095 26.0805C216.849 26.2192 216.655 26.4272 216.51 26.7045C216.367 26.9765 216.295 27.3018 216.295 27.6805L215.439 27.1765C215.433 26.5792 215.567 26.0538 215.839 25.6005C216.116 25.1418 216.489 24.7845 216.959 24.5285C217.428 24.2725 217.951 24.1445 218.527 24.1445C219.481 24.1445 220.212 24.4325 220.719 25.0085C221.231 25.5792 221.487 26.3312 221.487 27.2645V33.0005H219.559ZM209.167 33.0005V24.3605H210.871V27.0405H211.111V33.0005H209.167ZM214.375 33.0005V27.7765C214.375 27.1738 214.228 26.7045 213.935 26.3685C213.641 26.0325 213.241 25.8645 212.735 25.8645C212.244 25.8645 211.849 26.0325 211.551 26.3685C211.257 26.7045 211.111 27.1418 211.111 27.6805L210.247 27.1045C210.247 26.5445 210.385 26.0405 210.663 25.5925C210.94 25.1445 211.313 24.7925 211.783 24.5365C212.257 24.2752 212.788 24.1445 213.375 24.1445C214.02 24.1445 214.559 24.2832 214.991 24.5605C215.428 24.8325 215.753 25.2058 215.967 25.6805C216.185 26.1498 216.295 26.6805 216.295 27.2725V33.0005H214.375ZM226.909 33.2405C225.842 33.2405 224.976 33.0005 224.309 32.5205C223.642 32.0405 223.237 31.3658 223.093 30.4965L225.061 30.1925C225.162 30.6192 225.386 30.9552 225.733 31.2005C226.08 31.4458 226.517 31.5685 227.045 31.5685C227.509 31.5685 227.866 31.4778 228.117 31.2965C228.373 31.1098 228.501 30.8565 228.501 30.5365C228.501 30.3392 228.453 30.1818 228.357 30.0645C228.266 29.9418 228.064 29.8245 227.749 29.7125C227.434 29.6005 226.952 29.4592 226.301 29.2885C225.576 29.0965 225 28.8912 224.573 28.6725C224.146 28.4485 223.84 28.1845 223.653 27.8805C223.466 27.5765 223.373 27.2085 223.373 26.7765C223.373 26.2378 223.514 25.7685 223.797 25.3685C224.08 24.9685 224.474 24.6618 224.981 24.4485C225.488 24.2298 226.085 24.1205 226.773 24.1205C227.445 24.1205 228.04 24.2245 228.557 24.4325C229.08 24.6405 229.501 24.9365 229.821 25.3205C230.141 25.7045 230.338 26.1552 230.413 26.6725L228.445 27.0245C228.397 26.6565 228.229 26.3658 227.941 26.1525C227.658 25.9392 227.28 25.8192 226.805 25.7925C226.352 25.7658 225.986 25.8352 225.709 26.0005C225.432 26.1605 225.293 26.3872 225.293 26.6805C225.293 26.8458 225.349 26.9872 225.461 27.1045C225.573 27.2218 225.797 27.3392 226.133 27.4565C226.474 27.5738 226.981 27.7178 227.653 27.8885C228.341 28.0645 228.89 28.2672 229.301 28.4965C229.717 28.7205 230.016 28.9898 230.197 29.3045C230.384 29.6192 230.477 30.0005 230.477 30.4485C230.477 31.3178 230.16 32.0005 229.525 32.4965C228.896 32.9925 228.024 33.2405 226.909 33.2405Z" fill="black"/>
<path d="M17.332 55.0005V54.4005H18.688V47.7405H17.332V47.1405H20.68V47.7405H19.348V54.4005H20.68V55.0005H17.332ZM23.524 49.3005L23.548 49.7805C24.324 49.4125 24.968 49.2285 25.48 49.2285C25.992 49.2285 26.392 49.4045 26.68 49.7565C26.976 50.1085 27.124 50.5885 27.124 51.1965V55.0005H26.488V51.1965C26.488 50.8045 26.392 50.4805 26.2 50.2245C26.008 49.9765 25.72 49.8525 25.336 49.8525C24.952 49.8525 24.356 50.0285 23.548 50.3805V55.0005H22.912V49.3005H23.524ZM28.672 50.0565V49.4565H29.836V48.0045L30.472 47.8845V49.4565H33.22V50.0565H30.472V52.7925C30.472 53.4005 30.56 53.8405 30.736 54.1125C30.92 54.3765 31.244 54.5085 31.708 54.5085C31.884 54.5085 32.156 54.4805 32.524 54.4245C32.892 54.3605 33.144 54.3045 33.28 54.2565L33.424 54.8445C33.272 54.9005 32.992 54.9605 32.584 55.0245C32.184 55.0885 31.892 55.1205 31.708 55.1205C30.988 55.1205 30.496 54.9325 30.232 54.5565C29.968 54.1725 29.836 53.5925 29.836 52.8165V50.0565H28.672ZM34.804 52.1565C34.804 51.2365 34.992 50.5205 35.368 50.0085C35.752 49.4885 36.308 49.2285 37.036 49.2285C37.764 49.2285 38.304 49.4685 38.656 49.9485C39.016 50.4285 39.196 51.0685 39.196 51.8685L39.16 52.4685H35.488C35.528 53.0685 35.688 53.5565 35.968 53.9325C36.248 54.3005 36.632 54.4845 37.12 54.4845C37.616 54.4845 38.196 54.3685 38.86 54.1365L39.04 54.7365C38.392 54.9845 37.784 55.1085 37.216 55.1085C36.432 55.1085 35.832 54.8485 35.416 54.3285C35.008 53.8005 34.804 53.0765 34.804 52.1565ZM37.084 49.8405C36.076 49.8405 35.544 50.5165 35.488 51.8685H38.512C38.512 50.5165 38.036 49.8405 37.084 49.8405ZM40.972 55.0005V54.4005H42.34V49.9005H40.972V49.3005H42.976L43 49.9965C43.256 49.8365 43.616 49.6765 44.08 49.5165C44.544 49.3565 44.952 49.2605 45.304 49.2285H45.436V49.9365H45.304C44.976 49.9605 44.568 50.0405 44.08 50.1765C43.6 50.3125 43.24 50.4525 43 50.5965V54.4005H44.92V55.0005H40.972ZM47.524 49.3005L47.548 49.7805C48.324 49.4125 48.968 49.2285 49.48 49.2285C49.992 49.2285 50.392 49.4045 50.68 49.7565C50.976 50.1085 51.124 50.5885 51.124 51.1965V55.0005H50.488V51.1965C50.488 50.8045 50.392 50.4805 50.2 50.2245C50.008 49.9765 49.72 49.8525 49.336 49.8525C48.952 49.8525 48.356 50.0285 47.548 50.3805V55.0005H46.912V49.3005H47.524ZM54.616 54.4845C54.912 54.4845 55.232 54.3925 55.576 54.2085C55.928 54.0165 56.184 53.8405 56.344 53.6805V52.2525C55.816 52.2125 55.312 52.1925 54.832 52.1925C54.352 52.1925 53.992 52.2965 53.752 52.5045C53.512 52.7045 53.392 52.9765 53.392 53.3205C53.392 54.0965 53.8 54.4845 54.616 54.4845ZM54.604 55.1085C54.02 55.1085 53.56 54.9605 53.224 54.6645C52.888 54.3605 52.72 53.9325 52.72 53.3805C52.72 52.8285 52.904 52.4005 53.272 52.0965C53.64 51.7845 54.128 51.6285 54.736 51.6285C55.344 51.6285 55.88 51.6525 56.344 51.7005C56.344 50.9885 56.256 50.5045 56.08 50.2485C55.904 49.9845 55.548 49.8525 55.012 49.8525C54.476 49.8525 53.844 49.9805 53.116 50.2365L52.936 49.6365C53.68 49.3645 54.352 49.2285 54.952 49.2285C55.744 49.2285 56.28 49.4045 56.56 49.7565C56.84 50.1085 56.98 50.7245 56.98 51.6045V54.1245L57.076 55.0365L56.464 55.0965L56.344 54.3765C56.16 54.5365 55.9 54.7005 55.564 54.8685C55.228 55.0285 54.908 55.1085 54.604 55.1085ZM59.14 55.0005V54.4005H60.976V47.6085L59.188 47.6205L59.176 47.0325L61.612 47.0205V54.4005H63.508V55.0005H59.14ZM70.936 54.7245L71.092 54.1005C71.884 54.3645 72.496 54.4965 72.928 54.4965C73.36 54.4965 73.692 54.4045 73.924 54.2205C74.164 54.0285 74.284 53.7765 74.284 53.4645C74.284 53.1525 74.188 52.9245 73.996 52.7805C73.812 52.6285 73.424 52.4845 72.832 52.3485C72.24 52.2125 71.796 52.0165 71.5 51.7605C71.204 51.5205 71.056 51.1605 71.056 50.6805C71.056 50.2005 71.236 49.8365 71.596 49.5885C71.964 49.3325 72.436 49.2045 73.012 49.2045C73.588 49.2045 74.212 49.3325 74.884 49.5885L74.716 50.1525C74.036 49.9285 73.488 49.8165 73.072 49.8165C72.656 49.8165 72.328 49.8885 72.088 50.0325C71.848 50.1925 71.728 50.4085 71.728 50.6805C71.728 50.9525 71.832 51.1645 72.04 51.3165C72.256 51.4685 72.668 51.6205 73.276 51.7725C73.884 51.9245 74.316 52.1205 74.572 52.3605C74.828 52.5925 74.956 52.9605 74.956 53.4645C74.956 53.9685 74.784 54.3685 74.44 54.6645C74.104 54.9605 73.624 55.1085 73 55.1085C72.376 55.1085 71.688 54.9805 70.936 54.7245ZM76.708 52.1685C76.708 50.2085 77.472 49.2285 79 49.2285C80.528 49.2285 81.292 50.2085 81.292 52.1685C81.292 54.1285 80.528 55.1085 79 55.1085C77.472 55.1085 76.708 54.1285 76.708 52.1685ZM79 49.8525C77.928 49.8525 77.392 50.6245 77.392 52.1685C77.392 53.7125 77.928 54.4845 79 54.4845C80.072 54.4845 80.608 53.7125 80.608 52.1685C80.608 50.6245 80.072 49.8525 79 49.8525ZM82.828 55.0005V54.4005H84.16V49.9005H82.876V49.3005H84.16C84.16 47.7165 84.748 46.9245 85.924 46.9245C86.308 46.9245 86.812 47.0165 87.436 47.2005L87.292 47.8005C86.676 47.6245 86.228 47.5365 85.948 47.5365C85.54 47.5365 85.244 47.6805 85.06 47.9685C84.884 48.2485 84.796 48.6925 84.796 49.3005H87.208V49.9005H84.796V54.4005H87.232V55.0005H82.828ZM88.672 50.0565V49.4565H89.836V48.0045L90.472 47.8845V49.4565H93.22V50.0565H90.472V52.7925C90.472 53.4005 90.56 53.8405 90.736 54.1125C90.92 54.3765 91.244 54.5085 91.708 54.5085C91.884 54.5085 92.156 54.4805 92.524 54.4245C92.892 54.3605 93.144 54.3045 93.28 54.2565L93.424 54.8445C93.272 54.9005 92.992 54.9605 92.584 55.0245C92.184 55.0885 91.892 55.1205 91.708 55.1205C90.988 55.1205 90.496 54.9325 90.232 54.5565C89.968 54.1725 89.836 53.5925 89.836 52.8165V50.0565H88.672ZM98.956 49.3005H99.58L98.896 55.0005H97.624L97.012 52.5165H96.964L96.34 55.0005H95.08L94.42 49.3005H95.044L95.668 54.4245H95.884L96.688 51.5325H97.312L98.116 54.4245H98.332L98.956 49.3005ZM102.616 54.4845C102.912 54.4845 103.232 54.3925 103.576 54.2085C103.928 54.0165 104.184 53.8405 104.344 53.6805V52.2525C103.816 52.2125 103.312 52.1925 102.832 52.1925C102.352 52.1925 101.992 52.2965 101.752 52.5045C101.512 52.7045 101.392 52.9765 101.392 53.3205C101.392 54.0965 101.8 54.4845 102.616 54.4845ZM102.604 55.1085C102.02 55.1085 101.56 54.9605 101.224 54.6645C100.888 54.3605 100.72 53.9325 100.72 53.3805C100.72 52.8285 100.904 52.4005 101.272 52.0965C101.64 51.7845 102.128 51.6285 102.736 51.6285C103.344 51.6285 103.88 51.6525 104.344 51.7005C104.344 50.9885 104.256 50.5045 104.08 50.2485C103.904 49.9845 103.548 49.8525 103.012 49.8525C102.476 49.8525 101.844 49.9805 101.116 50.2365L100.936 49.6365C101.68 49.3645 102.352 49.2285 102.952 49.2285C103.744 49.2285 104.28 49.4045 104.56 49.7565C104.84 50.1085 104.98 50.7245 104.98 51.6045V54.1245L105.076 55.0365L104.464 55.0965L104.344 54.3765C104.16 54.5365 103.9 54.7005 103.564 54.8685C103.228 55.0285 102.908 55.1085 102.604 55.1085ZM106.972 55.0005V54.4005H108.34V49.9005H106.972V49.3005H108.976L109 49.9965C109.256 49.8365 109.616 49.6765 110.08 49.5165C110.544 49.3565 110.952 49.2605 111.304 49.2285H111.436V49.9365H111.304C110.976 49.9605 110.568 50.0405 110.08 50.1765C109.6 50.3125 109.24 50.4525 109 50.5965V54.4005H110.92V55.0005H106.972ZM112.804 52.1565C112.804 51.2365 112.992 50.5205 113.368 50.0085C113.752 49.4885 114.308 49.2285 115.036 49.2285C115.764 49.2285 116.304 49.4685 116.656 49.9485C117.016 50.4285 117.196 51.0685 117.196 51.8685L117.16 52.4685H113.488C113.528 53.0685 113.688 53.5565 113.968 53.9325C114.248 54.3005 114.632 54.4845 115.12 54.4845C115.616 54.4845 116.196 54.3685 116.86 54.1365L117.04 54.7365C116.392 54.9845 115.784 55.1085 115.216 55.1085C114.432 55.1085 113.832 54.8485 113.416 54.3285C113.008 53.8005 112.804 53.0765 112.804 52.1565ZM115.084 49.8405C114.076 49.8405 113.544 50.5165 113.488 51.8685H116.512C116.512 50.5165 116.036 49.8405 115.084 49.8405ZM124.936 54.7245L125.092 54.1005C125.884 54.3645 126.496 54.4965 126.928 54.4965C127.36 54.4965 127.692 54.4045 127.924 54.2205C128.164 54.0285 128.284 53.7765 128.284 53.4645C128.284 53.1525 128.188 52.9245 127.996 52.7805C127.812 52.6285 127.424 52.4845 126.832 52.3485C126.24 52.2125 125.796 52.0165 125.5 51.7605C125.204 51.5205 125.056 51.1605 125.056 50.6805C125.056 50.2005 125.236 49.8365 125.596 49.5885C125.964 49.3325 126.436 49.2045 127.012 49.2045C127.588 49.2045 128.212 49.3325 128.884 49.5885L128.716 50.1525C128.036 49.9285 127.488 49.8165 127.072 49.8165C126.656 49.8165 126.328 49.8885 126.088 50.0325C125.848 50.1925 125.728 50.4085 125.728 50.6805C125.728 50.9525 125.832 51.1645 126.04 51.3165C126.256 51.4685 126.668 51.6205 127.276 51.7725C127.884 51.9245 128.316 52.1205 128.572 52.3605C128.828 52.5925 128.956 52.9605 128.956 53.4645C128.956 53.9685 128.784 54.3685 128.44 54.6645C128.104 54.9605 127.624 55.1085 127 55.1085C126.376 55.1085 125.688 54.9805 124.936 54.7245ZM130.66 49.3005H131.38L133.072 54.1485H133.168L134.68 49.3005H135.4L133.192 55.9725C132.984 56.6045 132.764 57.0085 132.532 57.1845C132.308 57.3605 131.848 57.4565 131.152 57.4725V56.8605C131.6 56.8525 131.9 56.7885 132.052 56.6685C132.204 56.5485 132.344 56.2965 132.472 55.9125L132.748 55.0845L130.66 49.3005ZM136.936 54.7245L137.092 54.1005C137.884 54.3645 138.496 54.4965 138.928 54.4965C139.36 54.4965 139.692 54.4045 139.924 54.2205C140.164 54.0285 140.284 53.7765 140.284 53.4645C140.284 53.1525 140.188 52.9245 139.996 52.7805C139.812 52.6285 139.424 52.4845 138.832 52.3485C138.24 52.2125 137.796 52.0165 137.5 51.7605C137.204 51.5205 137.056 51.1605 137.056 50.6805C137.056 50.2005 137.236 49.8365 137.596 49.5885C137.964 49.3325 138.436 49.2045 139.012 49.2045C139.588 49.2045 140.212 49.3325 140.884 49.5885L140.716 50.1525C140.036 49.9285 139.488 49.8165 139.072 49.8165C138.656 49.8165 138.328 49.8885 138.088 50.0325C137.848 50.1925 137.728 50.4085 137.728 50.6805C137.728 50.9525 137.832 51.1645 138.04 51.3165C138.256 51.4685 138.668 51.6205 139.276 51.7725C139.884 51.9245 140.316 52.1205 140.572 52.3605C140.828 52.5925 140.956 52.9605 140.956 53.4645C140.956 53.9685 140.784 54.3685 140.44 54.6645C140.104 54.9605 139.624 55.1085 139 55.1085C138.376 55.1085 137.688 54.9805 136.936 54.7245ZM142.672 50.0565V49.4565H143.836V48.0045L144.472 47.8845V49.4565H147.22V50.0565H144.472V52.7925C144.472 53.4005 144.56 53.8405 144.736 54.1125C144.92 54.3765 145.244 54.5085 145.708 54.5085C145.884 54.5085 146.156 54.4805 146.524 54.4245C146.892 54.3605 147.144 54.3045 147.28 54.2565L147.424 54.8445C147.272 54.9005 146.992 54.9605 146.584 55.0245C146.184 55.0885 145.892 55.1205 145.708 55.1205C144.988 55.1205 144.496 54.9325 144.232 54.5565C143.968 54.1725 143.836 53.5925 143.836 52.8165V50.0565H142.672ZM148.804 52.1565C148.804 51.2365 148.992 50.5205 149.368 50.0085C149.752 49.4885 150.308 49.2285 151.036 49.2285C151.764 49.2285 152.304 49.4685 152.656 49.9485C153.016 50.4285 153.196 51.0685 153.196 51.8685L153.16 52.4685H149.488C149.528 53.0685 149.688 53.5565 149.968 53.9325C150.248 54.3005 150.632 54.4845 151.12 54.4845C151.616 54.4845 152.196 54.3685 152.86 54.1365L153.04 54.7365C152.392 54.9845 151.784 55.1085 151.216 55.1085C150.432 55.1085 149.832 54.8485 149.416 54.3285C149.008 53.8005 148.804 53.0765 148.804 52.1565ZM151.084 49.8405C150.076 49.8405 149.544 50.5165 149.488 51.8685H152.512C152.512 50.5165 152.036 49.8405 151.084 49.8405ZM155.02 49.3005L155.056 49.6605C155.456 49.3725 155.764 49.2285 155.98 49.2285C156.508 49.2285 156.872 49.4005 157.072 49.7445C157.52 49.4005 157.912 49.2285 158.248 49.2285C158.768 49.2285 159.124 49.3885 159.316 49.7085C159.508 50.0285 159.604 50.5205 159.604 51.1845V55.0005H158.968V51.1845C158.968 50.7285 158.92 50.3925 158.824 50.1765C158.728 49.9525 158.544 49.8405 158.272 49.8405C158 49.8405 157.664 49.9685 157.264 50.2245C157.312 50.4965 157.336 50.8165 157.336 51.1845V53.1765H156.7V51.1845C156.7 50.7285 156.652 50.3925 156.556 50.1765C156.452 49.9525 156.264 49.8405 155.992 49.8405C155.72 49.8405 155.408 49.9685 155.056 50.2245V55.0005H154.42V49.3005H155.02ZM160.936 54.7245L161.092 54.1005C161.884 54.3645 162.496 54.4965 162.928 54.4965C163.36 54.4965 163.692 54.4045 163.924 54.2205C164.164 54.0285 164.284 53.7765 164.284 53.4645C164.284 53.1525 164.188 52.9245 163.996 52.7805C163.812 52.6285 163.424 52.4845 162.832 52.3485C162.24 52.2125 161.796 52.0165 161.5 51.7605C161.204 51.5205 161.056 51.1605 161.056 50.6805C161.056 50.2005 161.236 49.8365 161.596 49.5885C161.964 49.3325 162.436 49.2045 163.012 49.2045C163.588 49.2045 164.212 49.3325 164.884 49.5885L164.716 50.1525C164.036 49.9285 163.488 49.8165 163.072 49.8165C162.656 49.8165 162.328 49.8885 162.088 50.0325C161.848 50.1925 161.728 50.4085 161.728 50.6805C161.728 50.9525 161.832 51.1645 162.04 51.3165C162.256 51.4685 162.668 51.6205 163.276 51.7725C163.884 51.9245 164.316 52.1205 164.572 52.3605C164.828 52.5925 164.956 52.9605 164.956 53.4645C164.956 53.9685 164.784 54.3685 164.44 54.6645C164.104 54.9605 163.624 55.1085 163 55.1085C162.376 55.1085 161.688 54.9805 160.936 54.7245ZM172.828 55.0005V54.4005H174.16V49.9005H172.876V49.3005H174.16C174.16 47.7165 174.748 46.9245 175.924 46.9245C176.308 46.9245 176.812 47.0165 177.436 47.2005L177.292 47.8005C176.676 47.6245 176.228 47.5365 175.948 47.5365C175.54 47.5365 175.244 47.6805 175.06 47.9685C174.884 48.2485 174.796 48.6925 174.796 49.3005H177.208V49.9005H174.796V54.4005H177.232V55.0005H172.828ZM178.708 52.1685C178.708 50.2085 179.472 49.2285 181 49.2285C182.528 49.2285 183.292 50.2085 183.292 52.1685C183.292 54.1285 182.528 55.1085 181 55.1085C179.472 55.1085 178.708 54.1285 178.708 52.1685ZM181 49.8525C179.928 49.8525 179.392 50.6245 179.392 52.1685C179.392 53.7125 179.928 54.4845 181 54.4845C182.072 54.4845 182.608 53.7125 182.608 52.1685C182.608 50.6245 182.072 49.8525 181 49.8525ZM184.972 55.0005V54.4005H186.34V49.9005H184.972V49.3005H186.976L187 49.9965C187.256 49.8365 187.616 49.6765 188.08 49.5165C188.544 49.3565 188.952 49.2605 189.304 49.2285H189.436V49.9365H189.304C188.976 49.9605 188.568 50.0405 188.08 50.1765C187.6 50.3125 187.24 50.4525 187 50.5965V54.4005H188.92V55.0005H184.972ZM196.636 49.3005H197.356L198.928 54.4245H199.144L200.656 49.3005H201.376L199.636 55.0005H198.436L196.636 49.3005ZM204.616 54.4845C204.912 54.4845 205.232 54.3925 205.576 54.2085C205.928 54.0165 206.184 53.8405 206.344 53.6805V52.2525C205.816 52.2125 205.312 52.1925 204.832 52.1925C204.352 52.1925 203.992 52.2965 203.752 52.5045C203.512 52.7045 203.392 52.9765 203.392 53.3205C203.392 54.0965 203.8 54.4845 204.616 54.4845ZM204.604 55.1085C204.02 55.1085 203.56 54.9605 203.224 54.6645C202.888 54.3605 202.72 53.9325 202.72 53.3805C202.72 52.8285 202.904 52.4005 203.272 52.0965C203.64 51.7845 204.128 51.6285 204.736 51.6285C205.344 51.6285 205.88 51.6525 206.344 51.7005C206.344 50.9885 206.256 50.5045 206.08 50.2485C205.904 49.9845 205.548 49.8525 205.012 49.8525C204.476 49.8525 203.844 49.9805 203.116 50.2365L202.936 49.6365C203.68 49.3645 204.352 49.2285 204.952 49.2285C205.744 49.2285 206.28 49.4045 206.56 49.7565C206.84 50.1085 206.98 50.7245 206.98 51.6045V54.1245L207.076 55.0365L206.464 55.0965L206.344 54.3765C206.16 54.5365 205.9 54.7005 205.564 54.8685C205.228 55.0285 204.908 55.1085 204.604 55.1085ZM208.972 55.0005V54.4005H210.34V49.9005H208.972V49.3005H210.976L211 49.9965C211.256 49.8365 211.616 49.6765 212.08 49.5165C212.544 49.3565 212.952 49.2605 213.304 49.2285H213.436V49.9365H213.304C212.976 49.9605 212.568 50.0405 212.08 50.1765C211.6 50.3125 211.24 50.4525 211 50.5965V54.4005H212.92V55.0005H208.972ZM214.996 55.0005V54.4005H216.748V49.9005H214.996V49.3005H217.384V54.4005H219.136V55.0005H214.996ZM216.496 47.6085C216.496 47.4485 216.54 47.3245 216.628 47.2365C216.724 47.1485 216.852 47.1045 217.012 47.1045C217.34 47.1045 217.504 47.2805 217.504 47.6325C217.504 47.9845 217.34 48.1565 217.012 48.1485C216.668 48.1485 216.496 47.9685 216.496 47.6085ZM220.708 52.1685C220.708 50.2085 221.472 49.2285 223 49.2285C224.528 49.2285 225.292 50.2085 225.292 52.1685C225.292 54.1285 224.528 55.1085 223 55.1085C221.472 55.1085 220.708 54.1285 220.708 52.1685ZM223 49.8525C221.928 49.8525 221.392 50.6245 221.392 52.1685C221.392 53.7125 221.928 54.4845 223 54.4845C224.072 54.4845 224.608 53.7125 224.608 52.1685C224.608 50.6245 224.072 49.8525 223 49.8525ZM230.488 55.0005L230.464 54.5085C229.696 54.9085 229.056 55.1085 228.544 55.1085C228.032 55.1085 227.628 54.9325 227.332 54.5805C227.036 54.2285 226.888 53.7485 226.888 53.1405V49.3005H227.524V53.1405C227.524 53.5325 227.616 53.8565 227.8 54.1125C227.992 54.3605 228.28 54.4845 228.664 54.4845C229.048 54.4845 229.648 54.2845 230.464 53.8845V49.3005H231.1V55.0005H230.488ZM232.936 54.7245L233.092 54.1005C233.884 54.3645 234.496 54.4965 234.928 54.4965C235.36 54.4965 235.692 54.4045 235.924 54.2205C236.164 54.0285 236.284 53.7765 236.284 53.4645C236.284 53.1525 236.188 52.9245 235.996 52.7805C235.812 52.6285 235.424 52.4845 234.832 52.3485C234.24 52.2125 233.796 52.0165 233.5 51.7605C233.204 51.5205 233.056 51.1605 233.056 50.6805C233.056 50.2005 233.236 49.8365 233.596 49.5885C233.964 49.3325 234.436 49.2045 235.012 49.2045C235.588 49.2045 236.212 49.3325 236.884 49.5885L236.716 50.1525C236.036 49.9285 235.488 49.8165 235.072 49.8165C234.656 49.8165 234.328 49.8885 234.088 50.0325C233.848 50.1925 233.728 50.4085 233.728 50.6805C233.728 50.9525 233.832 51.1645 234.04 51.3165C234.256 51.4685 234.668 51.6205 235.276 51.7725C235.884 51.9245 236.316 52.1205 236.572 52.3605C236.828 52.5925 236.956 52.9605 236.956 53.4645C236.956 53.9685 236.784 54.3685 236.44 54.6645C236.104 54.9605 235.624 55.1085 235 55.1085C234.376 55.1085 233.688 54.9805 232.936 54.7245ZM16.672 66.0565V65.4565H17.836V64.0045L18.472 63.8845V65.4565H21.22V66.0565H18.472V68.7925C18.472 69.4005 18.56 69.8405 18.736 70.1125C18.92 70.3765 19.244 70.5085 19.708 70.5085C19.884 70.5085 20.156 70.4805 20.524 70.4245C20.892 70.3605 21.144 70.3045 21.28 70.2565L21.424 70.8445C21.272 70.9005 20.992 70.9605 20.584 71.0245C20.184 71.0885 19.892 71.1205 19.708 71.1205C18.988 71.1205 18.496 70.9325 18.232 70.5565C17.968 70.1725 17.836 69.5925 17.836 68.8165V66.0565H16.672ZM24.304 68.1565C24.304 67.2365 24.492 66.5205 24.868 66.0085C25.252 65.4885 25.808 65.2285 26.536 65.2285C27.264 65.2285 27.804 65.4685 28.156 65.9485C28.516 66.4285 28.696 67.0685 28.696 67.8685L28.66 68.4685H24.988C25.028 69.0685 25.188 69.5565 25.468 69.9325C25.748 70.3005 26.132 70.4845 26.62 70.4845C27.116 70.4845 27.696 70.3685 28.36 70.1365L28.54 70.7365C27.892 70.9845 27.284 71.1085 26.716 71.1085C25.932 71.1085 25.332 70.8485 24.916 70.3285C24.508 69.8005 24.304 69.0765 24.304 68.1565ZM26.584 65.8405C25.576 65.8405 25.044 66.5165 24.988 67.8685H28.012C28.012 66.5165 27.536 65.8405 26.584 65.8405ZM33.616 70.4845C33.912 70.4845 34.232 70.3925 34.576 70.2085C34.928 70.0165 35.184 69.8405 35.344 69.6805V68.2525C34.816 68.2125 34.312 68.1925 33.832 68.1925C33.352 68.1925 32.992 68.2965 32.752 68.5045C32.512 68.7045 32.392 68.9765 32.392 69.3205C32.392 70.0965 32.8 70.4845 33.616 70.4845ZM33.604 71.1085C33.02 71.1085 32.56 70.9605 32.224 70.6645C31.888 70.3605 31.72 69.9325 31.72 69.3805C31.72 68.8285 31.904 68.4005 32.272 68.0965C32.64 67.7845 33.128 67.6285 33.736 67.6285C34.344 67.6285 34.88 67.6525 35.344 67.7005C35.344 66.9885 35.256 66.5045 35.08 66.2485C34.904 65.9845 34.548 65.8525 34.012 65.8525C33.476 65.8525 32.844 65.9805 32.116 66.2365L31.936 65.6365C32.68 65.3645 33.352 65.2285 33.952 65.2285C34.744 65.2285 35.28 65.4045 35.56 65.7565C35.84 66.1085 35.98 66.7245 35.98 67.6045V70.1245L36.076 71.0365L35.464 71.0965L35.344 70.3765C35.16 70.5365 34.9 70.7005 34.564 70.8685C34.228 71.0285 33.908 71.1085 33.604 71.1085ZM39.52 65.3005L39.556 65.6605C39.956 65.3725 40.264 65.2285 40.48 65.2285C41.008 65.2285 41.372 65.4005 41.572 65.7445C42.02 65.4005 42.412 65.2285 42.748 65.2285C43.268 65.2285 43.624 65.3885 43.816 65.7085C44.008 66.0285 44.104 66.5205 44.104 67.1845V71.0005H43.468V67.1845C43.468 66.7285 43.42 66.3925 43.324 66.1765C43.228 65.9525 43.044 65.8405 42.772 65.8405C42.5 65.8405 42.164 65.9685 41.764 66.2245C41.812 66.4965 41.836 66.8165 41.836 67.1845V69.1765H41.2V67.1845C41.2 66.7285 41.152 66.3925 41.056 66.1765C40.952 65.9525 40.764 65.8405 40.492 65.8405C40.22 65.8405 39.908 65.9685 39.556 66.2245V71.0005H38.92V65.3005H39.52ZM46.936 70.7245L47.092 70.1005C47.884 70.3645 48.496 70.4965 48.928 70.4965C49.36 70.4965 49.692 70.4045 49.924 70.2205C50.164 70.0285 50.284 69.7765 50.284 69.4645C50.284 69.1525 50.188 68.9245 49.996 68.7805C49.812 68.6285 49.424 68.4845 48.832 68.3485C48.24 68.2125 47.796 68.0165 47.5 67.7605C47.204 67.5205 47.056 67.1605 47.056 66.6805C47.056 66.2005 47.236 65.8365 47.596 65.5885C47.964 65.3325 48.436 65.2045 49.012 65.2045C49.588 65.2045 50.212 65.3325 50.884 65.5885L50.716 66.1525C50.036 65.9285 49.488 65.8165 49.072 65.8165C48.656 65.8165 48.328 65.8885 48.088 66.0325C47.848 66.1925 47.728 66.4085 47.728 66.6805C47.728 66.9525 47.832 67.1645 48.04 67.3165C48.256 67.4685 48.668 67.6205 49.276 67.7725C49.884 67.9245 50.316 68.1205 50.572 68.3605C50.828 68.5925 50.956 68.9605 50.956 69.4645C50.956 69.9685 50.784 70.3685 50.44 70.6645C50.104 70.9605 49.624 71.1085 49 71.1085C48.376 71.1085 47.688 70.9805 46.936 70.7245ZM63.616 70.4845C63.912 70.4845 64.232 70.3925 64.576 70.2085C64.928 70.0165 65.184 69.8405 65.344 69.6805V68.2525C64.816 68.2125 64.312 68.1925 63.832 68.1925C63.352 68.1925 62.992 68.2965 62.752 68.5045C62.512 68.7045 62.392 68.9765 62.392 69.3205C62.392 70.0965 62.8 70.4845 63.616 70.4845ZM63.604 71.1085C63.02 71.1085 62.56 70.9605 62.224 70.6645C61.888 70.3605 61.72 69.9325 61.72 69.3805C61.72 68.8285 61.904 68.4005 62.272 68.0965C62.64 67.7845 63.128 67.6285 63.736 67.6285C64.344 67.6285 64.88 67.6525 65.344 67.7005C65.344 66.9885 65.256 66.5045 65.08 66.2485C64.904 65.9845 64.548 65.8525 64.012 65.8525C63.476 65.8525 62.844 65.9805 62.116 66.2365L61.936 65.6365C62.68 65.3645 63.352 65.2285 63.952 65.2285C64.744 65.2285 65.28 65.4045 65.56 65.7565C65.84 66.1085 65.98 66.7245 65.98 67.6045V70.1245L66.076 71.0365L65.464 71.0965L65.344 70.3765C65.16 70.5365 64.9 70.7005 64.564 70.8685C64.228 71.0285 63.908 71.1085 63.604 71.1085ZM73.396 65.4925L73.252 66.1165C72.756 65.9405 72.296 65.8525 71.872 65.8525C71.296 65.8525 70.864 66.0565 70.576 66.4645C70.296 66.8645 70.156 67.4245 70.156 68.1445C70.156 68.8645 70.3 69.4365 70.588 69.8605C70.876 70.2765 71.304 70.4845 71.872 70.4845C72.256 70.4845 72.736 70.3805 73.312 70.1725L73.504 70.7725C72.92 70.9965 72.38 71.1085 71.884 71.1085C71.1 71.1085 70.5 70.8485 70.084 70.3285C69.668 69.8005 69.46 69.0685 69.46 68.1325C69.46 67.1965 69.664 66.4805 70.072 65.9845C70.48 65.4805 71.08 65.2285 71.872 65.2285C72.376 65.2285 72.884 65.3165 73.396 65.4925ZM76.972 71.0005V70.4005H78.34V65.9005H76.972V65.3005H78.976L79 65.9965C79.256 65.8365 79.616 65.6765 80.08 65.5165C80.544 65.3565 80.952 65.2605 81.304 65.2285H81.436V65.9365H81.304C80.976 65.9605 80.568 66.0405 80.08 66.1765C79.6 66.3125 79.24 66.4525 79 66.5965V70.4005H80.92V71.0005H76.972ZM84.208 68.1685C84.208 66.2085 84.972 65.2285 86.5 65.2285C88.028 65.2285 88.792 66.2085 88.792 68.1685C88.792 70.1285 88.028 71.1085 86.5 71.1085C84.972 71.1085 84.208 70.1285 84.208 68.1685ZM86.5 65.8525C85.428 65.8525 84.892 66.6245 84.892 68.1685C84.892 69.7125 85.428 70.4845 86.5 70.4845C87.572 70.4845 88.108 69.7125 88.108 68.1685C88.108 66.6245 87.572 65.8525 86.5 65.8525ZM91.936 70.7245L92.092 70.1005C92.884 70.3645 93.496 70.4965 93.928 70.4965C94.36 70.4965 94.692 70.4045 94.924 70.2205C95.164 70.0285 95.284 69.7765 95.284 69.4645C95.284 69.1525 95.188 68.9245 94.996 68.7805C94.812 68.6285 94.424 68.4845 93.832 68.3485C93.24 68.2125 92.796 68.0165 92.5 67.7605C92.204 67.5205 92.056 67.1605 92.056 66.6805C92.056 66.2005 92.236 65.8365 92.596 65.5885C92.964 65.3325 93.436 65.2045 94.012 65.2045C94.588 65.2045 95.212 65.3325 95.884 65.5885L95.716 66.1525C95.036 65.9285 94.488 65.8165 94.072 65.8165C93.656 65.8165 93.328 65.8885 93.088 66.0325C92.848 66.1925 92.728 66.4085 92.728 66.6805C92.728 66.9525 92.832 67.1645 93.04 67.3165C93.256 67.4685 93.668 67.6205 94.276 67.7725C94.884 67.9245 95.316 68.1205 95.572 68.3605C95.828 68.5925 95.956 68.9605 95.956 69.4645C95.956 69.9685 95.784 70.3685 95.44 70.6645C95.104 70.9605 94.624 71.1085 94 71.1085C93.376 71.1085 92.688 70.9805 91.936 70.7245ZM99.436 70.7245L99.592 70.1005C100.384 70.3645 100.996 70.4965 101.428 70.4965C101.86 70.4965 102.192 70.4045 102.424 70.2205C102.664 70.0285 102.784 69.7765 102.784 69.4645C102.784 69.1525 102.688 68.9245 102.496 68.7805C102.312 68.6285 101.924 68.4845 101.332 68.3485C100.74 68.2125 100.296 68.0165 100 67.7605C99.704 67.5205 99.556 67.1605 99.556 66.6805C99.556 66.2005 99.736 65.8365 100.096 65.5885C100.464 65.3325 100.936 65.2045 101.512 65.2045C102.088 65.2045 102.712 65.3325 103.384 65.5885L103.216 66.1525C102.536 65.9285 101.988 65.8165 101.572 65.8165C101.156 65.8165 100.828 65.8885 100.588 66.0325C100.348 66.1925 100.228 66.4085 100.228 66.6805C100.228 66.9525 100.332 67.1645 100.54 67.3165C100.756 67.4685 101.168 67.6205 101.776 67.7725C102.384 67.9245 102.816 68.1205 103.072 68.3605C103.328 68.5925 103.456 68.9605 103.456 69.4645C103.456 69.9685 103.284 70.3685 102.94 70.6645C102.604 70.9605 102.124 71.1085 101.5 71.1085C100.876 71.1085 100.188 70.9805 99.436 70.7245ZM114.172 66.0565V65.4565H115.336V64.0045L115.972 63.8845V65.4565H118.72V66.0565H115.972V68.7925C115.972 69.4005 116.06 69.8405 116.236 70.1125C116.42 70.3765 116.744 70.5085 117.208 70.5085C117.384 70.5085 117.656 70.4805 118.024 70.4245C118.392 70.3605 118.644 70.3045 118.78 70.2565L118.924 70.8445C118.772 70.9005 118.492 70.9605 118.084 71.0245C117.684 71.0885 117.392 71.1205 117.208 71.1205C116.488 71.1205 115.996 70.9325 115.732 70.5565C115.468 70.1725 115.336 69.5925 115.336 68.8165V66.0565H114.172ZM122.572 66.3445V71.0005H121.936V63.0325H122.572V65.7325C123.324 65.3965 123.944 65.2285 124.432 65.2285C125.576 65.2285 126.148 65.8845 126.148 67.1965V71.0005H125.512V67.1965C125.512 66.7885 125.424 66.4645 125.248 66.2245C125.072 65.9765 124.768 65.8525 124.336 65.8525C123.904 65.8525 123.316 66.0165 122.572 66.3445ZM129.304 68.1565C129.304 67.2365 129.492 66.5205 129.868 66.0085C130.252 65.4885 130.808 65.2285 131.536 65.2285C132.264 65.2285 132.804 65.4685 133.156 65.9485C133.516 66.4285 133.696 67.0685 133.696 67.8685L133.66 68.4685H129.988C130.028 69.0685 130.188 69.5565 130.468 69.9325C130.748 70.3005 131.132 70.4845 131.62 70.4845C132.116 70.4845 132.696 70.3685 133.36 70.1365L133.54 70.7365C132.892 70.9845 132.284 71.1085 131.716 71.1085C130.932 71.1085 130.332 70.8485 129.916 70.3285C129.508 69.8005 129.304 69.0765 129.304 68.1565ZM131.584 65.8405C130.576 65.8405 130.044 66.5165 129.988 67.8685H133.012C133.012 66.5165 132.536 65.8405 131.584 65.8405ZM144.208 68.1685C144.208 66.2085 144.972 65.2285 146.5 65.2285C148.028 65.2285 148.792 66.2085 148.792 68.1685C148.792 70.1285 148.028 71.1085 146.5 71.1085C144.972 71.1085 144.208 70.1285 144.208 68.1685ZM146.5 65.8525C145.428 65.8525 144.892 66.6245 144.892 68.1685C144.892 69.7125 145.428 70.4845 146.5 70.4845C147.572 70.4845 148.108 69.7125 148.108 68.1685C148.108 66.6245 147.572 65.8525 146.5 65.8525ZM151.972 71.0005V70.4005H153.34V65.9005H151.972V65.3005H153.976L154 65.9965C154.256 65.8365 154.616 65.6765 155.08 65.5165C155.544 65.3565 155.952 65.2605 156.304 65.2285H156.436V65.9365H156.304C155.976 65.9605 155.568 66.0405 155.08 66.1765C154.6 66.3125 154.24 66.4525 154 66.5965V70.4005H155.92V71.0005H151.972ZM161.368 71.0005C160.648 71.0005 160.096 70.7525 159.712 70.2565C159.328 69.7605 159.136 69.0605 159.136 68.1565C159.136 67.2445 159.348 66.5285 159.772 66.0085C160.204 65.4885 160.804 65.2285 161.572 65.2285C161.996 65.2285 162.472 65.3685 163 65.6485L163.024 65.3005H163.636V69.6205C163.756 70.5725 163.816 71.1245 163.816 71.2765C163.816 71.9805 163.58 72.5085 163.108 72.8605C162.636 73.2205 162.08 73.4005 161.44 73.4005C160.808 73.4005 160.088 73.2405 159.28 72.9205L159.496 72.3205C160.288 72.6245 160.92 72.7765 161.392 72.7765C161.872 72.7765 162.288 72.6525 162.64 72.4045C163 72.1565 163.18 71.7845 163.18 71.2885L163.072 70.3405C162.44 70.7805 161.872 71.0005 161.368 71.0005ZM161.596 65.8285C161.028 65.8285 160.584 66.0405 160.264 66.4645C159.944 66.8805 159.784 67.4405 159.784 68.1445C159.784 68.8405 159.924 69.3925 160.204 69.8005C160.484 70.2005 160.876 70.4005 161.38 70.4005C161.884 70.4005 162.424 70.1605 163 69.6805V66.3205C162.48 65.9925 162.012 65.8285 161.596 65.8285ZM168.616 70.4845C168.912 70.4845 169.232 70.3925 169.576 70.2085C169.928 70.0165 170.184 69.8405 170.344 69.6805V68.2525C169.816 68.2125 169.312 68.1925 168.832 68.1925C168.352 68.1925 167.992 68.2965 167.752 68.5045C167.512 68.7045 167.392 68.9765 167.392 69.3205C167.392 70.0965 167.8 70.4845 168.616 70.4845ZM168.604 71.1085C168.02 71.1085 167.56 70.9605 167.224 70.6645C166.888 70.3605 166.72 69.9325 166.72 69.3805C166.72 68.8285 166.904 68.4005 167.272 68.0965C167.64 67.7845 168.128 67.6285 168.736 67.6285C169.344 67.6285 169.88 67.6525 170.344 67.7005C170.344 66.9885 170.256 66.5045 170.08 66.2485C169.904 65.9845 169.548 65.8525 169.012 65.8525C168.476 65.8525 167.844 65.9805 167.116 66.2365L166.936 65.6365C167.68 65.3645 168.352 65.2285 168.952 65.2285C169.744 65.2285 170.28 65.4045 170.56 65.7565C170.84 66.1085 170.98 66.7245 170.98 67.6045V70.1245L171.076 71.0365L170.464 71.0965L170.344 70.3765C170.16 70.5365 169.9 70.7005 169.564 70.8685C169.228 71.0285 168.908 71.1085 168.604 71.1085ZM175.024 65.3005L175.048 65.7805C175.824 65.4125 176.468 65.2285 176.98 65.2285C177.492 65.2285 177.892 65.4045 178.18 65.7565C178.476 66.1085 178.624 66.5885 178.624 67.1965V71.0005H177.988V67.1965C177.988 66.8045 177.892 66.4805 177.7 66.2245C177.508 65.9765 177.22 65.8525 176.836 65.8525C176.452 65.8525 175.856 66.0285 175.048 66.3805V71.0005H174.412V65.3005H175.024ZM181.996 71.0005V70.4005H183.748V65.9005H181.996V65.3005H184.384V70.4005H186.136V71.0005H181.996ZM183.496 63.6085C183.496 63.4485 183.54 63.3245 183.628 63.2365C183.724 63.1485 183.852 63.1045 184.012 63.1045C184.34 63.1045 184.504 63.2805 184.504 63.6325C184.504 63.9845 184.34 64.1565 184.012 64.1485C183.668 64.1485 183.496 63.9685 183.496 63.6085ZM189.544 65.9005V65.3005H193.456L193.516 65.7925L190.288 70.4005H193.552V71.0005H189.532L189.436 70.5085L192.652 65.9005H189.544ZM198.616 70.4845C198.912 70.4845 199.232 70.3925 199.576 70.2085C199.928 70.0165 200.184 69.8405 200.344 69.6805V68.2525C199.816 68.2125 199.312 68.1925 198.832 68.1925C198.352 68.1925 197.992 68.2965 197.752 68.5045C197.512 68.7045 197.392 68.9765 197.392 69.3205C197.392 70.0965 197.8 70.4845 198.616 70.4845ZM198.604 71.1085C198.02 71.1085 197.56 70.9605 197.224 70.6645C196.888 70.3605 196.72 69.9325 196.72 69.3805C196.72 68.8285 196.904 68.4005 197.272 68.0965C197.64 67.7845 198.128 67.6285 198.736 67.6285C199.344 67.6285 199.88 67.6525 200.344 67.7005C200.344 66.9885 200.256 66.5045 200.08 66.2485C199.904 65.9845 199.548 65.8525 199.012 65.8525C198.476 65.8525 197.844 65.9805 197.116 66.2365L196.936 65.6365C197.68 65.3645 198.352 65.2285 198.952 65.2285C199.744 65.2285 200.28 65.4045 200.56 65.7565C200.84 66.1085 200.98 66.7245 200.98 67.6045V70.1245L201.076 71.0365L200.464 71.0965L200.344 70.3765C200.16 70.5365 199.9 70.7005 199.564 70.8685C199.228 71.0285 198.908 71.1085 198.604 71.1085ZM204.172 66.0565V65.4565H205.336V64.0045L205.972 63.8845V65.4565H208.72V66.0565H205.972V68.7925C205.972 69.4005 206.06 69.8405 206.236 70.1125C206.42 70.3765 206.744 70.5085 207.208 70.5085C207.384 70.5085 207.656 70.4805 208.024 70.4245C208.392 70.3605 208.644 70.3045 208.78 70.2565L208.924 70.8445C208.772 70.9005 208.492 70.9605 208.084 71.0245C207.684 71.0885 207.392 71.1205 207.208 71.1205C206.488 71.1205 205.996 70.9325 205.732 70.5565C205.468 70.1725 205.336 69.5925 205.336 68.8165V66.0565H204.172ZM211.996 71.0005V70.4005H213.748V65.9005H211.996V65.3005H214.384V70.4005H216.136V71.0005H211.996ZM213.496 63.6085C213.496 63.4485 213.54 63.3245 213.628 63.2365C213.724 63.1485 213.852 63.1045 214.012 63.1045C214.34 63.1045 214.504 63.2805 214.504 63.6325C214.504 63.9845 214.34 64.1565 214.012 64.1485C213.668 64.1485 213.496 63.9685 213.496 63.6085ZM219.208 68.1685C219.208 66.2085 219.972 65.2285 221.5 65.2285C223.028 65.2285 223.792 66.2085 223.792 68.1685C223.792 70.1285 223.028 71.1085 221.5 71.1085C219.972 71.1085 219.208 70.1285 219.208 68.1685ZM221.5 65.8525C220.428 65.8525 219.892 66.6245 219.892 68.1685C219.892 69.7125 220.428 70.4845 221.5 70.4845C222.572 70.4845 223.108 69.7125 223.108 68.1685C223.108 66.6245 222.572 65.8525 221.5 65.8525ZM227.524 65.3005L227.548 65.7805C228.324 65.4125 228.968 65.2285 229.48 65.2285C229.992 65.2285 230.392 65.4045 230.68 65.7565C230.976 66.1085 231.124 66.5885 231.124 67.1965V71.0005H230.488V67.1965C230.488 66.8045 230.392 66.4805 230.2 66.2245C230.008 65.9765 229.72 65.8525 229.336 65.8525C228.952 65.8525 228.356 66.0285 227.548 66.3805V71.0005H226.912V65.3005H227.524Z" fill="black"/>
<path d="M46.8623 84.1108C46.8766 84.0249 46.8874 83.9425 46.8945 83.8638C46.9089 83.7778 46.916 83.6955 46.916 83.6167C46.916 83.3159 46.8551 83.0295 46.7334 82.7573C46.6188 82.478 46.4469 82.2345 46.2178 82.0269C45.9958 81.812 45.7236 81.6437 45.4014 81.522C45.0791 81.3931 44.7174 81.3286 44.3164 81.3286C43.8939 81.3286 43.4463 81.4217 42.9736 81.6079C42.501 81.7869 42.0283 82.1056 41.5557 82.564C41.0973 83.008 40.6247 83.5809 40.1377 84.2827C39.6579 84.9774 39.1781 85.7472 38.6982 86.5923C38.2256 87.4302 37.7601 88.3146 37.3018 89.2456C36.8506 90.1766 36.4209 91.0933 36.0127 91.9956C35.6045 92.8979 35.2285 93.7609 34.8848 94.5845C34.541 95.408 34.2438 96.1349 33.9932 96.7651C33.7425 97.3882 33.5456 97.8895 33.4023 98.269C33.2663 98.6486 33.1947 98.8455 33.1875 98.8599L32.6396 98.7202C32.5537 98.1688 32.4749 97.6711 32.4033 97.2271C32.3389 96.783 32.2816 96.3569 32.2314 95.9487C32.1885 95.5405 32.1562 95.1359 32.1348 94.7349C32.1133 94.3338 32.1025 93.9041 32.1025 93.4458C32.1025 93.0734 32.1169 92.6473 32.1455 92.1675C32.1813 91.6877 32.2279 91.1792 32.2852 90.6421C32.3496 90.105 32.4212 89.5535 32.5 88.9878C32.5859 88.422 32.6755 87.867 32.7686 87.3228C32.8688 86.7785 32.9727 86.2629 33.0801 85.7759C33.1875 85.2817 33.2985 84.8377 33.4131 84.4438C32.8044 85.3534 32.2458 86.27 31.7373 87.1938C31.236 88.1177 30.7598 89.0236 30.3086 89.9116C29.8574 90.7996 29.4206 91.6626 28.998 92.5005C28.5755 93.3312 28.1423 94.1118 27.6982 94.8423C27.2542 95.5728 26.7852 96.2424 26.291 96.8511C25.7969 97.4598 25.2526 97.979 24.6582 98.4087C24.071 98.8455 23.4193 99.1821 22.7031 99.4185C21.987 99.6619 21.1849 99.7837 20.2969 99.7837C19.6237 99.7837 18.9863 99.6906 18.3848 99.5044C17.7904 99.3182 17.2676 99.0568 16.8164 98.7202C16.3652 98.3836 16.0107 97.9754 15.7529 97.4956C15.488 97.0158 15.3555 96.4858 15.3555 95.9058C15.3555 95.2469 15.4987 94.6597 15.7852 94.144C16.0645 93.6213 16.4368 93.1844 16.9023 92.8335C17.3678 92.4754 17.9049 92.2033 18.5137 92.0171C19.1224 91.8309 19.7526 91.7378 20.4043 91.7378C20.7767 91.7378 21.1527 91.7629 21.5322 91.813C21.9189 91.8631 22.2949 91.9455 22.6602 92.0601C23.0326 92.1746 23.3906 92.3286 23.7344 92.522C24.0781 92.7082 24.3968 92.9409 24.6904 93.2202L24.2715 93.5962C24.2715 93.5962 24.1927 93.5317 24.0352 93.4028C23.8848 93.2668 23.6556 93.12 23.3477 92.9624C23.0469 92.8049 22.6637 92.6616 22.1982 92.5327C21.7327 92.3966 21.1885 92.3286 20.5654 92.3286C20.0641 92.3286 19.5771 92.4002 19.1045 92.5435C18.6318 92.6867 18.2093 92.8979 17.8369 93.1772C17.4717 93.4565 17.1781 93.8003 16.9561 94.2085C16.734 94.6167 16.623 95.0894 16.623 95.6265C16.623 96.1779 16.7412 96.672 16.9775 97.1089C17.2139 97.5386 17.529 97.9002 17.9229 98.1938C18.3167 98.4946 18.7643 98.7202 19.2656 98.8706C19.7669 99.0282 20.2826 99.1069 20.8125 99.1069C21.6003 99.1069 22.3128 98.9744 22.9502 98.7095C23.5947 98.4517 24.1891 98.0864 24.7334 97.6138C25.2848 97.1411 25.7969 96.5754 26.2695 95.9165C26.7493 95.2576 27.2148 94.5308 27.666 93.7358C28.1172 92.9409 28.5719 92.0923 29.0303 91.1899C29.4886 90.2804 29.972 89.3423 30.4805 88.3755C30.9889 87.4087 31.5368 86.424 32.124 85.4214C32.7113 84.4188 33.3594 83.4233 34.0684 82.4351L34.5625 82.6929C34.3262 83.3875 34.1364 84.1216 33.9932 84.895C33.8499 85.6613 33.7389 86.4526 33.6602 87.269C33.5885 88.0783 33.5384 88.8983 33.5098 89.729C33.4883 90.5597 33.474 91.3797 33.4668 92.189C33.4596 92.9982 33.4525 93.7896 33.4453 94.563C33.4453 95.3293 33.4274 96.0562 33.3916 96.7437C33.6351 96.1206 33.9287 95.3937 34.2725 94.563C34.6162 93.7323 34.9958 92.855 35.4111 91.9312C35.8265 91.0073 36.2669 90.0692 36.7324 89.1167C37.2051 88.1571 37.6849 87.2404 38.1719 86.3667C38.666 85.493 39.1637 84.6945 39.665 83.9712C40.1735 83.2407 40.6712 82.6392 41.1582 82.1665C41.6953 81.6509 42.2324 81.2892 42.7695 81.0815C43.3138 80.8667 43.833 80.7593 44.3271 80.7593C44.8141 80.7593 45.251 80.8416 45.6377 81.0063C46.0316 81.1639 46.3646 81.3752 46.6367 81.6401C46.9089 81.8979 47.1165 82.1987 47.2598 82.5425C47.403 82.8862 47.4746 83.2407 47.4746 83.606C47.4746 83.8065 47.4531 84.0142 47.4102 84.229L46.8623 84.1108ZM46.6689 90.8569C46.5758 91.0431 46.4434 91.2866 46.2715 91.5874C46.1068 91.8882 45.9277 92.2212 45.7344 92.5864C45.541 92.9445 45.3441 93.3205 45.1436 93.7144C44.9502 94.1082 44.7712 94.495 44.6064 94.8745C44.4489 95.2469 44.3164 95.6014 44.209 95.938C44.1087 96.2674 44.0586 96.5467 44.0586 96.7759C44.0586 97.005 44.1016 97.1554 44.1875 97.2271C44.2806 97.2915 44.3988 97.3237 44.542 97.3237C44.7497 97.3237 44.9609 97.2629 45.1758 97.1411C45.3978 97.0194 45.6126 96.8618 45.8203 96.6685C46.0352 96.4751 46.2428 96.2567 46.4434 96.0132C46.6439 95.7697 46.8301 95.5262 47.002 95.2827C47.181 95.0321 47.3421 94.7957 47.4854 94.5737C47.6286 94.3446 47.7503 94.1512 47.8506 93.9937L48.2373 94.2944C48.1156 94.5236 47.9723 94.7707 47.8076 95.0356C47.6429 95.3006 47.4603 95.5692 47.2598 95.8413C47.0664 96.1063 46.8551 96.3641 46.626 96.6147C46.3968 96.8654 46.1533 97.0874 45.8955 97.2808C45.6449 97.4741 45.3799 97.6281 45.1006 97.7427C44.8213 97.8573 44.5348 97.9146 44.2412 97.9146C43.8115 97.9146 43.4964 97.7856 43.2959 97.5278C43.0954 97.27 42.9951 96.937 42.9951 96.5288C42.9951 96.5002 42.9951 96.4393 42.9951 96.3462C43.0023 96.2459 43.013 96.1672 43.0273 96.1099C42.6693 96.561 42.3255 96.9334 41.9961 97.2271C41.6738 97.5207 41.3587 97.7534 41.0508 97.9253C40.75 98.0972 40.4564 98.2153 40.1699 98.2798C39.8906 98.3514 39.6221 98.3872 39.3643 98.3872C39.0921 98.3872 38.8343 98.3407 38.5908 98.2476C38.3545 98.1616 38.1468 98.0327 37.9678 97.8608C37.7816 97.689 37.6383 97.4777 37.5381 97.2271C37.4307 96.9764 37.377 96.6864 37.377 96.3569C37.377 95.9487 37.4701 95.4832 37.6562 94.9604C37.8353 94.4305 38.1576 93.8612 38.623 93.2524C39.0169 92.7297 39.4251 92.2892 39.8477 91.9312C40.2773 91.5731 40.6963 91.2866 41.1045 91.0718C41.5199 90.8498 41.9137 90.6922 42.2861 90.5991C42.6585 90.506 42.9915 90.4595 43.2852 90.4595C43.944 90.4595 44.4417 90.5705 44.7783 90.7925C45.1149 91.0073 45.319 91.3403 45.3906 91.7915C45.5339 91.6125 45.6842 91.4334 45.8418 91.2544C45.9993 91.0754 46.1605 90.8927 46.3252 90.7065L46.6689 90.8569ZM43.3711 94.939C43.4642 94.7886 43.5788 94.5988 43.7148 94.3696C43.8509 94.1333 43.9941 93.8934 44.1445 93.6499C44.2949 93.3993 44.4417 93.1593 44.585 92.9302C44.7282 92.701 44.8535 92.5076 44.9609 92.3501C44.9609 92.2856 44.9502 92.1818 44.9287 92.0386C44.9144 91.8953 44.8678 91.7521 44.7891 91.6089C44.7103 91.4585 44.585 91.3296 44.4131 91.2222C44.2412 91.1147 44.0013 91.061 43.6934 91.061C43.4714 91.061 43.2207 91.0968 42.9414 91.1685C42.6693 91.2329 42.3757 91.3475 42.0605 91.5122C41.7526 91.6698 41.4339 91.881 41.1045 92.146C40.7751 92.411 40.4456 92.7404 40.1162 93.1343C39.6221 93.7287 39.2389 94.3267 38.9668 94.9282C38.7018 95.5226 38.5693 96.0597 38.5693 96.5396C38.5693 96.9478 38.6624 97.2629 38.8486 97.4849C39.0348 97.7069 39.2998 97.8179 39.6436 97.8179C40.0374 97.8179 40.4062 97.7319 40.75 97.5601C41.0938 97.381 41.416 97.1519 41.7168 96.8726C42.0176 96.5933 42.304 96.2853 42.5762 95.9487C42.8483 95.605 43.1133 95.2684 43.3711 94.939ZM51.3096 89.5679C51.2738 89.6323 51.2272 89.7039 51.1699 89.7827C51.1126 89.8543 51.0553 89.9403 50.998 90.0405C50.9479 90.1336 50.9014 90.2446 50.8584 90.3735C50.8226 90.5024 50.8047 90.6564 50.8047 90.8354C50.8047 90.9858 50.8405 91.1899 50.9121 91.4478C50.9909 91.7056 51.0732 92.0028 51.1592 92.3394C51.2451 92.6688 51.3239 93.0304 51.3955 93.4243C51.4743 93.811 51.5137 94.2121 51.5137 94.6274C51.5137 95.2362 51.4313 95.7733 51.2666 96.2388C51.1019 96.7043 50.8835 97.1017 50.6113 97.4312C51.1699 97.1304 51.7178 96.7007 52.2549 96.1421C52.792 95.5763 53.3327 94.8602 53.877 93.9937L54.2422 94.3159C53.9342 94.8244 53.5833 95.3293 53.1895 95.8306C52.8027 96.3247 52.3766 96.7723 51.9111 97.1733C51.4456 97.5672 50.9443 97.8859 50.4072 98.1294C49.8701 98.38 49.3008 98.5054 48.6992 98.5054C48.1621 98.5054 47.7109 98.3765 47.3457 98.1187C46.9733 97.868 46.7441 97.4884 46.6582 96.98L47.0449 96.9048C47.0449 96.9478 47.0664 97.0194 47.1094 97.1196C47.1452 97.2127 47.2061 97.3058 47.292 97.3989C47.3779 97.492 47.4961 97.5744 47.6465 97.646C47.7897 97.7176 47.9688 97.7534 48.1836 97.7534C48.4701 97.7534 48.7243 97.689 48.9463 97.5601C49.1683 97.424 49.3617 97.2485 49.5264 97.0337C49.6911 96.8188 49.8307 96.5754 49.9453 96.3032C50.0599 96.0239 50.1494 95.7375 50.2139 95.4438C50.2855 95.1502 50.3356 94.8638 50.3643 94.5845C50.3929 94.3052 50.4072 94.0509 50.4072 93.8218C50.4072 93.5926 50.3965 93.3384 50.375 93.0591C50.3607 92.7798 50.3428 92.5148 50.3213 92.2642C50.2998 92.0063 50.2783 91.7843 50.2568 91.5981C50.2425 91.4048 50.2354 91.2795 50.2354 91.2222V91.2007C50.1423 91.3009 50.0312 91.4478 49.9023 91.6411C49.7734 91.8345 49.6338 92.0457 49.4834 92.2749C49.3402 92.5041 49.1934 92.7368 49.043 92.9731C48.8997 93.2095 48.7673 93.4243 48.6455 93.6177C48.5309 93.811 48.4342 93.9722 48.3555 94.1011C48.2839 94.2228 48.248 94.2873 48.248 94.2944L47.8613 93.9937C47.8685 93.9865 47.958 93.8325 48.1299 93.5317C48.3018 93.231 48.5273 92.8514 48.8066 92.3931C49.0931 91.9276 49.4154 91.4155 49.7734 90.8569C50.1315 90.2912 50.5003 89.7433 50.8799 89.2134L51.3096 89.5679ZM62.417 90.8569C62.3239 91.0431 62.1914 91.2866 62.0195 91.5874C61.8548 91.8882 61.6758 92.2212 61.4824 92.5864C61.2891 92.9445 61.0921 93.3205 60.8916 93.7144C60.6982 94.1082 60.5192 94.495 60.3545 94.8745C60.1969 95.2469 60.0645 95.6014 59.957 95.938C59.8568 96.2674 59.8066 96.5467 59.8066 96.7759C59.8066 97.005 59.8496 97.1554 59.9355 97.2271C60.0286 97.2915 60.1468 97.3237 60.29 97.3237C60.4977 97.3237 60.709 97.2629 60.9238 97.1411C61.1458 97.0194 61.3607 96.8618 61.5684 96.6685C61.7832 96.4751 61.9909 96.2567 62.1914 96.0132C62.3919 95.7697 62.5781 95.5262 62.75 95.2827C62.929 95.0321 63.0902 94.7957 63.2334 94.5737C63.3766 94.3446 63.4984 94.1512 63.5986 93.9937L63.9854 94.2944C63.8636 94.5236 63.7204 94.7707 63.5557 95.0356C63.391 95.3006 63.2083 95.5692 63.0078 95.8413C62.8145 96.1063 62.6032 96.3641 62.374 96.6147C62.1449 96.8654 61.9014 97.0874 61.6436 97.2808C61.3929 97.4741 61.1279 97.6281 60.8486 97.7427C60.5693 97.8573 60.2829 97.9146 59.9893 97.9146C59.5596 97.9146 59.2445 97.7856 59.0439 97.5278C58.8434 97.27 58.7432 96.937 58.7432 96.5288C58.7432 96.5002 58.7432 96.4393 58.7432 96.3462C58.7503 96.2459 58.7611 96.1672 58.7754 96.1099C58.4173 96.561 58.0736 96.9334 57.7441 97.2271C57.4219 97.5207 57.1068 97.7534 56.7988 97.9253C56.498 98.0972 56.2044 98.2153 55.918 98.2798C55.6387 98.3514 55.3701 98.3872 55.1123 98.3872C54.8402 98.3872 54.5824 98.3407 54.3389 98.2476C54.1025 98.1616 53.8949 98.0327 53.7158 97.8608C53.5296 97.689 53.3864 97.4777 53.2861 97.2271C53.1787 96.9764 53.125 96.6864 53.125 96.3569C53.125 95.9487 53.2181 95.4832 53.4043 94.9604C53.5833 94.4305 53.9056 93.8612 54.3711 93.2524C54.765 92.7297 55.1732 92.2892 55.5957 91.9312C56.0254 91.5731 56.4443 91.2866 56.8525 91.0718C57.2679 90.8498 57.6618 90.6922 58.0342 90.5991C58.4066 90.506 58.7396 90.4595 59.0332 90.4595C59.6921 90.4595 60.1898 90.5705 60.5264 90.7925C60.863 91.0073 61.0671 91.3403 61.1387 91.7915C61.2819 91.6125 61.4323 91.4334 61.5898 91.2544C61.7474 91.0754 61.9085 90.8927 62.0732 90.7065L62.417 90.8569ZM59.1191 94.939C59.2122 94.7886 59.3268 94.5988 59.4629 94.3696C59.599 94.1333 59.7422 93.8934 59.8926 93.6499C60.043 93.3993 60.1898 93.1593 60.333 92.9302C60.4762 92.701 60.6016 92.5076 60.709 92.3501C60.709 92.2856 60.6982 92.1818 60.6768 92.0386C60.6624 91.8953 60.6159 91.7521 60.5371 91.6089C60.4583 91.4585 60.333 91.3296 60.1611 91.2222C59.9893 91.1147 59.7493 91.061 59.4414 91.061C59.2194 91.061 58.9688 91.0968 58.6895 91.1685C58.4173 91.2329 58.1237 91.3475 57.8086 91.5122C57.5007 91.6698 57.182 91.881 56.8525 92.146C56.5231 92.411 56.1937 92.7404 55.8643 93.1343C55.3701 93.7287 54.987 94.3267 54.7148 94.9282C54.4499 95.5226 54.3174 96.0597 54.3174 96.5396C54.3174 96.9478 54.4105 97.2629 54.5967 97.4849C54.7829 97.7069 55.0479 97.8179 55.3916 97.8179C55.7855 97.8179 56.1543 97.7319 56.498 97.5601C56.8418 97.381 57.1641 97.1519 57.4648 96.8726C57.7656 96.5933 58.0521 96.2853 58.3242 95.9487C58.5964 95.605 58.8613 95.2684 59.1191 94.939Z" fill="black"/>
<path d="M74.08 92.6765C73.776 92.9645 73.472 93.2405 73.168 93.5045C72.384 94.1765 71.884 94.7805 71.668 95.3165H75.376V96.0005H70.876V95.4125C71.02 95.0045 71.24 94.6125 71.536 94.2365C71.84 93.8605 72.148 93.5365 72.46 93.2645L73.372 92.4485C74.044 91.8245 74.38 91.1725 74.38 90.4925C74.38 90.0205 74.24 89.6405 73.96 89.3525C73.68 89.0565 73.328 88.9085 72.904 88.9085C72.488 88.9085 71.892 89.1765 71.116 89.7125L70.78 89.2085C71.62 88.5925 72.344 88.2845 72.952 88.2845C73.568 88.2845 74.076 88.4805 74.476 88.8725C74.884 89.2565 75.088 89.8245 75.088 90.5765C75.088 91.3205 74.752 92.0205 74.08 92.6765ZM76.696 92.1845C76.696 90.7765 76.876 89.7725 77.236 89.1725C77.596 88.5725 78.18 88.2725 78.988 88.2725C79.804 88.2725 80.392 88.5725 80.752 89.1725C81.112 89.7725 81.292 90.7765 81.292 92.1845C81.292 93.5845 81.112 94.5885 80.752 95.1965C80.392 95.8045 79.804 96.1085 78.988 96.1085C78.18 96.1085 77.596 95.8045 77.236 95.1965C76.876 94.5885 76.696 93.5845 76.696 92.1845ZM77.788 94.7165C78.012 95.2285 78.412 95.4845 78.988 95.4845C79.564 95.4845 79.964 95.2285 80.188 94.7165C80.412 94.2045 80.524 93.3565 80.524 92.1725C80.524 90.9805 80.416 90.1365 80.2 89.6405C79.984 89.1445 79.584 88.8965 79 88.8965C78.416 88.8965 78.012 89.1485 77.788 89.6525C77.572 90.1485 77.464 90.9885 77.464 92.1725C77.464 93.3565 77.572 94.2045 77.788 94.7165ZM87.448 96.0005H82.948V95.3885H85V89.1485L83.02 90.0605L82.744 89.4245L85.072 88.3805H85.708V95.3885H87.448V96.0005ZM88.672 89.6525L88.9 88.3925H93.16V89.0645C93.112 89.5445 92.66 90.5485 91.804 92.0765C91.492 92.6365 91.204 93.2845 90.94 94.0205C90.684 94.7485 90.556 95.4085 90.556 96.0005H89.848C89.848 95.3845 89.976 94.6965 90.232 93.9365C90.488 93.1845 90.776 92.5205 91.096 91.9445L92.008 90.2405C92.296 89.6805 92.452 89.2725 92.476 89.0165H89.428L89.26 89.7005L88.672 89.6525ZM95.32 93.4445V92.7965H98.764V93.4445H95.32ZM105.448 96.0005H100.948V95.3885H103V89.1485L101.02 90.0605L100.744 89.4245L103.072 88.3805H103.708V95.3885H105.448V96.0005ZM109.096 93.1325C108.352 93.1325 107.776 92.9285 107.368 92.5205C106.96 92.1045 106.756 91.5245 106.756 90.7805C106.756 90.0285 106.972 89.4245 107.404 88.9685C107.836 88.5125 108.412 88.2845 109.132 88.2845C109.86 88.2845 110.428 88.5045 110.836 88.9445C111.244 89.3845 111.448 89.9965 111.448 90.7805C111.448 91.8605 111.26 92.8005 110.884 93.6005C110.508 94.4005 109.896 95.2685 109.048 96.2045L108.244 96.0725C108.996 95.2565 109.536 94.5845 109.864 94.0565C110.2 93.5285 110.456 92.9645 110.632 92.3645C110.12 92.8765 109.608 93.1325 109.096 93.1325ZM107.452 90.7445C107.452 91.9205 108 92.5085 109.096 92.5085C109.568 92.5085 109.96 92.3445 110.272 92.0165C110.592 91.6885 110.752 91.2765 110.752 90.7805C110.752 89.5325 110.204 88.9085 109.108 88.9085C108.588 88.9085 108.18 89.0765 107.884 89.4125C107.596 89.7485 107.452 90.1925 107.452 90.7445Z" fill="black"/>
<path d="M19.12 120.752V114.98C19.12 114.684 19.088 114.472 19.024 114.344C18.96 114.216 18.828 114.152 18.628 114.152V113.78L21.088 112.748L21.28 113.132C21.104 113.132 20.936 113.236 20.776 113.444C20.632 113.644 20.56 113.948 20.56 114.356V120.032C20.56 120.296 20.616 120.524 20.728 120.716C20.84 120.908 20.98 121.004 21.148 121.004V121.268C21.092 121.276 20.656 121.52 19.84 122C19.784 121.984 19.716 121.964 19.636 121.94C19.556 121.908 19.448 121.828 19.312 121.7C19.184 121.572 19.12 121.424 19.12 121.256C19.072 121.28 18.936 121.356 18.712 121.484C18.12 121.82 17.768 121.988 17.656 121.988C17.4 121.988 17.16 121.824 16.936 121.496C16.712 121.16 16.6 120.848 16.6 120.56V114.524C16.6 114.084 16.404 113.824 16.012 113.744V113.48L17.32 112.748C17.496 112.82 17.66 112.94 17.812 113.108C17.964 113.268 18.04 113.42 18.04 113.564V119.444C18.04 119.948 18.112 120.292 18.256 120.476C18.408 120.66 18.696 120.752 19.12 120.752ZM21.4203 113.744V113.492L22.6683 112.76H23.1363L24.4443 116.648L24.7083 116.528V114.5C24.7083 114.268 24.6683 114.088 24.5883 113.96C24.5083 113.824 24.4283 113.744 24.3483 113.72L24.2163 113.696V113.432L25.3683 112.748C25.4323 112.748 25.5683 112.84 25.7763 113.024C25.9843 113.2 26.0883 113.368 26.0883 113.528V116.48C26.0883 116.616 25.6003 116.86 24.6243 117.212L25.8003 120.752C25.8403 120.864 25.9163 120.936 26.0283 120.968C26.1483 120.992 26.3243 121.004 26.5563 121.004V121.268L25.2483 122H24.7203L23.3283 117.8L23.0763 117.92V120.248C23.0763 120.48 23.1163 120.664 23.1963 120.8C23.2763 120.928 23.3563 121 23.4363 121.016L23.5683 121.052V121.316L22.4163 122C22.3523 122 22.2163 121.912 22.0083 121.736C21.8003 121.552 21.6963 121.38 21.6963 121.22V117.968C21.6963 117.904 21.8603 117.796 22.1883 117.644C22.5163 117.484 22.8323 117.348 23.1363 117.236L22.1043 114.128C22.0643 114.008 22.0043 113.92 21.9243 113.864C21.8443 113.8 21.7723 113.764 21.7083 113.756C21.6443 113.748 21.5483 113.744 21.4203 113.744ZM31.4221 113.936C31.2781 113.936 31.1221 113.996 30.9541 114.116V118.016C31.1621 118.016 31.3941 117.952 31.6501 117.824C31.9061 117.688 32.0341 117.548 32.0341 117.404V114.824C32.0341 114.232 31.8301 113.936 31.4221 113.936ZM29.5141 120.776V114.56C29.5141 114.072 29.3501 113.796 29.0221 113.732V113.468L30.2341 112.784C30.3941 112.848 30.5541 112.964 30.7141 113.132C30.8741 113.3 30.9541 113.452 30.9541 113.588C31.8341 113.052 32.3381 112.784 32.4661 112.784C32.5941 112.784 32.7941 112.948 33.0661 113.276C33.3461 113.604 33.4861 113.9 33.4861 114.164V117.536C33.4861 117.6 33.0501 117.804 32.1781 118.148C32.5461 119.388 32.9781 120.224 33.4741 120.656C33.6981 120.84 33.9261 120.932 34.1581 120.932V121.292C33.4141 121.764 32.9421 122 32.7421 122C32.4781 122 32.1421 121.504 31.7341 120.512C31.3341 119.52 31.1181 118.864 31.0861 118.544L30.9541 118.58V120.152C30.9541 120.448 30.9861 120.66 31.0501 120.788C31.1141 120.916 31.2461 120.98 31.4461 120.98V121.352L28.9861 122.384L28.7941 122C28.9701 122 29.1381 121.896 29.2981 121.688C29.4421 121.488 29.5141 121.184 29.5141 120.776ZM37.6338 115.16C37.6738 115.16 37.7738 115.224 37.9338 115.352C38.0938 115.472 38.2538 115.644 38.4138 115.868C38.5738 116.084 38.6538 116.296 38.6538 116.504V118.52C38.6538 118.664 38.4418 118.84 38.0178 119.048C37.5938 119.256 37.1818 119.428 36.7818 119.564C36.3898 119.692 36.1778 119.756 36.1458 119.756C36.1458 120.372 36.4138 120.752 36.9498 120.896C37.2138 120.96 37.5298 120.992 37.8978 120.992V121.34C36.5858 121.78 35.8858 122 35.7978 122C35.5578 122 35.3138 121.832 35.0658 121.496C34.8178 121.152 34.6938 120.752 34.6938 120.296V116.264C34.6938 116.208 35.1498 116.012 36.0618 115.676C36.9738 115.332 37.4978 115.16 37.6338 115.16ZM37.2138 117.068C37.2138 116.844 37.1618 116.656 37.0578 116.504C36.9538 116.344 36.8218 116.264 36.6618 116.264C36.5018 116.264 36.3258 116.324 36.1338 116.444V119.216C36.8538 119.016 37.2138 118.584 37.2138 117.92V117.068ZM40.3434 119.372C40.1434 119.372 39.9714 119.22 39.8274 118.916C39.6834 118.612 39.6114 118.24 39.6114 117.8V116.504C39.6114 116.352 40.0314 116.092 40.8714 115.724C41.7114 115.348 42.1954 115.16 42.3234 115.16C42.3954 115.16 42.4594 115.204 42.5154 115.292C42.5714 115.372 42.6154 115.44 42.6474 115.496C42.6794 115.544 42.7274 115.632 42.7914 115.76C42.8634 115.88 42.9234 115.98 42.9714 116.06C43.0754 116.252 43.2074 116.348 43.3674 116.348V116.588C43.2394 116.644 43.0714 116.728 42.8634 116.84C42.3514 117.12 42.0754 117.26 42.0354 117.26C41.9154 117.26 41.7834 117.064 41.6394 116.672C41.5034 116.28 41.3794 116.084 41.2674 116.084C41.1234 116.084 41.0514 116.204 41.0514 116.444V117.92C41.0514 118.24 41.1234 118.4 41.2674 118.4C41.2994 118.4 41.5474 118.296 42.0114 118.088C42.4754 117.88 42.7554 117.776 42.8514 117.776C43.0434 117.776 43.2114 117.932 43.3554 118.244C43.5074 118.548 43.5834 118.94 43.5834 119.42V120.776C43.5834 120.928 43.1234 121.192 42.2034 121.568C41.2914 121.936 40.7674 122.12 40.6314 122.12C40.5754 122.12 40.5194 122.072 40.4634 121.976C40.4154 121.872 40.3434 121.716 40.2474 121.508C40.1594 121.3 40.0714 121.124 39.9834 120.98C39.8794 120.788 39.7474 120.692 39.5874 120.692V120.452C39.7154 120.396 39.8874 120.312 40.1034 120.2C40.6074 119.92 40.8794 119.78 40.9194 119.78C41.0394 119.78 41.1874 120.016 41.3634 120.488C41.5474 120.96 41.6954 121.196 41.8074 121.196C41.8874 121.196 41.9634 121.164 42.0354 121.1C42.1074 121.036 42.1434 120.948 42.1434 120.836V119.336C42.1434 118.976 42.0434 118.796 41.8434 118.796C41.7794 118.796 41.5274 118.892 41.0874 119.084C40.6474 119.276 40.3994 119.372 40.3434 119.372ZM47.5947 115.16C47.6347 115.16 47.7347 115.224 47.8947 115.352C48.0547 115.472 48.2147 115.644 48.3747 115.868C48.5347 116.084 48.6147 116.296 48.6147 116.504V118.52C48.6147 118.664 48.4027 118.84 47.9787 119.048C47.5547 119.256 47.1427 119.428 46.7427 119.564C46.3507 119.692 46.1387 119.756 46.1067 119.756C46.1067 120.372 46.3747 120.752 46.9107 120.896C47.1747 120.96 47.4907 120.992 47.8587 120.992V121.34C46.5467 121.78 45.8467 122 45.7587 122C45.5187 122 45.2747 121.832 45.0267 121.496C44.7787 121.152 44.6547 120.752 44.6547 120.296V116.264C44.6547 116.208 45.1107 116.012 46.0227 115.676C46.9347 115.332 47.4587 115.16 47.5947 115.16ZM47.1747 117.068C47.1747 116.844 47.1227 116.656 47.0187 116.504C46.9147 116.344 46.7827 116.264 46.6227 116.264C46.4627 116.264 46.2867 116.324 46.0947 116.444V119.216C46.8147 119.016 47.1747 118.584 47.1747 117.92V117.068ZM52.8747 116.744V120.14C52.8747 120.436 52.9227 120.644 53.0187 120.764C53.1147 120.876 53.2627 120.956 53.4627 121.004V121.268L52.1547 122C51.9787 121.928 51.8147 121.812 51.6627 121.652C51.5107 121.484 51.4347 121.332 51.4347 121.196L49.9347 122C49.9107 121.984 49.8747 121.964 49.8267 121.94C49.7787 121.908 49.6947 121.848 49.5747 121.76C49.4627 121.664 49.3627 121.564 49.2747 121.46C49.0347 121.196 48.9147 120.896 48.9147 120.56V118.592C48.9147 118.464 49.1227 118.3 49.5387 118.1C49.9547 117.9 50.3707 117.736 50.7867 117.608L51.4227 117.404C51.4227 116.948 51.3027 116.632 51.0627 116.456C50.8227 116.272 50.3587 116.18 49.6707 116.18V115.82C50.9107 115.38 51.6067 115.16 51.7587 115.16C52.0227 115.16 52.2747 115.332 52.5147 115.676C52.7547 116.02 52.8747 116.376 52.8747 116.744ZM50.3547 120.128C50.3547 120.336 50.4147 120.508 50.5347 120.644C50.6627 120.772 50.8027 120.836 50.9547 120.836C51.1067 120.836 51.2667 120.776 51.4347 120.656V117.944C51.2347 118.016 51.0827 118.076 50.9787 118.124C50.8827 118.172 50.7787 118.248 50.6667 118.352C50.4587 118.544 50.3547 118.876 50.3547 119.348V120.128ZM53.4886 115.88L54.8086 115.16C54.8646 115.176 54.9286 115.2 55.0006 115.232C55.0806 115.256 55.1846 115.332 55.3126 115.46C55.4486 115.588 55.5166 115.732 55.5166 115.892C55.5566 115.876 55.7446 115.752 56.0806 115.52C56.4246 115.28 56.6446 115.16 56.7406 115.16C56.9966 115.16 57.2366 115.328 57.4606 115.664C57.6846 116 57.7966 116.308 57.7966 116.588V117.176L56.5606 117.872L56.3566 117.704C56.3566 117.032 56.2926 116.648 56.1646 116.552C56.0206 116.448 55.8046 116.396 55.5166 116.396V120.224C55.5166 120.712 55.6806 120.988 56.0086 121.052V121.316L54.7966 122C54.6206 121.928 54.4566 121.812 54.3046 121.652C54.1526 121.484 54.0766 121.328 54.0766 121.184V117.2C54.0766 116.848 54.0126 116.584 53.8846 116.408C53.7646 116.232 53.6326 116.144 53.4886 116.144V115.88ZM60.2912 116.324C60.2112 116.324 60.1392 116.364 60.0752 116.444V119.756C60.0752 120.372 60.3392 120.752 60.8672 120.896C61.1392 120.96 61.4632 120.992 61.8392 120.992V121.34C60.5272 121.78 59.8272 122 59.7392 122C59.4992 122 59.2552 121.832 59.0072 121.496C58.7592 121.152 58.6352 120.752 58.6352 120.296V116.264C58.6352 116.208 59.0912 116.012 60.0032 115.676C60.9232 115.332 61.4512 115.16 61.5872 115.16C61.6352 115.16 61.6912 115.276 61.7552 115.508C61.8192 115.74 61.8912 116.02 61.9712 116.348C62.0592 116.676 62.1472 116.92 62.2352 117.08C62.3312 117.232 62.5072 117.308 62.7632 117.308V117.548C62.5872 117.628 62.2872 117.772 61.8632 117.98C61.4472 118.18 61.2232 118.28 61.1912 118.28C61.0712 118.28 60.9192 117.956 60.7352 117.308C60.5512 116.652 60.4032 116.324 60.2912 116.324ZM63.4867 121.184V115.244C63.4867 115.028 63.4507 114.876 63.3787 114.788C63.3067 114.692 63.1827 114.644 63.0067 114.644V114.308C64.0467 113.764 64.9747 113.252 65.7907 112.772L65.9827 113.156C65.9027 113.196 65.7907 113.276 65.6467 113.396C65.5027 113.508 65.3827 113.624 65.2867 113.744C65.0467 114.048 64.9267 114.392 64.9267 114.776V115.796C65.7507 115.372 66.2307 115.16 66.3667 115.16C66.6227 115.16 66.8667 115.32 67.0987 115.64C67.3307 115.96 67.4467 116.312 67.4467 116.696V120.224C67.4467 120.664 67.6427 120.924 68.0347 121.004V121.268L66.7267 122C66.5507 121.928 66.3867 121.812 66.2347 121.652C66.0827 121.484 66.0067 121.328 66.0067 121.184V117.704C66.0067 116.92 65.8627 116.476 65.5747 116.372C65.4387 116.324 65.2227 116.3 64.9267 116.3V120.224C64.9267 120.712 65.0907 120.988 65.4187 121.052V121.316L64.2067 122C64.0307 121.928 63.8667 121.812 63.7147 121.652C63.5627 121.484 63.4867 121.328 63.4867 121.184ZM68.655 121.232V120.74C68.655 120.716 68.819 120.644 69.147 120.524C69.483 120.396 69.675 120.332 69.723 120.332C69.779 120.332 69.855 120.4 69.951 120.536C70.055 120.672 70.107 120.812 70.107 120.956V121.592C70.107 121.832 70.011 122.192 69.819 122.672C69.627 123.16 69.371 123.496 69.051 123.68L68.511 123.176C68.655 123.12 68.759 122.968 68.823 122.72C68.887 122.48 68.919 122.256 68.919 122.048C68.919 122.016 68.875 121.924 68.787 121.772C68.699 121.62 68.655 121.44 68.655 121.232ZM76.1083 120.752V114.98C76.1083 114.684 76.0763 114.472 76.0123 114.344C75.9483 114.216 75.8163 114.152 75.6163 114.152V113.78L78.0763 112.748L78.2683 113.132C78.0923 113.132 77.9243 113.236 77.7643 113.444C77.6203 113.644 77.5483 113.948 77.5483 114.356V120.032C77.5483 120.296 77.6043 120.524 77.7163 120.716C77.8283 120.908 77.9683 121.004 78.1363 121.004V121.268C78.0803 121.276 77.6443 121.52 76.8283 122C76.7723 121.984 76.7043 121.964 76.6243 121.94C76.5443 121.908 76.4363 121.828 76.3003 121.7C76.1723 121.572 76.1083 121.424 76.1083 121.256C76.0603 121.28 75.9243 121.356 75.7003 121.484C75.1083 121.82 74.7563 121.988 74.6443 121.988C74.3883 121.988 74.1483 121.824 73.9243 121.496C73.7003 121.16 73.5883 120.848 73.5883 120.56V114.524C73.5883 114.084 73.3923 113.824 73.0003 113.744V113.48L74.3083 112.748C74.4843 112.82 74.6483 112.94 74.8003 113.108C74.9523 113.268 75.0283 113.42 75.0283 113.564V119.444C75.0283 119.948 75.1003 120.292 75.2443 120.476C75.3963 120.66 75.6843 120.752 76.1083 120.752ZM78.4085 113.744V113.492L79.6565 112.76H80.1245L81.4325 116.648L81.6965 116.528V114.5C81.6965 114.268 81.6565 114.088 81.5765 113.96C81.4965 113.824 81.4165 113.744 81.3365 113.72L81.2045 113.696V113.432L82.3565 112.748C82.4205 112.748 82.5565 112.84 82.7645 113.024C82.9725 113.2 83.0765 113.368 83.0765 113.528V116.48C83.0765 116.616 82.5885 116.86 81.6125 117.212L82.7885 120.752C82.8285 120.864 82.9045 120.936 83.0165 120.968C83.1365 120.992 83.3125 121.004 83.5445 121.004V121.268L82.2365 122H81.7085L80.3165 117.8L80.0645 117.92V120.248C80.0645 120.48 80.1045 120.664 80.1845 120.8C80.2645 120.928 80.3445 121 80.4245 121.016L80.5565 121.052V121.316L79.4045 122C79.3405 122 79.2045 121.912 78.9965 121.736C78.7885 121.552 78.6845 121.38 78.6845 121.22V117.968C78.6845 117.904 78.8485 117.796 79.1765 117.644C79.5045 117.484 79.8205 117.348 80.1245 117.236L79.0925 114.128C79.0525 114.008 78.9925 113.92 78.9125 113.864C78.8325 113.8 78.7605 113.764 78.6965 113.756C78.6325 113.748 78.5365 113.744 78.4085 113.744ZM90.4743 114.14V120.884C90.4743 120.948 90.0343 121.152 89.1543 121.496C88.2823 121.832 87.7463 122 87.5463 122C87.3543 122 87.1303 121.828 86.8743 121.484C86.6263 121.14 86.5023 120.728 86.5023 120.248V114.488C86.5023 114.056 86.3383 113.804 86.0103 113.732V113.468L87.2223 112.784C87.3983 112.856 87.5623 112.976 87.7143 113.144C87.8663 113.304 87.9423 113.456 87.9423 113.6L89.4303 112.76C89.5743 112.76 89.7823 112.924 90.0543 113.252C90.3343 113.58 90.4743 113.876 90.4743 114.14ZM88.5543 120.896C88.7063 120.896 88.8623 120.832 89.0223 120.704V115.04C89.0223 114.472 88.8183 114.188 88.4103 114.188C88.2503 114.188 88.0943 114.248 87.9423 114.368V120.008C87.9423 120.6 88.1463 120.896 88.5543 120.896ZM94.6103 115.16C94.6503 115.16 94.7503 115.224 94.9103 115.352C95.0703 115.472 95.2303 115.644 95.3903 115.868C95.5503 116.084 95.6303 116.296 95.6303 116.504V118.52C95.6303 118.664 95.4183 118.84 94.9943 119.048C94.5703 119.256 94.1583 119.428 93.7583 119.564C93.3663 119.692 93.1543 119.756 93.1223 119.756C93.1223 120.372 93.3903 120.752 93.9263 120.896C94.1903 120.96 94.5063 120.992 94.8743 120.992V121.34C93.5623 121.78 92.8623 122 92.7743 122C92.5343 122 92.2903 121.832 92.0423 121.496C91.7943 121.152 91.6703 120.752 91.6703 120.296V116.264C91.6703 116.208 92.1263 116.012 93.0383 115.676C93.9503 115.332 94.4743 115.16 94.6103 115.16ZM94.1903 117.068C94.1903 116.844 94.1383 116.656 94.0343 116.504C93.9303 116.344 93.7983 116.264 93.6383 116.264C93.4783 116.264 93.3023 116.324 93.1103 116.444V119.216C93.8303 119.016 94.1903 118.584 94.1903 117.92V117.068ZM97.32 119.372C97.12 119.372 96.948 119.22 96.804 118.916C96.66 118.612 96.588 118.24 96.588 117.8V116.504C96.588 116.352 97.008 116.092 97.848 115.724C98.688 115.348 99.172 115.16 99.3 115.16C99.372 115.16 99.436 115.204 99.492 115.292C99.548 115.372 99.592 115.44 99.624 115.496C99.656 115.544 99.704 115.632 99.768 115.76C99.84 115.88 99.9 115.98 99.948 116.06C100.052 116.252 100.184 116.348 100.344 116.348V116.588C100.216 116.644 100.048 116.728 99.84 116.84C99.328 117.12 99.052 117.26 99.012 117.26C98.892 117.26 98.76 117.064 98.616 116.672C98.48 116.28 98.356 116.084 98.244 116.084C98.1 116.084 98.028 116.204 98.028 116.444V117.92C98.028 118.24 98.1 118.4 98.244 118.4C98.276 118.4 98.524 118.296 98.988 118.088C99.452 117.88 99.732 117.776 99.828 117.776C100.02 117.776 100.188 117.932 100.332 118.244C100.484 118.548 100.56 118.94 100.56 119.42V120.776C100.56 120.928 100.1 121.192 99.18 121.568C98.268 121.936 97.744 122.12 97.608 122.12C97.552 122.12 97.496 122.072 97.44 121.976C97.392 121.872 97.32 121.716 97.224 121.508C97.136 121.3 97.048 121.124 96.96 120.98C96.856 120.788 96.724 120.692 96.564 120.692V120.452C96.692 120.396 96.864 120.312 97.08 120.2C97.584 119.92 97.856 119.78 97.896 119.78C98.016 119.78 98.164 120.016 98.34 120.488C98.524 120.96 98.672 121.196 98.784 121.196C98.864 121.196 98.94 121.164 99.012 121.1C99.084 121.036 99.12 120.948 99.12 120.836V119.336C99.12 118.976 99.02 118.796 98.82 118.796C98.756 118.796 98.504 118.892 98.064 119.084C97.624 119.276 97.376 119.372 97.32 119.372ZM103.071 115.976V120.224C103.071 120.712 103.235 120.988 103.563 121.052V121.316L102.351 122C102.175 121.928 102.011 121.812 101.859 121.652C101.707 121.484 101.631 121.328 101.631 121.184V116.936C101.631 116.448 101.467 116.172 101.139 116.108V115.844L102.351 115.16C102.527 115.232 102.691 115.352 102.843 115.52C102.995 115.68 103.071 115.832 103.071 115.976ZM101.451 113.66V112.928C101.451 112.904 101.615 112.832 101.943 112.712C102.279 112.584 102.471 112.52 102.519 112.52C102.575 112.52 102.651 112.588 102.747 112.724C102.851 112.86 102.903 113 102.903 113.144V114.02C102.903 114.044 102.743 114.12 102.423 114.248C102.103 114.368 101.907 114.428 101.835 114.428C101.763 114.428 101.679 114.36 101.583 114.224C101.495 114.08 101.451 113.892 101.451 113.66ZM104.268 116.276C104.268 116.196 104.708 115.992 105.588 115.664C106.476 115.328 107.02 115.16 107.22 115.16C107.42 115.16 107.64 115.344 107.88 115.712C108.12 116.072 108.24 116.472 108.24 116.912V120.728C108.24 121.032 108.104 121.464 107.832 122.024C107.56 122.592 107.272 123.088 106.968 123.512C106.664 123.944 106.456 124.16 106.344 124.16C106.144 124.16 105.876 124.1 105.54 123.98C105.204 123.86 104.916 123.74 104.676 123.62L104.328 123.44V123.08H104.736C105.048 123.08 105.404 122.9 105.804 122.54C106.204 122.188 106.536 121.716 106.8 121.124C105.896 121.548 105.376 121.76 105.24 121.76C104.992 121.76 104.768 121.604 104.568 121.292C104.368 120.972 104.268 120.616 104.268 120.224V116.276ZM106.8 117.32C106.8 116.616 106.616 116.264 106.248 116.264C106.056 116.264 105.88 116.328 105.72 116.456V119.216C105.72 119.776 105.808 120.152 105.984 120.344C106.16 120.528 106.432 120.62 106.8 120.62V117.32ZM109.436 121.184V117.116C109.436 116.852 109.38 116.624 109.268 116.432C109.156 116.24 109.016 116.144 108.848 116.144V115.88C108.904 115.872 109.34 115.628 110.156 115.148C110.212 115.164 110.28 115.188 110.36 115.22C110.44 115.244 110.544 115.32 110.672 115.448C110.808 115.576 110.876 115.724 110.876 115.892C110.924 115.868 111.06 115.792 111.284 115.664C111.876 115.328 112.228 115.16 112.34 115.16C112.596 115.16 112.836 115.328 113.06 115.664C113.284 116 113.396 116.308 113.396 116.588V120.224C113.396 120.664 113.592 120.924 113.984 121.004V121.268L112.676 122C112.5 121.928 112.336 121.812 112.184 121.652C112.032 121.484 111.956 121.328 111.956 121.184V117.704C111.956 117.256 111.904 116.916 111.8 116.684C111.704 116.444 111.528 116.324 111.272 116.324L110.876 116.396V120.224C110.876 120.712 111.04 120.988 111.368 121.052V121.316L110.156 122C109.98 121.928 109.816 121.812 109.664 121.652C109.512 121.484 109.436 121.328 109.436 121.184Z" fill="black"/>
<rect x="0.5" y="0.500488" width="255" height="141" rx="5.5" stroke="black"/>
</svg>
